<?xml version="1.0" encoding="utf-8"?>
<!-- Generator: Adobe Illustrator 21.1.0, SVG Export Plug-In . SVG Version: 6.00 Build 0)  -->
<svg version="1.1"
	 id="svg2116" inkscape:version="0.48.2 r9819" sodipodi:docname="British_Islands.svg" xmlns:cc="http://creativecommons.org/ns#" xmlns:dc="http://purl.org/dc/elements/1.1/" xmlns:inkscape="http://www.inkscape.org/namespaces/inkscape" xmlns:rdf="http://www.w3.org/1999/02/22-rdf-syntax-ns#" xmlns:sodipodi="http://sodipodi.sourceforge.net/DTD/sodipodi-0.dtd" xmlns:svg="http://www.w3.org/2000/svg"
	 xmlns="http://www.w3.org/2000/svg" xmlns:xlink="http://www.w3.org/1999/xlink" x="0px" y="0px" viewBox="0 0 624 430"
	 style="enable-background:new 0 0 624 430;" xml:space="preserve">
<style type="text/css">
	.st0{opacity:0.2;}
	.st1{fill:#3B7A9E;stroke:#FFFFFF;stroke-width:0.5;}
</style>
<g>
	
		<sodipodi:namedview  bordercolor="#666666" borderopacity="1" gridtolerance="10" guidetolerance="10" id="namedview422" inkscape:current-layer="svg2116" inkscape:cx="206.90543" inkscape:cy="472.8109" inkscape:pageopacity="0" inkscape:pageshadow="2" inkscape:window-height="873" inkscape:window-maximized="1" inkscape:window-width="1524" inkscape:window-x="-9" inkscape:window-y="-9" inkscape:zoom="0.8" objecttolerance="10" pagecolor="#ffffff" showgrid="false">
		</sodipodi:namedview>
	<g id="layer7" class="st0">
		<path id="path2633" class="st1" d="M340.6,47.3c-0.3,0-0.5,0.3-0.5,1.3c3,2.4-0.8,1.6-2.4,1.8c-1.5-0.1-1.7-1.4-4-0.8
			c-2.5,2.6-5.4,3.1-8.7,2.6c-0.7-3.6-1.2,2-3.2-0.1c-0.9,1.7-2,0.3-2.8,1.7c-0.1,0.1-3.6-1-4.6,1.7c-0.4,2.1-2.4,3.2-0.9,0.3
			c3.8-2.6-4.5-6.4-3.3-2.5c-1.9,1.2-2.4,4.1-4.2,4.6c1.1-2.3,4.1-5.1,0.4-6.1c-1.2-2.6-0.2-0.1-1.6,0.5c-0.4-2.3-3-2.2-4.8-3
			c-0.4,1,0,2.3-0.6,3.4c-2.3,1.5-2.7,4.4,0.2,4.8c2.1,2-2.2-0.4-1.9,1.7c-0.5,0.3,3.4,2.4,0.2,1.2c-1.7-1.9-2.5,3.7-1.4,3.5
			c-1.3,1.9,5,3.4,4.3,3.4c0.4,1.7-0.4,0.1-1.8,0.1c-1.8-1.6-2.5,0.5-4.2,0.1c-2,1.9-3.8-1.1-4.8,0.3c1.5,1.6,1.8,4,3.9,4.5
			c-1,0.9-0.1,1-0.9,1.7c1.8,2.4-1.5,1.5-2.4,2.1c-0.9-2.7-3.7-1-1.5,0.8c1.2,1.3,3.5,3.5,5.9,4.5c-1.2,1.7,0.8,2.6,2.4,3.9
			c1.2,3.2,0,0.4-1.5-0.4c-1.3-2.1-3.8-0.6-4.5-2.6c-3-0.2,0.1,1.6,1.4,2.7c3.4,1.7-0.8,1.4-1.7-0.6c-2.9-2.8-1.7,3.8-4.6,0.9
			c0-2.2-2.6-3.6-2.8-0.7c0.7,1.2,2.6,3.9,1.2,4.5c-0.3,0.7-0.8,1.5-1.6-0.7c0-3-1.4-3-3.8-2.7c0.4,2.1-0.9,6.6,2.6,6.4
			c2.2,2.6-1.5,0.2-1.9,1.9c-2.1,2.3,1.5,2.5,1.5,4.8c1.2,0.8,1,1.8,3.7,1.4c3.7,1.4-3,0.2-1.7,1.7c-1.2,0.2-1.5-2.2-2.6-1.5
			c-2.3-3.9-3.5,2-2.9,4.7c1.9,0.1,1.3,1.6,1.3,2.7c-0.6,3.4,3.7,1,4.9-0.6c-1.5,3.3,2.8,1.7,3.9-0.6c0.9,1.2-3.2,3.8-5.3,3.6
			c-3.7,2.4,0.9,3.3,3.1,2.8c0.9,1,3.9,2.3,3.6,2.7c-2.4-0.1-3.3-3.4-5.8-1.4c0.2,1.6-0.3,2.5-1.3,4.2c1.5,0.7,3.6,1.2,4.3,2.6
			c3.4-1,0.7,0.9-1.1,0.2c-1.7-3.3-7.5,0.7-4.7,2.9c2.6-1.5,1,2.8,3.8,2c3.6-1.3,0.1,0.9-1.5,0.6c-1.3-1.3-4.3-2.9-4.6,0.2
			c-0.9,1.4-0.1,3.2-0.9,3.4c-3.2,1.1,2.3,0.6,3.7,0.5c-2.8,0.9,0.3,2.5,1.1,0.3c1.1,2-4.3,1.1-4.3,3c2.7,0.7,1.6,2.2-0.2,1.8
			c-0.4,0.1-0.7,2.1-2.2,0.1c-2.2,0.7-5.5,0.1-7,2h0c-0.4,3.5,5,1.5,6.8,2.2c2.3,1.3,3.9-1.3,6-1.2c1.2,1.6,6.3,0.1,2.2,1.4
			c-2.4-1.2-4.2-0.6-6.1,1.2c-4.3-1.5-3.4,2.9-0.6,4.6c2.7,0.6,3.1,0.7,5,2.1c3.3,0.2,5-5.7,7.5-6.4c1-2.3,3.1-2.3,3.9-4.3
			c0.1-0.8,3.7-4.6,2.9-2.8c-1.5,2-4.4,5.2-0.1,5.2c3.2-1.8,0.4,1.2-1.4,0c-3,0.1-2.6,2-4.1,3.3c-1.3,1.4-2.1,4.9,0.7,3.3
			c3.3-1.6,0.8,0.5-0.9,1.1c-1.9-1.8-3.3,3.4-1.8,0.9c0.5,0.8,1.2,1.9,2.7,1.7c4.3,0.6-1.8,0.2-2.8,0.2c-1.5,2.9-3.9,5-3.8,8.7
			c0.3,1.6,1.6,1.9,0.1,3.8c-1.6,3.6,0.4,1.4,1.6-0.5c0.9,0.8-2.1,3.6-0.2,4.5c-2.3-0.6-2.7,3-4.2,4.7c-0.3,3.6,0.7,0,1.8-1.3
			c2.3-3.4,1,1.1-1.1,2.9c-1.5,2.8,0.9,2.5,2.1,0.5c0.4,0.7-3.6,4.3-1.5,6.3c1.4,2.4,3.3-0.8,4.7-2.5c-0.2,2.3-3.9,4.4-4.8,7.1
			c-1,2.7-1.9,6.3-1.5,9.7c-0.7,2.4-3.4,4-2.6,7.2c2.5,1.5,8.6-0.6,7.2-4.3c-2-1.2-0.2-1.8,0.3-3.6c0.2-1.9,1.7-4,1.2-5.2
			c-1-3,1.7-6.4,4-8.1c-1.7-3.6-3.5-6.4-3.3-10.5c0.7,1.1,2.7,0,3.3-1.8c0.8-3.4,5.4-3.7,5.9-7.1c0.5-0.2,4.1-2.8,3.4-1.4
			c-3.2,0.9-2.8,4.2-5.6,5.1c-2.1,1.9-4.7,5-4.6,7.8c-0.7,2.7,0.8,5.3,3.6,5.8c-1.1-2.2-0.3-3.7,0.2-5.8c0.1,0.9,4.2,4.5,2.6,0.5
			c0.9-2.5,0.4,3.9,2.1,4.1c1.8-0.8,2.5-5.1,2.1-5.9c1.2-0.1,1-4.2,0.4-5.6c0.3-4.3,0.2,3.1,1.8-0.1c0.4,0.4-2.3,4.2-0.2,5.9
			c3.6,1,0.3-1.6,0.2-3.3c1.6,1.3,4.2,5.4,7.7,5.6c2.1,1-3.4-0.2-4.6-0.2c-3.8-3.1-5.6,2.5-4.6,5.8c2.8,2.3-2.4,4.7,1.2,6
			c0.6,2.3,5.1,2,4.5,5.3c0.2,0.5,2.3,2.8,0.8,4.6c-3.1,0.4-3.1,3.6-5,5.3c0.6,4.1-3.2,6.2-4.6,9.3c-1.9,3-0.7,6.1,0.8,8.7
			c-3.2,1.5-0.8-5.3-4-4.1c-3,3.3,1.2,8.2,3.4,10.6c2.3,1.4,0.1,4.9,3.4,5.6c0.6-0.6-0.2-2.9-1.1-4.3c-1.6-2.5-1-4.7,2.1-5.6
			c1.4,0.8,3.4,2.5,5.3,3.3c1.9,1.7,3.2,4.5,6.2,4.5c1.6-0.9-0.5-4,0.8-4.7c-0.8-1.6-3.3-3.1-1.3-5c0.5,0,1.4,3.3,3.5,2.8
			c2-2.7,0.6,1.1,2,1.9c2,2.3,2.2,0.3,3-1.8c-0.8,2.4,1.3,4.2,3.3,2.1c2.8-1.2,1.4-2.1,2.4-3.7c-0.1,0.4,1.1,1.4,2.9-0.2
			c2.5,0.5,4.2-0.4,3.5-3.1c-0.7-2.7,0.9-0.6,1.5-1.6c1.5-0.1,3.4,0.4,5.5,0.7c2.1,0.3,3.9-0.2,5.8-0.5c0.7-0.1,0.9-0.2,0.8-0.3
			c1.7,0.1-2.8,2-0.2,1.5c-0.4,2.9-4.8-1.6-6.2,1.5c1.5,0.6,0.5,2.7-1.1,1.4c-1.1-0.3-3.2,3.6-2.8,5.4c-3.3,2.7-2.9,7.1-4.7,10.3
			c0.8,3.5,6.1,6.4,5.6,10.6c0.6,1.7,3.5,5.2,4.1,2.4c0.8-4.7,1.4,2,0,2.3c-0.2,1.8,0.5,2.7,1.9,3.8c0.3,0.4,1.8-1.9,2.6-3.4
			c0.6-3.1,1.2-0.2,2.7,0.1c0.5-0.9,4.3-3.1,2.7-1.4c2.1,2.7,0.4,4.2-1.5,6.1c0,2.3,1.9,1.1,1.2,3c0.8,1.3-2.6,1.3-4.2,1.7
			c-1.6,3.7-1.4,10.8,4.5,8.1c-1.6,1.4-5.4,4-6.4,7.4c1.7,2.8,1.9,6.9,5,8.7c1.2,2.4,5.1-0.9,3.9,1.5c-2.6,4-6.4-1.6-6.8-4.6
			c-5.3-0.5-3,5.6-2.2,7c0.6,0.5,0.5,0.5,0.5,0.5c-0.8-0.5-1.4-0.6-2.6-1.8c-3.8-5.4-8.3,1.3-12.9,0.1c-1.3-0.9-5.7-3.3-3.2-0.3
			c-1.9,1-5.6,3-8.3,3.1c-1.3,1.2-3.1,4.8-4.1,4.5c0,2.4-1.7,4.8-3.9,6.4c-3,1.6-5.7,3.6-6.8,6.9c0.9,0.8,1.5-0.8,2.7-0.4
			c1.7-2.1,2.9,1.7,4,0.5c-0.5-3.5,4.2-5,7.5-4.8c3.4,1-0.1,4.4,2.3,6c0.5,2.2,2.5,1.2,2.6,1.5c-2.5,1.3-4.7,5.8-1.1,7.5
			c2.6-1.2,2.6,0.4,0.1,0.8c-1.3,0.8-1,5.3-2.4,7.4c-1.5,3.8-5.4,5-8.1,7.1c-1,2.3-5.2,0.2-6,2.1c-1.1,0-1.7,2.5-3.6,2.8
			c0.4,2.5-2.2,0-2.8,1.7c-0.7-0.2-4.1-2.1-3.4,0.7c-0.9,1.8-4.2,2.1-5.4,3.4c-1.3,3,2.8,0,4.4,2.1c1.2,2.5-0.1,3.4-1.9,4.4
			c-2.1,0.3,0.4,1,0.8,2.3c0-2.8,3.5,0.1,5.5-1.1c4.1-0.7-1.5,1.4-2.3,1c-0.7,0.3-3.2,0-0.4,1.1c0,1.6,2,2.7,3.6,2.1
			c1.1-2.3,3.8-0.8,5.3-2.1c-0.2-3.7,4.1-2.8,6.8-3.3c-1.2-2.5,0.6,0.1,1.4-1.5c-0.1,0.9,2.8,3,0.4,2c-0.8,1.5,2.5,2.8,4.2,1.9
			c1,2,4.4-0.9,2.8,1.3c-2.3,1.9-3.8-0.6-5.2,1.6c-0.3,1.9,1.1,3.3,2.9,2.6c1.3-1.2,3.5-0.6,5-0.7c-2.1-2.1,2.9-3,3.6-2
			c2.3,1.2,1.5,5.9,4.2,5.4c2.8,4,8.4,4.5,12.4,2.7c-0.4-2.8,2.8-3.9,4.6-5.9c1.2,1.2,4,0.1,5.9-0.9c0.1-0.2,0.2-0.4,0.2-0.6
			c0,0,0,0.1,0,0.1c2.8-1.4,4.4-5.4,7.7-6.5c1-1.8,2.1,0,0.2,0.5c-3,2.3-5,6.3-7.1,9.5c-2.8,0.1-4.6,4.3-6.3,4.8
			c-0.1,2.2-1.6,1.8-1.2,3.8c1.1,2.5-0.7,4.1-3.3,3.3c-3,1.5-6.5,1.3-9.1-0.6c-2.5,0.3-5.2-0.7-7.8-0.2c-2.9,0.5-8.9-0.3-9.7,2.2
			c-2.1,1.3,1.5,3.6-1.2,5.3c-1.7,3.4-4.6,0.3-6.9,0.6c0,1.3,0.3,2.7-0.4,3.8c0,0,0,0,0,0c0.7,3.6-1.1,6.3-3.4,8.6
			c-2.8,0.4-1,4.8-4.6,4.4c-1.9-0.3-1.1,0.8-2,1.2c-2.2-0.5-2.1,2.7-2.8,5.1c-3.1-0.1-1.5,2.8-3.8,4c-1.2,2.4-4.4,2.7-5.5,4.9
			c-2-1.6-4,0.6-6.4,1.4c-0.8,1.2-1.3,3.7-0.1,4.6c3.9,1.6,2.8-4.6,5.9-2.9c3.8,0.2,4.6,3.5,6.1,6c0.6-0.4,1.6-2.2,2.9-2.2
			c2.5-1.8-2-2.9,0.1-3.7c1.4-1.4,0-2.2,1.4-3.8c0.2,0,0.6,2.4,0.5,2.8c1-1.6,2-2.1,3.3-3.1c2.5,0.2,2.5-1.7,2.9-3.4
			c0.4-2.2,2.2-0.1,2.9-0.6c3.5,0.9,5.9-2.2,9.4-0.9c1.1,2.5,3.5,0,1.1-0.6c3-1.1,2.9,3.9,6,2.4c2.4-1,3.2,3.7,5.2,3.2
			c2.1,1,3.6-0.1,3.5-2.6c1.7-1.1,1.4-2.8,2.8-2c2-2.2-0.4-1.9-0.5-4.1c2.8-0.2-0.3-2.8,2-4.4c1.8-1-1-6.4,1-3.3
			c1.2,3.8,3.6-1.6,5.9-1.6c3.9,0.6,7.3-3.2,11.1-0.6c2.8,1.9,8.2,3.8,7.5,7.6c0.4-0.3,0.4-1,0.9-1.3c-1.3-1.5-0.8-4.7,2.3-3.4
			c3.5-0.2,6,1.9,9.2,1.5c1.3-1.3,0.9-2.1,0.7-3.3c-1.9,0.1-2-1.1-3.1-0.6c-1.2-0.4,1.2-1.3,2.5-1.1c0.6,2.9,2.8-1.6,5.2,0.1
			c0.2-0.2,0.5-1.5,2.5-1.1c2.5,1.8,3.3-0.3,5.6-1.3c3.8,0.2,3.3-3.2,0.7-4.6c-3.6-2,1.1-0.5,2.1,1.2c1.6,0.5,4.1,4.4,5.1,2.1
			c-1.6-1.6-0.6-2,1.2-1.4c-2.2,1.6,0.9,3.7,0.9,0.4c2.3-2.1,0.1,2.6,0.8,2c2.4,1.2,0.5-4.4,1.9-1.8c-0.2,0.1,2.8-0.1,0.8,1.3
			c-1.5,0.8,4.3,4.1,3.5,1.4c1-0.8,6.3-1.3,9-1.9c5.6-2.5,11,1.5,16.3,2.5c2-3.8,6.5-3.8,10.2-5.1c1.8-3.1,4.8-2.4,7.7-1.7
			c-1-3.7,2.5-6.7,5.9-7c2.9-0.6,6.4-3.1,4.8-6.8c-2-2.7,1.9-2.5,1.3-5.3c-0.8-0.4-1.9,0.1-2.8,0.2c-4.7-0.4-9,2.9-13.5,1.1
			c1.6,0.5,5.5-0.8,1.8-2.5c-1.8-1-3.7-0.6-3.8,0.3c-0.6,0-0.7,2.1-2.5,1.1c-3,0.6-0.3-2.7,1.6-1.9c2.5-1.4-3.2-2.4-4.6-2
			c-0.6,0.3-3.7,2.5-2.4,1.1c0.9-2.7,4.2-1.6,5.8-2.9c2.3,0.5,5.1,0.3,6.8-2.1c2.4-1.8-0.8-1.1-1.2-0.9c-2.7-1.8,0.9,0.2,1.8-1.7
			c1.7-2.6-0.4-5-2.8-2.8c-0.9,0.5-2.4,0.6-2.4-0.7c3.3,0.7,3.7-2.8,6.7-2.9c1.5,2.8,5.4,1,6.9-1.3c1.7-2.7-0.5-0.1-1.7-1.4
			c1-1.1,3.7-3.3,0.2-2.7c-3,0.4-2-1.3,0.2-0.4c3.1,1-0.5-3,1.6-1c1.1,4,3.7-0.8,4.6-2.7c3.2-0.4,4.2-4.1,4-7.1
			c0.6-3.9,3.4-7.4,3.5-11.2c-0.5-5.2-0.8-11.4-6.4-13.9c-3-3.8-7.8-3.8-12-5.4c-2.6-0.7-0.2,0.4-0.9,0.6c-3.1-0.4-5.5-0.5-8.9-0.4
			c-3.1-1.1-4.7,2.2-5.1,5.1c-1.5,1.4-1.1,4.2-2.8,1.5c-3.6,1.6-4-5.6-7.9-3.2c0.4-1.7,3.1-4,4.7-6.1c3-1.8,4.9-4.5,3.5-8.1
			c-1.6-4.9-2.9-10.1-7.7-12c-1.6-2.8-4.5-2.9-6.4-5.7c-0.7-3.4-3.4-1.9-5.8-1.9c-1.8,1.9-3.2-0.4-4.5-0.3c-2.9,1.5-1.8-0.9,0.6-1
			c2.9,2.7,7.4-2.3,9.7,0.9c1.7,2.5,4.3,3.8,7.1,2.7c2.9-0.2,1,4.2,2.2,2.3c0.1-3.9-3.9-6.9-5.6-10.3c-2.6-3.3-5.7-10.5,0.1-12.1
			c-1-1.7-5.7-1.3-4.7-4c-3.1-1.2-3.6-3.7-4.6-6.6c-1.7-2.1-1.8-5.1-4.9-5.7c-2.8-3.2-7.3-3-10.6-5.3c-2.5-2.1-1.3,1.9-3.3,0.5
			c1.1-1.5-0.4-2.6,0.6-3.8c-4-1.9-4.2-7.1-4.8-10.9c-1.4-3-2.9-5.5-3.8-8.7c0.6-2.5-2-4.5-1.1-7.2c-1.2-2-0.8-4-0.8-6.3
			c-0.8-2.6-0.6-4.8-2.6-6.6c-2.2-0.5-1.4,0-2.2-1.7c-0.6,0.5-2,0.1-2.5-1.9c-1.6-1.5-3.4-3.4-4.6-5.4c-0.1-0.2-0.1-0.2-0.2-0.3
			c-0.8-2.4-1.4-3.7-3-4.6c-3.7,0.9-6.5-4.7-9.7-3.4c0.2-3.4-5.7-3.9-7.2-1.7c0.1,2.2-2.6,3.6-4.8,3.8c-2-1.4-4.4-1.4-6.7-1.7
			c-2.4-0.2-5.3-1.3-8-1.3c-3.8-0.7,1.1-3.3,2.9-1.1c3.1,2.5,5.4-1.4,8.6-0.9c0.6-2.8,3.5-4.9,5.9-6.7c3.1,1.6,6.4,0.1,8.6-2.6
			c1-3.2-4.8-2.3-5.6-4.5c-0.3-0.2,1.7-4.1-1.3-3.9c-2.9,0.8-5.7,3-8.7,4.2c-2.4,0.8-3.4-0.5-0.4-0.5c2.3-2.9,5.7-4.5,9-4.2
			c1.7-1.3,3.9,0.9,4.2-1.7c2-1.7,6.4-3.6,5.2-6.4c1.8-1.7,1.6-2.7,2.2-5.1c2-1.4,5.1-4.2,5.9-7.4c-1.1-3.8,3.5-6.5,2.9-9.9
			c-1.3-5.4,4.6-10.5,6.4-13.8c1.9-1.1-0.2-2.5,1.1-3c-1.7-1.3-1-4.4-1.9-5.4c-1.8-2.3-3.5-3.6-6.5-3.5c-1.6,1.6-3.8,0.5-5.4,0.5
			c-2.8,1.8-7.2-0.3-10.4-0.1c-2.4-1-4.5-1.1-6.5,0.6c-4.6,0.8-9.8-5.2-13.4-0.1c-2.7,0.5-5.4,0.8-7.3,3.2c-1.4,1.5-8.1-0.6-5.7,1.6
			c-1.5,1.3-3,4.4-5.3,3.3c2.4-1.5-1.7-3,1.2-2.3c0.7-1.2,2.4-1.2,2.7-2.7c1.3-1.7,3.5-4.6,0-2.6c-2.5-0.8-4.8,0.1-6.7,2.8
			c-2.5,3.1-2-0.2,0.3-1.4c0.8-3,4-1.6,5.7-3.6c1.6-1.8,3-1,2.6,1.2c2.3-1.6,4-4.6,5.8-7.1c0.6-3.2-1,0.7-2.2,0.7
			c-2.6,1-0.4,0-2-0.8c-1.9,1.2-5.1,0.9-6.2-1.1c1.8,0.7,4.8,0.5,5.1-1.5c-0.5-2.1,0.5-3.9,3-4.7c1-2,3-3.3,5-4.8
			c3.2-2,5.5-5.3,7.7-8.3c3.9-1.3,6.9-3.9,7.9-7.8c2.1-2.5-0.6-1.5-1.7-2.3c-0.8-2.8,2.8-4.8,2.7-7.4c-1.5-0.8-3.8,0.1-5.6-0.7
			C342.8,49.2,341.4,47.3,340.6,47.3z M311.5,383.5c0-0.1,0-0.2-0.1-0.3C310.6,379.4,310.8,384.5,311.5,383.5z M372.4,180.7
			c-0.3,0.3-0.5,0.5-0.7,0.7C371.8,181.2,372.1,180.9,372.4,180.7z M379.9,184.4c-1-0.1,0,1.6,1.1,0.6l-0.1-0.2
			C380.5,184.5,380.1,184.4,379.9,184.4z M346.3,231.9c0.1,0,0.3,0.1,0.4,0.6C345.9,235.1,345.8,232,346.3,231.9z M351.2,239.9
			c0.1,0,0.2,0.1,0.3,0.2c1.9,1.1-0.8,7.6,0.1,3.1C352.7,242.3,350.8,239.9,351.2,239.9z M344.1,251.1c-1.4,0.1-0.1,2.5,0.2,3.3
			C347.6,256.7,342.8,253.1,344.1,251.1z M443.1,300.1c-2,0.2,2.3,0.8,0.2,0L443.1,300.1z M456.8,344.8c-0.3,0.1-0.2,1,0.3,0.1
			C457,344.8,456.9,344.8,456.8,344.8z M354.8,346.7c0.3,0.2,0.8,0.3,1.3,0.3c0.2,0,0.3,0.1,0.4,0.3
			C356.1,347.2,355.5,347.3,354.8,346.7z M450,348.4c-1.7-0.1-2,1.9,0.5,0.6c0.2,0,0.6-0.1,0.3-0.4
			C450.6,348.5,450.3,348.4,450,348.4z M308.6,372.4C307.5,374,309.4,374.6,308.6,372.4z M267.8,420.3
			C266.6,420.9,270.1,420.9,267.8,420.3z M266.6,420.7C265.9,421.7,268.3,421.7,266.6,420.7z M267.6,421.9
			C265.9,422.9,268.9,423.1,267.6,421.9z"/>
		<path id="path3383" class="st1" d="M385.7,4.4c-0.3,2-2.5,2.5-0.8-0.1C385,4.1,386,4,385.7,4.4z"/>
		<path id="path3385" class="st1" d="M366,12.6c-0.2,1.9-2.4,2-1.1,0C365.3,12.6,366.5,11.3,366,12.6z"/>
		<path id="path3387" class="st1" d="M365.3,17.7c-2.3-1-2.7,4.2-3.1,1.2c-1.2,2.7-1.7-0.8-3.3,2.1c-1.7,2.9-0.9-1.9,1.4-2.3
			c-1.3-2.1,3.7-3,0.8-0.8C361.7,20.2,366.5,13.2,365.3,17.7z"/>
		<path id="path3389" class="st1" d="M361.8,25.6c0.2,1.5,0.8,1.8-1.4,2c-0.3-3.1-1.2,0.2-2.2-0.2c0.6-1.8,2.7-2,0.5-3.6
			c1.8-0.2,2.3,0.4,1.9,1.7C360.8,25.8,362.3,24.9,361.8,25.6z"/>
		<path id="path3391" class="st1" d="M355.2,27.4c-0.3,2.3-0.1,3.1-2.7,2.4c-0.9-1.2,0.3-2.2,1.7-1.5
			C354.4,27.9,354.5,26.7,355.2,27.4z"/>
		<path id="path3393" class="st1" d="M358.1,33.4c0,2.4-2.8,1.4-3.5,3.8c-1.6-1.2-3.7-1.1-3.2-4c-2.7,0.9-3.6,2.1-6.2,2.1
			c-2.3-1.3,1-6.1-1.2-5.1c-0.9,0.4,0.3,1.8-0.8,2.8c-1.8,1.9-2.7-3.6-1.8-4.9c-1.1-3.9,4.1-5.2,6.4-2.7c1.3,0.2,0.6,1.9,2.5,2.5
			c-0.5,1.4-2,1.1-3.2,3.1c0,1.1,2.3,0.8,2.8-0.4c1.5,1.7,2.2-0.7,3,1.2c0,1.6,2-0.7,2.8,0.4c-1.6,0.7-1.7,2.4,0.6,1.2
			C356.5,32.7,357.9,32.8,358.1,33.4z"/>
		<path id="path3395" class="st1" d="M353.6,38.7c-2.9,1.1-1.7-1.3-0.5-0.8C352.5,39,354.1,38,353.6,38.7z"/>
		<path id="path3397" class="st1" d="M353.1,40.1c-1.6,0.8,0.3,6.1-2.4,3c0.5-1.8-1.5-2.2,0.2-3.1C346,40.3,354.5,37.8,353.1,40.1z"
			/>
		<path id="path3399" class="st1" d="M349.2,43.7C347.9,45.4,348.9,42.6,349.2,43.7z"/>
		<path id="path3401" class="st1" d="M347.6,46.6C346.4,49.4,346.6,44.9,347.6,46.6z"/>
		<path id="path3403" class="st1" d="M346.4,37.1C347.2,38.4,344.9,36.7,346.4,37.1z"/>
		<path id="path3405" class="st1" d="M346.4,38.5C346.9,40.5,344.9,38.2,346.4,38.5z"/>
		<path id="path3407" class="st1" d="M348.3,39.7c-1.9,2.5-1.5-2.4-0.1-0.7C346.7,39.4,348,39.2,348.3,39.7z"/>
		<path id="path3409" class="st1" d="M345.4,38.5c0.3,1.4,0.6,1.7-1.4,2.8c0.8-0.4,4.6-0.7,1.7,0.6c-3.1,1.2-4.2-2.1-5.1-4.3
			c-3.2-0.1,1.3-4.8,2.3-1.7C344.3,36.6,344.8,37.2,345.4,38.5z"/>
		<path id="path3411" class="st1" d="M343.6,34.8C342.7,35.8,341.7,33.5,343.6,34.8z"/>
		<path id="path3413" class="st1" d="M351.1,27.3C350.9,28.5,349.6,26.3,351.1,27.3z"/>
		<path id="path3415" class="st1" d="M351.2,23c0.1,1.5-1.7,3.5-3.3,1.3c-1.9-1.3,0.9-4.1,1.6-1.7C350.2,22.1,351.9,22,351.2,23z"/>
		<path id="path3417" class="st1" d="M352.5,23.9c-0.4,3.2-1.9-1.4,0-0.3l0.1,0.1L352.5,23.9z"/>
		<path id="path3419" class="st1" d="M351.4,25.5C349.9,27.2,349.1,24.7,351.4,25.5z"/>
		<path id="path3421" class="st1" d="M351.4,14.5c-2.1,2.1,1.8,2,2.6,3.8c0.9,1.1-1.6,2.7-0.8,0.4c-2-2.4-2-0.1-3.1-0.5
			c-0.6-1.8-2.9-3.4,0.3-2.9C350.3,14.4,351.5,13.2,351.4,14.5z"/>
		<path id="path3423" class="st1" d="M353.5,13.4c0.1,2.3-1.5,3-0.7,0.3C352.7,13,353.3,12,353.5,13.4z"/>
		<path id="path3425" class="st1" d="M354.9,20.6C355.2,22.8,354.1,20.5,354.9,20.6z"/>
		<path id="path3427" class="st1" d="M357.1,20.7c-1.8,1.2,0.5,4.8-1.6,3.4c-1.6-2-0.4-1.5,0-2.8C355.1,18.4,356.2,19.1,357.1,20.7z
			"/>
		<path id="path3429" class="st1" d="M357.2,19.4C358,21.1,355.6,18.6,357.2,19.4z"/>
		<path id="path3431" class="st1" d="M282.3,164.2c0.5,2.6-2.1,5.5-3.1,8c-0.7-1.2-5.5,1.7-3.8-1.6
			C276.7,167.6,280.4,165.4,282.3,164.2z"/>
		<path id="path3433" class="st1" d="M285.1,160.7C285.5,163.1,283.7,160.8,285.1,160.7z"/>
		<path id="path3435" class="st1" d="M283.9,158.8c1.1,1.2-0.9,5.1-0.5,1.4C283.6,159.9,283,158,283.9,158.8z"/>
		<path id="path3437" class="st1" d="M285.1,156.5C284.8,161.3,281.8,155.5,285.1,156.5z"/>
		<path id="path3439" class="st1" d="M287.3,152.2C286,155.6,283.4,152.6,287.3,152.2z"/>
		<path id="path3441" class="st1" d="M282.7,162.1C283.2,165.5,279,162.5,282.7,162.1z"/>
		<path id="path3443" class="st1" d="M282.4,161C282.4,162.5,281.5,160.6,282.4,161z"/>
		<path id="path3445" class="st1" d="M281.1,159.6C280.1,160.9,280.3,159,281.1,159.6z"/>
		<path id="path3447" class="st1" d="M271.3,165.2c-0.7,2.4-2.3,5.1-3.3,3.3C268.4,166.6,270.5,165.1,271.3,165.2z"/>
		<path id="path3449" class="st1" d="M269.4,169.7C267.4,171.6,268.7,168.2,269.4,169.7z"/>
		<path id="path3451" class="st1" d="M283.5,150.7c-0.6,0.7,0.1,3.5-1.6,2.2c-0.4-0.8-1.9,2.1,0.5,0.7c0.3,2.4-6.4,4.6-4,1.4
			c-2.8,1.9-6.1,3.1-9.8,3.1c-1.1,2.8-4.8-2.9-1.4-2.6c1,1.4,1.7,1.2,1.9,0.2c1.5,1.1,7.3-2.4,4.6-1.8c-1.5,1.1-5.9,1.3-2.9-1.1
			c0.1-2.5,4.8-2.1,3.9-4.2c-2.8,2.2-3.6-0.7-6.1-1.4c-3.2,0.6-1.3-1.9-1-2.4c-2-1,1.7-1.9,2.2-0.9c-1.2-3.2,4.3-2.7,4.8,0.4
			c0.9,2.1,2.1,3.6,4.3,3.4C280.1,147.7,282.4,149.8,283.5,150.7z"/>
		<path id="path3453" class="st1" d="M288.9,146.1c-0.5,1.5-5.4,5.5-3.6,3.1C285.7,148.4,289,145,288.9,146.1z"/>
		<path id="path3455" class="st1" d="M265.9,157.5C266.4,160,266.6,157.7,265.9,157.5z"/>
		<path id="path3457" class="st1" d="M265.2,155.7C262.9,159.5,263.5,153.9,265.2,155.7z"/>
		<path id="path3459" class="st1" d="M271,149.9c-2.5,1.1-3.4-2.6-0.5-0.7C270.7,149.5,271.4,149.6,271,149.9z"/>
		<path id="path3461" class="st1" d="M268.1,148.8C266.1,150,267.7,147.5,268.1,148.8z"/>
		<path id="path3463" class="st1" d="M262.8,150.3C261.8,151.6,262.9,149,262.8,150.3z"/>
		<path id="path3465" class="st1" d="M264.2,148.7C263.8,150.7,263.5,147.8,264.2,148.7z"/>
		<path id="path3467" class="st1" d="M256.7,146.7c-0.9,1-2.2,0.5-2.5,2.1c-2.6-0.8-1.5,3-3.9,1.6c-1.2-2,1-3.6,3.2-3.6
			C254.9,146.9,256.1,145.1,256.7,146.7z"/>
		<path id="path3469" class="st1" d="M263.4,140.1c-0.6,3.2-3.8,4.7-6,4.9c-0.7,0.2,1.7-2.8,3-3.5
			C260.9,140.7,263.7,139,263.4,140.1z"/>
		<path id="path3471" class="st1" d="M279.2,135.2C276.6,135.6,278.8,133.3,279.2,135.2z"/>
		<path id="path3473" class="st1" d="M269.4,133C267.5,134.4,268,131.5,269.4,133z"/>
		<path id="path3475" class="st1" d="M272.3,128.9c1,3.4-4.3,2.1-2,0.2C271.2,129.4,270.9,126.1,272.3,128.9z"/>
		<path id="path3477" class="st1" d="M268.7,125.6c0,3.7-3.7,2.5-4.6,0c-2.2-0.5,2.8-4.4,3.8-2C269.3,124,268.5,125,268.7,125.6z"/>
		<path id="path3479" class="st1" d="M262.6,122.8c-1.8,1.1-4.5,0.4-1.2-0.4C261.7,122.2,262.7,122.2,262.6,122.8z"/>
		<path id="path3481" class="st1" d="M263.2,123.6C261.7,124,262.3,122.5,263.2,123.6z"/>
		<path id="path3483" class="st1" d="M271.3,99c0.6,2.6-0.2,7.5-0.7,8c1.7,0.1,0.5,2.5,1.8,3.6c1.7,0.3,0.9,2.3,1.2,2.3
			c2.3-0.3,5,3,7.3,0.1c1,0.1,2.2,0,2.7,1c0.8,3-3.6,2.9-3.4,4.6c-0.5,1.8-2.7,3.4-3.7,5c-2.2,2.2-3-0.3-1.7-2.2
			c-1-2.7,4.5-3.7,3.9-4.4c-1.9,1.2-3.6,0.1-4.4-1.4c0.4,1.9-2.4,5.8-2,1.7c-0.9-1.7-4.5,1.6-5.3,0.3c2.8-1.5-4-0.8-1.2-2.7
			c-0.7,0-2.9-2-3.1-3.2c0.6-3.5,3.7,0.4,3.8-0.2c-1.5-1.5-1.4-2.9-3.1-2.3c-0.3-1.3-0.9-2.6-1.7-1.2c-0.2-3.1-1.2,0.7-1.3,2.1
			c-2.2-1-4.2-1.7-4.8-4.1c-2-1,0.6-1.5,0.7-1.6c-1.6-2.7,1.7-2.2,2,0.1c2.2,2,1.8,0.4,0.8-1.6c0.9-0.9,2.1-0.3,0.3-2.3
			c-1.7-1.9,0.4-4.7,1-1.1c0.9,1.7,3.8,2.5,3.5,2.7c-0.2,3.2,0.9-3.2,1.6,0.2c3.4,2.5-2.7-2.6,0.1-3.9c-2.2-1.3-0.7-3.3,0.5-4.9
			c-0.7-1.7,3.3,0.9,3.2,2.6C270.7,96.4,271,98.2,271.3,99z"/>
		<path id="path3485" class="st1" d="M279.4,109.7C280.2,111.1,278,108.8,279.4,109.7z"/>
		<path id="path3487" class="st1" d="M279.1,112.7C278.5,114,278.2,112.1,279.1,112.7z"/>
		<path id="path3489" class="st1" d="M277.1,111.6C275.1,116,272.6,107.4,277.1,111.6z"/>
		<path id="path3491" class="st1" d="M276.1,98.9C275.5,105.5,273.7,98.9,276.1,98.9z"/>
		<path id="path3493" class="st1" d="M275.5,102.9c-1.6,2.2-0.8,4.6-0.5,6.7c-2.7,2.5-2.3-3.9-1.1-5.1
			C275.1,105,274.7,101.4,275.5,102.9z"/>
		<path id="path3495" class="st1" d="M265.8,83.8C267.1,86.5,264.1,83.1,265.8,83.8z"/>
		<path id="path3497" class="st1" d="M264.2,91.3C264.9,92.4,262.7,90.8,264.2,91.3z"/>
		<path id="path3499" class="st1" d="M284.6,86.7C285.7,88.8,282.9,85.6,284.6,86.7z"/>
		<path id="path3501" class="st1" d="M288.4,84C289.4,86,287.3,83.4,288.4,84z"/>
		<path id="path3503" class="st1" d="M294.5,81.9C293.7,81,295.5,81.5,294.5,81.9z"/>
		<path id="path3505" class="st1" d="M290,78.8C287.9,78.9,290.2,76.7,290,78.8z"/>
		<path id="path3507" class="st1" d="M289.3,80.3C288,80.1,290,79.7,289.3,80.3z"/>
		<path id="path3509" class="st1" d="M287.6,81.2C285.8,81.1,288,80,287.6,81.2z"/>
		<path id="path3511" class="st1" d="M296,61.4C294.3,62.1,296.6,59.8,296,61.4z"/>
		<path id="path3513" class="st1" d="M270.9,59.8c-2.1,1.3,0.3,3.5-0.3,3.8c-1.8,1.6-4.1,4-4.1,5.4c2.3,2.2,5.6-4.7,5.2-0.2
			c-1,2.1-2.9,1.9-4.5,1.3c-1,0.3-2.4-1.3-1.4,1.1c1.8,2.5-3.1,3.2-3.9,3.9c2.8-0.1,3.8-1.9,4,1.5c0.8,3.6-4.4,1.3-4.3,2.1
			c3.4,0.8,0.9,4.1-0.5,3.7c-0.4,2.4-2.6-2.6-1.8,0.6c-2.4-0.4-2.7-4.2-2.2-5.5c-2.2,1.8,0,5.4,0.6,6.7c-0.4,1.2-5.2-0.9-2.6,1.7
			c1.4,1.3-0.6,2-1,2.2c-1.6-0.3-2.2,2.5-3.5,3.9c-1.1-0.6-4.1-3.5-4.6-5.1c1.9,0.3,1.4,2.5,2.6,0.1c0.6-0.9,2.8-1.6,2.7-1.9
			c-2.3-1.7,1.6-1,2.6-1.2c-0.8-1.7-3.4-2.5-5.5-2.5c-2-1.3-2.2-2.7-0.1-3.2c2.2-1-0.9-0.7,0-1.4c-1.3-1.1-2.3-3.4-1-5.2
			c0-1.2,3.6-0.1,1-1.7c0.1-2.8,2.4-0.4,2.9-1.1c1.8,1.3-1.3,1.7,1.7,2.6c0.4-2.5,4.2,1,4.2-0.6c-1.9-1.5-4-5.3-0.8-6.1
			c1.2-1.9,3.9-1.4,5.1-2.3c1.2-3.3,5.9-4.6,7-7.1C270.4,56.4,270.6,57.8,270.9,59.8z"/>
		<path id="path3515" class="st1" d="M255.4,69.1c-0.2,2.6-4.3-3.8-1.3-1C254.3,68.4,255,68.5,255.4,69.1z"/>
		<path id="path3517" class="st1" d="M253.7,69.6C252.5,69.2,253.9,68.7,253.7,69.6z"/>
		<path id="path3519" class="st1" d="M246.8,78.7C243,79.2,247.1,75.4,246.8,78.7z"/>
		<path id="path3521" class="st1" d="M250.3,84c-1.5,1.3-3.4,0.7-0.9-0.7C250,82.4,250.3,83.4,250.3,84z"/>
		<path id="path3523" class="st1" d="M244.3,89.6C244.4,92,241.1,88.9,244.3,89.6z"/>
		<path id="path3525" class="st1" d="M245.9,91.9C243.9,95.3,243.3,90.4,245.9,91.9z"/>
		<path id="path3527" class="st1" d="M242.6,92.7C242.4,94.6,241.4,91.8,242.6,92.7z"/>
		<path id="path3529" class="st1" d="M232.8,93.4C232.6,94.2,232.1,92.8,232.8,93.4z"/>
		<path id="path3531" class="st1" d="M211,87.7C209.6,89.8,208.2,85.7,211,87.7z"/>
		<path id="path3533" class="st1" d="M247.9,96.5c-0.2,2.1-4.2-1.6-2.6,0.7c0,1.8,2.8,0.2,1.1,2.6c-2.4,0.4-4.5-0.9-4,1.1
			c0,3.4-2.7-4-4.7-1.5c-2.8-1.1-0.6-2.9,0-4.2c1.5,0.2,2.5-0.7,1.6,1c1,0.6,2.6-4.2,2.1-1c1.5,3.4,1.8-3.3,4-0.5
			C243.4,97,248.4,94.5,247.9,96.5z"/>
		<path id="path3535" class="st1" d="M239,99.6C240.1,101.3,237.8,99.3,239,99.6z"/>
		<path id="path3537" class="st1" d="M233.6,101.7C231.3,101.7,234.8,101,233.6,101.7z"/>
		<path id="path3539" class="st1" d="M234.7,101.3C234.5,102.9,233.6,101,234.7,101.3z"/>
		<path id="path3541" class="st1" d="M240.9,101.3C240.9,105.8,238.1,98.1,240.9,101.3z"/>
		<path id="path3543" class="st1" d="M244.1,105.4c-0.5,4.4-8.2-1.6-3.1-2.4C242.2,104,243.6,103.9,244.1,105.4z"/>
		<path id="path3545" class="st1" d="M243.3,109.9c-1.7,0-5.6-3-2.3-2.5C242.8,108.1,242.5,108.7,243.3,109.9z"/>
		<path id="path3547" class="st1" d="M244.5,111.9c-1.1,1.5-1.8,3.9-3.7,2.9c0.7,0,4,3.2,1.5,3.7c-3.3,0.1,1.2,0.5,1.6,1.7
			c0,1.3-4.5,1-4.6-1.2c-0.9-3.6-0.5-5.7,0.3-9.2c-1-3,0-0.9,1.5-0.2C242.5,110.2,244.1,111.2,244.5,111.9z"/>
		<path id="path3549" class="st1" d="M242.8,121.7C241.9,125.2,240.7,120,242.8,121.7z"/>
		<path id="path3551" class="st1" d="M240.1,123.4C238.5,123.9,239.9,122,240.1,123.4z"/>
		<path id="path3553" class="st1" d="M238.8,123.6c-0.2,1.8,1.2,2.5,0,4c-1.5,1.1-4.6,0-2.1-1.7c-0.7-0.8,2-2.2,1.6-2.6
			C238.5,123.3,238.7,123.3,238.8,123.6z"/>
		<path id="path3555" class="st1" d="M237.2,128.5c-0.2,1.3-2.7,0.7-1.3-0.6C236,128.3,237.9,128.2,237.2,128.5z"/>
		<path id="path3557" class="st1" d="M237.1,130.7C234.7,131.4,237.2,129.1,237.1,130.7z"/>
		<path id="path3559" class="st1" d="M235.5,132.5C233,132.8,235.7,131.4,235.5,132.5z"/>
		<path id="path3561" class="st1" d="M233.9,133.6C233.1,137.5,231.9,133,233.9,133.6z"/>
		<path id="path3563" class="st1" d="M241.1,124.8C242.1,126,239.6,124.5,241.1,124.8z"/>
		<path id="path3565" class="st1" d="M244.7,107.5C243,109,244.7,104.9,244.7,107.5z"/>
		<path id="path3567" class="st1" d="M244.3,103.2C244.2,104.8,242,101.7,244.3,103.2z"/>
		<path id="path3569" class="st1" d="M245.4,102.8C245.3,105.7,243.8,101.5,245.4,102.8z"/>
		<path id="path3571" class="st1" d="M244.4,100.5C244.3,104.3,241.3,100.2,244.4,100.5z"/>
		<path id="path3573" class="st1" d="M246.1,100.4C246.3,103.9,242.5,100.9,246.1,100.4z"/>
		<path id="path3575" class="st1" d="M405.6-60.1c-1-1-2.5,5-2,1.8c1.2-1.9-0.3-2.6-0.9-0.5c-0.8,1.3-0.5,4.5-1.2,5.1
			c-0.8,2.6,2.6,1.5,3.4,1.5c-1.1-1.6,0.8-3.4,0.5-4.4c0.5-1.2,1.3-1.7,0.9-3.2C406-59.8,405.5-59.8,405.6-60.1z"/>
		<path id="path3577" class="st1" d="M401.1-48.9C402.2-48.2,398.9-47.4,401.1-48.9L401.1-48.9z"/>
		<path id="path3579" class="st1" d="M406.4-47.3c0.2-1.3-1.4-1.8-2.6-1.6c-3.6-2.2,0.7,5.5,0.2,1.6
			C405.2-47.6,405.8-45.1,406.4-47.3z"/>
		<path id="path3581" class="st1" d="M406.9-38.9C405.9-40.1,405.4-36.8,406.9-38.9z"/>
		<path id="path3583" class="st1" d="M402.7-36.5c0.9-2.5-5.2,3.1-1.4,1.9C401.9-35.1,402.1-35.9,402.7-36.5z"/>
		<path id="path3585" class="st1" d="M400.3-24.9C400.4-26.7,399.1-23.7,400.3-24.9z"/>
		<path id="path3587" class="st1" d="M399.4-24.5c1-2.6-3-3.4-1.7-0.4C397.3-23.3,399.6-21.9,399.4-24.5z"/>
		<path id="path3589" class="st1" d="M395.6-41.2c-0.2-3.3-1.9,1.5-2.1-0.7c-1.1,1.5,2.5,2.2-0.9,2.4c-1.1,3.1-1.7,0.5-0.2-1
			c0.8-2-0.2-1.3-0.3-2c-0.1-2.2,0.3-1.8,0.6-4.2c1-1.3-0.4-4.6-0.3-1.5c-0.1,0.6-3.4-1.1-2.6,1.6c-2.9,1.2,0.5,3,0.6,3.5
			c-2.6,0.7-3.3-5.2-3.8-0.6c-2.2,0.6-1.2,3,0.4,1.7c1.9-1,0.6,2.8,2,0.3c0.5-0.6,0.2,3.7,1.7,3.2c-0.9,2.5,1.7,0.6,1.4,2.2
			c3,0.8,0.9,0.3,0.3,1.2c-1.1-0.1-0.3,2.3-1,2.9c-1.1-3.3-2.6-0.5-2.6,0.3c-0.3-4.2-2.2,1.4-3.2-1.4c-4.6-0.2-1.1,6.7,1.3,4.4
			c0.6,2.1,1.4-2.9,1.7,0.3c-1.2,0.6-1.4,2.1,0.7,3.3c0.5-2,1.2-1.1,1.7-2.7c2.4,1.2-2.8-4.3,0.7-1.9c0.5,3.4,0.6,0.6,2,0.1
			c-0.6,1.3-1.8,5.3-0.1,2.7c-0.2,2.8,0.5,5.1-0.7,8.3c-1.3,2.3-0.5,3.2-1.6,5.4c-0.6,1.4,2.2,1.4,1.7,2.3c1.8,1.7,0-3.1,1.3-4.1
			c-0.2-2.6,0.3-1.6,1.3-2.1c-1.7-2.4,2-2.2-0.1-4.3c-0.3-2.2,0.8-2.6,1.9-3.7c-1.2-1.1,0.1-3-1.7-1.3c1.7-2.9-0.6-0.8,0.3-2.2
			c-1.3-0.5,0-1.2-0.1-2.4c-0.2,2.4,3.3,0.6,1.7-0.4c-1.7,0,3.1-2.8-0.4-2.7c-2.5-1.2,3.5-0.2,1.7-3c-2.9,1.8,0.2-1,0.8-2.7
			c-1.7,0.4-2.1,2.3-2.9,2.8c-0.2-1.7-1.8-0.4-1.6-1.1C396.6-39.2,397.1-39.4,395.6-41.2z"/>
		<path id="path3591" class="st1" d="M374.8-24.4C373.3-29,371.9-21.4,374.8-24.4z"/>
		<path id="path3593" class="st1" d="M386.5-27.9C384.1-28.5,387.2-26.3,386.5-27.9z"/>
		<path id="path3595" class="st1" d="M382.9-35c-1.6,1.5,3.3,0.9,0.2,0.1L382.9-35z"/>
		<path id="path3597" class="st1" d="M391.3-34.5C390.3-36.1,390.8-32.4,391.3-34.5z"/>
		<path id="path3599" class="st1" d="M391-36.4C387.2-38.6,390-32.5,391-36.4z"/>
		<path id="path3601" class="st1" d="M400.5-54.3c-2-0.2-3.4-0.6-2.9,2.3c-0.5,1.8,0.4,5.5-0.7,2c-1.9,0.2-1,6.1,0.3,7.8
			c1.1-0.9,0.2-1.1,2.6-0.6c-0.4-2.6,1.2-3.9-1-5.5c2.8,1-1.4-4.9,1.5-1.5C401.4-50.1,400.1-53.3,400.5-54.3z"/>
		<path id="path3603" class="st1" d="M243.7,98.2c-1.9,1.6-0.8-0.2-1-0.9C242.8,97.9,243.9,97.5,243.7,98.2z"/>
		<path id="path3605" class="st1" d="M321.6,65c0.4,0,1,0.3,1.6,1.2l-0.3,0C321.1,65.9,321,65,321.6,65z"/>
		<path id="path3607" class="st1" d="M317.4,68C314.5,71.7,315.8,68.5,317.4,68z"/>
		<path id="path3609" class="st1" d="M307.5,71.2c3,1.7,6,3.7,7.8,6.7c-0.3,0.2-0.6-0.3-0.7-0.5C312.8,75.2,307.4,71.4,307.5,71.2z"
			/>
		<path id="path3611" class="st1" d="M322.3,81.4c0.4-0.1,4.2,1.7,1.6,1.2C322.5,81.7,322.2,81.4,322.3,81.4z"/>
		<path id="path3613" class="st1" d="M315.5,83.4c0.1,0,0.4,0.3,1,1.1c0.2,1.9,5.1,0.3,2.6,1.4C317.3,87.3,315.1,83.4,315.5,83.4z"
			/>
		<path id="path3615" class="st1" d="M288.3,89.2c0.2-0.1,0.5,0.3,0.8,1.4c0.2,0.3,1.6,1.5,0.5,1.3C288.1,91,288,89.3,288.3,89.2z"
			/>
		<path id="path3617" class="st1" d="M284.9,90.4c0,0,1.2,1.3,2.2,2c0.8,0.6,6.1,4,3.8,3.2c-1.7-2-5-0.9-5-3.9
			C285.1,90.8,284.8,90.5,284.9,90.4z"/>
		<path id="path3619" class="st1" d="M299,95.3c0.3,0,0.7,0,1.3,0.1c0.5,0.4,2.8-0.7,2.1,0.3c-1.6,0.8-4.8-0.3-3.7-0.4
			C298.9,95.3,299,95.3,299,95.3z"/>
		<path id="path3621" class="st1" d="M335.2,95.4c0.3,0,0.6,0.3,0.3,1.1C333.1,96.7,334.4,95.4,335.2,95.4z"/>
		<path id="path3623" class="st1" d="M315.9,102.2c0.5,0.5,3.6-0.1,2.7,0.7C316.7,104,311.5,102.5,315.9,102.2z"/>
		<path id="path3625" class="st1" d="M298.4,105.4c0.8-0.1,2.5,1.3,1.5,1.2c-1.3-1-5.4-0.1-1.8-1.1
			C298.2,105.4,298.3,105.4,298.4,105.4z"/>
		<path id="path3627" class="st1" d="M316.6,107.5c0.4,0,0.2,0.5,0.2,0.7c-3,3.3-5.3,8.6-8.7,10.6
			C311.1,115.1,313.7,111.1,316.6,107.5z"/>
		<path id="path3629" class="st1" d="M302.8,121.5c0.3,0,0.6,0,0.9,0.1c0.1,0.3-0.3,0.3-0.4,0.4
			C300.2,122.7,300.8,121.5,302.8,121.5z"/>
		<path id="path3631" class="st1" d="M293.2,121.6c0.7,0,1.4,0.3,2,0.9c-1.2-0.4-4.7,1.1-4.4,0.4
			C291.6,122.1,292.4,121.7,293.2,121.6z"/>
		<path id="path3633" class="st1" d="M304,124.8c0.1,0,0.1,0.2,0,0.5c-0.7,1.8-4.9,5-2.2,1.7C302,126.6,303.6,124.8,304,124.8z"/>
		<path id="path3635" class="st1" d="M280.5,127c1.6,0.8,5.8,0,6.1,0.6l-0.1,0.1l-0.2,0C284.5,128.1,278.6,128.4,280.5,127z"/>
		<path id="path3637" class="st1" d="M318.4,129c0.2,0-0.1,0.4-0.3,0.4c-1.9,2.2-3.6,6.2-4.5,7.9c0.2-2.8,2.7-5.9,4.5-8.3
			C318.3,129,318.3,129,318.4,129z"/>
		<path id="path3639" class="st1" d="M362.7,138.4c0.7,0,2.1,0.7,0.5,1C362.2,138.6,362.3,138.4,362.7,138.4z"/>
		<path id="path3641" class="st1" d="M308,138.5c0.4,0,0.6,0.1,0.3,0.4c-2.1,1-7.5,0-2.4,0.1C306.2,138.8,307.3,138.5,308,138.5z"/>
		<path id="path3643" class="st1" d="M319.7,139.1c0.4,0,0.7,0.1,0.5,0.5c-2.2,0.4-8,0.5-2.8-0.1
			C317.7,139.5,318.9,139.1,319.7,139.1z"/>
		<path id="path3645" class="st1" d="M325.1,144.6c-0.1,0.2-0.3,0.2-0.4,0.4c-2.5,1.2-3.7,4.6-6.7,4.5
			C321,148.9,322.5,144.8,325.1,144.6z"/>
		<path id="path3647" class="st1" d="M304.5,145.3c0.3,0,0.6,0.1,1,0.3C304,147.9,303.1,145.3,304.5,145.3z"/>
		<path id="path3649" class="st1" d="M298.2,145.8c0.1,0,0.1,0.1,0.1,0.2c-0.7,1.8-3.2,5.5-4.4,4.6
			C295.7,150.1,297.7,145.7,298.2,145.8z"/>
		<path id="path3651" class="st1" d="M322.5,153c0.6,0,0.9,0.1-0.3,0.3c-2,0.8-5.6,0-1.6-0.1C320.9,153.1,321.9,153,322.5,153z"/>
		<path id="path3653" class="st1" d="M298.6,153.2c0.2,0,0.3,0.1,0.3,0.4c-1.3,2.1-4.5,2.6-5.2,5.1c-0.3,1.4-3.5,4.4-3.8,3.6
			c3.7-1.9,3.4-6.8,7.7-8C297.5,153.8,298.2,153.2,298.6,153.2z"/>
		<path id="path3655" class="st1" d="M309.9,157.6c1.1,1.6,4,1.1,4.4,2.5c-0.1,0-0.2-0.2-0.4-0.1
			C312.4,160.1,309.2,158.3,309.9,157.6z"/>
		<path id="path3657" class="st1" d="M307.8,158.6c0.1,0,0.1,0.1,0.3,0.3c-0.5,3.8,2.5,6.7,4.1,8.8c-1.3,0.2-1.7,2.4-2,2.2
			c-1.4-2.2-0.8-5.8-2.4-8.4C308,161.1,307.6,158.7,307.8,158.6z"/>
		<path id="path3659" class="st1" d="M301.5,182.6C300.8,185.3,300.5,181.2,301.5,182.6z"/>
		<path id="path3661" class="st1" d="M296,174.2c2,1.9,4.4,4.4,3.5,7.2c0.7,3.1-1-0.6-2.4-1.1C297.8,177.8,293.1,175.9,296,174.2z"
			/>
		<path id="path3663" class="st1" d="M296.1,179.3C297.5,182,294.8,179.1,296.1,179.3z"/>
		<path id="path3665" class="st1" d="M298.5,191.3C299.9,193.5,297.3,191.2,298.5,191.3z"/>
		<path id="path3667" class="st1" d="M293.4,183c3.5,0.4,2.9,4.6,3.8,6.2c1.2,1.5-0.6,2.4,0.7,3.4c0.6,2-0.7,3.4-3.2,3
			c-4.4-0.8-3.1-5.1-4.8-8.2C290.1,185,292.1,183.4,293.4,183z"/>
		<path id="path3669" class="st1" d="M286,202.4C284.1,203.9,285,201.2,286,202.4z"/>
		<path id="path3671" class="st1" d="M281.8,182.6c0.8,1.4-1.3,5.2-1.1,2C281.4,183.9,281,182.5,281.8,182.6z"/>
		<path id="path3673" class="st1" d="M271.6,174.1c-0.6,3.9,2.6,7.1,2.7,10.7c-1.2,1.3-2.8,2.6-4.9,2.3c-0.3,4.2-5.3,0.5-1.6-1.1
			c1.4-1.8-3.6-3.9,0.3-4.9c-0.3-1.9-3.3,0.3-3.3,2.3c-2,3.2-4.5,0.9-2-1.5c1.2-1.3-0.3-2.3,0.5-4c0.1-1.1,3.3-2.3,3.1-1.8
			c-0.5,3,0.3,1.9,0.9-0.1C268.2,175.5,271.7,172,271.6,174.1z"/>
		<path id="path3675" class="st1" d="M278.6,172.3c0.1,3.7-2.5,3.5-2.8,7.1c-5,1.7-4.4-8.7,1.4-6.9
			C277.6,172.5,278.5,171.8,278.6,172.3z"/>
		<path id="path3677" class="st1" d="M302.5,179.9c0.7,3.1-2.9,1.5-0.2-0.3l0.1,0.1L302.5,179.9z"/>
		<path id="path3679" class="st1" d="M315.7,202c0.2,0,0.7,0.3,0.7,0.6c-0.6,2.8-0.9,2.2-0.6-0.2C315.5,202.2,315.5,202,315.7,202z"
			/>
		<path id="path4650" class="st1" d="M270.6,202c-0.3,2.6-1.1-0.8-2.6-0.4C268.4,201,270.6,201.3,270.6,202z"/>
		<path id="path4652" class="st1" d="M237.9,211.8C237.1,214.1,235.3,209.1,237.9,211.8z"/>
		<path id="path4654" class="st1" d="M220.7,207.1C220.2,208,219.7,205.6,220.7,207.1z"/>
		<path id="path4656" class="st1" d="M219.9,203.6C217.1,203.4,219.1,201.9,219.9,203.6z"/>
		<path id="path4658" class="st1" d="M216,211C215.2,211.8,215.4,209.7,216,211z"/>
		<path id="path4660" class="st1" d="M212.6,214.8c0,3.3-3.1-1.1-0.8-0.9C211.8,214.4,212.9,214.3,212.6,214.8z"/>
		<path id="path4662" class="st1" d="M214.2,212.7C215,215.4,213.3,212.5,214.2,212.7z"/>
		<path id="path4664" class="st1" d="M213.8,216.4C214.2,217.8,212.7,215.9,213.8,216.4z"/>
		<path id="path4666" class="st1" d="M210.6,244.8C210.2,245.9,210.1,243.9,210.6,244.8z"/>
		<path id="path4668" class="st1" d="M196.2,248.4C196.7,249.9,193.7,247,196.2,248.4z"/>
		<path id="path4670" class="st1" d="M171.7,248.4C171.9,249.3,170.8,248.2,171.7,248.4z"/>
		<path id="path4672" class="st1" d="M169.8,251.4C170.5,252.8,168.7,251.7,169.8,251.4z"/>
		<path id="path4674" class="st1" d="M169.5,252.4C168.4,253.6,168.7,252,169.5,252.4z"/>
		<path id="path4676" class="st1" d="M170.4,254.2C169.9,255.6,169.7,253.6,170.4,254.2z"/>
		<path id="path4678" class="st1" d="M175.7,256.9c1,1.2-0.8,2.6,0.8,2.8c0,2.4-1,3.3-2.9,1.4c-0.5-1.3-0.2-3.1-2.6-2.2
			c-1.7,0.3-4.3-0.7-1.4-1.3c0.4-1.6,2.8,0.5,3.6-1.3C173.7,257.5,175.4,255.9,175.7,256.9z"/>
		<path id="path4680" class="st1" d="M177.2,257.5C177.2,258.4,176.2,257.1,177.2,257.5z"/>
		<path id="path4682" class="st1" d="M178.1,258C178.4,259.5,177.2,257.6,178.1,258z"/>
		<path id="path4684" class="st1" d="M183.3,264C182.9,265,182.8,263.5,183.3,264z"/>
		<path id="path4686" class="st1" d="M183.9,264.3C184.2,265.1,183.1,264.1,183.9,264.3z"/>
		<path id="path4688" class="st1" d="M175.8,265.7c-2.5,2.2-2.8-1.4-0.4-0.5C175.6,265.6,176.4,265.3,175.8,265.7z"/>
		<path id="path4690" class="st1" d="M173.8,269.4C174.5,270.8,172.7,268.9,173.8,269.4z"/>
		<path id="path4692" class="st1" d="M172.4,269.8C171,271.8,171.1,268.9,172.4,269.8z"/>
		<path id="path4694" class="st1" d="M171.5,273.3C171,273.9,171.1,272.8,171.5,273.3z"/>
		<path id="path4696" class="st1" d="M167.7,273.9C167.9,275.1,166.4,273.6,167.7,273.9z"/>
		<path id="path4698" class="st1" d="M170.1,272.8c0.3,2.3-3.8-0.2-0.7,0.2C169.5,272.8,169.8,272.6,170.1,272.8z"/>
		<path id="path4700" class="st1" d="M170.7,277.6C169.6,277.5,170.9,276.8,170.7,277.6z"/>
		<path id="path4702" class="st1" d="M177.1,282.4C177.7,284.9,176.1,282.7,177.1,282.4z"/>
		<path id="path4704" class="st1" d="M178.5,286.7C179.1,288.8,177.4,285.5,178.5,286.7z"/>
		<path id="path4706" class="st1" d="M183.5,287.1C180.3,288.2,183.4,285.8,183.5,287.1z"/>
		<path id="path4708" class="st1" d="M181.7,289.1C181.7,290.8,180.3,289.1,181.7,289.1z"/>
		<path id="path4710" class="st1" d="M183.4,288.2c1.2,3.2-3.6,0.7-0.3-0.5C183.4,287.5,183.5,287.9,183.4,288.2z"/>
		<path id="path4712" class="st1" d="M184.2,294.9c-1.1,1.6-4.5-1.8-5.1-1.8c1.9,0,3.6,0.9,4.7,1.5
			C184,294.4,184.4,294.6,184.2,294.9z"/>
		<path id="path4714" class="st1" d="M187,297C185.8,299.2,185.5,295.3,187,297z"/>
		<path id="path4716" class="st1" d="M186.8,307.1C185.8,308,186.3,306.3,186.8,307.1z"/>
		<path id="path4718" class="st1" d="M162,336.2c-1.5,1.5-2.5,0.9-0.4-0.3C161.7,335.6,162.2,335.9,162,336.2z"/>
		<path id="path4720" class="st1" d="M159.4,338.3C160.1,339.4,158.2,337.9,159.4,338.3z"/>
		<path id="path4722" class="st1" d="M167.3,343.5c-1.7,1.8-4.6,1.4-1.4-0.3C166.4,343.2,167.2,343.2,167.3,343.5z"/>
		<path id="path4724" class="st1" d="M168.5,351.2C168.1,352.3,167.7,350.7,168.5,351.2z"/>
		<path id="path4726" class="st1" d="M170.5,356.2C166.9,358.9,169.8,354.9,170.5,356.2z"/>
		<path id="path4728" class="st1" d="M180,354.8c-1,1.9-5.3,0.4-1.6,0C178.9,355.3,180.1,354.2,180,354.8z"/>
		<path id="path4730" class="st1" d="M187.7,352.3C185.9,354.3,186.5,351.9,187.7,352.3z"/>
		<path id="path4732" class="st1" d="M185.9,360.5C182.5,363.5,186.5,359.1,185.9,360.5z"/>
		<path id="path4734" class="st1" d="M187.4,359.9C187.5,360.7,186.2,359.8,187.4,359.9z"/>
		<path id="path4736" class="st1" d="M188.3,359.7C187.3,360.3,188.2,359,188.3,359.7z"/>
		<path id="path4738" class="st1" d="M189,360.6C187.8,361.5,188.6,359.7,189,360.6z"/>
		<path id="path4740" class="st1" d="M189.8,361.1C188.5,363.4,188.7,360.3,189.8,361.1z"/>
		<path id="path4742" class="st1" d="M188.2,362.6C185.4,364.9,187.2,361.3,188.2,362.6z"/>
		<path id="path4744" class="st1" d="M186.9,361.4C186.5,362.5,186.4,360.8,186.9,361.4z"/>
		<path id="path4746" class="st1" d="M185.6,295.5C184.7,298.4,183.4,294.9,185.6,295.5z"/>
		<path id="path4748" class="st1" d="M219.3,346.1C216.6,348.4,217.6,344.1,219.3,346.1z"/>
		<path id="path4750" class="st1" d="M240.1,198.2c-1.2,0.1,1,1.1,1.4,1.4c-1.4,0.2,0.8,1.9,1.9,2.8c-1.8,0.6-1.8-0.4-2.5-1.2
			c-1.4,1.7-3.8,0.4-4,1.9c-2.2,2.5,1.8,4.2,1,7c1.6,3.1-2.4,3.3-3.8,5.8c-2,0,4.3-4.1,0.2-3c0.3-1.3,4.5-3.2,1.3-5.6
			c-2.2-0.5,0.2-5.6-2.3-4.3c-0.8,0.9-4.6,2-2.2,3.3c0.9,0.4,1.1,1.1,0.9-1.2c0.9,0.9,1.6,3,0.7,5.3c0.7-2.2-2-3.4-3.3-4.4
			c1.2-2.5,0.4-2-1.3-0.8c0.8,1.1,1.7,4-0.7,3.7c1.9-1.9-0.3-0.3,0.1-1.8c-1.4-0.1-0.9-2.1-2.5-2.1c-0.3,2.3-2.3,2.8-3.8,4.2
			c0.3-1.2,0.6-1.9-1.2-0.8c-2.7-1.7-2.7,2.2-3,2.7c1.2,1.7-2.3,1-2,3.1c-2.4,0,0.4,2.4,0.4,2.8c-3.3-0.2-0.5,3.6,0.8,2
			c2.4,1-0.6,0.5-0.8,1.8c3.2,1.1-0.8,0.6-2.2,0.5c-3.2,0.5-0.9,1.5,0.8,2.9c2.8,1.9-4.7-1.3-1.5,0.3c3.1,2.2-3.5-1.3-4.7,0.7
			c-1.1,1.5-3.4,2.2-2.6,3.5c0.9,2.1,4.8,3.5,7.5,2.1c-0.7,2.1,4-1.3,1.9,1.3c-2.7,2.4,0.7,0.5,1.7-0.9c2.3-2.9,0.5,2.2,2.8,0
			c1.8-2,4.3,0.2,2.2,0.4c-0.7,0.4-2.9,3.6-3.4,5.6c-1.9,1-4.9,0.1-4.9,1.5c-0.9,2.1-2.8,2.4-4.6,3.3c-1.2,3.1,2.3,0.3,4,1.9
			c-0.5,0.6-3-0.4-0.5,1c3.8,1.7-4.6,0.3-1.6,2c2.6,1.9,0.7,2.7-1,0.9c-1.1-3.1-4.3-0.6-6.5-1.5c-2-2.2-5.2-1.1-5.3,1.8
			c-0.5,2-1,2.4-2.6,0.7c-0.8-0.7,0.5-2.9-0.7-2.9c-0.4,0-2.4-3.3-3.7-1.1c-3.2-1.2-7,0-10.7-1.8c-2.8,0.6-1,2.4,0,2.3
			c1.5,2.1-0.1,0.1-1.6,0.7c-0.3,1.6-1.3,3.7-2.9,1.9c0.6,0.2,3.3-1.3,0.5-1.6c-1.1-2.3-1.6-1.1-3.2,0.2c-0.2,0.4,0,1.2-0.7,1.1
			c2,0.8-0.1,2.8-0.5,5c0.5,2.5,1.9,0.4,1.3-0.2c0.1-1.2,0.1-2.5,1.6-2.5c-1.4-2.8,2.7-0.4,1.4,0.4c0.2,0.2-0.1,1.3,0.8,2
			c0.4,0.5-2.9,1.6-0.4,2.7c1.2-0.4,2.6-3.3,2.2-1.7c0.1,1.4-2.3,2.7-0.4,4.2c1.1,1.2,0.7,2.1,1.9,2.2c0.5,2.8-0.1,0.7-1.5,0
			c-1.8-1-3.2,5-0.4,3.7c2.3-1.2,5.9-1.8,7.6-0.9c0.3,1.2-0.8,1.7-1.1,2.6c2.2,0.9,0.9,2.5-1.9,1.9c-2.8,0.1-6.9,0.4-5.7,4.3
			c1.7,2.9-0.3,3.7-3.2,3.1c0.8,1.4,0.8,2-1.5,1.5c0.7,0.8-4.4,0.8-1.3,1.1c0.3,1.5,2.5,2.8,2.1,4c-1.3-0.8-4.1,1.6-1.6,1.5
			c1.6-1,2.4,1,4.1,1.6c1.1-0.4,3-3.8,2.4-1c1.7-1.1,1.4-0.7,2.1-0.1c0.1,1.4-3.3,1.1-2.8,3c0.9,0.2,2.5,1.2,3.9,1
			c0.5-1.2,3.8-5,2.6-1.6c-0.4,1.9,2.1-2.5,1.7,0.6c-1.1,0.1-1.5,3.5-0.5,3.8c1-1.2,1-2.6,1.2,0c4.4,0.7,9.6-0.2,13.8-1.3
			c3.9-0.3-1.7,1.9,0.9,2.5c3-1-0.3,0.8,0.8,2.6c-0.2,0.5-1.8-2-3.6-0.6c3.2,0.5,1,0.8-0.9,0.3c0.9,0.8-1.6,1.9-3.3,0.2
			c-1.5,0.5-2.2,3.2-3.3,4.7c0,1.5-3.8,4.5-1.4,4.3c4.1-0.6-0.4,2.1-0.3,3.7c-1.1,1.4-0.8,5.2-3.5,4.1c-2.3,2.7-5,6-8.8,7.6
			c1.6,0.3,5.6-0.1,6-1.8c2.2-0.1,3.4-1.1,3.5-2.5c0.7,2.9,4.8,2.6,7.1,1.3c-1.5,0.9-1.5,2.9,0.4,1.1c2.8-0.1,5.1-2.8,5.6-5.3
			c1.4-2.9,3.4,0.8,1.9,2.3c1.5-1,7.4,0.3,3.9,1.1c-2.4-1.9-4.7,1.9-6.3,1.5c-2.2,0-6.1,3-8.7,1.8c-1.9,1.2-4.8-0.6-6.6,0.9
			c-2,1.5,2.1,3.9-0.5,3c-1.9,1.2-4.1,2.4-6.5,2.6c0.2,1.5,3.9,0.9,2.6,3.8c-2.4,2.1-0.3,2,2,2.2c0.5,2.4-2.2-0.4-2.7,1.4
			c-3.4,1.4-3.6-2.6-4.5-3c0.7,1-0.8,3.3-2.8,3c0.8-2.5-2.2-2.5-3.7-0.4c-2.5-0.1-0.8,3.1-2.5,2.7c-0.9-2.4-2.7,2.4-1,3.3
			c2.6-0.3,1.5-1.6,4.1-0.6c-0.8-1,0.1-0.9,1.3-0.5c1.3,1.5,5.5-2.3,6.8,0.3c-0.4-1.1,1.6-2.4,3-0.9c3.5-0.5-0.9,1.9-1.6,0.3
			c-0.4,1.1-1.1,4.3-1.6,1.7c-0.4,2.3-4.1,1.9-6,3.3c-0.9,0.4-2.8,1.6-2.2,2.3c3.4,2.6-3.3,1.7-2.4,3.8c1,0.4,1.3,1.4,1.2,2.9
			c1.5-1,4.1-5.1,3.9-0.5c-2.7,1.2,1.8,0.6,1.2,2.3c1.9-1.1,5-3,6.5-2.9c1.1,0,4.1-2.5,7.1-2.6c-0.5,1.4-4.4,1.2-5.3,3.5
			c0.7,1.4-1.2,0.3-2,1.7c-0.3-0.5-1.6-0.3-2.8,0.9c1.7,0.7-0.4,2.5-2.4,2.1c-0.1,0.6,1.4,2.4-1.2,2.3c-1.4,1.7,0.4,0.5,2,0.6
			c2.8,0,3.8-2.9,7.1-2.5c2.5-0.5,5.9-1.5,5.7-3.8c0.2,2.5,3,0.4,2.3,2.3c-1.8,2.2-6,2.6-8.2,4.7c-2,1.7-1.2,2,0.9,0.7
			c1-0.3,5.9-3,4.2-1.6c-1.3,2.8-6.5,3.4-6,5.9c0.6,0.3,2.5,0.3,2.8-0.9c1.3-2.8,1.9,0.6,3.2-1c0.8-0.9,3.5-0.4,3.5-2.1
			c1.8,0.9,0,2.6,1.8,3.6c2.1-1,2.3-1.4,3.8-0.6c0.4-2.1,2.1-0.8,2.7-2.7c-1.2-1.6,2.2,0.4,3-0.8c1.3,2.1,1.9,1.2,3.3-0.3
			c1.4-1.5,2.7,0.6,4.3,0.2c-0.8-2.3,2.4-4,3.6-1.6c0-0.1,0.7-3.1,0.5-3.6c1.4,1.8,2.2-0.2,4.2-0.5c1.6-1.1,2.5-3.4,1.1-5.1
			c0.3-1.9-3,0.2-1.9-1.6c1.4,1.4,5.9-0.9,5.2,1c-4.2,2.6-0.1,3.3,1.7,2c3.2,0.5,1.6-2.1,4.2-2.5c3.2,0.4,0-1.6,1.5-1.6
			c0.2-3.7,3.9,0.3,4.4-2.5c2.5-0.2,3.3-1.6,4.4-3.2c-1.5,0.2-2.5-2.7-0.3-1.2c2.4-2.9,7-1.6,9.9-2.6c1.6-0.2,0.7-1.1,2.1-0.9
			c-1.6,1.8,1.7,1.9,2.5,0.3c0.6-1,0.1-2.8-0.4-4.8c0.5,0.6,2.7,3.1,2.3,4.9c-2.3,2.7,1.2-0.3,2-1c0.1-1.8-0.4-1.7,1.6-3.2
			c-0.6,1.9-1.2,2.4,1.3,1.8c2.3,1,4.1,2.3,6.1,0.3c-0.8,1.5,2.3-0.5,1.8,0.8c0.9,1.5,3.2-3,0.5-3.4c-0.3-0.6-0.2-1.1,0-1.7
			c-0.4,0.6-2,0.6-1.6-1.4c1.6-0.7,2.3,0.8,2-2c1.9-3.3,5.3-6.3,3.5-10.3c1.6-2.6,1.7-5.2,2.9-7.9c0.9-1.4,3.8-4.7,1.8-5.9
			c-0.2-3.2,0.3-6.7-1.6-9.5c0.8-3.1-1.7-3.2-3-5.6c0.7-2.5,3.5-0.4,4.3-1.4c-0.1-0.4-0.5-0.4-0.8-0.4c-2.7-1.1-0.2-4.4,0.1-6.6
			c-1.3-2.3-4.5-3.6-4.4-7.2c0.8-2.6-0.2-3.3,0.1-5.6c-2.2-0.3-4.4-2.7-3.1-5.4c0.4-3.5,4,1.5,6.2-0.6c0.6-1.5-3.8-3-3.1-3.9
			c0.1-0.1,0.2-0.2,0.5-0.3c0.7,1.3,4.7,1,2.9,2.3c2.3,0.8,5.6-2,5.9-4.5c-0.2-2.4,0.4-4.7,3.4-4.4c2.5,1.5,3.6-0.3,5-2.6
			c0.5-3-1.7-3.8-3.9-1.7c-0.1-0.4,3-4,1.2-5.1c-0.3-1.6-0.7-2-1.4-3.1c0-3.1,3.9,0.8,3.9,2.3c0,2.4-1.3,4.3,0.6,6.5
			c1.2,0,1.6-2.2,1.5-3.5c1.6-2.1-0.1-3.2-0.3-5.4c-1-1.9-1.1-6.6-4.1-5.5c-2.6-0.5-5.2,0.9-6.6,3c-1.6-3.6,3.5-4.6,5.3-6.5
			c1.9-2.1-3.3-6.5-1.9-3.1c1.7,2.1,1.3,1.4-0.6,0.6c-0.6-2.3-1.8-5.1-3.8-6.9c-2.4,0.1,1.1-5.1-2.6-3.5c0.8-3,0-9.1-4.6-6.7
			c-1.4-0.8-3.6-1.5-5.5-1.5c-0.8,0-1.6,0.2-2.2,0.6c-2.8,1-5.2,2.8-8.5,2.6c-2.9-2.3-2,0.8-3.2,2.9c-0.4,3.5-3.4,2.3-5.8,2.3
			c-0.1-0.1-0.2-0.3-0.2-0.4c-0.7-2,3.4-4.9,5.6-6c4-0.9,0.7-3.3-1.2-3.1c-2.8-1.5-4.1-4.8-7.9-4.7
			C240.3,198.2,240.2,198.2,240.1,198.2z M263.1,222.8C263.9,226.1,261.3,223.6,263.1,222.8z M262.7,225.8c0.3,0,0.6,0.3,0.6,1.2
			c1.8,1.6,4.3-1.8,5.7,0.2c-1,1.8-3.2,4.1-0.8,5.1c-2.3,1.2-1.7,3.2-2.8,4.3c-1.6-0.1-2.6-2-4.6-0.6c-3.3-2.4,3.2-4.1,0.9-7.2
			C261,227.5,262,225.8,262.7,225.8z M229.2,234.7c0.7,0,1.5,0.1,2,0.6c0,1.2,0.1,2.4,1,3.8c1.7,0,1.5,5.1,0.4,1.3
			c-1.6-1.9-5-3.5-6.9-3.3C225.9,235.9,227.6,234.8,229.2,234.7z M236,245.8c0.8,0,0.7,1.4,1.8,1.9c0.2,2,2.3,3.8,0,2.9
			c0.7-1.1-2.7-3.4-2.7-4.4C235.4,246,235.7,245.9,236,245.8z M213.9,246.3c-0.3,0.5,2.7-0.6,2.8,0.5
			C215.7,247.9,212.6,247.5,213.9,246.3z M179.7,248.6c0.4,0,0.8,0.1,1.1,0.3c0.4,2.6-1.7,0.8-1.4-0.3
			C179.5,248.6,179.6,248.6,179.7,248.6z M222.9,250.6c0.3,0,0.8,0.1,1.5,0.2c0.3,1.6-1.2,6.2-1.4,2.4
			C223.2,251.9,221.5,250.6,222.9,250.6z M192.6,253.3c0.5,0,1.3,0.4,1.8,1.3c-1.9,1.7,2.6,2.7-0.2,3.5c-1.9,0-2.4-3.4-1.3-2.8
			C191.8,254,192,253.3,192.6,253.3z M218.5,256.3c0.3,0,0.6,0.3,1.1,0.9l-0.1,0.1l0,0.2C217.9,259.3,217.6,256.3,218.5,256.3z
			 M195.3,257.9c0.2,0,0.5,0.3,0.7,1.3C194.3,260.5,194.7,258.1,195.3,257.9z M213.7,258.5c0.2,0,0.5,0.1,0.8,0.3
			c0.3-0.2,0.4,0.2,0.1,0.3c-0.7,1.4-0.7,2.7-2.1,1.2C213.4,260.2,212.9,258.6,213.7,258.5z M242.4,264.8c0.2,0,0.8,0.1,0.7,0.5
			C242.3,267.6,239.2,266.3,242.4,264.8z M192.9,268c0.3,0,0.8,1.6,1,1.7c0.1-0.3,0.7-0.5,0.6,0c-0.8,2.8-1.3,1.3-1.7-0.4
			C192.7,268.3,192.8,268,192.9,268z M192,270.8c0.1,0,0.2,0,0.3,0c0.4,1.9,0.1,3.7-0.6,4.9c-1.5,1.5-3.8-1.6-3.4-1.3
			C190.3,274.5,190.6,270.8,192,270.8z M240.5,271.3c0.2,0,0.4,0.1,0.6,0.2c1.4,1.7,2,3.1-0.2,1
			C239.4,273.1,239.6,271.4,240.5,271.3z M224.2,271.5c0.1,0,0.3,0.1,0.6,0.2c-0.6,1.6,0.7,4.3,1.5,4.8c1.1-0.7,2.5-0.8,2.1,0.2
			c-2.6,0.9-0.7,3.3-1.6,3.5c-1.9,0.6-1.6-1-1.9-1.4c0.4-2.4-0.5-2.5-1.5-3.7C223.9,274.5,223.2,271.4,224.2,271.5z M240.1,274.7
			C243,278.2,237.6,274.8,240.1,274.7z M192.8,277.4c1.2,0,1.8,0.6,1.8,2.2c-0.8,2.1,3.8,2.1,4.1,2.7c-2.6,1.2,2,4.4-1.7,4.4
			c-1.7-1.9,1-4.5-2.3-4.6c-2.1,0-3.5-2.9-6.6-3c0.7-1.6,2.9,0.6,1.8-1.1C191.1,277.6,192.1,277.4,192.8,277.4z M240.3,279
			c0.1,0,0.1,0,0.2,0c0.1,0,0.2,0,0.3,0C239.8,283,237.9,279.2,240.3,279z M220,296c0,0,0.1,0,0.1,0c0.3,0,0.5,0.1,0.6,0.6
			c-3,0.8-3.1,3.7-2.5,5.6c-1.4,0.6-0.3,1.8-2.8,1.1c-0.3,1.2-2.4,5-2,1.8c2.3-2-3.1-1.5,0.3-2.7c2.4,0.4,3.6-1.3,2.2-3.3
			c2-0.1,1-1.8,2.1-2.9C218.7,296.5,219.5,296,220,296z M265.6,327.2c0,0.1-0.1,0.1-0.1,0.2C265.6,327.3,265.6,327.3,265.6,327.2z
			 M185.4,337.7C185.4,337.7,185.5,337.7,185.4,337.7c0.3,0,0.7,0.2,1.2,0.9c0.2,0.2,1,0.2,0.8,0.7
			C185.7,340.4,184.7,337.8,185.4,337.7z"/>
		<path id="path4756" class="st1" d="M316.3,239.9c-1.3,2.1,0,4.1,0.9,5.2c-1.7,2.3-1.4,4.4-3.9,5.9c-0.4,1.4-3.5,2.8-3.7,3.7
			c-1.3-0.3-2.5-0.8-4.1,0.2c1-2,1.1-5.2,2.4-7c3.7-1.9,2.9-7.7,7.8-8.1C315.9,239.4,316.2,239.6,316.3,239.9z"/>
		<path id="path4758" class="st1" d="M305.1,254.9C304.6,256.8,304,254.9,305.1,254.9z"/>
		<path id="path4760" class="st1" d="M292.7,350.7C293.9,351.6,291.3,351.1,292.7,350.7z"/>
		<path id="path4762" class="st1" d="M292,345.4C291.9,347,291.1,344.8,292,345.4z"/>
		<path id="path4764" class="st1" d="M308.5,285.9c1.2-0.7,3.4,2.8,2,3.3C310.1,287.2,306.3,287.7,308.5,285.9z"/>
		<path id="path4766" class="st1" d="M314.8,281.6c3.9-0.4,3.9,3.8,5.8,5.5c2.5-1.9,5,0.1,1.6,1.9c-2.4,1.1-3.7,4.1-5.5,5.1
			c-2,0.2-2.6-1.5-4-2.8c-1.7-2.5-2.3-6-1.5-8.6C312.6,282.3,313.4,281.8,314.8,281.6z"/>
		<path id="line503" class="st1" d="M398.6,392.8c-2.9,0.5-2.2,5.1-6,3.7c-1.3-2-5.7-3.4-6.1-3.3c1.1-2.4,3.7-1.5,4.4-2.6
			c1.9-3,4.4,0.4,6.9,0.2C397.9,391.5,399.3,392.2,398.6,392.8z"/>
		<path id="path6776" class="st1" d="M373.3,448c2.8,0.2,1.6,5.1-0.8,2.5c-1.5-0.9-1.2,1.1-2.3,0.3c-0.6,0-1.9-4.2,0.6-2.7
			C371.6,447.4,372.5,448.1,373.3,448z"/>
		<path id="path6778" class="st1" d="M366.8,440.9C366,443.7,365.7,439.8,366.8,440.9z"/>
		<path id="path6780" class="st1" d="M364.2,439.3C364.3,440.8,363.6,438.8,364.2,439.3z"/>
		<path id="path6782" class="st1" d="M362.8,438.6c-0.5,2.5-1.5,3.8-4.3,2.5C359.2,440.3,361.6,437.7,362.8,438.6z"/>
		<path id="path6784" class="st1" d="M371.1,429.7c0.6,1.2-3.1,0.9-0.3,0.1C370.9,429.6,371.2,429.9,371.1,429.7z"/>
		<g id="g6786" transform="matrix(0.496916,0,0,0.493415,-8385.902,-5007.009)">
			<g id="g6788" transform="translate(250.2893,-11.93883)">
			</g>
			<g id="g6790" transform="translate(-249.7107,-11.93883)">
			</g>
			<g id="g6792" transform="translate(250.2893,2224.366)">
			</g>
			<g id="g6794" transform="translate(-249.7107,2224.366)">
			</g>
			<g id="g6796" transform="translate(24.67765,-455.2513)">
			</g>
			<g id="g6798" transform="translate(24.67765,476.9432)">
			</g>
			<g id="g6800" transform="translate(24.67765,1299.573)">
			</g>
			<g id="g6802" transform="translate(-978.1,-455.2513)">
			</g>
			<g id="g6804" transform="translate(-978.1,476.9432)">
			</g>
			<g id="g6806" transform="translate(-978.1,1299.573)">
			</g>
			<g id="g6808" transform="translate(2.834646,-8.503938)">
				<g id="g6810">
				</g>
			</g>
		</g>
		<g id="g6812" transform="matrix(0.496916,0,0,0.493415,-8385.902,-5007.009)">
			<g id="g6814">
			</g>
		</g>
	</g>
	<g id="layer5">
		<path id="path2408" class="st1" d="M348.9,215c3.3-0.3-2.4,2,0.4,1.5c-0.4,2.9-4.8-1.6-6.2,1.5c1.5,0.6,0.5,2.7-1.1,1.4
			c-1.1-0.3-3.2,3.6-2.8,5.4c-3.3,2.7-2.9,7.1-4.7,10.3c0.8,3.5,6.1,6.4,5.6,10.6c0.6,1.7,3.5,5.3,4.1,2.4c0.8-4.7,1.4,1.9,0,2.3
			c-0.2,1.8,0.5,2.7,1.9,3.8c0.3,0.4,1.8-1.9,2.5-3.4c0.6-3.1,1.2-0.2,2.7,0.1c0.5-0.9,4.3-3.1,2.7-1.4c2.1,2.7,0.4,4.2-1.5,6.1
			c0,2.3,1.9,1.1,1.2,3c0.8,1.3-2.5,1.3-4.2,1.7c-1.6,3.7-1.4,10.8,4.5,8.1c-1.6,1.4-5.4,4-6.4,7.4c1.7,2.8,1.9,6.9,5,8.7
			c1.2,2.4,5.1-0.9,3.9,1.5c-2.6,4-6.4-1.7-6.8-4.6c-5.3-0.5-3,5.6-2.2,7c1.2,1.1,0,0,1.2,0.9c1.2,0.8,0.2,0.2,0.2,0.2
			s2.2,1.8,2.6,2.8c0.5,1-1.4,0.2-1.3,1c0.1,0.7,0.6,0.6,1.5,2.2c0.9,1.7,1.9,4.4,1.9,4.4l2.3,0.4l0.4,2.6c0,0-0.8,1.4-1.5,1.2
			c-0.7-0.1-0.3-1.3-1.3-1.7s-1.7,0.2-2.5,0c-0.8-0.2-0.3-1-0.9-1c-0.6,0-0.7,0.5-1.5,0.9s-1-1-1.8,0.5c-0.8,1.5-1.6,4.8-1.3,5.5
			c0.1,0.3,4,2.4,4.2,2.6c0.5,0.7-3,4.3-4.2,6.1c-0.6,0.9,0.1,1.8,0.9,1.9c0.3,0,1.9-2,2.4-1.7s0.1,2.2-0.3,2.7
			c-0.2,0.3-2.4,0.3-3.8,0.9c-1.4,0.6-1.8,1.5-1.8,1.5s2.5,4.4,4.5,4.1c1.7-0.2,2.5-0.3,2.4,0c-0.9,2-3.4,5-4.5,8.4
			c-0.3,1,0.6,3.2,1.6,5.6c1.1,2.4,1.3,3.3,2.6,3.9c0.4,0.2,2-0.8,2.4-0.7c1.4,0.3,0.9,3.4,4,3.5c1.7,0,0.5,8.2,0.6,9.8
			c2.8-1.4,4.4-5.4,7.7-6.5c1-1.8,2.1,0,0.2,0.4c-3,2.3-5,6.3-7.1,9.6c-2.8,0.1-4.6,4.3-6.3,4.8c-0.1,2.2-1.6,1.8-1.2,3.8
			c1.1,2.5-0.8,4.1-3.3,3.3c-3,1.5-6.5,1.3-9.1-0.6c-2.5,0.3-5.2-0.7-7.8-0.2c-2.9,0.5-8.9-0.3-9.7,2.2c-2.1,1.3,1.5,3.6-1.1,5.4
			c-1.7,3.4-4.6,0.3-6.9,0.6c0,1.3,0.3,2.7-0.4,3.8c-0.8,1.1-0.9-4.1-0.1-0.3c0.8,3.8-1,6.6-3.3,8.9c-2.8,0.4-1,4.8-4.6,4.4
			c-1.9-0.3-1.1,0.8-2,1.2c-2.2-0.5-2.2,2.7-2.8,5.1c-3.1-0.1-1.5,2.8-3.8,4c-1.2,2.4-4.4,2.7-5.5,4.9c-2-1.6-4,0.6-6.4,1.4
			c-0.8,1.2-1.3,3.7-0.1,4.6c3.9,1.6,2.8-4.6,5.9-2.9c3.8,0.2,4.6,3.5,6.1,6c0.6-0.4,1.6-2.2,2.9-2.2c2.5-1.8-2-2.9,0.1-3.7
			c1.4-1.4,0-2.2,1.4-3.8c0.2,0,0.6,2.4,0.5,2.8c1-1.6,2-2.1,3.3-3.1c2.5,0.2,2.5-1.7,2.9-3.4c0.4-2.2,2.2-0.1,2.9-0.6
			c3.5,0.9,5.9-2.2,9.4-0.9c1.1,2.5,3.5,0,1.1-0.6c3-1.1,2.9,3.9,6,2.4c2.4-1,3.2,3.7,5.2,3.2c2.1,1,3.6-0.1,3.5-2.6
			c1.7-1.1,1.4-2.8,2.8-2c2-2.2-0.4-1.9-0.5-4.1c2.8-0.2-0.3-2.8,2-4.4c1.8-1-1-6.4,1-3.3c1.2,3.8,3.6-1.6,5.9-1.6
			c3.9,0.6,7.3-3.2,11.1-0.6c2.8,1.9,8.2,3.8,7.5,7.6c0.4-0.3,0.4-1,0.9-1.3c-1.3-1.5-0.8-4.7,2.3-3.4c3.5-0.2,6,1.9,9.2,1.5
			c1.3-1.3,0.9-2.1,0.7-3.3c-1.9,0.1-2-1.1-3.1-0.6c-1.2-0.4,1.2-1.3,2.5-1.1c0.6,2.9,2.8-1.6,5.2,0.1c0.2-0.2,0.5-1.5,2.5-1.1
			c2.5,1.8,3.3-0.3,5.6-1.3c3.8,0.2,3.3-3.1,0.7-4.6c-3.6-2,1.1-0.5,2.1,1.2c1.6,0.5,4.1,4.4,5.1,2c-1.6-1.6-0.6-2,1.2-1.4
			c-2.2,1.6,0.9,3.7,0.9,0.4c2.3-2.1,0.1,2.6,0.8,2c2.4,1.2,0.5-4.4,1.9-1.8c-0.2,0.1,2.8-0.1,0.8,1.3c-1.5,0.8,4.3,4.1,3.5,1.4
			c1-0.8,6.3-1.3,9-1.9c5.6-2.5,11,1.5,16.3,2.5c2-3.8,6.5-3.8,10.2-5.1c1.8-3.1,4.8-2.4,7.7-1.7c-1-3.7,2.5-6.7,5.9-7
			c2.9-0.6,6.4-3.1,4.8-6.8c-2-2.7,1.9-2.5,1.3-5.3c-0.8-0.4-1.9,0.1-2.8,0.1c-4.7-0.4-9,2.9-13.5,1.1c1.6,0.5,5.5-0.8,1.8-2.5
			c-1.8-1-3.7-0.7-3.8,0.3c-0.6,0-0.7,2.1-2.5,1.1c-3,0.6-0.3-2.7,1.6-1.9c2.5-1.4-3.2-2.4-4.6-2c-0.6,0.3-3.7,2.5-2.4,1
			c0.9-2.7,4.2-1.6,5.8-2.9c2.3,0.5,5.1,0.3,6.8-2.1c2.4-1.8-0.8-1.1-1.2-0.9c-2.7-1.8,1,0.2,1.8-1.7c1.7-2.6-0.5-5-2.9-2.8
			c-0.9,0.5-2.4,0.6-2.4-0.7c3.3,0.7,3.7-2.8,6.7-2.9c1.5,2.8,5.4,1,6.9-1.4c1.7-2.7-0.5-0.1-1.7-1.4c1-1.1,3.7-3.3,0.2-2.7
			c-3,0.4-2-1.3,0.2-0.4c3.1,1-0.5-3,1.6-1c1.1,4,3.7-0.8,4.6-2.7c3.2-0.4,4.2-4.1,4-7.1c0.6-3.9,3.4-7.4,3.5-11.2
			c-0.5-5.2-0.8-11.4-6.4-13.9c-3-3.8-7.8-3.8-12-5.4c-2.6-0.7-0.2,0.4-0.9,0.6c-3.1-0.4-5.5-0.5-8.9-0.4c-3.1-1.1-4.7,2.2-5.1,5.1
			c-1.5,1.4-1.1,4.2-2.8,1.5c-3.6,1.6-4-5.6-7.9-3.2c0.4-1.7,3.1-4,4.7-6.1c3-1.8,4.9-4.5,3.5-8.1c-1.6-4.9-2.9-10.1-7.7-12
			c-1.6-2.8-4.5-2.9-6.4-5.7c-0.7-3.4-3.4-1.9-5.8-1.9c-1.8,1.9-3.2-0.4-4.5-0.3c-2.9,1.5-1.8-0.9,0.6-1c2.9,2.7,7.4-2.3,9.7,0.9
			c1.7,2.5,4.3,3.8,7.1,2.7c2.9-0.2,1,4.2,2.2,2.3c0.1-3.9-3.9-6.9-5.6-10.3c-2.6-3.3-5.7-10.5,0.1-12.1c-1-1.7-5.7-1.3-4.8-4
			c-3.1-1.2-3.6-3.7-4.6-6.6c-1.7-2.1-1.8-5.1-4.9-5.7c-2.8-3.2-7.3-3-10.6-5.3c-2.5-2.1-1.3,1.9-3.3,0.5c1.1-1.5-0.4-2.7,0.6-3.8
			c-4-1.9-4.2-7-4.8-10.8c-1.4-3-2.9-5.5-3.8-8.7c0.6-2.5-2-4.5-1.1-7.2c-1.2-2-0.8-4-0.8-6.3c-0.8-2.6-0.6-4.8-2.6-6.6
			c-2.2-0.5-1.4,0-2.2-1.7c-0.6,0.5-2,0.1-2.5-1.9c-1.6-1.5-3.4-3.4-4.6-5.4c-1.1-2-0.4-0.1-1.1,1c-0.7,1.1-1.2,1.2-1.5,1.8
			c-0.3,0.5-0.5,0.9-0.9,1.2c-0.3,0.3-0.8,0.6-1.2,1c-0.3,0.3-0.4,1-0.6,1.2c-0.4,0.4-0.7,0.8-1.2,1.1c-0.5,0.3-0.6,0.6-0.7,1.1
			c-0.1,0.4,0,0.9,0.1,1.2c0.1,0.4,0.2,0.9,0.4,1.3c0.3,0.5,0.9,1,1.2,1.3c0.2,0.2,0.3,1.1,0.6,1.4c0.2,0.3,0.1,1.1,0.2,1.4
			c0.1,0.5,0,1,0,1.5c0,0.7-0.7,0.9-1.2,1.1c-0.4,0.2-0.7,0.9-0.9,1.1c-0.3,0.4-0.6,0.4-1.2,0.6c-0.4,0.2-0.8,0.9-1.2,1.1
			c-0.1,0-0.1,0-0.2,0c-0.5,0-1,0.7-1.3,1c-0.4,0.4-0.9,0.7-1.5,0.8c-0.3,0.1-0.9,0.6-1.2,0.9c-0.4,0.3-0.9,0.9-1.3,1
			c-0.4,0.1-0.4,0.7-0.5,1.1c-0.1,0.5-0.2,0.8-0.4,1.2c-0.2,0.5-0.5,0.7-0.7,1.1c-0.3,0.6-0.8,1.1-1.2,1.6c-0.5,0.5-0.9,0.7-1.4,1
			c-0.6,0.3-0.8,0.6-1.4,0.8c-0.4,0.1-0.9,1.2-1.2,1.4c-0.3,0.3-0.7,0.3-1.2,0.4c-0.6,0.1-0.7,0.6-1.4,0.6c-0.3,0-0.8,1.9-1,2
			c-0.2,0.2,1.9,0.2-0.1,0.5 M381,185c-1.4,1.3-2.5-1.7-0.1-0.2L381,185z M443.3,300.1c2,0.8-2.2,0.2-0.2,0L443.3,300.1z
			 M457.1,344.9C456.5,345.9,456.4,344.4,457.1,344.9z M450.5,349c-2.9,1.5-2.1-1.2,0.3-0.4C451.2,348.9,450.8,349,450.5,349z
			 M267.8,420.3C270.1,420.9,266.6,420.9,267.8,420.3z M267.6,421.8C268.9,423.1,265.9,422.9,267.6,421.8z M266.6,420.7
			C268.3,421.7,265.9,421.7,266.6,420.7z M308.6,372.4C309.4,374.6,307.5,374,308.6,372.4z M344.1,251.1c-1.3,2,3.4,5.7,0.2,3.3
			C344,253.6,342.8,251.2,344.1,251.1z M346.3,231.9c0.1,0,0.3,0.1,0.4,0.6C345.9,235.1,345.8,232,346.3,231.9z M351.2,239.9
			c0.1,0,0.2,0.1,0.3,0.2c1.9,1.1-0.8,7.6,0.1,3.1C352.7,242.4,350.8,239.9,351.2,239.9z"/>
		<path id="path4771" class="st1" d="M398.6,392.8c-2.9,0.5-2.2,5.1-6,3.7c-1.3-2-5.7-3.4-6.1-3.3c1.1-2.4,3.7-1.5,4.4-2.6
			c1.9-3,4.4,0.4,6.9,0.2C397.9,391.5,399.3,392.2,398.6,392.8z"/>
	</g>
	<g id="layer1">
		<path id="path26828" class="st1" d="M348.8,214.7c-0.2,0.2,1.9,0.2-0.1,0.5c-1.9,0.3-3.7,0.8-5.8,0.5c-2.1-0.3-4-0.8-5.5-0.7
			c-0.6,1-2.3-1.1-1.5,1.6c0.7,2.8-1,3.5-3.5,3.1c-1.8,1.6-3,0.6-2.9,0.2c-1,1.7,0.4,2.6-2.4,3.7c-2,2-4.1,0.2-3.3-2.1
			c-0.8,2-1,4-3,1.8c-1.4-0.8,0-4.5-2-1.9c-2.1,0.5-3-2.8-3.5-2.8c-1.9,1.9,0.5,3.4,1.3,5c-1.3,0.7,0.8,3.7-0.8,4.7
			c-3.1,0-4.3-2.8-6.2-4.5c-1.9-0.8-4-2.5-5.3-3.3c-3.1,0.9-3.7,3.2-2.1,5.6c0.9,1.4,1.7,3.7,1.1,4.3c-3.3-0.7-1.1-4.2-3.4-5.7
			c-2.2-2.4-6.3-7.3-3.4-10.6c3.2-1.2,0.8,5.7,4,4.1c-1.5-2.6-2.7-5.7-0.8-8.7c1.4-3.1,5.2-5.1,4.6-9.3c1.9-1.7,1.8-4.9,5-5.3
			c1.5-1.9-0.6-4.1-0.8-4.6c0.6-3.3-3.9-3-4.5-5.3c-3.7-1.2,1.6-3.7-1.2-6c-1-3.3,0.8-8.9,4.6-5.8c1.2,0,6.7,1.2,4.6,0.2
			c-3.5-0.1-6.2-4.2-7.7-5.6c0.1,1.6,3.5,4.3-0.2,3.3c-2.1-1.6,0.6-5.5,0.2-5.9c-1.6,3.2-1.5-4.1-1.8,0.1c0.6,1.4,0.8,5.4-0.4,5.6
			c0.4,0.8-0.3,5.1-2.1,5.9c-1.7-0.2-1.2-6.6-2.1-4.1c1.6,4-2.4,0.4-2.5-0.5c-0.5,2.2-1.3,3.7-0.2,5.8c-2.8-0.5-4.3-3-3.6-5.8
			c0-2.8,2.5-5.9,4.6-7.8c2.8-0.9,2.4-4.3,5.6-5.1c0.7-1.5-2.9,1.2-3.4,1.4c-0.6,3.4-5.1,3.7-5.9,7.1c-0.6,1.7-2.7,2.9-3.3,1.8
			c-0.2,4.1,1.6,6.9,3.3,10.5c-2.3,1.6-5,5.1-4,8.1c0.5,1.2-0.9,3.3-1.1,5.2c-0.5,1.9-2.3,2.4-0.3,3.6c1.5,3.6-4.7,5.7-7.2,4.3
			c-0.9-3.1,1.8-4.8,2.6-7.2c-0.4-3.4,0.6-7,1.5-9.7c1-2.7,4.7-4.8,4.8-7.1c-1.4,1.7-3.3,5-4.7,2.5c-2.2-2,1.9-5.6,1.5-6.3
			c-1.3,2-3.6,2.2-2.1-0.5c2.1-1.8,3.3-6.3,1.1-2.9c-1,1.3-2.1,4.8-1.7,1.3c1.5-1.7,1.9-5.3,4.2-4.7c-1.8-1,1.1-3.7,0.2-4.5
			c-1.2,1.9-3.2,4-1.6,0.4c1.5-1.8,0.1-2.1-0.1-3.8c-0.1-3.7,2.4-5.8,3.8-8.7c1,0,7.2,0.4,2.8-0.2c-1.5,0.3-2.2-0.8-2.7-1.7
			c-1.6,2.5-0.2-2.7,1.8-0.9c1.7-0.6,4.1-2.7,0.9-1.1c-2.7,1.6-2-1.9-0.7-3.3c1.5-1.3,1.1-3.1,4.1-3.3c1.8,1.2,4.5-1.8,1.4,0
			c-4.3,0-1.4-3.3,0.1-5.2c0.8-1.8-2.8,2.1-2.9,2.8c-0.8,1.9-2.9,1.9-3.9,4.3c-2.5,0.7-4.2,6.6-7.5,6.4c-1.9-1.4-2.3-1.5-5-2.1
			c-2.8-1.6-3.7-6.1,0.6-4.6c1.8-1.9,3.7-2.5,6.1-1.2c4.1-1.3-1,0.2-2.2-1.4c-2.1-0.2-3.8,2.5-6,1.1c-1.8-0.7-7.1,1.3-6.8-2.2h0
			c1.5-1.9,4.8-1.3,7-2c1.5,2,1.9,0,2.2-0.1c1.8,0.4,2.9-1.1,0.2-1.8c0-1.9,5.4-1,4.3-3c-0.8,2.1-4,0.5-1.1-0.4
			c-1.4,0.1-6.9,0.6-3.7-0.5c0.7-0.3-0.1-2.1,0.9-3.4c0.4-3.2,3.3-1.5,4.6-0.2c1.6,0.3,5.2-1.8,1.5-0.6c-2.8,0.8-1.2-3.5-3.8-2
			c-2.8-2.2,3-6.2,4.7-2.9c1.8,0.8,4.5-1.2,1.1-0.2c-0.7-1.4-2.8-1.8-4.3-2.6c1-1.7,1.5-2.6,1.3-4.2c2.5-2,3.4,1.2,5.8,1.3
			c0.3-0.4-2.7-1.6-3.6-2.7c-2.2,0.5-6.7-0.4-3.1-2.8c2,0.2,6.2-2.4,5.3-3.6c-1.2,2.3-5.5,3.9-4,0.6c-1.2,1.6-5.5,4-4.9,0.6
			c0-1.1,0.6-2.7-1.3-2.7c-0.6-2.6,0.5-8.5,2.9-4.6c1.1-0.7,1.4,1.7,2.6,1.5c-1.2-1.5,5.4-0.2,1.7-1.7c-2.7,0.4-2.5-0.5-3.7-1.4
			c0-2.3-3.6-2.5-1.5-4.8c0.3-1.8,4.1,0.7,1.9-1.9c-3.5,0.2-2.2-4.3-2.6-6.4c2.4-0.3,3.8-0.3,3.8,2.7c0.7,2.2,1.3,1.4,1.6,0.7
			c1.4-0.5-0.5-3.3-1.2-4.5c0.2-2.8,2.7-1.5,2.8,0.7c2.9,2.9,1.7-3.7,4.6-0.9c0.9,1.9,5.2,2.2,1.7,0.6c-1.3-1.1-4.4-2.9-1.4-2.7
			c0.8,2,3.3,0.4,4.5,2.6c1.5,0.8,2.7,3.6,1.5,0.4c-1.6-1.3-3.6-2.1-2.4-3.9c-2.4-1-4.6-3.2-5.9-4.5c-2.2-1.8,0.6-3.5,1.5-0.8
			c1-0.6,4.3,0.3,2.4-2.1c0.7-0.7-0.1-0.7,0.9-1.7c-2.1-0.5-2.5-3-4-4.5c1-1.3,2.9,1.6,4.8-0.3c1.7,0.4,2.4-1.7,4.2-0.1
			c1.4,0,2.2,1.6,1.8-0.1c0.6,0-5.6-1.5-4.3-3.4c-1.1,0.2-0.3-5.4,1.4-3.5c3.2,1.1-0.7-1-0.2-1.2c-0.3-2.2,4,0.3,1.9-1.7
			c-2.9-0.5-2.5-3.3-0.2-4.8c0.6-1,0.1-2.3,0.5-3.4c1.8,0.8,4.3,0.7,4.8,3c1.4-0.6,0.4-3.1,1.6-0.5c3.6,0.9,0.7,3.8-0.4,6.1
			c1.8-0.5,2.3-3.3,4.2-4.6c-1.2-3.9,7.1,0,3.4,2.5c-1.5,2.9,0.5,1.8,0.9-0.3c1-2.6,4.5-1.6,4.5-1.7c0.8-1.5,1.9,0,2.8-1.7
			c2,2.1,2.6-3.5,3.2,0.1c3.3,0.5,6.2,0,8.7-2.6c2.3-0.6,2.5,0.7,4,0.8c1.7-0.2,5.5,0.7,2.4-1.8c0-0.9,0.2-1.3,0.5-1.3
			c0.7,0,2.2,1.9,3.7,0.7c1.7,0.8,4-0.1,5.6,0.7c0,2.7-3.5,4.7-2.7,7.5c1.1,0.8,3.8-0.2,1.7,2.3c-1.1,3.9-4,6.6-7.9,7.8
			c-2.2,3.1-4.5,6.3-7.7,8.3c-2,1.5-4,2.8-5,4.8c-2.5,0.8-3.5,2.7-3,4.7c-0.2,2-3.2,2.2-5.1,1.5c1.1,2,4.3,2.2,6.2,1.1
			c1.6,0.7-0.7,1.7,2,0.8c1.2-0.1,2.9-3.9,2.2-0.7c-1.7,2.5-3.5,5.5-5.8,7.1c0.4-2.2-0.9-3-2.5-1.2c-1.8,2.1-4.9,0.7-5.7,3.6
			c-2.3,1.2-2.8,4.5-0.3,1.4c1.9-2.7,4.2-3.6,6.7-2.8c3.4-1.9,1.3,1,0,2.6c-0.2,1.6-1.9,1.6-2.7,2.7c-2.8-0.7,1.2,0.8-1.2,2.3
			c2.3,1.1,3.8-1.9,5.3-3.3c-2.4-2.1,4.3-0.1,5.7-1.6c1.9-2.5,4.6-2.7,7.3-3.2c3.5-5.1,8.7,0.8,13.4,0.1c2-1.6,4.1-1.5,6.5-0.6
			c3.3-0.2,7.6,1.9,10.5,0.1c1.7,0,3.8,1.1,5.4-0.5c2.9,0,4.6,1.2,6.5,3.5c0.9,1,0.2,4.1,1.9,5.4c-1.3,0.4,0.8,1.8-1.1,3
			c-1.8,3.2-7.7,8.4-6.4,13.8c0.6,3.4-4,6.1-2.9,9.9c-0.8,3.3-3.9,6-5.9,7.4c-0.6,2.4-0.4,3.4-2.2,5.1c1.2,2.8-3.2,4.8-5.2,6.4
			c-0.4,2.6-2.5,0.4-4.2,1.7c-3.3-0.3-6.7,1.3-9,4.2c-3,0-2,1.2,0.4,0.5c3-1.3,5.8-3.5,8.7-4.3c2.9-0.2,0.9,3.8,1.3,3.9
			c0.8,2.2,6.6,1.3,5.6,4.5c-2.2,2.6-5.5,4.2-8.6,2.6c-2.4,1.8-5.3,3.9-5.9,6.7c-3.3-0.5-5.6,3.4-8.7,0.9c-1.7-2.2-6.7,0.4-2.9,1.1
			c2.8,0,5.6,1.1,8,1.3c2.2,0.3,4.7,0.3,6.7,1.7c2.2-0.2,4.9-1.6,4.8-3.9c1.4-2.2,7.4-1.8,7.2,1.7c3.2-1.3,6,4.4,9.7,3.4
			c1.6,0.9,2.2,2.3,3,4.8c-0.7,1.1-2.2,2.3-2.5,2.8c-0.3,0.5-0.5,0.9-0.9,1.2c-0.3,0.3-0.8,0.6-1.2,1c-0.3,0.3-0.4,1-0.6,1.2
			c-0.4,0.4-0.7,0.8-1.2,1.1c-0.5,0.3-0.6,0.6-0.7,1.1c-0.1,0.4,0,0.9,0.1,1.2c0.1,0.4,0.2,0.9,0.4,1.3c0.3,0.5,0.9,1,1.2,1.3
			c0.2,0.2,0.3,1.1,0.6,1.4c0.2,0.3,0.1,1.1,0.2,1.4c0.1,0.5,0,1,0,1.5c0,0.7-0.7,0.9-1.2,1.1c-0.4,0.2-0.7,0.9-0.9,1.1
			c-0.3,0.4-0.6,0.4-1.2,0.6c-0.4,0.2-0.8,0.9-1.2,1.1c-0.1,0-0.1,0-0.2,0c-0.5,0-1,0.7-1.3,1c-0.4,0.4-0.9,0.7-1.5,0.8
			c-0.3,0.1-0.9,0.6-1.2,0.9c-0.4,0.3-0.9,0.9-1.3,1c-0.4,0.1-0.4,0.7-0.5,1.1c-0.1,0.5-0.2,0.8-0.4,1.2c-0.2,0.5-0.5,0.7-0.7,1.1
			c-0.3,0.6-0.8,1.1-1.2,1.6c-0.5,0.5-0.9,0.7-1.4,1c-0.6,0.3-0.8,0.6-1.4,0.8c-0.4,0.1-0.9,1.2-1.2,1.4c-0.3,0.3-0.7,0.3-1.2,0.4
			c-0.6,0.1-0.7,0.6-1.4,0.6C349.6,212.7,349,214.6,348.8,214.7z"/>
		<path id="line475" class="st1" d="M385.7,4.4c-0.3,2-2.5,2.5-0.8-0.1C385,4.1,386,4,385.7,4.4z"/>
		<path id="line476" class="st1" d="M366,12.6c-0.2,1.9-2.4,2-1.1,0C365.3,12.6,366.5,11.3,366,12.6z"/>
		<path id="line477" class="st1" d="M365.3,17.7c-2.3-1-2.7,4.2-3.1,1.2c-1.2,2.7-1.7-0.8-3.3,2.1c-1.7,2.9-0.9-1.9,1.4-2.3
			c-1.3-2.1,3.7-3,0.8-0.8C361.7,20.2,366.5,13.2,365.3,17.7z"/>
		<path id="line478" class="st1" d="M361.8,25.6c0.2,1.5,0.8,1.8-1.4,2c-0.3-3.1-1.2,0.2-2.2-0.2c0.6-1.8,2.7-2,0.5-3.6
			c1.8-0.2,2.3,0.4,1.9,1.7C360.8,25.8,362.3,24.9,361.8,25.6z"/>
		<path id="line479" class="st1" d="M355.2,27.4c-0.3,2.3-0.1,3.1-2.7,2.4c-0.9-1.2,0.3-2.2,1.7-1.5
			C354.4,27.9,354.5,26.7,355.2,27.4z"/>
		<path id="line480" class="st1" d="M358.1,33.4c0,2.4-2.8,1.4-3.5,3.8c-1.6-1.2-3.7-1.1-3.2-4c-2.7,0.9-3.6,2.1-6.2,2.1
			c-2.3-1.3,1-6.1-1.2-5.1c-0.9,0.4,0.3,1.8-0.8,2.8c-1.8,1.9-2.7-3.6-1.8-4.9c-1.1-3.9,4.1-5.2,6.4-2.7c1.3,0.2,0.6,1.9,2.5,2.5
			c-0.5,1.4-2,1.1-3.2,3.1c0,1.1,2.3,0.8,2.8-0.4c1.5,1.7,2.2-0.7,3,1.2c0,1.6,2-0.7,2.8,0.4c-1.6,0.7-1.7,2.4,0.6,1.2
			C356.5,32.7,357.9,32.8,358.1,33.4z"/>
		<path id="line481" class="st1" d="M353.6,38.7c-2.9,1.1-1.7-1.3-0.5-0.8C352.5,39,354.1,38,353.6,38.7z"/>
		<path id="line482" class="st1" d="M353.1,40.1c-1.6,0.8,0.3,6.1-2.4,3c0.5-1.8-1.5-2.2,0.2-3.1C346,40.3,354.5,37.8,353.1,40.1z"
			/>
		<path id="line483" class="st1" d="M349.2,43.7C347.9,45.4,348.9,42.6,349.2,43.7z"/>
		<path id="line484" class="st1" d="M347.6,46.6C346.4,49.4,346.6,44.9,347.6,46.6z"/>
		<path id="line485" class="st1" d="M346.4,37.1C347.2,38.4,344.9,36.7,346.4,37.1z"/>
		<path id="line486" class="st1" d="M346.4,38.5C346.9,40.5,344.9,38.2,346.4,38.5z"/>
		<path id="line487" class="st1" d="M348.3,39.7c-1.9,2.5-1.5-2.4-0.1-0.7C346.7,39.4,348,39.2,348.3,39.7z"/>
		<path id="line488" class="st1" d="M345.4,38.5c0.3,1.4,0.6,1.7-1.4,2.8c0.8-0.4,4.6-0.7,1.7,0.6c-3.1,1.2-4.2-2.1-5.1-4.3
			c-3.2-0.1,1.3-4.8,2.3-1.7C344.3,36.6,344.8,37.2,345.4,38.5z"/>
		<path id="line489" class="st1" d="M343.6,34.8C342.7,35.8,341.7,33.5,343.6,34.8z"/>
		<path id="line490" class="st1" d="M351.1,27.3C350.9,28.5,349.6,26.3,351.1,27.3z"/>
		<path id="line491" class="st1" d="M351.2,23c0.1,1.5-1.7,3.5-3.3,1.3c-1.9-1.3,0.9-4.1,1.6-1.7C350.2,22.1,351.9,22,351.2,23z"/>
		<path id="line492" class="st1" d="M352.5,23.9c-0.4,3.2-1.9-1.4,0-0.3l0.1,0.1L352.5,23.9z"/>
		<path id="line493" class="st1" d="M351.4,25.5C349.9,27.2,349.1,24.7,351.4,25.5z"/>
		<path id="line494" class="st1" d="M351.4,14.5c-2.1,2.1,1.8,2,2.6,3.8c0.9,1.1-1.6,2.7-0.8,0.4c-2-2.4-2-0.1-3.1-0.5
			c-0.6-1.8-2.9-3.4,0.3-2.9C350.3,14.4,351.5,13.2,351.4,14.5z"/>
		<path id="line495" class="st1" d="M353.5,13.4c0.1,2.3-1.5,3-0.7,0.3C352.7,13,353.3,12,353.5,13.4z"/>
		<path id="line496" class="st1" d="M354.9,20.6C355.2,22.8,354.1,20.5,354.9,20.6z"/>
		<path id="line497" class="st1" d="M357.1,20.7c-1.8,1.2,0.5,4.8-1.6,3.4c-1.6-2-0.4-1.5,0-2.8C355.1,18.4,356.2,19.1,357.1,20.7z"
			/>
		<path id="line498" class="st1" d="M357.2,19.4C358,21.1,355.6,18.6,357.2,19.4z"/>
		<path id="line524" class="st1" d="M282.3,164.2c0.5,2.6-2.1,5.5-3.1,8c-0.7-1.2-5.5,1.7-3.8-1.6
			C276.7,167.6,280.4,165.4,282.3,164.2z"/>
		<path id="line525" class="st1" d="M285.1,160.7C285.5,163.1,283.7,160.8,285.1,160.7z"/>
		<path id="line526" class="st1" d="M283.9,158.8c1.1,1.2-0.9,5.1-0.5,1.4C283.6,159.9,283,158,283.9,158.8z"/>
		<path id="line527" class="st1" d="M285.1,156.5C284.8,161.3,281.8,155.5,285.1,156.5z"/>
		<path id="line528" class="st1" d="M287.3,152.2C286,155.6,283.4,152.6,287.3,152.2z"/>
		<path id="line529" class="st1" d="M282.7,162.1C283.2,165.5,279,162.5,282.7,162.1z"/>
		<path id="line530" class="st1" d="M282.4,161C282.4,162.5,281.5,160.6,282.4,161z"/>
		<path id="line531" class="st1" d="M281.1,159.6C280.1,160.9,280.3,159,281.1,159.6z"/>
		<path id="line532" class="st1" d="M271.3,165.2c-0.7,2.4-2.3,5.1-3.3,3.3C268.4,166.6,270.5,165.1,271.3,165.2z"/>
		<path id="line533" class="st1" d="M269.4,169.7C267.4,171.6,268.7,168.2,269.4,169.7z"/>
		<path id="line534" class="st1" d="M283.5,150.7c-0.6,0.7,0.1,3.5-1.6,2.2c-0.4-0.8-1.9,2.1,0.5,0.7c0.3,2.4-6.4,4.6-4,1.4
			c-2.8,1.9-6.1,3.1-9.8,3.1c-1.1,2.8-4.8-2.9-1.4-2.6c1,1.4,1.7,1.2,1.9,0.2c1.5,1.1,7.3-2.4,4.6-1.8c-1.5,1.1-5.9,1.3-2.9-1.1
			c0.1-2.5,4.8-2.1,3.9-4.2c-2.8,2.2-3.6-0.7-6.1-1.4c-3.2,0.6-1.3-1.9-1-2.4c-2-1,1.7-1.9,2.2-0.9c-1.2-3.2,4.3-2.7,4.8,0.4
			c0.9,2.1,2.1,3.6,4.3,3.4C280.1,147.7,282.4,149.8,283.5,150.7z"/>
		<path id="line535" class="st1" d="M288.9,146.1c-0.5,1.5-5.4,5.5-3.6,3.1C285.7,148.4,289,145,288.9,146.1z"/>
		<path id="line536" class="st1" d="M265.9,157.5C266.4,160,266.6,157.7,265.9,157.5z"/>
		<path id="line537" class="st1" d="M265.2,155.7C262.9,159.5,263.5,153.9,265.2,155.7z"/>
		<path id="line538" class="st1" d="M271,149.9c-2.5,1.1-3.4-2.6-0.5-0.7C270.7,149.5,271.4,149.6,271,149.9z"/>
		<path id="line539" class="st1" d="M268.1,148.8C266.1,150,267.7,147.5,268.1,148.8z"/>
		<path id="line540" class="st1" d="M262.8,150.3C261.8,151.6,262.9,149,262.8,150.3z"/>
		<path id="line541" class="st1" d="M264.2,148.7C263.8,150.7,263.5,147.8,264.2,148.7z"/>
		<path id="line542" class="st1" d="M256.7,146.7c-0.9,1-2.2,0.5-2.5,2.1c-2.6-0.8-1.5,3-3.9,1.6c-1.2-2,1-3.6,3.2-3.6
			C254.9,146.9,256.1,145.1,256.7,146.7z"/>
		<path id="line543" class="st1" d="M263.4,140.1c-0.6,3.2-3.8,4.7-6,4.9c-0.7,0.2,1.7-2.8,3-3.5C260.9,140.7,263.7,139,263.4,140.1
			z"/>
		<path id="line544" class="st1" d="M279.2,135.2C276.6,135.6,278.8,133.3,279.2,135.2z"/>
		<path id="line545" class="st1" d="M269.4,133C267.5,134.4,268,131.5,269.4,133z"/>
		<path id="line546" class="st1" d="M272.3,128.9c1,3.4-4.3,2.1-2,0.2C271.2,129.4,270.9,126.1,272.3,128.9z"/>
		<path id="line547" class="st1" d="M268.7,125.6c0,3.7-3.7,2.5-4.6,0c-2.2-0.5,2.8-4.4,3.8-2C269.3,124,268.5,125,268.7,125.6z"/>
		<path id="line548" class="st1" d="M262.6,122.8c-1.8,1.1-4.5,0.4-1.2-0.4C261.7,122.2,262.7,122.2,262.6,122.8z"/>
		<path id="line549" class="st1" d="M263.2,123.6C261.7,124,262.3,122.5,263.2,123.6z"/>
		<path id="line550" class="st1" d="M271.3,99c0.6,2.6-0.2,7.5-0.7,8c1.7,0.1,0.5,2.5,1.8,3.6c1.7,0.3,0.9,2.3,1.2,2.3
			c2.3-0.3,5,3,7.3,0.1c1,0.1,2.2,0,2.7,1c0.8,3-3.6,2.9-3.4,4.6c-0.5,1.8-2.7,3.4-3.7,5c-2.2,2.2-3-0.3-1.7-2.2
			c-1-2.7,4.5-3.7,3.9-4.4c-1.9,1.2-3.6,0.1-4.4-1.4c0.4,1.9-2.4,5.8-2,1.7c-0.9-1.7-4.5,1.6-5.3,0.3c2.8-1.5-4-0.8-1.2-2.7
			c-0.7,0-2.9-2-3.1-3.2c0.6-3.5,3.7,0.4,3.8-0.2c-1.5-1.5-1.4-2.9-3.1-2.3c-0.3-1.3-0.9-2.6-1.7-1.2c-0.2-3.1-1.2,0.7-1.3,2.1
			c-2.2-1-4.2-1.7-4.8-4.1c-2-1,0.6-1.5,0.7-1.6c-1.6-2.7,1.7-2.2,2,0.1c2.2,2,1.8,0.4,0.8-1.6c0.9-0.9,2.1-0.3,0.3-2.3
			c-1.7-1.9,0.4-4.7,1-1.1c0.9,1.7,3.8,2.5,3.5,2.7c-0.2,3.2,0.9-3.2,1.6,0.2c3.4,2.5-2.7-2.6,0.1-3.9c-2.2-1.3-0.7-3.3,0.5-4.9
			c-0.7-1.7,3.3,0.9,3.2,2.6C270.7,96.4,271,98.2,271.3,99z"/>
		<path id="line551" class="st1" d="M279.4,109.7C280.2,111.1,278,108.8,279.4,109.7z"/>
		<path id="line552" class="st1" d="M279.1,112.7C278.5,114,278.2,112.1,279.1,112.7z"/>
		<path id="line553" class="st1" d="M277.1,111.6C275.1,116,272.6,107.4,277.1,111.6z"/>
		<path id="line554" class="st1" d="M276.1,98.9C275.5,105.5,273.7,98.9,276.1,98.9z"/>
		<path id="line555" class="st1" d="M275.5,102.9c-1.6,2.2-0.8,4.6-0.5,6.7c-2.7,2.5-2.3-3.9-1.1-5.1
			C275.1,105,274.7,101.4,275.5,102.9z"/>
		<path id="line556" class="st1" d="M265.8,83.8C267.1,86.5,264.1,83.1,265.8,83.8z"/>
		<path id="line557" class="st1" d="M264.2,91.3C264.9,92.4,262.7,90.8,264.2,91.3z"/>
		<path id="line558" class="st1" d="M284.6,86.7C285.7,88.8,282.9,85.6,284.6,86.7z"/>
		<path id="line559" class="st1" d="M288.4,84C289.4,86,287.3,83.4,288.4,84z"/>
		<path id="line560" class="st1" d="M294.5,81.9C293.7,81,295.5,81.5,294.5,81.9z"/>
		<path id="line561" class="st1" d="M290,78.8C287.9,78.9,290.2,76.7,290,78.8z"/>
		<path id="line562" class="st1" d="M289.3,80.3C288,80.1,290,79.7,289.3,80.3z"/>
		<path id="line563" class="st1" d="M287.6,81.2C285.8,81.1,288,80,287.6,81.2z"/>
		<path id="line564" class="st1" d="M296,61.4C294.3,62.1,296.6,59.8,296,61.4z"/>
		<path id="line565" class="st1" d="M270.9,59.8c-2.1,1.3,0.3,3.5-0.3,3.8c-1.8,1.6-4.1,4-4.1,5.4c2.3,2.2,5.6-4.7,5.2-0.2
			c-1,2.1-2.9,1.9-4.5,1.3c-1,0.3-2.4-1.3-1.4,1.1c1.8,2.5-3.1,3.2-3.9,3.9c2.8-0.1,3.8-1.9,4,1.5c0.8,3.6-4.4,1.3-4.3,2.1
			c3.4,0.8,0.9,4.1-0.5,3.7c-0.4,2.4-2.6-2.6-1.8,0.6c-2.4-0.4-2.7-4.2-2.2-5.5c-2.2,1.8,0,5.4,0.6,6.7c-0.4,1.2-5.2-0.9-2.6,1.7
			c1.4,1.3-0.6,2-1,2.2c-1.6-0.3-2.2,2.5-3.5,3.9c-1.1-0.6-4.1-3.5-4.6-5.1c1.9,0.3,1.4,2.5,2.6,0.1c0.6-0.9,2.8-1.6,2.7-1.9
			c-2.3-1.7,1.6-1,2.6-1.2c-0.8-1.7-3.4-2.5-5.5-2.5c-2-1.3-2.2-2.7-0.1-3.2c2.2-1-0.9-0.7,0-1.4c-1.3-1.1-2.3-3.4-1-5.2
			c0-1.2,3.6-0.1,1-1.7c0.1-2.8,2.4-0.4,2.9-1.1c1.8,1.3-1.3,1.7,1.7,2.6c0.4-2.5,4.2,1,4.2-0.6c-1.9-1.5-4-5.3-0.8-6.1
			c1.2-1.9,3.9-1.4,5.1-2.3c1.2-3.3,5.9-4.6,7-7.1C270.4,56.4,270.6,57.8,270.9,59.8z"/>
		<path id="line566" class="st1" d="M255.4,69.1c-0.2,2.6-4.3-3.8-1.3-1C254.3,68.4,255,68.5,255.4,69.1z"/>
		<path id="line567" class="st1" d="M253.7,69.6C252.5,69.2,253.9,68.7,253.7,69.6z"/>
		<path id="line568" class="st1" d="M246.8,78.7C243,79.2,247.1,75.4,246.8,78.7z"/>
		<path id="line569" class="st1" d="M250.3,84c-1.5,1.3-3.4,0.7-0.9-0.7C250,82.4,250.3,83.4,250.3,84z"/>
		<path id="line570" class="st1" d="M244.3,89.6C244.4,92,241.1,88.9,244.3,89.6z"/>
		<path id="line571" class="st1" d="M245.9,91.9C243.9,95.3,243.3,90.4,245.9,91.9z"/>
		<path id="line572" class="st1" d="M242.6,92.7C242.4,94.6,241.4,91.8,242.6,92.7z"/>
		<path id="line573" class="st1" d="M232.8,93.4C232.6,94.2,232.1,92.8,232.8,93.4z"/>
		<path id="line574" class="st1" d="M211,87.7C209.6,89.8,208.2,85.7,211,87.7z"/>
		<path id="line575" class="st1" d="M247.9,96.5c-0.2,2.1-4.2-1.6-2.6,0.7c0,1.8,2.8,0.2,1.1,2.6c-2.4,0.4-4.5-0.9-4,1.1
			c0,3.4-2.7-4-4.7-1.5c-2.8-1.1-0.6-2.9,0-4.2c1.5,0.2,2.5-0.7,1.6,1c1,0.6,2.6-4.2,2.1-1c1.5,3.4,1.8-3.3,4-0.5
			C243.4,97,248.4,94.5,247.9,96.5z"/>
		<path id="line576" class="st1" d="M239,99.6C240.1,101.3,237.8,99.3,239,99.6z"/>
		<path id="line577" class="st1" d="M233.6,101.7C231.3,101.7,234.8,101,233.6,101.7z"/>
		<path id="line578" class="st1" d="M234.7,101.3C234.5,102.9,233.6,101,234.7,101.3z"/>
		<path id="line579" class="st1" d="M240.9,101.3C240.9,105.8,238.1,98.1,240.9,101.3z"/>
		<path id="line580" class="st1" d="M244.1,105.4c-0.5,4.4-8.2-1.6-3.1-2.4C242.2,104,243.6,103.9,244.1,105.4z"/>
		<path id="line581" class="st1" d="M243.3,109.9c-1.7,0-5.6-3-2.3-2.5C242.8,108.1,242.5,108.7,243.3,109.9z"/>
		<path id="line582" class="st1" d="M244.5,111.9c-1.1,1.5-1.8,3.9-3.7,2.9c0.7,0,4,3.2,1.5,3.7c-3.3,0.1,1.2,0.5,1.6,1.7
			c0,1.3-4.5,1-4.6-1.2c-0.9-3.6-0.5-5.7,0.3-9.2c-1-3,0-0.9,1.5-0.2C242.5,110.2,244.1,111.2,244.5,111.9z"/>
		<path id="line583" class="st1" d="M242.8,121.7C241.9,125.2,240.7,120,242.8,121.7z"/>
		<path id="line584" class="st1" d="M240.1,123.4C238.5,123.9,239.9,122,240.1,123.4z"/>
		<path id="line585" class="st1" d="M238.8,123.6c-0.2,1.8,1.2,2.5,0,4c-1.5,1.1-4.6,0-2.1-1.7c-0.7-0.8,2-2.2,1.6-2.6
			C238.5,123.3,238.7,123.3,238.8,123.6z"/>
		<path id="line586" class="st1" d="M237.2,128.5c-0.2,1.3-2.7,0.7-1.3-0.6C236,128.3,237.9,128.2,237.2,128.5z"/>
		<path id="line587" class="st1" d="M237.1,130.7C234.7,131.4,237.2,129.1,237.1,130.7z"/>
		<path id="line588" class="st1" d="M235.5,132.5C233,132.8,235.7,131.4,235.5,132.5z"/>
		<path id="line589" class="st1" d="M233.9,133.6C233.1,137.5,231.9,133,233.9,133.6z"/>
		<path id="line590" class="st1" d="M241.1,124.8C242.1,126,239.6,124.5,241.1,124.8z"/>
		<path id="line591" class="st1" d="M244.7,107.5C243,109,244.7,104.9,244.7,107.5z"/>
		<path id="line592" class="st1" d="M244.3,103.2C244.2,104.8,242,101.7,244.3,103.2z"/>
		<path id="line593" class="st1" d="M245.4,102.8C245.3,105.7,243.8,101.5,245.4,102.8z"/>
		<path id="line594" class="st1" d="M244.4,100.5C244.3,104.3,241.3,100.2,244.4,100.5z"/>
		<path id="line595" class="st1" d="M246.1,100.4C246.3,103.9,242.5,100.9,246.1,100.4z"/>
		<path id="line597" class="st1" d="M405.6-60.1c-1-1-2.5,5-2,1.8c1.2-1.9-0.3-2.6-0.9-0.5c-0.8,1.3-0.5,4.5-1.2,5.1
			c-0.8,2.6,2.6,1.5,3.4,1.5c-1.1-1.6,0.8-3.4,0.5-4.4c0.5-1.2,1.3-1.7,0.9-3.2C406-59.8,405.5-59.8,405.6-60.1z"/>
		<path id="line598" class="st1" d="M401.1-48.9C402.2-48.2,398.9-47.4,401.1-48.9L401.1-48.9z"/>
		<path id="line599" class="st1" d="M406.4-47.3c0.2-1.3-1.4-1.8-2.6-1.6c-3.6-2.2,0.7,5.5,0.2,1.6
			C405.2-47.6,405.8-45.1,406.4-47.3z"/>
		<path id="line600" class="st1" d="M406.9-38.9C405.9-40.1,405.4-36.8,406.9-38.9z"/>
		<path id="line601" class="st1" d="M402.7-36.5c0.9-2.5-5.2,3.1-1.4,1.9C401.9-35.1,402.1-35.9,402.7-36.5z"/>
		<path id="line602" class="st1" d="M400.3-24.9C400.4-26.7,399.1-23.7,400.3-24.9z"/>
		<path id="line603" class="st1" d="M399.4-24.5c1-2.6-3-3.4-1.7-0.4C397.3-23.3,399.6-21.9,399.4-24.5z"/>
		<path id="line604" class="st1" d="M395.6-41.2c-0.2-3.3-1.9,1.5-2.1-0.7c-1.1,1.5,2.5,2.2-0.9,2.4c-1.1,3.1-1.7,0.5-0.2-1
			c0.8-2-0.2-1.3-0.3-2c-0.1-2.2,0.3-1.8,0.6-4.2c1-1.3-0.4-4.6-0.3-1.5c-0.1,0.6-3.4-1.1-2.6,1.6c-2.9,1.2,0.5,3,0.6,3.5
			c-2.6,0.7-3.3-5.2-3.8-0.6c-2.2,0.6-1.2,3,0.4,1.7c1.9-1,0.6,2.8,2,0.3c0.5-0.6,0.2,3.7,1.7,3.2c-0.9,2.5,1.7,0.6,1.4,2.2
			c3,0.8,0.9,0.3,0.3,1.2c-1.1-0.1-0.3,2.3-1,2.9c-1.1-3.3-2.6-0.5-2.6,0.3c-0.3-4.2-2.2,1.4-3.2-1.4c-4.6-0.2-1.1,6.7,1.3,4.4
			c0.6,2.1,1.4-2.9,1.7,0.3c-1.2,0.6-1.4,2.1,0.7,3.3c0.5-2,1.2-1.1,1.7-2.7c2.4,1.2-2.8-4.3,0.7-1.9c0.5,3.4,0.6,0.6,2,0.1
			c-0.6,1.3-1.8,5.3-0.1,2.7c-0.2,2.8,0.5,5.1-0.7,8.3c-1.3,2.3-0.5,3.2-1.6,5.4c-0.6,1.4,2.2,1.4,1.7,2.3c1.8,1.7,0-3.1,1.3-4.1
			c-0.2-2.6,0.3-1.6,1.3-2.1c-1.7-2.4,2-2.2-0.1-4.3c-0.3-2.2,0.8-2.6,1.9-3.7c-1.2-1.1,0.1-3-1.7-1.3c1.7-2.9-0.6-0.8,0.3-2.2
			c-1.3-0.5,0-1.2-0.1-2.4c-0.2,2.4,3.3,0.6,1.7-0.4c-1.7,0,3.1-2.8-0.4-2.7c-2.5-1.2,3.5-0.2,1.7-3c-2.9,1.8,0.2-1,0.8-2.7
			c-1.7,0.4-2.1,2.3-2.9,2.8c-0.2-1.7-1.8-0.4-1.6-1.1C396.6-39.2,397.1-39.4,395.6-41.2z"/>
		<path id="line605" class="st1" d="M374.8-24.4C373.3-29,371.9-21.4,374.8-24.4z"/>
		<path id="line606" class="st1" d="M386.5-27.9C384.1-28.5,387.2-26.3,386.5-27.9z"/>
		<path id="line607" class="st1" d="M382.9-35c-1.6,1.5,3.3,0.9,0.2,0.1L382.9-35z"/>
		<path id="line608" class="st1" d="M391.3-34.5C390.3-36.1,390.8-32.4,391.3-34.5z"/>
		<path id="line609" class="st1" d="M391-36.4C387.2-38.6,390-32.5,391-36.4z"/>
		<path id="line610" class="st1" d="M400.5-54.3c-2-0.2-3.4-0.6-2.9,2.3c-0.5,1.8,0.4,5.5-0.7,2c-1.9,0.2-1,6.1,0.3,7.8
			c1.1-0.9,0.2-1.1,2.6-0.6c-0.4-2.6,1.2-3.9-1-5.5c2.8,1-1.4-4.9,1.5-1.5C401.4-50.1,400.1-53.3,400.5-54.3z"/>
		<path id="line2130" class="st1" d="M243.7,98.2c-1.9,1.6-0.8-0.2-1-0.9C242.8,97.9,243.9,97.5,243.7,98.2z"/>
		<path id="path26824" class="st1" d="M321.6,65c0.4,0,1,0.3,1.6,1.2l-0.3,0C321.1,65.9,321,65,321.6,65z"/>
		<path id="path26822" class="st1" d="M317.4,68C314.5,71.7,315.8,68.5,317.4,68z"/>
		<path id="path26820" class="st1" d="M307.5,71.2c3,1.7,6,3.7,7.8,6.7c-0.3,0.2-0.6-0.3-0.7-0.5C312.8,75.2,307.4,71.4,307.5,71.2z
			"/>
		<path id="path26818" class="st1" d="M322.3,81.4c0.4-0.1,4.2,1.7,1.6,1.2C322.5,81.7,322.2,81.4,322.3,81.4z"/>
		<path id="path26816" class="st1" d="M315.5,83.4c0.1,0,0.4,0.3,1,1.1c0.2,1.9,5.1,0.3,2.6,1.4C317.3,87.3,315.1,83.4,315.5,83.4z"
			/>
		<path id="path26814" class="st1" d="M288.3,89.2c0.2-0.1,0.5,0.3,0.8,1.4c0.2,0.3,1.6,1.5,0.5,1.3C288.1,91,288,89.3,288.3,89.2z"
			/>
		<path id="path26812" class="st1" d="M284.9,90.4c0,0,1.2,1.3,2.2,2c0.8,0.6,6.1,4,3.8,3.2c-1.7-2-5-0.9-5-3.9
			C285.1,90.8,284.8,90.5,284.9,90.4z"/>
		<path id="path26810" class="st1" d="M299,95.3c0.3,0,0.7,0,1.3,0.1c0.5,0.4,2.8-0.7,2.1,0.3c-1.6,0.8-4.8-0.3-3.7-0.4
			C298.9,95.3,299,95.3,299,95.3z"/>
		<path id="path26808" class="st1" d="M335.2,95.4c0.3,0,0.6,0.3,0.3,1.1C333.1,96.7,334.4,95.4,335.2,95.4z"/>
		<path id="path26806" class="st1" d="M315.9,102.2c0.5,0.5,3.6-0.1,2.7,0.7C316.7,104,311.5,102.5,315.9,102.2z"/>
		<path id="path26804" class="st1" d="M298.4,105.4c0.8-0.1,2.5,1.3,1.5,1.2c-1.3-1-5.4-0.1-1.8-1.1
			C298.2,105.4,298.3,105.4,298.4,105.4z"/>
		<path id="path26802" class="st1" d="M316.6,107.5c0.4,0,0.2,0.5,0.2,0.7c-3,3.3-5.3,8.6-8.7,10.6
			C311.1,115.1,313.7,111.1,316.6,107.5z"/>
		<path id="path26800" class="st1" d="M302.8,121.5c0.3,0,0.6,0,0.9,0.1c0.1,0.3-0.3,0.3-0.4,0.4
			C300.2,122.7,300.8,121.5,302.8,121.5z"/>
		<path id="path26798" class="st1" d="M293.2,121.6c0.7,0,1.4,0.3,2,0.9c-1.2-0.4-4.7,1.1-4.4,0.4
			C291.6,122.1,292.4,121.7,293.2,121.6z"/>
		<path id="path26796" class="st1" d="M304,124.8c0.1,0,0.1,0.2,0,0.5c-0.7,1.8-4.9,5-2.2,1.7C302,126.6,303.6,124.8,304,124.8z"/>
		<path id="path26794" class="st1" d="M280.5,127c1.6,0.8,5.8,0,6.1,0.6l-0.1,0.1l-0.2,0C284.5,128.1,278.6,128.4,280.5,127z"/>
		<path id="path26792" class="st1" d="M318.4,129c0.2,0-0.1,0.4-0.3,0.4c-1.9,2.2-3.6,6.2-4.5,7.9c0.2-2.8,2.7-5.9,4.5-8.3
			C318.3,129,318.3,129,318.4,129z"/>
		<path id="path26790" class="st1" d="M362.7,138.4c0.7,0,2.1,0.7,0.5,1C362.2,138.6,362.3,138.4,362.7,138.4z"/>
		<path id="path26788" class="st1" d="M308,138.5c0.4,0,0.6,0.1,0.3,0.4c-2.1,1-7.5,0-2.4,0.1C306.2,138.8,307.3,138.5,308,138.5z"
			/>
		<path id="path26786" class="st1" d="M319.7,139.1c0.4,0,0.7,0.1,0.5,0.5c-2.2,0.4-8,0.5-2.8-0.1
			C317.7,139.5,318.9,139.1,319.7,139.1z"/>
		<path id="path26784" class="st1" d="M325.1,144.6c-0.1,0.2-0.3,0.2-0.4,0.4c-2.5,1.2-3.7,4.6-6.7,4.5
			C321,148.9,322.5,144.8,325.1,144.6z"/>
		<path id="path26782" class="st1" d="M304.5,145.3c0.3,0,0.6,0.1,1,0.3C304,147.9,303.1,145.3,304.5,145.3z"/>
		<path id="path26780" class="st1" d="M298.2,145.8c0.1,0,0.1,0.1,0.1,0.2c-0.7,1.8-3.2,5.5-4.4,4.6
			C295.7,150.1,297.7,145.7,298.2,145.8z"/>
		<path id="path26778" class="st1" d="M322.5,153c0.6,0,0.9,0.1-0.3,0.3c-2,0.8-5.6,0-1.6-0.1C320.9,153.1,321.9,153,322.5,153z"/>
		<path id="path26776" class="st1" d="M298.6,153.2c0.2,0,0.3,0.1,0.3,0.4c-1.3,2.1-4.5,2.6-5.2,5.1c-0.3,1.4-3.5,4.4-3.8,3.6
			c3.7-1.9,3.4-6.8,7.7-8C297.5,153.8,298.2,153.2,298.6,153.2z"/>
		<path id="path26774" class="st1" d="M309.9,157.6c1.1,1.6,4,1.1,4.4,2.5c-0.1,0-0.2-0.2-0.4-0.1
			C312.4,160.1,309.2,158.3,309.9,157.6z"/>
		<path id="path26772" class="st1" d="M307.8,158.6c0.1,0,0.1,0.1,0.3,0.3c-0.5,3.8,2.5,6.7,4.1,8.8c-1.3,0.2-1.7,2.4-2,2.2
			c-1.4-2.2-0.8-5.8-2.4-8.4C308,161.1,307.6,158.7,307.8,158.6z"/>
		<path id="path2661" class="st1" d="M301.5,182.6C300.8,185.3,300.5,181.2,301.5,182.6z"/>
		<path id="path2663" class="st1" d="M296,174.2c2,1.9,4.4,4.4,3.5,7.2c0.7,3.1-1-0.6-2.4-1.1C297.8,177.8,293.1,175.9,296,174.2z"
			/>
		<path id="path2665" class="st1" d="M296.1,179.3C297.5,182,294.8,179.1,296.1,179.3z"/>
		<path id="path2667" class="st1" d="M298.5,191.3C299.9,193.5,297.3,191.2,298.5,191.3z"/>
		<path id="path2669" class="st1" d="M293.4,183c3.5,0.4,2.9,4.6,3.8,6.2c1.2,1.5-0.6,2.4,0.7,3.4c0.6,2-0.7,3.4-3.2,3
			c-4.4-0.8-3.1-5.1-4.8-8.2C290.1,185,292.1,183.4,293.4,183z"/>
		<path id="path2671" class="st1" d="M286,202.4C284.1,203.9,285,201.2,286,202.4z"/>
		<path id="line521" class="st1" d="M281.8,182.6c0.8,1.4-1.3,5.2-1.1,2C281.4,183.9,281,182.5,281.8,182.6z"/>
		<path id="path2674" class="st1" d="M271.6,174.1c-0.6,3.9,2.6,7.1,2.7,10.7c-1.2,1.3-2.8,2.6-4.9,2.3c-0.3,4.2-5.3,0.5-1.6-1.1
			c1.4-1.8-3.6-3.9,0.3-4.9c-0.3-1.9-3.3,0.3-3.3,2.3c-2,3.2-4.5,0.9-2-1.5c1.2-1.3-0.3-2.3,0.5-4c0.1-1.1,3.3-2.3,3.1-1.8
			c-0.5,3,0.3,1.9,0.9-0.1C268.2,175.5,271.7,172,271.6,174.1z"/>
		<path id="line523" class="st1" d="M278.6,172.3c0.1,3.7-2.5,3.5-2.8,7.1c-5,1.7-4.4-8.7,1.4-6.9
			C277.6,172.5,278.5,171.8,278.6,172.3z"/>
		<path id="path2749" class="st1" d="M302.5,179.9c0.7,3.1-2.9,1.5-0.2-0.3l0.1,0.1L302.5,179.9z"/>
		<path id="path26770" class="st1" d="M315.7,202c0.2,0,0.7,0.3,0.7,0.6c-0.6,2.8-0.9,2.2-0.6-0.2C315.5,202.2,315.5,202,315.7,202z
			"/>
	</g>
	<g id="layer3">
		<path id="path2494" class="st1" d="M263.7,203.9c-0.8,0-1.6,0.2-2.2,0.6c-2.8,1-5.2,2.8-8.5,2.6c-2.9-2.3-2,0.8-3.2,2.9
			c-0.4,3.5-3.4,2.3-5.8,2.3c-0.1-0.1-0.2-0.2-0.2-0.4l-0.3,0.3c-0.2,0-0.5,0.1-0.7,0.3c-0.4,0.5-0.8-0.3-1.2,0.2
			c-0.9-0.3-1.2,0.7-1.6,1.2c-0.1,0.4-0.8,0.8-0.6,1.2c0.9,0.2-0.3,0.7,0.2,1.1c-0.1,0.6-0.5,0.8-0.8,1.1c0,0.6-0.3,1.3,0,1.9
			c-0.1,0.7-0.2,1.5-0.8,1.9c0,0.6-0.4,1.1-0.9,1.3c-0.3,0.6-0.3,1.4-0.5,2.1c-0.3,0.5,0.2,1.5-0.7,1.4c-0.5-0.3-1.1-0.2-1.6-0.2
			c-0.7-0.4-1.1,0.5-1.6,0.7c-0.8,0.2-1.2,1.3-2.1,0.7c-0.7-0.4-1.1-1.3-2-1.4c-0.8,0-0.7,1.1-1,1.6c-0.6,0.3-0.4,0.9-0.8,1.2
			c0.5,0.5,1.3,0.9,1.5,1.7c0.6-0.1,1.3-0.1,1.9,0.2c0.6,0,1,1,1.5,0.4c0.4-0.6,0.8,0.4,0.4,0.6c-1,0.7-2.2,1-2.7,2.2
			c-0.1,0.6-1,0.4-0.9,0.9c-0.8,0.1-1.7,0-2.5,0.1c-0.4-0.2-0.6-0.8-1.1-0.1c-0.4,0.4-1.2,0.7-1.2,1.3c0.2,0.6-0.4,1.1-0.9,0.9
			c-0.4,0.6-1.1,0.8-1.8,0.9c-0.3,0.3,0.9,0.7,0.2,1c0.4,0.4,0.9,0.8,1.2,1.3c0.7,0.8,1.2,1.9,2.2,2.1c0.8,0,0.8,0.7,1,1.3
			c0.5,0.7,1.1,1.6,2,1.7c0.8,0.8,0.4,2.2,0.9,3.1c1.3,0.4,2.7,0.3,4.1,0.6c0.3,0.3,0.4,1.2,0.9,0.6c0.7,0.3,0.4,1.3,1,1.7
			c0.7-0.2,0.8,0.8,1.4,0.7c0.5-0.2,1,0.1,1.5,0.3c0.7-0.1,0.9-0.9,1.5-1.3c0.2-0.4,0.9-0.9,1.1-0.3c0.1,0.5-1,0.7-0.2,1
			c0.5,0.3,1.2-0.5,1.3,0.3c0.4,0.3,0.7,0.8,1.2,0.4c0.7,0.1,1.2-0.6,1.3-1.3c0.5-0.4,0-1,0.1-1.4c0.5-0.2,0.7-0.7,0.8-1.2
			c0.5,0.1,0.8-0.3,1.3-0.2c0.7-0.1,0.3-0.8,0.4-1.2c0.3-0.6-0.2-0.9-0.5-1.3c0.4-0.8-1.2-0.6-0.7-1.2c0.4-0.3,0.8-0.6,0.8-1.1
			c0.7-0.1,1.2-0.6,1.6-1.1c0.5-0.9,1.3-1.6,1.7-2.5c0.7-0.4,1.2,0.8,2,0.6c0.4,0.3,0.6,0.9,1.1,1.2c0.5,0.3,0.1,1.2,0.8,1.1
			c0.6,0.4,0.7,1.3,0.9,2c-0.4,0.7,0.3,1.1,0.6,1.6c0,1,0.5,2.1,1.5,2.6c0.4,0.1,0.7,1.1,1,0.5c0.3-0.9,1.1,0,1.6,0.1
			c0.7,0.4,1,1.4,0.8,2.2c-0.4,0.7-0.9,1.5-0.4,2.3c0.6,0.5,0.6,1.7,1.6,1.5c0.3-0.4,0.9-0.4,1.4-0.6c0.5,0.2,1,0,1.3-0.5
			c0.2-0.5,0.7-0.4,1,0.1c0.2,0.7,0.9-0.1,1.2,0.3c0.4-0.3,1.3-0.3,1.1-1c0.1-0.8,1,0.1,1.2-0.5c0.3-0.5,0.9-0.4,1.1,0.1l0.4,0.3
			c0.1-0.1,0.2-0.2,0.5-0.3c0.7,1.3,4.7,1,2.9,2.3c2.3,0.8,5.6-2,5.9-4.5c-0.2-2.4,0.4-4.7,3.4-4.4c2.5,1.5,3.6-0.3,5-2.6
			c0.5-3-1.7-3.8-3.9-1.7c-0.1-0.4,3-4,1.2-5.1c-0.3-1.6-0.7-2-1.4-3.1c0-3.1,3.9,0.8,4,2.3c0,2.4-1.3,4.3,0.6,6.5
			c1.2,0,1.6-2.2,1.5-3.5c1.6-2.1-0.1-3.2-0.3-5.4c-1-1.9-1.1-6.6-4.1-5.5c-2.6-0.5-5.2,0.9-6.6,3c-1.6-3.6,3.5-4.6,5.3-6.4
			c1.9-2.1-3.3-6.5-1.9-3.1c1.7,2.1,1.3,1.4-0.6,0.6c-0.6-2.3-1.8-5.1-3.8-6.9c-2.4,0.1,1.1-5.1-2.6-3.5c0.8-3,0-9.1-4.6-6.7
			C267.8,204.7,265.6,203.9,263.7,203.9z M263.1,222.8C263.9,226.1,261.3,223.6,263.1,222.8z M262.7,225.8c0.3,0,0.6,0.3,0.6,1.2
			c1.8,1.6,4.3-1.8,5.7,0.2c-1,1.8-3.2,4.1-0.8,5.1c-2.3,1.2-1.7,3.2-2.8,4.3c-1.6-0.1-2.6-2-4.6-0.6c-3.3-2.4,3.2-4.1,0.9-7.2
			C261,227.5,262,225.8,262.7,225.8z M229.2,234.7c0.7,0,1.5,0.1,2,0.6c0,1.2,0.1,2.4,1,3.8c1.7,0,1.5,5.1,0.4,1.3
			c-1.6-1.9-5-3.5-6.9-3.3C225.9,235.9,227.6,234.8,229.2,234.7z M236,245.9c0.8,0,0.8,1.4,1.8,1.9c0.2,2,2.3,3.9,0,2.9
			c0.7-1.1-2.7-3.4-2.7-4.4C235.4,246,235.7,245.9,236,245.9z"/>
	</g>
	<g id="layer4">
		<path id="path2657" class="st1" d="M316.3,239.9c-1.3,2.1,0,4.1,0.9,5.2c-1.7,2.3-1.4,4.4-3.9,5.9c-0.4,1.4-3.5,2.8-3.7,3.7
			c-1.3-0.3-2.5-0.8-4.1,0.2c1-2,1.1-5.2,2.4-7c3.7-1.9,2.9-7.7,7.8-8.1C315.9,239.4,316.2,239.6,316.3,239.9z"/>
		<path id="path2659" class="st1" d="M305.1,254.9C304.6,256.8,304,254.9,305.1,254.9z"/>
	</g>
	<g id="layer6">
		<path id="path2647" class="st1" d="M292.7,350.7C293.9,351.6,291.3,351.1,292.7,350.7z"/>
		<path id="path2649" class="st1" d="M292,345.4C291.9,347,291.1,344.8,292,345.4z"/>
		<path id="path2651" class="st1" d="M308.5,285.9c1.2-0.7,3.4,2.8,2,3.3C310.1,287.2,306.3,287.7,308.5,285.9z"/>
		<path id="path2653" class="st1" d="M314.8,281.6c3.9-0.4,3.9,3.8,5.8,5.5c2.5-1.9,5,0.1,1.6,1.9c-2.4,1.1-3.7,4.1-5.5,5.1
			c-2,0.2-2.6-1.5-4-2.8c-1.7-2.5-2.3-6-1.5-8.6C312.6,282.3,313.4,281.8,314.8,281.6z"/>
		<path id="path26826" class="st1" d="M356.5,357.2c0.2-0.4,0.4-0.9,0.4-0.9s0.8-5.8,0.3-8.4c-0.2-1.2-1.1-0.2-2.4-1.2
			c-1.3-1.1-1.3-2.8-2.6-3.1c-0.4-0.1-2,0.9-2.4,0.7c-1.4-0.6-1.6-1.5-2.6-3.9c-1.1-2.4-2-4.6-1.6-5.6c1.2-3.4,3.6-6.4,4.5-8.4
			c0.2-0.3-0.7-0.2-2.4,0c-2,0.3-4.5-4.1-4.5-4.1s0.4-0.9,1.8-1.5c1.4-0.6,3.5-0.5,3.8-0.9c0.4-0.5,0.8-2.5,0.3-2.7
			s-2.1,1.8-2.4,1.7c-0.8-0.1-1.4-1-0.9-1.9c1.2-1.8,4.6-5.4,4.2-6.1c-0.1-0.2-4-2.4-4.2-2.6c-0.3-0.7,0.5-4,1.3-5.5
			c0.8-1.5,0.9-0.2,1.8-0.5s0.9-0.9,1.5-0.9c0.6,0,0,0.7,0.9,1c0.8,0.2,1.6-0.4,2.5,0s0.6,1.6,1.3,1.7c0.7,0.1,1.5-1.2,1.5-1.2
			l-0.4-2.6l-2.3-0.4c0,0-0.9-2.7-1.9-4.4c-0.9-1.7-1.4-1.5-1.5-2.2c-0.1-0.7,1.7,0,1.3-1c-0.5-1-2.6-2.8-2.6-2.8s0.9,0.7-0.2-0.2
			c-1.2-0.8-1.7-0.8-3.2-2.2c-3.8-5.4-8.3,1.3-12.9,0.1c-1.3-0.9-5.7-3.3-3.2-0.3c-1.9,1-5.6,3-8.3,3.1c-1.3,1.2-3.1,4.8-4.1,4.5
			c0,2.4-1.7,4.8-3.9,6.4c-3,1.6-5.7,3.6-6.9,7c0.9,0.8,1.5-0.8,2.7-0.4c1.7-2.1,2.9,1.7,4,0.5c-0.5-3.5,4.2-5,7.5-4.8
			c3.4,1-0.1,4.4,2.3,6c0.5,2.2,2.5,1.3,2.6,1.5c-2.5,1.3-4.7,5.8-1.1,7.5c2.6-1.2,2.6,0.4,0.1,0.8c-1.3,0.8-0.9,5.3-2.3,7.4
			c-1.5,3.8-5.4,5-8.1,7.1c-1,2.3-5.2,0.2-6,2.1c-1.1,0-1.7,2.5-3.6,2.8c0.4,2.5-2.2,0-2.8,1.7c-0.7-0.2-4.1-2.1-3.4,0.7
			c-0.9,1.8-4.2,2.1-5.4,3.4c-1.3,3,2.8,0,4.4,2.1c1.2,2.5-0.1,3.4-1.9,4.4c-2.1,0.3,0.4,1,0.8,2.3c0-2.8,3.5,0.1,5.5-1.1
			c4.1-0.7-1.5,1.4-2.3,1c-0.7,0.3-3.2,0-0.4,1.1c0,1.6,2,2.7,3.6,2.1c1.1-2.3,3.8-0.8,5.3-2.1c-0.2-3.7,4.1-2.8,6.8-3.3
			c-1.2-2.5,0.6,0.1,1.3-1.5c-0.1,0.9,2.8,3,0.4,2c-0.8,1.5,2.5,2.8,4.2,1.9c1,2,4.4-0.9,2.8,1.3c-2.3,1.9-3.8-0.6-5.2,1.6
			c-0.3,1.9,1.1,3.3,2.9,2.6c1.3-1.2,3.5-0.6,5-0.7c-2.1-2.1,2.8-3,3.6-2c2.3,1.2,1.5,5.9,4.3,5.4c2.8,4,8.4,4.5,12.4,2.7
			c-0.4-2.8,2.8-3.9,4.6-5.9C351.8,359.3,354.5,358.2,356.5,357.2z"/>
	</g>
	<g id="layer9">
		<path id="line396" class="st1" d="M373.3,448c2.8,0.2,1.6,5.1-0.8,2.5c-1.5-0.9-1.2,1.1-2.3,0.3c-0.6,0-1.9-4.2,0.6-2.7
			C371.6,447.4,372.5,448.1,373.3,448z"/>
		<path id="line397" class="st1" d="M366.8,440.9C366,443.7,365.7,439.8,366.8,440.9z"/>
		<path id="line398" class="st1" d="M364.2,439.3C364.3,440.8,363.6,438.8,364.2,439.3z"/>
		<path id="line399" class="st1" d="M362.8,438.6c-0.5,2.5-1.5,3.8-4.3,2.5C359.2,440.3,361.6,437.7,362.8,438.6z"/>
		<path id="line400" class="st1" d="M371.1,429.7c0.6,1.2-3.1,0.9-0.3,0.1C370.9,429.6,371.2,429.9,371.1,429.7z"/>
		<g id="g2770" transform="matrix(0.496916,0,0,0.493415,-8385.902,-5007.009)">
			<g id="g35760" transform="translate(250.2893,-11.93883)">
			</g>
			<g id="g35765" transform="translate(-249.7107,-11.93883)">
			</g>
			<g id="g35781" transform="translate(250.2893,2224.366)">
			</g>
			<g id="g35789" transform="translate(-249.7107,2224.366)">
			</g>
			<g id="g35816" transform="translate(24.67765,-455.2513)">
			</g>
			<g id="g35821" transform="translate(24.67765,476.9432)">
			</g>
			<g id="g35829" transform="translate(24.67765,1299.573)">
			</g>
			<g id="g35837" transform="translate(-978.1,-455.2513)">
			</g>
			<g id="g35845" transform="translate(-978.1,476.9432)">
			</g>
			<g id="g35853" transform="translate(-978.1,1299.573)">
			</g>
			<g id="g4069" transform="translate(2.834646,-8.503938)">
				<g id="g4036">
				</g>
			</g>
		</g>
		<g id="g2893" transform="matrix(0.496916,0,0,0.493415,-8385.902,-5007.009)">
			<g id="g41735">
			</g>
		</g>
	</g>
</g>
</svg>
