<?xml version="1.0" encoding="utf-8"?>
<!-- Generator: Adobe Illustrator 21.1.0, SVG Export Plug-In . SVG Version: 6.00 Build 0)  -->
<svg version="1.1" id="Layer_1" xmlns="http://www.w3.org/2000/svg" xmlns:xlink="http://www.w3.org/1999/xlink" x="0px" y="0px"
	 viewBox="0 0 1000 1000" style="enable-background:new 0 0 1000 1000;" xml:space="preserve">
<style type="text/css">
	.st0{fill:#3B7A9E;}
</style>
<g>
	<path class="st0" d="M500.1,321.7c-98.4,0-178.2,79.8-178.2,178.2s79.8,178.2,178.2,178.2s178.2-79.8,178.2-178.2
		C678.3,401.5,598.5,321.7,500.1,321.7z M898.2,455.4c-20.5-185.7-168-333.1-353.7-353.7V10h-89.1v91.8
		c-185.7,20.5-333.1,168-353.7,353.7H10v89.1h91.8c20.5,185.7,168,333.1,353.7,353.7V990h89.1v-91.8
		c185.7-20.5,333.1-168,353.7-353.7H990v-89.1H898.2z M500.1,811.8c-172.2,0-311.8-139.7-311.8-311.8
		c0-172.2,139.7-311.8,311.8-311.8c172.2,0,311.8,139.7,311.8,311.8S672.2,811.8,500.1,811.8z"/>
</g>
</svg>
