<?xml version="1.0" encoding="utf-8"?>
<!-- Generator: Adobe Illustrator 21.0.2, SVG Export Plug-In . SVG Version: 6.00 Build 0)  -->
<svg version="1.1" id="Layer_1" xmlns="http://www.w3.org/2000/svg" xmlns:xlink="http://www.w3.org/1999/xlink" x="0px" y="0px"
	 viewBox="0 0 576 576" style="enable-background:new 0 0 576 576;" xml:space="preserve">
<style type="text/css">
	.st0{enable-background:new    ;}
	.st1{fill:#414042;}
</style>
<g class="st0">
	<path class="st1" d="M7.5,31.8c-2,0-3.6-0.4-4.5-0.9V15c1-0.5,2.6-0.9,4.4-0.9c4.7,0,7.1,3.3,7.1,8.7C14.5,28,12.3,31.8,7.5,31.8z
		 M7.3,15.5c-0.9,0-1.5,0.1-2.1,0.3v13.9c0.5,0.2,1.3,0.3,2.1,0.3c3.5,0,4.8-2.6,4.8-7.4C12.1,18,10.6,15.5,7.3,15.5z"/>
	<path class="st1" d="M22.1,31.8c-3.5,0-5.1-1.5-5.1-4c0-3.6,3.3-4.6,7.5-5v-0.8c0-2.1-1.2-2.7-3-2.7c-1.3,0-2.5,0.5-3.2,0.9
		l-0.5-1.3c0.8-0.4,2.3-1,4.1-1c2.5,0,4.7,1.1,4.7,4.4v8.6C25.5,31.4,24,31.8,22.1,31.8z M24.5,23.9c-3.4,0.4-5.4,1.2-5.4,3.9
		c0,2,1.2,2.8,3.2,2.8c0.8,0,1.7-0.2,2.2-0.5V23.9z"/>
	<path class="st1" d="M37,31.5L34.1,26h0l-2.9,5.5h-2.3l4.2-7L29.2,18h2.3l2.6,4.9h0l2.7-4.9H39l-3.7,6.3l4.2,7.1H37z"/>
	<path class="st1" d="M56.8,31.5l-5.6-8h0v8h-2.3V15c0.9-0.5,2.4-0.9,4.3-0.9c3.9,0,5.9,1.9,5.9,5.1c0,2.9-2.1,4.7-5.2,4.7v0
		l5.6,7.6H56.8z M53.1,15.4c-0.9,0-1.5,0.1-1.9,0.4V23c0.2,0.1,0.9,0.1,1.5,0.1c2.8,0,4.1-1.4,4.1-3.9
		C56.8,16.6,55.6,15.4,53.1,15.4z"/>
	<path class="st1" d="M63.5,25.6c0.2,3,1.7,4.5,4.1,4.5c1.5,0,2.6-0.4,3.3-0.8l0.6,1.4c-0.8,0.5-2.2,0.9-4.1,0.9c-3.5,0-6-2.2-6-7
		c0-4.6,2.2-6.9,5.4-6.9c3.2,0,5.2,2.1,5.1,6.6L63.5,25.6z M66.8,19.2c-1.9,0-3.4,1.6-3.3,5.2l6.4-1C69.9,20.4,68.7,19.2,66.8,19.2z
		"/>
	<path class="st1" d="M79.5,37.1c-1.8,0-3.3-0.4-4.2-0.9l0.7-1.5c0.8,0.4,1.9,0.8,3.1,0.8c2.5,0,3.4-1.5,3.4-3.5v-0.9
		c-0.6,0.3-1.5,0.6-2.7,0.6c-3.2,0-5.3-2.5-5.3-6.6c0-4.3,2.1-7.2,6.1-7.2c1.9,0,3.2,0.5,4,1v13C84.6,35.2,82.7,37.1,79.5,37.1z
		 M82.5,19.5c-0.5-0.3-1.1-0.4-1.9-0.4c-2.7,0-3.9,2.3-3.9,5.8c0,3.5,1.1,5.4,3.7,5.4c0.9,0,1.6-0.2,2.1-0.5V19.5z"/>
	<path class="st1" d="M93,31.8c-3.4,0-4.8-1.7-4.8-4.4V18h2.2v9.4c0,1.6,0.8,2.8,2.7,2.8c1,0,1.8-0.2,2.4-0.5V18h2.2v12.7
		C96.7,31.3,95.1,31.8,93,31.8z"/>
	<path class="st1" d="M101.4,31.5V11.9h2.2v19.6H101.4z"/>
	<path class="st1" d="M111.8,31.8c-3.5,0-5.1-1.5-5.1-4c0-3.6,3.3-4.6,7.5-5v-0.8c0-2.1-1.2-2.7-3-2.7c-1.3,0-2.5,0.5-3.2,0.9
		l-0.5-1.3c0.8-0.4,2.3-1,4.1-1c2.5,0,4.7,1.1,4.7,4.4v8.6C115.2,31.4,113.7,31.8,111.8,31.8z M114.2,23.9c-3.4,0.4-5.4,1.2-5.4,3.9
		c0,2,1.2,2.8,3.2,2.8c0.8,0,1.7-0.2,2.2-0.5V23.9z"/>
	<path class="st1" d="M125.1,19.5c-1.1-0.3-2.3-0.2-3.1,0.2v11.8h-2.2V18.8c1.3-0.7,2.6-1,5.8-0.9L125.1,19.5z"/>
</g>
<g class="st0">
	<path class="st1" d="M12.8,87.5l-1.6-5.1H5.2l-1.7,5.1H1.5l5.8-17.2h2l5.8,17.2H12.8z M8.8,74.5c-0.4-1.3-0.5-2.1-0.5-2.1H8.2
		c0,0-0.1,0.7-0.5,2.1l-2,6.5h5.1L8.8,74.5z"/>
	<path class="st1" d="M22.3,87.8c-3.5,0-5.1-1.5-5.1-4c0-3.6,3.3-4.6,7.5-5v-0.8c0-2.1-1.2-2.7-3-2.7c-1.3,0-2.5,0.5-3.2,0.9
		L18,74.8c0.8-0.4,2.3-1,4.1-1c2.5,0,4.7,1.1,4.7,4.4v8.6C25.8,87.4,24.2,87.8,22.3,87.8z M24.7,79.9c-3.4,0.4-5.4,1.2-5.4,3.9
		c0,2,1.2,2.8,3.2,2.8c0.8,0,1.7-0.2,2.2-0.5V79.9z"/>
	<path class="st1" d="M42.1,87.8c-1.9,0-3.6-0.3-4.7-1V71c1-0.5,2.6-0.9,4.5-0.9c3.8,0,5.8,1.8,5.8,4.3c0,2.4-1.8,3.7-3.3,4v0
		c1.6,0.3,4,1.8,4,4.4C48.3,86.3,45.7,87.8,42.1,87.8z M41.9,71.4c-0.9,0-1.6,0.1-2.3,0.4v6.1h1.1c3.5,0,4.7-1.1,4.7-3.3
		C45.5,72.4,44.2,71.4,41.9,71.4z M40.7,79h-1.1v6.8c0.6,0.3,1.4,0.4,2.4,0.4c2.2,0,4-0.9,4-3.4C46,80.2,44.5,79,40.7,79z"/>
	<path class="st1" d="M55.3,87.8c-1.8,0-3.2-0.4-4-1V67.9h2.2v6.6c0.7-0.4,1.4-0.6,2.7-0.6c3.1,0,5.2,2.6,5.2,6.7
		C61.5,84.9,59.3,87.8,55.3,87.8z M55.7,75.2c-1,0-1.6,0.2-2.2,0.5V86c0.5,0.2,1.2,0.3,1.9,0.3c2.8,0,3.9-2.3,3.9-5.7
		C59.3,77.7,58.2,75.2,55.7,75.2z"/>
	<path class="st1" d="M77.4,87.8c-4.1,0-6.4-4-6.4-8.8c0-4.8,2.3-8.8,6.4-8.8c1.5,0,2.6,0.4,3.3,0.9l-0.5,1.3
		c-0.5-0.3-1.3-0.7-2.4-0.7c-3.3,0-4.4,3.6-4.4,7.2c0,3.7,1.3,7.1,4.4,7.1c1,0,1.7-0.3,2.4-0.7l0.6,1.4C80,87.4,78.8,87.8,77.4,87.8
		z"/>
	<path class="st1" d="M87.9,87.8c-2.9,0-5.1-2.6-5.1-7c0-4.4,2.2-7,5.2-7c1.6,0,2.5,0.5,3,0.9L90.4,76c-0.4-0.3-1-0.7-2-0.7
		c-2.4,0-3.4,2.2-3.4,5.4c0,3.2,1.1,5.4,3.3,5.4c0.9,0,1.5-0.3,2-0.6l0.5,1.4C90.4,87.3,89.4,87.8,87.9,87.8z"/>
	<path class="st1" d="M105.2,87.8c-2,0-3.6-0.4-4.5-0.9V71c1-0.5,2.6-0.9,4.4-0.9c4.7,0,7.1,3.3,7.1,8.7
		C112.3,84,110.1,87.8,105.2,87.8z M105.1,71.5c-0.9,0-1.5,0.1-2.1,0.3v13.9c0.5,0.2,1.3,0.3,2.1,0.3c3.5,0,4.8-2.6,4.8-7.4
		C109.9,74,108.3,71.5,105.1,71.5z"/>
	<path class="st1" d="M120.8,87.8c-3.8,0-5.9-2.7-5.9-6.8c0-4.5,2.4-7.1,5.8-7.1c0.8,0,1.4,0.1,2.1,0.3v-6.3h2.2v18.9
		C124.1,87.3,122.7,87.8,120.8,87.8z M122.8,75.4c-0.5-0.1-1.1-0.2-1.7-0.2c-3.1,0-4.1,2.7-4.1,5.6c0,3.2,1.1,5.5,3.8,5.5
		c0.9,0,1.5-0.1,1.9-0.4V75.4z"/>
	<path class="st1" d="M135.6,87.5V70.3h8v1.5h-5.7v6h5.1v1.5h-5.1V86h5.7v1.5H135.6z"/>
	<path class="st1" d="M147.8,81.6c0.2,3,1.7,4.5,4.1,4.5c1.5,0,2.6-0.4,3.3-0.8l0.6,1.4c-0.8,0.5-2.2,0.9-4.1,0.9c-3.5,0-6-2.2-6-7
		c0-4.6,2.2-6.9,5.4-6.9c3.2,0,5.2,2.1,5.1,6.6L147.8,81.6z M151.1,75.2c-1.9,0-3.4,1.6-3.3,5.2l6.4-1
		C154.2,76.4,153,75.2,151.1,75.2z"/>
	<path class="st1" d="M168.7,71.9v6h5.1v1.5h-5.1v8.1h-2.3V70.3h7.9v1.5H168.7z"/>
	<path class="st1" d="M180,75.4v12.1h-2.2V75.4h-1.5V74h1.5v-1.9c0-2.6,1.6-4.4,4.5-4.2v1.4c-1.3,0.1-2.3,0.7-2.3,2.6V74h2.3v1.4
		H180z"/>
	<path class="st1" d="M198.5,87.8c-4,0-7.2-2.9-7.2-9c0-5.7,3.3-8.7,7.2-8.7c1.9,0,3.2,0.4,4,0.9l-0.7,1.4c-0.6-0.4-1.6-0.7-3.1-0.7
		c-3.2,0-5.1,2.3-5.1,7.3c0,4.7,2.1,7.2,4.8,7.2c1.2,0,1.8-0.2,2.1-0.4v-6.4h-2.9v-1.4h5.1v8.9C201.8,87.4,200.6,87.8,198.5,87.8z"
		/>
	<path class="st1" d="M210.8,93.1c-1.8,0-3.3-0.4-4.2-0.9l0.7-1.5c0.8,0.4,1.9,0.8,3.1,0.8c2.5,0,3.4-1.5,3.4-3.5v-0.9
		c-0.6,0.3-1.5,0.6-2.7,0.6c-3.2,0-5.3-2.5-5.3-6.6c0-4.3,2.1-7.2,6.1-7.2c1.9,0,3.2,0.5,4,1v13C216,91.2,214,93.1,210.8,93.1z
		 M213.9,75.5c-0.5-0.3-1.1-0.4-1.9-0.4c-2.7,0-3.9,2.3-3.9,5.8c0,3.5,1.1,5.4,3.7,5.4c0.9,0,1.6-0.2,2.1-0.5V75.5z"/>
	<path class="st1" d="M235.4,87.5v-8.1h-6.5v8.1h-2.3V70.3h2.3v7.5h6.5v-7.5h2.3v17.2H235.4z"/>
	<path class="st1" d="M248.9,87.5V78c0-1.4-0.6-2.6-2.7-2.6c-1,0-1.8,0.2-2.6,0.7v11.5h-2.2V67.9h2.2v6.8c1.1-0.6,2.1-0.8,3.1-0.8
		c3.4,0,4.5,2.1,4.5,4v9.6H248.9z"/>
	<path class="st1" d="M261.8,87.5V70.3h2.3v17.2H261.8z"/>
	<path class="st1" d="M269.2,71.4c-0.7,0-1.3-0.5-1.3-1.2c0-0.7,0.6-1.2,1.3-1.2c0.7,0,1.3,0.5,1.3,1.2
		C270.4,70.9,269.9,71.4,269.2,71.4z M268.1,87.5V74h2.2v13.5H268.1z"/>
	<path class="st1" d="M278,93v-1.6c1.7-0.5,3.1-1.9,3.1-4.4V70.3h2.3v16.5C283.4,90.5,280.8,92.6,278,93z"/>
	<path class="st1" d="M284.9,93v-1.5c1.4-0.5,2.5-1.8,2.5-4.7V74h2.2v12.7C289.6,90.6,287.3,92.8,284.9,93z M288.5,71.4
		c-0.7,0-1.3-0.5-1.3-1.2c0-0.7,0.6-1.2,1.3-1.2c0.7,0,1.3,0.5,1.3,1.2S289.2,71.4,288.5,71.4z"/>
	<path class="st1" d="M308.3,87.5l-5.6-8.9h0v8.9h-2.3V70.3h2.3v8h0l5.5-8h2.4l-5.9,8l6.1,9.2H308.3z"/>
	<path class="st1" d="M320.6,87.5l-5.1-6.9h0v6.9h-2.1V67.9h2.1v12.4h0l4.8-6.2h2.3l-5.1,6.3l5.6,7.2H320.6z"/>
	<path class="st1" d="M332.2,87.5V70.3h2.3V86h5.2v1.5H332.2z"/>
	<path class="st1" d="M342.4,87.5V67.9h2.2v19.6H342.4z"/>
	<path class="st1" d="M369.5,87.5c0-0.2-1.3-12.9-1.3-12.9c-0.1-1.1-0.1-2-0.1-2h0c0,0-0.2,1-0.5,2c0,0-3.5,12.6-3.6,12.9h-1.5
		c-0.1-0.2-3.6-12.9-3.6-12.9c-0.3-1-0.5-2-0.5-2h-0.1c0,0,0,1-0.1,2c0,0-1.3,12.6-1.3,12.9h-2l2-17.2h2.4l3.4,12.4
		c0.3,1.1,0.4,1.9,0.4,1.9h0.1c0,0,0.1-0.8,0.4-1.9l3.5-12.4h2.4l2,17.2H369.5z"/>
	<path class="st1" d="M389.9,87.5v-9.7c0-1.3-0.6-2.6-2.6-2.6c-1.1,0-2,0.4-2.8,1.2v11.1h-2.2v-9.8c0-1.5-1-2.5-2.9-2.5
		c-1.1,0-1.7,0.1-2.4,0.5v11.8h-2.2V74.7c1.2-0.6,2.5-1,4.7-1c2.1,0,3.3,0.6,4.1,1.6c0.9-1,2.3-1.6,4.2-1.6c3.2,0,4.4,2.1,4.4,4v9.7
		H389.9z"/>
	<path class="st1" d="M413,87.5L405.7,75c-0.6-1.1-1.1-2.1-1.1-2.1h0c0,0,0.1,1,0.1,2.1v12.5h-1.9V70.3h2.4l7,12.1
		c0.6,1,1,1.8,1,1.8h0c0,0-0.1-0.8-0.1-1.9v-12h1.9v17.2H413z"/>
	<path class="st1" d="M426.3,87.5v-9.7c0-1.2-0.5-2.6-2.8-2.6c-1.2,0-1.8,0.2-2.5,0.5v11.8h-2.2V74.7c1.2-0.6,2.8-1,4.9-1
		c3.7,0,4.8,2.1,4.8,4v9.7H426.3z"/>
	<path class="st1" d="M444.7,87.8c-4.5,0-6.2-3.9-6.2-8.8c0-4.9,1.8-8.8,6.2-8.8c4.4,0,6.2,4,6.2,8.8
		C450.9,83.8,449.2,87.8,444.7,87.8z M444.7,71.6c-3.1,0-3.9,3.8-3.9,7.2c0,3.5,0.7,7.2,3.9,7.2s3.9-3.8,3.9-7.2
		C448.6,75.4,447.9,71.6,444.7,71.6z"/>
	<path class="st1" d="M458.8,87.8c-3.7,0-5.3-3-5.3-7c0-4,1.6-7,5.2-7c3.7,0,5.3,3,5.3,7C464.1,84.7,462.5,87.8,458.8,87.8z
		 M458.8,75.2c-2.6,0-3.1,2.9-3.1,5.6c0,2.7,0.5,5.4,3.1,5.4c2.6,0,3-2.8,3-5.4S461.4,75.2,458.8,75.2z"/>
	<path class="st1" d="M477.2,80.4l-0.8-0.1v7.1h-2.2V71c0.9-0.5,2.5-0.9,4.3-0.9c4,0,5.9,2.2,5.9,5.2
		C484.3,78.3,482.2,80.9,477.2,80.4z M478.3,71.4c-0.9,0-1.6,0.2-1.9,0.3V79l0.8,0.1c3.6,0.3,4.9-1.3,4.9-3.8
		C482.1,72.7,481,71.4,478.3,71.4z"/>
	<path class="st1" d="M491.4,87.7c-0.8,0-1.6-0.2-2.1-0.3v5.5h-2.2V74.7c0.9-0.5,2.3-1,4.2-1c3.8,0,5.9,2.6,5.9,6.8
		C497.3,85,494.9,87.7,491.4,87.7z M491.2,75.1c-0.8,0-1.4,0.1-1.9,0.4v10.6c0.4,0.2,1,0.3,1.6,0.3c2.7,0,4.1-2.1,4.1-5.7
		C495.1,77.2,494.1,75.1,491.2,75.1z"/>
</g>
<g class="st0">
	<path class="st1" d="M11.5,119l3,3.7l-1.7,1.5l-2.6-4.8c-0.6,0.2-1,0.2-1.6,0.2c-4.5,0-6.2-3.9-6.2-8.8s1.7-8.8,6.2-8.8
		c4.5,0,6.2,3.9,6.2,8.8C14.8,114.4,13.9,117.4,11.5,119z M8.6,103.6c-3.2,0-3.9,3.7-3.9,7.2c0,3.4,0.6,7.2,3.9,7.2
		c3.3,0,3.9-3.8,3.9-7.2C12.5,107.3,11.8,103.6,8.6,103.6z"/>
	<path class="st1" d="M25.4,124.9v-5.8c-0.6,0.4-1.6,0.6-2.7,0.6c-3.2,0-5.3-2.6-5.3-6.7c0-4.2,1.9-7.2,6.1-7.2c1.9,0,3.2,0.5,4,1
		v18.1H25.4z M25.4,107.5c-0.5-0.3-1.1-0.4-1.9-0.4c-2.7,0-3.9,2.3-3.9,5.8c0,3.4,1.1,5.4,3.7,5.4c0.9,0,1.6-0.2,2.1-0.5V107.5z"/>
	<path class="st1" d="M46.1,119.5l-5.6-8h0v8h-2.3V103c0.9-0.5,2.4-0.9,4.3-0.9c3.9,0,5.9,1.9,5.9,5.1c0,2.9-2.1,4.7-5.2,4.7v0
		l5.6,7.6H46.1z M42.4,103.4c-0.8,0-1.5,0.1-1.9,0.4v7.2c0.2,0.1,0.9,0.1,1.5,0.1c2.8,0,4.1-1.4,4.1-3.9
		C46.1,104.6,44.9,103.4,42.4,103.4z"/>
	<path class="st1" d="M56.8,107.5c-1.1-0.3-2.3-0.2-3.1,0.2v11.8h-2.2v-12.7c1.3-0.7,2.6-1,5.8-0.9L56.8,107.5z"/>
	<path class="st1" d="M69.8,119.8c-1.9,0-3.1-0.4-4-1l0.6-1.6c0.6,0.4,1.6,0.8,3,0.8c2,0,3.2-1.3,3.2-3.2c0-1.5-0.8-2.4-3-3.3
		c-2.9-1.1-3.6-2.9-3.6-4.6c0-2.6,1.8-4.8,4.8-4.8c1.6,0,2.8,0.4,3.5,0.9l-0.5,1.4c-0.6-0.4-1.6-0.8-2.7-0.8c-1.8,0-2.8,1.2-2.8,3
		c0,1.8,1.3,2.5,2.9,3.1c3.4,1.3,3.9,3.3,3.9,4.8C75,117.7,72.8,119.8,69.8,119.8z"/>
	<path class="st1" d="M80.7,119.7c-1.4,0-2.7-0.4-3.4-0.9l0.6-1.5c0.5,0.4,1.4,0.8,2.6,0.8c1.5,0,2.5-1,2.5-2.3c0-1.4-0.8-2-2.2-2.6
		c-2.6-1-3.1-2.4-3.1-3.8c0-2,1.6-3.7,4-3.7c1.4,0,2.4,0.5,3.1,0.9l-0.6,1.3c-0.4-0.3-1.2-0.8-2.2-0.8c-1.5,0-2.2,1-2.2,2.1
		c0,1.3,0.9,1.9,2.2,2.4c2.6,1,3.3,2.4,3.3,3.9C85.2,117.8,83.5,119.7,80.7,119.7z"/>
	<path class="st1" d="M99.8,103.9v15.6h-2.3v-15.6h-3.4v-1.5h9.1v1.5H99.8z"/>
	<path class="st1" d="M109.8,119.6c-2.4,0-3.3-1.8-3.3-3.4v-8.8h-1.5V106h1.5v-3.1l2.2-0.7v3.8h2.3v1.4h-2.3v8.8
		c0,1.1,0.5,1.9,1.7,1.9c0.2,0,0.4,0,0.6-0.1v1.4C110.8,119.5,110.4,119.6,109.8,119.6z"/>
	<path class="st1" d="M126.2,119.8c-3.3,0-5.3-2.2-5.3-5.2v-12.3h2.3v12.3c0,2.2,1.5,3.4,3.2,3.4c1.7,0,3.1-1.2,3.1-3.4v-12.3h2.1
		v12.3C131.5,117.5,129.5,119.8,126.2,119.8z"/>
	<path class="st1" d="M140,119.8c-3.4,0-4.8-1.7-4.8-4.4V106h2.2v9.4c0,1.6,0.8,2.8,2.7,2.8c1,0,1.8-0.2,2.4-0.5V106h2.2v12.7
		C143.8,119.3,142.2,119.8,140,119.8z"/>
	<path class="st1" d="M161.1,119.5h-2l-5.1-17.2h2.4l3.2,12.1c0.3,1.1,0.5,2.2,0.5,2.2h0.1c0,0,0.2-1.2,0.5-2.2l3.2-12.1h2.2
		L161.1,119.5z"/>
	<path class="st1" d="M173.8,119.5h-2l-4.5-13.5h2.3l2.8,9.6c0.3,0.9,0.4,1.6,0.4,1.6h0c0,0,0.1-0.7,0.3-1.6l2.9-9.6h2L173.8,119.5z
		"/>
	<path class="st1" d="M201.3,119.5h-2l-2.9-12c-0.2-1-0.4-1.9-0.4-1.9h0c0,0-0.1,0.9-0.3,1.9l-2.9,12h-2l-4-17.2h2.4l2.5,12.4
		c0.2,1,0.3,2,0.3,2h0.1c0,0,0.1-1,0.4-2l3-12.4h1.7l2.9,12.4c0.2,0.9,0.4,2,0.4,2h0c0,0,0.1-1,0.3-2l2.6-12.4h2.1L201.3,119.5z"/>
	<path class="st1" d="M220.8,119.5h-1.9l-2.7-9.6c-0.2-0.8-0.3-1.6-0.3-1.6h0c0,0-0.1,0.8-0.3,1.6l-2.8,9.6h-1.9l-3.8-13.5h2.2
		l2.3,9.7c0.2,0.9,0.3,1.6,0.3,1.6h0c0,0,0.1-0.7,0.3-1.6l2.7-9.7h1.9l2.6,9.7c0.2,0.8,0.3,1.6,0.3,1.6h0c0,0,0.1-0.8,0.3-1.6
		l2.4-9.6h2L220.8,119.5z"/>
	<path class="st1" d="M242.2,119.5l-3.3-7.1h0l-3.5,7.1H233l4.7-8.8l-4.2-8.3h2.5l2.9,6.5h0l3.3-6.5h2.1l-4.3,8.1l4.7,9.1H242.2z"/>
	<path class="st1" d="M254.1,119.5l-2.9-5.5h0l-2.9,5.5h-2.3l4.2-7l-3.7-6.5h2.3l2.6,4.9h0l2.7-4.9h2.1l-3.7,6.3l4.2,7.1H254.1z"/>
	<path class="st1" d="M271.4,111.9v7.6h-2.3v-7.6l-4.7-9.6h2.5l3.4,7.8h0.1l3.5-7.8h2.2L271.4,111.9z"/>
	<path class="st1" d="M281.9,124.9h-2.4l2.2-5.4l-4.5-13.5h2.3l2.8,9.7c0.3,0.9,0.3,1.7,0.3,1.7h0.1c0,0,0.1-0.8,0.3-1.7l2.9-9.7h2
		L281.9,124.9z"/>
	<path class="st1" d="M296.2,119.5l6.3-15.6h-5.9v-1.5h8.8l-6.2,15.6h6.4v1.5H296.2z"/>
	<path class="st1" d="M307.2,119.5l5.7-12.1h-5.2V106h8l-5.5,12.1h5.7v1.4H307.2z"/>
</g>
<g class="st0">
	<path class="st1" d="M7.8,151.5v-14.4c-0.9,0.6-2.9,1.1-4.4,1.2L3.1,137c3-0.4,4.7-1.5,5.4-2.6H10v17.2H7.8z"/>
	<path class="st1" d="M15.2,151.5l6.1-8.6c1.3-1.9,1.6-3,1.6-4.1c0-2-1.2-3.1-3.5-3.1c-1.4,0-2.3,0.3-3.1,0.7l-0.6-1.4
		c1-0.6,2.3-0.9,4.3-0.9c3.2,0,5.2,1.9,5.2,4.5c0,1.3-0.6,2.8-2.2,4.9l-4.6,6.2h7v1.8H15.2z"/>
	<path class="st1" d="M32.9,151.8c-2.1,0-3.4-0.3-4.4-0.9l0.6-1.5c0.7,0.4,1.9,0.8,3.3,0.8c2.3,0,3.8-1.3,3.8-3.6
		c0-3.3-3.1-3.7-4.9-3.6v-1.2c2.6-0.2,4.3-1.5,4.3-3.4c0-1.9-1.4-2.5-2.9-2.5c-1.3,0-2.5,0.3-3.2,0.7l-0.6-1.4
		c0.8-0.5,2.2-0.9,4.1-0.9c2.6,0,4.8,1.4,4.8,3.9c0,2.3-2.1,3.5-3.2,3.9v0c1.8,0.5,3.9,1.7,3.9,4.6
		C38.6,149.7,36.2,151.8,32.9,151.8z"/>
	<path class="st1" d="M51,147.6v3.9h-2v-3.9h-7v-1.4l6.9-11.8H51v12h1.4v1.3H51z M49,136.6c0,0-0.5,1.1-1.3,2.4l-4.2,7.3H49v-7.2
		C49,137.7,49,136.6,49,136.6L49,136.6z"/>
	<path class="st1" d="M59.5,151.8c-1.9,0-3.3-0.3-4.3-0.9l0.6-1.5c0.7,0.4,1.9,0.8,3.4,0.8c1.8,0,3.7-1.2,3.7-3.6
		c0-2.6-1.7-4.5-6.9-3.7l0.7-8.5h8v1.8h-6.4l-0.4,5.3c4.9-0.5,7.3,1.8,7.3,5.1C65.2,149.4,62.9,151.8,59.5,151.8z"/>
	<path class="st1" d="M73.7,151.8c-3.5,0-5.2-2.6-5.2-6.5c0-7.7,6.1-10.5,8.3-11.1l0.6,1.5c-2,0.7-5,2.1-6.4,6
		c0.7-0.3,1.5-0.5,2.4-0.5c3,0,5.5,1.6,5.5,5.2C78.8,149.2,77.1,151.8,73.7,151.8z M73,142.5c-1.1,0-1.8,0.2-2.3,0.5
		c-0.2,0.9-0.2,1.5-0.2,2.4c0,2.9,1,4.9,3.2,4.9c2.1,0,3-1.9,3-3.9C76.7,143.8,75.5,142.5,73,142.5z"/>
	<path class="st1" d="M90.1,139.7c-1.9,4.4-3.7,9.4-4.3,11.8H83l6.7-15.4h-8v-1.8h10.6L90.1,139.7z"/>
	<path class="st1" d="M100,151.8c-2.7,0-5.2-1.5-5.2-4.3c0-2,1-3.3,3.8-4.9c-2.3-1.4-3.2-2.6-3.2-4.4c0-2.4,2.1-4.1,4.7-4.1
		c2.5,0,4.7,1.6,4.7,4.1c0,1.8-0.9,3-3.2,4.3c2.7,1.6,3.8,3,3.8,5C105.2,150,103,151.8,100,151.8z M99.9,143.3
		c-2.6,1.5-3.2,2.5-3.2,4.1c0,1.8,1.5,2.9,3.2,2.9c1.8,0,3.2-1.2,3.2-2.9C103.2,145.8,102.6,144.8,99.9,143.3z M100,135.4
		c-1.7,0-2.8,1.1-2.8,2.7c0,1.5,0.7,2.3,2.8,3.6c2.2-1.2,2.8-2.1,2.8-3.6C102.8,136.6,101.7,135.4,100,135.4z"/>
	<path class="st1" d="M110,151.8l-0.6-1.4c2-0.7,5-2.2,6.4-6.1c-0.7,0.3-1.5,0.5-2.4,0.5c-3,0-5.5-1.6-5.5-5.2
		c0-2.8,1.7-5.3,5.2-5.3c3.5,0,5.2,2.6,5.2,6.5C118.3,148.4,112.2,151.2,110,151.8z M113,135.6c-2.2,0-3,1.9-3,3.9
		c0,2.5,1.2,3.9,3.7,3.9c1.1,0,1.8-0.2,2.3-0.5c0.1-0.8,0.2-1.5,0.2-2.4C116.3,137.6,115.3,135.6,113,135.6z"/>
	<path class="st1" d="M126.4,151.8c-4.2,0-5.2-5-5.2-8.8c0-3.8,1-8.8,5.2-8.8c4.2,0,5.2,5,5.2,8.8
		C131.6,146.8,130.6,151.8,126.4,151.8z M126.4,135.4c-2.7,0-3.1,4.4-3.1,7.5c0,3.1,0.4,7.4,3.1,7.4c2.7,0,3.1-4.3,3.1-7.4
		S129.1,135.4,126.4,135.4z"/>
	<path class="st1" d="M147,157.1c-3.8-4.6-5.4-8.5-5.4-12.8s1.7-8.1,5.4-12.8l1.1,0.6c-2.5,3.5-4.1,7.6-4.1,12.1
		c0,4.5,1.6,8.6,4.1,12.1L147,157.1z"/>
	<path class="st1" d="M150.6,155.7h-1.3l2.1-6.2c0.3-0.4,0.8-0.6,1.5-0.6c0.6,0,0.9,0.3,0.9,0.6L150.6,155.7z"/>
	<path class="st1" d="M158.6,151.6c-0.8,0-1.4-0.6-1.4-1.4s0.6-1.4,1.4-1.4s1.4,0.6,1.4,1.4S159.4,151.6,158.6,151.6z"/>
	<path class="st1" d="M163.4,155.7h-1.3l2.1-6.2c0.3-0.4,0.8-0.7,1.4-0.7c0.6,0,0.9,0.3,1,0.7L163.4,155.7z M165.2,143.9
		c-0.8,0-1.4-0.6-1.4-1.4s0.6-1.5,1.4-1.5c0.8,0,1.4,0.7,1.4,1.5S166,143.9,165.2,143.9z"/>
	<path class="st1" d="M171.4,143.9c-0.8,0-1.4-0.6-1.4-1.4s0.6-1.5,1.4-1.5s1.4,0.7,1.4,1.5S172.2,143.9,171.4,143.9z M171.4,151.6
		c-0.8,0-1.4-0.6-1.4-1.4s0.6-1.4,1.4-1.4s1.4,0.6,1.4,1.4S172.2,151.6,171.4,151.6z"/>
	<path class="st1" d="M189.1,149.9c-1.1,0-1.7-0.6-1.8-2.3c-1,1.6-2.2,2.3-3.9,2.3c-2,0-2.9-1.8-2.9-3.9c0-2.6,1.8-6.8,5-6.8
		c1.6,0,2.5,1,2.9,2.3l0.4-1.9h1.2l-0.8,3.9c-0.3,1.2-0.6,2.6-0.6,3.7c0,1.2,0.3,1.7,1,1.7c2.1,0,4-4.7,4-7.7c0-3.9-2.5-6.3-6.2-6.3
		c-5.8,0-10,5.4-10,11.1c0,5.2,3.3,8,8.2,8c3.8,0,6-1.3,8.2-3.7l0.5,0.7c-2.3,2.5-4.8,3.9-8.8,3.9c-5.5,0-9.3-3.2-9.3-8.9
		c0-6.4,5-11.9,11.2-11.9c4.2,0,7.2,2.7,7.2,7.1C194.6,144.4,192.7,149.9,189.1,149.9z M185.7,140.1c-2.6,0-3.8,3.8-3.8,5.8
		c0,1.5,0.7,2.9,2.2,2.9c2.5,0,3.8-3.7,3.8-5.7C188,141.1,186.8,140.1,185.7,140.1z"/>
	<path class="st1" d="M202.2,142.2l-0.3,3.6h-1.6l-0.4-4.3c1.5-0.3,3.6-1.4,3.6-3.2c0-1.5-0.9-2.6-2.9-2.6c-1.2,0-2,0.3-2.6,0.7
		l-0.6-1.3c0.8-0.5,2.1-0.9,3.6-0.9c3,0,4.8,1.6,4.8,4C205.8,140.4,203.6,141.8,202.2,142.2z M201.1,151.6c-0.8,0-1.4-0.6-1.4-1.4
		s0.6-1.5,1.4-1.5c0.8,0,1.4,0.7,1.4,1.5S201.9,151.6,201.1,151.6z"/>
	<path class="st1" d="M210.1,151.6c-0.8,0-1.4-0.6-1.4-1.4c0-0.8,0.6-1.4,1.4-1.4c0.8,0,1.4,0.6,1.4,1.4
		C211.5,151,210.9,151.6,210.1,151.6z M210.9,145.9h-1.6l-0.5-11.5h2.6L210.9,145.9z"/>
	<path class="st1" d="M215.1,151.5c1.4-1.7,2.4-3.8,2.4-5.9c0-0.9-0.1-1.4-0.3-2.3h-2.4V142h2c-0.3-1-0.6-2.2-0.6-3.4
		c0-2.5,1.9-4.5,5.1-4.5c1.7,0,3,0.5,3.6,0.9l-0.6,1.4c-0.5-0.3-1.5-0.7-2.7-0.7c-2.3,0-3.3,1.5-3.3,3.5c0,0.9,0.1,1.7,0.4,2.8h3.4
		v1.3h-3.1c0.2,0.9,0.2,1.5,0.2,2.3c0,1.6-0.9,3.6-1.3,4.1h7.2v1.8H215.1z"/>
	<path class="st1" d="M238.9,141.3v9.5c-0.9,0.6-2.5,1-4.6,1c-3.8,0-6.3-1.8-6.3-4.9c0-2.5,1.8-4.3,4.5-5.1v0
		c-2.1-0.6-3.4-1.9-3.4-3.8c0-2.2,1.8-3.9,4.7-3.9c1.4,0,2.8,0.4,3.5,0.9l-0.6,1.3c-0.6-0.3-1.5-0.7-2.5-0.7c-2,0-2.9,1-2.9,2.5
		c0,1.7,1.5,2.7,3.3,2.7c2.2,0,4.7-1,6.5-1.9l0.6,1.4C241,140.6,239.8,141,238.9,141.3z M236.7,141.7c-4.4,1-6.4,2.2-6.4,5
		c0,2.2,1.4,3.6,4.1,3.6c1,0,1.8-0.1,2.3-0.4V141.7z"/>
	<path class="st1" d="M244.4,135.7c-0.6,0-1-0.5-1-1c0-0.6,0.5-1.1,1-1.1c0.6,0,1,0.5,1,1.1C245.5,135.2,245,135.7,244.4,135.7z
		 M245.4,139.1c-0.6,0-1-0.5-1-1c0-0.6,0.5-1.1,1-1.1s1,0.5,1,1.1C246.5,138.6,246,139.1,245.4,139.1z M247.4,133.6
		c-0.6,0-1-0.5-1-1c0-0.6,0.5-1.1,1-1.1c0.6,0,1,0.5,1,1.1C248.4,133.1,247.9,133.6,247.4,133.6z M247.4,136.5
		c-0.5,0-0.9-0.4-0.9-0.9c0-0.5,0.4-0.9,0.9-0.9c0.5,0,0.9,0.4,0.9,0.9C248.3,136.1,247.9,136.5,247.4,136.5z M249.3,139.1
		c-0.6,0-1-0.5-1-1s0.5-1,1-1s1,0.5,1,1C250.3,138.6,249.9,139.1,249.3,139.1z M250.3,135.7c-0.6,0-1-0.5-1-1s0.5-1,1-1
		c0.6,0,1,0.5,1,1S250.9,135.7,250.3,135.7z"/>
	<path class="st1" d="M257.7,145.8c-2.8,0-3.4-3.2-3.4-5.9c0-2.6,0.5-5.9,3.4-5.9c2.8,0,3.3,3.2,3.3,5.9
		C261.1,142.6,260.5,145.8,257.7,145.8z M257.7,135c-1.7,0-1.9,2.8-1.9,4.9c0,2,0.1,4.8,1.9,4.8c1.7,0,1.8-2.8,1.8-4.8
		C259.6,137.8,259.4,135,257.7,135z M260.9,151.7l-1.1-0.4l5.8-17.2l1.1,0.3L260.9,151.7z M268.9,151.8c-2.8,0-3.4-3.2-3.3-5.9
		c0-2.6,0.5-5.8,3.3-5.8s3.4,3.2,3.4,5.8C272.3,148.6,271.7,151.8,268.9,151.8z M268.9,141c-1.7,0-1.9,2.8-1.8,4.8
		c0,2,0.1,4.8,1.8,4.8c1.7,0,1.9-2.8,1.9-4.8C270.8,143.8,270.6,141,268.9,141z"/>
	<path class="st1" d="M275.9,157.1l-1.1-0.6c2.5-3.5,4.1-7.6,4.1-12.1c0-4.5-1.6-8.6-4.1-12.1l1.1-0.6c3.8,4.6,5.4,8.5,5.4,12.8
		S279.7,152.5,275.9,157.1z"/>
</g>
<g class="st0">
	<path class="st1" d="M7.6,223.8c-2.1,0-3.8-0.4-4.9-1V207c1.1-0.6,2.7-1,4.7-1c5.2,0,7.4,3.6,7.4,8.7
		C14.9,219.9,12.8,223.8,7.6,223.8z M7.5,208.1c-0.7,0-1.2,0.1-1.6,0.2v12.9c0.4,0.1,1,0.2,1.7,0.2c2.9,0,4.1-2.1,4.1-6.8
		C11.7,210.3,10.4,208.1,7.5,208.1z"/>
	<path class="st1" d="M22.6,223.8c-3.7,0-5.5-1.5-5.5-4.1c0-3.5,3.4-4.6,7.5-5V214c0-1.7-1.1-2.2-2.7-2.2c-1.3,0-2.5,0.4-3.4,0.8
		l-0.7-1.8c0.9-0.4,2.5-1,4.6-1c2.8,0,5,1.2,5,4.6v8.3C26.4,223.3,24.7,223.8,22.6,223.8z M24.6,216.1c-2.9,0.3-4.6,1-4.6,3.4
		c0,1.8,1,2.5,2.8,2.5c0.7,0,1.4-0.2,1.8-0.4V216.1z"/>
	<path class="st1" d="M37.6,223.5l-2.5-4.9h0l-2.6,4.9h-3.1l4.2-7l-3.7-6.5H33l2.3,4.4h0.1l2.4-4.4h2.9l-3.8,6.3l4.2,7.2H37.6z"/>
	<path class="st1" d="M63.7,223.5c0-0.4-1.1-11.4-1.1-11.4c-0.1-1.1-0.1-2.1-0.1-2.1h0c0,0-0.2,1-0.5,2.1c0,0-3.1,10.8-3.3,11.4
		h-1.8c-0.2-0.5-3.2-11.4-3.2-11.4c-0.3-1.1-0.5-2-0.5-2h-0.1c0,0,0,1-0.1,2c0,0-1.1,10.9-1.1,11.4h-2.7l1.9-17.2h3.2l3.1,11
		c0.3,1.1,0.4,1.9,0.4,1.9H58c0,0,0.1-0.8,0.4-1.9l3.2-11h3.2l1.9,17.2H63.7z"/>
	<path class="st1" d="M71.9,217.9c0.2,2.5,1.5,3.8,3.7,3.8c1.5,0,2.7-0.4,3.4-0.7l0.7,1.9c-0.9,0.5-2.4,1-4.4,1
		c-3.8,0-6.2-2.5-6.2-7c0-4.4,2.2-6.9,5.7-6.9c3.5,0,5.4,2.3,5.4,6.5v0.4L71.9,217.9z M74.6,211.7c-1.8,0-3,1.4-2.9,4.7l5.6-0.9
		C77.3,212.8,76.3,211.7,74.6,211.7z"/>
	<path class="st1" d="M88.7,223.8c-4,0-6.3-2.5-6.3-6.8c0-4.4,2.4-7,5.9-7c0.7,0,1.4,0.1,2,0.2v-6.3h3v18.9
		C92.3,223.4,90.8,223.8,88.7,223.8z M90.3,211.8c-0.4-0.1-0.9-0.2-1.3-0.2c-2.6,0-3.5,2.3-3.5,5.1c0,3,1,5,3.3,5
		c0.7,0,1.2-0.1,1.6-0.3V211.8z"/>
	<path class="st1" d="M98.3,207.7c-0.9,0-1.7-0.7-1.7-1.5c0-0.8,0.7-1.5,1.7-1.5c1,0,1.7,0.7,1.7,1.5
		C99.9,207,99.2,207.7,98.3,207.7z M96.7,223.5V210h3v13.5H96.7z"/>
	<path class="st1" d="M108.4,223.8c-3.6,0-5.2-1.6-5.2-4.5V210h3v9.4c0,1.3,0.7,2.3,2.3,2.3c0.9,0,1.5-0.2,2-0.5V210h3v12.7
		C112.4,223.3,110.7,223.8,108.4,223.8z"/>
	<path class="st1" d="M131.9,223.5v-9.6c0-1.2-0.6-2.2-2.3-2.2c-0.9,0-1.6,0.3-2.2,0.9v10.8h-3v-9.6c0-1.3-0.9-2.1-2.5-2.1
		c-0.9,0-1.4,0.1-2,0.4v11.4h-3v-12.7c1.3-0.6,2.8-1,5-1c2.2,0,3.4,0.6,4.2,1.5c0.9-0.8,2.3-1.5,4.3-1.5c3.2,0,4.6,2,4.6,4.1v9.6
		H131.9z"/>
</g>
<g class="st0">
	<path class="st1" d="M12.4,279.5l-1.3-4.4H5.5l-1.4,4.4H1.3L7,262.3h3l5.7,17.2H12.4z M8.8,267.2c-0.4-1.3-0.4-2.1-0.4-2.1H8.3
		c0,0-0.1,0.8-0.5,2.1l-1.8,6h4.6L8.8,267.2z"/>
	<path class="st1" d="M22.9,279.8c-3.7,0-5.5-1.5-5.5-4.1c0-3.5,3.4-4.6,7.5-5V270c0-1.7-1.1-2.2-2.7-2.2c-1.3,0-2.5,0.4-3.4,0.8
		l-0.7-1.8c0.9-0.4,2.5-1,4.6-1c2.8,0,5,1.2,5,4.6v8.3C26.7,279.3,25,279.8,22.9,279.8z M24.9,272.1c-2.9,0.3-4.6,1-4.6,3.4
		c0,1.8,1,2.5,2.8,2.5c0.7,0,1.4-0.2,1.8-0.4V272.1z"/>
	<path class="st1" d="M43.1,279.8c-2.2,0-3.9-0.3-5.1-1V263c1-0.6,2.8-1,4.9-1c4.1,0,6.2,1.9,6.2,4.4c0,2.3-1.8,3.6-3.2,3.9v0
		c1.6,0.3,3.8,1.8,3.8,4.3C49.7,278.2,47,279.8,43.1,279.8z M42.9,263.9c-0.8,0-1.3,0.1-1.9,0.3v5.6l1,0c3,0.1,4.1-1,4.1-3
		C46,264.8,45,263.9,42.9,263.9z M42,271.3l-1,0v6.2c0.5,0.2,1.1,0.3,2,0.3c2,0,3.5-0.8,3.5-3C46.5,272.4,45.2,271.2,42,271.3z"/>
	<path class="st1" d="M56.8,279.8c-2.1,0-3.6-0.4-4.4-1v-18.9h3v6.5c0.6-0.3,1.4-0.5,2.6-0.5c3.1,0,5.3,2.6,5.3,6.6
		C63.3,277,61,279.8,56.8,279.8z M57.2,267.6c-0.8,0-1.3,0.1-1.8,0.4v9.6c0.4,0.2,1,0.3,1.5,0.3c2.4,0,3.4-2,3.4-5.2
		C60.3,269.8,59.5,267.6,57.2,267.6z"/>
	<path class="st1" d="M79.1,279.8c-4.4,0-6.6-4.1-6.6-8.8c0-4.7,2.2-8.8,6.6-8.8c1.6,0,2.7,0.4,3.5,1l-0.7,1.9
		c-0.5-0.3-1.2-0.6-2.2-0.6c-2.9,0-3.9,3.2-3.9,6.5c0,3.3,1.1,6.4,3.9,6.4c1,0,1.6-0.2,2.2-0.6l0.7,2
		C81.9,279.4,80.6,279.8,79.1,279.8z"/>
	<path class="st1" d="M89.8,279.8c-3.1,0-5.3-2.6-5.3-7c0-4.5,2.3-6.9,5.3-6.9c1.6,0,2.6,0.5,3.1,0.9l-0.6,1.7
		c-0.4-0.3-0.9-0.6-1.8-0.6c-2.1,0-2.9,1.9-2.9,4.8c0,3,1,4.9,2.9,4.9c0.8,0,1.4-0.2,1.8-0.6l0.7,1.9
		C92.5,279.3,91.5,279.8,89.8,279.8z"/>
	<path class="st1" d="M107.2,279.8c-2.1,0-3.8-0.4-4.9-1V263c1.1-0.6,2.7-1,4.7-1c5.2,0,7.4,3.6,7.4,8.7
		C114.5,275.9,112.4,279.8,107.2,279.8z M107.1,264.1c-0.7,0-1.2,0.1-1.6,0.2v12.9c0.4,0.1,1,0.2,1.7,0.2c2.9,0,4.1-2.1,4.1-6.8
		C111.3,266.3,110,264.1,107.1,264.1z"/>
	<path class="st1" d="M123.1,279.8c-4,0-6.3-2.5-6.3-6.8c0-4.4,2.4-7,5.9-7c0.7,0,1.4,0.1,2,0.2v-6.3h3v18.9
		C126.8,279.4,125.2,279.8,123.1,279.8z M124.8,267.8c-0.4-0.1-0.9-0.2-1.3-0.2c-2.6,0-3.5,2.3-3.5,5.1c0,3,1,5,3.3,5
		c0.7,0,1.2-0.1,1.6-0.3V267.8z"/>
	<path class="st1" d="M138,279.5v-17.2h8.4v2.1h-5.2v5.2h4.6v2.1h-4.6v5.6h5.2v2.1H138z"/>
	<path class="st1" d="M151.3,273.9c0.2,2.5,1.5,3.8,3.7,3.8c1.5,0,2.7-0.4,3.4-0.7l0.7,1.9c-0.9,0.5-2.4,1-4.4,1
		c-3.8,0-6.2-2.5-6.2-7c0-4.4,2.2-6.9,5.7-6.9c3.5,0,5.4,2.3,5.4,6.5v0.4L151.3,273.9z M154,267.7c-1.8,0-3,1.4-2.9,4.7l5.6-0.9
		C156.7,268.8,155.7,267.7,154,267.7z"/>
	<path class="st1" d="M172.4,264.4v5.2h4.6v2.1h-4.6v7.8h-3.2v-17.2h8.3v2.1H172.4z"/>
	<path class="st1" d="M184,268v11.5h-3V268h-1.5V266h1.5v-1.6c0-3,2-4.8,5.2-4.5v1.9c-1.3,0-2.2,0.5-2.2,2.3v1.9h2.2v1.9H184z"/>
	<path class="st1" d="M202.4,279.8c-4.6,0-7.5-3.2-7.5-8.9c0-5.5,3.1-8.7,7.6-8.7c1.9,0,3.3,0.4,4.3,0.9l-0.9,1.9
		c-0.5-0.3-1.5-0.6-3-0.6c-3,0-4.7,2-4.7,6.6c0,4.3,1.8,6.6,4.1,6.6c0.9,0,1.4-0.2,1.7-0.3v-5.6h-2.5v-2h5.5v9.1
		C205.9,279.4,204.7,279.8,202.4,279.8z"/>
	<path class="st1" d="M215.1,285.1c-1.9,0-3.6-0.4-4.6-0.9l0.9-2c0.8,0.4,2,0.8,3.2,0.8c2.2,0,3.1-1.2,3.1-3v-0.8
		c-0.5,0.3-1.4,0.5-2.5,0.5c-3.2,0-5.4-2.5-5.4-6.6c0-4.4,2.2-7.3,6.5-7.3c2,0,3.5,0.4,4.4,1v12.9
		C220.7,283.3,218.5,285.1,215.1,285.1z M217.7,267.9c-0.4-0.2-0.9-0.3-1.6-0.3c-2.4,0-3.3,1.9-3.3,5.3c0,3.3,0.9,4.9,3.2,4.9
		c0.7,0,1.3-0.2,1.7-0.4V267.9z"/>
	<path class="st1" d="M239.5,279.5v-7.8H234v7.8h-3.2v-17.2h3.2v7.3h5.4v-7.3h3.2v17.2H239.5z"/>
	<path class="st1" d="M253.6,279.5V270c0-1.2-0.5-2.3-2.4-2.3c-0.8,0-1.5,0.1-2.1,0.5v11.2h-3v-19.6h3v6.7c1-0.5,2-0.7,3-0.7
		c3.4,0,4.6,2,4.6,4.1v9.5H253.6z"/>
	<path class="st1" d="M266.9,279.5v-17.2h3.2v17.2H266.9z"/>
	<path class="st1" d="M275.2,263.7c-0.9,0-1.7-0.7-1.7-1.5c0-0.8,0.7-1.5,1.7-1.5c0.9,0,1.7,0.7,1.7,1.5
		C276.9,263,276.1,263.7,275.2,263.7z M273.7,279.5V266h3v13.5H273.7z"/>
	<path class="st1" d="M284.2,285v-2.2c1.6-0.4,2.8-1.7,2.8-3.9v-16.5h3.2v16.3C290.3,282.6,287.6,284.7,284.2,285z"/>
	<path class="st1" d="M291.5,285.1v-2c1.5-0.5,2.3-1.6,2.3-4.4V266h3v12.3C296.9,282.5,294.5,284.9,291.5,285.1z M295.4,263.7
		c-0.9,0-1.7-0.7-1.7-1.5c0-0.8,0.7-1.5,1.7-1.5s1.7,0.7,1.7,1.5C297.1,263,296.3,263.7,295.4,263.7z"/>
	<path class="st1" d="M315.4,279.5l-4.9-8.7h0v8.7h-3.2v-17.2h3.2v7.8h0l4.9-7.8h3.2l-5.4,7.9l5.7,9.2H315.4z"/>
	<path class="st1" d="M328.6,279.5l-4.5-6.9h0v6.9h-3v-19.6h3v12.2h0l4.3-6.1h3.1l-4.6,6.2l5.2,7.3H328.6z"/>
	<path class="st1" d="M340.7,279.5v-17.2h3.2v15.1h4.7v2.1H340.7z"/>
	<path class="st1" d="M351.2,279.5v-19.6h3v19.6H351.2z"/>
	<path class="st1" d="M378.4,279.5c0-0.4-1.1-11.4-1.1-11.4c-0.1-1.1-0.1-2.1-0.1-2.1h-0.1c0,0-0.2,1-0.5,2.1c0,0-3.1,10.8-3.3,11.4
		h-1.8c-0.2-0.5-3.2-11.4-3.2-11.4c-0.3-1.1-0.5-2-0.5-2h0c0,0,0,1-0.1,2c0,0-1.1,10.9-1.1,11.4h-2.7l1.9-17.2h3.2l3.1,11
		c0.3,1.1,0.5,1.9,0.5,1.9h0c0,0,0.1-0.8,0.5-1.9l3.2-11h3.2l1.9,17.2H378.4z"/>
	<path class="st1" d="M399.3,279.5v-9.6c0-1.2-0.6-2.2-2.3-2.2c-0.9,0-1.6,0.3-2.2,0.9v10.8h-3v-9.6c0-1.3-0.9-2.1-2.5-2.1
		c-0.9,0-1.4,0.1-2,0.4v11.4h-3v-12.7c1.3-0.6,2.8-1,5-1c2.2,0,3.4,0.6,4.2,1.5c0.9-0.8,2.3-1.5,4.3-1.5c3.2,0,4.6,2,4.6,4.1v9.6
		H399.3z"/>
	<path class="st1" d="M422.7,279.5l-6.5-11.1c-0.6-1-1-1.9-1-1.9h0c0,0,0.1,1,0.1,2v11h-2.7v-17.2h3l6.1,10.4c0.6,1,0.9,1.7,0.9,1.7
		h0.1c0,0-0.1-0.8-0.1-1.8v-10.4h2.6v17.2H422.7z"/>
	<path class="st1" d="M436.2,279.5V270c0-1.1-0.5-2.2-2.4-2.2c-1,0-1.5,0.1-2.1,0.4v11.4h-3v-12.7c1.3-0.6,3-1,5.3-1
		c4,0,5.3,1.9,5.3,4.1v9.6H436.2z"/>
	<path class="st1" d="M455.4,279.8c-4.6,0-6.5-3.9-6.5-8.8c0-4.9,1.8-8.8,6.5-8.8s6.4,4,6.4,8.8C461.9,275.8,460,279.8,455.4,279.8z
		 M455.4,264.2c-2.6,0-3.2,3.4-3.2,6.6c0,3.2,0.5,6.6,3.2,6.6s3.2-3.4,3.2-6.6C458.6,267.6,458.1,264.2,455.4,264.2z"/>
	<path class="st1" d="M469.8,279.8c-3.8,0-5.6-3-5.6-7c0-4,1.8-7,5.6-7c3.8,0,5.6,3,5.6,7C475.4,276.8,473.6,279.8,469.8,279.8z
		 M469.8,267.7c-2.1,0-2.6,2.5-2.6,5c0,2.5,0.5,4.9,2.6,4.9c2.2,0,2.6-2.4,2.6-4.9C472.4,270.2,472,267.7,469.8,267.7z"/>
	<path class="st1" d="M488.9,272.8l-0.7-0.1v6.8h-3.1V263c1.1-0.6,2.8-1,4.7-1c4.4,0,6.3,2.3,6.3,5.3
		C496.1,270.5,494,273.1,488.9,272.8z M489.8,263.9c-0.8,0-1.3,0.1-1.6,0.3v6.7l0.6,0c3.1,0.2,4.2-1.1,4.2-3.5
		C493.1,265.1,492.2,263.9,489.8,263.9z"/>
	<path class="st1" d="M503.7,279.7c-0.8,0-1.6-0.1-2-0.3v5.5h-3v-18.1c1-0.5,2.5-1,4.7-1c3.9,0,6.3,2.5,6.3,6.8
		C509.7,277,507.3,279.7,503.7,279.7z M503.3,267.6c-0.7,0-1.1,0.1-1.6,0.3v9.7c0.4,0.2,0.8,0.2,1.4,0.2c2.4,0,3.6-1.9,3.6-5.1
		C506.6,269.5,505.8,267.6,503.3,267.6z"/>
</g>
<g class="st0">
	<path class="st1" d="M12,310.8l2.8,3.5l-2.3,2.1l-2.4-4.9c-0.5,0.1-0.9,0.2-1.4,0.2c-4.6,0-6.5-3.9-6.5-8.8c0-4.8,1.8-8.8,6.5-8.8
		c4.6,0,6.4,4,6.4,8.8C15.1,306.3,14.3,309.2,12,310.8z M8.7,296.2c-2.7,0-3.2,3.4-3.2,6.6c0,3.2,0.5,6.6,3.2,6.6
		c2.7,0,3.2-3.4,3.2-6.6C11.9,299.6,11.4,296.2,8.7,296.2z"/>
	<path class="st1" d="M25.4,316.9v-5.7c-0.6,0.3-1.5,0.5-2.6,0.5c-3.2,0-5.4-2.5-5.4-6.6c0-4.2,1.9-7.3,6.5-7.3c2,0,3.5,0.5,4.4,1
		v18.1H25.4z M25.4,299.9c-0.4-0.2-0.9-0.3-1.6-0.3c-2.3,0-3.3,1.9-3.3,5.3c0,3.1,0.9,4.9,3.2,4.9c0.7,0,1.3-0.2,1.7-0.4V299.9z"/>
	<path class="st1" d="M46.8,311.5l-4.9-7.8h-0.1v7.8h-3.1V295c1.1-0.5,2.7-1,4.7-1c4.3,0,6.3,2,6.3,5.2c0,2.6-1.9,4.4-4.6,4.5v0
		l5.1,7.6H46.8z M43.4,295.9c-0.7,0-1.2,0.1-1.6,0.3v6.7c0.2,0.1,0.7,0.1,1.2,0.1c2.4,0,3.6-1.3,3.6-3.6
		C46.7,297,45.7,295.9,43.4,295.9z"/>
	<path class="st1" d="M58.6,300c-1-0.3-2.1-0.3-2.8,0.1v11.4h-3v-12.7c1.4-0.7,3.1-1,6.5-0.9L58.6,300z"/>
	<path class="st1" d="M71.5,311.8c-2,0-3.3-0.4-4.2-1l0.8-2.2c0.6,0.4,1.6,0.8,2.9,0.8c1.7,0,2.7-1,2.7-2.6c0-1.3-0.8-2.1-2.7-2.9
		c-2.8-1.2-3.5-3-3.5-4.7c0-2.7,2-5,5.1-5c1.7,0,3,0.4,3.8,1l-0.7,1.9c-0.6-0.4-1.5-0.8-2.6-0.8c-1.6,0-2.5,1-2.5,2.5
		c0,1.5,1.1,2.2,2.6,2.8c3.4,1.4,3.9,3.3,3.9,5C77,309.6,74.7,311.8,71.5,311.8z"/>
	<path class="st1" d="M82.7,311.7c-1.6,0-2.9-0.4-3.7-1l0.8-1.9c0.5,0.4,1.4,0.8,2.5,0.8c1.2,0,2.1-0.8,2.1-1.9c0-1.1-0.6-1.7-2-2.2
		c-2.5-1-3.1-2.4-3.1-3.8c0-2.1,1.7-3.9,4.3-3.9c1.5,0,2.6,0.4,3.5,1l-0.8,1.8c-0.4-0.3-1.2-0.8-2.1-0.8c-1.2,0-1.9,0.8-1.9,1.8
		c0,1.1,0.8,1.6,2,2.1c2.6,1,3.2,2.4,3.2,4C87.5,309.8,85.7,311.7,82.7,311.7z"/>
	<path class="st1" d="M102.5,296.4v15.1h-3.2v-15.1h-3.2v-2.1h9.6v2.1H102.5z"/>
	<path class="st1" d="M112.6,311.7c-2.6,0-3.7-1.8-3.7-3.6v-8h-1.5V298h1.5v-3l3-0.8v3.8h2.2v1.9h-2.2v7.9c0,1,0.4,1.8,1.5,1.8
		c0.3,0,0.5,0,0.7-0.1v1.9C113.9,311.5,113.3,311.7,112.6,311.7z"/>
	<path class="st1" d="M129.3,311.8c-3.4,0-5.7-2.2-5.7-5.3v-12.2h3.2v12.2c0,1.8,1.2,2.8,2.6,2.8c1.4,0,2.6-1,2.6-2.8v-12.2h2.9
		v12.2C135,309.6,132.7,311.8,129.3,311.8z"/>
	<path class="st1" d="M143.6,311.8c-3.6,0-5.2-1.6-5.2-4.5V298h3v9.4c0,1.3,0.7,2.3,2.3,2.3c0.9,0,1.5-0.2,2-0.5V298h3v12.7
		C147.7,311.3,146,311.8,143.6,311.8z"/>
	<path class="st1" d="M165.5,311.5h-2.7l-5.2-17.2h3.4l2.8,11c0.2,1,0.4,2.2,0.4,2.2h0.1c0,0,0.2-1.2,0.4-2.2l2.8-11h3L165.5,311.5z
		"/>
	<path class="st1" d="M178.8,311.5h-2.9l-4.4-13.5h3.2l2.4,8.7c0.3,1,0.3,1.8,0.3,1.8h0c0,0,0.1-0.9,0.4-1.8l2.4-8.7h2.8
		L178.8,311.5z"/>
	<path class="st1" d="M206.5,311.5h-2.8l-2.6-10.5c-0.2-1-0.3-1.9-0.3-1.9h0c0,0-0.1,0.9-0.3,1.9l-2.5,10.5H195l-3.9-17.2h3.2
		l2.1,11.2c0.2,1,0.3,1.9,0.3,1.9h0.1c0,0,0.1-1,0.3-1.9l2.6-11.2h2.3l2.6,11.2c0.2,0.9,0.3,1.9,0.3,1.9h0.1c0,0,0.1-1,0.3-1.9
		l2.2-11.2h2.9L206.5,311.5z"/>
	<path class="st1" d="M226.4,311.5h-2.7l-2.3-8.4c-0.2-0.9-0.3-1.7-0.3-1.7h0c0,0,0,0.9-0.3,1.7l-2.4,8.4h-2.7l-3.7-13.5h3.1l2,8.7
		c0.2,1,0.2,1.8,0.2,1.8h0c0,0,0.1-0.7,0.4-1.8l2.4-8.7h2.5l2.3,8.7c0.2,0.8,0.3,1.8,0.3,1.8h0.1c0,0,0.1-0.9,0.3-1.8l2.1-8.7h2.7
		L226.4,311.5z"/>
	<path class="st1" d="M247.1,311.5l-2.9-6.3h0l-3,6.3h-3.2l4.6-8.8l-4.2-8.4h3.4l2.5,5.8h0l2.8-5.8h3l-4.3,8l4.7,9.2H247.1z"/>
	<path class="st1" d="M259.7,311.5l-2.5-4.9h0l-2.6,4.9h-3.1l4.2-7l-3.7-6.5h3.2l2.3,4.4h0.1l2.4-4.4h2.9l-3.8,6.3l4.2,7.2H259.7z"
		/>
	<path class="st1" d="M278.2,304.1v7.4h-3.2v-7.4l-4.6-9.8h3.4l2.9,7.1h0.1l3.1-7.1h3L278.2,304.1z"/>
	<path class="st1" d="M289.1,316.9h-3.2l2.2-5.4l-4.4-13.5h3.2l2.3,8.7c0.3,1,0.3,1.9,0.3,1.9h0.1c0,0,0.1-0.9,0.4-1.9l2.5-8.7h2.8
		L289.1,316.9z"/>
	<path class="st1" d="M303,311.5l5.8-15.1h-5.4v-2.1h9.3l-5.7,15.1h5.8v2.1H303z"/>
	<path class="st1" d="M314.5,311.5l5.1-11.5h-4.7V298h8.5l-4.9,11.5h5.1v1.9H314.5z"/>
</g>
<g class="st0">
	<path class="st1" d="M7.6,343.5v-13.8c-0.8,0.5-2.6,0.9-4.2,1L3,328.9c3.1-0.4,4.9-1.6,5.5-2.6h2.2v17.2H7.6z"/>
	<path class="st1" d="M15.5,343.5l5.9-8.5c1.3-1.8,1.5-2.8,1.5-3.9c0-1.8-1-2.8-3.1-2.8c-1.5,0-2.4,0.3-3.1,0.7L16,327
		c1-0.5,2.4-1,4.6-1c3.8,0,5.6,2.2,5.6,4.7c0,1.3-0.7,2.8-2.2,4.9l-4,5.3h6.4v2.5H15.5z"/>
	<path class="st1" d="M34,343.8c-2.2,0-3.6-0.3-4.7-1l0.8-2c0.7,0.4,1.8,0.7,3.3,0.7c2.1,0,3.4-1.1,3.4-3.1c0-2.8-2.6-3.2-4.6-3.2
		v-1.6c2.5-0.2,4.1-1.4,4.1-3.1c0-1.6-1.2-2.2-2.6-2.2c-1.3,0-2.5,0.3-3.2,0.7l-0.8-1.9c0.9-0.5,2.4-0.9,4.5-0.9c3,0,5.2,1.5,5.2,4
		c0,2.1-1.8,3.3-3,3.7l0,0c1.8,0.5,3.6,1.8,3.6,4.5C40.1,341.6,37.5,343.8,34,343.8z"/>
	<path class="st1" d="M53,339.9v3.6h-2.9v-3.6h-6.9V338l6.8-11.7h3v11.8h1.3v1.7H53z M48.9,331.7l-3.7,6.4h4.9l0-6.3
		c0-1.4,0-2.5,0-2.5C50.2,329.3,49.7,330.4,48.9,331.7z"/>
	<path class="st1" d="M61.4,343.8c-2,0-3.5-0.3-4.6-1l0.8-2.1c0.7,0.4,1.9,0.8,3.4,0.8c1.7,0,3.4-1.1,3.4-3.1c0-2.2-1.6-4-6.7-3.2
		l0.8-8.9H67v2.5h-6.4l-0.4,4.5c5.1-0.4,7.3,1.9,7.3,5.1C67.6,341.4,65.1,343.8,61.4,343.8z"/>
	<path class="st1" d="M76.2,343.8c-3.9,0-5.6-2.9-5.6-6.6c0-7.6,6.2-10.6,8.7-11l0.8,2c-1.9,0.6-4.6,1.9-6,5.3
		c0.6-0.2,1.2-0.3,2-0.3c2.9,0,5.6,1.5,5.6,5.2C81.6,341.4,79.7,343.8,76.2,343.8z M75.5,334.7c-0.9,0-1.5,0.2-1.8,0.4
		c-0.1,0.8-0.2,1.3-0.2,2.2c0,2.5,0.8,4.5,2.8,4.5c1.8,0,2.5-1.8,2.5-3.5C78.8,335.9,77.7,334.7,75.5,334.7z"/>
	<path class="st1" d="M93.5,331.6c-1.9,4.6-3.6,9.4-4.2,11.9h-3.7l6.5-14.7h-7.7v-2.5h11.4L93.5,331.6z"/>
	<path class="st1" d="M103.4,343.8c-3,0-5.5-1.6-5.5-4.4c0-2,1.1-3.3,3.6-4.8c-2.2-1.3-3.1-2.5-3.1-4.3c0-2.5,2.2-4.2,5-4.2
		s5,1.7,5,4.2c0,1.8-0.9,2.9-3.1,4.2c2.5,1.5,3.6,2.9,3.6,4.8C108.9,342,106.6,343.8,103.4,343.8z M103.3,335.6
		c-2.3,1.3-2.8,2.2-2.8,3.6c0,1.5,1.3,2.6,2.8,2.6c1.6,0,2.8-1.1,2.8-2.5C106.1,337.9,105.7,337,103.3,335.6z M103.4,327.8
		c-1.5,0-2.5,1-2.5,2.4c0,1.3,0.6,2,2.5,3.2c1.9-1.2,2.5-1.9,2.5-3.2C105.9,328.8,104.9,327.8,103.4,327.8z"/>
	<path class="st1" d="M113.8,343.8l-0.8-2c1.9-0.5,4.6-1.9,6-5.3c-0.6,0.2-1.2,0.3-2,0.3c-2.9,0-5.6-1.5-5.6-5.2c0-3,2-5.4,5.5-5.4
		c3.9,0,5.5,2.9,5.5,6.6C122.5,340.4,116.2,343.3,113.8,343.8z M116.8,328.1c-1.9,0-2.5,1.8-2.5,3.5c0,2.3,1.1,3.5,3.3,3.5
		c0.8,0,1.5-0.2,1.8-0.4c0.1-0.7,0.2-1.4,0.2-2.2C119.6,330.1,118.9,328.1,116.8,328.1z"/>
	<path class="st1" d="M130.7,343.8c-4.4,0-5.5-5-5.5-8.8c0-3.8,1.1-8.8,5.5-8.8c4.4,0,5.5,5,5.5,8.8
		C136.2,338.8,135.1,343.8,130.7,343.8z M130.7,328c-2.3,0-2.6,3.7-2.6,6.9c0,3.2,0.3,6.8,2.6,6.8s2.6-3.7,2.6-6.8
		C133.3,331.7,132.9,328,130.7,328z"/>
	<path class="st1" d="M151.7,349.2c-4.1-4.6-5.8-8.5-5.8-12.8s1.8-8.2,5.8-12.8l1.5,0.8c-2.4,3.4-4.1,7.4-4.1,11.9
		c0,4.6,1.6,8.5,4.1,12L151.7,349.2z"/>
	<path class="st1" d="M155.8,347.7H154l2.2-6.7c0.4-0.5,1-0.9,1.9-0.9c0.8,0,1.2,0.4,1.3,0.9L155.8,347.7z"/>
	<path class="st1" d="M164.2,343.7c-1,0-1.8-0.8-1.8-1.8c0-1,0.8-1.8,1.8-1.8c1,0,1.8,0.8,1.8,1.8
		C166,342.8,165.2,343.7,164.2,343.7z"/>
	<path class="st1" d="M169.4,347.7h-1.8l2.2-6.7c0.4-0.5,1-0.9,1.9-0.9c0.8,0,1.2,0.5,1.3,0.9L169.4,347.7z M171.2,335.9
		c-1,0-1.8-0.8-1.8-1.8c0-1,0.8-1.8,1.8-1.8c1,0,1.8,0.8,1.8,1.8C173.1,335.1,172.2,335.9,171.2,335.9z"/>
	<path class="st1" d="M177.9,335.9c-1,0-1.8-0.8-1.8-1.8c0-1,0.8-1.8,1.8-1.8c1,0,1.8,0.8,1.8,1.8
		C179.7,335.1,178.9,335.9,177.9,335.9z M177.9,343.7c-1,0-1.8-0.8-1.8-1.8c0-1,0.8-1.8,1.8-1.8c1,0,1.8,0.8,1.8,1.8
		C179.7,342.8,178.9,343.7,177.9,343.7z"/>
	<path class="st1" d="M195.7,341.9c-1.2,0-1.7-0.6-1.9-2.2c-1,1.5-2.2,2.1-3.8,2.1c-2.1,0-3.1-1.9-3.1-3.9c0-2.7,1.8-6.8,5.1-6.8
		c1.5,0,2.3,0.9,2.8,2.1l0.3-1.7h1.5l-1,4.4c-0.2,1.2-0.5,2.3-0.5,3.2c0,1.1,0.2,1.5,0.9,1.5c2.1,0,3.8-4.5,3.8-7.4
		c0-3.8-2.5-6.1-6.1-6.1c-5.8,0-9.9,5.3-9.9,10.8c0,5,3.4,7.8,8.1,7.8c3.9,0,6.2-1.4,8.3-3.7l0.7,0.9c-2.3,2.5-4.9,3.9-9,3.9
		c-5.6,0-9.4-3.2-9.4-8.9c0-6.3,5-11.8,11.4-11.8c4.3,0,7.4,2.7,7.4,7.1C201.4,336.5,199.4,341.9,195.7,341.9z M192.2,332.3
		c-2.4,0-3.6,3.6-3.6,5.6c0,1.5,0.8,2.7,2.1,2.7c2.4,0,3.6-3.6,3.7-5.5C194.4,333.3,193.4,332.3,192.2,332.3z"/>
	<path class="st1" d="M209.5,334.4l-0.3,3.2h-2.3l-0.4-4.1c1.6-0.3,3.4-1.3,3.4-2.9c0-1.3-0.8-2.3-2.7-2.3c-1.1,0-2,0.4-2.5,0.6
		l-0.8-1.8c0.9-0.5,2.3-0.9,3.9-0.9c3.3,0,5.3,1.6,5.3,4.1C213.1,332.6,210.9,333.9,209.5,334.4z M208.1,343.7c-1,0-1.8-0.8-1.8-1.8
		c0-1,0.8-1.8,1.8-1.8c1,0,1.8,0.8,1.8,1.8C209.9,342.9,209.1,343.7,208.1,343.7z"/>
	<path class="st1" d="M218.7,337.6h-2.3l-0.6-11.3h3.6L218.7,337.6z M217.6,343.7c-1,0-1.8-0.8-1.8-1.8c0-1,0.8-1.8,1.8-1.8
		c1,0,1.8,0.8,1.8,1.8C219.4,342.9,218.6,343.7,217.6,343.7z"/>
	<path class="st1" d="M222.8,343.5c1.5-1.8,2.6-3.9,2.6-5.9c0-0.8-0.1-1.3-0.3-2.1h-2.4v-1.8h1.9c-0.2-0.9-0.5-2-0.5-3.1
		c0-2.4,1.8-4.5,5.2-4.5c1.9,0,3.3,0.5,4,0.9l-0.7,1.9c-0.5-0.3-1.4-0.6-2.6-0.6c-2.1,0-3,1.3-3,3.2c0,0.7,0.1,1.4,0.3,2.3h3.4v1.8
		h-3.1c0.1,0.7,0.2,1.3,0.2,2c0,1.4-0.7,3.1-1.1,3.5h6.8v2.5H222.8z"/>
	<path class="st1" d="M247.7,333.6v9.1c-1,0.6-2.6,1-5,1c-4.1,0-6.7-1.8-6.7-5c0-2.5,1.8-4.2,4.1-4.9v0c-1.9-0.7-3-1.9-3-3.7
		c0-2.3,1.9-4,5-4c1.6,0,3.1,0.4,3.9,0.9l-0.9,1.8c-0.5-0.3-1.4-0.6-2.4-0.6c-1.7,0-2.5,0.9-2.5,2.2c0,1.5,1.3,2.3,2.9,2.3
		c2.1,0,4.5-0.9,6.5-2l0.9,1.9C249.8,332.9,248.6,333.4,247.7,333.6z M244.8,334.2c-3.7,0.9-5.4,1.9-5.4,4.4c0,2,1.1,3.2,3.5,3.2
		c0.8,0,1.4-0.1,1.9-0.3V334.2z"/>
	<path class="st1" d="M253.1,328c-0.6,0-1.2-0.5-1.2-1.2c0-0.7,0.5-1.2,1.2-1.2c0.6,0,1.2,0.5,1.2,1.2
		C254.4,327.5,253.8,328,253.1,328z M254.2,331.6c-0.6,0-1.2-0.5-1.2-1.2c0-0.7,0.6-1.2,1.2-1.2c0.7,0,1.2,0.5,1.2,1.2
		C255.4,331.1,254.9,331.6,254.2,331.6z M256.2,325.8c-0.6,0-1.2-0.5-1.2-1.2c0-0.7,0.6-1.2,1.2-1.2c0.6,0,1.2,0.5,1.2,1.2
		C257.4,325.3,256.9,325.8,256.2,325.8z M256.2,328.8c-0.5,0-1-0.4-1-1s0.4-1,1-1c0.6,0,1,0.4,1,1
		C257.2,328.4,256.8,328.8,256.2,328.8z M258.2,331.6c-0.6,0-1.2-0.5-1.2-1.2c0-0.7,0.5-1.2,1.2-1.2c0.6,0,1.2,0.5,1.2,1.2
		S258.9,331.6,258.2,331.6z M259.3,328.1c-0.6,0-1.2-0.5-1.2-1.2s0.5-1.2,1.2-1.2c0.6,0,1.2,0.5,1.2,1.2S260,328.1,259.3,328.1z"/>
	<path class="st1" d="M266.9,337.8c-3,0-3.6-3.2-3.6-5.9c0-2.6,0.6-5.9,3.6-5.9c3,0,3.6,3.2,3.6,5.9
		C270.5,334.6,269.9,337.8,266.9,337.8z M266.9,327.4c-1.4,0-1.6,2.4-1.6,4.5s0.1,4.4,1.6,4.4c1.4,0,1.6-2.3,1.6-4.4
		S268.4,327.4,266.9,327.4z M270.5,343.7l-1.5-0.4l5.8-17.2l1.5,0.4L270.5,343.7z M278.4,343.8c-3,0-3.6-3.2-3.6-5.9
		c0-2.6,0.6-5.9,3.6-5.9c3,0,3.6,3.3,3.6,5.9C282,340.5,281.3,343.8,278.4,343.8z M278.4,333.3c-1.4,0-1.6,2.4-1.6,4.5
		c0,2.1,0.1,4.5,1.6,4.5c1.4,0,1.6-2.4,1.6-4.5C280,335.7,279.8,333.3,278.4,333.3z"/>
	<path class="st1" d="M285.7,349.2l-1.4-0.8c2.4-3.4,4.1-7.4,4.1-12c0-4.5-1.6-8.5-4.1-11.9l1.4-0.8c4.1,4.6,5.8,8.5,5.8,12.8
		S289.8,344.5,285.7,349.2z"/>
</g>
<g class="st0">
	<path class="st1" d="M7.8,415.8c-2.2,0-4-0.4-5.2-1v-15.7c1.2-0.6,2.9-1,5-1c5.6,0,7.7,3.8,7.7,8.8
		C15.3,411.8,13.3,415.8,7.8,415.8z M7.8,400.7c-0.5,0-0.8,0.1-1.1,0.2v11.9c0.3,0.1,0.7,0.2,1.2,0.2c2.5,0,3.4-1.7,3.4-6.2
		C11.2,402.5,10.2,400.7,7.8,400.7z"/>
	<path class="st1" d="M23.2,415.8c-3.9,0-5.9-1.4-5.9-4.2c0-3.5,3.5-4.5,7.5-4.9V406c0-1.4-0.9-1.8-2.4-1.8c-1.3,0-2.6,0.4-3.5,0.8
		l-0.9-2.2c0.9-0.4,2.7-1,5.1-1c3,0,5.3,1.3,5.3,4.9v8C27.3,415.3,25.5,415.8,23.2,415.8z M24.8,408.4c-2.3,0.2-3.9,0.8-3.9,2.9
		c0,1.6,0.9,2.2,2.4,2.2c0.6,0,1.1-0.1,1.4-0.3V408.4z"/>
	<path class="st1" d="M38.2,415.5l-2.1-4.3l-0.1,0l-2.2,4.3h-3.9l4.2-6.9l-3.8-6.5h4.1l1.9,3.9h0l2.1-3.9h3.6l-3.9,6.2l4.3,7.2H38.2
		z"/>
	<path class="st1" d="M56.5,415.8c-2.4,0-4.2-0.3-5.5-1v-15.7c1.1-0.6,3-1,5.3-1c4.5,0,6.6,2,6.6,4.6c0,2.2-1.7,3.4-3.1,3.8v0.1
		c1.5,0.4,3.6,1.9,3.6,4.3C63.5,414.2,60.8,415.8,56.5,415.8z M56.4,400.3c-0.6,0-1,0-1.5,0.2v5.1h0.8c2.5,0,3.4-0.8,3.4-2.7
		C59.1,401.2,58.2,400.3,56.4,400.3z M55.7,407.6h-0.8v5.5c0.4,0.2,0.9,0.2,1.5,0.2c1.9,0,3-0.7,3-2.7
		C59.4,408.6,58.5,407.6,55.7,407.6z"/>
	<path class="st1" d="M71.4,415.8c-3.9,0-5.9-3-5.9-7c0-4,2-7,5.9-7c3.9,0,6,2.9,6,7C77.3,412.8,75.3,415.8,71.4,415.8z M71.4,404.2
		c-1.7,0-2.1,2.1-2.1,4.5c0,2.4,0.4,4.4,2.1,4.4c1.7,0,2.1-2,2.1-4.4C73.4,406.3,73.1,404.2,71.4,404.2z"/>
	<path class="st1" d="M79.9,415.5v-19.6h3.9v19.6H79.9z"/>
	<path class="st1" d="M92.9,415.8c-4.1,0-6.6-2.4-6.6-6.9c0-4.3,2.4-7,5.9-7c0.8,0,1.5,0.1,2,0.2v-6.2h3.9v18.9
		C96.9,415.4,95.3,415.8,92.9,415.8z M94.2,404.2c-0.3-0.1-0.7-0.2-1.1-0.2c-2.1,0-3,1.8-3,4.6c0,2.9,0.9,4.6,2.8,4.6
		c0.5,0,0.9,0,1.2-0.2V404.2z"/>
</g>
<g class="st0">
	<path class="st1" d="M12,471.5l-1-3.7H5.8l-1.1,3.7H1.1l5.6-17.2h3.9l5.6,17.2H12z M8.9,459.9c-0.3-1.2-0.4-2.1-0.4-2.1h0
		c0,0-0.1,0.8-0.4,2.1l-1.6,5.6h4L8.9,459.9z"/>
	<path class="st1" d="M23.6,471.8c-3.9,0-5.9-1.4-5.9-4.2c0-3.5,3.5-4.5,7.5-4.9V462c0-1.4-0.9-1.8-2.4-1.8c-1.3,0-2.6,0.4-3.5,0.8
		l-0.9-2.2c1-0.4,2.7-1,5.1-1c3,0,5.3,1.3,5.3,4.9v8C27.7,471.3,25.9,471.8,23.6,471.8z M25.2,464.4c-2.3,0.2-3.9,0.8-3.9,2.9
		c0,1.6,0.9,2.2,2.4,2.2c0.6,0,1.1-0.1,1.4-0.3V464.4z"/>
	<path class="st1" d="M44.1,471.8c-2.4,0-4.2-0.3-5.5-1v-15.7c1.1-0.6,3-1,5.3-1c4.5,0,6.6,2,6.6,4.6c0,2.2-1.7,3.4-3.1,3.8v0.1
		c1.5,0.4,3.6,1.9,3.6,4.3C51.1,470.2,48.4,471.8,44.1,471.8z M44,456.3c-0.6,0-1,0-1.5,0.2v5.1h0.8c2.5,0,3.4-0.8,3.4-2.7
		C46.7,457.2,45.8,456.3,44,456.3z M43.3,463.6h-0.8v5.5c0.4,0.2,0.9,0.2,1.5,0.2c1.9,0,3-0.7,3-2.7C47,464.6,46.1,463.6,43.3,463.6
		z"/>
	<path class="st1" d="M58.4,471.8c-2.3,0-4-0.4-4.9-1v-18.9h3.9v6.5c0.6-0.3,1.3-0.5,2.5-0.5c3.2,0,5.4,2.5,5.4,6.5
		C65.3,469.1,62.8,471.8,58.4,471.8z M58.8,460.1c-0.6,0-1,0.1-1.4,0.3v8.8c0.3,0.1,0.7,0.2,1.2,0.2c2,0,2.8-1.7,2.8-4.8
		C61.4,462,60.9,460.1,58.8,460.1z"/>
	<path class="st1" d="M80.8,471.8c-4.6,0-6.8-4.2-6.8-8.8c0-4.6,2.2-8.8,6.8-8.8c1.7,0,2.9,0.4,3.7,1l-0.8,2.5
		c-0.5-0.3-1.1-0.5-2-0.5c-2.6,0-3.5,2.9-3.5,5.9c0,2.9,1,5.8,3.5,5.8c0.9,0,1.4-0.2,2-0.5l0.9,2.6
		C83.7,471.4,82.5,471.8,80.8,471.8z"/>
	<path class="st1" d="M91.8,471.8c-3.2,0-5.5-2.5-5.5-7c0-4.5,2.5-6.9,5.5-6.9c1.6,0,2.7,0.5,3.3,1l-0.8,2.1
		c-0.4-0.3-0.8-0.5-1.6-0.5c-1.7,0-2.5,1.5-2.5,4.3c0,2.7,0.9,4.3,2.5,4.3c0.7,0,1.2-0.2,1.6-0.5l0.8,2.3
		C94.5,471.3,93.5,471.8,91.8,471.8z"/>
	<path class="st1" d="M109.2,471.8c-2.2,0-4-0.4-5.2-1v-15.7c1.2-0.6,2.9-1,5-1c5.6,0,7.7,3.8,7.7,8.8
		C116.8,467.8,114.8,471.8,109.2,471.8z M109.2,456.7c-0.5,0-0.8,0.1-1.1,0.2v11.9c0.3,0.1,0.7,0.2,1.2,0.2c2.5,0,3.4-1.7,3.4-6.2
		C112.7,458.5,111.7,456.7,109.2,456.7z"/>
	<path class="st1" d="M125.5,471.8c-4.1,0-6.6-2.4-6.6-6.9c0-4.3,2.4-7,5.9-7c0.8,0,1.5,0.1,2,0.2v-6.2h3.9v18.9
		C129.4,471.4,127.8,471.8,125.5,471.8z M126.8,460.2c-0.3-0.1-0.7-0.2-1.1-0.2c-2.1,0-3,1.8-3,4.6c0,2.9,0.9,4.6,2.8,4.6
		c0.5,0,0.9,0,1.2-0.2V460.2z"/>
	<path class="st1" d="M140.5,471.5v-17.2h8.8v2.7h-4.7v4.4h4.1v2.6h-4.1v4.7h4.7v2.7H140.5z"/>
	<path class="st1" d="M162.8,465l-8.1,1.1c0.3,2,1.3,2.9,3.2,2.9c1.6,0,2.8-0.3,3.5-0.7l0.9,2.4c-1.1,0.5-2.6,1-4.8,1
		c-4.1,0-6.5-2.7-6.5-7c0-4.2,2.2-6.9,6.1-6.9s5.7,2.6,5.7,6.6C162.9,464.6,162.8,464.8,162.8,465z M157,460.1
		c-1.6,0-2.6,1.4-2.5,4.2l4.7-0.8C159.2,461.1,158.4,460.1,157,460.1z"/>
	<path class="st1" d="M176.3,457v4.4h4.1v2.6h-4.1v7.4h-4.1v-17.2h8.8v2.7H176.3z"/>
	<path class="st1" d="M188.1,460.6v10.9h-3.9v-10.9h-1.5V458h1.5v-1.4c0-3.4,2.3-5.1,6-4.7v2.5c-1.3,0-2.1,0.4-2.1,2v1.7h2.1v2.5
		H188.1z"/>
	<path class="st1" d="M206.3,471.8c-5.2,0-7.8-3.4-7.8-8.9c0-5.2,3-8.8,7.9-8.8c2,0,3.4,0.4,4.5,1l-1.2,2.5
		c-0.5-0.3-1.4-0.6-2.9-0.6c-2.7,0-4.3,1.8-4.3,6c0,4,1.4,6,3.5,6c0.6,0,1-0.1,1.3-0.2v-4.9h-2v-2.4h5.8v9.3
		C210,471.4,208.7,471.8,206.3,471.8z"/>
	<path class="st1" d="M219.5,477.2c-2.1,0-3.9-0.4-5-1l1-2.5c0.8,0.5,2,0.8,3.3,0.8c2,0,2.8-1,2.8-2.5v-0.8
		c-0.5,0.2-1.2,0.4-2.3,0.4c-3.2,0-5.5-2.5-5.5-6.5c0-4.5,2.3-7.3,6.9-7.3c2.1,0,3.8,0.4,4.8,1v12.8
		C225.4,475.4,222.9,477.2,219.5,477.2z M221.6,460.3c-0.3-0.2-0.7-0.2-1.2-0.2c-2,0-2.8,1.6-2.8,4.8c0,3,0.8,4.5,2.7,4.5
		c0.5,0,1-0.1,1.3-0.3V460.3z"/>
	<path class="st1" d="M243.6,471.5v-7.4h-4.3v7.4h-4.1v-17.2h4.1v7.1h4.3v-7.1h4.1v17.2H243.6z"/>
	<path class="st1" d="M258.3,471.5v-9.4c0-1-0.5-1.9-2-1.9c-0.6,0-1.1,0.1-1.6,0.4v10.9h-3.9v-19.6h3.9v6.6c0.9-0.4,1.8-0.6,2.9-0.6
		c3.4,0,4.6,1.9,4.6,4.2v9.4H258.3z"/>
	<path class="st1" d="M272.1,471.5v-17.2h4v17.2H272.1z"/>
	<path class="st1" d="M281.3,456c-1.1,0-2.1-0.8-2.1-1.8c0-1,0.9-1.8,2.1-1.8c1.1,0,2.1,0.8,2.1,1.8
		C283.4,455.2,282.4,456,281.3,456z M279.3,471.5V458h3.9v13.5H279.3z"/>
	<path class="st1" d="M290.6,477v-2.8c1.4-0.2,2.6-1.4,2.6-3.4v-16.4h4v16C297.2,474.6,294.4,476.8,290.6,477z"/>
	<path class="st1" d="M298.2,477.1v-2.6c1.4-0.5,2.2-1.4,2.2-4.1V458h3.9v12C304.4,474.4,301.8,477,298.2,477.1z M302.4,456
		c-1.2,0-2.1-0.8-2.1-1.8c0-1,0.9-1.8,2.1-1.8c1.1,0,2.1,0.8,2.1,1.8C304.5,455.2,303.6,456,302.4,456z"/>
	<path class="st1" d="M322.6,471.5l-4.2-8.5h-0.1v8.5h-4v-17.2h4v7.7h0.1l4.3-7.7h4.1l-4.9,7.9l5.2,9.3H322.6z"/>
	<path class="st1" d="M336.7,471.5l-3.9-6.8h0v6.8h-3.9v-19.6h3.9V464h0l3.8-5.9h3.9l-4.2,6l4.8,7.4H336.7z"/>
	<path class="st1" d="M349.4,471.5v-17.2h4v14.5h4.4v2.7H349.4z"/>
	<path class="st1" d="M360.2,471.5v-19.6h3.9v19.6H360.2z"/>
	<path class="st1" d="M387.5,471.5c0-0.6-0.8-9.9-0.8-9.9c-0.1-1.1-0.1-2.1-0.1-2.1h0c0,0-0.2,1-0.5,2.1c0,0-2.6,9-2.9,9.9h-2
		c-0.3-0.7-2.9-9.9-2.9-9.9c-0.3-1.1-0.5-2.1-0.5-2.1h0c0,0,0,1-0.1,2.1c0,0-0.8,9.1-0.9,9.9h-3.3l1.8-17.2h3.9l2.7,9.6
		c0.3,1,0.5,1.9,0.5,1.9h0c0,0,0.2-0.9,0.5-1.9l2.8-9.6h3.9l1.8,17.2H387.5z"/>
	<path class="st1" d="M408.9,471.5v-9.4c0-1-0.6-1.8-1.9-1.8c-0.7,0-1.2,0.2-1.7,0.7v10.6h-3.9V462c0-1.1-0.8-1.8-2.1-1.8
		c-0.7,0-1.1,0.1-1.6,0.2v11h-3.9v-12.7c1.5-0.7,3.1-1,5.4-1c2.2,0,3.5,0.6,4.3,1.3c0.8-0.7,2.2-1.3,4.4-1.3c3.2,0,4.8,1.9,4.8,4.3
		v9.4H408.9z"/>
	<path class="st1" d="M432.6,471.5l-5.7-9.6c-0.5-0.9-0.9-1.8-0.9-1.8h0c0,0,0.1,0.9,0.1,1.9v9.6h-3.4v-17.2h3.6l5.3,8.8
		c0.5,0.9,0.9,1.6,0.9,1.6h0c0,0-0.1-0.8-0.1-1.7v-8.7h3.4v17.2H432.6z"/>
	<path class="st1" d="M446.3,471.5v-9.4c0-0.9-0.4-1.9-2-1.9c-0.8,0-1.2,0.1-1.6,0.3v11h-3.9v-12.7c1.3-0.6,3.2-1,5.6-1
		c4.3,0,5.8,1.8,5.8,4.3v9.4H446.3z"/>
	<path class="st1" d="M466.2,471.8c-4.8,0-6.7-4-6.7-8.8c0-4.8,1.9-8.8,6.7-8.8s6.7,4,6.7,8.8C473,467.8,471,471.8,466.2,471.8z
		 M466.2,456.7c-2.2,0-2.6,3.1-2.6,6c0,2.9,0.4,6,2.6,6c2.2,0,2.6-3.1,2.6-6C468.8,459.8,468.4,456.7,466.2,456.7z"/>
	<path class="st1" d="M481,471.8c-3.9,0-5.9-3-5.9-7c0-4,2-7,5.9-7c3.9,0,6,2.9,6,7C487,468.8,484.9,471.8,481,471.8z M481,460.2
		c-1.7,0-2.1,2.1-2.1,4.5c0,2.4,0.4,4.4,2.1,4.4c1.7,0,2.1-2,2.1-4.4C483.1,462.3,482.7,460.2,481,460.2z"/>
	<path class="st1" d="M500.8,465.1l-0.5,0v6.5h-4v-16.4c1.2-0.6,3-1,5.2-1c4.8,0,6.6,2.4,6.6,5.5C508.1,462.8,506,465.6,500.8,465.1
		z M501.5,456.4c-0.5,0-1,0.1-1.2,0.2v6.1l0.5,0c2.5,0.1,3.5-1,3.5-3.2C504.3,457.4,503.5,456.4,501.5,456.4z"/>
	<path class="st1" d="M516.3,471.7c-0.8,0-1.5-0.1-1.9-0.2v5.4h-3.9v-18.1c1.1-0.6,2.7-1,5.1-1c4,0,6.6,2.4,6.6,6.9
		C522.2,469,519.8,471.7,516.3,471.7z M515.6,460.1c-0.5,0-0.9,0.1-1.2,0.2v8.9c0.2,0.1,0.6,0.2,1,0.2c2.1,0,3-1.6,3-4.6
		S517.6,460.1,515.6,460.1z"/>
</g>
<g class="st0">
	<path class="st1" d="M12.5,502.6l2.7,3.3l-2.9,2.6l-2.2-4.9c-0.5,0.1-0.8,0.1-1.2,0.1c-4.8,0-6.7-4-6.7-8.8c0-4.8,1.9-8.8,6.7-8.8
		c4.8,0,6.7,4,6.7,8.8C15.5,498.2,14.7,501,12.5,502.6z M8.8,488.7c-2.2,0-2.6,3.1-2.6,6c0,2.9,0.4,6,2.6,6c2.2,0,2.6-3.1,2.6-6
		C11.4,491.8,11,488.7,8.8,488.7z"/>
	<path class="st1" d="M25.5,508.9v-5.7c-0.6,0.3-1.4,0.5-2.4,0.5c-3.2,0-5.5-2.5-5.5-6.5c0-4.2,1.9-7.4,6.9-7.4c2.2,0,3.9,0.5,4.8,1
		v18.1H25.5z M25.5,492.3c-0.3-0.2-0.7-0.2-1.2-0.2c-1.9,0-2.8,1.7-2.8,4.8c0,2.9,0.8,4.5,2.7,4.5c0.6,0,1-0.1,1.4-0.3V492.3z"/>
	<path class="st1" d="M47.4,503.5l-4.1-7.6h-0.1v7.6h-4v-16.4c1.2-0.6,3-1,5.2-1c4.6,0,6.8,2.1,6.8,5.4c0,2.2-1.7,4-4,4.4v0l4.6,7.6
		H47.4z M44.4,488.4c-0.5,0-0.9,0.1-1.2,0.2v6.3c0.1,0,0.5,0.1,0.9,0.1c2.1,0,3.1-1.3,3.1-3.3C47.2,489.4,46.6,488.4,44.4,488.4z"/>
	<path class="st1" d="M60.3,492.6c-0.9-0.4-1.9-0.4-2.6-0.1v11h-3.9v-12.7c1.5-0.7,3.6-1.1,7.2-1L60.3,492.6z"/>
	<path class="st1" d="M73.3,503.8c-2.1,0-3.5-0.4-4.5-1l0.9-2.8c0.5,0.4,1.6,0.8,2.8,0.8c1.4,0,2.3-0.8,2.3-2c0-1.1-0.6-1.8-2.4-2.5
		c-2.7-1.2-3.4-3.1-3.4-4.7c0-2.9,2.1-5.3,5.4-5.3c1.8,0,3.2,0.4,4,1l-0.8,2.5c-0.6-0.4-1.5-0.8-2.6-0.8c-1.3,0-2.1,0.8-2.1,2
		c0,1.2,0.9,1.9,2.3,2.5c3.3,1.5,3.8,3.3,3.8,5.1C79.1,501.5,76.7,503.8,73.3,503.8z"/>
	<path class="st1" d="M84.8,503.7c-1.6,0-3.1-0.4-3.9-1l1-2.5c0.5,0.4,1.4,0.8,2.4,0.8c1,0,1.7-0.6,1.7-1.5c0-0.9-0.5-1.4-1.7-1.9
		c-2.5-1-3-2.3-3-3.7c0-2.3,1.8-4.1,4.5-4.1c1.7,0,2.8,0.3,3.9,1l-0.9,2.2c-0.4-0.3-1.2-0.7-2-0.7c-1,0-1.5,0.6-1.5,1.4
		c0,0.9,0.7,1.4,1.7,1.8c2.6,1.1,3.2,2.4,3.2,3.9C89.9,501.8,88,503.7,84.8,503.7z"/>
	<path class="st1" d="M105.4,489v14.5h-4.1V489h-3v-2.7h10v2.7H105.4z"/>
	<path class="st1" d="M115.5,503.7c-2.8,0-4-1.8-4-3.9v-7.2h-1.5V490h1.5v-2.9l3.9-1v3.9h2.1v2.5h-2.1v6.9c0,1,0.4,1.6,1.2,1.6
		c0.3,0,0.5,0,0.8-0.1v2.4C117.1,503.5,116.4,503.7,115.5,503.7z"/>
	<path class="st1" d="M132.5,503.8c-3.4,0-6-2-6-5.3v-12.1h4.1v12.1c0,1.5,0.9,2.3,2.1,2.3s2-0.8,2-2.3v-12.1h3.7v12.1
		C138.5,501.7,136,503.8,132.5,503.8z"/>
	<path class="st1" d="M147.3,503.8c-3.8,0-5.6-1.4-5.6-4.7v-9h3.9v9.3c0,1,0.5,1.8,1.8,1.8c0.7,0,1.2-0.1,1.6-0.3V490h3.9v12.7
		C151.6,503.3,149.8,503.8,147.3,503.8z"/>
	<path class="st1" d="M170,503.5h-3.5l-5.2-17.2h4.3l2.4,10c0.2,0.9,0.4,2.1,0.4,2.1h0c0,0,0.2-1.2,0.4-2.1l2.5-10h3.9L170,503.5z"
		/>
	<path class="st1" d="M183.7,503.5h-3.8l-4.3-13.5h4.1l1.9,7.7c0.2,1,0.3,2,0.3,2h0.1c0,0,0.1-1,0.3-2l2-7.7h3.6L183.7,503.5z"/>
	<path class="st1" d="M211.7,503.5h-3.6l-2.2-9c-0.2-0.9-0.3-1.8-0.3-1.8h0c0,0-0.1,0.9-0.3,1.8l-2.2,9h-3.6l-3.9-17.2h4l1.8,10
		c0.2,1,0.2,1.9,0.2,1.9h0.1c0,0,0.1-1,0.3-1.9l2.3-10h2.9l2.2,10c0.2,1,0.3,1.9,0.3,1.9h0c0,0,0.1-1,0.2-1.9l1.9-10h3.7
		L211.7,503.5z"/>
	<path class="st1" d="M231.9,503.5h-3.6l-1.9-7.3c-0.2-0.9-0.3-1.8-0.3-1.8h0c0,0-0.1,0.9-0.3,1.8l-2,7.3h-3.6l-3.7-13.5h3.9
		l1.6,7.8c0.2,1.1,0.2,1.9,0.2,1.9h0c0,0,0-0.8,0.3-1.9l2-7.8h3.2l1.9,7.8c0.2,0.9,0.3,1.9,0.3,1.9h0c0,0,0-1,0.2-2l1.7-7.7h3.4
		L231.9,503.5z"/>
	<path class="st1" d="M252.1,503.5l-2.4-5.6h0l-2.5,5.6H243l4.6-8.8l-4.1-8.4h4.3l2.1,5.1h0l2.4-5.1h3.9l-4.3,7.9l4.7,9.2H252.1z"/>
	<path class="st1" d="M265.3,503.5l-2.1-4.3l-0.1,0l-2.2,4.3h-3.9l4.2-6.9l-3.8-6.5h4.1l1.9,3.9h0l2.1-3.9h3.6l-3.9,6.2l4.3,7.2
		H265.3z"/>
	<path class="st1" d="M285.1,496.3v7.2h-4v-7.2l-4.5-10h4.2l2.5,6.5h0l2.6-6.5h3.8L285.1,496.3z"/>
	<path class="st1" d="M296.4,508.9h-4.1l2.1-5.4l-4.4-13.5h4.1l1.8,7.8c0.3,1.2,0.3,2.1,0.3,2.1h0c0,0,0.1-1,0.4-2.1l2-7.8h3.6
		L296.4,508.9z"/>
	<path class="st1" d="M309.9,503.5l5.4-14.5h-4.8v-2.7h9.8l-5.2,14.5h5.3v2.7H309.9z"/>
	<path class="st1" d="M321.9,503.5l4.6-10.9h-4.1V490h8.9l-4.3,10.9h4.4v2.5H321.9z"/>
</g>
<g class="st0">
	<path class="st1" d="M7.4,535.5v-13.1c-0.7,0.3-2.3,0.7-4,0.8l-0.5-2.3c3.2-0.4,5.1-1.6,5.7-2.6h2.8v17.2H7.4z"/>
	<path class="st1" d="M15.8,535.5l5.8-8.5c1.2-1.8,1.5-2.7,1.5-3.7c0-1.6-0.9-2.5-2.8-2.5c-1.5,0-2.4,0.3-3.1,0.7l-0.9-2.5
		c1-0.5,2.5-1,4.9-1c4.5,0,6,2.5,6,4.8c0,1.4-0.7,2.9-2.3,4.9l-3.5,4.5h5.9v3.2H15.8z"/>
	<path class="st1" d="M35,535.8c-2.3,0-3.9-0.4-5-1l1-2.6c0.7,0.3,1.8,0.7,3.3,0.7c1.8,0,3-1,3-2.6c0-2.3-2.2-2.8-4.2-2.7v-2
		c2.4-0.2,3.8-1.3,3.8-2.8c0-1.3-1-1.9-2.4-1.9c-1.3,0-2.5,0.3-3.2,0.7l-0.9-2.4c1-0.5,2.7-1,4.8-1c3.5,0,5.6,1.6,5.6,4.2
		c0,1.9-1.6,3.1-2.7,3.5v0c1.8,0.6,3.4,1.9,3.4,4.4C41.6,533.6,38.9,535.8,35,535.8z"/>
	<path class="st1" d="M55,532.1v3.4h-3.7v-3.4h-6.8v-2.3l6.7-11.5H55V530h1.3v2.1H55z M50.1,524.5l-3.2,5.5h4.4v-5.4
		c0-1.4,0.1-2.5,0.1-2.5C51.4,522,50.9,523.1,50.1,524.5z"/>
	<path class="st1" d="M63.4,535.8c-2.2,0-3.8-0.3-5-1l1-2.6c0.7,0.4,1.8,0.8,3.4,0.8c1.7,0,3-1,3-2.6c0-1.9-1.4-3.5-6.5-2.7l1-9.3h9
		v3.2H63l-0.3,3.6c5.2-0.3,7.3,2,7.3,5.1C70,533.4,67.4,535.8,63.4,535.8z"/>
	<path class="st1" d="M78.6,535.8c-4.3,0-5.9-3.1-5.9-6.7c0-7.5,6.4-10.5,9-10.9l1,2.6c-1.7,0.5-4.3,1.6-5.6,4.5
		c0.5-0.1,1-0.2,1.6-0.2c2.7,0,5.7,1.3,5.7,5.3C84.5,533.5,82.3,535.8,78.6,535.8z M77.9,526.9c-0.6,0-1.1,0.1-1.4,0.3
		c-0.1,0.7-0.2,1.2-0.2,2c0,2.1,0.6,4,2.3,4c1.6,0,2.1-1.6,2.1-3.2C80.8,528,79.8,526.9,77.9,526.9z"/>
	<path class="st1" d="M96.9,523.6c-1.9,4.8-3.5,9.4-4.1,11.9H88l6.3-14h-7.4v-3.2H99L96.9,523.6z"/>
	<path class="st1" d="M106.7,535.8c-3.3,0-5.9-1.6-5.9-4.5c0-2,1.1-3.3,3.4-4.6c-2-1.2-2.9-2.4-2.9-4.2c0-2.6,2.3-4.3,5.4-4.3
		c3.1,0,5.4,1.7,5.4,4.3c0,1.7-0.9,2.9-2.9,4.1c2.3,1.4,3.4,2.8,3.4,4.7C112.6,534,110.2,535.8,106.7,535.8z M106.7,527.9
		c-2.1,1.2-2.4,2-2.4,3.2c0,1.2,1.1,2.2,2.5,2.2c1.4,0,2.4-0.9,2.4-2.2C109.1,529.9,108.7,529.2,106.7,527.9z M106.8,520.2
		c-1.3,0-2.2,0.9-2.2,2s0.5,1.8,2.2,2.9c1.7-1,2.2-1.7,2.2-2.8C109,521.1,108.1,520.2,106.8,520.2z"/>
	<path class="st1" d="M117.6,535.8l-1-2.6c1.7-0.5,4.3-1.6,5.6-4.5c-0.5,0.1-1,0.2-1.6,0.2c-2.7,0-5.7-1.3-5.7-5.3
		c0-3.2,2.3-5.5,5.9-5.5c4.3,0,5.8,3.1,5.8,6.7C126.6,532.3,120.3,535.3,117.6,535.8z M120.7,520.5c-1.6,0-2.1,1.6-2.1,3.2
		c0,2,0.9,3.1,2.9,3.1c0.6,0,1.1-0.2,1.4-0.2c0.1-0.6,0.2-1.3,0.2-2C123,522.5,122.4,520.5,120.7,520.5z"/>
	<path class="st1" d="M134.9,535.8c-4.7,0-5.9-5-5.9-8.8c0-3.8,1.2-8.8,5.9-8.8s5.9,5,5.9,8.8C140.8,530.8,139.6,535.8,134.9,535.8z
		 M134.9,520.5c-1.8,0-2.2,3.1-2.2,6.4c0,3.3,0.3,6.3,2.2,6.3s2.2-3,2.2-6.3C137.1,523.6,136.8,520.5,134.9,520.5z"/>
	<path class="st1" d="M156.3,541.2c-4.4-4.6-6.2-8.5-6.2-12.8c0-4.3,1.8-8.2,6.2-12.8l1.8,1c-2.4,3.3-4,7.2-4,11.8
		c0,4.6,1.6,8.5,4,11.8L156.3,541.2z"/>
	<path class="st1" d="M160.9,539.7h-2.3l2.3-7.2c0.4-0.7,1.2-1.1,2.3-1.1c1.1,0,1.5,0.5,1.6,1.1L160.9,539.7z"/>
	<path class="st1" d="M169.7,535.7c-1.2,0-2.2-1-2.2-2.2s1-2.2,2.2-2.2s2.2,1,2.2,2.2S170.9,535.7,169.7,535.7z"/>
	<path class="st1" d="M175.5,539.7h-2.3l2.3-7.2c0.4-0.7,1.2-1.2,2.3-1.2s1.5,0.5,1.6,1.2L175.5,539.7z M177.3,527.8
		c-1.2,0-2.2-1-2.2-2.2s1-2.2,2.2-2.2c1.2,0,2.2,1,2.2,2.2S178.5,527.8,177.3,527.8z"/>
	<path class="st1" d="M184.3,527.8c-1.2,0-2.2-1-2.2-2.2s1-2.2,2.2-2.2s2.2,1,2.2,2.2S185.5,527.8,184.3,527.8z M184.3,535.7
		c-1.2,0-2.2-1-2.2-2.2s1-2.2,2.2-2.2s2.2,1,2.2,2.2S185.5,535.7,184.3,535.7z"/>
	<path class="st1" d="M202.3,533.9c-1.2,0-1.8-0.6-2-2c-1,1.3-2.2,2-3.6,2c-2.3,0-3.2-1.9-3.2-4c0-2.8,1.9-6.9,5.3-6.9
		c1.3,0,2.2,0.7,2.8,1.9l0.3-1.5h1.8l-1.1,4.8c-0.2,1.1-0.5,2-0.5,2.8c0,0.9,0.2,1.3,0.8,1.3c2.1,0,3.6-4.4,3.6-7.1
		c0-3.7-2.5-5.9-6-5.9c-5.7,0-9.8,5.2-9.8,10.6c0,4.8,3.4,7.5,7.9,7.5c4,0,6.4-1.6,8.4-3.7l0.9,1.1c-2.3,2.4-5,3.9-9.3,3.9
		c-5.6,0-9.5-3.2-9.5-8.9c0-6.3,5.1-11.8,11.6-11.8c4.4,0,7.5,2.7,7.5,7.1C208.2,528.6,206.2,533.9,202.3,533.9z M198.9,524.5
		c-2.3,0-3.5,3.5-3.5,5.3c0,1.5,0.8,2.5,2,2.5c2.3,0,3.5-3.5,3.5-5.2C200.9,525.5,200.1,524.5,198.9,524.5z"/>
	<path class="st1" d="M216.8,526.5l-0.2,2.8h-2.9l-0.4-3.9c1.7-0.3,3.2-1.3,3.2-2.6c0-1.1-0.7-2-2.4-2c-1,0-2,0.4-2.5,0.6l-1-2.3
		c1-0.5,2.5-1,4.3-1c3.6,0,5.7,1.7,5.7,4.3C220.5,524.7,218.2,526.1,216.8,526.5z M215.1,535.7c-1.2,0-2.2-1-2.2-2.2s1-2.2,2.2-2.2
		c1.2,0,2.2,1,2.2,2.2S216.3,535.7,215.1,535.7z"/>
	<path class="st1" d="M226.7,529.3h-3l-0.9-11h4.6L226.7,529.3z M225.2,535.7c-1.2,0-2.2-1-2.2-2.2c0-1.2,1-2.2,2.2-2.2
		s2.2,1,2.2,2.2C227.4,534.7,226.4,535.7,225.2,535.7z"/>
	<path class="st1" d="M230.6,535.5c1.7-1.9,2.7-4,2.7-5.9c0-0.7-0.1-1.2-0.3-1.9h-2.4v-2.2h1.8c-0.2-0.8-0.4-1.7-0.4-2.7
		c0-2.3,1.7-4.6,5.4-4.6c2.1,0,3.6,0.5,4.3,1l-0.9,2.4c-0.5-0.3-1.4-0.6-2.5-0.6c-1.9,0-2.7,1.1-2.7,2.8c0,0.5,0.1,1.1,0.2,1.8h3.4
		v2.2h-3c0.1,0.6,0.1,1.1,0.1,1.7c0,1.1-0.6,2.5-0.9,3h6.4v3.2H230.6z"/>
	<path class="st1" d="M256.7,525.9v8.8c-1.1,0.6-2.8,1-5.5,1c-4.3,0-6.9-1.8-6.9-5c0-2.6,1.8-4.1,3.8-4.7v-0.1
		c-1.7-0.7-2.7-1.9-2.7-3.6c0-2.5,2.1-4.2,5.3-4.2c1.8,0,3.4,0.4,4.2,1l-1.1,2.2c-0.5-0.3-1.3-0.5-2.3-0.5c-1.5,0-2.2,0.7-2.2,1.9
		c0,1.2,1.1,2,2.5,2c1.9,0,4.3-0.8,6.5-1.9l1.1,2.3C258.7,525.3,257.5,525.7,256.7,525.9z M252.8,526.6c-3,0.7-4.5,1.7-4.5,3.8
		c0,1.8,0.9,2.8,3,2.8c0.7,0,1.1-0.1,1.5-0.2V526.6z"/>
	<path class="st1" d="M261.9,520.4c-0.8,0-1.4-0.6-1.4-1.4c0-0.8,0.6-1.4,1.4-1.4c0.7,0,1.4,0.6,1.4,1.4
		C263.3,519.8,262.6,520.4,261.9,520.4z M263,524.2c-0.7,0-1.4-0.6-1.4-1.4c0-0.8,0.6-1.4,1.4-1.4c0.7,0,1.4,0.6,1.4,1.4
		C264.4,523.6,263.8,524.2,263,524.2z M265.1,518c-0.7,0-1.3-0.6-1.3-1.4c0-0.8,0.6-1.4,1.4-1.4c0.7,0,1.4,0.6,1.4,1.4
		C266.5,517.4,265.9,518,265.1,518z M265.1,521.2c-0.6,0-1.1-0.5-1.1-1.1c0-0.6,0.5-1.1,1.1-1.1c0.6,0,1.1,0.5,1.1,1.1
		C266.2,520.7,265.7,521.2,265.1,521.2z M267.2,524.2c-0.7,0-1.4-0.6-1.4-1.4c0-0.8,0.6-1.4,1.4-1.4c0.7,0,1.3,0.6,1.3,1.4
		S267.9,524.2,267.2,524.2z M268.4,520.4c-0.7,0-1.4-0.6-1.4-1.4c0-0.8,0.6-1.4,1.4-1.4c0.7,0,1.3,0.6,1.3,1.4
		C269.7,519.8,269.1,520.4,268.4,520.4z"/>
	<path class="st1" d="M276.1,529.9c-3.1,0-3.8-3.3-3.8-5.9c0-2.6,0.6-5.9,3.8-5.9c3.1,0,3.8,3.3,3.8,5.9
		C279.9,526.6,279.2,529.9,276.1,529.9z M276.1,519.7c-1.1,0-1.3,2-1.3,4.2c0,2.2,0.2,4.1,1.3,4.1c1.2,0,1.3-2,1.3-4.1
		C277.4,521.7,277.3,519.7,276.1,519.7z M280,535.8l-1.9-0.5l5.9-17.2l1.9,0.5L280,535.8z M287.9,535.8c-3.1,0-3.8-3.3-3.8-5.9
		c0-2.6,0.7-5.9,3.8-5.9c3.1,0,3.8,3.3,3.8,5.9C291.7,532.5,291,535.8,287.9,535.8z M287.9,525.6c-1.2,0-1.3,2-1.3,4.2
		c0,2.2,0.2,4.1,1.3,4.1c1.1,0,1.3-2,1.3-4.1C289.2,527.6,289,525.6,287.9,525.6z"/>
	<path class="st1" d="M295.5,541.2l-1.8-1c2.4-3.3,4-7.2,4-11.8c0-4.5-1.6-8.5-4-11.8l1.8-1c4.4,4.6,6.2,8.5,6.2,12.8
		C301.7,532.7,299.9,536.6,295.5,541.2z"/>
</g>
</svg>
