<?xml version="1.0" encoding="utf-8"?>
<!-- Generator: Adobe Illustrator 21.0.2, SVG Export Plug-In . SVG Version: 6.00 Build 0)  -->
<svg version="1.1" id="Layer_1" xmlns="http://www.w3.org/2000/svg" xmlns:xlink="http://www.w3.org/1999/xlink" x="0px" y="0px"
	 viewBox="0 0 576 576" style="enable-background:new 0 0 576 576;" xml:space="preserve">
<style type="text/css">
	.st0{enable-background:new    ;}
	.st1{fill:#414042;}
</style>
<g class="st0">
	<path class="st1" d="M2.8,14.7h8v1.4H4.5v6h6v1.4h-6v7.9H2.8V14.7z"/>
	<path class="st1" d="M13.6,22c0-1.3,0-1.8-0.1-2.7H15v2.4h0c0.6-1.4,1.6-2.6,3.1-2.6c0.4,0,0.8,0.1,1.1,0.1v1.6
		c-0.3-0.1-0.7-0.1-1.1-0.1c-2.4,0-3,2.7-3,4.9v6h-1.5V22z"/>
	<path class="st1" d="M31.1,28.6c0,0.9,0,1.9,0.1,2.9h-1.5v-2.2h0c-0.5,1.1-1.4,2.5-4,2.5c-3,0-4.2-2-4.2-4.7v-7.8h1.5v7.4
		c0,2.3,0.8,3.8,2.9,3.8c2.8,0,3.6-2.4,3.6-4.5v-6.8h1.5V28.6z"/>
	<path class="st1" d="M40.2,20.6h-2.8v7.9c0,1.1,0.4,2,1.6,2c0.6,0,1-0.1,1.4-0.3l0.1,1.2c-0.4,0.1-1.1,0.3-1.8,0.3
		c-2.7,0-2.8-1.8-2.8-4.1v-7.2h-2.4v-1.3h2.4v-3l1.5-0.5v3.5h2.8V20.6z"/>
	<path class="st1" d="M44.4,16h-1.5v-2h1.5V16z M42.9,19.3h1.5v12.2h-1.5V19.3z"/>
	<path class="st1" d="M57.9,30.5c0,3.4-1.5,6.2-5.7,6.2c-1.6,0-3.1-0.5-3.7-0.6l0.1-1.5c0.9,0.5,2.3,0.9,3.6,0.9
		c3.9,0,4.2-2.8,4.2-6.3h0c-0.8,1.8-2.2,2.4-3.7,2.4c-3.9,0-5.2-3.4-5.2-6.1c0-3.7,1.4-6.4,5-6.4c1.6,0,2.7,0.2,3.8,1.7h0v-1.4h1.5
		V30.5z M52.7,30.2c2.7,0,3.7-2.6,3.7-4.8c0-3-0.9-5.1-3.6-5.1c-2.9,0-3.6,2.7-3.6,5.1C49.1,27.8,50.1,30.2,52.7,30.2z"/>
	<path class="st1" d="M69.8,31.1c-1.1,0.4-2.4,0.7-3.6,0.7c-4.1,0-5.6-2.7-5.6-6.4c0-3.7,2.1-6.4,5.2-6.4c3.5,0,4.9,2.8,4.9,6.1v0.8
		h-8.4c0,2.6,1.4,4.7,4,4.7c1.1,0,2.7-0.5,3.4-0.9V31.1z M69,24.5c0-2.1-0.9-4.2-3.1-4.2c-2.2,0-3.6,2.2-3.6,4.2H69z"/>
	<path class="st1" d="M73.6,22c0-1.3,0-1.8-0.1-2.7H75v2.4h0c0.6-1.4,1.6-2.6,3.1-2.6c0.4,0,0.8,0.1,1.1,0.1v1.6
		c-0.3-0.1-0.7-0.1-1.1-0.1c-2.4,0-3,2.7-3,4.9v6h-1.5V22z"/>
	<path class="st1" d="M88.2,14.7h1.7v15.3h6.7v1.4h-8.4V14.7z"/>
	<path class="st1" d="M100.4,16h-1.5v-2h1.5V16z M98.9,19.3h1.5v12.2h-1.5V19.3z"/>
	<path class="st1" d="M113.9,30.5c0,3.4-1.5,6.2-5.7,6.2c-1.6,0-3.1-0.5-3.7-0.6l0.1-1.5c0.9,0.5,2.3,0.9,3.6,0.9
		c3.9,0,4.2-2.8,4.2-6.3h0c-0.8,1.8-2.2,2.4-3.7,2.4c-3.9,0-5.2-3.4-5.2-6.1c0-3.7,1.4-6.4,5-6.4c1.6,0,2.7,0.2,3.8,1.7h0v-1.4h1.5
		V30.5z M108.7,30.2c2.7,0,3.7-2.6,3.7-4.8c0-3-0.9-5.1-3.6-5.1c-2.9,0-3.6,2.7-3.6,5.1C105.1,27.8,106.1,30.2,108.7,30.2z"/>
	<path class="st1" d="M117.5,13.5h1.5v7.8h0c0.6-1.3,2-2.4,3.8-2.4c3.3,0,4.2,2.2,4.2,5.2v7.3h-1.5v-7.3c0-2.1-0.4-3.9-2.9-3.9
		c-2.7,0-3.6,2.5-3.6,4.7v6.6h-1.5V13.5z"/>
	<path class="st1" d="M136.2,20.6h-2.8v7.9c0,1.1,0.4,2,1.6,2c0.6,0,1-0.1,1.4-0.3l0.1,1.2c-0.4,0.1-1.1,0.3-1.8,0.3
		c-2.7,0-2.8-1.8-2.8-4.1v-7.2h-2.4v-1.3h2.4v-3l1.5-0.5v3.5h2.8V20.6z"/>
</g>
<g class="st0">
	<path class="st1" d="M8.2,70.7H10l6.6,16.8H15L13.2,83H4.7l-1.8,4.5H1.3L8.2,70.7z M9,72.3l-3.6,9.2h7.3L9,72.3z"/>
	<path class="st1" d="M25.9,85.5L25.9,85.5c-0.7,1.5-2.4,2.3-3.9,2.3c-3.5,0-4-2.4-4-3.5c0-4.1,4.4-4.3,7.5-4.3h0.3v-0.6
		c0-2.1-0.7-3.1-2.8-3.1c-1.3,0-2.5,0.3-3.6,1v-1.5c0.9-0.5,2.5-0.8,3.6-0.8c3,0,4.3,1.4,4.3,4.6v5.4c0,1,0,1.7,0.1,2.6h-1.5V85.5z
		 M25.8,81.3h-0.4c-2.6,0-5.7,0.3-5.7,3c0,1.6,1.2,2.2,2.5,2.2c3.6,0,3.6-3.1,3.6-4.4V81.3z"/>
	<path class="st1" d="M37.6,70.7h4c2.7,0,5.3,0.9,5.3,4.1c0,2.1-1,3.4-3,3.8v0c2.1,0.4,3.6,1.8,3.6,4c0,3.6-3,4.8-6.5,4.8h-3.3V70.7
		z M39.3,86.1H41c2.2,0,4.8-0.6,4.8-3.3c0-3-2.6-3.3-5-3.3h-1.5V86.1z M39.3,78.1h1.8c1.8,0,4.1-0.5,4.1-3.1c0-2.4-2.2-2.8-3.6-2.8
		h-2.3V78.1z"/>
	<path class="st1" d="M50.8,69.5h1.5v7.8h0c0.2-0.6,1.4-2.4,3.8-2.4c3.6,0,5,2.7,5,6.4c0,3.6-1.7,6.4-5,6.4c-1.8,0-3-0.7-3.8-2.2h0
		v1.9h-1.5V69.5z M55.9,76.3c-2.8,0-3.6,2.9-3.6,5.1c0,2.2,0.9,5.1,3.6,5.1c2.9,0,3.6-2.7,3.6-5.1C59.5,79,58.8,76.3,55.9,76.3z"/>
	<path class="st1" d="M82.6,72.6c-1.1-0.6-2.6-0.7-3.7-0.7c-4.3,0-6.8,3.1-6.8,7.2c0,4.2,2.4,7.2,6.8,7.2c1.1,0,2.8-0.1,3.7-0.7
		l0.1,1.4c-0.9,0.6-2.8,0.7-3.8,0.7c-5.3,0-8.4-3.5-8.4-8.7c0-5.1,3.3-8.7,8.4-8.7c1,0,3,0.2,3.8,0.6L82.6,72.6z"/>
	<path class="st1" d="M94.9,76.9c-0.8-0.4-1.8-0.6-2.6-0.6c-3,0-4.6,2.1-4.6,5.1c0,2.8,1.7,5.1,4.4,5.1c1,0,1.8-0.2,2.8-0.6l0.1,1.4
		c-1,0.4-2,0.4-3.1,0.4c-3.9,0-5.9-3-5.9-6.4c0-3.8,2.4-6.4,6-6.4c1.5,0,2.5,0.3,3,0.5L94.9,76.9z"/>
	<path class="st1" d="M104.3,70.7h4.2c6,0,8.4,3.5,8.4,8.4c0,6.1-4.1,8.4-9.6,8.4h-2.9V70.7z M106,86.1h1.4c4.8,0,7.8-1.9,7.8-7.1
		c0-5.1-3-6.8-6.8-6.8H106V86.1z"/>
	<path class="st1" d="M130,87.5h-1.5v-1.9h0c-0.8,1.6-2.1,2.2-3.8,2.2c-3.4,0-5-2.8-5-6.4c0-3.7,1.4-6.4,5-6.4
		c2.4,0,3.6,1.8,3.8,2.4h0v-7.8h1.5V87.5z M124.8,86.5c2.7,0,3.6-2.9,3.6-5.1c0-2.2-0.9-5.1-3.6-5.1c-2.9,0-3.6,2.7-3.6,5.1
		C121.2,83.8,122,86.5,124.8,86.5z"/>
	<path class="st1" d="M140.5,70.7h8.2v1.4h-6.6v6h6.2v1.4h-6.2v6.5h6.8v1.4h-8.5V70.7z"/>
	<path class="st1" d="M160.5,87.1c-1.1,0.4-2.4,0.7-3.6,0.7c-4.1,0-5.6-2.7-5.6-6.4c0-3.7,2.1-6.4,5.2-6.4c3.5,0,4.9,2.8,4.9,6.1
		v0.8H153c0,2.6,1.4,4.7,4,4.7c1.1,0,2.7-0.5,3.4-0.9V87.1z M159.8,80.5c0-2.1-0.9-4.2-3.1-4.2c-2.2,0-3.6,2.2-3.6,4.2H159.8z"/>
	<path class="st1" d="M170.9,70.7h8v1.4h-6.3v6h6v1.4h-6v7.9h-1.7V70.7z"/>
	<path class="st1" d="M182.7,76.6h-2.5v-1.3h2.5v-0.9c0-2.6,0.1-5.2,3.2-5.2c0.5,0,1.1,0.1,1.4,0.2l-0.1,1.3
		c-0.3-0.2-0.8-0.3-1.2-0.3c-2.1,0-1.8,2.2-1.8,3.7v1.1h2.8v1.3h-2.8v10.9h-1.5V76.6z"/>
	<path class="st1" d="M207.9,79.9H204v-1.4h5.5v8.3c-1.7,0.7-3.4,1-5.2,1c-5.3,0-8.4-3.5-8.4-8.7c0-5.1,3.3-8.7,8.4-8.7
		c1.3,0,3.4,0.2,4.5,0.8l-0.2,1.5c-1.3-0.7-2.8-0.9-4.3-0.9c-4.3,0-6.8,3.1-6.8,7.2c0,4.2,2.4,7.2,6.8,7.2c1,0,2.8-0.1,3.6-0.6V79.9
		z"/>
	<path class="st1" d="M223.3,86.5c0,3.4-1.5,6.2-5.7,6.2c-1.6,0-3.1-0.5-3.7-0.6l0.1-1.5c0.9,0.5,2.3,0.9,3.6,0.9
		c3.9,0,4.2-2.8,4.2-6.3h0c-0.8,1.8-2.2,2.4-3.7,2.4c-3.9,0-5.2-3.4-5.2-6.1c0-3.7,1.4-6.4,5-6.4c1.6,0,2.7,0.2,3.8,1.7h0v-1.4h1.5
		V86.5z M218.1,86.2c2.7,0,3.7-2.6,3.7-4.8c0-3-0.9-5.1-3.6-5.1c-2.9,0-3.6,2.7-3.6,5.1C214.6,83.8,215.5,86.2,218.1,86.2z"/>
	<path class="st1" d="M233.8,70.7h1.7v7.4h8.5v-7.4h1.7v16.8H244v-7.9h-8.5v7.9h-1.7V70.7z"/>
	<path class="st1" d="M249.6,69.5h1.5v7.8h0c0.6-1.3,2-2.4,3.8-2.4c3.3,0,4.2,2.2,4.2,5.2v7.3h-1.5v-7.3c0-2.1-0.4-3.9-2.9-3.9
		c-2.7,0-3.6,2.5-3.6,4.7v6.6h-1.5V69.5z"/>
	<path class="st1" d="M269.6,70.7h1.7v16.8h-1.7V70.7z"/>
	<path class="st1" d="M276.5,72H275v-2h1.5V72z M275,75.3h1.5v12.2H275V75.3z"/>
	<path class="st1" d="M291.1,83.2c0,2.6-1.2,4.6-3.9,4.6c-0.5,0-1.2-0.1-1.7-0.3V86c0.4,0.2,1.1,0.3,1.6,0.3c1.8,0,2.4-1.5,2.4-3.1
		V70.7h1.7V83.2z"/>
	<path class="st1" d="M292.4,91.2c0.2,0.1,0.6,0.1,0.9,0.1c1.5,0,1.7-1.1,1.7-2.4V75.3h1.5v14c0,2-0.6,3.5-2.8,3.5
		c-0.6,0-1.1-0.1-1.3-0.1V91.2z M296.5,72H295v-2h1.5V72z"/>
	<path class="st1" d="M307.4,70.7h1.7v7.5l7.5-7.5h2.2l-8.1,7.9l8.8,8.9h-2.3l-8.1-8.4v8.4h-1.7V70.7z"/>
	<path class="st1" d="M321.6,69.5h1.5v10.8l5.5-5h1.9l-6,5.4l6.7,6.8h-2.1l-6-6.3v6.3h-1.5V69.5z"/>
	<path class="st1" d="M340.3,70.7h1.7v15.3h6.7v1.4h-8.4V70.7z"/>
	<path class="st1" d="M351,69.5h1.5v18H351V69.5z"/>
	<path class="st1" d="M363.1,70.7h2.6l6.1,14.7l6.1-14.7h2.4v16.8h-1.7V72.4h0l-6.1,15.1h-1.4l-6.3-15.1h0v15.1h-1.7V70.7z"/>
	<path class="st1" d="M399.1,87.5v-8.1c0-1.7-0.6-3.1-2.6-3.1c-1.7,0-3.3,1.4-3.3,4.5v6.8h-1.5v-8.1c0-1.7-0.6-3.1-2.6-3.1
		c-1.7,0-3.3,1.4-3.3,4.5v6.8h-1.5v-9.4c0-0.9,0-1.9-0.1-2.9h1.5v2.1l0,0c0.5-0.8,1.2-2.4,3.8-2.4c1.1,0,2.9,0.5,3.2,2.6h0
		c0.6-1.4,2-2.6,3.9-2.6c2.5,0,3.9,1.7,3.9,4.1v8.4H399.1z"/>
	<path class="st1" d="M410.9,70.7h2.1l8.5,14.7h0V70.7h1.7v16.8H421l-8.4-14.4h0v14.4h-1.7V70.7z"/>
	<path class="st1" d="M427,78.1c0-0.9,0-1.9-0.1-2.9h1.5v2.2h0c0.5-1.1,1.4-2.5,4-2.5c3,0,4.2,2,4.2,4.7v7.8H435v-7.4
		c0-2.3-0.8-3.8-2.9-3.8c-2.8,0-3.6,2.4-3.6,4.5v6.8H427V78.1z"/>
	<path class="st1" d="M453.8,70.5c5,0,7.4,4.1,7.4,8.7c0,5.1-2.5,8.7-7.4,8.7s-7.3-3.5-7.4-8.7C446.3,74.6,448.7,70.5,453.8,70.5z
		 M448,79.1c0,3.6,1.8,7.2,5.7,7.2s5.7-3.7,5.7-7.2c0-3.6-1.8-7.2-5.7-7.2S448,75.6,448,79.1z"/>
	<path class="st1" d="M469.1,75c4,0,5.7,3.1,5.7,6.4c0,3.3-1.8,6.4-5.7,6.4c-4,0-5.7-3.1-5.7-6.4C463.4,78,465.1,75,469.1,75z
		 M469.1,86.5c2.6,0,4.1-2.3,4.1-5.1c0-2.8-1.4-5.1-4.1-5.1c-2.6,0-4.1,2.3-4.1,5.1C465,84.2,466.5,86.5,469.1,86.5z"/>
	<path class="st1" d="M484.5,70.7h4.1c3.1,0,5.2,1.6,5.2,4.8c0,3.1-2.4,4.8-5.4,4.8h-2.3v7.2h-1.7V70.7z M486.2,78.8h1.2
		c2.5,0,4.8-0.3,4.8-3.3c0-2.1-1.2-3.3-3.3-3.3h-2.7V78.8z"/>
	<path class="st1" d="M496.2,75.3h1.5l-0.1,2.2h0c0.4-0.7,1.3-2.5,3.9-2.5c3.6,0,5,2.7,5,6.4c0,3.6-1.7,6.4-5,6.4
		c-1.9,0-3.1-0.8-3.8-2.4h0v7.1h-1.5V75.3z M501.3,76.3c-2.7,0-3.6,2.9-3.6,5.1c0,2.2,0.9,5.1,3.6,5.1c2.9,0,3.6-2.7,3.6-5.1
		C504.9,79,504.2,76.3,501.3,76.3z"/>
</g>
<g class="st0">
	<path class="st1" d="M14,122.6l-3-3c-0.4,0.1-0.9,0.1-1.4,0.1c-4.8,0-7.3-3.5-7.4-8.7c0-4.5,2.3-8.7,7.4-8.7c5,0,7.4,4.1,7.4,8.7
		c0,3.9-1.5,6.9-4.3,8.1l3.5,3.4H14z M4,111.1c0,3.6,1.8,7.2,5.7,7.2c3.9,0,5.7-3.7,5.7-7.2c0-3.6-1.8-7.2-5.7-7.2
		C5.7,103.9,4,107.6,4,111.1z"/>
	<path class="st1" d="M29.9,124.5h-1.5v-7.1h0c-0.7,1.6-1.9,2.4-3.8,2.4c-3.4,0-5-2.8-5-6.4c0-3.7,1.4-6.4,5-6.4
		c2.6,0,3.5,1.8,3.8,2.3h0v-2h1.5V124.5z M24.8,118.5c2.7,0,3.6-2.9,3.6-5.1c0-2.2-0.9-5.1-3.6-5.1c-2.9,0-3.6,2.7-3.6,5.1
		C21.2,115.8,21.9,118.5,24.8,118.5z"/>
	<path class="st1" d="M40.5,102.7h4.3c3,0,4.9,1.3,4.9,4.3c0,2.2-1.7,3.6-3.7,3.9v0c1.3,0.2,1.6,0.9,2.2,2l2.9,6.5h-1.8l-2.4-5.7
		c-1-2.2-1.7-2.2-3.3-2.2h-1.4v7.9h-1.7V102.7z M42.1,110.2h1.8c1.9,0,4.2-0.7,4.2-3.1c0-2.7-1.9-2.9-4.2-2.9h-1.7V110.2z"/>
	<path class="st1" d="M53.6,110c0-1.3,0-1.8-0.1-2.7H55v2.4h0c0.6-1.4,1.6-2.6,3.1-2.6c0.4,0,0.8,0.1,1.1,0.1v1.6
		c-0.3-0.1-0.7-0.1-1.1-0.1c-2.4,0-3,2.7-3,4.9v6h-1.5V110z"/>
	<path class="st1" d="M68,117.4c1,0.6,2.1,1,3.7,1c2.1,0,3.8-1.1,3.8-3.4c0-3.3-7.7-3.7-7.7-8.1c0-2.7,2.4-4.4,5.3-4.4
		c0.8,0,2.1,0.1,3.3,0.6l-0.3,1.5c-0.7-0.4-1.9-0.6-3-0.6c-1.7,0-3.6,0.7-3.6,2.9c0,3.4,7.7,3.4,7.7,8.3c0,3.4-2.9,4.7-5.5,4.7
		c-1.6,0-2.9-0.3-3.8-0.7L68,117.4z"/>
	<path class="st1" d="M79.3,117.7c0.9,0.5,2,0.8,3.2,0.8c1.4,0,2.7-0.8,2.7-2.2c0-2.9-5.9-2.4-5.9-6c0-2.4,2-3.3,4-3.3
		c0.6,0,1.9,0.1,3,0.6l-0.1,1.3c-0.8-0.4-1.9-0.6-2.7-0.6c-1.6,0-2.6,0.5-2.6,2c0,2.3,6,2,6,6c0,2.6-2.4,3.5-4.3,3.5
		c-1.2,0-2.4-0.1-3.4-0.6L79.3,117.7z"/>
	<path class="st1" d="M99.5,104.2h-4.9v-1.4h11.5v1.4h-4.9v15.3h-1.7V104.2z"/>
	<path class="st1" d="M113.5,108.6h-2.8v7.9c0,1.1,0.4,2,1.6,2c0.6,0,1-0.1,1.4-0.3l0.1,1.2c-0.4,0.1-1.1,0.3-1.8,0.3
		c-2.7,0-2.8-1.8-2.8-4.1v-7.2h-2.4v-1.3h2.4v-3l1.5-0.5v3.5h2.8V108.6z"/>
	<path class="st1" d="M135.1,113.6c0,4.9-3.6,6.1-6.1,6.1s-6.1-1.2-6.1-6.1v-10.9h1.7v10.9c0,2.7,1.5,4.7,4.4,4.7s4.4-2,4.4-4.7
		v-10.9h1.7V113.6z"/>
	<path class="st1" d="M148.5,116.6c0,0.9,0,1.9,0.1,2.9h-1.5v-2.2h0c-0.5,1.1-1.4,2.5-4,2.5c-3,0-4.2-2-4.2-4.7v-7.8h1.5v7.4
		c0,2.3,0.8,3.8,2.9,3.8c2.8,0,3.6-2.4,3.6-4.5v-6.8h1.5V116.6z"/>
	<path class="st1" d="M165.2,119.5h-1.8l-6.2-16.8h1.8l5.4,15.1l5.6-15.1h1.6L165.2,119.5z"/>
	<path class="st1" d="M177.9,119.5h-1.8l-4.2-12.2h1.7l3.4,10.6h0l3.6-10.6h1.6L177.9,119.5z"/>
	<path class="st1" d="M206.6,119.5h-2l-4.2-14.9h0l-4.3,14.9h-2l-4.8-16.8h1.7l4.1,14.9h0l4.3-14.9h2l4.2,14.9h0l4.2-14.9h1.6
		L206.6,119.5z"/>
	<path class="st1" d="M226.2,119.5h-1.8l-3.3-10.6h0l-3.3,10.6h-1.8l-3.9-12.2h1.7l3.2,10.6h0l3.4-10.6h1.8l3.2,10.6h0l3.4-10.6h1.5
		L226.2,119.5z"/>
	<path class="st1" d="M243.4,110.7l-5.6-7.9h1.9l4.7,6.8l4.8-6.8h1.8l-5.6,7.9l6.1,8.8h-2l-5.1-7.6l-5.3,7.6h-1.9L243.4,110.7z"/>
	<path class="st1" d="M256.2,113l-3.9-5.8h1.9l2.9,4.6l3-4.6h1.7L258,113l4.2,6.5h-1.9l-3.2-5.3l-3.4,5.3h-1.8L256.2,113z"/>
	<path class="st1" d="M275.5,112.4l-6.2-9.6h1.9l5.1,8.2l5.3-8.2h1.8l-6.2,9.6v7.1h-1.7V112.4z"/>
	<path class="st1" d="M289,117.5L289,117.5l3.6-10.2h1.6l-4.9,14.1c-0.6,1.7-1.4,3.4-3.1,3.4c-0.6,0-1.1-0.1-1.6-0.2l0.1-1.3
		c0.3,0.1,0.6,0.2,1.1,0.2c1.3,0,1.7-1.1,2.2-2.7l0.3-1.1l-4.3-12.4h1.7L289,117.5z"/>
	<path class="st1" d="M301.5,118.1l8.7-13.9h-8.5v-1.4H312v1.4l-8.7,13.9h9v1.4h-10.8V118.1z"/>
	<path class="st1" d="M313.8,118.2l7.4-9.7h-7.1v-1.3h8.8v1.3l-7.4,9.6h7.4v1.3h-9.1V118.2z"/>
</g>
<g class="st0">
	<path class="st1" d="M7.7,134.7h1.5v16.8H7.6v-14.9L4.9,139L4,137.9L7.7,134.7z"/>
	<path class="st1" d="M15.5,150.1l3.8-4.2c2-2.2,4-4.7,4-6.8c0-1.8-1.3-3-3-3c-1.5,0-2.7,0.4-4,1.2l-0.3-1.5
		c1.2-0.6,2.9-1.1,4.2-1.1c2.7,0,4.8,1.4,4.8,4.4c0,2.5-2.4,5.4-4.6,7.8l-3,3.3h8v1.4H15.5V150.1z"/>
	<path class="st1" d="M31.3,142.1h0.4c2.3,0,5.7-0.2,5.7-3.4c0-1.9-2-2.7-3.8-2.7c-1.3,0-2.6,0.3-3.7,0.9l-0.1-1.6
		c1.2-0.5,2.7-0.8,4.1-0.8c2.8,0,5.3,1.2,5.3,4.2c0,2-1.4,3.5-3.5,4v0c2.2,0.1,3.5,1.8,3.5,4.1c0,3-2.7,4.8-6,4.8
		c-1.4,0-2.8-0.2-4.1-0.7l0.2-1.6c1.4,0.6,2.8,0.8,4,0.8c2,0,4.3-1,4.3-3.5c0-2.9-2.8-3.2-4.6-3.2h-1.5V142.1z"/>
	<path class="st1" d="M41.6,146l7.5-11.3h2.1v11.4h2.5v1.4h-2.5v3.9h-1.7v-3.9h-8V146z M49.6,136.4L49.6,136.4l-6.5,9.8h6.5V136.4z"
		/>
	<path class="st1" d="M65.4,136.2h-6.9l-0.1,5.4c0.6-0.2,1.2-0.4,2.5-0.4c3.2,0,5.3,1.8,5.3,4.9c0,3.7-2.5,5.6-6.1,5.6
		c-1.2,0-2.4-0.2-3.6-0.6v-1.7c1.1,0.6,2.4,0.9,3.6,0.9c2.2,0,4.4-1.2,4.4-3.8c0-2.6-1.4-3.8-4.2-3.8c-1.4,0-2.4,0.2-3.6,0.5
		l0.2-8.4h8.6V136.2z"/>
	<path class="st1" d="M69,143.7c0-5.1,1.9-9.1,7.6-9.1c0.9,0,1.8,0.2,2.7,0.4l-0.1,1.6c-0.7-0.3-1.8-0.5-2.8-0.5
		c-4.3-0.1-5.7,3.6-5.7,7h0c0.9-1.4,2.4-2.1,3.9-2.1c2.2,0,5.2,1.1,5.2,5.2c0,3.3-2,5.5-5.5,5.5C70,151.7,69,147.7,69,143.7z
		 M70.9,146.1c0,2.1,1.1,4.2,3.6,4.2c2.4,0,3.8-1.7,3.8-4c0-2.4-1.2-3.9-3.6-3.9C72.3,142.4,70.9,143.9,70.9,146.1z"/>
	<path class="st1" d="M91,136.2h-8.6v-1.4h10.2v1.4l-6.5,15.3h-1.8L91,136.2z"/>
	<path class="st1" d="M101.1,134.6c2.6,0,5,1.2,5,3.9c0,2.1-1.8,3.4-3.4,4.3c2.3,0.8,4,1.8,4,4.4c0,3.3-2.9,4.5-5.6,4.5
		c-2.7,0-5.6-1.4-5.6-4.5c0-2.6,1.7-3.6,3.9-4.4c-1.7-0.8-3.3-2.1-3.3-4.3C96,135.7,99,134.6,101.1,134.6z M101.1,143.4
		c-1.9,0.8-3.9,1.5-3.9,3.8c0,1.9,2,3,3.9,3c2,0,3.9-0.9,3.9-3.2C105,144.9,102.6,144.2,101.1,143.4z M101.1,142.2
		c1.5-0.7,3.4-1.8,3.4-3.6c0-1.8-1.8-2.6-3.4-2.6c-1.8,0-3.4,0.9-3.4,2.6C97.7,140.6,99.7,141.5,101.1,142.2z"/>
	<path class="st1" d="M119.8,142.5c0,5.1-1.9,9.1-7.6,9.1c-0.9,0-1.8-0.2-2.7-0.4l0.1-1.6c0.7,0.3,1.8,0.5,2.8,0.5
		c4.3,0.1,5.7-3.6,5.7-7h0c-0.9,1.4-2.4,2.1-3.9,2.1c-2.2,0-5.2-1.1-5.2-5.2c0-3.3,2-5.5,5.5-5.5
		C118.8,134.6,119.8,138.6,119.8,142.5z M118,140.2c0-2.1-1.1-4.2-3.6-4.2c-2.4,0-3.8,1.7-3.8,4c0,2.4,1.2,3.9,3.6,3.9
		C116.5,143.9,118,142.4,118,140.2z"/>
	<path class="st1" d="M133.3,143.1c0,3.5-0.7,8.5-5.5,8.5c-4.8,0-5.5-5-5.5-8.5c0-3.9,1-8.5,5.5-8.5S133.3,139.2,133.3,143.1z
		 M123.9,143.1c0,2.8,0.4,7.1,3.8,7.1c3.5,0,3.8-4.3,3.8-7.1s-0.4-7.1-3.8-7.1C124.3,136,123.9,140.3,123.9,143.1z"/>
	<path class="st1" d="M146.2,154.9c-2.1-3.3-4.1-6.7-4.1-10.8s2-7.5,4.1-10.8h1c-1.8,3.4-3.6,6.9-3.6,10.8s1.8,7.4,3.6,10.8H146.2z"
		/>
	<path class="st1" d="M150.5,149.5h2l-1.9,5.2h-1.5L150.5,149.5z"/>
	<path class="st1" d="M156.8,149.5h1.9v2h-1.9V149.5z"/>
	<path class="st1" d="M163.8,149.5h2l-1.9,5.2h-1.5L163.8,149.5z M165.4,141.3h-1.9v-2h1.9V141.3z"/>
	<path class="st1" d="M172.1,141.3h-1.9v-2h1.9V141.3z M170.2,149.5h1.9v2h-1.9V149.5z"/>
	<path class="st1" d="M187.2,145.1c-0.1,0.4-0.2,0.8-0.2,1.2c0,0.3,0.1,0.6,0.5,0.6c1.8,0,3.5-2.4,3.5-5.1c0-3.7-3.3-5.8-6.9-5.8
		c-4,0-7.1,3-7.1,7.2c0,4.2,3,7.2,7.1,7.2c2.7,0,5-1.1,6.3-2.7h1.5c-1.5,2.6-4.4,4.1-7.8,4.1c-5.8,0-8.7-4.3-8.7-8.7
		c0-4.3,2.9-8.7,8.7-8.7c4.2,0,8.5,2.5,8.5,7.2c0,4.1-3.4,6.6-5.4,6.6c-1.1,0-1.7-0.5-1.9-1.5h0c-0.6,0.7-1.3,1.5-3,1.5
		c-1.9,0-3.2-1.6-3.2-3.6c0-3.1,2.2-6.5,5.5-6.5c1.1,0,2.1,0.6,2.6,1.8l0.5-1.4h1.5L187.2,145.1z M182.6,146.8
		c2.3,0,3.9-3.1,3.9-5.1c0-1.7-1.1-2.2-1.9-2.2c-1.5,0-3.7,2-3.7,4.9C180.9,146,181.6,146.8,182.6,146.8z"/>
	<path class="st1" d="M195.7,135.1c1.1-0.3,2.3-0.6,3.5-0.6c2.5,0,4.6,1.3,4.6,4.3c0,4-4.1,4.5-4.1,8.3v0.4h-1.5v-0.3
		c0-4.4,4-4.6,4-8.4c0-1.8-1.3-2.9-3-2.9c-1.3,0-2.3,0.3-3.4,0.7L195.7,135.1z M198,149.5h1.9v2H198V149.5z"/>
	<path class="st1" d="M211,147.4h-1.4l-0.3-12.7h1.9L211,147.4z M209.4,149.5h1.9v2h-1.9V149.5z"/>
	<path class="st1" d="M216.6,150.1h2.5v-6.9h-2.2v-1.3h2.2v-1.2c0-3.1,1-6.1,5.3-6.1c1.2,0,2.3,0.3,2.7,0.5l-0.2,1.5
		c-0.4-0.3-1.2-0.6-2.4-0.6c-3.2,0-3.6,2.6-3.6,4.8v1h4v1.3h-4v6.9h5.9v1.4h-10V150.1z"/>
	<path class="st1" d="M240.2,147.4c1.1-1.5,1.4-3.3,1.4-5.1h1.4c0,2.2-0.6,4.4-1.9,6l2.9,3.1h-2.1l-1.8-1.9
		c-1.4,1.5-3.1,2.2-5.1,2.2c-2.8,0-5.5-1.4-5.5-4.7c0-2.6,1.7-4,4-4.9c-1-1.2-2.2-2.4-2.2-4.1c0-2.4,2.3-3.6,4.5-3.6
		c2,0,3.9,1.1,3.9,3.5c0,2.6-2,3.6-4,4.6L240.2,147.4z M234.4,143.2c-1.6,0.6-3.1,2-3.1,3.9c0,2.3,1.9,3.5,3.9,3.5
		c1.5,0,3.2-0.8,4.1-1.9L234.4,143.2z M234.9,141.6c1.5-0.7,3.2-1.5,3.2-3.4c0-1.6-1-2.4-2.4-2.4s-2.8,0.8-2.8,2.4
		C233,139.5,234,140.6,234.9,141.6z"/>
	<path class="st1" d="M251.7,134.7l-0.2,3.7l3.5-1.3l0.5,1.4l-3.5,1l2.3,2.9l-1.2,0.9l-2.1-3.1l-2,3.1l-1.2-0.9l2.3-2.9l-3.5-1
		l0.4-1.4l3.5,1.3l-0.2-3.7H251.7z"/>
	<path class="st1" d="M264,134.6c2.7,0,3.8,1.9,3.8,4.5c0,2.6-1.1,4.5-3.8,4.5s-3.8-1.9-3.8-4.5C260.2,136.5,261.4,134.6,264,134.6z
		 M264,142.3c1.8,0,2.3-1.7,2.3-3.2c0-1.5-0.5-3.2-2.3-3.2s-2.3,1.7-2.3,3.2C261.7,140.6,262.2,142.3,264,142.3z M274,134.2h1.4
		l-9.9,17.8H264L274,134.2z M275.4,142.7c2.7,0,3.8,1.9,3.8,4.5s-1.1,4.5-3.8,4.5s-3.8-1.9-3.8-4.5S272.7,142.7,275.4,142.7z
		 M275.4,150.4c1.8,0,2.3-1.7,2.3-3.2s-0.5-3.2-2.3-3.2s-2.3,1.7-2.3,3.2S273.6,150.4,275.4,150.4z"/>
	<path class="st1" d="M283.3,133.4c2.1,3.3,4.1,6.7,4.1,10.8s-2,7.5-4.1,10.8h-1c1.8-3.4,3.6-6.9,3.6-10.8s-1.8-7.4-3.6-10.8H283.3z
		"/>
</g>
<g class="st0">
	<path class="st1" d="M3,206.7h8.9v2.1H5.4v4.9h6.2v2.1H5.4v7.6H3V206.7z"/>
	<path class="st1" d="M14.9,211.3H17v1.9h0c0.6-1.3,1.9-2.2,3.2-2.2c0.7,0,1,0.1,1.5,0.2v2c-0.4-0.2-0.9-0.2-1.2-0.2
		c-2,0-3.3,1.9-3.3,5v5.6h-2.3V211.3z"/>
	<path class="st1" d="M35.1,223.5h-2.2v-1.9h0c-0.7,1.4-2.3,2.2-4,2.2c-3.2,0-4.6-2-4.6-5.3v-7.3h2.3v6.3c0,2.9,0.6,4.2,2.6,4.4
		c2.6,0,3.7-2.1,3.7-5v-5.7h2.3V223.5z"/>
	<path class="st1" d="M45.4,213.1h-3.2v6.7c0,1.4,0.9,2.2,1.9,2.2c0.7,0,1.2-0.2,1.5-0.4v1.9c-0.5,0.1-1.2,0.3-1.9,0.3
		c-2.3,0-3.8-1.1-3.8-3.6v-7.2h-2.8v-1.8h2.8v-2.8l2.3-0.7v3.6h3.2V213.1z"/>
	<path class="st1" d="M50.9,208.5h-2.5V206h2.5V208.5z M48.5,211.3h2.3v12.2h-2.3V211.3z"/>
	<path class="st1" d="M65.8,223c0,3.7-1.9,5.9-6.3,5.9c-1.3,0-2.4-0.2-4.4-0.8l0.2-2.1c1.7,0.8,2.8,1.1,4.4,1.1
		c2.4,0,3.8-1.6,3.8-4.2v-1.2h0c-1,1.3-2.5,1.9-4.1,1.9c-3.5,0-5.2-2.9-5.2-6c0-3.1,1.8-6.5,5.5-6.5c2.2,0,3.4,0.8,4,2.1h0v-1.8h2.1
		V223z M63.5,217.5c0-2.5-1.2-4.7-3.6-4.7c-2.3,0-3.4,2.5-3.4,4.6c0,2.3,1.3,4.3,3.4,4.3S63.5,219.8,63.5,217.5z"/>
	<path class="st1" d="M79,223c-0.9,0.3-1.8,0.8-3.9,0.8c-4.3,0-6.3-2.6-6.3-6.6c0-3.6,2.3-6.2,5.7-6.2c4.1,0,5.4,3,5.4,6.9h-8.7
		c0,2.4,1.9,4.1,4,4.1c1.5,0,3.2-0.8,3.8-1.2V223z M77.5,216.2c0-1.9-1.1-3.4-3-3.4c-2.2,0-3.1,1.8-3.3,3.4H77.5z"/>
	<path class="st1" d="M82.9,211.3H85v1.9h0c0.6-1.3,1.9-2.2,3.2-2.2c0.7,0,1,0.1,1.5,0.2v2c-0.4-0.2-0.9-0.2-1.2-0.2
		c-2,0-3.3,1.9-3.3,5v5.6h-2.3V211.3z"/>
	<path class="st1" d="M99,206.7h4.1c3.3,0,6.5,0.5,6.5,4.5c0,2-1.5,3.5-3.5,3.8v0c0.7,0.3,1.1,0.6,1.6,1.7l3.2,6.7h-2.7l-2.6-5.8
		c-0.7-1.6-1.5-1.6-2.8-1.6h-1.4v7.4H99V206.7z M101.4,213.9h2c2.3,0,3.6-1,3.6-2.6c0-1.5-1.2-2.5-3.4-2.5h-2.3V213.9z"/>
	<path class="st1" d="M119,211c3.7,0,6.2,2.7,6.2,6.4c0,3.5-2.5,6.4-6.2,6.4c-3.7,0-6.2-2.9-6.2-6.4C112.8,213.7,115.3,211,119,211z
		 M119,222c2.6,0,3.8-2.4,3.8-4.6c0-2.3-1.4-4.6-3.8-4.6c-2.4,0-3.8,2.3-3.8,4.6C115.2,219.6,116.4,222,119,222z"/>
	<path class="st1" d="M128.2,211.3h2.1v1.8h0c0.9-1.4,2.1-2.1,3.9-2.1c1.4,0,2.8,0.7,3.5,2.4c0.8-1.8,2.7-2.4,3.8-2.4
		c3.1,0,4.2,2,4.2,4.7v7.8h-2.3v-7.3c0-1.5-0.4-3.4-2.2-3.4c-2.3,0-3.2,2.3-3.2,4.5v6.2h-2.3v-7.3c0-1.5-0.4-3.4-2.2-3.4
		c-2.3,0-3.2,2.3-3.2,4.5v6.2h-2.3V211.3z"/>
	<path class="st1" d="M150.2,212.1c1.1-0.7,2.5-1.2,4-1.2c3.5,0,4.9,1.7,4.9,5.1v5.1c0,1.4,0,2,0.1,2.4h-2.1v-1.6h0
		c-0.5,0.7-1.7,1.9-3.8,1.9c-2.6,0-4.5-1.2-4.5-3.8c0-3.1,3.4-4,5.7-4c0.9,0,1.5,0,2.4,0c0-2.1-0.8-3.2-3-3.2
		c-1.3,0-2.6,0.5-3.6,1.2L150.2,212.1z M156.9,217.7c-0.5,0-1,0-1.4,0c-1.2,0-4.2,0.2-4.2,2.4c0,1.3,1.2,2,2.3,2
		c2.2,0,3.4-1.4,3.4-3.2V217.7z"/>
	<path class="st1" d="M163,211.3h2.2v1.9h0c0.7-1.4,2.3-2.2,4-2.2c3.2,0,4.6,2,4.6,5.3v7.3h-2.3v-6.3c0-2.9-0.6-4.2-2.6-4.4
		c-2.6,0-3.7,2.1-3.7,5v5.7H163V211.3z"/>
</g>
<g class="st0">
	<path class="st1" d="M8.4,262.7H11l7.1,16.8h-2.6l-1.7-4.2H5.5l-1.7,4.2H1.3L8.4,262.7z M9.6,265l-3.3,8.3H13L9.6,265z"/>
	<path class="st1" d="M20.8,268.1c1.1-0.7,2.5-1.2,4-1.2c3.5,0,4.9,1.7,4.9,5.1v5.1c0,1.4,0,2,0.1,2.4h-2.1v-1.6h0
		c-0.5,0.7-1.7,1.9-3.8,1.9c-2.6,0-4.5-1.2-4.5-3.8c0-3.1,3.4-4,5.7-4c0.9,0,1.5,0,2.4,0c0-2.1-0.8-3.2-3-3.2
		c-1.3,0-2.6,0.5-3.6,1.2L20.8,268.1z M27.5,273.7c-0.5,0-1,0-1.4,0c-1.2,0-4.2,0.2-4.2,2.4c0,1.3,1.2,2,2.3,2
		c2.2,0,3.4-1.4,3.4-3.2V273.7z"/>
	<path class="st1" d="M40.3,262.7h4.5c3.5,0,5.9,1.1,5.9,4.2c0,2.3-1.3,3.5-3.5,4v0c2.3,0.2,3.9,1.7,3.9,4c0,3.6-3,4.5-6.4,4.5h-4.5
		V262.7z M42.7,269.9h1.3c2.3,0,4.3-0.2,4.3-2.7c0-2-1.7-2.5-3.1-2.5h-2.5V269.9z M42.7,277.5h1.8c2.2,0,4.1-0.5,4.1-2.7
		c0-2.6-2.3-3-4.3-3h-1.6V277.5z"/>
	<path class="st1" d="M54.9,261.5h2.3v7.4h0c0.7-1.1,1.9-2,4.1-2c3.6,0,5.3,2.9,5.3,6.2c0,3.4-1.6,6.6-5.3,6.6c-2.2,0-3.6-1.1-4.2-2
		h0v1.7h-2.2V261.5z M60.8,268.8c-2.4,0-3.6,2.3-3.6,4.6c0,2,1.1,4.6,3.6,4.6c2.4,0,3.4-2.7,3.4-4.6
		C64.2,271.1,63.3,268.8,60.8,268.8z"/>
	<path class="st1" d="M88,265.5c-1.1-0.6-2.2-0.9-3.5-0.9c-3.9,0-6.4,2.8-6.4,6.6c0,3.9,2.8,6.6,6.3,6.6c1.2,0,2.8-0.3,3.6-0.8
		l0.1,2.3c-1.3,0.5-2.8,0.6-3.8,0.6c-5.3,0-8.8-3.4-8.8-8.7c0-5.2,3.7-8.6,8.9-8.6c1.3,0,2.6,0.2,3.8,0.7L88,265.5z"/>
	<path class="st1" d="M98.7,269.3c-0.9-0.4-1.7-0.5-2.4-0.5c-2.5,0-3.9,2.3-3.9,4.6c0,2.2,1.2,4.6,4.1,4.6c0.8,0,1.7-0.2,2.4-0.7
		l0.2,2c-0.9,0.4-2,0.5-2.8,0.5c-3.7,0-6.2-2.9-6.2-6.4c0-3.7,2.5-6.4,6.2-6.4c0.9,0,2.1,0.2,2.7,0.5L98.7,269.3z"/>
	<path class="st1" d="M108.3,262.7h4.9c5,0,8.9,3.1,8.9,8.2c0,5.6-3.4,8.5-8.9,8.5h-4.9V262.7z M110.7,277.4h2.5
		c4.1,0,6.4-2,6.4-6.3c0-3.9-2.7-6.2-6.1-6.2h-2.8V277.4z"/>
	<path class="st1" d="M134.2,277.8L134.2,277.8c-0.6,0.9-2,2-4.2,2c-3.7,0-5.3-3.3-5.3-6.6c0-3.3,1.7-6.2,5.3-6.2
		c2.1,0,3.4,0.8,4.1,2h0v-7.4h2.3v18h-2.2V277.8z M130.6,278c2.5,0,3.6-2.5,3.6-4.6c0-2.3-1.2-4.6-3.6-4.6s-3.4,2.3-3.4,4.5
		C127.1,275.3,128.1,278,130.6,278z"/>
	<path class="st1" d="M147.3,262.7h9.4v2.1h-7v4.9h6.4v2.1h-6.4v5.5h7v2.1h-9.4V262.7z"/>
	<path class="st1" d="M169.6,279c-0.9,0.3-1.8,0.8-3.9,0.8c-4.3,0-6.3-2.6-6.3-6.6c0-3.6,2.3-6.2,5.7-6.2c4.1,0,5.4,3,5.4,6.9h-8.7
		c0,2.4,1.9,4.1,4,4.1c1.5,0,3.2-0.8,3.8-1.2V279z M168.2,272.2c0-1.9-1.1-3.4-3-3.4c-2.2,0-3.1,1.8-3.3,3.4H168.2z"/>
	<path class="st1" d="M180.4,262.7h8.9v2.1h-6.5v4.9h6.2v2.1h-6.2v7.6h-2.4V262.7z"/>
	<path class="st1" d="M193.7,269.1h-2.9v-1.8h2.9v-1.1c0-3,0.8-4.9,4.1-4.9c0.6,0,1.1,0.1,1.5,0.1l-0.1,1.8
		c-0.3-0.1-0.7-0.1-1.1-0.1c-1.9,0-2.2,1.2-2.2,2.9v1.3h3.2v1.8H196v10.4h-2.3V269.1z"/>
	<path class="st1" d="M221.2,265.7c-1.2-0.8-2.4-1.2-4.6-1.2c-3.9,0-6.4,2.8-6.4,6.6c0,3.9,2.8,6.6,6.3,6.6c1.7,0,2.1-0.2,2.7-0.3
		v-5.1h-3.5v-2h5.9v8.7c-0.9,0.3-2.5,0.7-5.1,0.7c-5.3,0-8.8-3.4-8.8-8.7c0-5.2,3.7-8.6,8.9-8.6c2.4,0,3.5,0.4,4.9,0.8L221.2,265.7z
		"/>
	<path class="st1" d="M236.4,279c0,3.7-1.9,5.9-6.3,5.9c-1.3,0-2.4-0.2-4.4-0.8l0.2-2.1c1.7,0.8,2.8,1.1,4.4,1.1
		c2.4,0,3.8-1.6,3.8-4.2v-1.2h0c-1,1.3-2.5,1.9-4.1,1.9c-3.5,0-5.2-2.9-5.2-6c0-3.1,1.8-6.5,5.5-6.5c2.2,0,3.4,0.8,4,2.1h0v-1.8h2.1
		V279z M234.2,273.5c0-2.5-1.2-4.7-3.6-4.7c-2.3,0-3.4,2.5-3.4,4.6c0,2.3,1.3,4.3,3.4,4.3S234.2,275.8,234.2,273.5z"/>
	<path class="st1" d="M247.3,262.7h2.4v7h8v-7h2.4v16.8h-2.4v-7.6h-8v7.6h-2.4V262.7z"/>
	<path class="st1" d="M264.3,261.5h2.3v7.5h0c0.8-1.3,2.2-2,3.9-2c3.2,0,4.6,2,4.6,5.3v7.3h-2.3v-6.3c0-2.9-0.6-4.2-2.6-4.4
		c-2.6,0-3.7,2.1-3.7,5v5.7h-2.3V261.5z"/>
	<path class="st1" d="M285.8,262.7h2.4v16.8h-2.4V262.7z"/>
	<path class="st1" d="M295,264.5h-2.5V262h2.5V264.5z M292.6,267.3h2.3v12.2h-2.3V267.3z"/>
	<path class="st1" d="M304.2,277.4c0.5,0.2,1.1,0.2,1.5,0.2c2.2,0,2.7-1.2,2.7-3.3v-11.7h2.4v12.4c0,2.4-1.1,4.6-4.7,4.6
		c-0.8,0-1.4-0.1-1.9-0.3V277.4z"/>
	<path class="st1" d="M312.7,282.8c0.3,0,0.5,0.1,0.9,0.1c1.1,0,1.6-1,1.6-2.6v-13h2.3v12.7c0,1.8-0.1,4.9-3.5,4.9
		c-0.5,0-1.1,0-1.4-0.1L312.7,282.8z M317.7,264.5h-2.5V262h2.5V264.5z"/>
	<path class="st1" d="M328.6,262.7h2.4v7.4l7.2-7.4h3.2l-7.9,7.9l8.5,8.8h-3.5l-7.5-8.2v8.2h-2.4V262.7z"/>
	<path class="st1" d="M344.3,261.5h2.3v10.7l4.9-5h3.1l-5.7,5.4l6.4,6.8H352l-5.5-6.3v6.3h-2.3V261.5z"/>
	<path class="st1" d="M364.5,262.7h2.4v14.6h7v2.1h-9.4V262.7z"/>
	<path class="st1" d="M376.6,261.5h2.3v18h-2.3V261.5z"/>
	<path class="st1" d="M389.9,262.7h4l5.3,13.9l5.2-13.9h4v16.8h-2.4V265h0l-5.5,14.5h-2.4l-5.5-14.5h0v14.5h-2.4V262.7z"/>
	<path class="st1" d="M412.3,267.3h2.1v1.8h0c0.9-1.4,2.1-2.1,3.9-2.1c1.4,0,2.8,0.7,3.5,2.4c0.8-1.8,2.7-2.4,3.8-2.4
		c3.1,0,4.2,2,4.2,4.7v7.8h-2.3v-7.3c0-1.5-0.4-3.4-2.2-3.4c-2.3,0-3.2,2.3-3.2,4.5v6.2H420v-7.3c0-1.5-0.4-3.4-2.2-3.4
		c-2.3,0-3.2,2.3-3.2,4.5v6.2h-2.3V267.3z"/>
	<path class="st1" d="M440.5,262.7h3.3l7.4,13.5h0v-13.5h2.4v16.8h-3.1l-7.6-13.8h0v13.8h-2.4V262.7z"/>
	<path class="st1" d="M457.7,267.3h2.2v1.9h0c0.7-1.4,2.3-2.2,4-2.2c3.2,0,4.6,2,4.6,5.3v7.3h-2.3v-6.3c0-2.9-0.6-4.2-2.6-4.4
		c-2.6,0-3.7,2.1-3.7,5v5.7h-2.3V267.3z"/>
	<path class="st1" d="M486.4,262.5c5.1,0,8.1,3.7,8.1,8.7c0,5.1-3,8.7-8.1,8.7s-8.1-3.6-8.1-8.7
		C478.4,266.2,481.3,262.5,486.4,262.5z M486.4,277.7c3.9,0,5.5-3.2,5.5-6.6c0-3.4-1.8-6.6-5.5-6.6c-3.7,0-5.5,3.1-5.5,6.6
		C480.9,274.5,482.6,277.7,486.4,277.7z"/>
	<path class="st1" d="M503.1,267c3.7,0,6.2,2.7,6.2,6.4c0,3.5-2.5,6.4-6.2,6.4c-3.7,0-6.2-2.9-6.2-6.4
		C496.9,269.7,499.4,267,503.1,267z M503.1,278c2.6,0,3.8-2.4,3.8-4.6c0-2.3-1.4-4.6-3.8-4.6c-2.4,0-3.8,2.3-3.8,4.6
		C499.3,275.6,500.4,278,503.1,278z"/>
	<path class="st1" d="M519.1,262.7h4.4c3.4,0,6.3,1.2,6.3,5c0,3.7-2.9,5-5.9,5h-2.4v6.7h-2.4V262.7z M521.5,270.7h2.4
		c1.5,0,3.4-0.7,3.4-3c0-2.1-2.2-2.9-3.7-2.9h-2V270.7z"/>
	<path class="st1" d="M532.4,267.3h2.2v1.7h0c0.6-0.9,2-2,4.2-2c3.6,0,5.3,2.9,5.3,6.2c0,3.4-1.6,6.6-5.3,6.6c-2.2,0-3.4-0.8-4.1-2
		h0v6.7h-2.3V267.3z M538.2,268.8c-2.4,0-3.6,2.3-3.6,4.6c0,2,1.1,4.6,3.6,4.6c2.4,0,3.4-2.7,3.4-4.6
		C541.6,271.1,540.7,268.8,538.2,268.8z"/>
</g>
<g class="st0">
	<path class="st1" d="M11.7,311.7c-0.4,0.1-0.9,0.1-1.3,0.1c-5.1,0-8.1-3.6-8.1-8.7c0-5,3-8.7,8.1-8.7s8.1,3.7,8.1,8.7
		c0,3.7-1.6,6.7-4.5,7.9l3.9,3.5h-3L11.7,311.7z M10.3,309.7c3.9,0,5.5-3.2,5.5-6.6c0-3.4-1.8-6.6-5.5-6.6c-3.7,0-5.5,3.1-5.5,6.6
		C4.8,306.5,6.5,309.7,10.3,309.7z"/>
	<path class="st1" d="M32.4,316.5h-2.3v-6.6h0c-0.7,1.2-2.3,1.9-4.1,1.9c-3.7,0-5.3-3.3-5.3-6.6c0-3.3,1.7-6.2,5.3-6.2
		c2.2,0,3.6,1.1,4.2,2h0v-1.8h2.2V316.5z M26.6,310c2.5,0,3.6-2.5,3.6-4.6c0-2.3-1.2-4.6-3.6-4.6s-3.4,2.3-3.4,4.5
		C23.1,307.3,24.1,310,26.6,310z"/>
	<path class="st1" d="M43,294.7h4.1c3.3,0,6.5,0.5,6.5,4.5c0,2-1.5,3.5-3.5,3.8v0c0.7,0.3,1.1,0.6,1.6,1.7l3.2,6.7h-2.7l-2.6-5.8
		c-0.7-1.6-1.5-1.6-2.8-1.6h-1.4v7.4H43V294.7z M45.4,301.9h2c2.3,0,3.6-1,3.6-2.6c0-1.5-1.2-2.5-3.4-2.5h-2.3V301.9z"/>
	<path class="st1" d="M57.6,299.3h2.1v1.9h0c0.6-1.3,1.9-2.2,3.2-2.2c0.7,0,1,0.1,1.5,0.2v2c-0.4-0.2-0.9-0.2-1.2-0.2
		c-2,0-3.3,1.9-3.3,5v5.6h-2.3V299.3z"/>
	<path class="st1" d="M81.4,297.3c-1.2-0.5-1.9-0.7-3.1-0.7c-1.3,0-2.9,0.5-2.9,2.2c0,3.2,7.2,2.5,7.2,8c0,3.6-2.8,5-6.1,5
		c-1.2,0-2.3-0.3-3.4-0.7l0.2-2.2c0.8,0.3,2.3,0.8,3.5,0.8c1.4,0,3.3-0.8,3.3-2.7c0-3.7-7.2-2.7-7.2-7.9c0-3,2.4-4.6,5.4-4.6
		c1.1,0,2.4,0.2,3.6,0.6L81.4,297.3z"/>
	<path class="st1" d="M84.7,309.1c0.9,0.6,2.2,0.9,2.8,0.9c1,0,2.3-0.4,2.3-1.8c0-2.2-5.3-2-5.3-5.5c0-2.5,1.9-3.8,4.3-3.8
		c1.1,0,1.9,0.2,2.8,0.5l-0.2,2c-0.5-0.3-1.8-0.6-2.4-0.6c-1.2,0-2.2,0.5-2.2,1.5c0,2.5,5.3,1.8,5.3,5.7c0,2.6-2.1,3.8-4.3,3.8
		c-1.2,0-2.3-0.1-3.4-0.7L84.7,309.1z"/>
	<path class="st1" d="M105.2,296.9H100v-2.1h12.8v2.1h-5.2v14.6h-2.4V296.9z"/>
	<path class="st1" d="M121.5,301.1h-3.2v6.7c0,1.4,0.9,2.2,1.9,2.2c0.7,0,1.2-0.2,1.5-0.4v1.9c-0.5,0.1-1.2,0.3-1.9,0.3
		c-2.3,0-3.8-1.1-3.8-3.6v-7.2h-2.8v-1.8h2.8v-2.8l2.3-0.7v3.6h3.2V301.1z"/>
	<path class="st1" d="M144.2,304.6c0,4.7-2.4,7.2-6.5,7.2c-4.1,0-6.5-2.5-6.5-7.2v-9.8h2.4v9.5c0,3.2,1,5.4,4.1,5.4
		c3.1,0,4.1-2.2,4.1-5.4v-9.5h2.4V304.6z"/>
	<path class="st1" d="M159.1,311.5h-2.2v-1.9h0c-0.7,1.4-2.3,2.2-4,2.2c-3.2,0-4.6-2-4.6-5.3v-7.3h2.3v6.3c0,2.9,0.6,4.2,2.6,4.4
		c2.6,0,3.7-2.1,3.7-5v-5.7h2.3V311.5z"/>
	<path class="st1" d="M177.2,311.5h-3l-6.3-16.8h2.7l5.2,14.6h0l5.3-14.6h2.5L177.2,311.5z"/>
	<path class="st1" d="M191.1,311.5h-2.7l-4.4-12.2h2.5l3.3,10h0l3.4-10h2.3L191.1,311.5z"/>
	<path class="st1" d="M202.4,294.7h2.6l4,14.4h0l3.6-14.4h3.4l3.6,14.4h0l4-14.4h2.5l-5.2,16.8h-3.1l-3.6-14.6h0l-3.7,14.6h-3.2
		L202.4,294.7z"/>
	<path class="st1" d="M242.2,311.5h-2.6l-3.2-10.3h0l-3.1,10.3h-2.6l-3.9-12.2h2.5l2.8,10.1h0l3.1-10.1h2.7l3.1,10.1h0l3-10.1h2.2
		L242.2,311.5z"/>
	<path class="st1" d="M259.4,302.8l-5.6-8h2.9l4.5,6.4l4.4-6.4h2.7l-5.6,8l6.2,8.8h-3l-4.9-7.1l-4.8,7.1h-2.9L259.4,302.8z"/>
	<path class="st1" d="M273.7,305.1l-4-5.8h2.8l2.7,4.4l2.7-4.4h2.5l-3.9,5.8l4.3,6.4H278l-3-4.8l-3,4.8h-2.7L273.7,305.1z"/>
	<path class="st1" d="M294.5,304.5l-6.6-9.7h2.8l5,7.5l4.9-7.5h2.8l-6.5,9.7v7h-2.4V304.5z"/>
	<path class="st1" d="M304.7,314.8c0.3,0.1,0.7,0.2,1.1,0.2c2,0,2.7-2.8,2.7-3c0-0.3-0.3-0.9-0.4-1.3l-4.2-11.4h2.5l3.3,10.1h0
		l3.4-10.1h2.3l-4.5,12.5c-0.8,2.4-1.7,5.1-4.7,5.1c-0.7,0-1.1-0.1-1.5-0.2L304.7,314.8z"/>
	<path class="st1" d="M323.2,309.3l8.7-12.5h-8.4v-2.1h11.2v2.2l-8.7,12.5h8.8v2.1h-11.6V309.3z"/>
	<path class="st1" d="M336.8,309.5l7.1-8.4h-6.7v-1.8h9.3v2l-7.1,8.4h7.3v1.8h-9.9V309.5z"/>
</g>
<g class="st0">
	<path class="st1" d="M7.5,329.5l-2.6,2.2l-1.3-1.6l4.1-3.4h2.1v16.8H7.5V329.5z"/>
	<path class="st1" d="M15.5,340.9c0.9-0.8,1.9-1.7,3-2.7c1.8-1.7,4.8-4.4,4.8-7.2c0-1.6-1.4-2.7-3.2-2.7c-1.5,0-2.9,0.6-3.8,1.1
		l-0.2-2.1c1.4-0.6,2.9-1,4.4-1c3,0,5.4,1.6,5.4,4.8c0,2.8-3,5.8-4.8,7.6c-0.9,0.9-2.1,1.9-3,2.7h8v2H15.5V340.9z"/>
	<path class="st1" d="M31.2,333.8h1.3c1.7,0,4.2-0.6,4.2-2.7c0-1.9-1.5-2.6-3.3-2.6c-1.5,0-2.7,0.4-3.7,0.9l-0.1-2.1
		c1.1-0.4,2.8-0.7,4.2-0.7c3,0,5.5,1.4,5.5,4.6c0,2.1-1.7,3.5-3.6,3.8v0c2.2,0.5,3.7,1.8,3.7,4.2c0,3.8-3.3,4.8-6.6,4.8
		c-1.3,0-2.8-0.3-3.8-0.6l0.1-2.2c0.9,0.4,2.2,0.9,3.7,0.9c1.8,0,4.1-0.7,4.1-2.9c0-2.5-2-3.2-4.2-3.2h-1.5V333.8z"/>
	<path class="st1" d="M49.3,339.7h-7.8v-2l6.8-11h3.4v11h2.1v2h-2.1v3.8h-2.4V339.7z M49.3,328.7L49.3,328.7l-5.3,9h5.3V328.7z"/>
	<path class="st1" d="M65.8,328.7h-7l-0.1,4.5c0.5-0.1,1.2-0.2,2.2-0.2c3,0,5.4,2.2,5.4,5.2c0,3.7-2.9,5.6-6.4,5.6
		c-1.8,0-3-0.3-3.6-0.6l0.1-2.3c1,0.6,2,0.8,3.5,0.8c2,0,3.9-1.2,3.9-3.3c0-2.4-1.8-3.6-4.1-3.6c-1.4,0-2.4,0.2-3.2,0.6l0.1-8.8h9.2
		V328.7z"/>
	<path class="st1" d="M78.9,329.1c-0.9-0.5-1.9-0.7-3-0.7c-3.1,0-4.6,2.9-4.7,6.1l0,0c1.1-1.1,2.3-1.5,3.7-1.5c3.2,0,5,2.3,5,5.3
		c0,3.5-2.3,5.5-5.4,5.5c-4.7,0-5.6-4.2-5.6-8c0-4.5,1.5-9.3,6.8-9.3c1.2,0,2.9,0.3,3.5,0.5L78.9,329.1z M74.6,334.9
		c-2,0-3.1,1.5-3.1,3.4c0,1.6,1,3.5,3,3.5c2,0,3-1.7,3-3.5C77.4,336.7,76.5,334.9,74.6,334.9z"/>
	<path class="st1" d="M92.8,328.7l-6.2,14.8H84l6.4-14.8h-8.2v-2h10.6V328.7z"/>
	<path class="st1" d="M95.3,339.1c0-2.2,1.5-3.7,3.6-4.4v0c-2.4-0.9-3.1-2.6-3.1-4.2c0-2.1,2-4,5.4-4c3.3,0,5.2,1.9,5.2,3.8
		c0,1.9-0.8,3.1-3,4.3c2,0.7,3.5,2.2,3.5,4.4c0,3.4-2.7,4.8-5.8,4.8C98.2,343.8,95.3,342.2,95.3,339.1z M100.6,335.6
		c-1.4,1-2.8,1.4-2.8,3.4c0,1.8,1.7,2.9,3.4,2.9c1.6,0,3-1,3-2.6C104.4,336.8,102.4,336.4,100.6,335.6z M101.6,333.9
		c2-1.5,2.2-2.2,2.2-3.3c0-1.6-1.6-2.1-2.8-2.1c-1.1,0-2.8,0.8-2.8,2.4C98.1,332,99.3,332.7,101.6,333.9z"/>
	<path class="st1" d="M109.9,341.1c0.9,0.5,1.9,0.7,3,0.7c3.1,0,4.6-2.9,4.7-6.1l0,0c-1.1,1.1-2.3,1.5-3.7,1.5c-3.2,0-5-2.3-5-5.3
		c0-3.5,2.3-5.5,5.4-5.5c4.7,0,5.6,4.2,5.6,8c0,4.5-1.5,9.3-6.8,9.3c-1.2,0-2.9-0.3-3.5-0.5L109.9,341.1z M114.2,335.3
		c2,0,3.1-1.5,3.1-3.4c0-1.6-1-3.5-3-3.5c-2,0-3,1.7-3,3.5C111.4,333.5,112.3,335.3,114.2,335.3z"/>
	<path class="st1" d="M127.8,326.5c4.6,0,5.7,5,5.7,8.7c0,3.7-1.1,8.7-5.7,8.7c-4.6,0-5.7-5-5.7-8.7
		C122.1,331.5,123.1,326.5,127.8,326.5z M127.8,341.8c2.9,0,3.1-4.6,3.1-6.7c0-2.1-0.4-6.7-3.1-6.7s-3.1,4.6-3.1,6.7
		C124.6,337.2,124.9,341.8,127.8,341.8z"/>
	<path class="st1" d="M146.6,346.9c-2.2-3.3-3.9-6.7-3.9-10.8c0-4.1,1.8-7.4,3.9-10.8h2.2c-1.8,3.3-3.7,6.9-3.7,10.8
		s1.8,7.5,3.7,10.8H146.6z"/>
	<path class="st1" d="M151.1,340.8h2.7l-2,5.9h-2.2L151.1,340.8z"/>
	<path class="st1" d="M157.8,340.8h2.7v2.7h-2.7V340.8z"/>
	<path class="st1" d="M164.4,340.8h2.7l-2,5.9h-2.2L164.4,340.8z M167.1,333.9h-2.7v-2.7h2.7V333.9z"/>
	<path class="st1" d="M173.8,333.9h-2.7v-2.7h2.7V333.9z M171.1,340.8h2.7v2.7h-2.7V340.8z"/>
	<path class="st1" d="M188.9,336.8c-0.1,0.3-0.2,0.7-0.2,1c0,0.4,0.1,0.6,0.4,0.6c1.4,0,2.9-2,2.9-4.5c0-3.7-2.9-5.8-6.4-5.8
		c-4.1,0-6.8,3.1-6.8,7c0,4.6,3,6.9,7,6.9c2,0,4-0.8,5.2-2.1h1.8c-1.6,2.4-4.2,3.8-7.1,3.8c-4.9,0-8.9-3.2-8.9-8.7
		c0-5.2,4-8.7,8.8-8.7c4.2,0,8,2.9,8,7.1c0,4.6-3.9,6.7-5.7,6.7c-0.7,0-1.3-0.5-1.4-1.3h0c-0.6,0.7-1.6,1.3-2.6,1.3
		c-2,0-3.6-1.8-3.6-3.8c0-3,2-6,5.2-6c1.1,0,2,0.5,2.7,1.6l0.4-1.2h1.8L188.9,336.8z M187.6,334.4c0-1.2-0.8-2-1.8-2
		c-1.9,0-3.2,2.1-3.2,3.7c0,1.3,0.7,2.2,2,2.2C186.4,338.3,187.6,336.1,187.6,334.4z"/>
	<path class="st1" d="M199.9,338.3c0-1.5,0.4-2.3,1.5-3.6c0.9-1,2-2.2,2-3.7c0-1.7-1.4-2.4-2.9-2.4c-1.6,0-2.8,0.4-3.6,1l-0.2-2.3
		c1.1-0.5,2.4-0.8,4-0.8c2.6,0,5.2,1.5,5.2,4.4c0,2.5-2,3.8-3.3,5.8c-0.4,0.6-0.5,1.1-0.5,1.8v0.4h-2.3V338.3z M199.7,340.8h2.7v2.7
		h-2.7V340.8z"/>
	<path class="st1" d="M212.7,338.8h-2.1l-0.3-12h2.7L212.7,338.8z M210.3,340.8h2.7v2.7h-2.7V340.8z"/>
	<path class="st1" d="M217.7,341.4h2.2v-6.2H218v-1.4h1.9v-1.3c0-3.5,2-6,5.8-6c1.2,0,2.1,0.2,2.8,0.5l-0.2,2.2
		c-0.6-0.3-1.4-0.6-2.4-0.6c-2.5,0-3.6,1.5-3.6,4v1.2h3.9v1.4h-3.9v6.2h5.9v2.1h-10.5V341.4z"/>
	<path class="st1" d="M245.2,334.5c-0.2,2.7-1,4.3-1.9,5.7l2.9,3.3h-3l-1.4-1.6c-1.2,1.4-2.7,1.9-4.8,1.9c-3.3,0-5.4-1.9-5.4-4.7
		c0-2.5,1.5-4,3.7-4.9c-0.9-1.1-1.7-2.2-1.7-3.8c0-2.7,2-3.9,4.4-3.9c2.2,0,4.2,1.2,4.2,3.8c0,2.1-1.9,3.6-3.7,4.4l3.4,3.9
		c0.6-1,0.9-2.1,1-4.1H245.2z M237.5,342c1.6,0,2.6-1,3.1-1.6l-4-4.7c-1.3,0.9-2.4,1.7-2.4,3.3C234.2,340.8,235.8,342,237.5,342z
		 M237.4,333.3c1-0.5,2.5-1.5,2.5-2.9c0-1.5-0.8-2.1-2-2.1c-1.1,0-2,0.7-2,2.2C235.9,331.6,236.7,332.5,237.4,333.3z"/>
	<path class="st1" d="M253.7,332.7l-2,3.3l-1.8-1.2l2.6-3l-3.8-0.8l0.7-2l3.6,1.5l-0.4-3.8h2.2l-0.4,3.8l3.5-1.5l0.6,2l-3.8,0.8
		l2.6,3l-1.8,1.2L253.7,332.7z"/>
	<path class="st1" d="M263,331.3c0-2.6,0.7-4.8,3.6-4.8c2.9,0,3.6,2.3,3.6,4.8c0,2.4-0.8,4.8-3.6,4.8S263,333.7,263,331.3z
		 M268.1,331.3c0-1.1,0.1-3.1-1.5-3.1c-1.5,0-1.5,2.1-1.5,3.1c0,1,0,3.1,1.5,3.1C268,334.4,268.1,332.2,268.1,331.3z M276.7,326.2
		h1.7L268,344h-1.7L276.7,326.2z M274.5,339c0-2.6,0.7-4.8,3.6-4.8c2.9,0,3.6,2.3,3.6,4.8c0,2.4-0.8,4.8-3.6,4.8
		S274.5,341.4,274.5,339z M279.6,339c0-1.1,0.1-3.1-1.5-3.1c-1.5,0-1.5,2.1-1.5,3.1c0,1,0,3.1,1.5,3.1
		C279.5,342.1,279.6,340,279.6,339z"/>
	<path class="st1" d="M286.8,325.4c2.2,3.3,3.9,6.7,3.9,10.8c0,4.1-1.8,7.4-3.9,10.8h-2.2c1.8-3.3,3.7-6.9,3.7-10.8
		s-1.8-7.5-3.7-10.8H286.8z"/>
</g>
<g class="st0">
	<path class="st1" d="M2.9,398.7h9.3v2.6h-6v4.1H12v2.6H6.3v7.3H2.9V398.7z"/>
	<path class="st1" d="M14.7,403.1h2.9v2.8h0c0.1-1.2,1.5-3.1,3.4-3.1c0.3,0,0.6,0,1,0.1v3.2c-0.3-0.2-0.9-0.3-1.4-0.3
		c-2.6,0-2.6,3.3-2.6,5v4.5h-3.2V403.1z"/>
	<path class="st1" d="M35.3,415.5h-3v-1.7h0c-1,1.2-2.4,2-4.1,2c-2.9,0-4.2-2.1-4.2-4.8v-7.8h3.2v6.6c0,1.5,0,3.6,2.1,3.6
		c2.3,0,2.8-2.5,2.8-4.1v-6h3.2V415.5z"/>
	<path class="st1" d="M39.7,405.5h-2.4v-2.4h2.4v-2.5l3.2-1v3.5h2.9v2.4h-2.9v5.8c0,1.1,0.3,2,1.5,2c0.6,0,1.1-0.1,1.5-0.3l0.1,2.5
		c-0.7,0.2-1.4,0.3-2.4,0.3c-2.5,0-3.9-1.6-3.9-4V405.5z"/>
	<path class="st1" d="M48.1,397.8h3.2v3.1h-3.2V397.8z M48.1,403.1h3.2v12.4h-3.2V403.1z"/>
	<path class="st1" d="M66,403.1v11.2c0,3.4-1.3,6.5-6.5,6.5c-1.3,0-2.7-0.2-4.3-0.8l0.3-2.7c1,0.5,2.6,1.1,3.6,1.1
		c3.6,0,3.7-2.7,3.7-4.8h0c-0.6,1.1-2,2-3.8,2c-3.6,0-5-2.9-5-6.2c0-3,1.5-6.4,5.2-6.4c1.6,0,2.9,0.6,3.8,2h0v-1.7H66z M62.8,409.2
		c0-2.1-0.8-3.8-2.7-3.8c-2.2,0-2.9,2-2.9,3.9c0,1.7,0.9,3.7,2.7,3.7C62,413,62.8,411.3,62.8,409.2z"/>
	<path class="st1" d="M79.2,414.8c-1.2,0.6-2.5,1-4.2,1c-4.1,0-6.5-2.4-6.5-6.4c0-3.6,1.9-6.5,5.7-6.5c4.6,0,5.9,3.1,5.9,7.5h-8.5
		c0.1,2,1.5,3.1,3.5,3.1c1.6,0,2.9-0.6,4.1-1.2V414.8z M77.1,408.1c-0.1-1.6-0.8-2.9-2.6-2.9c-1.8,0-2.7,1.2-2.9,2.9H77.1z"/>
	<path class="st1" d="M82.7,403.1h2.9v2.8h0c0.1-1.2,1.5-3.1,3.4-3.1c0.3,0,0.6,0,1,0.1v3.2c-0.3-0.2-0.9-0.3-1.4-0.3
		c-2.6,0-2.6,3.3-2.6,5v4.5h-3.2V403.1z"/>
	<path class="st1" d="M99,398.7h5.9c2.2,0,5.4,0.6,5.4,4.3c0,2-1.3,3.4-3.3,3.7v0c2.3,0.2,3.8,1.8,3.8,3.8c0,4.2-3.8,4.8-5.9,4.8H99
		V398.7z M102.3,405.5h1.4c1.4,0,3.2-0.3,3.2-2c0-1.9-1.7-2.1-3.2-2.1h-1.3V405.5z M102.3,412.9h1.6c1.6,0,3.5-0.4,3.5-2.3
		c0-2.2-1.8-2.5-3.5-2.5h-1.6V412.9z"/>
	<path class="st1" d="M119,402.9c3.7,0,6.5,2.5,6.5,6.6c0,3.6-2.4,6.4-6.5,6.4c-4.1,0-6.5-2.8-6.5-6.4
		C112.6,405.3,115.4,402.9,119,402.9z M119,413.3c2.5,0,3.1-2.2,3.1-4.3c0-1.9-1-3.7-3.1-3.7c-2.1,0-3.1,1.8-3.1,3.7
		C115.9,411.1,116.6,413.3,119,413.3z"/>
	<path class="st1" d="M128.1,397.5h3.2v18h-3.2V397.5z"/>
	<path class="st1" d="M142.9,414.1L142.9,414.1c-1,1.2-2.3,1.7-3.8,1.7c-3.8,0-5.2-3.1-5.2-6.5c0-3.4,1.4-6.4,5.2-6.4
		c1.6,0,2.7,0.6,3.7,1.7h0v-7.1h3.2v18h-3.1V414.1z M140,413.3c2.1,0,2.8-2.3,2.8-4c0-1.7-0.8-3.9-2.9-3.9c-2.1,0-2.7,2.3-2.7,3.9
		C137.2,411,137.8,413.3,140,413.3z"/>
</g>
<g class="st0">
	<path class="st1" d="M7.7,454.7h3.8l6.6,16.8h-3.7l-1.4-3.8H6.2l-1.5,3.8H1.2L7.7,454.7z M9.6,458.1L9.6,458.1L7.1,465H12
		L9.6,458.1z"/>
	<path class="st1" d="M20.5,459.8c1.2-0.6,2.9-0.9,4.3-0.9c3.8,0,5.3,1.6,5.3,5.2v1.6c0,1.2,0,2.2,0,3.1c0,0.9,0.1,1.8,0.1,2.8h-2.8
		c-0.1-0.6-0.1-1.5-0.1-1.8h0c-0.7,1.4-2.4,2.1-3.8,2.1c-2.2,0-4.3-1.3-4.3-3.7c0-1.8,0.9-2.9,2.1-3.5c1.2-0.6,2.8-0.7,4.2-0.7h1.8
		c0-2-0.9-2.7-2.8-2.7c-1.4,0-2.7,0.5-3.8,1.3L20.5,459.8z M24.3,469.4c1,0,1.8-0.4,2.3-1.1c0.5-0.7,0.7-1.6,0.7-2.5h-1.4
		c-1.4,0-3.6,0.2-3.6,2.1C22.3,469,23.2,469.4,24.3,469.4z"/>
	<path class="st1" d="M40.3,454.7h5.9c2.2,0,5.4,0.6,5.4,4.3c0,2-1.3,3.4-3.3,3.7v0c2.3,0.2,3.8,1.8,3.8,3.8c0,4.2-3.8,4.8-5.9,4.8
		h-5.9V454.7z M43.6,461.5H45c1.4,0,3.2-0.3,3.2-2c0-1.9-1.7-2.1-3.2-2.1h-1.3V461.5z M43.6,468.9h1.6c1.6,0,3.5-0.4,3.5-2.3
		c0-2.2-1.8-2.5-3.5-2.5h-1.6V468.9z"/>
	<path class="st1" d="M54.7,453.5h3.2v7.2h0c0.9-1.2,2-1.9,3.7-1.9c3.8,0,5.2,3,5.2,6.4c0,3.4-1.4,6.5-5.2,6.5
		c-1.4,0-2.9-0.5-3.8-1.8h0v1.5h-3.1V453.5z M60.7,469.3c2.1,0,2.7-2.3,2.7-4c0-1.7-0.6-3.9-2.7-3.9c-2.1,0-2.9,2.2-2.9,3.9
		C57.9,467,58.6,469.3,60.7,469.3z"/>
	<path class="st1" d="M88.5,471.3c-1.2,0.3-2.5,0.5-3.8,0.5c-5.4,0-9.2-2.7-9.2-8.4c0-5.7,3.5-9,9.2-9c1.1,0,2.6,0.2,3.8,0.7
		l-0.2,2.8c-1.3-0.7-2.4-0.9-3.6-0.9c-3.5,0-5.6,2.6-5.6,6.1c0,3.4,2.1,6,5.7,6c1.3,0,2.9-0.3,3.7-0.7L88.5,471.3z"/>
	<path class="st1" d="M98.7,461.8c-0.6-0.3-1.2-0.5-2.2-0.5c-2,0-3.3,1.6-3.3,3.9c0,2.3,1.1,4,3.3,4c0.9,0,1.9-0.3,2.5-0.6l0.1,2.7
		c-0.9,0.3-1.9,0.4-3.2,0.4c-4.1,0-6.1-2.8-6.1-6.5c0-3.6,2.1-6.4,6-6.4c1.3,0,2.2,0.1,3.1,0.4L98.7,461.8z"/>
	<path class="st1" d="M108.3,454.7h4.6c5.1,0,9.7,1.7,9.7,8.4s-4.5,8.4-9.7,8.4h-4.6V454.7z M111.6,468.9h1.9c2.8,0,5.5-2.1,5.5-5.7
		s-2.7-5.7-5.5-5.7h-1.9V468.9z"/>
	<path class="st1" d="M133.6,470.1L133.6,470.1c-1,1.2-2.3,1.7-3.8,1.7c-3.8,0-5.2-3.1-5.2-6.5c0-3.4,1.4-6.4,5.2-6.4
		c1.6,0,2.7,0.6,3.7,1.7h0v-7.1h3.2v18h-3.1V470.1z M130.6,469.3c2.1,0,2.8-2.3,2.8-4c0-1.7-0.8-3.9-2.9-3.9c-2.1,0-2.7,2.3-2.7,3.9
		C127.9,467,128.5,469.3,130.6,469.3z"/>
	<path class="st1" d="M146.9,454.7h9.9v2.6h-6.5v4.1h6v2.6h-6v4.7h6.6v2.6h-9.9V454.7z"/>
	<path class="st1" d="M169.9,470.8c-1.2,0.6-2.5,1-4.2,1c-4.1,0-6.5-2.4-6.5-6.4c0-3.6,1.9-6.5,5.7-6.5c4.6,0,5.9,3.1,5.9,7.5h-8.5
		c0.1,2,1.5,3.1,3.5,3.1c1.6,0,2.9-0.6,4.1-1.2V470.8z M167.8,464.1c-0.1-1.6-0.8-2.9-2.6-2.9c-1.8,0-2.7,1.2-2.9,2.9H167.8z"/>
	<path class="st1" d="M180.3,454.7h9.3v2.6h-6v4.1h5.7v2.6h-5.7v7.3h-3.4V454.7z"/>
	<path class="st1" d="M193.2,461.5h-2.4v-2.4h2.4v-1.7c0-2.5,1.4-4.2,3.9-4.2c0.8,0,1.7,0.1,2.4,0.3l-0.3,2.7
		c-0.3-0.2-0.7-0.4-1.4-0.4c-1.1,0-1.4,0.9-1.4,1.9v1.5h2.8v2.4h-2.8v10h-3.2V461.5z"/>
	<path class="st1" d="M221.4,458c-1.3-0.6-3-0.9-4.3-0.9c-3.9,0-6.1,2.6-6.1,6.1c0,3.4,2.1,6,5.7,6c0.9,0,1.6-0.1,2.2-0.2v-4.4h-3.6
		v-2.6h6.8v9c-1.8,0.5-3.6,0.9-5.4,0.9c-5.4,0-9.2-2.7-9.2-8.4c0-5.7,3.5-9,9.2-9c1.9,0,3.5,0.3,4.9,0.7L221.4,458z"/>
	<path class="st1" d="M236.7,459.1v11.2c0,3.4-1.3,6.5-6.5,6.5c-1.3,0-2.7-0.2-4.3-0.8l0.3-2.7c1,0.5,2.6,1.1,3.6,1.1
		c3.6,0,3.7-2.7,3.7-4.8h0c-0.6,1.1-2,2-3.8,2c-3.6,0-5-2.9-5-6.2c0-3,1.5-6.4,5.2-6.4c1.6,0,2.9,0.6,3.8,2h0v-1.7H236.7z
		 M233.5,465.2c0-2.1-0.8-3.8-2.7-3.8c-2.2,0-2.9,2-2.9,3.9c0,1.7,0.9,3.7,2.7,3.7C232.7,469,233.5,467.3,233.5,465.2z"/>
	<path class="st1" d="M247,454.7h3.4v6.8h6.7v-6.8h3.4v16.8h-3.4v-7.3h-6.7v7.3H247V454.7z"/>
	<path class="st1" d="M264,453.5h3.2v7.3h0c0.8-1.2,2.2-2,3.9-2c2.9,0,4.2,2.1,4.2,4.8v7.8h-3.2v-6.6c0-1.5,0-3.6-2.1-3.6
		c-2.3,0-2.8,2.5-2.8,4.1v6H264V453.5z"/>
	<path class="st1" d="M285.3,454.7h3.4v16.8h-3.4V454.7z"/>
	<path class="st1" d="M292.1,453.8h3.2v3.1h-3.2V453.8z M292.1,459.1h3.2v12.4h-3.2V459.1z"/>
	<path class="st1" d="M304.2,468.6c0.5,0.2,0.9,0.3,1.6,0.3c2.2,0,2.2-1.8,2.2-3v-11.2h3.4v12.8c0,1.8-1.2,4.3-4.6,4.3
		c-0.9,0-1.6-0.1-2.6-0.3V468.6z"/>
	<path class="st1" d="M312.8,474.3c1.7-0.1,2-0.4,2-2.4v-12.8h3.2v13.3c0,1.8-0.5,4.4-3.7,4.4c-0.5,0-1.2-0.1-1.6-0.2L312.8,474.3z
		 M314.8,453.8h3.2v3.1h-3.2V453.8z"/>
	<path class="st1" d="M328.3,454.7h3.4v7.2l6-7.2h4.1l-6.9,7.9l7.2,8.9h-4.4l-6-7.8h0v7.8h-3.4V454.7z"/>
	<path class="st1" d="M344.1,453.5h3.2v10.6h0l3.8-4.9h3.8l-4.6,5.5l5.2,6.8h-4.1l-4.1-6h0v6h-3.2V453.5z"/>
	<path class="st1" d="M364.4,454.7h3.4v14.1h6.5v2.6h-9.9V454.7z"/>
	<path class="st1" d="M376.1,453.5h3.2v18h-3.2V453.5z"/>
	<path class="st1" d="M389.7,454.7h5.4l4,12.7h0l4-12.7h5.4v16.8h-3.2v-13.8h0l-4.5,13.8h-3.2l-4.5-13.8l0,0v13.8h-3.2V454.7z"/>
	<path class="st1" d="M412,459.1h3v1.7h0c1-1.5,2.5-2,3.7-2c1.7,0,3,0.6,3.6,2.2c0.7-1.5,2.4-2.2,3.9-2.2c3,0,3.9,2.1,3.9,4.8v7.8
		h-3.2v-7.4c0-1.2,0-2.8-1.8-2.8c-2.1,0-2.4,2.5-2.4,4.2v6h-3.2v-7.4c0-1.2,0-2.8-1.8-2.8c-2.1,0-2.4,2.5-2.4,4.2v6H412V459.1z"/>
	<path class="st1" d="M440.2,454.7h4.1l6.4,12.5h0v-12.5h3.2v16.8h-4.1l-6.4-12.5h0v12.5h-3.2V454.7z"/>
	<path class="st1" d="M457.4,459.1h3v1.7h0c1-1.4,2.4-2,4.1-2c2.9,0,4.2,2.1,4.2,4.8v7.8h-3.2v-6.6c0-1.5,0-3.6-2.1-3.6
		c-2.3,0-2.8,2.5-2.8,4.1v6h-3.2V459.1z"/>
	<path class="st1" d="M486.4,454.5c5.3,0,8.2,3.6,8.2,8.6s-2.9,8.7-8.2,8.7c-5.4,0-8.2-3.6-8.2-8.7S481.1,454.5,486.4,454.5z
		 M486.4,469.1c3.4,0,4.7-3,4.7-6.1c0-3-1.4-6-4.7-6s-4.7,3-4.7,6C481.7,466.1,483,469.1,486.4,469.1z"/>
	<path class="st1" d="M503.1,458.9c3.7,0,6.5,2.5,6.5,6.6c0,3.6-2.4,6.4-6.5,6.4c-4.1,0-6.5-2.8-6.5-6.4
		C496.6,461.3,499.4,458.9,503.1,458.9z M503.1,469.3c2.5,0,3.1-2.2,3.1-4.3c0-1.9-1-3.7-3.1-3.7c-2.1,0-3.1,1.8-3.1,3.7
		C500,467.1,500.6,469.3,503.1,469.3z"/>
	<path class="st1" d="M518.7,454.7h4.2c3.6,0,7,1.1,7,5.1c0,3.9-2.9,5.3-6.5,5.3h-1.4v6.4h-3.4V454.7z M522.1,462.5h1.2
		c1.7,0,3.2-0.6,3.2-2.5s-1.5-2.6-3.2-2.6h-1.2V462.5z"/>
	<path class="st1" d="M532.1,459.1h3.1v1.8h0c0.7-1.2,1.9-2,3.8-2c3.8,0,5.2,3,5.2,6.4c0,3.4-1.4,6.5-5.3,6.5
		c-1.4,0-2.5-0.3-3.6-1.7h0v6.5h-3.2V459.1z M535.3,465.3c0,1.8,0.7,4,2.8,4c2.1,0,2.7-2.3,2.7-4c0-1.7-0.6-3.9-2.7-3.9
		C536.1,461.3,535.3,463.6,535.3,465.3z"/>
</g>
<g class="st0">
	<path class="st1" d="M14.1,506.7l-2.9-2.9c-0.2,0-0.5,0-0.8,0c-5.4,0-8.2-3.6-8.2-8.7s2.9-8.6,8.2-8.6c5.3,0,8.2,3.6,8.2,8.6
		c0,3.6-1.5,6.5-4.2,7.8l3.8,3.8H14.1z M10.3,501.1c3.4,0,4.7-3,4.7-6.1c0-3-1.4-6-4.7-6c-3.3,0-4.7,3-4.7,6
		C5.6,498.1,6.9,501.1,10.3,501.1z"/>
	<path class="st1" d="M29.5,502.1L29.5,502.1c-1.2,1.4-2.3,1.7-3.7,1.7c-3.9,0-5.3-3.1-5.3-6.5c0-3.4,1.4-6.4,5.3-6.4
		c1.8,0,3,0.8,3.8,2h0v-1.8h3.1v17.4h-3.2V502.1z M23.9,497.3c0,1.7,0.6,4,2.7,4c2.1,0,2.8-2.3,2.8-4c0-1.7-0.8-3.9-2.9-3.9
		C24.5,493.3,23.9,495.6,23.9,497.3z"/>
	<path class="st1" d="M42.7,486.7h3.6c3.6,0,7.9-0.1,7.9,4.5c0,2-1.3,3.6-3.5,3.9v0c0.9,0.1,1.4,1,1.8,1.7l2.7,6.6h-3.7l-2-5.2
		c-0.5-1.2-0.9-1.7-2.3-1.7H46v7h-3.4V486.7z M46,493.9h1.1c1.7,0,3.6-0.2,3.6-2.3c0-2-1.9-2.2-3.6-2.2H46V493.9z"/>
	<path class="st1" d="M57.4,491.1h2.9v2.8h0c0.1-1.2,1.5-3.1,3.4-3.1c0.3,0,0.6,0,1,0.1v3.2c-0.3-0.2-0.9-0.3-1.4-0.3
		c-2.6,0-2.6,3.3-2.6,5v4.5h-3.2V491.1z"/>
	<path class="st1" d="M82.6,489.8c-1.1-0.5-2.2-0.7-3.4-0.7c-1.2,0-2.6,0.5-2.6,2.3c0,2.9,7.3,1.7,7.3,7.3c0,3.7-2.9,5.1-6.3,5.1
		c-1.8,0-2.6-0.2-4.3-0.6l0.3-3c1.2,0.6,2.5,1,3.8,1c1.3,0,3-0.6,3-2.2c0-3.2-7.3-1.9-7.3-7.4c0-3.7,2.9-5.1,5.9-5.1
		c1.4,0,2.8,0.2,4,0.6L82.6,489.8z"/>
	<path class="st1" d="M94,493.7c-1-0.3-1.7-0.5-2.9-0.5c-0.9,0-1.9,0.3-1.9,1.4c0,2,5.6,0.7,5.6,5.2c0,2.9-2.6,4-5.2,4
		c-1.2,0-2.5-0.2-3.6-0.5l0.2-2.6c1,0.5,2.1,0.8,3.2,0.8c0.8,0,2.1-0.3,2.1-1.5c0-2.4-5.6-0.8-5.6-5.2c0-2.7,2.3-3.8,4.8-3.8
		c1.5,0,2.5,0.2,3.5,0.5L94,493.7z"/>
	<path class="st1" d="M107.3,489.4h-4.8v-2.6h13v2.6h-4.8v14.1h-3.4V489.4z"/>
	<path class="st1" d="M118.4,493.5H116v-2.4h2.4v-2.5l3.2-1v3.5h2.9v2.4h-2.9v5.8c0,1.1,0.3,2,1.5,2c0.6,0,1.1-0.1,1.5-0.3l0.1,2.5
		c-0.7,0.2-1.4,0.3-2.4,0.3c-2.5,0-3.9-1.6-3.9-4V493.5z"/>
	<path class="st1" d="M133.5,486.7h3.4v9.7c0,2.9,0.9,4.7,3.5,4.7c2.6,0,3.5-1.9,3.5-4.7v-9.7h3.4v10.7c0,4.5-2.5,6.3-6.8,6.3
		s-6.8-1.8-6.8-6.3V486.7z"/>
	<path class="st1" d="M162,503.5h-3v-1.7h0c-1,1.2-2.4,2-4.1,2c-2.9,0-4.2-2.1-4.2-4.8v-7.8h3.2v6.6c0,1.5,0,3.6,2.1,3.6
		c2.3,0,2.8-2.5,2.8-4.1v-6h3.2V503.5z"/>
	<path class="st1" d="M170.6,486.7h3.6l4.3,13.2h0l4.2-13.2h3.3l-5.6,16.8h-4.1L170.6,486.7z"/>
	<path class="st1" d="M186.7,491.1h3.5l3.1,9h0l3-9h3.2l-4.6,12.4h-3.6L186.7,491.1z"/>
	<path class="st1" d="M206.6,486.7h3.5l3.1,13.4h0l2.9-13.4h4.6l3,13.4h0l3.1-13.4h3.3l-4.4,16.8h-4.3l-3-13.4h0l-3,13.4h-4.3
		L206.6,486.7z"/>
	<path class="st1" d="M230.7,491.1h3.4l2.7,9.1h0l2.5-9.1h3.7l2.7,9.1h0l2.6-9.1h3.1l-3.8,12.4h-3.8l-2.7-9.4h0l-2.6,9.4h-3.7
		L230.7,491.1z"/>
	<path class="st1" d="M264.1,494.8l-5-8h3.9l3.5,6l3.6-6h3.6l-5,8l5.5,8.7h-4l-3.9-6.5l-3.9,6.5h-3.8L264.1,494.8z"/>
	<path class="st1" d="M275.1,491.1h3.8l2.4,4l2.4-4h3.4l-3.7,5.9l4.2,6.5h-3.8l-2.8-4.6l-2.8,4.6h-3.5l4.2-6.5L275.1,491.1z"/>
	<path class="st1" d="M300.8,496.9l-6.1-10.1h3.9l4,7l4-7h3.6l-6,10.1v6.6h-3.4V496.9z"/>
	<path class="st1" d="M317.2,500.2L317.2,500.2l3-9h3.3l-4.6,12.3c-1,2.7-1.8,5.4-5.1,5.4c-0.8,0-1.5-0.1-2.3-0.3l0.2-2.4
		c0.4,0.1,0.9,0.2,1.7,0.2c1.3,0,2.1-0.9,2.1-2.2l-4.7-13h3.6L317.2,500.2z"/>
	<path class="st1" d="M331.3,500.8l7.9-11.4h-7.6v-2.6h11.1v2.7l-7.9,11.4h8.1v2.6h-11.6V500.8z"/>
	<path class="st1" d="M344.9,491.1h9.8v2.6l-6.1,7.2h6.4v2.5h-10.3v-2.6l6.3-7.2h-6V491.1z"/>
</g>
<g class="st0">
	<path class="st1" d="M7.8,518.7h3v16.8H7.4v-12.9l-2.8,2.3l-1.7-2.2L7.8,518.7z"/>
	<path class="st1" d="M15.3,535.5v-2.8c1.6-1.5,7.2-6.3,7.2-9.3c0-1.5-1.4-2.3-2.7-2.3c-1.4,0-2.8,0.6-3.9,1.3l-0.3-2.8
		c1.5-0.8,3.3-1.2,5-1.2c3.2,0,5.3,1.6,5.3,4.9c0,3.6-3.6,6.8-6.3,9.5h6.8v2.6H15.3z"/>
	<path class="st1" d="M29,532.4c1.2,0.5,2.4,0.8,3.7,0.8c1.4,0,3.5-0.7,3.5-2.4c0-2-1.6-2.6-3.7-2.6h-1.6v-2.6h1.5
		c2.3,0,3.7-0.7,3.7-2.2c0-1.7-1.4-2.2-2.9-2.2c-1.3,0-2.6,0.3-3.8,0.9l-0.2-2.7c1.3-0.5,3-0.8,4.7-0.8c2.1,0,5.5,0.7,5.5,4.3
		c0,2.3-1.4,3.4-3.1,4v0c2.1,0.3,3.2,1.9,3.2,4c0,4-3.6,5-6.4,5c-1.5,0-3.1-0.2-4.4-0.6L29,532.4z"/>
	<path class="st1" d="M41.4,529.3l6.3-10.6h4.2v10.8H54v2.5h-2.1v3.5h-3.2V532h-7.2V529.3z M48.6,529.5v-7.3h0l-4.2,7.3H48.6z"/>
	<path class="st1" d="M66.1,521.2h-6.5l-0.1,3.6c0.4-0.1,0.9-0.2,1.5-0.2c2.4,0,5.4,1.1,5.4,5.4c0,3.1-2.2,5.7-6.5,5.7
		c-1.3,0-2.8-0.2-3.9-0.5l0.1-3c0.8,0.3,2,0.8,3.4,0.8c1.8,0,3.6-0.8,3.6-3c0-2.2-1.9-2.9-3.8-2.9c-1,0-2,0.1-3,0.5l0.2-9h9.6V521.2
		z"/>
	<path class="st1" d="M78.8,521.8c-0.9-0.4-1.8-0.7-2.9-0.7c-2.9,0-3.9,2.7-4,5.2l0,0c0.8-1.2,1.8-1.7,3.2-1.7c3.2,0,4.9,2,4.9,5.1
		c0,3.6-1.8,6-5.6,6c-4.7,0-5.7-3.9-5.7-7.8c0-4.5,1.5-9.5,6.9-9.5c1.2,0,2.4,0.2,3.5,0.6L78.8,521.8z M72.1,530.3
		c0,1.6,0.7,3,2.3,3c1.6,0,2.2-1.5,2.2-3c0-1.6-0.7-3.1-2.3-3.1C72.8,527.1,72.1,528.6,72.1,530.3z"/>
	<path class="st1" d="M82.3,518.7h10.8v2.8l-6,14h-3.6l6.2-14.1h-7.4V518.7z"/>
	<path class="st1" d="M98.3,526.8c-1.7-0.7-2.8-2.1-2.8-3.9c0-3,2.3-4.4,5.3-4.4c3,0,5.6,1.2,5.6,4c0,1.5-0.9,3.3-2.8,4v0
		c2.2,1,3.2,2.5,3.2,4.4c0,3.4-2.4,4.9-5.8,4.9c-3.3,0-5.9-1.4-5.9-4.8C95.2,529.1,96.3,527.8,98.3,526.8L98.3,526.8z M101.2,533.3
		c1.3,0,2.4-0.8,2.4-2.2c0-1.7-1.4-2.4-2.8-2.9c-1.2,0.6-2.1,1.3-2.1,2.8C98.6,532.3,99.8,533.3,101.2,533.3z M101.4,525.5
		c0.9-0.3,1.9-1.4,1.9-2.4c0-1.2-0.8-2.1-2.1-2.1c-1.2,0-2.4,0.7-2.4,2C98.8,524.4,100.2,525.1,101.4,525.5z"/>
	<path class="st1" d="M110.1,532.5c0.9,0.4,1.8,0.7,2.9,0.7c2.9,0,3.9-2.7,4-5.2l0,0c-0.8,1.2-1.8,1.7-3.2,1.7c-3.2,0-4.9-2-4.9-5.1
		c0-3.6,1.8-6,5.6-6c4.7,0,5.7,3.9,5.7,7.8c0,4.5-1.5,9.5-6.9,9.5c-1.2,0-2.4-0.2-3.5-0.6L110.1,532.5z M116.7,523.9
		c0-1.6-0.7-3-2.3-3c-1.6,0-2.2,1.5-2.2,3c0,1.6,0.7,3.1,2.3,3.1C116.1,527.1,116.7,525.6,116.7,523.9z"/>
	<path class="st1" d="M121.9,527.2c0-4.2,1.3-8.7,5.8-8.7c4.9,0,5.9,4.8,5.9,8.7c0,3.9-1,8.6-5.9,8.6
		C122.6,535.8,121.9,530.7,121.9,527.2z M130.2,527.2c0-2.2,0-6.2-2.5-6.2c-2.4,0-2.4,4.1-2.4,6.2c0,2.1,0,6.1,2.4,6.1
		C130.3,533.3,130.2,529.3,130.2,527.2z"/>
	<path class="st1" d="M148.9,517.4c-2.1,3.3-3.5,6.3-3.5,10.8c0,4.1,1.4,7.5,3.5,10.8h-3c-2.4-3.3-3.8-6.6-3.8-10.8
		c0-4.4,1.4-7.5,3.8-10.8H148.9z"/>
	<path class="st1" d="M151.2,532.1h3.5l-2.2,6h-2.8L151.2,532.1z"/>
	<path class="st1" d="M157.4,532.1h3.4v3.4h-3.4V532.1z"/>
	<path class="st1" d="M164.5,532.1h3.5l-2.2,6H163L164.5,532.1z M164.1,523.1h3.4v3.4h-3.4V523.1z"/>
	<path class="st1" d="M170.8,523.1h3.4v3.4h-3.4V523.1z M170.8,532.1h3.4v3.4h-3.4V532.1z"/>
	<path class="st1" d="M193,532.1c-1.8,2.6-4.5,3.7-7.6,3.7c-4.2,0-8.7-2.9-8.7-8.7c0-4.8,3.9-8.7,9.3-8.7c3.9,0,8.1,2.1,8.1,7.1
		c0,4.9-4.5,6.7-6,6.7c-0.7,0-1.3-0.4-1.3-1.2h0c-0.6,0.7-1.4,1.2-2.4,1.2c-2,0-3.7-1.6-3.7-4c0-3.2,2.2-5.8,4.9-5.8
		c1.2,0,2.1,0.5,2.8,1.5l0.3-1.2h2l-1.3,5.8c-0.1,0.3-0.2,0.6-0.2,0.8s0.1,0.4,0.4,0.4c1.2,0,2.7-1.3,2.7-4.2c0-3.9-3.4-4.9-6.2-4.9
		c-4,0-6.8,3-6.8,6.5c0,3.7,2.6,6.5,6.2,6.5c1.9,0,4-0.2,5.5-1.5H193z M183.1,527.9c0,1.1,0.7,2,1.8,2c1.5,0,2.7-1.6,2.7-3.1
		c0-1.1-0.7-1.9-1.8-1.9C184.2,524.8,183.1,526.4,183.1,527.9z"/>
	<path class="st1" d="M196.2,519.3c1.5-0.5,3.1-0.8,4.8-0.8c2.8,0,5.5,1.2,5.5,4.3c0,3.4-4.4,4.7-4.1,7.8h-3c0-2.3,0.9-3.5,1.8-4.5
		c0.9-1,1.8-1.7,1.8-3c0-1.6-1.4-2.2-2.8-2.2c-1.3,0-2.5,0.4-3.7,1L196.2,519.3z M199.2,532.1h3.4v3.4h-3.4V532.1z"/>
	<path class="st1" d="M209.8,518.7h3.7l-0.5,11.8h-2.7L209.8,518.7z M210,532.1h3.4v3.4H210V532.1z"/>
	<path class="st1" d="M217.6,533h2.1v-5.3h-1.8v-1.9h1.8v-2c0-3.2,2.6-5.4,5.8-5.4c1.3,0,2.2,0.1,3.1,0.4l-0.2,2.6
		c-0.7-0.2-1.4-0.4-2.3-0.4c-2.1,0-3,1.5-3,3.1v1.6h3.5v1.9h-3.5v5.3h5.4v2.5h-10.8V533z"/>
	<path class="st1" d="M242.1,530.1c0.8-0.9,1-2.4,1.1-3.6h2.9c-0.1,2.1-0.8,4.1-2.1,5.7l3,3.4h-4.1l-1.1-1.5
		c-1.2,1.2-2.9,1.8-4.6,1.8c-3.3,0-6-1.7-6-4.9c0-2,0.9-3.5,3.5-4.6c-1.3-1.2-2.3-2.1-2.3-4c0-2.5,2.7-3.8,5.1-3.8
		c2.4,0,4.8,1.1,4.8,3.8c0,2.3-1.4,3.4-3.2,4.4L242.1,530.1z M236.4,528.1c-1.1,0.6-2,1.4-2,2.7c0,1.5,1.3,2.5,2.8,2.5
		c1.1,0,2.2-0.3,2.9-1L236.4,528.1z M239.3,522.5c0-1.2-0.9-1.7-1.8-1.7c-1,0-1.9,0.6-1.9,1.8c0,0.9,0.9,1.7,1.6,2.4
		C238,524.5,239.3,523.5,239.3,522.5z"/>
	<path class="st1" d="M255.3,524.1l2.3,2.6l-2.2,1.6l-1.7-3l-1.8,3l-2.2-1.6l2.4-2.6l-3.3-0.7l0.8-2.5l3.2,1.4l-0.4-3.5h2.7
		l-0.4,3.5l3.2-1.3l0.8,2.5L255.3,524.1z"/>
	<path class="st1" d="M262.9,522.9c0-2.8,1.5-4.4,4-4.4s4,1.6,4,4.4s-1.4,4.4-4,4.4S262.9,525.7,262.9,522.9z M268.4,522.9
		c0-1-0.2-2.5-1.5-2.5s-1.5,1.5-1.5,2.5s0.3,2.5,1.5,2.5S268.4,523.9,268.4,522.9z M276.6,518.2h2L268.2,536h-2L276.6,518.2z
		 M273.8,531.4c0-2.8,1.5-4.4,4-4.4s4,1.6,4,4.4s-1.4,4.4-4,4.4S273.8,534.2,273.8,531.4z M279.3,531.4c0-1-0.2-2.5-1.5-2.5
		s-1.5,1.5-1.5,2.5c0,1,0.3,2.5,1.5,2.5S279.3,532.4,279.3,531.4z"/>
	<path class="st1" d="M284.5,538.9c2-3.3,3.5-6.6,3.5-10.8c0-4.4-1.4-7.5-3.5-10.8h3c2.4,3.3,3.9,6.3,3.9,10.8
		c0,4.1-1.5,7.5-3.9,10.8H284.5z"/>
</g>
</svg>
