<?xml version="1.0" encoding="utf-8"?>
<!-- Generator: Adobe Illustrator 21.0.2, SVG Export Plug-In . SVG Version: 6.00 Build 0)  -->
<svg version="1.1" id="Layer_1" xmlns="http://www.w3.org/2000/svg" xmlns:xlink="http://www.w3.org/1999/xlink" x="0px" y="0px"
	 viewBox="0 0 576 129.5" style="enable-background:new 0 0 576 129.5;" xml:space="preserve">
<style type="text/css">
	.st0{fill:#003C57;}
	.st1{fill:#A7BC39;}
	.st2{fill:none;stroke:#D0D2D3;stroke-miterlimit:10;}
	.st3{opacity:0.15;}
</style>
<g>
	<path class="st0" d="M110,80.4c-7.2,0-10.4-6-10.4-13.4c0-7.2,3.2-13.4,10.4-13.4c7.2,0,10.4,6,10.4,13.4S117.2,80.4,110,80.4z
		 M110,55.9c-5.3,0-7.2,5.8-7.2,11.1s1.7,11,7.2,11s7.1-5.8,7.1-11.1C117.2,61.6,115.2,55.9,110,55.9z"/>
	<path class="st0" d="M129.3,61.6v18.3h-2.9V61.6h-2.9v-1.9h2.9v-2.9c0-3.7,2.2-6.2,6.3-6.2c0.4,0,0.7,0,0.7,0v1.9H133
		c-2,0-3.7,1.3-3.7,4v3.2h4.2v1.9H129.3L129.3,61.6z"/>
	<path class="st0" d="M141.3,61.6v18.3h-2.9V61.6h-2.9v-1.9h2.9v-2.9c0-3.7,2.2-6.2,6.3-6.2c0.4,0,0.7,0,0.7,0v1.9H145
		c-2,0-3.7,1.3-3.7,4v3.2h4.2v1.9H141.3L141.3,61.6z"/>
	<path class="st0" d="M150.2,56c-1,0-1.9-0.7-1.9-1.9s0.9-1.9,1.9-1.9s1.9,0.9,1.9,1.9C152.1,55.2,151.3,56,150.2,56z M148.8,79.9
		v-20h2.9v20H148.8z"/>
	<path class="st0" d="M164.3,80.4c-4.8,0-8.5-4-8.5-10.5c0-6.6,3.7-10.5,8.6-10.5c2.4,0,4,0.6,4.9,1.3l-0.7,1.9
		c-0.6-0.4-1.9-1.2-3.6-1.2c-4,0-6.2,3.6-6.2,8.4c0,4.9,2.4,8.5,6.2,8.5c1.4,0,2.7-0.4,3.6-1.2l0.7,2
		C168.5,79.8,166.8,80.4,164.3,80.4z"/>
	<path class="st0" d="M174.1,71.1c0.4,4.8,2.9,7.1,7.1,7.1c2.4,0,4.5-0.6,5.3-1.3l0.9,2c-1.3,0.7-3.7,1.3-6.5,1.3
		c-5.6,0-9.6-3.3-9.6-10.5c0-6.9,3.7-10.4,8.6-10.4c5.2,0,8.2,3.2,8.2,9.8L174.1,71.1z M179.9,61.3c-3.3,0-6,2.6-6,8.2l11.4-1.6
		C185.3,63.2,183,61.3,179.9,61.3z"/>
	<path class="st0" d="M202.3,61.6v18.3h-2.9V61.6h-2.9v-1.9h2.9v-2.9c0-3.7,2.2-6.2,6.3-6.2c0.3,0,0.7,0,0.7,0v1.9H206
		c-2,0-3.7,1.3-3.7,4v3.2h4.2v1.9H202.3L202.3,61.6z"/>
	<path class="st0" d="M217.2,80.4c-5.9,0-8.6-4.5-8.6-10.5c0-5.9,2.7-10.5,8.6-10.5s8.6,4.6,8.6,10.5
		C225.8,75.9,223.1,80.4,217.2,80.4z M217.2,61.3c-4.5,0-5.6,4.5-5.6,8.6s1.3,8.4,5.6,8.4c4.5,0,5.6-4.3,5.6-8.4
		C222.8,66,221.6,61.3,217.2,61.3z"/>
	<path class="st0" d="M238.5,61.6c-1.9-0.4-4.5-0.4-5.9,0.4v17.9h-2.9V60.8c2-0.9,4.3-1.3,7.9-1.3c0.4,0,1.3,0,1.4,0L238.5,61.6z"/>
	<path class="st0" d="M264.8,80.2l-11.4-17.6c-0.9-1.3-1.4-2.6-1.4-2.6h-0.1c0,0,0.1,1.4,0.1,3v17.1h-3.7V54.6h4.2l10.8,16.6
		c1,1.4,1.4,2.7,1.4,2.7h0.1c0,0-0.1-1.4-0.1-2.9V54.6h3.7v25.6H264.8z"/>
	<path class="st0" d="M280.8,80.6c-5.9,0-8.6-2.3-8.6-6.2c0-5.3,5.6-6.9,12.4-7.5v-1.2c0-2.9-1.9-3.6-4.6-3.6c-2,0-4.2,0.6-5.3,1.2
		l-1-2.4c1.3-0.6,4-1.4,7.2-1.4c4.5,0,7.8,1.9,7.8,6.9v12.8C286.8,80.1,284.1,80.6,280.8,80.6z M284.5,69c-5,0.4-8.4,1.4-8.4,5.3
		c0,2.7,2,3.9,4.9,3.9c1.3,0,2.6-0.3,3.3-0.6L284.5,69L284.5,69z"/>
	<path class="st0" d="M300.2,80.5c-4.2,0-5.9-2.7-5.9-5.3V62.6h-2.9V60h2.9v-4.5l4.3-1.3V60h3.9v2.6h-3.9v12.2c0,1.6,1,2.9,2.7,2.9
		c0.4,0,0.7-0.1,1.3-0.3v2.7C302.1,80.4,301.2,80.5,300.2,80.5z"/>
	<path class="st0" d="M308,56.7c-1.3,0-2.4-1-2.4-2.2c0-1.3,1.2-2.2,2.4-2.2s2.4,1,2.4,2.2C310.6,55.6,309.3,56.7,308,56.7z
		 M306,80.2V60h4.3v20H306V80.2z"/>
	<path class="st0" d="M323.1,80.6c-6.2,0-9.2-4.5-9.2-10.5s3-10.5,9.2-10.5s9.2,4.5,9.2,10.5C332.4,76.2,329.2,80.6,323.1,80.6z
		 M323.1,62.4c-3.7,0-4.8,3.9-4.8,7.8s1.3,7.6,4.8,7.6c3.7,0,4.8-3.7,4.8-7.6S326.7,62.4,323.1,62.4z"/>
	<path class="st0" d="M348.2,80.2V66c0-2.6-2.2-3.6-4.6-3.6c-1.3,0-2.7,0.3-3.5,0.6v17.3h-4.3V60.9c1.9-0.9,4.8-1.4,7.9-1.4
		c5.3,0,8.6,1.9,8.6,6.2v14.4L348.2,80.2L348.2,80.2z"/>
	<path class="st0" d="M364.6,80.6c-5.9,0-8.6-2.3-8.6-6.2c0-5.3,5.6-6.9,12.4-7.5v-1.2c0-2.9-1.9-3.6-4.6-3.6c-2,0-4.2,0.6-5.3,1.2
		l-1-2.4c1.3-0.6,4-1.4,7.2-1.4c4.5,0,7.8,1.9,7.8,6.9v12.8C370.5,80.1,367.9,80.6,364.6,80.6z M368.2,69c-5,0.4-8.4,1.4-8.4,5.3
		c0,2.7,2,3.9,4.9,3.9c1.3,0,2.6-0.3,3.3-0.6L368.2,69L368.2,69z"/>
	<path class="st0" d="M376.7,80.2v-9.6V51h4.3v9.9v19.3H376.7z"/>
	<path class="st0" d="M398,80.6c-3,0-5.6-0.7-6.9-1.4l1.3-3.2c1,0.6,2.9,1.3,4.9,1.3c2.9,0,5.2-1.7,5.2-4.3
		c0-5.6-10.7-3.5-10.7-11.4c0-4,3.3-7.6,8.5-7.6c2.9,0,5,0.7,6.2,1.4l-1.2,2.9c-1-0.6-2.7-1.3-4.5-1.3c-2.9,0-4.5,1.7-4.5,4
		c0,5.5,10.9,3.2,10.9,11.7C406.9,77.2,403.2,80.6,398,80.6z"/>
	<path class="st0" d="M417.9,80.5c-4.2,0-5.9-2.7-5.9-5.3V62.6h-2.9V60h2.9v-4.5l4.3-1.3V60h3.9v2.6h-3.9v12.2c0,1.6,1,2.9,2.7,2.9
		c0.4,0,0.7-0.1,1.3-0.3v2.7C419.8,80.4,418.9,80.5,417.9,80.5z"/>
	<path class="st0" d="M431.1,80.6c-5.9,0-8.6-2.3-8.6-6.2c0-5.3,5.6-6.9,12.4-7.5v-1.2c0-2.9-1.9-3.6-4.6-3.6c-2,0-4.2,0.6-5.3,1.2
		l-1-2.4c1.3-0.6,4-1.4,7.2-1.4c4.5,0,7.8,1.9,7.8,6.9v12.8C437.2,80.1,434.4,80.6,431.1,80.6z M434.9,69c-5,0.4-8.4,1.4-8.4,5.3
		c0,2.7,2,3.9,4.9,3.9c1.3,0,2.6-0.3,3.3-0.6L434.9,69L434.9,69z"/>
	<path class="st0" d="M450.6,80.5c-4.2,0-5.9-2.7-5.9-5.3V62.6h-2.9V60h2.9v-4.5l4.3-1.3V60h3.9v2.6H449v12.2c0,1.6,1,2.9,2.7,2.9
		c0.4,0,0.7-0.1,1.3-0.3v2.7C452.4,80.4,451.6,80.5,450.6,80.5z"/>
	<path class="st0" d="M458.5,56.7c-1.3,0-2.4-1-2.4-2.2c0-1.3,1.2-2.2,2.4-2.2c1.3,0,2.4,1,2.4,2.2
		C460.9,55.6,459.8,56.7,458.5,56.7z M456.2,80.2V60h4.3v20h-4.3V80.2z"/>
	<path class="st0" d="M470,80.6c-2.4,0-4.9-0.7-6.2-1.4l1.2-2.9c0.9,0.6,2.6,1.3,4.5,1.3c2.2,0,3.9-1.4,3.9-3.2
		c0-4.8-8.8-2.6-8.8-9.1c0-2.9,2.7-5.9,6.9-5.9c2.4,0,4.3,0.6,5.6,1.4l-1.2,2.4c-0.6-0.4-2-1.2-3.7-1.2c-2.2,0-3.6,1.3-3.6,2.9
		c0,4.5,8.9,2.4,8.9,9.2C477.8,77.6,474.8,80.6,470,80.6z"/>
	<path class="st0" d="M488.7,80.5c-4.2,0-5.9-2.7-5.9-5.3V62.6H480V60h2.9v-4.5l4.3-1.3V60h3.9v2.6h-3.9v12.2c0,1.6,1,2.9,2.7,2.9
		c0.4,0,0.7-0.1,1.3-0.3v2.7C490.6,80.4,489.7,80.5,488.7,80.5z"/>
	<path class="st0" d="M496.5,56.7c-1.3,0-2.4-1-2.4-2.2c0-1.3,1.2-2.2,2.4-2.2c1.3,0,2.4,1,2.4,2.2C499.1,55.6,498,56.7,496.5,56.7z
		 M494.5,80.2V60h4.3v20h-4.3V80.2z"/>
	<path class="st0" d="M511.1,80.6c-4.9,0-8.6-4-8.6-10.5c0-6.6,3.9-10.5,8.6-10.5c2.4,0,4.2,0.7,5.2,1.4l-1,2.4
		c-0.6-0.4-1.7-1-3.2-1c-3.6,0-5.3,3-5.3,7.5s2,7.6,5.3,7.6c1.3,0,2.4-0.4,3.2-1l1.2,2.7C515.4,79.9,513.6,80.6,511.1,80.6z"/>
	<path class="st0" d="M524.3,80.6c-2.4,0-4.9-0.7-6.2-1.4l1.2-2.9c0.9,0.6,2.6,1.3,4.5,1.3c2.2,0,3.9-1.4,3.9-3.2
		c0-4.8-8.8-2.6-8.8-9.1c0-2.9,2.7-5.9,6.9-5.9c2.4,0,4.3,0.6,5.6,1.4l-1.2,2.4c-0.6-0.4-2-1.2-3.7-1.2c-2.2,0-3.6,1.3-3.6,2.9
		c0,4.5,8.9,2.4,8.9,9.2C532.2,77.6,529.1,80.6,524.3,80.6z"/>
</g>
<g>
	<path class="st1" d="M44.5,69.1c0.6-1.3,1.2-2.3,1.9-3.7c-0.9-2-1.3-3-1.9-5.3C44.5,63.8,44.5,66.2,44.5,69.1z M48.4,44.2
		c0,0-4,0-4,4.9c0,0.4,0-0.6,0,0.7c0.4,4.6,1.9,9.4,3.5,13.4c2.2-3.6,4.3-5.8,7.6-8.6c6.3-5.5,14-8.6,25.8-10.4
		C81.3,44.2,48.4,44.2,48.4,44.2z"/>
	<path class="st0" d="M86.8,46.9c-13.5,1.3-22.8,5-29.2,10.7c-3.6,3-5.8,5.5-8.1,9.5c5.3,10.1,15.8,18.4,32.3,19.6h0.3
		c0,0,5,0.1,5-5.5V46.9C87.1,46.9,87,46.9,86.8,46.9z M52.1,75.5c-1.6-1.9-2.9-3.7-4-5.9c-1.4,2.7-2.7,5.6-3.7,8.8
		c0,4.9,0,8.4,0,8.4h24.9C61.3,84.5,56.7,80.8,52.1,75.5z"/>
</g>
<line class="st2" x1="43.8" y1="0" x2="43.8" y2="129.5"/>
<line class="st2" x1="0.1" y1="43.7" x2="575.8" y2="43.7"/>
<line class="st2" x1="0.1" y1="87.2" x2="575.9" y2="87.2"/>
<line class="st2" x1="532.5" y1="0" x2="532.5" y2="129.5"/>
<g class="st3">
	<path class="st1" d="M0.4,25.3C1,24,1.6,22.9,2.3,21.5c-0.9-2-1.3-3-1.9-5.3C0.4,19.9,0.4,22.3,0.4,25.3z M4.3,0.2c0,0-4,0-4,4.9
		c0,0.4,0-0.6,0,0.7c0.4,4.6,1.9,9.5,3.5,13.5c2.2-3.6,4.3-5.8,7.6-8.7c6.3-5.5,14.1-8.7,26-10.5C37.4,0.2,4.3,0.2,4.3,0.2z"/>
	<path class="st0" d="M42.9,2.9C29.4,4.2,20,7.9,13.6,13.7c-3.6,3-5.8,5.5-8.2,9.6C10.7,33.4,21.3,41.8,37.9,43h0.3c0,0,5,0.1,5-5.5
		V2.9C43.2,2.9,43.1,2.9,42.9,2.9z M8,31.7c-1.6-1.9-2.9-3.7-4-5.9c-1.4,2.7-2.7,5.6-3.7,8.9c0,4.9,0,8.5,0,8.5h25.1
		C17.3,40.8,12.7,37,8,31.7z"/>
</g>
</svg>
