<?xml version="1.0" encoding="utf-8"?>
<!-- Generator: Adobe Illustrator 21.0.2, SVG Export Plug-In . SVG Version: 6.00 Build 0)  -->
<svg version="1.1" id="Layer_1" xmlns="http://www.w3.org/2000/svg" xmlns:xlink="http://www.w3.org/1999/xlink" x="0px" y="0px"
	 width="338.5px" height="29.5px" viewBox="0 0 338.5 29.5" style="enable-background:new 0 0 338.5 29.5;" xml:space="preserve">
<g>
	<path d="M45.6,25.1c-5,0-7.2-4.2-7.2-9.3c0-5,2.2-9.3,7.2-9.3s7.2,4.2,7.2,9.3S50.6,25.1,45.6,25.1z M45.6,8.1c-3.7,0-5,4-5,7.7
		s1.2,7.7,5,7.7s4.9-4,4.9-7.7C50.6,12.1,49.2,8.1,45.6,8.1z"/>
	<path d="M59,12.1v12.7h-2V12.1h-2v-1.3h2v-2c0-2.6,1.5-4.3,4.4-4.3c0.3,0,0.5,0,0.5,0v1.3h-0.3c-1.4,0-2.6,0.9-2.6,2.8v2.2h2.9v1.3
		H59L59,12.1z"/>
	<path d="M67.3,12.1v12.7h-2V12.1h-2v-1.3h2v-2c0-2.6,1.5-4.3,4.4-4.3c0.3,0,0.5,0,0.5,0v1.3h-0.3c-1.4,0-2.6,0.9-2.6,2.8v2.2h2.9
		v1.3H67.3L67.3,12.1z"/>
	<path d="M73.5,8.2c-0.7,0-1.3-0.5-1.3-1.3s0.6-1.3,1.3-1.3c0.7,0,1.3,0.6,1.3,1.3S74.3,8.2,73.5,8.2z M72.5,24.8V10.9h2v13.9H72.5z
		"/>
	<path d="M83.3,25.1c-3.3,0-5.9-2.8-5.9-7.3c0-4.6,2.6-7.3,6-7.3c1.7,0,2.8,0.4,3.4,0.9l-0.5,1.3c-0.4-0.3-1.3-0.8-2.5-0.8
		c-2.8,0-4.3,2.5-4.3,5.8c0,3.4,1.7,5.9,4.3,5.9c1,0,1.9-0.3,2.5-0.8l0.5,1.4C86.2,24.7,85,25.1,83.3,25.1z"/>
	<path d="M90.1,18.7c0.3,3.3,2,4.9,4.9,4.9c1.7,0,3.1-0.4,3.7-0.9l0.6,1.4c-0.9,0.5-2.6,0.9-4.5,0.9c-3.9,0-6.7-2.3-6.7-7.3
		c0-4.8,2.6-7.2,6-7.2c3.6,0,5.7,2.2,5.7,6.8L90.1,18.7z M94.1,11.9c-2.3,0-4.2,1.8-4.2,5.7l7.9-1.1C97.9,13.2,96.3,11.9,94.1,11.9z
		"/>
	<path d="M109.7,12.1v12.7h-2V12.1h-2v-1.3h2v-2c0-2.6,1.5-4.3,4.4-4.3c0.2,0,0.5,0,0.5,0v1.3h-0.3c-1.4,0-2.6,0.9-2.6,2.8v2.2h2.9
		v1.3H109.7L109.7,12.1z"/>
	<path d="M120,25.1c-4.1,0-6-3.1-6-7.3c0-4.1,1.9-7.3,6-7.3s6,3.2,6,7.3C126,22,124.1,25.1,120,25.1z M120,11.9
		c-3.1,0-3.9,3.1-3.9,6s0.9,5.8,3.9,5.8c3.1,0,3.9-3,3.9-5.8S123.1,11.9,120,11.9z"/>
	<path d="M134.8,12.1c-1.3-0.3-3.1-0.3-4.1,0.3v12.4h-2V11.5c1.4-0.6,3-0.9,5.5-0.9c0.3,0,0.9,0,1,0L134.8,12.1z"/>
	<path d="M153.1,25l-7.9-12.2c-0.6-0.9-1-1.8-1-1.8h-0.1c0,0,0.1,1,0.1,2.1V25h-2.6V7.2h2.9l7.5,11.5c0.7,1,1,1.9,1,1.9h0.1
		c0,0-0.1-1-0.1-2V7.2h2.6V25H153.1z"/>
	<path d="M164.2,25.3c-4.1,0-6-1.6-6-4.3c0-3.7,3.9-4.8,8.6-5.2V15c0-2-1.3-2.5-3.2-2.5c-1.4,0-2.9,0.4-3.7,0.8l-0.7-1.7
		c0.9-0.4,2.8-1,5-1c3.1,0,5.4,1.3,5.4,4.8v8.9C168.4,24.9,166.5,25.3,164.2,25.3z M166.8,17.2c-3.5,0.3-5.8,1-5.8,3.7
		c0,1.9,1.4,2.7,3.4,2.7c0.9,0,1.8-0.2,2.3-0.4L166.8,17.2L166.8,17.2z"/>
	<path d="M177.7,25.2c-2.9,0-4.1-1.9-4.1-3.7v-8.7h-2V11h2V7.9l3-0.9v4h2.7v1.8h-2.7v8.5c0,1.1,0.7,2,1.9,2c0.3,0,0.5-0.1,0.9-0.2
		V25C179,25.1,178.4,25.2,177.7,25.2z"/>
	<path d="M183.1,8.7c-0.9,0-1.7-0.7-1.7-1.5c0-0.9,0.8-1.5,1.7-1.5s1.7,0.7,1.7,1.5C184.9,7.9,184,8.7,183.1,8.7z M181.7,25V11h3
		v13.9h-3V25z"/>
	<path d="M193.6,25.3c-4.3,0-6.4-3.1-6.4-7.3s2.1-7.3,6.4-7.3s6.4,3.1,6.4,7.3S197.8,25.3,193.6,25.3z M193.6,12.6
		c-2.6,0-3.3,2.7-3.3,5.4s0.9,5.3,3.3,5.3c2.6,0,3.3-2.6,3.3-5.3S196.1,12.6,193.6,12.6z"/>
	<path d="M211,25v-9.9c0-1.8-1.5-2.5-3.2-2.5c-0.9,0-1.9,0.2-2.4,0.4v12h-3V11.6c1.3-0.6,3.3-1,5.5-1c3.7,0,6,1.3,6,4.3v10L211,25
		L211,25z"/>
	<path d="M222.4,25.3c-4.1,0-6-1.6-6-4.3c0-3.7,3.9-4.8,8.6-5.2V15c0-2-1.3-2.5-3.2-2.5c-1.4,0-2.9,0.4-3.7,0.8l-0.7-1.7
		c0.9-0.4,2.8-1,5-1c3.1,0,5.4,1.3,5.4,4.8v8.9C226.5,24.9,224.7,25.3,222.4,25.3z M224.9,17.2c-3.5,0.3-5.8,1-5.8,3.7
		c0,1.9,1.4,2.7,3.4,2.7c0.9,0,1.8-0.2,2.3-0.4L224.9,17.2L224.9,17.2z"/>
	<path d="M230.8,25v-6.7V4.7h3v6.9V25H230.8z"/>
	<path d="M245.6,25.3c-2.1,0-3.9-0.5-4.8-1l0.9-2.2c0.7,0.4,2,0.9,3.4,0.9c2,0,3.6-1.2,3.6-3c0-3.9-7.4-2.4-7.4-7.9
		c0-2.8,2.3-5.3,5.9-5.3c2,0,3.5,0.5,4.3,1l-0.8,2c-0.7-0.4-1.9-0.9-3.1-0.9c-2,0-3.1,1.2-3.1,2.8c0,3.8,7.6,2.2,7.6,8.1
		C251.8,22.9,249.2,25.3,245.6,25.3z"/>
	<path d="M259.4,25.2c-2.9,0-4.1-1.9-4.1-3.7v-8.7h-2V11h2V7.9l3-0.9v4h2.7v1.8h-2.7v8.5c0,1.1,0.7,2,1.9,2c0.3,0,0.5-0.1,0.9-0.2
		V25C260.7,25.1,260.1,25.2,259.4,25.2z"/>
	<path d="M268.6,25.3c-4.1,0-6-1.6-6-4.3c0-3.7,3.9-4.8,8.6-5.2V15c0-2-1.3-2.5-3.2-2.5c-1.4,0-2.9,0.4-3.7,0.8l-0.7-1.7
		c0.9-0.4,2.8-1,5-1c3.1,0,5.4,1.3,5.4,4.8v8.9C272.8,24.9,270.9,25.3,268.6,25.3z M271.2,17.2c-3.5,0.3-5.8,1-5.8,3.7
		c0,1.9,1.4,2.7,3.4,2.7c0.9,0,1.8-0.2,2.3-0.4L271.2,17.2L271.2,17.2z"/>
	<path d="M282.1,25.2c-2.9,0-4.1-1.9-4.1-3.7v-8.7h-2V11h2V7.9l3-0.9v4h2.7v1.8H281v8.5c0,1.1,0.7,2,1.9,2c0.3,0,0.5-0.1,0.9-0.2V25
		C283.4,25.1,282.8,25.2,282.1,25.2z"/>
	<path d="M287.6,8.7c-0.9,0-1.7-0.7-1.7-1.5c0-0.9,0.8-1.5,1.7-1.5c0.9,0,1.7,0.7,1.7,1.5C289.3,7.9,288.5,8.7,287.6,8.7z M286,25
		V11h3v13.9h-3V25z"/>
	<path d="M295.6,25.3c-1.7,0-3.4-0.5-4.3-1l0.8-2c0.6,0.4,1.8,0.9,3.1,0.9c1.5,0,2.7-1,2.7-2.2c0-3.3-6.1-1.8-6.1-6.3
		c0-2,1.9-4.1,4.8-4.1c1.7,0,3,0.4,3.9,1l-0.8,1.7c-0.4-0.3-1.4-0.8-2.6-0.8c-1.5,0-2.5,0.9-2.5,2c0,3.1,6.2,1.7,6.2,6.4
		C301,23.2,298.9,25.3,295.6,25.3z"/>
	<path d="M308.6,25.2c-2.9,0-4.1-1.9-4.1-3.7v-8.7h-2V11h2V7.9l3-0.9v4h2.7v1.8h-2.7v8.5c0,1.1,0.7,2,1.9,2c0.3,0,0.5-0.1,0.9-0.2
		V25C309.9,25.1,309.3,25.2,308.6,25.2z"/>
	<path d="M314,8.7c-0.9,0-1.7-0.7-1.7-1.5c0-0.9,0.8-1.5,1.7-1.5c0.9,0,1.7,0.7,1.7,1.5C315.8,7.9,315,8.7,314,8.7z M312.6,25V11h3
		v13.9h-3V25z"/>
	<path d="M324.1,25.3c-3.4,0-6-2.8-6-7.3c0-4.6,2.7-7.3,6-7.3c1.7,0,2.9,0.5,3.6,1l-0.7,1.7c-0.4-0.3-1.2-0.7-2.2-0.7
		c-2.5,0-3.7,2.1-3.7,5.2s1.4,5.3,3.7,5.3c0.9,0,1.7-0.3,2.2-0.7l0.8,1.9C327.1,24.8,325.9,25.3,324.1,25.3z"/>
	<path d="M333.3,25.3c-1.7,0-3.4-0.5-4.3-1l0.8-2c0.6,0.4,1.8,0.9,3.1,0.9c1.5,0,2.7-1,2.7-2.2c0-3.3-6.1-1.8-6.1-6.3
		c0-2,1.9-4.1,4.8-4.1c1.7,0,3,0.4,3.9,1l-0.8,1.7c-0.4-0.3-1.4-0.8-2.6-0.8c-1.5,0-2.5,0.9-2.5,2c0,3.1,6.2,1.7,6.2,6.4
		C338.8,23.2,336.6,25.3,333.3,25.3z"/>
</g>
<g>
	<path d="M0.1,17.3c0.4-0.9,0.8-1.6,1.3-2.6c-0.6-1.4-0.9-2.1-1.3-3.7C0.1,13.6,0.1,15.3,0.1,17.3z M2.8,0C2.8,0,0,0,0,3.4
		C0,3.7,0,3,0,3.9c0.3,3.2,1.3,6.5,2.4,9.3c1.5-2.5,3-4,5.3-6c4.4-3.8,9.7-6,17.9-7.2C25.6,0,2.8,0,2.8,0z"/>
	<path d="M29.5,1.9C20.1,2.8,13.7,5.4,9.2,9.3c-2.5,2.1-4,3.8-5.6,6.6c3.7,7,11,12.8,22.4,13.6h0.2c0,0,3.5,0.1,3.5-3.8V1.9
		C29.7,1.9,29.6,1.9,29.5,1.9z M5.4,21.7c-1.1-1.3-2-2.6-2.8-4.1c-1,1.9-1.9,3.9-2.6,6.1c0,3.4,0,5.8,0,5.8h17.3
		C11.8,28,8.6,25.4,5.4,21.7z"/>
</g>
</svg>
