<?xml version="1.0" encoding="utf-8"?>
<!-- Generator: Adobe Illustrator 21.0.2, SVG Export Plug-In . SVG Version: 6.00 Build 0)  -->
<svg version="1.1" id="Layer_1" xmlns="http://www.w3.org/2000/svg" xmlns:xlink="http://www.w3.org/1999/xlink" x="0px" y="0px"
	 viewBox="0 0 576 576" style="enable-background:new 0 0 576 576;" xml:space="preserve">
<style type="text/css">
	.st0{fill:#414042;}
	.st1{font-family:'OpenSans';}
	.st2{font-size:24px;}
	.st3{font-family:'OpenSans-Semibold';}
	.st4{font-family:'OpenSans-Bold';}
</style>
<text transform="matrix(1 0 0 1 1 31.5)" class="st0 st1 st2">Open Sans Regular</text>
<text transform="matrix(1 0 0 1 1 87.5)" class="st0 st1 st2">Aa Bb Cc Dd Ee Ff Gg Hh Ii Jj Kk Ll Mm Nn Oo Pp </text>
<text transform="matrix(1 0 0 1 1 119.5)" class="st0 st1 st2">Qq Rr Ss Tt Uu Vv Ww Xx Yy Zz</text>
<text transform="matrix(1 0 0 1 1 151.5)" class="st0 st1 st2">1234567890 (,.;:@?!£&amp;*%)</text>
<text transform="matrix(1 0 0 1 1 223.5)" class="st0 st3 st2">Open Sans Semi-bold</text>
<text transform="matrix(1 0 0 1 1 279.5)" class="st0 st3 st2">Aa Bb Cc Dd Ee Ff Gg Hh Ii Jj Kk Ll Mm Nn Oo Pp  </text>
<text transform="matrix(1 0 0 1 1 311.5)" class="st0 st3 st2">Qq Rr Ss Tt Uu Vv Ww Xx Yy Zz</text>
<text transform="matrix(1 0 0 1 1 343.5)" class="st0 st3 st2">1234567890 (,.;:@?!£&amp;*%)</text>
<text transform="matrix(1 0 0 1 1 415.5)" class="st0 st4 st2">Open Sans Bold</text>
<text transform="matrix(1 0 0 1 1 471.5)" class="st0 st4 st2">Aa Bb Cc Dd Ee Ff Gg Hh Ii Jj Kk Ll Mm Nn Oo Pp  </text>
<text transform="matrix(1 0 0 1 1 503.5)" class="st0 st4 st2">Qq Rr Ss Tt Uu Vv Ww Xx Yy Zz</text>
<text transform="matrix(1 0 0 1 1 535.5)" class="st0 st4 st2">1234567890 (,.;:@?!£&amp;*%)</text>
</svg>
