<?xml version="1.0" encoding="utf-8"?>
<!-- Generator: Adobe Illustrator 21.0.2, SVG Export Plug-In . SVG Version: 6.00 Build 0)  -->
<svg version="1.1" id="Layer_1" xmlns="http://www.w3.org/2000/svg" xmlns:xlink="http://www.w3.org/1999/xlink" x="0px" y="0px"
	 viewBox="0 0 944 360.7" style="enable-background:new 0 0 944 360.7;" xml:space="preserve">
<style type="text/css">
	.st0{fill:#414042;}
	.st1{fill:#FFFFFF;}
	.st2{fill:#D2376D;}
	.st3{opacity:0.3;fill:#FFFFFF;enable-background:new    ;}
	.st4{opacity:0.25;fill:#FFFFFF;enable-background:new    ;}
	.st5{fill:none;stroke:#414042;stroke-miterlimit:10;}
	.st6{fill:none;stroke:#A6A8AB;stroke-miterlimit:10;}
	.st7{fill:#FFFFFF;stroke:#A6A8AB;stroke-miterlimit:10;}
	.st8{font-family:'OpenSans';}
	.st9{font-size:18px;}
	.st10{font-family:'OpenSans-Semibold';}
</style>
<rect class="st0" width="644.4" height="360.6"/>
<g>
	<path class="st1" d="M70.6,98.7h-5V79.5h-6.3v-4.1H77v4.1h-6.3V98.7z"/>
	<path class="st1" d="M96.7,98.7h-4.9V88.3c0-2.6-1-3.9-2.9-3.9c-1.4,0-2.3,0.5-3,1.4c-0.6,0.9-0.9,2.4-0.9,4.5v8.4h-4.9V73.9h4.9
		v5.1c0,0.4,0,1.3-0.1,2.8l-0.1,1.4h0.3c1.1-1.7,2.8-2.6,5.2-2.6c2.1,0,3.7,0.6,4.8,1.7c1.1,1.1,1.6,2.7,1.6,4.9V98.7z"/>
	<path class="st1" d="M101.5,76.3c0-1.6,0.9-2.4,2.7-2.4c1.8,0,2.7,0.8,2.7,2.4c0,0.8-0.2,1.3-0.7,1.8c-0.4,0.4-1.1,0.6-2,0.6
		C102.4,78.7,101.5,77.9,101.5,76.3z M106.6,98.7h-4.9V80.9h4.9V98.7z"/>
	<path class="st1" d="M124.2,93.4c0,1.8-0.6,3.2-1.9,4.2c-1.3,1-3.2,1.4-5.7,1.4c-1.3,0-2.4-0.1-3.3-0.3c-0.9-0.2-1.8-0.4-2.6-0.8
		v-4c0.9,0.4,1.9,0.8,3.1,1.1c1.1,0.3,2.1,0.4,3,0.4c1.8,0,2.7-0.5,2.7-1.5c0-0.4-0.1-0.7-0.4-0.9c-0.2-0.2-0.6-0.5-1.2-0.8
		s-1.3-0.7-2.3-1.1c-1.4-0.6-2.4-1.1-3-1.6c-0.6-0.5-1.1-1.1-1.4-1.7c-0.3-0.6-0.4-1.4-0.4-2.3c0-1.6,0.6-2.8,1.8-3.7s3-1.3,5.2-1.3
		c2.2,0,4.2,0.5,6.3,1.4l-1.5,3.5c-0.9-0.4-1.7-0.7-2.5-0.9c-0.8-0.2-1.6-0.4-2.4-0.4c-1.4,0-2.2,0.4-2.2,1.2c0,0.4,0.2,0.8,0.7,1.1
		s1.5,0.8,3,1.4c1.4,0.6,2.4,1.1,3.1,1.6c0.6,0.5,1.1,1.1,1.4,1.7C124,91.8,124.2,92.6,124.2,93.4z"/>
	<path class="st1" d="M146.4,80.5c0.7,0,1.2,0,1.6,0.1l-0.4,4.6c-0.4-0.1-0.9-0.2-1.4-0.2c-1.6,0-2.8,0.4-3.6,1.2
		c-0.9,0.8-1.3,1.9-1.3,3.4v9.1h-4.9V80.9h3.7l0.7,3h0.2c0.6-1,1.3-1.8,2.2-2.4C144.3,80.8,145.3,80.5,146.4,80.5z"/>
	<path class="st1" d="M159.4,99.1c-2.9,0-5.1-0.8-6.7-2.4c-1.6-1.6-2.4-3.8-2.4-6.7c0-3,0.7-5.3,2.2-6.9c1.5-1.6,3.6-2.5,6.2-2.5
		c2.5,0,4.5,0.7,5.9,2.2c1.4,1.4,2.1,3.4,2.1,6V91h-11.5c0.1,1.4,0.5,2.5,1.2,3.2c0.8,0.8,1.8,1.2,3.2,1.2c1.1,0,2.1-0.1,3.1-0.3
		s2-0.6,3-1.1v3.8c-0.9,0.4-1.8,0.7-2.7,1C162,99,160.8,99.1,159.4,99.1z M158.7,84c-1,0-1.8,0.3-2.4,1c-0.6,0.7-0.9,1.6-1,2.8h6.8
		c0-1.2-0.3-2.1-0.9-2.8C160.6,84.3,159.8,84,158.7,84z"/>
	<path class="st1" d="M180.5,99.1c-2.1,0-3.7-0.8-4.9-2.3h-0.3c0.2,1.5,0.3,2.4,0.3,2.6v7.2h-4.9V80.9h4l0.7,2.3h0.2
		c1.1-1.8,2.8-2.7,5.1-2.7c2.1,0,3.8,0.8,5,2.4c1.2,1.6,1.8,3.9,1.8,6.8c0,1.9-0.3,3.6-0.8,5c-0.6,1.4-1.4,2.5-2.4,3.2
		C183.1,98.7,181.9,99.1,180.5,99.1z M179,84.4c-1.2,0-2.1,0.4-2.6,1.1c-0.6,0.7-0.8,2-0.9,3.7v0.5c0,1.9,0.3,3.3,0.9,4.1
		c0.6,0.8,1.5,1.2,2.7,1.2c2.2,0,3.3-1.8,3.3-5.4c0-1.8-0.3-3.1-0.8-4C181,84.9,180.2,84.4,179,84.4z"/>
	<path class="st1" d="M207.6,89.8c0,2.9-0.8,5.2-2.3,6.8c-1.5,1.6-3.7,2.5-6.4,2.5c-1.7,0-3.2-0.4-4.5-1.1s-2.3-1.8-3-3.2
		c-0.7-1.4-1.1-3-1.1-4.9c0-2.9,0.8-5.2,2.3-6.8c1.5-1.6,3.7-2.4,6.4-2.4c1.7,0,3.2,0.4,4.5,1.1s2.3,1.8,3,3.2
		C207.2,86.3,207.6,87.9,207.6,89.8z M195.2,89.8c0,1.8,0.3,3.1,0.9,4c0.6,0.9,1.5,1.4,2.8,1.4c1.3,0,2.2-0.4,2.8-1.4
		c0.6-0.9,0.9-2.2,0.9-4c0-1.8-0.3-3.1-0.9-4c-0.6-0.9-1.5-1.3-2.8-1.3c-1.3,0-2.2,0.4-2.8,1.3C195.5,86.7,195.2,88,195.2,89.8z"/>
	<path class="st1" d="M221.6,80.5c0.7,0,1.2,0,1.6,0.1l-0.4,4.6c-0.4-0.1-0.9-0.2-1.4-0.2c-1.6,0-2.8,0.4-3.6,1.2
		c-0.9,0.8-1.3,1.9-1.3,3.4v9.1h-4.9V80.9h3.7l0.7,3h0.2c0.6-1,1.3-1.8,2.2-2.4C219.5,80.8,220.5,80.5,221.6,80.5z"/>
	<path class="st1" d="M234,95.2c0.9,0,1.9-0.2,3.1-0.6v3.6c-1.2,0.5-2.7,0.8-4.5,0.8c-1.9,0-3.4-0.5-4.3-1.5c-0.9-1-1.3-2.5-1.3-4.4
		v-8.6h-2.3v-2.1l2.7-1.6l1.4-3.8h3.1v3.8h5v3.7h-5v8.6c0,0.7,0.2,1.2,0.6,1.5C232.9,95,233.4,95.2,234,95.2z"/>
	<path class="st1" d="M249,76.3c0-1.6,0.9-2.4,2.7-2.4c1.8,0,2.7,0.8,2.7,2.4c0,0.8-0.2,1.3-0.7,1.8c-0.4,0.4-1.1,0.6-2,0.6
		C249.9,78.7,249,77.9,249,76.3z M254.1,98.7h-4.9V80.9h4.9V98.7z"/>
	<path class="st1" d="M271.6,93.4c0,1.8-0.6,3.2-1.9,4.2c-1.3,1-3.2,1.4-5.7,1.4c-1.3,0-2.4-0.1-3.3-0.3c-0.9-0.2-1.8-0.4-2.6-0.8
		v-4c0.9,0.4,1.9,0.8,3.1,1.1c1.1,0.3,2.1,0.4,3,0.4c1.8,0,2.7-0.5,2.7-1.5c0-0.4-0.1-0.7-0.4-0.9c-0.2-0.2-0.6-0.5-1.2-0.8
		c-0.6-0.3-1.3-0.7-2.3-1.1c-1.4-0.6-2.4-1.1-3-1.6c-0.6-0.5-1.1-1.1-1.4-1.7c-0.3-0.6-0.4-1.4-0.4-2.3c0-1.6,0.6-2.8,1.8-3.7
		s3-1.3,5.2-1.3c2.2,0,4.2,0.5,6.3,1.4l-1.5,3.5c-0.9-0.4-1.7-0.7-2.5-0.9c-0.8-0.2-1.6-0.4-2.4-0.4c-1.4,0-2.2,0.4-2.2,1.2
		c0,0.4,0.2,0.8,0.7,1.1s1.5,0.8,3,1.4c1.4,0.6,2.4,1.1,3.1,1.6c0.6,0.5,1.1,1.1,1.4,1.7C271.5,91.8,271.6,92.6,271.6,93.4z"/>
	<path class="st1" d="M291.5,95.2c0.9,0,1.9-0.2,3.1-0.6v3.6c-1.2,0.5-2.7,0.8-4.5,0.8c-1.9,0-3.4-0.5-4.3-1.5
		c-0.9-1-1.3-2.5-1.3-4.4v-8.6h-2.3v-2.1l2.7-1.6l1.4-3.8h3.1v3.8h5v3.7h-5v8.6c0,0.7,0.2,1.2,0.6,1.5
		C290.3,95,290.8,95.2,291.5,95.2z"/>
	<path class="st1" d="M314.6,98.7h-4.9V88.3c0-2.6-1-3.9-2.9-3.9c-1.4,0-2.3,0.5-3,1.4s-0.9,2.4-0.9,4.5v8.4h-4.9V73.9h4.9v5.1
		c0,0.4,0,1.3-0.1,2.8l-0.1,1.4h0.3c1.1-1.7,2.8-2.6,5.2-2.6c2.1,0,3.7,0.6,4.8,1.7c1.1,1.1,1.6,2.7,1.6,4.9V98.7z"/>
	<path class="st1" d="M327.7,99.1c-2.9,0-5.1-0.8-6.7-2.4c-1.6-1.6-2.4-3.8-2.4-6.7c0-3,0.7-5.3,2.2-6.9c1.5-1.6,3.6-2.5,6.2-2.5
		c2.5,0,4.5,0.7,5.9,2.2s2.1,3.4,2.1,6V91h-11.5c0.1,1.4,0.5,2.5,1.2,3.2c0.8,0.8,1.8,1.2,3.2,1.2c1.1,0,2.1-0.1,3.1-0.3
		c1-0.2,2-0.6,3-1.1v3.8c-0.9,0.4-1.8,0.7-2.7,1C330.3,99,329.1,99.1,327.7,99.1z M327,84c-1,0-1.8,0.3-2.4,1
		c-0.6,0.7-0.9,1.6-1,2.8h6.8c0-1.2-0.3-2.1-0.9-2.8C328.9,84.3,328.1,84,327,84z"/>
	<path class="st1" d="M357.4,84.5h-4.2v14.2h-4.9V84.5h-2.7v-2.3l2.7-1.3v-1.3c0-2,0.5-3.5,1.5-4.5c1-0.9,2.6-1.4,4.8-1.4
		c1.7,0,3.2,0.3,4.5,0.8l-1.2,3.6c-1-0.3-1.9-0.5-2.7-0.5c-0.7,0-1.2,0.2-1.5,0.6c-0.3,0.4-0.5,0.9-0.5,1.6v1.1h4.2V84.5z
		 M359.9,76.3c0-1.6,0.9-2.4,2.7-2.4c1.8,0,2.7,0.8,2.7,2.4c0,0.8-0.2,1.3-0.7,1.8c-0.4,0.4-1.1,0.6-2,0.6
		C360.8,78.7,359.9,77.9,359.9,76.3z M365,98.7h-4.9V80.9h4.9V98.7z"/>
	<path class="st1" d="M380.1,80.5c0.7,0,1.2,0,1.6,0.1l-0.4,4.6c-0.4-0.1-0.9-0.2-1.4-0.2c-1.6,0-2.8,0.4-3.6,1.2s-1.3,1.9-1.3,3.4
		v9.1h-4.9V80.9h3.7l0.7,3h0.2c0.6-1,1.3-1.8,2.2-2.4S379,80.5,380.1,80.5z"/>
	<path class="st1" d="M397.4,93.4c0,1.8-0.6,3.2-1.9,4.2c-1.3,1-3.2,1.4-5.7,1.4c-1.3,0-2.4-0.1-3.3-0.3c-0.9-0.2-1.8-0.4-2.6-0.8
		v-4c0.9,0.4,1.9,0.8,3.1,1.1c1.1,0.3,2.1,0.4,3,0.4c1.8,0,2.7-0.5,2.7-1.5c0-0.4-0.1-0.7-0.4-0.9c-0.2-0.2-0.6-0.5-1.2-0.8
		s-1.3-0.7-2.3-1.1c-1.4-0.6-2.4-1.1-3-1.6s-1.1-1.1-1.4-1.7c-0.3-0.6-0.4-1.4-0.4-2.3c0-1.6,0.6-2.8,1.8-3.7s3-1.3,5.2-1.3
		c2.2,0,4.2,0.5,6.3,1.4l-1.5,3.5c-0.9-0.4-1.7-0.7-2.5-0.9c-0.8-0.2-1.6-0.4-2.4-0.4c-1.4,0-2.2,0.4-2.2,1.2c0,0.4,0.2,0.8,0.7,1.1
		c0.5,0.3,1.5,0.8,3,1.4c1.4,0.6,2.4,1.1,3.1,1.6s1.1,1.1,1.4,1.7S397.4,92.6,397.4,93.4z"/>
	<path class="st1" d="M408.8,95.2c0.9,0,1.9-0.2,3.1-0.6v3.6c-1.2,0.5-2.7,0.8-4.5,0.8c-1.9,0-3.4-0.5-4.3-1.5
		c-0.9-1-1.3-2.5-1.3-4.4v-8.6h-2.3v-2.1l2.7-1.6l1.4-3.8h3.1v3.8h5v3.7h-5v8.6c0,0.7,0.2,1.2,0.6,1.5
		C407.6,95,408.1,95.2,408.8,95.2z"/>
	<path class="st1" d="M423.7,76.3c0-1.6,0.9-2.4,2.7-2.4c1.8,0,2.7,0.8,2.7,2.4c0,0.8-0.2,1.3-0.7,1.8c-0.4,0.4-1.1,0.6-2,0.6
		C424.6,78.7,423.7,77.9,423.7,76.3z M428.8,98.7H424V80.9h4.9V98.7z"/>
	<path class="st1" d="M450.4,98.7h-4.9V88.3c0-1.3-0.2-2.3-0.7-2.9c-0.5-0.6-1.2-1-2.2-1c-1.4,0-2.3,0.5-3,1.4
		c-0.6,0.9-0.9,2.4-0.9,4.5v8.4h-4.9V80.9h3.7l0.7,2.3h0.3c0.5-0.9,1.3-1.5,2.2-2c1-0.4,2-0.7,3.3-0.7c2.1,0,3.7,0.6,4.7,1.7
		s1.6,2.7,1.6,4.9V98.7z"/>
	<path class="st1" d="M475.3,98.7l-0.9-2.4h-0.1c-0.8,1-1.7,1.7-2.5,2.1c-0.9,0.4-2,0.6-3.4,0.6c-1.7,0-3.1-0.5-4.1-1.5
		s-1.5-2.4-1.5-4.2c0-1.9,0.7-3.3,2-4.2c1.3-0.9,3.3-1.4,6-1.5l3.1-0.1v-0.8c0-1.8-0.9-2.7-2.8-2.7c-1.4,0-3.1,0.4-5,1.3l-1.6-3.3
		c2.1-1.1,4.3-1.6,6.8-1.6c2.4,0,4.2,0.5,5.5,1.6c1.3,1,1.9,2.6,1.9,4.8v11.9H475.3z M473.9,90.5l-1.9,0.1c-1.4,0-2.5,0.3-3.2,0.8
		c-0.7,0.5-1,1.2-1,2.1c0,1.4,0.8,2.1,2.4,2.1c1.1,0,2-0.3,2.7-1c0.7-0.6,1-1.5,1-2.6V90.5z"/>
	<path class="st1" d="M504.7,93.4c0,1.8-0.6,3.2-1.9,4.2c-1.3,1-3.2,1.4-5.7,1.4c-1.3,0-2.4-0.1-3.3-0.3c-0.9-0.2-1.8-0.4-2.6-0.8
		v-4c0.9,0.4,1.9,0.8,3.1,1.1c1.1,0.3,2.1,0.4,3,0.4c1.8,0,2.7-0.5,2.7-1.5c0-0.4-0.1-0.7-0.4-0.9c-0.2-0.2-0.6-0.5-1.2-0.8
		s-1.3-0.7-2.3-1.1c-1.4-0.6-2.4-1.1-3-1.6s-1.1-1.1-1.4-1.7c-0.3-0.6-0.4-1.4-0.4-2.3c0-1.6,0.6-2.8,1.8-3.7s3-1.3,5.2-1.3
		c2.2,0,4.2,0.5,6.3,1.4l-1.5,3.5c-0.9-0.4-1.7-0.7-2.5-0.9c-0.8-0.2-1.6-0.4-2.4-0.4c-1.4,0-2.2,0.4-2.2,1.2c0,0.4,0.2,0.8,0.7,1.1
		c0.5,0.3,1.5,0.8,3,1.4c1.4,0.6,2.4,1.1,3.1,1.6s1.1,1.1,1.4,1.7S504.7,92.6,504.7,93.4z"/>
	<path class="st1" d="M516.6,99.1c-2.9,0-5.1-0.8-6.7-2.4c-1.6-1.6-2.4-3.8-2.4-6.7c0-3,0.7-5.3,2.2-6.9c1.5-1.6,3.6-2.5,6.2-2.5
		c2.5,0,4.5,0.7,5.9,2.2c1.4,1.4,2.1,3.4,2.1,6V91h-11.5c0.1,1.4,0.5,2.5,1.2,3.2c0.8,0.8,1.8,1.2,3.2,1.2c1.1,0,2.1-0.1,3.1-0.3
		c1-0.2,2-0.6,3-1.1v3.8c-0.9,0.4-1.8,0.7-2.7,1S518,99.1,516.6,99.1z M515.9,84c-1,0-1.8,0.3-2.4,1c-0.6,0.7-0.9,1.6-1,2.8h6.8
		c0-1.2-0.3-2.1-0.9-2.8C517.7,84.3,516.9,84,515.9,84z"/>
	<path class="st1" d="M537.8,80.5c0.7,0,1.2,0,1.6,0.1l-0.4,4.6c-0.4-0.1-0.9-0.2-1.4-0.2c-1.6,0-2.8,0.4-3.6,1.2
		c-0.9,0.8-1.3,1.9-1.3,3.4v9.1h-4.9V80.9h3.7l0.7,3h0.2c0.6-1,1.3-1.8,2.2-2.4C535.7,80.8,536.7,80.5,537.8,80.5z"/>
	<path class="st1" d="M542.5,76.3c0-1.6,0.9-2.4,2.7-2.4c1.8,0,2.7,0.8,2.7,2.4c0,0.8-0.2,1.3-0.7,1.8c-0.4,0.4-1.1,0.6-2,0.6
		C543.4,78.7,542.5,77.9,542.5,76.3z M547.5,98.7h-4.9V80.9h4.9V98.7z"/>
	<path class="st1" d="M560.7,99.1c-2.9,0-5.1-0.8-6.7-2.4c-1.6-1.6-2.4-3.8-2.4-6.7c0-3,0.7-5.3,2.2-6.9c1.5-1.6,3.6-2.5,6.2-2.5
		c2.5,0,4.5,0.7,5.9,2.2c1.4,1.4,2.1,3.4,2.1,6V91h-11.5c0.1,1.4,0.5,2.5,1.2,3.2c0.8,0.8,1.8,1.2,3.2,1.2c1.1,0,2.1-0.1,3.1-0.3
		s2-0.6,3-1.1v3.8c-0.9,0.4-1.8,0.7-2.7,1C563.3,99,562.1,99.1,560.7,99.1z M560.1,84c-1,0-1.8,0.3-2.4,1c-0.6,0.7-0.9,1.6-1,2.8
		h6.8c0-1.2-0.3-2.1-0.9-2.8C561.9,84.3,561.1,84,560.1,84z"/>
	<path class="st1" d="M584.5,93.4c0,1.8-0.6,3.2-1.9,4.2c-1.3,1-3.2,1.4-5.7,1.4c-1.3,0-2.4-0.1-3.3-0.3c-0.9-0.2-1.8-0.4-2.6-0.8
		v-4c0.9,0.4,1.9,0.8,3.1,1.1c1.1,0.3,2.1,0.4,3,0.4c1.8,0,2.7-0.5,2.7-1.5c0-0.4-0.1-0.7-0.4-0.9c-0.2-0.2-0.6-0.5-1.2-0.8
		s-1.3-0.7-2.3-1.1c-1.4-0.6-2.4-1.1-3-1.6s-1.1-1.1-1.4-1.7c-0.3-0.6-0.4-1.4-0.4-2.3c0-1.6,0.6-2.8,1.8-3.7s3-1.3,5.2-1.3
		c2.2,0,4.2,0.5,6.3,1.4l-1.5,3.5c-0.9-0.4-1.7-0.7-2.5-0.9c-0.8-0.2-1.6-0.4-2.4-0.4c-1.4,0-2.2,0.4-2.2,1.2c0,0.4,0.2,0.8,0.7,1.1
		s1.5,0.8,3,1.4c1.4,0.6,2.4,1.1,3.1,1.6c0.6,0.5,1.1,1.1,1.4,1.7C584.3,91.8,584.5,92.6,584.5,93.4z"/>
	<path class="st1" d="M69.6,119.8c2.1,0,3.8,0.8,5,2.5c1.2,1.6,1.8,3.9,1.8,6.8c0,3-0.6,5.2-1.8,6.9c-1.2,1.6-2.9,2.4-5,2.4
		c-2.1,0-3.7-0.8-4.9-2.3h-0.3l-0.8,2h-3.7v-24.9h4.9v5.8c0,0.7-0.1,1.9-0.2,3.5h0.2C65.6,120.7,67.3,119.8,69.6,119.8z M68,123.7
		c-1.2,0-2.1,0.4-2.6,1.1c-0.6,0.7-0.8,2-0.9,3.7v0.5c0,1.9,0.3,3.3,0.9,4.1c0.6,0.8,1.5,1.2,2.7,1.2c1,0,1.8-0.5,2.4-1.4
		s0.9-2.3,0.9-4c0-1.8-0.3-3.1-0.9-4C69.9,124.2,69,123.7,68,123.7z"/>
	<path class="st1" d="M88.4,138.3c-2.9,0-5.1-0.8-6.7-2.4c-1.6-1.6-2.4-3.8-2.4-6.7c0-3,0.7-5.3,2.2-6.9c1.5-1.6,3.6-2.5,6.2-2.5
		c2.5,0,4.5,0.7,5.9,2.2c1.4,1.4,2.1,3.4,2.1,6v2.4H84.2c0.1,1.4,0.5,2.5,1.2,3.2c0.8,0.8,1.8,1.2,3.2,1.2c1.1,0,2.1-0.1,3.1-0.3
		c1-0.2,2-0.6,3-1.1v3.8c-0.9,0.4-1.8,0.7-2.7,1C91,138.2,89.8,138.3,88.4,138.3z M87.7,123.3c-1,0-1.8,0.3-2.4,1
		c-0.6,0.7-0.9,1.6-1,2.8h6.8c0-1.2-0.3-2.1-0.9-2.8C89.6,123.6,88.8,123.3,87.7,123.3z"/>
	<path class="st1" d="M99.5,115.5c0-1.6,0.9-2.4,2.7-2.4c1.8,0,2.7,0.8,2.7,2.4c0,0.8-0.2,1.3-0.7,1.8c-0.4,0.4-1.1,0.6-2,0.6
		C100.3,117.9,99.5,117.1,99.5,115.5z M104.5,138h-4.9v-17.9h4.9V138z"/>
	<path class="st1" d="M126.1,138h-4.9v-10.4c0-1.3-0.2-2.3-0.7-2.9c-0.5-0.6-1.2-1-2.2-1c-1.4,0-2.3,0.5-3,1.4s-0.9,2.4-0.9,4.5v8.4
		h-4.9v-17.9h3.7l0.7,2.3h0.3c0.5-0.9,1.3-1.5,2.2-2c1-0.4,2-0.7,3.3-0.7c2.1,0,3.7,0.6,4.7,1.7c1.1,1.1,1.6,2.7,1.6,4.9V138z"/>
	<path class="st1" d="M146.7,120.1v2.5l-2.8,0.7c0.5,0.8,0.8,1.7,0.8,2.7c0,1.9-0.7,3.4-2,4.5c-1.3,1.1-3.2,1.6-5.6,1.6l-0.9,0
		l-0.7-0.1c-0.5,0.4-0.8,0.8-0.8,1.3c0,0.7,0.9,1.1,2.7,1.1h3c2,0,3.5,0.4,4.5,1.3c1,0.8,1.5,2.1,1.5,3.7c0,2.1-0.9,3.7-2.6,4.9
		c-1.7,1.2-4.2,1.7-7.5,1.7c-2.5,0-4.4-0.4-5.7-1.3c-1.3-0.9-2-2.1-2-3.7c0-1.1,0.3-2,1-2.7c0.7-0.7,1.7-1.2,3-1.5
		c-0.5-0.2-0.9-0.6-1.3-1c-0.4-0.5-0.6-1-0.6-1.5c0-0.7,0.2-1.2,0.6-1.7c0.4-0.5,1-0.9,1.7-1.3c-0.9-0.4-1.7-1.1-2.2-1.9
		c-0.5-0.9-0.8-1.9-0.8-3.2c0-1.9,0.6-3.5,1.9-4.5c1.3-1.1,3.1-1.6,5.4-1.6c0.5,0,1.1,0,1.8,0.1c0.7,0.1,1.1,0.2,1.3,0.2H146.7z
		 M132.9,140.5c0,0.7,0.3,1.2,1,1.6c0.6,0.4,1.5,0.6,2.7,0.6c1.7,0,3.1-0.2,4.1-0.7c1-0.5,1.5-1.1,1.5-2c0-0.7-0.3-1.1-0.9-1.4
		c-0.6-0.3-1.5-0.4-2.7-0.4h-2.5c-0.9,0-1.6,0.2-2.2,0.6C133.2,139.3,132.9,139.8,132.9,140.5z M134.7,126c0,1,0.2,1.7,0.7,2.3
		c0.4,0.6,1.1,0.8,2,0.8c0.9,0,1.6-0.3,2-0.8c0.4-0.6,0.6-1.3,0.6-2.3c0-2.2-0.9-3.2-2.7-3.2C135.6,122.8,134.7,123.8,134.7,126z"/>
	<path class="st1" d="M168,138.3c-2.1,0-3.7-0.8-4.9-2.3h-0.3c0.2,1.5,0.3,2.4,0.3,2.6v7.2h-4.9v-25.7h4l0.7,2.3h0.2
		c1.1-1.8,2.8-2.7,5.1-2.7c2.1,0,3.8,0.8,5,2.4c1.2,1.6,1.8,3.9,1.8,6.8c0,1.9-0.3,3.6-0.8,5s-1.4,2.5-2.4,3.2
		C170.6,138,169.4,138.3,168,138.3z M166.5,123.7c-1.2,0-2.1,0.4-2.6,1.1c-0.6,0.7-0.8,2-0.9,3.7v0.5c0,1.9,0.3,3.3,0.9,4.1
		c0.6,0.8,1.5,1.2,2.7,1.2c2.2,0,3.3-1.8,3.3-5.4c0-1.8-0.3-3.1-0.8-4C168.5,124.2,167.7,123.7,166.5,123.7z"/>
	<path class="st1" d="M191.5,138l-0.7-2.3h-0.3c-0.5,0.8-1.3,1.5-2.2,1.9s-2.1,0.7-3.3,0.7c-2.1,0-3.7-0.6-4.7-1.7
		c-1.1-1.1-1.6-2.7-1.6-4.8v-11.6h4.9v10.4c0,1.3,0.2,2.3,0.7,2.9c0.5,0.6,1.2,1,2.2,1c1.4,0,2.3-0.5,3-1.4c0.6-0.9,0.9-2.4,0.9-4.5
		v-8.4h4.9V138H191.5z"/>
	<path class="st1" d="M210.3,119.8c2.1,0,3.8,0.8,5,2.5c1.2,1.6,1.8,3.9,1.8,6.8c0,3-0.6,5.2-1.8,6.9c-1.2,1.6-2.9,2.4-5,2.4
		c-2.1,0-3.7-0.8-4.9-2.3h-0.3l-0.8,2h-3.7v-24.9h4.9v5.8c0,0.7-0.1,1.9-0.2,3.5h0.2C206.4,120.7,208.1,119.8,210.3,119.8z
		 M208.7,123.7c-1.2,0-2.1,0.4-2.6,1.1c-0.6,0.7-0.8,2-0.9,3.7v0.5c0,1.9,0.3,3.3,0.9,4.1c0.6,0.8,1.5,1.2,2.7,1.2
		c1,0,1.8-0.5,2.4-1.4c0.6-0.9,0.9-2.3,0.9-4c0-1.8-0.3-3.1-0.9-4C210.6,124.2,209.8,123.7,208.7,123.7z"/>
	<path class="st1" d="M225.9,138h-4.9v-24.9h4.9V138z"/>
	<path class="st1" d="M230.9,115.5c0-1.6,0.9-2.4,2.7-2.4c1.8,0,2.7,0.8,2.7,2.4c0,0.8-0.2,1.3-0.7,1.8c-0.4,0.4-1.1,0.6-2,0.6
		C231.7,117.9,230.9,117.1,230.9,115.5z M235.9,138h-4.9v-17.9h4.9V138z"/>
	<path class="st1" d="M253.5,132.7c0,1.8-0.6,3.2-1.9,4.2c-1.3,1-3.2,1.4-5.7,1.4c-1.3,0-2.4-0.1-3.3-0.3c-0.9-0.2-1.8-0.4-2.6-0.8
		v-4c0.9,0.4,1.9,0.8,3.1,1.1c1.1,0.3,2.1,0.4,3,0.4c1.8,0,2.7-0.5,2.7-1.5c0-0.4-0.1-0.7-0.4-0.9c-0.2-0.2-0.6-0.5-1.2-0.8
		c-0.6-0.3-1.3-0.7-2.3-1.1c-1.4-0.6-2.4-1.1-3-1.6c-0.6-0.5-1.1-1.1-1.4-1.7c-0.3-0.6-0.4-1.4-0.4-2.3c0-1.6,0.6-2.8,1.8-3.7
		c1.2-0.9,3-1.3,5.2-1.3c2.2,0,4.2,0.5,6.3,1.4l-1.5,3.5c-0.9-0.4-1.7-0.7-2.5-0.9c-0.8-0.2-1.6-0.4-2.4-0.4c-1.4,0-2.2,0.4-2.2,1.2
		c0,0.4,0.2,0.8,0.7,1.1c0.5,0.3,1.5,0.8,3,1.4c1.4,0.6,2.4,1.1,3.1,1.6c0.6,0.5,1.1,1.1,1.4,1.7
		C253.4,131.1,253.5,131.8,253.5,132.7z"/>
	<path class="st1" d="M273.8,138h-4.9v-10.4c0-2.6-1-3.9-2.9-3.9c-1.4,0-2.3,0.5-3,1.4c-0.6,0.9-0.9,2.4-0.9,4.5v8.4h-4.9v-24.9h4.9
		v5.1c0,0.4,0,1.3-0.1,2.8l-0.1,1.4h0.3c1.1-1.7,2.8-2.6,5.2-2.6c2.1,0,3.7,0.6,4.8,1.7c1.1,1.1,1.6,2.7,1.6,4.9V138z"/>
	<path class="st1" d="M286.9,138.3c-2.9,0-5.1-0.8-6.7-2.4c-1.6-1.6-2.4-3.8-2.4-6.7c0-3,0.7-5.3,2.2-6.9c1.5-1.6,3.6-2.5,6.2-2.5
		c2.5,0,4.5,0.7,5.9,2.2s2.1,3.4,2.1,6v2.4h-11.5c0.1,1.4,0.5,2.5,1.2,3.2c0.8,0.8,1.8,1.2,3.2,1.2c1.1,0,2.1-0.1,3.1-0.3
		c1-0.2,2-0.6,3-1.1v3.8c-0.9,0.4-1.8,0.7-2.7,1C289.5,138.2,288.3,138.3,286.9,138.3z M286.2,123.3c-1,0-1.8,0.3-2.4,1
		c-0.6,0.7-0.9,1.6-1,2.8h6.8c0-1.2-0.3-2.1-0.9-2.8C288.1,123.6,287.3,123.3,286.2,123.3z"/>
	<path class="st1" d="M303.8,138.3c-2.1,0-3.7-0.8-4.9-2.4s-1.8-3.9-1.8-6.8c0-2.9,0.6-5.2,1.8-6.8c1.2-1.6,2.9-2.5,5-2.5
		c2.2,0,4,0.9,5.1,2.6h0.2c-0.2-1.3-0.4-2.5-0.4-3.6v-5.7h4.9V138H310l-0.9-2.3h-0.2C307.8,137.5,306.1,138.3,303.8,138.3z
		 M305.5,134.4c1.2,0,2.2-0.4,2.7-1.1c0.6-0.7,0.9-2,1-3.7v-0.5c0-1.9-0.3-3.3-0.9-4.1c-0.6-0.8-1.6-1.2-2.9-1.2
		c-1.1,0-1.9,0.5-2.5,1.4c-0.6,0.9-0.9,2.3-0.9,4c0,1.8,0.3,3.1,0.9,4C303.5,134,304.4,134.4,305.5,134.4z"/>
	<path class="st1" d="M334.9,134.4c0.9,0,1.9-0.2,3.1-0.6v3.6c-1.2,0.5-2.7,0.8-4.5,0.8c-1.9,0-3.4-0.5-4.3-1.5
		c-0.9-1-1.3-2.5-1.3-4.4v-8.6h-2.3v-2.1l2.7-1.6l1.4-3.8h3.1v3.8h5v3.7h-5v8.6c0,0.7,0.2,1.2,0.6,1.5
		C333.7,134.3,334.2,134.4,334.9,134.4z"/>
	<path class="st1" d="M357.8,129c0,2.9-0.8,5.2-2.3,6.8c-1.5,1.6-3.7,2.5-6.4,2.5c-1.7,0-3.2-0.4-4.5-1.1c-1.3-0.8-2.3-1.8-3-3.2
		c-0.7-1.4-1.1-3-1.1-4.9c0-2.9,0.8-5.2,2.3-6.8c1.5-1.6,3.7-2.4,6.4-2.4c1.7,0,3.2,0.4,4.5,1.1c1.3,0.7,2.3,1.8,3,3.2
		S357.8,127.2,357.8,129z M345.4,129c0,1.8,0.3,3.1,0.9,4c0.6,0.9,1.5,1.4,2.8,1.4c1.3,0,2.2-0.4,2.8-1.4c0.6-0.9,0.9-2.2,0.9-4
		c0-1.8-0.3-3.1-0.9-4c-0.6-0.9-1.5-1.3-2.8-1.3c-1.3,0-2.2,0.4-2.8,1.3C345.7,125.9,345.4,127.3,345.4,129z"/>
	<path class="st1" d="M380.1,138.3c-2.1,0-3.7-0.8-4.9-2.3h-0.3c0.2,1.5,0.3,2.4,0.3,2.6v7.2h-4.9v-25.7h4l0.7,2.3h0.2
		c1.1-1.8,2.8-2.7,5.1-2.7c2.1,0,3.8,0.8,5,2.4c1.2,1.6,1.8,3.9,1.8,6.8c0,1.9-0.3,3.6-0.8,5c-0.6,1.4-1.4,2.5-2.4,3.2
		C382.7,138,381.5,138.3,380.1,138.3z M378.7,123.7c-1.2,0-2.1,0.4-2.6,1.1c-0.6,0.7-0.8,2-0.9,3.7v0.5c0,1.9,0.3,3.3,0.9,4.1
		c0.6,0.8,1.5,1.2,2.7,1.2c2.2,0,3.3-1.8,3.3-5.4c0-1.8-0.3-3.1-0.8-4C380.7,124.2,379.8,123.7,378.7,123.7z"/>
	<path class="st1" d="M401,119.8c0.7,0,1.2,0,1.6,0.1l-0.4,4.6c-0.4-0.1-0.9-0.2-1.4-0.2c-1.6,0-2.8,0.4-3.6,1.2s-1.3,1.9-1.3,3.4
		v9.1H391v-17.9h3.7l0.7,3h0.2c0.6-1,1.3-1.8,2.2-2.4S399.9,119.8,401,119.8z"/>
	<path class="st1" d="M422.1,129c0,2.9-0.8,5.2-2.3,6.8c-1.5,1.6-3.7,2.5-6.4,2.5c-1.7,0-3.2-0.4-4.5-1.1c-1.3-0.8-2.3-1.8-3-3.2
		s-1.1-3-1.1-4.9c0-2.9,0.8-5.2,2.3-6.8c1.5-1.6,3.7-2.4,6.4-2.4c1.7,0,3.2,0.4,4.5,1.1c1.3,0.7,2.3,1.8,3,3.2
		C421.8,125.5,422.1,127.2,422.1,129z M409.8,129c0,1.8,0.3,3.1,0.9,4c0.6,0.9,1.5,1.4,2.8,1.4c1.3,0,2.2-0.4,2.8-1.4
		c0.6-0.9,0.9-2.2,0.9-4c0-1.8-0.3-3.1-0.9-4c-0.6-0.9-1.5-1.3-2.8-1.3c-1.3,0-2.2,0.4-2.8,1.3C410.1,125.9,409.8,127.3,409.8,129z"
		/>
	<path class="st1" d="M430.4,138l-6.8-17.9h5.1l3.5,10.2c0.4,1.3,0.6,2.5,0.7,3.7h0.1c0.1-1,0.3-2.2,0.7-3.7l3.4-10.2h5.1l-6.8,17.9
		H430.4z"/>
	<path class="st1" d="M444.6,115.5c0-1.6,0.9-2.4,2.7-2.4s2.7,0.8,2.7,2.4c0,0.8-0.2,1.3-0.7,1.8c-0.4,0.4-1.1,0.6-2,0.6
		C445.4,117.9,444.6,117.1,444.6,115.5z M449.6,138h-4.9v-17.9h4.9V138z"/>
	<path class="st1" d="M460.4,138.3c-2.1,0-3.7-0.8-4.9-2.4c-1.2-1.6-1.8-3.9-1.8-6.8c0-2.9,0.6-5.2,1.8-6.8c1.2-1.6,2.9-2.5,5-2.5
		c2.2,0,4,0.9,5.1,2.6h0.2c-0.2-1.3-0.4-2.5-0.4-3.6v-5.7h4.9V138h-3.7l-0.9-2.3h-0.2C464.4,137.5,462.7,138.3,460.4,138.3z
		 M462.1,134.4c1.2,0,2.2-0.4,2.7-1.1s0.9-2,1-3.7v-0.5c0-1.9-0.3-3.3-0.9-4.1c-0.6-0.8-1.6-1.2-2.9-1.2c-1.1,0-1.9,0.5-2.5,1.4
		c-0.6,0.9-0.9,2.3-0.9,4c0,1.8,0.3,3.1,0.9,4C460.1,134,461,134.4,462.1,134.4z"/>
	<path class="st1" d="M483.5,138.3c-2.9,0-5.1-0.8-6.7-2.4c-1.6-1.6-2.4-3.8-2.4-6.7c0-3,0.7-5.3,2.2-6.9c1.5-1.6,3.6-2.5,6.2-2.5
		c2.5,0,4.5,0.7,5.9,2.2c1.4,1.4,2.1,3.4,2.1,6v2.4h-11.5c0.1,1.4,0.5,2.5,1.2,3.2c0.8,0.8,1.8,1.2,3.2,1.2c1.1,0,2.1-0.1,3.1-0.3
		c1-0.2,2-0.6,3-1.1v3.8c-0.9,0.4-1.8,0.7-2.7,1S484.9,138.3,483.5,138.3z M482.9,123.3c-1,0-1.8,0.3-2.4,1c-0.6,0.7-0.9,1.6-1,2.8
		h6.8c0-1.2-0.3-2.1-0.9-2.8C484.7,123.6,483.9,123.3,482.9,123.3z"/>
	<path class="st1" d="M519.3,138h-4.9v-10.4c0-1.3-0.2-2.3-0.6-2.9c-0.4-0.6-1.1-1-2-1c-1.2,0-2.2,0.5-2.7,1.4s-0.8,2.4-0.8,4.5v8.4
		h-4.9v-17.9h3.7l0.7,2.3h0.3c0.5-0.8,1.2-1.5,2.1-1.9c0.9-0.5,1.9-0.7,3.1-0.7c2.7,0,4.5,0.9,5.4,2.6h0.4c0.5-0.8,1.2-1.5,2.1-1.9
		c0.9-0.5,2-0.7,3.2-0.7c2,0,3.6,0.5,4.6,1.6c1,1,1.6,2.7,1.6,5V138h-4.9v-10.4c0-1.3-0.2-2.3-0.6-2.9c-0.4-0.6-1.1-1-2-1
		c-1.2,0-2.1,0.4-2.7,1.3s-0.9,2.2-0.9,4.1V138z"/>
	<path class="st1" d="M551.7,129c0,2.9-0.8,5.2-2.3,6.8s-3.7,2.5-6.4,2.5c-1.7,0-3.2-0.4-4.5-1.1c-1.3-0.8-2.3-1.8-3-3.2
		c-0.7-1.4-1.1-3-1.1-4.9c0-2.9,0.8-5.2,2.3-6.8c1.5-1.6,3.7-2.4,6.4-2.4c1.7,0,3.2,0.4,4.5,1.1c1.3,0.7,2.3,1.8,3,3.2
		C551.3,125.5,551.7,127.2,551.7,129z M539.3,129c0,1.8,0.3,3.1,0.9,4s1.5,1.4,2.8,1.4c1.3,0,2.2-0.4,2.8-1.4s0.9-2.2,0.9-4
		c0-1.8-0.3-3.1-0.9-4c-0.6-0.9-1.5-1.3-2.8-1.3c-1.3,0-2.2,0.4-2.8,1.3C539.6,125.9,539.3,127.3,539.3,129z"/>
	<path class="st1" d="M565.7,119.8c0.7,0,1.2,0,1.6,0.1l-0.4,4.6c-0.4-0.1-0.9-0.2-1.4-0.2c-1.6,0-2.8,0.4-3.6,1.2s-1.3,1.9-1.3,3.4
		v9.1h-4.9v-17.9h3.7l0.7,3h0.2c0.6-1,1.3-1.8,2.2-2.4C563.5,120.1,564.6,119.8,565.7,119.8z"/>
	<path class="st1" d="M578.6,138.3c-2.9,0-5.1-0.8-6.7-2.4c-1.6-1.6-2.4-3.8-2.4-6.7c0-3,0.7-5.3,2.2-6.9c1.5-1.6,3.6-2.5,6.2-2.5
		c2.5,0,4.5,0.7,5.9,2.2s2.1,3.4,2.1,6v2.4h-11.5c0.1,1.4,0.5,2.5,1.2,3.2c0.8,0.8,1.8,1.2,3.2,1.2c1.1,0,2.1-0.1,3.1-0.3
		c1-0.2,2-0.6,3-1.1v3.8c-0.9,0.4-1.8,0.7-2.7,1C581.2,138.2,580,138.3,578.6,138.3z M577.9,123.3c-1,0-1.8,0.3-2.4,1
		c-0.6,0.7-0.9,1.6-1,2.8h6.8c0-1.2-0.3-2.1-0.9-2.8C579.8,123.6,579,123.3,577.9,123.3z"/>
	<path class="st1" d="M75.9,154.8c0-1.6,0.9-2.4,2.7-2.4c1.8,0,2.7,0.8,2.7,2.4c0,0.8-0.2,1.3-0.7,1.8c-0.4,0.4-1.1,0.6-2,0.6
		C76.8,157.2,75.9,156.4,75.9,154.8z M81,177.3h-4.9v-17.9H81V177.3z"/>
	<path class="st1" d="M102.6,177.3h-4.9v-10.4c0-1.3-0.2-2.3-0.7-2.9c-0.5-0.6-1.2-1-2.2-1c-1.4,0-2.3,0.5-3,1.4
		c-0.6,0.9-0.9,2.4-0.9,4.5v8.4h-4.9v-17.9h3.7l0.7,2.3h0.3c0.5-0.9,1.3-1.5,2.2-2c1-0.4,2-0.7,3.3-0.7c2.1,0,3.7,0.6,4.7,1.7
		c1.1,1.1,1.6,2.7,1.6,4.9V177.3z"/>
	<path class="st1" d="M117.5,163.1h-4.2v14.2h-4.9v-14.2h-2.7v-2.3l2.7-1.3v-1.3c0-2,0.5-3.5,1.5-4.5c1-0.9,2.6-1.4,4.8-1.4
		c1.7,0,3.2,0.3,4.5,0.8l-1.2,3.6c-1-0.3-1.9-0.5-2.7-0.5c-0.7,0-1.2,0.2-1.5,0.6c-0.3,0.4-0.5,0.9-0.5,1.6v1.1h4.2V163.1z"/>
	<path class="st1" d="M136.5,168.3c0,2.9-0.8,5.2-2.3,6.8c-1.5,1.6-3.7,2.5-6.4,2.5c-1.7,0-3.2-0.4-4.5-1.1c-1.3-0.8-2.3-1.8-3-3.2
		c-0.7-1.4-1.1-3-1.1-4.9c0-2.9,0.8-5.2,2.3-6.8c1.5-1.6,3.7-2.4,6.4-2.4c1.7,0,3.2,0.4,4.5,1.1c1.3,0.7,2.3,1.8,3,3.2
		C136.2,164.8,136.5,166.4,136.5,168.3z M124.2,168.3c0,1.8,0.3,3.1,0.9,4c0.6,0.9,1.5,1.4,2.8,1.4c1.3,0,2.2-0.4,2.8-1.4
		c0.6-0.9,0.9-2.2,0.9-4c0-1.8-0.3-3.1-0.9-4c-0.6-0.9-1.5-1.3-2.8-1.3c-1.3,0-2.2,0.4-2.8,1.3C124.5,165.2,124.2,166.5,124.2,168.3
		z"/>
	<path class="st1" d="M150.5,159.1c0.7,0,1.2,0,1.6,0.1l-0.4,4.6c-0.4-0.1-0.9-0.2-1.4-0.2c-1.6,0-2.8,0.4-3.6,1.2
		c-0.9,0.8-1.3,1.9-1.3,3.4v9.1h-4.9v-17.9h3.7l0.7,3h0.2c0.6-1,1.3-1.8,2.2-2.4C148.4,159.4,149.4,159.1,150.5,159.1z"/>
	<path class="st1" d="M171.4,177.3h-4.9v-10.4c0-1.3-0.2-2.3-0.6-2.9c-0.4-0.6-1.1-1-2-1c-1.2,0-2.2,0.5-2.7,1.4
		c-0.6,0.9-0.8,2.4-0.8,4.5v8.4h-4.9v-17.9h3.7l0.7,2.3h0.3c0.5-0.8,1.2-1.5,2.1-1.9c0.9-0.5,1.9-0.7,3.1-0.7c2.7,0,4.5,0.9,5.4,2.6
		h0.4c0.5-0.8,1.2-1.5,2.1-1.9c0.9-0.5,2-0.7,3.2-0.7c2,0,3.6,0.5,4.6,1.6c1,1,1.6,2.7,1.6,5v11.6h-4.9v-10.4c0-1.3-0.2-2.3-0.6-2.9
		c-0.4-0.6-1.1-1-2-1c-1.2,0-2.1,0.4-2.7,1.3c-0.6,0.9-0.9,2.2-0.9,4.1V177.3z"/>
	<path class="st1" d="M198.9,177.3l-0.9-2.4h-0.1c-0.8,1-1.7,1.7-2.5,2.1c-0.9,0.4-2,0.6-3.4,0.6c-1.7,0-3.1-0.5-4.1-1.5
		c-1-1-1.5-2.4-1.5-4.2c0-1.9,0.7-3.3,2-4.2c1.3-0.9,3.3-1.4,6-1.5l3.1-0.1v-0.8c0-1.8-0.9-2.7-2.8-2.7c-1.4,0-3.1,0.4-5,1.3
		l-1.6-3.3c2.1-1.1,4.3-1.6,6.8-1.6c2.4,0,4.2,0.5,5.5,1.6s1.9,2.6,1.9,4.8v11.9H198.9z M197.4,169l-1.9,0.1c-1.4,0-2.5,0.3-3.2,0.8
		c-0.7,0.5-1,1.2-1,2.1c0,1.4,0.8,2.1,2.4,2.1c1.1,0,2-0.3,2.7-1c0.7-0.6,1-1.5,1-2.6V169z"/>
	<path class="st1" d="M214.8,173.7c0.9,0,1.9-0.2,3.1-0.6v3.6c-1.2,0.5-2.7,0.8-4.5,0.8c-1.9,0-3.4-0.5-4.3-1.5
		c-0.9-1-1.3-2.5-1.3-4.4v-8.6h-2.3V161l2.7-1.6l1.4-3.8h3.1v3.8h5v3.7h-5v8.6c0,0.7,0.2,1.2,0.6,1.5
		C213.7,173.6,214.2,173.7,214.8,173.7z"/>
	<path class="st1" d="M221.3,154.8c0-1.6,0.9-2.4,2.7-2.4c1.8,0,2.7,0.8,2.7,2.4c0,0.8-0.2,1.3-0.7,1.8c-0.4,0.4-1.1,0.6-2,0.6
		C222.2,157.2,221.3,156.4,221.3,154.8z M226.4,177.3h-4.9v-17.9h4.9V177.3z"/>
	<path class="st1" d="M247.7,168.3c0,2.9-0.8,5.2-2.3,6.8s-3.7,2.5-6.4,2.5c-1.7,0-3.2-0.4-4.5-1.1c-1.3-0.8-2.3-1.8-3-3.2
		c-0.7-1.4-1.1-3-1.1-4.9c0-2.9,0.8-5.2,2.3-6.8c1.5-1.6,3.7-2.4,6.4-2.4c1.7,0,3.2,0.4,4.5,1.1c1.3,0.7,2.3,1.8,3,3.2
		C247.4,164.8,247.7,166.4,247.7,168.3z M235.4,168.3c0,1.8,0.3,3.1,0.9,4c0.6,0.9,1.5,1.4,2.8,1.4c1.3,0,2.2-0.4,2.8-1.4
		c0.6-0.9,0.9-2.2,0.9-4c0-1.8-0.3-3.1-0.9-4c-0.6-0.9-1.5-1.3-2.8-1.3c-1.3,0-2.2,0.4-2.8,1.3C235.7,165.2,235.4,166.5,235.4,168.3
		z"/>
	<path class="st1" d="M268.2,177.3h-4.9v-10.4c0-1.3-0.2-2.3-0.7-2.9c-0.5-0.6-1.2-1-2.2-1c-1.4,0-2.3,0.5-3,1.4
		c-0.6,0.9-0.9,2.4-0.9,4.5v8.4h-4.9v-17.9h3.7l0.7,2.3h0.3c0.5-0.9,1.3-1.5,2.2-2c1-0.4,2-0.7,3.3-0.7c2.1,0,3.7,0.6,4.7,1.7
		c1.1,1.1,1.6,2.7,1.6,4.9V177.3z"/>
	<path class="st1" d="M298,168.3c0,2.9-0.8,5.2-2.3,6.8s-3.7,2.5-6.4,2.5c-1.7,0-3.2-0.4-4.5-1.1c-1.3-0.8-2.3-1.8-3-3.2
		c-0.7-1.4-1.1-3-1.1-4.9c0-2.9,0.8-5.2,2.3-6.8c1.5-1.6,3.7-2.4,6.4-2.4c1.7,0,3.2,0.4,4.5,1.1c1.3,0.7,2.3,1.8,3,3.2
		C297.6,164.8,298,166.4,298,168.3z M285.6,168.3c0,1.8,0.3,3.1,0.9,4c0.6,0.9,1.5,1.4,2.8,1.4c1.3,0,2.2-0.4,2.8-1.4
		c0.6-0.9,0.9-2.2,0.9-4c0-1.8-0.3-3.1-0.9-4c-0.6-0.9-1.5-1.3-2.8-1.3c-1.3,0-2.2,0.4-2.8,1.3C285.9,165.2,285.6,166.5,285.6,168.3
		z"/>
	<path class="st1" d="M318.5,177.3h-4.9v-10.4c0-1.3-0.2-2.3-0.7-2.9c-0.5-0.6-1.2-1-2.2-1c-1.4,0-2.3,0.5-3,1.4
		c-0.6,0.9-0.9,2.4-0.9,4.5v8.4H302v-17.9h3.7l0.7,2.3h0.3c0.5-0.9,1.3-1.5,2.2-2c1-0.4,2-0.7,3.3-0.7c2.1,0,3.7,0.6,4.7,1.7
		c1.1,1.1,1.6,2.7,1.6,4.9V177.3z"/>
	<path class="st1" d="M332.4,153.9h7.3c3.3,0,5.7,0.5,7.2,1.4s2.2,2.4,2.2,4.5c0,1.4-0.3,2.5-1,3.4c-0.7,0.9-1.5,1.4-2.6,1.6v0.2
		c1.5,0.3,2.5,0.9,3.2,1.9c0.7,0.9,1,2.1,1,3.6c0,2.1-0.8,3.8-2.3,5c-1.5,1.2-3.6,1.8-6.3,1.8h-8.7V153.9z M337.4,163.2h2.9
		c1.3,0,2.3-0.2,2.9-0.6c0.6-0.4,0.9-1.1,0.9-2.1c0-0.9-0.3-1.5-1-1.9c-0.7-0.4-1.7-0.6-3.1-0.6h-2.6V163.2z M337.4,167.1v6.1h3.2
		c1.4,0,2.4-0.3,3-0.8c0.6-0.5,1-1.3,1-2.4c0-1.9-1.4-2.9-4.2-2.9H337.4z"/>
	<path class="st1" d="M364,159.1c0.7,0,1.2,0,1.6,0.1l-0.4,4.6c-0.4-0.1-0.9-0.2-1.4-0.2c-1.6,0-2.8,0.4-3.6,1.2
		c-0.9,0.8-1.3,1.9-1.3,3.4v9.1H354v-17.9h3.7l0.7,3h0.2c0.6-1,1.3-1.8,2.2-2.4C361.9,159.4,362.9,159.1,364,159.1z"/>
	<path class="st1" d="M368.7,154.8c0-1.6,0.9-2.4,2.7-2.4c1.8,0,2.7,0.8,2.7,2.4c0,0.8-0.2,1.3-0.7,1.8c-0.4,0.4-1.1,0.6-2,0.6
		C369.5,157.2,368.7,156.4,368.7,154.8z M373.7,177.3h-4.9v-17.9h4.9V177.3z"/>
	<path class="st1" d="M386.4,173.7c0.9,0,1.9-0.2,3.1-0.6v3.6c-1.2,0.5-2.7,0.8-4.5,0.8c-1.9,0-3.4-0.5-4.3-1.5
		c-0.9-1-1.3-2.5-1.3-4.4v-8.6h-2.3V161l2.7-1.6l1.4-3.8h3.1v3.8h5v3.7h-5v8.6c0,0.7,0.2,1.2,0.6,1.5
		C385.2,173.6,385.7,173.7,386.4,173.7z"/>
	<path class="st1" d="M392.9,154.8c0-1.6,0.9-2.4,2.7-2.4c1.8,0,2.7,0.8,2.7,2.4c0,0.8-0.2,1.3-0.7,1.8c-0.4,0.4-1.1,0.6-2,0.6
		C393.7,157.2,392.9,156.4,392.9,154.8z M397.9,177.3h-4.9v-17.9h4.9V177.3z"/>
	<path class="st1" d="M415.5,172c0,1.8-0.6,3.2-1.9,4.2s-3.2,1.4-5.7,1.4c-1.3,0-2.4-0.1-3.3-0.3c-0.9-0.2-1.8-0.4-2.6-0.8v-4
		c0.9,0.4,1.9,0.8,3.1,1.1s2.1,0.4,3,0.4c1.8,0,2.7-0.5,2.7-1.5c0-0.4-0.1-0.7-0.4-0.9c-0.2-0.2-0.6-0.5-1.2-0.8
		c-0.6-0.3-1.3-0.7-2.3-1.1c-1.4-0.6-2.4-1.1-3-1.6c-0.6-0.5-1.1-1.1-1.4-1.7c-0.3-0.6-0.4-1.4-0.4-2.3c0-1.6,0.6-2.8,1.8-3.7
		c1.2-0.9,3-1.3,5.2-1.3c2.2,0,4.2,0.5,6.3,1.4l-1.5,3.5c-0.9-0.4-1.7-0.7-2.5-0.9s-1.6-0.4-2.4-0.4c-1.4,0-2.2,0.4-2.2,1.2
		c0,0.4,0.2,0.8,0.7,1.1c0.5,0.3,1.5,0.8,3,1.4c1.4,0.6,2.4,1.1,3.1,1.6c0.6,0.5,1.1,1.1,1.4,1.7C415.4,170.3,415.5,171.1,415.5,172
		z"/>
	<path class="st1" d="M435.8,177.3h-4.9v-10.4c0-2.6-1-3.9-2.9-3.9c-1.4,0-2.3,0.5-3,1.4c-0.6,0.9-0.9,2.4-0.9,4.5v8.4h-4.9v-24.9
		h4.9v5.1c0,0.4,0,1.3-0.1,2.8l-0.1,1.4h0.3c1.1-1.7,2.8-2.6,5.2-2.6c2.1,0,3.7,0.6,4.8,1.7c1.1,1.1,1.6,2.7,1.6,4.9V177.3z"/>
	<path class="st1" d="M456.6,177.6c-5.6,0-8.3-3.1-8.3-9.2c0-3,0.8-5.4,2.3-7c1.5-1.6,3.7-2.4,6.5-2.4c2.1,0,3.9,0.4,5.6,1.2
		l-1.4,3.8c-0.8-0.3-1.5-0.6-2.1-0.8s-1.3-0.3-2-0.3c-2.5,0-3.8,1.8-3.8,5.4c0,3.5,1.3,5.2,3.8,5.2c0.9,0,1.8-0.1,2.6-0.4
		c0.8-0.3,1.6-0.6,2.4-1.2v4.2c-0.8,0.5-1.6,0.8-2.4,1S457.8,177.6,456.6,177.6z"/>
	<path class="st1" d="M465.9,154.8c0-1.6,0.9-2.4,2.7-2.4c1.8,0,2.7,0.8,2.7,2.4c0,0.8-0.2,1.3-0.7,1.8c-0.4,0.4-1.1,0.6-2,0.6
		C466.8,157.2,465.9,156.4,465.9,154.8z M471,177.3h-4.9v-17.9h4.9V177.3z"/>
	<path class="st1" d="M483.7,173.7c0.9,0,1.9-0.2,3.1-0.6v3.6c-1.2,0.5-2.7,0.8-4.5,0.8c-1.9,0-3.4-0.5-4.3-1.5s-1.3-2.5-1.3-4.4
		v-8.6h-2.3V161l2.7-1.6l1.4-3.8h3.1v3.8h5v3.7h-5v8.6c0,0.7,0.2,1.2,0.6,1.5C482.5,173.6,483,173.7,483.7,173.7z"/>
	<path class="st1" d="M490.1,154.8c0-1.6,0.9-2.4,2.7-2.4s2.7,0.8,2.7,2.4c0,0.8-0.2,1.3-0.7,1.8c-0.4,0.4-1.1,0.6-2,0.6
		C491,157.2,490.1,156.4,490.1,154.8z M495.2,177.3h-4.9v-17.9h4.9V177.3z"/>
	<path class="st1" d="M512.8,177.3h-14.1v-2.9l8.3-11.3h-7.8v-3.7h13.3v3.2l-8.1,11h8.3V177.3z"/>
	<path class="st1" d="M524.4,177.6c-2.9,0-5.1-0.8-6.7-2.4c-1.6-1.6-2.4-3.8-2.4-6.7c0-3,0.7-5.3,2.2-6.9c1.5-1.6,3.6-2.5,6.2-2.5
		c2.5,0,4.5,0.7,5.9,2.2c1.4,1.4,2.1,3.4,2.1,6v2.4h-11.5c0.1,1.4,0.5,2.5,1.2,3.2c0.8,0.8,1.8,1.2,3.2,1.2c1.1,0,2.1-0.1,3.1-0.3
		s2-0.6,3-1.1v3.8c-0.9,0.4-1.8,0.7-2.7,1C527,177.5,525.8,177.6,524.4,177.6z M523.7,162.5c-1,0-1.8,0.3-2.4,1
		c-0.6,0.7-0.9,1.6-1,2.8h6.8c0-1.2-0.3-2.1-0.9-2.8S524.7,162.5,523.7,162.5z"/>
	<path class="st1" d="M552.1,177.3h-4.9v-10.4c0-1.3-0.2-2.3-0.7-2.9c-0.5-0.6-1.2-1-2.2-1c-1.4,0-2.3,0.5-3,1.4
		c-0.6,0.9-0.9,2.4-0.9,4.5v8.4h-4.9v-17.9h3.7l0.7,2.3h0.3c0.5-0.9,1.3-1.5,2.2-2c1-0.4,2-0.7,3.3-0.7c2.1,0,3.7,0.6,4.7,1.7
		s1.6,2.7,1.6,4.9V177.3z"/>
	<path class="st1" d="M569.6,172c0,1.8-0.6,3.2-1.9,4.2c-1.3,1-3.2,1.4-5.7,1.4c-1.3,0-2.4-0.1-3.3-0.3c-0.9-0.2-1.8-0.4-2.6-0.8v-4
		c0.9,0.4,1.9,0.8,3.1,1.1s2.1,0.4,3,0.4c1.8,0,2.7-0.5,2.7-1.5c0-0.4-0.1-0.7-0.4-0.9c-0.2-0.2-0.6-0.5-1.2-0.8
		c-0.6-0.3-1.3-0.7-2.3-1.1c-1.4-0.6-2.4-1.1-3-1.6s-1.1-1.1-1.4-1.7c-0.3-0.6-0.4-1.4-0.4-2.3c0-1.6,0.6-2.8,1.8-3.7
		c1.2-0.9,3-1.3,5.2-1.3c2.2,0,4.2,0.5,6.3,1.4l-1.5,3.5c-0.9-0.4-1.7-0.7-2.5-0.9c-0.8-0.2-1.6-0.4-2.4-0.4c-1.4,0-2.2,0.4-2.2,1.2
		c0,0.4,0.2,0.8,0.7,1.1c0.5,0.3,1.5,0.8,3,1.4c1.4,0.6,2.4,1.1,3.1,1.6c0.6,0.5,1.1,1.1,1.4,1.7C569.4,170.3,569.6,171.1,569.6,172
		z"/>
	<path class="st1" d="M80.5,216.5h-4.9v-24.9h4.9V216.5z"/>
	<path class="st1" d="M85.4,194.1c0-1.6,0.9-2.4,2.7-2.4c1.8,0,2.7,0.8,2.7,2.4c0,0.8-0.2,1.3-0.7,1.8c-0.4,0.4-1.1,0.6-2,0.6
		C86.3,196.5,85.4,195.7,85.4,194.1z M90.5,216.5h-4.9v-17.9h4.9V216.5z"/>
	<path class="st1" d="M99.8,216.5L93,198.7h5.1l3.5,10.2c0.4,1.3,0.6,2.5,0.7,3.7h0.1c0.1-1,0.3-2.2,0.7-3.7l3.4-10.2h5.1l-6.8,17.9
		H99.8z"/>
	<path class="st1" d="M114,194.1c0-1.6,0.9-2.4,2.7-2.4c1.8,0,2.7,0.8,2.7,2.4c0,0.8-0.2,1.3-0.7,1.8c-0.4,0.4-1.1,0.6-2,0.6
		C114.9,196.5,114,195.7,114,194.1z M119.1,216.5h-4.9v-17.9h4.9V216.5z"/>
	<path class="st1" d="M140.7,216.5h-4.9v-10.4c0-1.3-0.2-2.3-0.7-2.9c-0.5-0.6-1.2-1-2.2-1c-1.4,0-2.3,0.5-3,1.4
		c-0.6,0.9-0.9,2.4-0.9,4.5v8.4h-4.9v-17.9h3.7l0.7,2.3h0.3c0.5-0.9,1.3-1.5,2.2-2c1-0.4,2-0.7,3.3-0.7c2.1,0,3.7,0.6,4.7,1.7
		c1.1,1.1,1.6,2.7,1.6,4.9V216.5z"/>
	<path class="st1" d="M161.2,198.7v2.5l-2.8,0.7c0.5,0.8,0.8,1.7,0.8,2.7c0,1.9-0.7,3.4-2,4.5c-1.3,1.1-3.2,1.6-5.6,1.6l-0.9,0
		l-0.7-0.1c-0.5,0.4-0.8,0.8-0.8,1.3c0,0.7,0.9,1.1,2.7,1.1h3c2,0,3.5,0.4,4.5,1.3c1,0.8,1.5,2.1,1.5,3.7c0,2.1-0.9,3.7-2.6,4.9
		s-4.2,1.7-7.5,1.7c-2.5,0-4.4-0.4-5.7-1.3c-1.3-0.9-2-2.1-2-3.7c0-1.1,0.3-2,1-2.7c0.7-0.7,1.7-1.2,3-1.5c-0.5-0.2-0.9-0.6-1.3-1
		c-0.4-0.5-0.6-1-0.6-1.5c0-0.7,0.2-1.2,0.6-1.7c0.4-0.5,1-0.9,1.7-1.3c-0.9-0.4-1.7-1.1-2.2-1.9c-0.5-0.9-0.8-1.9-0.8-3.2
		c0-1.9,0.6-3.5,1.9-4.5c1.3-1.1,3.1-1.6,5.4-1.6c0.5,0,1.1,0,1.8,0.1c0.7,0.1,1.1,0.2,1.3,0.2H161.2z M147.5,219.1
		c0,0.7,0.3,1.2,1,1.6c0.6,0.4,1.5,0.6,2.7,0.6c1.7,0,3.1-0.2,4.1-0.7c1-0.5,1.5-1.1,1.5-2c0-0.7-0.3-1.1-0.9-1.4
		c-0.6-0.3-1.5-0.4-2.7-0.4h-2.5c-0.9,0-1.6,0.2-2.2,0.6C147.8,217.8,147.5,218.4,147.5,219.1z M149.2,204.5c0,1,0.2,1.7,0.7,2.3
		c0.4,0.6,1.1,0.8,2,0.8c0.9,0,1.6-0.3,2-0.8c0.4-0.6,0.6-1.3,0.6-2.3c0-2.2-0.9-3.2-2.7-3.2C150.1,201.3,149.2,202.4,149.2,204.5z"
		/>
	<path class="st1" d="M172.5,194.1c0-1.6,0.9-2.4,2.7-2.4c1.8,0,2.7,0.8,2.7,2.4c0,0.8-0.2,1.3-0.7,1.8c-0.4,0.4-1.1,0.6-2,0.6
		C173.4,196.5,172.5,195.7,172.5,194.1z M177.6,216.5h-4.9v-17.9h4.9V216.5z"/>
	<path class="st1" d="M199.2,216.5h-4.9v-10.4c0-1.3-0.2-2.3-0.7-2.9c-0.5-0.6-1.2-1-2.2-1c-1.4,0-2.3,0.5-3,1.4
		c-0.6,0.9-0.9,2.4-0.9,4.5v8.4h-4.9v-17.9h3.7l0.7,2.3h0.3c0.5-0.9,1.3-1.5,2.2-2c1-0.4,2-0.7,3.3-0.7c2.1,0,3.7,0.6,4.7,1.7
		c1.1,1.1,1.6,2.7,1.6,4.9V216.5z"/>
	<path class="st1" d="M220.2,213c0.9,0,1.9-0.2,3.1-0.6v3.6c-1.2,0.5-2.7,0.8-4.5,0.8c-1.9,0-3.4-0.5-4.3-1.5
		c-0.9-1-1.3-2.5-1.3-4.4v-8.6h-2.3v-2.1l2.7-1.6l1.4-3.8h3.1v3.8h5v3.7h-5v8.6c0,0.7,0.2,1.2,0.6,1.5
		C219,212.8,219.6,213,220.2,213z"/>
	<path class="st1" d="M243.4,216.5h-4.9v-10.4c0-2.6-1-3.9-2.9-3.9c-1.4,0-2.3,0.5-3,1.4c-0.6,0.9-0.9,2.4-0.9,4.5v8.4h-4.9v-24.9
		h4.9v5.1c0,0.4,0,1.3-0.1,2.8l-0.1,1.4h0.3c1.1-1.7,2.8-2.6,5.2-2.6c2.1,0,3.7,0.6,4.8,1.7c1.1,1.1,1.6,2.7,1.6,4.9V216.5z"/>
	<path class="st1" d="M256.5,216.9c-2.9,0-5.1-0.8-6.7-2.4c-1.6-1.6-2.4-3.8-2.4-6.7c0-3,0.7-5.3,2.2-6.9c1.5-1.6,3.6-2.5,6.2-2.5
		c2.5,0,4.5,0.7,5.9,2.2c1.4,1.4,2.1,3.4,2.1,6v2.4h-11.5c0.1,1.4,0.5,2.5,1.2,3.2c0.8,0.8,1.8,1.2,3.2,1.2c1.1,0,2.1-0.1,3.1-0.3
		c1-0.2,2-0.6,3-1.1v3.8c-0.9,0.4-1.8,0.7-2.7,1C259.1,216.8,257.9,216.9,256.5,216.9z M255.8,201.8c-1,0-1.8,0.3-2.4,1
		c-0.6,0.7-0.9,1.6-1,2.8h6.8c0-1.2-0.3-2.1-0.9-2.8S256.8,201.8,255.8,201.8z"/>
	<path class="st1" d="M290.1,216.5h-13.5v-23.4h13.5v4.1h-8.5v5.1h7.9v4.1h-7.9v6h8.5V216.5z"/>
	<path class="st1" d="M313.9,193.2v15.1c0,1.7-0.4,3.2-1.2,4.5c-0.8,1.3-1.9,2.3-3.3,3c-1.5,0.7-3.2,1-5.2,1c-3,0-5.3-0.8-7-2.3
		c-1.7-1.5-2.5-3.6-2.5-6.3v-15.1h4.9v14.3c0,1.8,0.4,3.1,1.1,4c0.7,0.8,1.9,1.3,3.6,1.3c1.6,0,2.8-0.4,3.5-1.3
		c0.7-0.8,1.1-2.2,1.1-4v-14.3H313.9z"/>
	<path class="st1" d="M339.1,216.5l-0.9-2.4h-0.1c-0.8,1-1.7,1.7-2.5,2.1c-0.9,0.4-2,0.6-3.4,0.6c-1.7,0-3.1-0.5-4.1-1.5
		c-1-1-1.5-2.4-1.5-4.2c0-1.9,0.7-3.3,2-4.2c1.3-0.9,3.3-1.4,6-1.5l3.1-0.1v-0.8c0-1.8-0.9-2.7-2.8-2.7c-1.4,0-3.1,0.4-5,1.3
		l-1.6-3.3c2.1-1.1,4.3-1.6,6.8-1.6c2.4,0,4.2,0.5,5.5,1.6s1.9,2.6,1.9,4.8v11.9H339.1z M337.7,208.3l-1.9,0.1
		c-1.4,0-2.5,0.3-3.2,0.8s-1,1.2-1,2.1c0,1.4,0.8,2.1,2.4,2.1c1.1,0,2-0.3,2.7-1s1-1.5,1-2.6V208.3z"/>
	<path class="st1" d="M364,216.5h-4.9v-10.4c0-1.3-0.2-2.3-0.7-2.9c-0.5-0.6-1.2-1-2.2-1c-1.4,0-2.3,0.5-3,1.4
		c-0.6,0.9-0.9,2.4-0.9,4.5v8.4h-4.9v-17.9h3.7l0.7,2.3h0.3c0.5-0.9,1.3-1.5,2.2-2c1-0.4,2-0.7,3.3-0.7c2.1,0,3.7,0.6,4.7,1.7
		s1.6,2.7,1.6,4.9V216.5z"/>
	<path class="st1" d="M374.7,216.9c-2.1,0-3.7-0.8-4.9-2.4c-1.2-1.6-1.8-3.9-1.8-6.8c0-2.9,0.6-5.2,1.8-6.8s2.9-2.5,5-2.5
		c2.2,0,4,0.9,5.1,2.6h0.2c-0.2-1.3-0.4-2.5-0.4-3.6v-5.7h4.9v24.9h-3.7l-0.9-2.3h-0.2C378.7,216,377,216.9,374.7,216.9z M376.4,213
		c1.2,0,2.2-0.4,2.7-1.1s0.9-2,1-3.7v-0.5c0-1.9-0.3-3.3-0.9-4.1c-0.6-0.8-1.6-1.2-2.9-1.2c-1.1,0-1.9,0.5-2.5,1.4
		c-0.6,0.9-0.9,2.3-0.9,4c0,1.8,0.3,3.1,0.9,4C374.4,212.5,375.3,213,376.4,213z"/>
	<path class="st1" d="M412.1,216.5h-13.5v-23.4h13.5v4.1h-8.5v5.1h7.9v4.1h-7.9v6h8.5V216.5z"/>
	<path class="st1" d="M436,193.2v15.1c0,1.7-0.4,3.2-1.2,4.5c-0.8,1.3-1.9,2.3-3.3,3c-1.5,0.7-3.2,1-5.2,1c-3,0-5.3-0.8-7-2.3
		c-1.7-1.5-2.5-3.6-2.5-6.3v-15.1h4.9v14.3c0,1.8,0.4,3.1,1.1,4c0.7,0.8,1.9,1.3,3.6,1.3c1.6,0,2.8-0.4,3.5-1.3s1.1-2.2,1.1-4v-14.3
		H436z"/>
	<path class="st1" d="M457.1,216.9c-5.6,0-8.3-3.1-8.3-9.2c0-3,0.8-5.4,2.3-7c1.5-1.6,3.7-2.4,6.5-2.4c2.1,0,3.9,0.4,5.6,1.2
		l-1.4,3.8c-0.8-0.3-1.5-0.6-2.1-0.8c-0.7-0.2-1.3-0.3-2-0.3c-2.5,0-3.8,1.8-3.8,5.4c0,3.5,1.3,5.2,3.8,5.2c0.9,0,1.8-0.1,2.6-0.4
		c0.8-0.3,1.6-0.6,2.4-1.2v4.2c-0.8,0.5-1.6,0.8-2.4,1S458.3,216.9,457.1,216.9z"/>
	<path class="st1" d="M466.4,194.1c0-1.6,0.9-2.4,2.7-2.4s2.7,0.8,2.7,2.4c0,0.8-0.2,1.3-0.7,1.8c-0.4,0.4-1.1,0.6-2,0.6
		C467.3,196.5,466.4,195.7,466.4,194.1z M471.5,216.5h-4.9v-17.9h4.9V216.5z"/>
	<path class="st1" d="M484.2,213c0.9,0,1.9-0.2,3.1-0.6v3.6c-1.2,0.5-2.7,0.8-4.5,0.8c-1.9,0-3.4-0.5-4.3-1.5s-1.3-2.5-1.3-4.4v-8.6
		h-2.3v-2.1l2.7-1.6l1.4-3.8h3.1v3.8h5v3.7h-5v8.6c0,0.7,0.2,1.2,0.6,1.5C483,212.8,483.5,213,484.2,213z"/>
	<path class="st1" d="M490.6,194.1c0-1.6,0.9-2.4,2.7-2.4c1.8,0,2.7,0.8,2.7,2.4c0,0.8-0.2,1.3-0.7,1.8c-0.4,0.4-1.1,0.6-2,0.6
		C491.5,196.5,490.6,195.7,490.6,194.1z M495.7,216.5h-4.9v-17.9h4.9V216.5z"/>
	<path class="st1" d="M513.3,216.5h-14.1v-2.9l8.3-11.3h-7.8v-3.7H513v3.2l-8.1,11h8.3V216.5z"/>
	<path class="st1" d="M524.9,216.9c-2.9,0-5.1-0.8-6.7-2.4c-1.6-1.6-2.4-3.8-2.4-6.7c0-3,0.7-5.3,2.2-6.9c1.5-1.6,3.6-2.5,6.2-2.5
		c2.5,0,4.5,0.7,5.9,2.2c1.4,1.4,2.1,3.4,2.1,6v2.4h-11.5c0.1,1.4,0.5,2.5,1.2,3.2c0.8,0.8,1.8,1.2,3.2,1.2c1.1,0,2.1-0.1,3.1-0.3
		s2-0.6,3-1.1v3.8c-0.9,0.4-1.8,0.7-2.7,1C527.5,216.8,526.3,216.9,524.9,216.9z M524.2,201.8c-1,0-1.8,0.3-2.4,1
		c-0.6,0.7-0.9,1.6-1,2.8h6.8c0-1.2-0.3-2.1-0.9-2.8S525.2,201.8,524.2,201.8z"/>
	<path class="st1" d="M552.6,216.5h-4.9v-10.4c0-1.3-0.2-2.3-0.7-2.9c-0.5-0.6-1.2-1-2.2-1c-1.4,0-2.3,0.5-3,1.4
		c-0.6,0.9-0.9,2.4-0.9,4.5v8.4h-4.9v-17.9h3.7l0.7,2.3h0.3c0.5-0.9,1.3-1.5,2.2-2c1-0.4,2-0.7,3.3-0.7c2.1,0,3.7,0.6,4.7,1.7
		c1.1,1.1,1.6,2.7,1.6,4.9V216.5z"/>
	<path class="st1" d="M570.1,211.2c0,1.8-0.6,3.2-1.9,4.2c-1.3,1-3.2,1.4-5.7,1.4c-1.3,0-2.4-0.1-3.3-0.3c-0.9-0.2-1.8-0.4-2.6-0.8
		v-4c0.9,0.4,1.9,0.8,3.1,1.1s2.1,0.4,3,0.4c1.8,0,2.7-0.5,2.7-1.5c0-0.4-0.1-0.7-0.4-0.9c-0.2-0.2-0.6-0.5-1.2-0.8
		s-1.3-0.7-2.3-1.1c-1.4-0.6-2.4-1.1-3-1.6c-0.6-0.5-1.1-1.1-1.4-1.7c-0.3-0.6-0.4-1.4-0.4-2.3c0-1.6,0.6-2.8,1.8-3.7
		c1.2-0.9,3-1.3,5.2-1.3c2.2,0,4.2,0.5,6.3,1.4l-1.5,3.5c-0.9-0.4-1.7-0.7-2.5-0.9s-1.6-0.4-2.4-0.4c-1.4,0-2.2,0.4-2.2,1.2
		c0,0.4,0.2,0.8,0.7,1.1s1.5,0.8,3,1.4c1.4,0.6,2.4,1.1,3.1,1.6c0.6,0.5,1.1,1.1,1.4,1.7C569.9,209.6,570.1,210.4,570.1,211.2z"/>
	<path class="st1" d="M206.1,255.8h-4.9V231h4.9V255.8z"/>
	<path class="st1" d="M211,233.3c0-1.6,0.9-2.4,2.7-2.4c1.8,0,2.7,0.8,2.7,2.4c0,0.8-0.2,1.3-0.7,1.8c-0.4,0.4-1.1,0.6-2,0.6
		C211.9,235.7,211,234.9,211,233.3z M216.1,255.8h-4.9V238h4.9V255.8z"/>
	<path class="st1" d="M225.4,255.8l-6.8-17.9h5.1l3.5,10.2c0.4,1.3,0.6,2.5,0.7,3.7h0.1c0.1-1,0.3-2.2,0.7-3.7l3.4-10.2h5.1
		l-6.8,17.9H225.4z"/>
	<path class="st1" d="M239.6,233.3c0-1.6,0.9-2.4,2.7-2.4c1.8,0,2.7,0.8,2.7,2.4c0,0.8-0.2,1.3-0.7,1.8c-0.4,0.4-1.1,0.6-2,0.6
		C240.5,235.7,239.6,234.9,239.6,233.3z M244.7,255.8h-4.9V238h4.9V255.8z"/>
	<path class="st1" d="M266.3,255.8h-4.9v-10.4c0-1.3-0.2-2.3-0.7-2.9c-0.5-0.6-1.2-1-2.2-1c-1.4,0-2.3,0.5-3,1.4
		c-0.6,0.9-0.9,2.4-0.9,4.5v8.4h-4.9V238h3.7l0.7,2.3h0.3c0.5-0.9,1.3-1.5,2.2-2c1-0.4,2-0.7,3.3-0.7c2.1,0,3.7,0.6,4.7,1.7
		c1.1,1.1,1.6,2.7,1.6,4.9V255.8z"/>
	<path class="st1" d="M286.8,238v2.5l-2.8,0.7c0.5,0.8,0.8,1.7,0.8,2.7c0,1.9-0.7,3.4-2,4.5c-1.3,1.1-3.2,1.6-5.6,1.6l-0.9,0
		l-0.7-0.1c-0.5,0.4-0.8,0.8-0.8,1.3c0,0.7,0.9,1.1,2.7,1.1h3c2,0,3.5,0.4,4.5,1.3c1,0.8,1.5,2.1,1.5,3.7c0,2.1-0.9,3.7-2.6,4.9
		c-1.7,1.2-4.2,1.7-7.5,1.7c-2.5,0-4.4-0.4-5.7-1.3c-1.3-0.9-2-2.1-2-3.7c0-1.1,0.3-2,1-2.7c0.7-0.7,1.7-1.2,3-1.5
		c-0.5-0.2-0.9-0.6-1.3-1c-0.4-0.5-0.6-1-0.6-1.5c0-0.7,0.2-1.2,0.6-1.7c0.4-0.5,1-0.9,1.7-1.3c-0.9-0.4-1.7-1.1-2.2-1.9
		c-0.5-0.9-0.8-1.9-0.8-3.2c0-1.9,0.6-3.5,1.9-4.5c1.3-1.1,3.1-1.6,5.4-1.6c0.5,0,1.1,0,1.8,0.1c0.7,0.1,1.1,0.2,1.3,0.2H286.8z
		 M273.1,258.3c0,0.7,0.3,1.2,1,1.6c0.6,0.4,1.5,0.6,2.7,0.6c1.7,0,3.1-0.2,4.1-0.7s1.5-1.1,1.5-2c0-0.7-0.3-1.1-0.9-1.4
		c-0.6-0.3-1.5-0.4-2.7-0.4h-2.5c-0.9,0-1.6,0.2-2.2,0.6C273.4,257.1,273.1,257.6,273.1,258.3z M274.8,243.8c0,1,0.2,1.7,0.7,2.3
		c0.4,0.6,1.1,0.8,2,0.8c0.9,0,1.6-0.3,2-0.8c0.4-0.6,0.6-1.3,0.6-2.3c0-2.2-0.9-3.2-2.7-3.2C275.7,240.6,274.8,241.6,274.8,243.8z"
		/>
	<path class="st1" d="M298.1,233.3c0-1.6,0.9-2.4,2.7-2.4c1.8,0,2.7,0.8,2.7,2.4c0,0.8-0.2,1.3-0.7,1.8c-0.4,0.4-1.1,0.6-2,0.6
		C299,235.7,298.1,234.9,298.1,233.3z M303.2,255.8h-4.9V238h4.9V255.8z"/>
	<path class="st1" d="M324.8,255.8h-4.9v-10.4c0-1.3-0.2-2.3-0.7-2.9c-0.5-0.6-1.2-1-2.2-1c-1.4,0-2.3,0.5-3,1.4
		c-0.6,0.9-0.9,2.4-0.9,4.5v8.4h-4.9V238h3.7l0.7,2.3h0.3c0.5-0.9,1.3-1.5,2.2-2c1-0.4,2-0.7,3.3-0.7c2.1,0,3.7,0.6,4.7,1.7
		c1.1,1.1,1.6,2.7,1.6,4.9V255.8z"/>
	<path class="st1" d="M345.8,252.3c0.9,0,1.9-0.2,3.1-0.6v3.6c-1.2,0.5-2.7,0.8-4.5,0.8c-1.9,0-3.4-0.5-4.3-1.5s-1.3-2.5-1.3-4.4
		v-8.6h-2.3v-2.1l2.7-1.6l1.4-3.8h3.1v3.8h5v3.7h-5v8.6c0,0.7,0.2,1.2,0.6,1.5C344.7,252.1,345.2,252.3,345.8,252.3z"/>
	<path class="st1" d="M369,255.8h-4.9v-10.4c0-2.6-1-3.9-2.9-3.9c-1.4,0-2.3,0.5-3,1.4c-0.6,0.9-0.9,2.4-0.9,4.5v8.4h-4.9V231h4.9
		v5.1c0,0.4,0,1.3-0.1,2.8l-0.1,1.4h0.3c1.1-1.7,2.8-2.6,5.2-2.6c2.1,0,3.7,0.6,4.8,1.7c1.1,1.1,1.6,2.7,1.6,4.9V255.8z"/>
	<path class="st1" d="M382.1,256.1c-2.9,0-5.1-0.8-6.7-2.4c-1.6-1.6-2.4-3.8-2.4-6.7c0-3,0.7-5.3,2.2-6.9c1.5-1.6,3.6-2.5,6.2-2.5
		c2.5,0,4.5,0.7,5.9,2.2c1.4,1.4,2.1,3.4,2.1,6v2.4h-11.5c0.1,1.4,0.5,2.5,1.2,3.2c0.8,0.8,1.8,1.2,3.2,1.2c1.1,0,2.1-0.1,3.1-0.3
		c1-0.2,2-0.6,3-1.1v3.8c-0.9,0.4-1.8,0.7-2.7,1C384.7,256,383.5,256.1,382.1,256.1z M381.4,241.1c-1,0-1.8,0.3-2.4,1
		s-0.9,1.6-1,2.8h6.8c0-1.2-0.3-2.1-0.9-2.8S382.4,241.1,381.4,241.1z"/>
	<path class="st1" d="M421.2,232.5v15.1c0,1.7-0.4,3.2-1.2,4.5c-0.8,1.3-1.9,2.3-3.3,3s-3.2,1-5.2,1c-3,0-5.3-0.8-7-2.3
		c-1.7-1.5-2.5-3.6-2.5-6.3v-15.1h4.9v14.3c0,1.8,0.4,3.1,1.1,4c0.7,0.8,1.9,1.3,3.6,1.3c1.6,0,2.8-0.4,3.5-1.3
		c0.7-0.8,1.1-2.2,1.1-4v-14.3H421.2z"/>
	<path class="st1" d="M445.7,255.8h-5.6L434,246l-2.1,1.5v8.3h-5v-23.4h5v10.7l1.9-2.7l6.3-7.9h5.5l-8.1,10.3L445.7,255.8z"/>
</g>
<g>
	<path class="st1" d="M118.5,294.8h-6.6v-11.7h6.6v1.6h-4.7v3.2h4.4v1.6h-4.4v3.7h4.7V294.8z"/>
	<path class="st1" d="M128.3,294.8h-1.9v-5.4c0-0.7-0.1-1.2-0.4-1.5c-0.3-0.3-0.7-0.5-1.2-0.5c-0.7,0-1.3,0.2-1.6,0.7
		c-0.3,0.5-0.5,1.3-0.5,2.4v4.4h-1.9V286h1.5l0.3,1.2h0.1c0.2-0.4,0.6-0.7,1.1-1s1-0.3,1.5-0.3c1.4,0,2.3,0.5,2.7,1.4h0.1
		c0.3-0.4,0.6-0.8,1.1-1c0.5-0.2,1-0.4,1.6-0.4c1.1,0,1.8,0.3,2.3,0.8s0.7,1.3,0.7,2.4v5.8H132v-5.4c0-0.7-0.1-1.2-0.4-1.5
		c-0.3-0.3-0.7-0.5-1.2-0.5c-0.7,0-1.3,0.2-1.6,0.7c-0.3,0.5-0.5,1.2-0.5,2.1V294.8z"/>
	<path class="st1" d="M143.9,294.8H142v-5.4c0-0.7-0.1-1.2-0.4-1.5c-0.3-0.3-0.7-0.5-1.2-0.5c-0.7,0-1.3,0.2-1.6,0.7
		c-0.3,0.5-0.5,1.3-0.5,2.4v4.4h-1.9V286h1.5l0.3,1.2h0.1c0.2-0.4,0.6-0.7,1.1-1c0.5-0.2,1-0.3,1.5-0.3c1.4,0,2.3,0.5,2.7,1.4h0.1
		c0.3-0.4,0.6-0.8,1.1-1c0.5-0.2,1-0.4,1.6-0.4c1.1,0,1.8,0.3,2.3,0.8s0.7,1.3,0.7,2.4v5.8h-1.9v-5.4c0-0.7-0.1-1.2-0.4-1.5
		c-0.3-0.3-0.7-0.5-1.2-0.5c-0.7,0-1.3,0.2-1.6,0.7c-0.3,0.5-0.5,1.2-0.5,2.1V294.8z"/>
	<path class="st1" d="M157.7,294.8l-0.4-1.2h-0.1c-0.4,0.5-0.9,0.9-1.3,1.1c-0.4,0.2-1,0.3-1.7,0.3c-0.9,0-1.5-0.2-2-0.7
		c-0.5-0.5-0.7-1.1-0.7-2c0-0.9,0.3-1.6,1-2.1c0.7-0.5,1.7-0.7,3.1-0.8l1.5,0v-0.5c0-0.6-0.1-1-0.4-1.3c-0.3-0.3-0.7-0.4-1.2-0.4
		c-0.5,0-0.9,0.1-1.3,0.2c-0.4,0.1-0.8,0.3-1.2,0.5l-0.6-1.3c0.5-0.3,1-0.4,1.6-0.6c0.6-0.1,1.1-0.2,1.6-0.2c1.1,0,2,0.2,2.5,0.7
		c0.6,0.5,0.9,1.3,0.9,2.3v6H157.7z M154.9,293.5c0.7,0,1.2-0.2,1.6-0.6c0.4-0.4,0.6-0.9,0.6-1.6v-0.8l-1.1,0
		c-0.9,0-1.5,0.2-1.9,0.4c-0.4,0.3-0.6,0.7-0.6,1.2c0,0.4,0.1,0.7,0.4,0.9C154,293.4,154.4,293.5,154.9,293.5z"/>
	<path class="st1" d="M168,290.1v4.7h-1.9v-11.7h3.3c1.5,0,2.6,0.3,3.3,0.8s1.1,1.4,1.1,2.6c0,1.5-0.8,2.5-2.3,3.1l3.3,5.2h-2.2
		l-2.8-4.7H168z M168,288.5h1.3c0.9,0,1.5-0.2,1.9-0.5c0.4-0.3,0.6-0.8,0.6-1.5c0-0.7-0.2-1.1-0.6-1.4s-1.1-0.4-1.9-0.4H168V288.5z"
		/>
	<path class="st1" d="M184.2,290.4c0,1.4-0.4,2.6-1.1,3.4s-1.8,1.2-3.1,1.2c-0.8,0-1.6-0.2-2.2-0.6c-0.6-0.4-1.1-0.9-1.5-1.6
		c-0.3-0.7-0.5-1.5-0.5-2.4c0-1.4,0.4-2.6,1.1-3.4s1.8-1.2,3.1-1.2c1.3,0,2.3,0.4,3,1.2C183.8,287.9,184.2,289,184.2,290.4z
		 M177.7,290.4c0,2,0.8,3.1,2.3,3.1c1.5,0,2.2-1,2.2-3.1c0-2-0.8-3-2.3-3c-0.8,0-1.4,0.3-1.7,0.8
		C177.9,288.6,177.7,289.4,177.7,290.4z"/>
	<path class="st1" d="M192.5,294.8l-0.3-1.2h-0.1c-0.3,0.4-0.6,0.7-1.1,1s-1,0.4-1.6,0.4c-1.1,0-1.9-0.3-2.4-0.8
		c-0.5-0.5-0.8-1.3-0.8-2.4V286h1.9v5.4c0,0.7,0.1,1.2,0.4,1.5c0.3,0.3,0.7,0.5,1.3,0.5c0.8,0,1.4-0.2,1.7-0.7
		c0.4-0.5,0.6-1.3,0.6-2.4V286h1.9v8.8H192.5z"/>
	<path class="st1" d="M201.2,285.8c0.4,0,0.7,0,0.9,0.1l-0.2,1.7c-0.3-0.1-0.5-0.1-0.8-0.1c-0.8,0-1.4,0.2-1.8,0.7
		c-0.5,0.5-0.7,1.1-0.7,1.9v4.6h-1.9V286h1.5l0.2,1.6h0.1c0.3-0.5,0.7-0.9,1.1-1.3S200.6,285.8,201.2,285.8z"/>
	<path class="st1" d="M205.6,290.1l1.1-1.3l2.7-2.8h2.2l-3.6,3.8l3.8,5h-2.2l-2.8-3.9l-1,0.8v3h-1.9v-12.4h1.9v6.1L205.6,290.1
		L205.6,290.1z"/>
	<path class="st1" d="M217,295c-1.4,0-2.4-0.4-3.2-1.2c-0.8-0.8-1.2-1.9-1.2-3.3c0-1.4,0.4-2.6,1.1-3.4c0.7-0.8,1.7-1.2,3-1.2
		c1.2,0,2.1,0.4,2.8,1.1c0.7,0.7,1,1.7,1,2.9v1h-5.9c0,0.9,0.3,1.5,0.7,2c0.4,0.5,1.1,0.7,1.8,0.7c0.5,0,1,0,1.5-0.1
		c0.5-0.1,0.9-0.3,1.5-0.5v1.5c-0.5,0.2-0.9,0.4-1.4,0.5C218.1,294.9,217.6,295,217,295z M216.6,287.2c-0.6,0-1.1,0.2-1.4,0.6
		c-0.4,0.4-0.6,0.9-0.6,1.7h4c0-0.7-0.2-1.3-0.5-1.7C217.7,287.4,217.2,287.2,216.6,287.2z"/>
	<path class="st1" d="M230,294.8h-1.9v-5.4c0-0.7-0.1-1.2-0.4-1.5c-0.3-0.3-0.7-0.5-1.2-0.5c-0.7,0-1.3,0.2-1.6,0.7
		c-0.3,0.5-0.5,1.3-0.5,2.4v4.4h-1.9V286h1.5l0.3,1.2h0.1c0.2-0.4,0.6-0.7,1.1-1c0.5-0.2,1-0.3,1.5-0.3c1.4,0,2.3,0.5,2.7,1.4h0.1
		c0.3-0.4,0.6-0.8,1.1-1c0.5-0.2,1-0.4,1.6-0.4c1.1,0,1.8,0.3,2.3,0.8s0.7,1.3,0.7,2.4v5.8h-1.9v-5.4c0-0.7-0.1-1.2-0.4-1.5
		c-0.3-0.3-0.7-0.5-1.2-0.5c-0.7,0-1.3,0.2-1.6,0.7c-0.3,0.5-0.5,1.2-0.5,2.1V294.8z"/>
	<path class="st1" d="M240.1,293.1c-0.3,1-0.7,2.3-1.4,3.8h-1.4c0.4-1.4,0.6-2.8,0.8-4h1.8L240.1,293.1z"/>
	<path class="st1" d="M256.5,288.8c0,1.9-0.5,3.4-1.6,4.4c-1.1,1-2.6,1.5-4.6,1.5H247v-11.7h3.6c1.9,0,3.3,0.5,4.3,1.5
		C256,285.6,256.5,287,256.5,288.8z M254.5,288.9c0-2.8-1.3-4.2-3.9-4.2h-1.7v8.5h1.4C253.1,293.2,254.5,291.8,254.5,288.9z"/>
	<path class="st1" d="M258.7,283.6c0-0.3,0.1-0.6,0.3-0.8c0.2-0.2,0.4-0.3,0.8-0.3c0.3,0,0.6,0.1,0.8,0.3c0.2,0.2,0.3,0.4,0.3,0.8
		c0,0.3-0.1,0.6-0.3,0.8c-0.2,0.2-0.4,0.3-0.8,0.3c-0.3,0-0.6-0.1-0.8-0.3C258.8,284.2,258.7,283.9,258.7,283.6z M260.7,294.8h-1.9
		V286h1.9V294.8z"/>
	<path class="st1" d="M267.9,285.8c0.4,0,0.7,0,0.9,0.1l-0.2,1.7c-0.3-0.1-0.5-0.1-0.8-0.1c-0.8,0-1.4,0.2-1.8,0.7
		c-0.5,0.5-0.7,1.1-0.7,1.9v4.6h-1.9V286h1.5l0.2,1.6h0.1c0.3-0.5,0.7-0.9,1.1-1.3C266.8,286,267.3,285.8,267.9,285.8z"/>
	<path class="st1" d="M274.3,295c-1.4,0-2.4-0.4-3.2-1.2c-0.8-0.8-1.2-1.9-1.2-3.3c0-1.4,0.4-2.6,1.1-3.4c0.7-0.8,1.7-1.2,3-1.2
		c1.2,0,2.1,0.4,2.8,1.1c0.7,0.7,1,1.7,1,2.9v1h-5.9c0,0.9,0.3,1.5,0.7,2c0.4,0.5,1.1,0.7,1.8,0.7c0.5,0,1,0,1.5-0.1
		c0.5-0.1,0.9-0.3,1.5-0.5v1.5c-0.5,0.2-0.9,0.4-1.4,0.5C275.4,294.9,274.9,295,274.3,295z M273.9,287.2c-0.6,0-1.1,0.2-1.4,0.6
		c-0.4,0.4-0.6,0.9-0.6,1.7h4c0-0.7-0.2-1.3-0.5-1.7C275,287.4,274.5,287.2,273.9,287.2z"/>
	<path class="st1" d="M283.4,295c-1.3,0-2.4-0.4-3-1.2c-0.7-0.8-1-1.9-1-3.4c0-1.5,0.4-2.6,1.1-3.4c0.7-0.8,1.8-1.2,3.2-1.2
		c0.9,0,1.8,0.2,2.5,0.5l-0.6,1.5c-0.8-0.3-1.4-0.5-2-0.5c-1.5,0-2.3,1-2.3,3c0,1,0.2,1.7,0.6,2.2c0.4,0.5,0.9,0.7,1.7,0.7
		c0.8,0,1.6-0.2,2.4-0.6v1.6c-0.3,0.2-0.7,0.3-1.1,0.4C284.4,294.9,284,295,283.4,295z"/>
	<path class="st1" d="M291.2,293.4c0.5,0,0.9-0.1,1.4-0.2v1.4c-0.2,0.1-0.5,0.2-0.8,0.2c-0.3,0.1-0.7,0.1-1,0.1
		c-1.8,0-2.7-0.9-2.7-2.8v-4.8h-1.2v-0.8l1.3-0.7l0.6-1.9h1.2v2h2.5v1.4H290v4.7c0,0.5,0.1,0.8,0.3,1
		C290.6,293.3,290.9,293.4,291.2,293.4z"/>
	<path class="st1" d="M302.2,290.4c0,1.4-0.4,2.6-1.1,3.4c-0.7,0.8-1.8,1.2-3.1,1.2c-0.8,0-1.6-0.2-2.2-0.6
		c-0.6-0.4-1.1-0.9-1.5-1.6s-0.5-1.5-0.5-2.4c0-1.4,0.4-2.6,1.1-3.4c0.7-0.8,1.8-1.2,3.1-1.2c1.3,0,2.3,0.4,3,1.2
		C301.9,287.9,302.2,289,302.2,290.4z M295.8,290.4c0,2,0.8,3.1,2.3,3.1c1.5,0,2.2-1,2.2-3.1c0-2-0.8-3-2.3-3
		c-0.8,0-1.4,0.3-1.7,0.8C296,288.6,295.8,289.4,295.8,290.4z"/>
	<path class="st1" d="M308.9,285.8c0.4,0,0.7,0,0.9,0.1l-0.2,1.7c-0.3-0.1-0.5-0.1-0.8-0.1c-0.8,0-1.4,0.2-1.8,0.7
		c-0.5,0.5-0.7,1.1-0.7,1.9v4.6h-1.9V286h1.5l0.2,1.6h0.1c0.3-0.5,0.7-0.9,1.1-1.3C307.8,286,308.3,285.8,308.9,285.8z"/>
	<path class="st1" d="M320.1,287.4H318v7.4h-1.9v-7.4h-1.5v-0.9l1.5-0.6v-0.6c0-1,0.2-1.8,0.7-2.3c0.5-0.5,1.2-0.8,2.2-0.8
		c0.7,0,1.3,0.1,1.9,0.3l-0.5,1.4c-0.5-0.1-0.9-0.2-1.3-0.2c-0.4,0-0.7,0.1-0.9,0.4c-0.2,0.3-0.3,0.7-0.3,1.2v0.6h2.2V287.4z"/>
	<path class="st1" d="M329.5,290.4c0,1.4-0.4,2.6-1.1,3.4c-0.7,0.8-1.8,1.2-3.1,1.2c-0.8,0-1.6-0.2-2.2-0.6
		c-0.6-0.4-1.1-0.9-1.5-1.6s-0.5-1.5-0.5-2.4c0-1.4,0.4-2.6,1.1-3.4c0.7-0.8,1.8-1.2,3.1-1.2c1.3,0,2.3,0.4,3,1.2
		C329.1,287.9,329.5,289,329.5,290.4z M323,290.4c0,2,0.8,3.1,2.3,3.1c1.5,0,2.2-1,2.2-3.1c0-2-0.8-3-2.3-3c-0.8,0-1.4,0.3-1.7,0.8
		C323.2,288.6,323,289.4,323,290.4z"/>
	<path class="st1" d="M336.1,285.8c0.4,0,0.7,0,0.9,0.1l-0.2,1.7c-0.3-0.1-0.5-0.1-0.8-0.1c-0.8,0-1.4,0.2-1.8,0.7
		c-0.5,0.5-0.7,1.1-0.7,1.9v4.6h-1.9V286h1.5l0.2,1.6h0.1c0.3-0.5,0.7-0.9,1.1-1.3C335,286,335.6,285.8,336.1,285.8z"/>
	<path class="st1" d="M350.9,286.6c0,1.2-0.4,2.2-1.2,2.8c-0.8,0.7-1.9,1-3.4,1H345v4.4h-1.9v-11.7h3.4c1.5,0,2.6,0.3,3.3,0.9
		C350.5,284.6,350.9,285.5,350.9,286.6z M345,288.8h1c1,0,1.7-0.2,2.2-0.5c0.5-0.3,0.7-0.9,0.7-1.6c0-0.7-0.2-1.2-0.6-1.5
		c-0.4-0.3-1-0.5-1.9-0.5H345V288.8z"/>
	<path class="st1" d="M360.8,290.4c0,1.4-0.4,2.6-1.1,3.4c-0.7,0.8-1.8,1.2-3.1,1.2c-0.8,0-1.6-0.2-2.2-0.6
		c-0.6-0.4-1.1-0.9-1.5-1.6c-0.3-0.7-0.5-1.5-0.5-2.4c0-1.4,0.4-2.6,1.1-3.4c0.7-0.8,1.8-1.2,3.1-1.2c1.3,0,2.3,0.4,3,1.2
		C360.5,287.9,360.8,289,360.8,290.4z M354.4,290.4c0,2,0.8,3.1,2.3,3.1c1.5,0,2.2-1,2.2-3.1c0-2-0.8-3-2.3-3
		c-0.8,0-1.4,0.3-1.7,0.8C354.6,288.6,354.4,289.4,354.4,290.4z"/>
	<path class="st1" d="M364.9,294.8H363v-12.4h1.9V294.8z"/>
	<path class="st1" d="M367.4,283.6c0-0.3,0.1-0.6,0.3-0.8c0.2-0.2,0.4-0.3,0.8-0.3c0.3,0,0.6,0.1,0.8,0.3c0.2,0.2,0.3,0.4,0.3,0.8
		c0,0.3-0.1,0.6-0.3,0.8c-0.2,0.2-0.4,0.3-0.8,0.3c-0.3,0-0.6-0.1-0.8-0.3C367.5,284.2,367.4,283.9,367.4,283.6z M369.4,294.8h-1.9
		V286h1.9V294.8z"/>
	<path class="st1" d="M375.7,295c-1.3,0-2.4-0.4-3-1.2c-0.7-0.8-1-1.9-1-3.4c0-1.5,0.4-2.6,1.1-3.4c0.7-0.8,1.8-1.2,3.2-1.2
		c0.9,0,1.8,0.2,2.5,0.5l-0.6,1.5c-0.8-0.3-1.4-0.5-2-0.5c-1.5,0-2.3,1-2.3,3c0,1,0.2,1.7,0.6,2.2c0.4,0.5,0.9,0.7,1.7,0.7
		c0.8,0,1.6-0.2,2.4-0.6v1.6c-0.3,0.2-0.7,0.3-1.1,0.4C376.7,294.9,376.2,295,375.7,295z"/>
	<path class="st1" d="M378.9,286h2l1.8,5c0.3,0.7,0.5,1.4,0.5,2h0.1c0-0.3,0.1-0.6,0.3-1.1c0.1-0.4,0.8-2.4,2-6h2l-3.8,10
		c-0.7,1.8-1.8,2.8-3.4,2.8c-0.4,0-0.8,0-1.2-0.1v-1.5c0.3,0.1,0.6,0.1,1,0.1c0.9,0,1.5-0.5,1.9-1.6l0.3-0.8L378.9,286z"/>
	<path class="st1" d="M398.8,294.8l-0.4-1.2h-0.1c-0.4,0.5-0.9,0.9-1.3,1.1c-0.4,0.2-1,0.3-1.7,0.3c-0.9,0-1.5-0.2-2-0.7
		s-0.7-1.1-0.7-2c0-0.9,0.3-1.6,1-2.1c0.7-0.5,1.7-0.7,3.1-0.8l1.5,0v-0.5c0-0.6-0.1-1-0.4-1.3c-0.3-0.3-0.7-0.4-1.2-0.4
		c-0.5,0-0.9,0.1-1.3,0.2c-0.4,0.1-0.8,0.3-1.2,0.5l-0.6-1.3c0.5-0.3,1-0.4,1.6-0.6c0.6-0.1,1.1-0.2,1.6-0.2c1.1,0,2,0.2,2.5,0.7
		c0.6,0.5,0.9,1.3,0.9,2.3v6H398.8z M396,293.5c0.7,0,1.2-0.2,1.6-0.6c0.4-0.4,0.6-0.9,0.6-1.6v-0.8l-1.1,0c-0.9,0-1.5,0.2-1.9,0.4
		c-0.4,0.3-0.6,0.7-0.6,1.2c0,0.4,0.1,0.7,0.4,0.9C395.1,293.4,395.5,293.5,396,293.5z"/>
	<path class="st1" d="M410.5,294.8h-1.9v-5.4c0-0.7-0.1-1.2-0.4-1.5c-0.3-0.3-0.7-0.5-1.3-0.5c-0.8,0-1.4,0.2-1.7,0.7
		s-0.6,1.3-0.6,2.4v4.4h-1.9V286h1.5l0.3,1.2h0.1c0.3-0.4,0.6-0.7,1.1-1c0.5-0.2,1-0.3,1.6-0.3c2.1,0,3.2,1.1,3.2,3.2V294.8z"/>
	<path class="st1" d="M416.1,295c-1.1,0-2-0.4-2.6-1.2c-0.6-0.8-0.9-1.9-0.9-3.4c0-1.4,0.3-2.6,0.9-3.4c0.6-0.8,1.5-1.2,2.6-1.2
		c1.2,0,2,0.4,2.7,1.3h0.1c-0.1-0.6-0.1-1.1-0.1-1.5v-3.2h1.9v12.4h-1.5l-0.3-1.2h-0.1C418.1,294.5,417.2,295,416.1,295z
		 M416.6,293.4c0.8,0,1.3-0.2,1.7-0.7c0.4-0.4,0.5-1.1,0.5-2.1v-0.3c0-1.1-0.2-1.9-0.5-2.4c-0.4-0.5-0.9-0.7-1.7-0.7
		c-0.7,0-1.2,0.3-1.5,0.8c-0.4,0.5-0.5,1.3-0.5,2.3c0,1,0.2,1.7,0.5,2.2C415.4,293.2,415.9,293.4,416.6,293.4z"/>
	<path class="st1" d="M435,294.8l-1.2-3.2h-4.5l-1.1,3.2h-2l4.4-11.7h2.1l4.4,11.7H435z M433.3,289.9l-1.1-3.2
		c-0.1-0.2-0.2-0.5-0.3-1c-0.1-0.5-0.2-0.8-0.3-1c-0.1,0.7-0.4,1.4-0.6,2.1l-1.1,3H433.3z"/>
	<path class="st1" d="M446.1,294.8h-1.9v-5.4c0-0.7-0.1-1.2-0.4-1.5c-0.3-0.3-0.7-0.5-1.3-0.5c-0.8,0-1.4,0.2-1.7,0.7
		c-0.4,0.5-0.6,1.3-0.6,2.4v4.4h-1.9V286h1.5l0.3,1.2h0.1c0.3-0.4,0.6-0.7,1.1-1c0.5-0.2,1-0.3,1.6-0.3c2.1,0,3.2,1.1,3.2,3.2V294.8
		z"/>
	<path class="st1" d="M454.3,294.8l-0.4-1.2h-0.1c-0.4,0.5-0.9,0.9-1.3,1.1c-0.4,0.2-1,0.3-1.7,0.3c-0.9,0-1.5-0.2-2-0.7
		s-0.7-1.1-0.7-2c0-0.9,0.3-1.6,1-2.1c0.7-0.5,1.7-0.7,3.1-0.8l1.5,0v-0.5c0-0.6-0.1-1-0.4-1.3c-0.3-0.3-0.7-0.4-1.2-0.4
		c-0.5,0-0.9,0.1-1.3,0.2c-0.4,0.1-0.8,0.3-1.2,0.5l-0.6-1.3c0.5-0.3,1-0.4,1.6-0.6c0.6-0.1,1.1-0.2,1.6-0.2c1.1,0,2,0.2,2.5,0.7
		c0.6,0.5,0.9,1.3,0.9,2.3v6H454.3z M451.5,293.5c0.7,0,1.2-0.2,1.6-0.6c0.4-0.4,0.6-0.9,0.6-1.6v-0.8l-1.1,0
		c-0.9,0-1.5,0.2-1.9,0.4c-0.4,0.3-0.6,0.7-0.6,1.2c0,0.4,0.1,0.7,0.4,0.9C450.7,293.4,451,293.5,451.5,293.5z"/>
	<path class="st1" d="M460.1,294.8h-1.9v-12.4h1.9V294.8z"/>
	<path class="st1" d="M461.5,286h2l1.8,5c0.3,0.7,0.5,1.4,0.5,2h0.1c0-0.3,0.1-0.6,0.3-1.1c0.1-0.4,0.8-2.4,2-6h2l-3.8,10
		c-0.7,1.8-1.8,2.8-3.4,2.8c-0.4,0-0.8,0-1.2-0.1v-1.5c0.3,0.1,0.6,0.1,1,0.1c0.9,0,1.5-0.5,1.9-1.6l0.3-0.8L461.5,286z"/>
	<path class="st1" d="M477.5,292.3c0,0.9-0.3,1.5-0.9,2c-0.6,0.5-1.5,0.7-2.7,0.7c-1.2,0-2.1-0.2-2.8-0.5v-1.6c1,0.5,2,0.7,2.9,0.7
		c1.2,0,1.7-0.3,1.7-1c0-0.2-0.1-0.4-0.2-0.6c-0.1-0.1-0.3-0.3-0.6-0.5c-0.3-0.2-0.7-0.3-1.2-0.5c-1-0.4-1.7-0.8-2.1-1.2
		c-0.4-0.4-0.5-0.9-0.5-1.5c0-0.8,0.3-1.3,0.9-1.8c0.6-0.4,1.4-0.6,2.5-0.6c1,0,2,0.2,2.9,0.6l-0.6,1.4c-1-0.4-1.8-0.6-2.4-0.6
		c-1,0-1.5,0.3-1.5,0.8c0,0.3,0.1,0.5,0.4,0.7c0.3,0.2,0.8,0.5,1.7,0.8c0.7,0.3,1.3,0.5,1.6,0.8c0.3,0.2,0.6,0.5,0.7,0.8
		C477.4,291.5,477.5,291.8,477.5,292.3z"/>
	<path class="st1" d="M479.4,283.6c0-0.3,0.1-0.6,0.3-0.8c0.2-0.2,0.4-0.3,0.8-0.3c0.3,0,0.6,0.1,0.8,0.3c0.2,0.2,0.3,0.4,0.3,0.8
		c0,0.3-0.1,0.6-0.3,0.8c-0.2,0.2-0.4,0.3-0.8,0.3c-0.3,0-0.6-0.1-0.8-0.3C479.5,284.2,479.4,283.9,479.4,283.6z M481.4,294.8h-1.9
		V286h1.9V294.8z"/>
	<path class="st1" d="M490,292.3c0,0.9-0.3,1.5-0.9,2c-0.6,0.5-1.5,0.7-2.7,0.7c-1.2,0-2.1-0.2-2.8-0.5v-1.6c1,0.5,2,0.7,2.9,0.7
		c1.2,0,1.7-0.3,1.7-1c0-0.2-0.1-0.4-0.2-0.6c-0.1-0.1-0.3-0.3-0.6-0.5c-0.3-0.2-0.7-0.3-1.2-0.5c-1-0.4-1.7-0.8-2.1-1.2
		c-0.4-0.4-0.5-0.9-0.5-1.5c0-0.8,0.3-1.3,0.9-1.8c0.6-0.4,1.4-0.6,2.5-0.6c1,0,2,0.2,2.9,0.6l-0.6,1.4c-1-0.4-1.8-0.6-2.4-0.6
		c-1,0-1.5,0.3-1.5,0.8c0,0.3,0.1,0.5,0.4,0.7c0.3,0.2,0.8,0.5,1.7,0.8c0.7,0.3,1.3,0.5,1.6,0.8c0.3,0.2,0.6,0.5,0.7,0.8
		C490,291.5,490,291.8,490,292.3z"/>
	<path class="st1" d="M494,293.1c-0.3,1-0.7,2.3-1.4,3.8h-1.4c0.4-1.4,0.6-2.8,0.8-4h1.8L494,293.1z"/>
	<path class="st1" d="M511.3,288.9c0,1.9-0.5,3.4-1.4,4.4c-1,1.1-2.3,1.6-4,1.6c-1.8,0-3.1-0.5-4.1-1.6c-0.9-1-1.4-2.5-1.4-4.5
		c0-1.9,0.5-3.4,1.4-4.4c1-1,2.3-1.5,4.1-1.5c1.7,0,3.1,0.5,4,1.6C510.8,285.6,511.3,287,511.3,288.9z M502.3,288.9
		c0,1.4,0.3,2.5,0.9,3.3c0.6,0.7,1.4,1.1,2.6,1.1c1.1,0,2-0.4,2.6-1.1c0.6-0.7,0.9-1.8,0.9-3.3c0-1.4-0.3-2.5-0.9-3.3
		c-0.6-0.7-1.4-1.1-2.6-1.1c-1.1,0-2,0.4-2.6,1.1C502.6,286.4,502.3,287.5,502.3,288.9z"/>
	<path class="st1" d="M523.5,294.8h-2.3l-5.7-9.3h-0.1l0,0.5c0.1,1,0.1,1.9,0.1,2.7v6.1h-1.7v-11.7h2.3l5.7,9.3h0
		c0-0.1,0-0.6-0.1-1.3c0-0.8,0-1.4,0-1.8v-6.1h1.7V294.8z"/>
	<path class="st1" d="M533.3,291.6c0,1-0.4,1.9-1.1,2.4s-1.8,0.9-3.1,0.9c-1.3,0-2.4-0.2-3.2-0.6v-1.8c0.5,0.3,1.1,0.4,1.7,0.6
		s1.2,0.2,1.7,0.2c0.8,0,1.3-0.1,1.7-0.4s0.5-0.7,0.5-1.2c0-0.4-0.2-0.8-0.5-1.1c-0.3-0.3-1-0.7-2-1.1c-1.1-0.4-1.8-0.9-2.3-1.5
		c-0.4-0.6-0.7-1.2-0.7-2c0-1,0.3-1.7,1-2.3c0.7-0.6,1.6-0.8,2.8-0.8c1.1,0,2.2,0.2,3.3,0.7l-0.6,1.6c-1-0.4-2-0.7-2.8-0.7
		c-0.6,0-1.1,0.1-1.4,0.4c-0.3,0.3-0.5,0.6-0.5,1.1c0,0.3,0.1,0.6,0.2,0.8c0.1,0.2,0.3,0.4,0.6,0.6c0.3,0.2,0.8,0.4,1.6,0.8
		c0.9,0.4,1.5,0.7,1.9,1c0.4,0.3,0.7,0.7,0.9,1C533.2,290.6,533.3,291.1,533.3,291.6z"/>
</g>
<g>
	<path class="st2" d="M303.3,39.5c2.9-3.6,6.2-6.2,9.8-7.9l1.2,2.5c-2.9,1.6-5.3,3.7-7.3,6.1c-2,2.4-3,4.9-3,7.4
		c0,0.5,0.2,0.9,0.5,1.1c0.3,0.2,0.7,0.4,1.2,0.4c2.7-0.3,4.1-0.4,4.3-0.4c1.4,0,2.8,0.5,4.4,1.5c1.6,1,2.4,2.7,2.4,5
		c0,2-0.7,3.7-2,5.1c-1.3,1.4-3.2,2.1-5.6,2.1c-2.8,0-5.2-1.1-7.2-3.3c-2-2.2-2.9-5-2.9-8.3C298.9,46.9,300.4,43.1,303.3,39.5z
		 M332.2,39.3c3-3.6,6.2-6.1,9.7-7.7l1.2,2.5c-2.9,1.6-5.3,3.7-7.3,6.1c-2,2.4-3,4.9-3,7.4c0,0.5,0.1,0.8,0.4,1.1
		c0.2,0.3,0.7,0.5,1.3,0.5c2.6-0.3,4.1-0.4,4.3-0.4c1.5,0,3,0.5,4.5,1.6c1.5,1.1,2.2,2.7,2.2,4.8c0,1.7-0.6,3.3-1.8,4.9
		c-1.2,1.6-3.1,2.4-5.9,2.4c-2.9,0-5.4-1.1-7.3-3.4c-1.9-2.3-2.8-4.9-2.8-7.7C327.8,46.9,329.3,42.9,332.2,39.3z"/>
</g>
<g>
	<g>
		<path class="st1" d="M449.5,343.2c-2.8,0-4-2.3-4-5.1c0-2.8,1.2-5.1,4-5.1c2.8,0,4,2.3,4,5.1C453.5,340.8,452.3,343.2,449.5,343.2
			z M449.5,333.7c-2.1,0-2.8,2.2-2.8,4.3c0,2,0.7,4.3,2.8,4.3c2.1,0,2.8-2.2,2.8-4.3C452.3,335.9,451.6,333.7,449.5,333.7z"/>
		<path class="st1" d="M457,335.9v7.1h-1.1v-7.1h-1.2v-0.7h1.2v-1.1c0-1.4,0.8-2.4,2.5-2.4c0.1,0,0.3,0,0.3,0v0.7h-0.1
			c-0.8,0-1.5,0.5-1.5,1.6v1.3h1.6v0.7H457z"/>
		<path class="st1" d="M461.7,335.9v7.1h-1.1v-7.1h-1.2v-0.7h1.2v-1.1c0-1.4,0.8-2.4,2.5-2.4c0.1,0,0.3,0,0.3,0v0.7h-0.1
			c-0.8,0-1.5,0.5-1.5,1.6v1.3h1.6v0.7H461.7z"/>
		<path class="st1" d="M465.1,333.7c-0.4,0-0.7-0.3-0.7-0.7s0.3-0.7,0.7-0.7c0.4,0,0.7,0.3,0.7,0.7S465.5,333.7,465.1,333.7z
			 M464.6,343v-7.8h1.1v7.8H464.6z"/>
		<path class="st1" d="M470.5,343.2c-1.8,0-3.3-1.6-3.3-4.1c0-2.5,1.4-4.1,3.3-4.1c0.9,0,1.6,0.3,1.9,0.5l-0.3,0.7
			c-0.3-0.2-0.7-0.4-1.4-0.4c-1.6,0-2.4,1.4-2.4,3.2c0,1.9,0.9,3.3,2.3,3.3c0.6,0,1.1-0.2,1.4-0.4l0.3,0.7
			C472.2,342.9,471.5,343.2,470.5,343.2z"/>
		<path class="st1" d="M474.3,339.6c0.1,1.8,1.2,2.8,2.7,2.8c1,0,1.7-0.2,2.1-0.5l0.3,0.8c-0.5,0.3-1.4,0.5-2.5,0.5
			c-2.2,0-3.7-1.3-3.7-4.1c0-2.7,1.4-4.1,3.4-4.1c2,0,3.2,1.2,3.2,3.8L474.3,339.6z M476.6,335.7c-1.3,0-2.3,1-2.3,3.2l4.4-0.6
			C478.7,336.5,477.8,335.7,476.6,335.7z"/>
		<path class="st1" d="M485.3,335.9v7.1h-1.1v-7.1H483v-0.7h1.2v-1.1c0-1.4,0.8-2.4,2.5-2.4c0.1,0,0.3,0,0.3,0v0.7h-0.1
			c-0.8,0-1.5,0.5-1.5,1.6v1.3h1.6v0.7H485.3z"/>
		<path class="st1" d="M491,343.2c-2.3,0-3.3-1.8-3.3-4.1c0-2.3,1-4.1,3.3-4.1c2.3,0,3.3,1.8,3.3,4.1
			C494.4,341.4,493.3,343.2,491,343.2z M491,335.8c-1.7,0-2.2,1.7-2.2,3.3c0,1.6,0.5,3.2,2.2,3.2c1.7,0,2.2-1.6,2.2-3.2
			C493.2,337.5,492.7,335.8,491,335.8z"/>
		<path class="st1" d="M499.2,335.9c-0.7-0.2-1.8-0.2-2.3,0.1v6.9h-1.1v-7.4c0.8-0.3,1.6-0.5,3.1-0.5c0.2,0,0.5,0,0.6,0L499.2,335.9
			z"/>
		<path class="st1" d="M509.5,343l-4.4-6.8c-0.3-0.5-0.6-1-0.6-1h0c0,0,0,0.6,0,1.2v6.6h-1.4v-9.9h1.6l4.2,6.4c0.4,0.6,0.6,1,0.6,1
			h0c0,0-0.1-0.6-0.1-1.2v-6.3h1.5v9.9H509.5z"/>
		<path class="st1" d="M515.6,343.2c-2.3,0-3.4-0.9-3.4-2.4c0-2.1,2.2-2.7,4.8-2.9v-0.4c0-1.1-0.7-1.4-1.8-1.4
			c-0.8,0-1.6,0.2-2.1,0.4l-0.4-1c0.5-0.2,1.6-0.6,2.8-0.6c1.7,0,3,0.7,3,2.7v4.9C518,343,516.9,343.2,515.6,343.2z M517.1,338.7
			c-1.9,0.2-3.2,0.6-3.2,2.1c0,1.1,0.7,1.5,1.9,1.5c0.5,0,1-0.1,1.3-0.3V338.7z"/>
		<path class="st1" d="M523.1,343.2c-1.6,0-2.3-1.1-2.3-2.1v-4.8h-1.1v-1h1.1v-1.7l1.7-0.5v2.2h1.5v1h-1.5v4.7
			c0,0.6,0.4,1.1,1.1,1.1c0.2,0,0.3,0,0.5-0.1v1C523.9,343.1,523.6,343.2,523.1,343.2z"/>
		<path class="st1" d="M526.2,333.9c-0.5,0-1-0.4-1-0.9c0-0.5,0.4-0.9,1-0.9s1,0.4,1,0.9C527.2,333.5,526.7,333.9,526.2,333.9z
			 M525.4,343v-7.8h1.7v7.8H525.4z"/>
		<path class="st1" d="M532,343.2c-2.4,0-3.6-1.8-3.6-4.1c0-2.3,1.2-4.1,3.6-4.1c2.4,0,3.5,1.8,3.5,4.1
			C535.6,341.5,534.4,343.2,532,343.2z M532,336.1c-1.4,0-1.9,1.5-1.9,3c0,1.5,0.5,3,1.9,3c1.4,0,1.9-1.4,1.9-3
			C533.9,337.6,533.4,336.1,532,336.1z"/>
		<path class="st1" d="M541.7,343v-5.6c0-1-0.8-1.4-1.8-1.4c-0.5,0-1,0.1-1.3,0.2v6.7h-1.7v-7.4c0.7-0.3,1.9-0.6,3.1-0.6
			c2,0,3.4,0.7,3.4,2.4v5.6H541.7z"/>
		<path class="st1" d="M548.1,343.2c-2.3,0-3.4-0.9-3.4-2.4c0-2.1,2.2-2.7,4.8-2.9v-0.4c0-1.1-0.7-1.4-1.8-1.4
			c-0.8,0-1.6,0.2-2.1,0.4l-0.4-1c0.5-0.2,1.6-0.6,2.8-0.6c1.7,0,3,0.7,3,2.7v4.9C550.4,343,549.3,343.2,548.1,343.2z M549.5,338.7
			c-1.9,0.2-3.2,0.6-3.2,2.1c0,1.1,0.7,1.5,1.9,1.5c0.5,0,1-0.1,1.3-0.3V338.7z"/>
		<path class="st1" d="M552.8,343v-3.7v-7.6h1.7v3.8v7.5H552.8z"/>
		<path class="st1" d="M561,343.2c-1.2,0-2.2-0.3-2.7-0.6l0.5-1.2c0.4,0.2,1.1,0.5,1.9,0.5c1.2,0,2-0.7,2-1.7c0-2.2-4.1-1.3-4.1-4.4
			c0-1.6,1.3-2.9,3.3-2.9c1.1,0,1.9,0.3,2.4,0.6l-0.4,1.1c-0.4-0.2-1-0.5-1.7-0.5c-1.1,0-1.8,0.6-1.8,1.6c0,2.1,4.2,1.2,4.2,4.5
			C564.5,341.9,563,343.2,561,343.2z"/>
		<path class="st1" d="M568.7,343.2c-1.6,0-2.3-1.1-2.3-2.1v-4.8h-1.1v-1h1.1v-1.7l1.7-0.5v2.2h1.5v1h-1.5v4.7
			c0,0.6,0.4,1.1,1.1,1.1c0.2,0,0.3,0,0.5-0.1v1C569.4,343.1,569.1,343.2,568.7,343.2z"/>
		<path class="st1" d="M573.9,343.2c-2.3,0-3.4-0.9-3.4-2.4c0-2.1,2.2-2.7,4.8-2.9v-0.4c0-1.1-0.7-1.4-1.8-1.4
			c-0.8,0-1.6,0.2-2.1,0.4l-0.4-1c0.5-0.2,1.6-0.6,2.8-0.6c1.7,0,3,0.7,3,2.7v4.9C576.2,343,575.1,343.2,573.9,343.2z M575.3,338.7
			c-1.9,0.2-3.2,0.6-3.2,2.1c0,1.1,0.7,1.5,1.9,1.5c0.5,0,1-0.1,1.3-0.3V338.7z"/>
		<path class="st1" d="M581.4,343.2c-1.6,0-2.3-1.1-2.3-2.1v-4.8H578v-1h1.1v-1.7l1.7-0.5v2.2h1.5v1h-1.5v4.7c0,0.6,0.4,1.1,1.1,1.1
			c0.2,0,0.3,0,0.5-0.1v1C582.1,343.1,581.8,343.2,581.4,343.2z"/>
		<path class="st1" d="M584.4,333.9c-0.5,0-1-0.4-1-0.9c0-0.5,0.4-0.9,1-0.9c0.5,0,1,0.4,1,0.9C585.4,333.5,584.9,333.9,584.4,333.9
			z M583.6,343v-7.8h1.7v7.8H583.6z"/>
		<path class="st1" d="M588.9,343.2c-1,0-1.9-0.3-2.3-0.6l0.4-1.1c0.3,0.2,1,0.5,1.7,0.5c0.8,0,1.5-0.5,1.5-1.2c0-1.8-3.4-1-3.4-3.5
			c0-1.2,1-2.3,2.7-2.3c1,0,1.7,0.2,2.2,0.6l-0.4,1c-0.3-0.2-0.8-0.4-1.4-0.4c-0.9,0-1.4,0.5-1.4,1.1c0,1.7,3.5,1,3.5,3.6
			C591.9,342.1,590.7,343.2,588.9,343.2z"/>
		<path class="st1" d="M596.1,343.2c-1.6,0-2.3-1.1-2.3-2.1v-4.8h-1.1v-1h1.1v-1.7l1.7-0.5v2.2h1.5v1h-1.5v4.7
			c0,0.6,0.4,1.1,1.1,1.1c0.2,0,0.3,0,0.5-0.1v1C596.9,343.1,596.5,343.2,596.1,343.2z"/>
		<path class="st1" d="M599.2,333.9c-0.5,0-1-0.4-1-0.9c0-0.5,0.4-0.9,1-0.9c0.5,0,1,0.4,1,0.9C600.1,333.5,599.7,333.9,599.2,333.9
			z M598.3,343v-7.8h1.7v7.8H598.3z"/>
		<path class="st1" d="M604.8,343.2c-1.9,0-3.4-1.6-3.4-4.1c0-2.6,1.5-4.1,3.4-4.1c1,0,1.6,0.3,2,0.6l-0.4,0.9
			c-0.2-0.2-0.7-0.4-1.2-0.4c-1.4,0-2.1,1.2-2.1,2.9c0,1.8,0.8,2.9,2,2.9c0.5,0,0.9-0.2,1.2-0.4l0.4,1
			C606.5,343,605.8,343.2,604.8,343.2z"/>
		<path class="st1" d="M609.9,343.2c-1,0-1.9-0.3-2.3-0.6l0.4-1.1c0.3,0.2,1,0.5,1.7,0.5c0.8,0,1.5-0.5,1.5-1.2c0-1.8-3.4-1-3.4-3.5
			c0-1.2,1-2.3,2.7-2.3c1,0,1.7,0.2,2.2,0.6l-0.4,1c-0.3-0.2-0.8-0.4-1.4-0.4c-0.9,0-1.4,0.5-1.4,1.1c0,1.7,3.5,1,3.5,3.6
			C612.9,342.1,611.8,343.2,609.9,343.2z"/>
	</g>
	<g>
		<path class="st1" d="M424.1,338.8c0.2-0.5,0.4-0.9,0.7-1.4c-0.3-0.8-0.5-1.2-0.7-2C424.1,336.7,424.1,337.6,424.1,338.8z
			 M425.7,329.1c0,0-1.5,0-1.5,1.9c0,0.1,0-0.2,0,0.3c0.1,1.8,0.7,3.5,1.3,5.1c0.9-1.4,1.7-2.2,2.9-3.3c2.5-2.1,5.4-3.4,10-4H425.7z
			"/>
		<path class="st1" d="M440.6,330.2c-5.2,0.5-8.8,2-11.3,4.2c-1.4,1.2-2.2,2.1-3.1,3.7c2,3.9,6.1,7.2,12.5,7.6l0.1,0
			c0,0,2,0.1,2-2.1L440.6,330.2C440.6,330.2,440.6,330.2,440.6,330.2z M427.2,341.2c-0.6-0.7-1.1-1.5-1.6-2.3
			c-0.6,1.1-1,2.2-1.5,3.4c0,1.9,0,3.2,0,3.2l9.6,0C430.7,344.7,428.9,343.3,427.2,341.2z"/>
	</g>
</g>
<rect y="329.2" class="st3" width="644.4" height="31.5"/>
<polygon class="st4" points="644.4,0 644.3,0 644.3,-0.1 612.8,-0.1 612.8,0 31.5,0 31.5,-0.1 0.1,-0.1 0.1,0 0,0 0,31.4 0.1,31.4 
	0.1,360.6 31.5,360.6 31.5,31.4 612.8,31.4 612.8,360.6 644.3,360.6 644.3,31.4 644.4,31.4 "/>
<line class="st5" x1="704" y1="128.3" x2="600.1" y2="128.3"/>
<line class="st6" x1="644.3" y1="128.3" x2="600.1" y2="128.3"/>
<circle class="st7" cx="599.2" cy="128.3" r="3.7"/>
<text transform="matrix(1 0 0 1 712.9199 122.0427)" class="st0 st8 st9">h1</text>
<text transform="matrix(1 0 0 1 712.9199 143.6427)" class="st0 st10 st9">Open Sans bold 52px</text>
<line class="st5" x1="704" y1="289.3" x2="600.1" y2="289.3"/>
<line class="st6" x1="644.3" y1="289.3" x2="547.9" y2="289.3"/>
<circle class="st7" cx="547.9" cy="289.3" r="3.7"/>
<text transform="matrix(1 0 0 1 712.9199 282.9932)" class="st0 st8 st9">h4</text>
<text transform="matrix(1 0 0 1 712.9199 304.5932)" class="st0 st10 st9">Open Sans Semibold 26px</text>
</svg>
