<?xml version="1.0" encoding="utf-8"?>
<!-- Generator: Adobe Illustrator 21.0.2, SVG Export Plug-In . SVG Version: 6.00 Build 0)  -->
<svg version="1.1" id="Layer_1" xmlns="http://www.w3.org/2000/svg" xmlns:xlink="http://www.w3.org/1999/xlink" x="0px" y="0px"
	 viewBox="0 0 944 491" style="enable-background:new 0 0 944 491;" xml:space="preserve">
<style type="text/css">
	.st0{fill:#008080;}
	.st1{fill:#E2BC22;}
	.st2{fill:#FFFFFF;}
	.st3{opacity:0.3;fill:#FFFFFF;enable-background:new    ;}
	.st4{fill:#414042;}
	.st5{font-family:'OpenSans';}
	.st6{font-size:18px;}
	.st7{font-family:'OpenSans-Semibold';}
	.st8{opacity:0.25;fill:#FFFFFF;enable-background:new    ;}
	.st9{fill:none;stroke:#414042;stroke-miterlimit:10;}
	.st10{fill:#FFFFFF;stroke:#414042;stroke-miterlimit:10;}
</style>
<g>
	<g>
		<rect x="0.1" y="64" class="st0" width="644.3" height="360.5"/>
	</g>
	<g>
		<circle class="st1" cx="388.6" cy="323.7" r="14.3"/>
		<circle class="st1" cx="509.7" cy="323.7" r="14.3"/>
		<path class="st2" d="M602.1,111.5h-30.8c-3.3,0-6.3,2.1-7.3,5.3l-13.7,41h-61.7c0,0-0.1,0-0.1,0h-81.1c0,0-0.1,0-0.1,0h-67.2
			c-2.5,0-4.8,1.2-6.2,3.2c-1.4,2-1.8,4.6-1.1,6.9l30.8,92.4c1,3.1,4,5.3,7.3,5.3h143.4l-10.3,30.8H386.4c-14.9,0-27,12.1-27,27
			s12.1,27,27,27c14.9,0,27-12.1,27-27c0-4.1-0.9-8.1-2.6-11.6h74.5c-1.7,3.5-2.6,7.4-2.6,11.6c0,14.9,12.1,27,27,27
			c14.9,0,27-12.1,27-27c0-11.3-7-21-16.9-25l12.7-38.2c0,0,0,0,0,0l15.4-46.2c0,0,0,0,0,0l15.4-46.2c0,0,0,0,0,0l13.6-40.8h25.3
			c4.3,0,7.7-3.4,7.7-7.7C609.8,114.9,606.3,111.5,602.1,111.5z M534.9,203.9h-43.5l3.9-30.8h49.9L534.9,203.9z M425.9,250.2
			l-3.9-30.8H474l-3.9,30.8H425.9z M420.2,203.9l-3.9-30.8h63.4l-3.9,30.8H420.2z M400.8,173.1l3.9,30.8h-43.5l-10.3-30.8H400.8z
			 M366.3,219.3h40.3l3.9,30.8h-33.9L366.3,219.3z M485.6,250.2l3.9-30.8h40.3l-10.3,30.8H485.6z M397.9,323.3
			c0,6.4-5.2,11.6-11.6,11.6c-6.4,0-11.6-5.2-11.6-11.6c0-6.4,5.2-11.6,11.6-11.6C392.8,311.8,397.9,317,397.9,323.3z M509.6,334.9
			c-6.4,0-11.6-5.2-11.6-11.6c0-6.4,5.2-11.6,11.6-11.6c6.4,0,11.6,5.2,11.6,11.6C521.2,329.7,516,334.9,509.6,334.9z"/>
	</g>
	<g>
		<path class="st2" d="M33.1,243.8v-11.7H35v11.7H33.1z"/>
		<path class="st2" d="M45.6,243.8h-1.9v-5.4c0-0.7-0.1-1.2-0.4-1.5c-0.3-0.3-0.7-0.5-1.3-0.5c-0.8,0-1.4,0.2-1.7,0.7
			c-0.4,0.5-0.6,1.3-0.6,2.4v4.4h-1.9V235h1.5l0.3,1.2h0.1c0.3-0.4,0.6-0.7,1.1-1c0.5-0.2,1-0.3,1.6-0.3c2.1,0,3.2,1.1,3.2,3.2
			V243.8z"/>
		<path class="st2" d="M55.8,242.4c0.5,0,0.9-0.1,1.4-0.2v1.4c-0.2,0.1-0.5,0.2-0.8,0.2c-0.3,0.1-0.7,0.1-1,0.1
			c-1.8,0-2.7-0.9-2.7-2.8v-4.8h-1.2v-0.8l1.3-0.7l0.6-1.9h1.2v2h2.5v1.4h-2.5v4.7c0,0.5,0.1,0.8,0.3,1
			C55.1,242.3,55.4,242.4,55.8,242.4z"/>
		<path class="st2" d="M66.7,243.8h-1.9v-5.4c0-0.7-0.1-1.2-0.4-1.5c-0.3-0.3-0.7-0.5-1.3-0.5c-0.8,0-1.4,0.2-1.7,0.7
			s-0.6,1.3-0.6,2.4v4.4h-1.9v-12.4h1.9v3.2c0,0.5,0,1-0.1,1.6h0.1c0.3-0.4,0.6-0.8,1.1-1c0.5-0.2,1-0.4,1.6-0.4
			c2.1,0,3.2,1.1,3.2,3.2V243.8z"/>
		<path class="st2" d="M73.2,244c-1.4,0-2.4-0.4-3.2-1.2c-0.8-0.8-1.2-1.9-1.2-3.3c0-1.4,0.4-2.6,1.1-3.4c0.7-0.8,1.7-1.2,3-1.2
			c1.2,0,2.1,0.4,2.8,1.1c0.7,0.7,1,1.7,1,2.9v1h-5.9c0,0.9,0.3,1.5,0.7,2c0.4,0.5,1.1,0.7,1.8,0.7c0.5,0,1,0,1.5-0.1
			c0.5-0.1,0.9-0.3,1.4-0.5v1.5c-0.5,0.2-0.9,0.4-1.4,0.5S73.8,244,73.2,244z M72.8,236.2c-0.6,0-1.1,0.2-1.4,0.6
			c-0.4,0.4-0.6,0.9-0.6,1.7h4c0-0.7-0.2-1.3-0.5-1.7C73.9,236.4,73.4,236.2,72.8,236.2z"/>
		<path class="st2" d="M89.9,234.8c0,0.7-0.2,1.4-0.6,1.8c-0.4,0.5-1,0.8-1.8,1v0.1c0.9,0.1,1.6,0.4,2.1,0.9s0.7,1.1,0.7,1.9
			c0,1.1-0.4,2-1.2,2.6s-1.9,0.9-3.4,0.9c-1.3,0-2.4-0.2-3.3-0.6v-1.7c0.5,0.2,1,0.4,1.6,0.6c0.6,0.1,1.1,0.2,1.6,0.2
			c0.9,0,1.6-0.2,2-0.5c0.4-0.3,0.7-0.9,0.7-1.6c0-0.6-0.2-1.1-0.7-1.4c-0.5-0.3-1.3-0.4-2.3-0.4h-1V237h1c1.9,0,2.8-0.6,2.8-1.9
			c0-0.5-0.2-0.9-0.5-1.2c-0.3-0.3-0.8-0.4-1.4-0.4c-0.4,0-0.9,0.1-1.3,0.2s-0.9,0.4-1.5,0.7l-0.9-1.3c1.1-0.8,2.3-1.2,3.7-1.2
			c1.2,0,2.1,0.3,2.8,0.8C89.5,233.2,89.9,233.9,89.9,234.8z"/>
		<path class="st2" d="M104,243.8h-1.9v-5.4c0-0.7-0.1-1.2-0.4-1.5s-0.7-0.5-1.2-0.5c-0.7,0-1.3,0.2-1.6,0.7
			c-0.3,0.5-0.5,1.3-0.5,2.4v4.4h-1.9V235h1.5l0.3,1.2h0.1c0.2-0.4,0.6-0.7,1.1-1c0.5-0.2,1-0.3,1.5-0.3c1.4,0,2.3,0.5,2.7,1.4h0.1
			c0.3-0.4,0.6-0.8,1.1-1c0.5-0.2,1-0.4,1.6-0.4c1.1,0,1.8,0.3,2.3,0.8s0.7,1.3,0.7,2.4v5.8h-1.9v-5.4c0-0.7-0.1-1.2-0.4-1.5
			s-0.7-0.5-1.2-0.5c-0.7,0-1.3,0.2-1.6,0.7c-0.3,0.5-0.5,1.2-0.5,2.1V243.8z"/>
		<path class="st2" d="M120.1,239.4c0,1.4-0.4,2.6-1.1,3.4c-0.7,0.8-1.8,1.2-3.1,1.2c-0.8,0-1.6-0.2-2.2-0.6
			c-0.6-0.4-1.1-0.9-1.5-1.6c-0.3-0.7-0.5-1.5-0.5-2.4c0-1.4,0.4-2.6,1.1-3.4c0.7-0.8,1.8-1.2,3.1-1.2c1.3,0,2.3,0.4,3,1.2
			C119.7,236.9,120.1,238,120.1,239.4z M113.6,239.4c0,2,0.8,3.1,2.3,3.1c1.5,0,2.2-1,2.2-3.1c0-2-0.8-3-2.3-3
			c-0.8,0-1.4,0.3-1.7,0.8C113.8,237.6,113.6,238.4,113.6,239.4z"/>
		<path class="st2" d="M130,243.8h-1.9v-5.4c0-0.7-0.1-1.2-0.4-1.5c-0.3-0.3-0.7-0.5-1.3-0.5c-0.8,0-1.4,0.2-1.7,0.7
			s-0.6,1.3-0.6,2.4v4.4h-1.9V235h1.5l0.3,1.2h0.1c0.3-0.4,0.6-0.7,1.1-1c0.5-0.2,1-0.3,1.6-0.3c2.1,0,3.2,1.1,3.2,3.2V243.8z"/>
		<path class="st2" d="M135.9,242.4c0.5,0,0.9-0.1,1.4-0.2v1.4c-0.2,0.1-0.5,0.2-0.8,0.2c-0.3,0.1-0.7,0.1-1,0.1
			c-1.8,0-2.7-0.9-2.7-2.8v-4.8h-1.2v-0.8l1.3-0.7l0.6-1.9h1.2v2h2.5v1.4h-2.5v4.7c0,0.5,0.1,0.8,0.3,1
			C135.2,242.3,135.5,242.4,135.9,242.4z"/>
		<path class="st2" d="M146.8,243.8h-1.9v-5.4c0-0.7-0.1-1.2-0.4-1.5c-0.3-0.3-0.7-0.5-1.3-0.5c-0.8,0-1.4,0.2-1.7,0.7
			s-0.6,1.3-0.6,2.4v4.4H139v-12.4h1.9v3.2c0,0.5,0,1-0.1,1.6h0.1c0.3-0.4,0.6-0.8,1.1-1c0.5-0.2,1-0.4,1.6-0.4
			c2.1,0,3.2,1.1,3.2,3.2V243.8z"/>
		<path class="st2" d="M155.4,241.3c0,0.9-0.3,1.5-0.9,2c-0.6,0.5-1.5,0.7-2.7,0.7c-1.2,0-2.1-0.2-2.8-0.5v-1.6c1,0.5,2,0.7,2.9,0.7
			c1.2,0,1.7-0.3,1.7-1c0-0.2-0.1-0.4-0.2-0.6c-0.1-0.1-0.3-0.3-0.6-0.5c-0.3-0.2-0.7-0.3-1.2-0.5c-1-0.4-1.7-0.8-2.1-1.2
			c-0.4-0.4-0.5-0.9-0.5-1.5c0-0.8,0.3-1.3,0.9-1.8c0.6-0.4,1.4-0.6,2.5-0.6c1,0,2,0.2,2.9,0.6l-0.6,1.4c-1-0.4-1.8-0.6-2.4-0.6
			c-1,0-1.5,0.3-1.5,0.8c0,0.3,0.1,0.5,0.4,0.7c0.3,0.2,0.8,0.5,1.7,0.8c0.7,0.3,1.3,0.5,1.6,0.8s0.6,0.5,0.7,0.8
			C155.3,240.5,155.4,240.9,155.4,241.3z"/>
		<path class="st2" d="M164.9,242.4c0.5,0,0.9-0.1,1.4-0.2v1.4c-0.2,0.1-0.5,0.2-0.8,0.2c-0.3,0.1-0.7,0.1-1,0.1
			c-1.8,0-2.7-0.9-2.7-2.8v-4.8h-1.2v-0.8l1.3-0.7l0.6-1.9h1.2v2h2.5v1.4h-2.5v4.7c0,0.5,0.1,0.8,0.3,1
			C164.3,242.3,164.6,242.4,164.9,242.4z"/>
		<path class="st2" d="M175.9,239.4c0,1.4-0.4,2.6-1.1,3.4c-0.7,0.8-1.8,1.2-3.1,1.2c-0.8,0-1.6-0.2-2.2-0.6
			c-0.6-0.4-1.1-0.9-1.5-1.6s-0.5-1.5-0.5-2.4c0-1.4,0.4-2.6,1.1-3.4c0.7-0.8,1.8-1.2,3.1-1.2c1.3,0,2.3,0.4,3,1.2
			C175.5,236.9,175.9,238,175.9,239.4z M169.5,239.4c0,2,0.8,3.1,2.3,3.1c1.5,0,2.2-1,2.2-3.1c0-2-0.8-3-2.3-3
			c-0.8,0-1.4,0.3-1.7,0.8C169.6,237.6,169.5,238.4,169.5,239.4z"/>
		<path class="st2" d="M181,247.1c-0.5,0-1-0.1-1.3-0.2v-1.6c0.4,0.1,0.8,0.2,1.2,0.2c1,0,1.6-0.7,1.6-2v-11.3h1.9v11.3
			c0,1.2-0.3,2.1-0.9,2.7C183,246.7,182.1,247.1,181,247.1z"/>
		<path class="st2" d="M193.4,243.8l-0.3-1.2h-0.1c-0.3,0.4-0.6,0.7-1.1,1c-0.5,0.2-1,0.4-1.6,0.4c-1.1,0-1.9-0.3-2.4-0.8
			s-0.8-1.3-0.8-2.4V235h1.9v5.4c0,0.7,0.1,1.2,0.4,1.5c0.3,0.3,0.7,0.5,1.3,0.5c0.8,0,1.4-0.2,1.7-0.7c0.4-0.5,0.6-1.3,0.6-2.4V235
			h1.9v8.8H193.4z"/>
		<path class="st2" d="M205.4,243.8h-1.9v-5.4c0-0.7-0.1-1.2-0.4-1.5c-0.3-0.3-0.7-0.5-1.3-0.5c-0.8,0-1.4,0.2-1.7,0.7
			c-0.4,0.5-0.6,1.3-0.6,2.4v4.4h-1.9V235h1.5l0.3,1.2h0.1c0.3-0.4,0.6-0.7,1.1-1c0.5-0.2,1-0.3,1.6-0.3c2.1,0,3.2,1.1,3.2,3.2
			V243.8z"/>
		<path class="st2" d="M211.8,244c-1.4,0-2.4-0.4-3.2-1.2c-0.8-0.8-1.2-1.9-1.2-3.3c0-1.4,0.4-2.6,1.1-3.4c0.7-0.8,1.7-1.2,3-1.2
			c1.2,0,2.1,0.4,2.8,1.1c0.7,0.7,1,1.7,1,2.9v1h-5.9c0,0.9,0.3,1.5,0.7,2c0.4,0.5,1.1,0.7,1.8,0.7c0.5,0,1,0,1.5-0.1
			c0.5-0.1,0.9-0.3,1.4-0.5v1.5c-0.5,0.2-0.9,0.4-1.4,0.5S212.4,244,211.8,244z M211.5,236.2c-0.6,0-1.1,0.2-1.4,0.6
			c-0.4,0.4-0.6,0.9-0.6,1.7h4c0-0.7-0.2-1.3-0.5-1.7C212.5,236.4,212.1,236.2,211.5,236.2z"/>
		<path class="st2" d="M228.9,243.8H221v-1.4l3-3c0.9-0.9,1.5-1.6,1.8-1.9c0.3-0.4,0.5-0.7,0.6-1.1c0.1-0.3,0.2-0.7,0.2-1.1
			c0-0.5-0.2-0.9-0.5-1.2c-0.3-0.3-0.8-0.5-1.3-0.5c-0.4,0-0.9,0.1-1.3,0.2c-0.4,0.2-0.9,0.5-1.4,0.9l-1-1.2
			c0.6-0.5,1.3-0.9,1.9-1.2c0.6-0.2,1.3-0.3,2-0.3c1.1,0,2,0.3,2.6,0.9c0.7,0.6,1,1.3,1,2.3c0,0.5-0.1,1-0.3,1.5
			c-0.2,0.5-0.5,1-0.9,1.5c-0.4,0.5-1,1.2-2,2l-2,2v0.1h5.5V243.8z"/>
		<path class="st2" d="M238.3,238c0,2-0.3,3.5-1,4.5c-0.7,1-1.6,1.5-3,1.5c-1.3,0-2.3-0.5-3-1.5s-1-2.5-1-4.5c0-2.1,0.3-3.6,1-4.6
			c0.7-1,1.6-1.5,3-1.5c1.3,0,2.3,0.5,3,1.5C237.9,234.5,238.3,236,238.3,238z M232.2,238c0,1.6,0.2,2.7,0.5,3.4s0.9,1,1.6,1
			s1.2-0.3,1.6-1c0.3-0.7,0.5-1.8,0.5-3.4c0-1.6-0.2-2.7-0.5-3.4c-0.3-0.7-0.9-1.1-1.6-1.1s-1.2,0.3-1.6,1S232.2,236.4,232.2,238z"
			/>
		<path class="st2" d="M245.2,243.8h-1.9v-7.5c0-0.9,0-1.6,0.1-2.1c-0.1,0.1-0.3,0.3-0.5,0.4c-0.2,0.2-0.8,0.6-1.8,1.5l-0.9-1.2
			l3.4-2.7h1.6V243.8z"/>
		<path class="st2" d="M250.4,243.8l4.6-10h-6.1v-1.7h8.1v1.3l-4.6,10.4H250.4z"/>
	</g>
	<g>
		<path class="st2" d="M39.4,111.7v9h-5V97.3h6.8c3.2,0,5.5,0.6,7,1.7c1.5,1.2,2.3,2.9,2.3,5.3c0,1.4-0.4,2.6-1.1,3.7
			c-0.8,1.1-1.8,1.9-3.2,2.5c3.5,5.3,5.8,8.6,6.9,10.2h-5.5l-5.6-9H39.4z M39.4,107.7H41c1.6,0,2.7-0.3,3.5-0.8
			c0.7-0.5,1.1-1.3,1.1-2.5c0-1.1-0.4-1.9-1.1-2.4c-0.8-0.5-1.9-0.7-3.5-0.7h-1.5V107.7z"/>
		<path class="st2" d="M63.8,121c-2.9,0-5.1-0.8-6.7-2.4c-1.6-1.6-2.4-3.8-2.4-6.7c0-3,0.7-5.3,2.2-6.9c1.5-1.6,3.6-2.5,6.2-2.5
			c2.5,0,4.5,0.7,5.9,2.2c1.4,1.4,2.1,3.4,2.1,6v2.4H59.5c0.1,1.4,0.5,2.5,1.2,3.2c0.8,0.8,1.8,1.2,3.2,1.2c1.1,0,2.1-0.1,3.1-0.3
			s2-0.6,3-1.1v3.8c-0.9,0.4-1.8,0.7-2.7,1C66.4,120.9,65.2,121,63.8,121z M63.1,105.9c-1,0-1.8,0.3-2.4,1c-0.6,0.7-0.9,1.6-1,2.8
			h6.8c0-1.2-0.3-2.1-0.9-2.8C64.9,106.2,64.1,105.9,63.1,105.9z"/>
		<path class="st2" d="M82.6,117.1c0.9,0,1.9-0.2,3.1-0.6v3.6c-1.2,0.5-2.7,0.8-4.5,0.8c-1.9,0-3.4-0.5-4.3-1.5
			c-0.9-1-1.3-2.5-1.3-4.4v-8.6h-2.3v-2.1l2.7-1.6l1.4-3.8h3.1v3.8h5v3.7h-5v8.6c0,0.7,0.2,1.2,0.6,1.5
			C81.4,116.9,81.9,117.1,82.6,117.1z"/>
		<path class="st2" d="M100.6,120.6l-0.9-2.4h-0.1c-0.8,1-1.7,1.7-2.5,2.1c-0.9,0.4-2,0.6-3.4,0.6c-1.7,0-3.1-0.5-4-1.5
			c-1-1-1.5-2.4-1.5-4.2c0-1.9,0.7-3.3,2-4.2c1.3-0.9,3.3-1.4,6-1.5l3.1-0.1v-0.8c0-1.8-0.9-2.7-2.8-2.7c-1.4,0-3.1,0.4-5,1.3
			l-1.6-3.3c2.1-1.1,4.3-1.6,6.8-1.6c2.4,0,4.2,0.5,5.5,1.6c1.3,1,1.9,2.6,1.9,4.8v11.9H100.6z M99.1,112.4l-1.9,0.1
			c-1.4,0-2.5,0.3-3.2,0.8c-0.7,0.5-1,1.2-1,2.1c0,1.4,0.8,2.1,2.4,2.1c1.1,0,2-0.3,2.7-1c0.7-0.6,1-1.5,1-2.6V112.4z"/>
		<path class="st2" d="M108.8,98.2c0-1.6,0.9-2.4,2.7-2.4c1.8,0,2.7,0.8,2.7,2.4c0,0.8-0.2,1.3-0.7,1.8c-0.4,0.4-1.1,0.6-2,0.6
			C109.7,100.6,108.8,99.8,108.8,98.2z M113.9,120.6H109v-17.9h4.9V120.6z"/>
		<path class="st2" d="M123.8,120.6H119V95.8h4.9V120.6z"/>
		<path class="st2" d="M149.9,115.3c0,1.8-0.6,3.2-1.9,4.2c-1.3,1-3.2,1.4-5.7,1.4c-1.3,0-2.4-0.1-3.3-0.3c-0.9-0.2-1.8-0.4-2.6-0.8
			v-4c0.9,0.4,1.9,0.8,3.1,1.1c1.1,0.3,2.1,0.4,3,0.4c1.8,0,2.7-0.5,2.7-1.5c0-0.4-0.1-0.7-0.4-0.9c-0.2-0.2-0.6-0.5-1.2-0.8
			s-1.3-0.7-2.3-1.1c-1.4-0.6-2.4-1.1-3-1.6c-0.6-0.5-1.1-1.1-1.4-1.7c-0.3-0.6-0.4-1.4-0.4-2.3c0-1.6,0.6-2.8,1.8-3.7
			c1.2-0.9,3-1.3,5.2-1.3c2.2,0,4.2,0.5,6.3,1.4l-1.5,3.5c-0.9-0.4-1.7-0.7-2.5-0.9c-0.8-0.2-1.6-0.4-2.4-0.4
			c-1.4,0-2.2,0.4-2.2,1.2c0,0.4,0.2,0.8,0.7,1.1s1.5,0.8,3,1.4c1.4,0.6,2.4,1.1,3.1,1.6c0.6,0.5,1.1,1.1,1.4,1.7
			C149.8,113.7,149.9,114.5,149.9,115.3z"/>
		<path class="st2" d="M165.1,120.6l-0.9-2.4H164c-0.8,1-1.7,1.7-2.5,2.1c-0.9,0.4-2,0.6-3.4,0.6c-1.7,0-3.1-0.5-4.1-1.5
			c-1-1-1.5-2.4-1.5-4.2c0-1.9,0.7-3.3,2-4.2c1.3-0.9,3.3-1.4,6-1.5l3.1-0.1v-0.8c0-1.8-0.9-2.7-2.8-2.7c-1.4,0-3.1,0.4-5,1.3
			l-1.6-3.3c2.1-1.1,4.3-1.6,6.8-1.6c2.4,0,4.2,0.5,5.5,1.6c1.3,1,1.9,2.6,1.9,4.8v11.9H165.1z M163.6,112.4l-1.9,0.1
			c-1.4,0-2.5,0.3-3.2,0.8c-0.7,0.5-1,1.2-1,2.1c0,1.4,0.8,2.1,2.4,2.1c1.1,0,2-0.3,2.7-1c0.7-0.6,1-1.5,1-2.6V112.4z"/>
		<path class="st2" d="M178.4,120.6h-4.9V95.8h4.9V120.6z"/>
		<path class="st2" d="M191.6,121c-2.9,0-5.1-0.8-6.7-2.4c-1.6-1.6-2.4-3.8-2.4-6.7c0-3,0.7-5.3,2.2-6.9c1.5-1.6,3.6-2.5,6.2-2.5
			c2.5,0,4.5,0.7,5.9,2.2c1.4,1.4,2.1,3.4,2.1,6v2.4h-11.5c0.1,1.4,0.5,2.5,1.2,3.2c0.8,0.8,1.8,1.2,3.2,1.2c1.1,0,2.1-0.1,3.1-0.3
			c1-0.2,2-0.6,3-1.1v3.8c-0.9,0.4-1.8,0.7-2.7,1C194.1,120.9,193,121,191.6,121z M190.9,105.9c-1,0-1.8,0.3-2.4,1
			c-0.6,0.7-0.9,1.6-1,2.8h6.8c0-1.2-0.3-2.1-0.9-2.8S191.9,105.9,190.9,105.9z"/>
		<path class="st2" d="M215.3,115.3c0,1.8-0.6,3.2-1.9,4.2c-1.3,1-3.2,1.4-5.7,1.4c-1.3,0-2.4-0.1-3.3-0.3c-0.9-0.2-1.8-0.4-2.6-0.8
			v-4c0.9,0.4,1.9,0.8,3.1,1.1s2.1,0.4,3,0.4c1.8,0,2.7-0.5,2.7-1.5c0-0.4-0.1-0.7-0.4-0.9c-0.2-0.2-0.6-0.5-1.2-0.8
			c-0.6-0.3-1.3-0.7-2.3-1.1c-1.4-0.6-2.4-1.1-3-1.6c-0.6-0.5-1.1-1.1-1.4-1.7c-0.3-0.6-0.4-1.4-0.4-2.3c0-1.6,0.6-2.8,1.8-3.7
			c1.2-0.9,3-1.3,5.2-1.3c2.2,0,4.2,0.5,6.3,1.4l-1.5,3.5c-0.9-0.4-1.7-0.7-2.5-0.9c-0.8-0.2-1.6-0.4-2.4-0.4
			c-1.4,0-2.2,0.4-2.2,1.2c0,0.4,0.2,0.8,0.7,1.1c0.5,0.3,1.5,0.8,3,1.4c1.4,0.6,2.4,1.1,3.1,1.6c0.6,0.5,1.1,1.1,1.4,1.7
			C215.1,113.7,215.3,114.5,215.3,115.3z"/>
		<path class="st2" d="M33.9,137.4c0-1.6,0.9-2.4,2.7-2.4c1.8,0,2.7,0.8,2.7,2.4c0,0.8-0.2,1.3-0.7,1.8c-0.4,0.4-1.1,0.6-2,0.6
			C34.8,139.8,33.9,139,33.9,137.4z M39,159.9h-4.9V142H39V159.9z"/>
		<path class="st2" d="M60.6,159.9h-4.9v-10.4c0-1.3-0.2-2.3-0.7-2.9c-0.5-0.6-1.2-1-2.2-1c-1.4,0-2.3,0.5-3,1.4
			c-0.6,0.9-0.9,2.4-0.9,4.5v8.4h-4.9V142h3.7l0.7,2.3h0.3c0.5-0.9,1.3-1.5,2.2-2c1-0.4,2-0.7,3.3-0.7c2.1,0,3.7,0.6,4.7,1.7
			c1.1,1.1,1.6,2.7,1.6,4.9V159.9z"/>
		<path class="st2" d="M72.8,160.2c-5.6,0-8.3-3.1-8.3-9.2c0-3,0.8-5.4,2.3-7c1.5-1.6,3.7-2.4,6.5-2.4c2.1,0,3.9,0.4,5.6,1.2
			l-1.4,3.8c-0.8-0.3-1.5-0.6-2.1-0.8c-0.7-0.2-1.3-0.3-2-0.3c-2.5,0-3.8,1.8-3.8,5.4c0,3.5,1.3,5.2,3.8,5.2c0.9,0,1.8-0.1,2.6-0.4
			c0.8-0.3,1.6-0.6,2.4-1.2v4.2c-0.8,0.5-1.6,0.8-2.4,1C75.1,160.1,74.1,160.2,72.8,160.2z"/>
		<path class="st2" d="M92.4,141.7c0.7,0,1.2,0,1.6,0.1l-0.4,4.6c-0.4-0.1-0.9-0.2-1.4-0.2c-1.6,0-2.8,0.4-3.6,1.2
			c-0.9,0.8-1.3,1.9-1.3,3.4v9.1h-4.9V142h3.7l0.7,3h0.2c0.6-1,1.3-1.8,2.2-2.4C90.2,142,91.3,141.7,92.4,141.7z"/>
		<path class="st2" d="M105.3,160.2c-2.9,0-5.1-0.8-6.7-2.4c-1.6-1.6-2.4-3.8-2.4-6.7c0-3,0.7-5.3,2.2-6.9c1.5-1.6,3.6-2.5,6.2-2.5
			c2.5,0,4.5,0.7,5.9,2.2c1.4,1.4,2.1,3.4,2.1,6v2.4h-11.5c0.1,1.4,0.5,2.5,1.2,3.2c0.8,0.8,1.8,1.2,3.2,1.2c1.1,0,2.1-0.1,3.1-0.3
			c1-0.2,2-0.6,3-1.1v3.8c-0.9,0.4-1.8,0.7-2.7,1C107.9,160.1,106.7,160.2,105.3,160.2z M104.7,145.2c-1,0-1.8,0.3-2.4,1
			c-0.6,0.7-0.9,1.6-1,2.8h6.8c0-1.2-0.3-2.1-0.9-2.8S105.7,145.2,104.7,145.2z"/>
		<path class="st2" d="M127.9,159.9l-0.9-2.4h-0.1c-0.8,1-1.7,1.7-2.5,2.1c-0.9,0.4-2,0.6-3.4,0.6c-1.7,0-3.1-0.5-4-1.5
			c-1-1-1.5-2.4-1.5-4.2c0-1.9,0.7-3.3,2-4.2c1.3-0.9,3.3-1.4,6-1.5l3.1-0.1V148c0-1.8-0.9-2.7-2.8-2.7c-1.4,0-3.1,0.4-5,1.3
			l-1.6-3.3c2.1-1.1,4.3-1.6,6.8-1.6c2.4,0,4.2,0.5,5.5,1.6c1.3,1,1.9,2.6,1.9,4.8v11.9H127.9z M126.5,151.6l-1.9,0.1
			c-1.4,0-2.5,0.3-3.2,0.8c-0.7,0.5-1,1.2-1,2.1c0,1.4,0.8,2.1,2.4,2.1c1.1,0,2-0.3,2.7-1c0.7-0.6,1-1.5,1-2.6V151.6z"/>
		<path class="st2" d="M148.8,154.6c0,1.8-0.6,3.2-1.9,4.2c-1.3,1-3.2,1.4-5.7,1.4c-1.3,0-2.4-0.1-3.3-0.3c-0.9-0.2-1.8-0.4-2.6-0.8
			v-4c0.9,0.4,1.9,0.8,3.1,1.1c1.1,0.3,2.1,0.4,3,0.4c1.8,0,2.7-0.5,2.7-1.5c0-0.4-0.1-0.7-0.4-0.9c-0.2-0.2-0.6-0.5-1.2-0.8
			c-0.6-0.3-1.3-0.7-2.3-1.1c-1.4-0.6-2.4-1.1-3-1.6c-0.6-0.5-1.1-1.1-1.4-1.7c-0.3-0.6-0.4-1.4-0.4-2.3c0-1.6,0.6-2.8,1.8-3.7
			c1.2-0.9,3-1.3,5.2-1.3c2.2,0,4.2,0.5,6.3,1.4l-1.5,3.5c-0.9-0.4-1.7-0.7-2.5-0.9c-0.8-0.2-1.6-0.4-2.4-0.4
			c-1.4,0-2.2,0.4-2.2,1.2c0,0.4,0.2,0.8,0.7,1.1c0.5,0.3,1.5,0.8,3,1.4c1.4,0.6,2.4,1.1,3.1,1.6c0.6,0.5,1.1,1.1,1.4,1.7
			C148.7,153,148.8,153.7,148.8,154.6z"/>
		<path class="st2" d="M160.7,160.2c-2.9,0-5.1-0.8-6.7-2.4c-1.6-1.6-2.4-3.8-2.4-6.7c0-3,0.7-5.3,2.2-6.9c1.5-1.6,3.6-2.5,6.2-2.5
			c2.5,0,4.5,0.7,5.9,2.2c1.4,1.4,2.1,3.4,2.1,6v2.4h-11.5c0.1,1.4,0.5,2.5,1.2,3.2c0.8,0.8,1.8,1.2,3.2,1.2c1.1,0,2.1-0.1,3.1-0.3
			c1-0.2,2-0.6,3-1.1v3.8c-0.9,0.4-1.8,0.7-2.7,1C163.3,160.1,162.1,160.2,160.7,160.2z M160,145.2c-1,0-1.8,0.3-2.4,1
			c-0.6,0.7-0.9,1.6-1,2.8h6.8c0-1.2-0.3-2.1-0.9-2.8S161.1,145.2,160,145.2z"/>
		<path class="st2" d="M177.6,160.2c-2.1,0-3.7-0.8-4.9-2.4c-1.2-1.6-1.8-3.9-1.8-6.8c0-2.9,0.6-5.2,1.8-6.8c1.2-1.6,2.9-2.5,5-2.5
			c2.2,0,4,0.9,5.1,2.6h0.2c-0.2-1.3-0.4-2.5-0.4-3.6V135h4.9v24.9h-3.7l-0.9-2.3h-0.2C181.6,159.3,179.9,160.2,177.6,160.2z
			 M179.3,156.3c1.2,0,2.2-0.4,2.7-1.1c0.6-0.7,0.9-2,1-3.7V151c0-1.9-0.3-3.3-0.9-4.1s-1.6-1.2-2.9-1.2c-1.1,0-1.9,0.5-2.5,1.4
			c-0.6,0.9-0.9,2.3-0.9,4c0,1.8,0.3,3.1,0.9,4C177.3,155.9,178.2,156.3,179.3,156.3z"/>
		<path class="st2" d="M212.5,159.9l-0.9-2.4h-0.1c-0.8,1-1.7,1.7-2.5,2.1c-0.9,0.4-2,0.6-3.4,0.6c-1.7,0-3.1-0.5-4.1-1.5
			c-1-1-1.5-2.4-1.5-4.2c0-1.9,0.7-3.3,2-4.2c1.3-0.9,3.3-1.4,6-1.5l3.1-0.1V148c0-1.8-0.9-2.7-2.8-2.7c-1.4,0-3.1,0.4-5,1.3
			l-1.6-3.3c2.1-1.1,4.3-1.6,6.8-1.6c2.4,0,4.2,0.5,5.5,1.6c1.3,1,1.9,2.6,1.9,4.8v11.9H212.5z M211.1,151.6l-1.9,0.1
			c-1.4,0-2.5,0.3-3.2,0.8c-0.7,0.5-1,1.2-1,2.1c0,1.4,0.8,2.1,2.4,2.1c1.1,0,2-0.3,2.7-1c0.7-0.6,1-1.5,1-2.6V151.6z"/>
		<path class="st2" d="M237.4,159.9h-4.9v-10.4c0-1.3-0.2-2.3-0.7-2.9c-0.5-0.6-1.2-1-2.2-1c-1.4,0-2.3,0.5-3,1.4
			c-0.6,0.9-0.9,2.4-0.9,4.5v8.4h-4.9V142h3.7l0.7,2.3h0.3c0.5-0.9,1.3-1.5,2.2-2c1-0.4,2-0.7,3.3-0.7c2.1,0,3.7,0.6,4.7,1.7
			c1.1,1.1,1.6,2.7,1.6,4.9V159.9z"/>
		<path class="st2" d="M42.2,199.5c-2.9,0-5.1-0.8-6.7-2.4c-1.6-1.6-2.4-3.8-2.4-6.7c0-3,0.7-5.3,2.2-6.9c1.5-1.6,3.6-2.5,6.2-2.5
			c2.5,0,4.5,0.7,5.9,2.2c1.4,1.4,2.1,3.4,2.1,6v2.4H37.9c0.1,1.4,0.5,2.5,1.2,3.2c0.8,0.8,1.8,1.2,3.2,1.2c1.1,0,2.1-0.1,3.1-0.3
			c1-0.2,2-0.6,3-1.1v3.8c-0.9,0.4-1.8,0.7-2.7,1C44.8,199.4,43.6,199.5,42.2,199.5z M41.5,184.4c-1,0-1.8,0.3-2.4,1
			c-0.6,0.7-0.9,1.6-1,2.8h6.8c0-1.2-0.3-2.1-0.9-2.8C43.3,184.8,42.5,184.4,41.5,184.4z"/>
		<path class="st2" d="M65.9,193.9c0,1.8-0.6,3.2-1.9,4.2c-1.3,1-3.2,1.4-5.7,1.4c-1.3,0-2.4-0.1-3.3-0.3c-0.9-0.2-1.8-0.4-2.6-0.8
			v-4c0.9,0.4,1.9,0.8,3.1,1.1c1.1,0.3,2.1,0.4,3,0.4c1.8,0,2.7-0.5,2.7-1.5c0-0.4-0.1-0.7-0.4-0.9c-0.2-0.2-0.6-0.5-1.2-0.8
			c-0.6-0.3-1.3-0.7-2.3-1.1c-1.4-0.6-2.4-1.1-3-1.6c-0.6-0.5-1.1-1.1-1.4-1.7c-0.3-0.6-0.4-1.4-0.4-2.3c0-1.6,0.6-2.8,1.8-3.7
			c1.2-0.9,3-1.3,5.2-1.3c2.2,0,4.2,0.5,6.3,1.4l-1.5,3.5c-0.9-0.4-1.7-0.7-2.5-0.9c-0.8-0.2-1.6-0.4-2.4-0.4
			c-1.4,0-2.2,0.4-2.2,1.2c0,0.4,0.2,0.8,0.7,1.1c0.5,0.3,1.5,0.8,3,1.4c1.4,0.6,2.4,1.1,3.1,1.6c0.6,0.5,1.1,1.1,1.4,1.7
			C65.7,192.2,65.9,193,65.9,193.9z"/>
		<path class="st2" d="M77.2,195.6c0.9,0,1.9-0.2,3.1-0.6v3.6c-1.2,0.5-2.7,0.8-4.5,0.8c-1.9,0-3.4-0.5-4.3-1.5
			c-0.9-1-1.3-2.5-1.3-4.4V185h-2.3v-2.1l2.7-1.6l1.4-3.8h3.1v3.8h5v3.7h-5v8.6c0,0.7,0.2,1.2,0.6,1.5
			C76.1,195.4,76.6,195.6,77.2,195.6z"/>
		<path class="st2" d="M83.7,176.7c0-1.6,0.9-2.4,2.7-2.4c1.8,0,2.7,0.8,2.7,2.4c0,0.8-0.2,1.3-0.7,1.8c-0.4,0.4-1.1,0.6-2,0.6
			C84.6,179.1,83.7,178.3,83.7,176.7z M88.8,199.2h-4.9v-17.9h4.9V199.2z"/>
		<path class="st2" d="M109.9,199.2H105v-10.4c0-1.3-0.2-2.3-0.6-2.9c-0.4-0.6-1.1-1-2-1c-1.2,0-2.2,0.5-2.7,1.4
			c-0.6,0.9-0.8,2.4-0.8,4.5v8.4h-4.9v-17.9h3.7l0.7,2.3h0.3c0.5-0.8,1.2-1.5,2.1-1.9c0.9-0.5,1.9-0.7,3.1-0.7
			c2.7,0,4.5,0.9,5.4,2.6h0.4c0.5-0.8,1.2-1.5,2.1-1.9c0.9-0.5,2-0.7,3.2-0.7c2,0,3.6,0.5,4.6,1.6c1,1,1.6,2.7,1.6,5v11.6h-4.9
			v-10.4c0-1.3-0.2-2.3-0.6-2.9c-0.4-0.6-1.1-1-2-1c-1.2,0-2.1,0.4-2.7,1.3c-0.6,0.9-0.9,2.2-0.9,4.1V199.2z"/>
		<path class="st2" d="M137.3,199.2l-0.9-2.4h-0.1c-0.8,1-1.7,1.7-2.5,2.1c-0.9,0.4-2,0.6-3.4,0.6c-1.7,0-3.1-0.5-4-1.5
			c-1-1-1.5-2.4-1.5-4.2c0-1.9,0.7-3.3,2-4.2c1.3-0.9,3.3-1.4,6-1.5l3.1-0.1v-0.8c0-1.8-0.9-2.7-2.8-2.7c-1.4,0-3.1,0.4-5,1.3
			l-1.6-3.3c2.1-1.1,4.3-1.6,6.8-1.6c2.4,0,4.2,0.5,5.5,1.6c1.3,1,1.9,2.6,1.9,4.8v11.9H137.3z M135.9,190.9L134,191
			c-1.4,0-2.5,0.3-3.2,0.8c-0.7,0.5-1,1.2-1,2.1c0,1.4,0.8,2.1,2.4,2.1c1.1,0,2-0.3,2.7-1c0.7-0.6,1-1.5,1-2.6V190.9z"/>
		<path class="st2" d="M153.3,195.6c0.9,0,1.9-0.2,3.1-0.6v3.6c-1.2,0.5-2.7,0.8-4.5,0.8c-1.9,0-3.4-0.5-4.3-1.5
			c-0.9-1-1.3-2.5-1.3-4.4V185H144v-2.1l2.7-1.6l1.4-3.8h3.1v3.8h5v3.7h-5v8.6c0,0.7,0.2,1.2,0.6,1.5
			C152.1,195.4,152.7,195.6,153.3,195.6z"/>
		<path class="st2" d="M168.1,199.5c-2.9,0-5.1-0.8-6.7-2.4c-1.6-1.6-2.4-3.8-2.4-6.7c0-3,0.7-5.3,2.2-6.9c1.5-1.6,3.6-2.5,6.2-2.5
			c2.5,0,4.5,0.7,5.9,2.2s2.1,3.4,2.1,6v2.4h-11.5c0.1,1.4,0.5,2.5,1.2,3.2c0.8,0.8,1.8,1.2,3.2,1.2c1.1,0,2.1-0.1,3.1-0.3
			c1-0.2,2-0.6,3-1.1v3.8c-0.9,0.4-1.8,0.7-2.7,1C170.6,199.4,169.5,199.5,168.1,199.5z M167.4,184.4c-1,0-1.8,0.3-2.4,1
			c-0.6,0.7-0.9,1.6-1,2.8h6.8c0-1.2-0.3-2.1-0.9-2.8S168.4,184.4,167.4,184.4z"/>
		<path class="st2" d="M185,199.5c-2.1,0-3.7-0.8-4.9-2.4c-1.2-1.6-1.8-3.9-1.8-6.8c0-2.9,0.6-5.2,1.8-6.8c1.2-1.6,2.9-2.5,5-2.5
			c2.2,0,4,0.9,5.1,2.6h0.2c-0.2-1.3-0.4-2.5-0.4-3.6v-5.7h4.9v24.9h-3.7l-0.9-2.3H190C188.9,198.6,187.2,199.5,185,199.5z
			 M186.7,195.6c1.2,0,2.2-0.4,2.7-1.1c0.6-0.7,0.9-2,1-3.7v-0.5c0-1.9-0.3-3.3-0.9-4.1s-1.6-1.2-2.9-1.2c-1.1,0-1.9,0.5-2.5,1.4
			c-0.6,0.9-0.9,2.3-0.9,4s0.3,3.1,0.9,4C184.7,195.2,185.5,195.6,186.7,195.6z"/>
		<path class="st2" d="M219.5,199.2h-4.9v-13.5l0-2.2l0.1-2.4c-0.8,0.8-1.4,1.4-1.7,1.6l-2.7,2.2l-2.4-3l7.5-6h4.1V199.2z"/>
		<path class="st2" d="M226.5,196.9c0-0.9,0.2-1.6,0.7-2c0.5-0.5,1.2-0.7,2.1-0.7c0.9,0,1.6,0.2,2.1,0.7c0.5,0.5,0.7,1.1,0.7,2
			c0,0.8-0.2,1.5-0.7,2c-0.5,0.5-1.2,0.7-2,0.7c-0.9,0-1.6-0.2-2.1-0.7C226.7,198.4,226.5,197.7,226.5,196.9z"/>
		<path class="st2" d="M243.8,184.2c2.3,0,4.1,0.6,5.4,1.9c1.3,1.3,2,3,2,5.2c0,2.6-0.8,4.6-2.4,6c-1.6,1.4-3.9,2.1-6.9,2.1
			c-2.6,0-4.7-0.4-6.3-1.3V194c0.8,0.4,1.8,0.8,2.9,1.1c1.1,0.3,2.2,0.4,3.2,0.4c3,0,4.5-1.2,4.5-3.7c0-2.4-1.6-3.5-4.7-3.5
			c-0.6,0-1.2,0.1-1.9,0.2c-0.7,0.1-1.2,0.2-1.7,0.4l-2-1.1l0.9-11.9h12.7v4.2h-8.3l-0.4,4.6l0.6-0.1
			C242,184.3,242.8,184.2,243.8,184.2z"/>
		<path class="st2" d="M264.7,182.8c0,2.4-0.5,4.3-1.4,5.5c-0.9,1.2-2.3,1.8-4.2,1.8c-1.8,0-3.1-0.6-4.1-1.9c-1-1.3-1.4-3.1-1.4-5.5
			c0-4.9,1.8-7.3,5.5-7.3c1.8,0,3.2,0.6,4.1,1.9C264.3,178.6,264.7,180.4,264.7,182.8z M257.7,182.8c0,1.4,0.1,2.4,0.4,3
			c0.2,0.7,0.6,1,1.2,1c1,0,1.5-1.3,1.5-4c0-2.7-0.5-4-1.5-4c-0.5,0-0.9,0.3-1.2,1C257.8,180.5,257.7,181.5,257.7,182.8z
			 M275.7,175.8l-13,23.4h-3.8l13-23.4H275.7z M281.1,192.1c0,2.4-0.5,4.3-1.4,5.5c-0.9,1.2-2.3,1.8-4.2,1.8c-1.8,0-3.1-0.6-4.1-1.9
			s-1.4-3.1-1.4-5.5c0-4.9,1.8-7.3,5.5-7.3c1.8,0,3.2,0.6,4.1,1.9C280.6,188,281.1,189.8,281.1,192.1z M274,192.1
			c0,1.4,0.1,2.4,0.4,3c0.2,0.7,0.6,1,1.2,1c1,0,1.5-1.3,1.5-4c0-2.7-0.5-4-1.5-4c-0.5,0-0.9,0.3-1.2,1S274,190.8,274,192.1z"/>
	</g>
	<g>
		<g>
			<path class="st2" d="M449.2,407.1c-2.8,0-4-2.3-4-5.1c0-2.8,1.2-5.1,4-5.1c2.8,0,4,2.3,4,5.1C453.2,404.8,452,407.1,449.2,407.1z
				 M449.2,397.6c-2.1,0-2.8,2.2-2.8,4.3c0,2,0.7,4.3,2.8,4.3c2.1,0,2.8-2.2,2.8-4.3C452,399.9,451.2,397.6,449.2,397.6z"/>
			<path class="st2" d="M456.7,399.9v7.1h-1.1v-7.1h-1.2v-0.7h1.2V398c0-1.4,0.8-2.4,2.5-2.4c0.1,0,0.3,0,0.3,0v0.7h-0.1
				c-0.8,0-1.5,0.5-1.5,1.6v1.3h1.6v0.7H456.7z"/>
			<path class="st2" d="M461.3,399.9v7.1h-1.1v-7.1H459v-0.7h1.2V398c0-1.4,0.8-2.4,2.5-2.4c0.1,0,0.3,0,0.3,0v0.7h-0.1
				c-0.8,0-1.5,0.5-1.5,1.6v1.3h1.6v0.7H461.3z"/>
			<path class="st2" d="M464.8,397.7c-0.4,0-0.7-0.3-0.7-0.7s0.3-0.7,0.7-0.7c0.4,0,0.7,0.3,0.7,0.7S465.2,397.7,464.8,397.7z
				 M464.2,406.9v-7.8h1.1v7.8H464.2z"/>
			<path class="st2" d="M470.2,407.1c-1.8,0-3.3-1.6-3.3-4.1c0-2.5,1.4-4.1,3.3-4.1c0.9,0,1.6,0.3,1.9,0.5l-0.3,0.7
				c-0.3-0.2-0.7-0.4-1.4-0.4c-1.6,0-2.4,1.4-2.4,3.2c0,1.9,0.9,3.3,2.3,3.3c0.6,0,1.1-0.2,1.4-0.4l0.3,0.7
				C471.8,406.9,471.1,407.1,470.2,407.1z"/>
			<path class="st2" d="M474,403.5c0.1,1.8,1.2,2.8,2.7,2.8c1,0,1.7-0.2,2.1-0.5l0.3,0.8c-0.5,0.3-1.4,0.5-2.5,0.5
				c-2.2,0-3.7-1.3-3.7-4.1c0-2.7,1.4-4,3.4-4c2,0,3.2,1.2,3.2,3.8L474,403.5z M476.2,399.7c-1.3,0-2.3,1-2.3,3.2l4.4-0.6
				C478.3,400.5,477.5,399.7,476.2,399.7z"/>
			<path class="st2" d="M484.9,399.9v7.1h-1.1v-7.1h-1.2v-0.7h1.2V398c0-1.4,0.8-2.4,2.5-2.4c0.1,0,0.3,0,0.3,0v0.7h-0.1
				c-0.8,0-1.5,0.5-1.5,1.6v1.3h1.6v0.7H484.9z"/>
			<path class="st2" d="M490.7,407.1c-2.3,0-3.3-1.8-3.3-4.1c0-2.3,1-4.1,3.3-4.1c2.3,0,3.3,1.8,3.3,4.1
				C494,405.3,493,407.1,490.7,407.1z M490.7,399.7c-1.7,0-2.2,1.7-2.2,3.3c0,1.6,0.5,3.2,2.2,3.2c1.7,0,2.2-1.6,2.2-3.2
				C492.9,401.4,492.4,399.7,490.7,399.7z"/>
			<path class="st2" d="M498.9,399.9c-0.7-0.2-1.8-0.2-2.3,0.1v6.9h-1.1v-7.4c0.8-0.3,1.6-0.5,3.1-0.5c0.2,0,0.5,0,0.6,0
				L498.9,399.9z"/>
			<path class="st2" d="M509.1,407l-4.4-6.8c-0.3-0.5-0.6-1-0.6-1h0c0,0,0,0.6,0,1.2v6.6h-1.4v-9.9h1.6l4.2,6.4c0.4,0.6,0.6,1,0.6,1
				h0c0,0-0.1-0.6-0.1-1.2v-6.3h1.5v9.9H509.1z"/>
			<path class="st2" d="M515.3,407.2c-2.3,0-3.4-0.9-3.4-2.4c0-2.1,2.2-2.7,4.8-2.9v-0.4c0-1.1-0.7-1.4-1.8-1.4
				c-0.8,0-1.6,0.2-2.1,0.4l-0.4-1c0.5-0.2,1.6-0.6,2.8-0.6c1.7,0,3,0.7,3,2.7v4.9C517.6,407,516.6,407.2,515.3,407.2z M516.7,402.7
				c-1.9,0.2-3.2,0.6-3.2,2.1c0,1.1,0.7,1.5,1.9,1.5c0.5,0,1-0.1,1.3-0.3V402.7z"/>
			<path class="st2" d="M522.8,407.2c-1.6,0-2.3-1.1-2.3-2.1v-4.8h-1.1v-1h1.1v-1.7l1.7-0.5v2.2h1.5v1h-1.5v4.7
				c0,0.6,0.4,1.1,1.1,1.1c0.2,0,0.3,0,0.5-0.1v1C523.6,407.1,523.2,407.2,522.8,407.2z"/>
			<path class="st2" d="M525.8,397.9c-0.5,0-1-0.4-1-0.9c0-0.5,0.4-0.9,1-0.9c0.5,0,1,0.4,1,0.9
				C526.8,397.5,526.4,397.9,525.8,397.9z M525,407v-7.8h1.7v7.8H525z"/>
			<path class="st2" d="M531.7,407.2c-2.4,0-3.6-1.8-3.6-4.1s1.2-4.1,3.6-4.1c2.4,0,3.5,1.8,3.5,4.1S534,407.2,531.7,407.2z
				 M531.7,400.1c-1.4,0-1.9,1.5-1.9,3c0,1.5,0.5,3,1.9,3c1.4,0,1.9-1.4,1.9-3C533.5,401.6,533.1,400.1,531.7,400.1z"/>
			<path class="st2" d="M541.4,407v-5.5c0-1-0.8-1.4-1.8-1.4c-0.5,0-1,0.1-1.3,0.2v6.7h-1.7v-7.4c0.7-0.3,1.9-0.6,3.1-0.6
				c2,0,3.4,0.7,3.4,2.4v5.6H541.4z"/>
			<path class="st2" d="M547.7,407.2c-2.3,0-3.4-0.9-3.4-2.4c0-2.1,2.2-2.7,4.8-2.9v-0.4c0-1.1-0.7-1.4-1.8-1.4
				c-0.8,0-1.6,0.2-2.1,0.4l-0.4-1c0.5-0.2,1.6-0.6,2.8-0.6c1.7,0,3,0.7,3,2.7v4.9C550,407,549,407.2,547.7,407.2z M549.1,402.7
				c-1.9,0.2-3.2,0.6-3.2,2.1c0,1.1,0.7,1.5,1.9,1.5c0.5,0,1-0.1,1.3-0.3V402.7z"/>
			<path class="st2" d="M552.4,407v-3.7v-7.6h1.7v3.8v7.5H552.4z"/>
			<path class="st2" d="M560.7,407.2c-1.2,0-2.2-0.3-2.7-0.6l0.5-1.2c0.4,0.2,1.1,0.5,1.9,0.5c1.2,0,2-0.7,2-1.7
				c0-2.2-4.1-1.3-4.1-4.4c0-1.6,1.3-2.9,3.3-2.9c1.1,0,1.9,0.3,2.4,0.6l-0.4,1.1c-0.4-0.2-1-0.5-1.7-0.5c-1.1,0-1.8,0.6-1.8,1.6
				c0,2.1,4.2,1.2,4.2,4.5C564.1,405.9,562.7,407.2,560.7,407.2z"/>
			<path class="st2" d="M568.3,407.2c-1.6,0-2.3-1.1-2.3-2.1v-4.8H565v-1h1.1v-1.7l1.7-0.5v2.2h1.5v1h-1.5v4.7
				c0,0.6,0.4,1.1,1.1,1.1c0.2,0,0.3,0,0.5-0.1v1C569.1,407.1,568.8,407.2,568.3,407.2z"/>
			<path class="st2" d="M573.5,407.2c-2.3,0-3.4-0.9-3.4-2.4c0-2.1,2.2-2.7,4.8-2.9v-0.4c0-1.1-0.7-1.4-1.8-1.4
				c-0.8,0-1.6,0.2-2.1,0.4l-0.4-1c0.5-0.2,1.6-0.6,2.8-0.6c1.7,0,3,0.7,3,2.7v4.9C575.8,407,574.8,407.2,573.5,407.2z M574.9,402.7
				c-1.9,0.2-3.2,0.6-3.2,2.1c0,1.1,0.7,1.5,1.9,1.5c0.5,0,1-0.1,1.3-0.3V402.7z"/>
			<path class="st2" d="M581,407.2c-1.6,0-2.3-1.1-2.3-2.1v-4.8h-1.1v-1h1.1v-1.7l1.7-0.5v2.2h1.5v1h-1.5v4.7c0,0.6,0.4,1.1,1.1,1.1
				c0.2,0,0.3,0,0.5-0.1v1C581.8,407.1,581.4,407.2,581,407.2z"/>
			<path class="st2" d="M584,397.9c-0.5,0-1-0.4-1-0.9c0-0.5,0.4-0.9,1-0.9c0.5,0,1,0.4,1,0.9C585,397.5,584.6,397.9,584,397.9z
				 M583.2,407v-7.8h1.7v7.8H583.2z"/>
			<path class="st2" d="M588.5,407.2c-1,0-1.9-0.3-2.3-0.6l0.4-1.1c0.3,0.2,1,0.5,1.7,0.5c0.8,0,1.5-0.5,1.5-1.2
				c0-1.8-3.4-1-3.4-3.5c0-1.2,1-2.3,2.7-2.3c1,0,1.7,0.2,2.2,0.6l-0.4,1c-0.3-0.2-0.8-0.4-1.4-0.4c-0.9,0-1.4,0.5-1.4,1.1
				c0,1.7,3.5,1,3.5,3.6C591.5,406,590.4,407.2,588.5,407.2z"/>
			<path class="st2" d="M595.8,407.2c-1.6,0-2.3-1.1-2.3-2.1v-4.8h-1.1v-1h1.1v-1.7l1.7-0.5v2.2h1.5v1h-1.5v4.7
				c0,0.6,0.4,1.1,1.1,1.1c0.2,0,0.3,0,0.5-0.1v1C596.5,407.1,596.2,407.2,595.8,407.2z"/>
			<path class="st2" d="M598.8,397.9c-0.5,0-1-0.4-1-0.9c0-0.5,0.4-0.9,1-0.9c0.5,0,1,0.4,1,0.9
				C599.8,397.5,599.3,397.9,598.8,397.9z M598,407v-7.8h1.7v7.8H598z"/>
			<path class="st2" d="M604.4,407.2c-1.9,0-3.4-1.6-3.4-4.1c0-2.6,1.5-4.1,3.4-4.1c1,0,1.6,0.3,2,0.6l-0.4,0.9
				c-0.2-0.2-0.7-0.4-1.2-0.4c-1.4,0-2.1,1.2-2.1,2.9c0,1.8,0.8,2.9,2,2.9c0.5,0,0.9-0.2,1.2-0.4l0.4,1
				C606.1,406.9,605.4,407.2,604.4,407.2z"/>
			<path class="st2" d="M609.5,407.2c-1,0-1.9-0.3-2.3-0.6l0.4-1.1c0.3,0.2,1,0.5,1.7,0.5c0.8,0,1.5-0.5,1.5-1.2
				c0-1.8-3.4-1-3.4-3.5c0-1.2,1-2.3,2.7-2.3c1,0,1.7,0.2,2.2,0.6l-0.4,1c-0.3-0.2-0.8-0.4-1.4-0.4c-0.9,0-1.4,0.5-1.4,1.1
				c0,1.7,3.5,1,3.5,3.6C612.6,406,611.4,407.2,609.5,407.2z"/>
		</g>
		<g>
			<path class="st2" d="M423.8,402.7c0.2-0.5,0.4-0.9,0.7-1.4c-0.3-0.8-0.5-1.2-0.7-2C423.8,400.7,423.8,401.6,423.8,402.7z
				 M425.4,393.1c0,0-1.5,0-1.5,1.9c0,0.1,0-0.2,0,0.3c0.1,1.8,0.7,3.5,1.3,5.1c0.9-1.4,1.7-2.2,2.9-3.3c2.5-2.1,5.4-3.4,10-4H425.4
				z"/>
			<path class="st2" d="M440.2,394.1c-5.2,0.5-8.8,2-11.3,4.2c-1.4,1.2-2.2,2.1-3.1,3.7c2,3.9,6.1,7.2,12.4,7.6l0.1,0
				c0,0,2,0.1,2-2.1L440.2,394.1C440.3,394.1,440.3,394.1,440.2,394.1z M426.8,405.2c-0.6-0.7-1.1-1.5-1.6-2.3
				c-0.6,1.1-1,2.2-1.5,3.4c0,1.9,0,3.2,0,3.2l9.6,0C430.4,408.6,428.6,407.2,426.8,405.2z"/>
		</g>
	</g>
	<g>
		<path class="st2" d="M37.2,403.3c0,0.7-0.3,1.3-0.8,1.7c-0.5,0.4-1.2,0.6-2.1,0.6c-1,0-1.7-0.1-2.2-0.4v-0.9
			c0.3,0.1,0.7,0.3,1.1,0.3s0.8,0.1,1.2,0.1c0.6,0,1.1-0.1,1.4-0.4c0.3-0.2,0.5-0.6,0.5-1c0-0.3-0.1-0.5-0.2-0.7
			c-0.1-0.2-0.3-0.3-0.6-0.5c-0.3-0.2-0.7-0.3-1.2-0.5c-0.8-0.3-1.3-0.6-1.6-1c-0.3-0.4-0.5-0.8-0.5-1.4c0-0.6,0.2-1.1,0.7-1.5
			c0.5-0.4,1.1-0.6,1.9-0.6c0.8,0,1.5,0.1,2.2,0.4l-0.3,0.8c-0.7-0.3-1.3-0.4-1.9-0.4c-0.5,0-0.9,0.1-1.2,0.3
			c-0.3,0.2-0.4,0.5-0.4,0.9c0,0.3,0.1,0.5,0.2,0.7c0.1,0.2,0.3,0.3,0.5,0.5c0.2,0.1,0.6,0.3,1.1,0.5c0.8,0.3,1.4,0.6,1.8,1
			S37.2,402.8,37.2,403.3z"/>
		<path class="st2" d="M44,402.4c0,1-0.2,1.8-0.7,2.3c-0.5,0.6-1.2,0.8-2.1,0.8c-0.5,0-1-0.1-1.4-0.4s-0.7-0.6-1-1.1
			c-0.2-0.5-0.3-1-0.3-1.7c0-1,0.2-1.8,0.7-2.3c0.5-0.6,1.2-0.8,2.1-0.8c0.8,0,1.5,0.3,2,0.8C43.7,400.7,44,401.5,44,402.4z
			 M39.3,402.4c0,0.8,0.2,1.4,0.5,1.8c0.3,0.4,0.8,0.6,1.4,0.6c0.6,0,1.1-0.2,1.4-0.6c0.3-0.4,0.5-1,0.5-1.8c0-0.8-0.2-1.4-0.5-1.8
			c-0.3-0.4-0.8-0.6-1.4-0.6c-0.6,0-1.1,0.2-1.4,0.6C39.5,401.1,39.3,401.6,39.3,402.4z"/>
		<path class="st2" d="M46.4,399.4v3.9c0,0.5,0.1,0.9,0.3,1.1c0.2,0.2,0.6,0.4,1.1,0.4c0.6,0,1.1-0.2,1.4-0.5
			c0.3-0.3,0.4-0.9,0.4-1.7v-3.2h0.9v6.1h-0.8l-0.1-0.8h0c-0.2,0.3-0.4,0.5-0.8,0.7c-0.3,0.2-0.7,0.2-1.1,0.2
			c-0.7,0-1.3-0.2-1.7-0.5s-0.6-0.9-0.6-1.7v-4H46.4z"/>
		<path class="st2" d="M55.3,399.3c0.3,0,0.5,0,0.7,0.1l-0.1,0.9c-0.3-0.1-0.5-0.1-0.7-0.1c-0.5,0-0.9,0.2-1.3,0.6
			c-0.3,0.4-0.5,0.9-0.5,1.5v3.3h-0.9v-6.1h0.8l0.1,1.1h0c0.2-0.4,0.5-0.7,0.8-0.9C54.6,399.4,54.9,399.3,55.3,399.3z"/>
		<path class="st2" d="M59.6,405.6c-0.9,0-1.6-0.3-2-0.8c-0.5-0.5-0.7-1.3-0.7-2.3c0-1,0.2-1.8,0.7-2.4c0.5-0.6,1.2-0.8,2.1-0.8
			c0.3,0,0.6,0,0.9,0.1c0.3,0.1,0.5,0.1,0.7,0.2l-0.3,0.8c-0.2-0.1-0.4-0.1-0.7-0.2c-0.2-0.1-0.5-0.1-0.6-0.1
			c-1.2,0-1.8,0.8-1.8,2.4c0,0.7,0.2,1.3,0.5,1.7c0.3,0.4,0.7,0.6,1.3,0.6c0.5,0,1-0.1,1.6-0.3v0.8
			C60.7,405.5,60.2,405.6,59.6,405.6z"/>
		<path class="st2" d="M65.1,405.6c-0.9,0-1.6-0.3-2.1-0.8s-0.8-1.3-0.8-2.3c0-1,0.2-1.8,0.7-2.3c0.5-0.6,1.1-0.9,1.9-0.9
			c0.8,0,1.4,0.2,1.8,0.7c0.4,0.5,0.7,1.2,0.7,2v0.6h-4.2c0,0.7,0.2,1.3,0.5,1.6c0.3,0.4,0.8,0.6,1.4,0.6c0.7,0,1.3-0.1,1.9-0.4v0.8
			c-0.3,0.1-0.6,0.2-0.9,0.3C65.9,405.5,65.5,405.6,65.1,405.6z M64.8,400.1c-0.5,0-0.9,0.2-1.2,0.5c-0.3,0.3-0.5,0.8-0.5,1.3h3.2
			c0-0.6-0.1-1-0.4-1.3C65.7,400.2,65.3,400.1,64.8,400.1z"/>
		<path class="st2" d="M68.8,400c0-0.5,0.2-0.7,0.7-0.7c0.5,0,0.7,0.2,0.7,0.7c0,0.2-0.1,0.4-0.2,0.6c-0.1,0.1-0.3,0.2-0.5,0.2
			c-0.2,0-0.3-0.1-0.5-0.2C68.8,400.5,68.8,400.3,68.8,400z M68.8,404.9c0-0.2,0.1-0.4,0.2-0.6c0.1-0.1,0.3-0.2,0.5-0.2
			c0.2,0,0.4,0.1,0.5,0.2c0.1,0.1,0.2,0.3,0.2,0.6c0,0.2-0.1,0.4-0.2,0.6c-0.1,0.1-0.3,0.2-0.5,0.2c-0.2,0-0.3-0.1-0.5-0.2
			C68.8,405.3,68.8,405.1,68.8,404.9z"/>
		<path class="st2" d="M75.9,402.1v3.4H75v-8.1h2.2c1,0,1.7,0.2,2.2,0.6c0.5,0.4,0.7,1,0.7,1.7c0,1.1-0.5,1.8-1.6,2.2l2.2,3.6h-1.1
			l-2-3.4H75.9z M75.9,401.3h1.3c0.7,0,1.2-0.1,1.5-0.4c0.3-0.3,0.5-0.7,0.5-1.2c0-0.5-0.2-0.9-0.5-1.2c-0.3-0.2-0.8-0.4-1.5-0.4
			h-1.2V401.3z"/>
		<path class="st2" d="M84.4,405.6c-0.9,0-1.6-0.3-2.1-0.8c-0.5-0.5-0.8-1.3-0.8-2.3c0-1,0.2-1.8,0.7-2.3c0.5-0.6,1.1-0.9,1.9-0.9
			c0.8,0,1.4,0.2,1.8,0.7c0.4,0.5,0.7,1.2,0.7,2v0.6h-4.2c0,0.7,0.2,1.3,0.5,1.6s0.8,0.6,1.4,0.6c0.7,0,1.3-0.1,1.9-0.4v0.8
			c-0.3,0.1-0.6,0.2-0.9,0.3C85.2,405.5,84.8,405.6,84.4,405.6z M84.2,400.1c-0.5,0-0.9,0.2-1.2,0.5c-0.3,0.3-0.5,0.8-0.5,1.3h3.2
			c0-0.6-0.1-1-0.4-1.3C85,400.2,84.6,400.1,84.2,400.1z"/>
		<path class="st2" d="M90.2,404.8c0.2,0,0.3,0,0.5,0c0.2,0,0.3,0,0.4-0.1v0.7c-0.1,0-0.2,0.1-0.4,0.1c-0.2,0-0.4,0-0.5,0
			c-1.2,0-1.8-0.6-1.8-1.9v-3.6h-0.9v-0.4l0.9-0.4l0.4-1.3h0.5v1.4h1.8v0.7h-1.8v3.6c0,0.4,0.1,0.6,0.3,0.8
			C89.6,404.7,89.9,404.8,90.2,404.8z"/>
		<path class="st2" d="M95.9,405.5l-0.2-0.9h0c-0.3,0.4-0.6,0.6-0.9,0.8c-0.3,0.1-0.7,0.2-1.1,0.2c-0.6,0-1.1-0.2-1.4-0.5
			s-0.5-0.8-0.5-1.3c0-1.2,1-1.9,2.9-1.9l1,0v-0.4c0-0.5-0.1-0.8-0.3-1.1c-0.2-0.2-0.5-0.3-1-0.3c-0.5,0-1.1,0.2-1.7,0.5l-0.3-0.7
			c0.3-0.2,0.6-0.3,1-0.4c0.4-0.1,0.7-0.1,1.1-0.1c0.7,0,1.3,0.2,1.6,0.5c0.3,0.3,0.5,0.8,0.5,1.5v4.1H95.9z M93.9,404.8
			c0.6,0,1-0.2,1.3-0.5s0.5-0.8,0.5-1.3v-0.5l-0.9,0c-0.7,0-1.3,0.1-1.6,0.3c-0.3,0.2-0.5,0.5-0.5,0.9c0,0.3,0.1,0.6,0.3,0.8
			C93.2,404.7,93.5,404.8,93.9,404.8z"/>
		<path class="st2" d="M98.4,397.8c0-0.2,0.1-0.4,0.2-0.5c0.1-0.1,0.2-0.1,0.4-0.1c0.1,0,0.3,0,0.4,0.1s0.2,0.3,0.2,0.5
			c0,0.2-0.1,0.4-0.2,0.5c-0.1,0.1-0.2,0.2-0.4,0.2c-0.2,0-0.3-0.1-0.4-0.2C98.5,398.1,98.4,398,98.4,397.8z M99.4,405.5h-0.9v-6.1
			h0.9V405.5z"/>
		<path class="st2" d="M102.3,405.5h-0.9v-8.6h0.9V405.5z"/>
		<path class="st2" d="M111.1,403.8c0,0.6-0.2,1-0.6,1.3c-0.4,0.3-1,0.5-1.8,0.5c-0.8,0-1.4-0.1-1.9-0.4v-0.9
			c0.3,0.1,0.6,0.3,0.9,0.3c0.3,0.1,0.7,0.1,1,0.1c0.5,0,0.8-0.1,1.1-0.2c0.3-0.2,0.4-0.4,0.4-0.7c0-0.2-0.1-0.4-0.3-0.6
			c-0.2-0.2-0.6-0.4-1.2-0.6c-0.6-0.2-1-0.4-1.2-0.6c-0.2-0.2-0.4-0.3-0.5-0.5s-0.2-0.4-0.2-0.7c0-0.5,0.2-0.9,0.6-1.2
			c0.4-0.3,1-0.4,1.7-0.4c0.7,0,1.3,0.1,1.9,0.4l-0.3,0.7c-0.6-0.3-1.2-0.4-1.7-0.4c-0.4,0-0.8,0.1-1,0.2c-0.2,0.1-0.3,0.3-0.3,0.6
			c0,0.2,0,0.3,0.1,0.4s0.2,0.2,0.4,0.3c0.2,0.1,0.5,0.3,1.1,0.4c0.7,0.3,1.2,0.5,1.5,0.8S111.1,403.4,111.1,403.8z"/>
		<path class="st2" d="M116.3,405.5l-0.2-0.9h0c-0.3,0.4-0.6,0.6-0.9,0.8c-0.3,0.1-0.7,0.2-1.1,0.2c-0.6,0-1.1-0.2-1.4-0.5
			s-0.5-0.8-0.5-1.3c0-1.2,1-1.9,2.9-1.9l1,0v-0.4c0-0.5-0.1-0.8-0.3-1.1c-0.2-0.2-0.5-0.3-1-0.3c-0.5,0-1.1,0.2-1.7,0.5l-0.3-0.7
			c0.3-0.2,0.6-0.3,1-0.4c0.4-0.1,0.7-0.1,1.1-0.1c0.7,0,1.3,0.2,1.6,0.5c0.3,0.3,0.5,0.8,0.5,1.5v4.1H116.3z M114.2,404.8
			c0.6,0,1-0.2,1.3-0.5s0.5-0.8,0.5-1.3v-0.5l-0.9,0c-0.7,0-1.3,0.1-1.6,0.3c-0.3,0.2-0.5,0.5-0.5,0.9c0,0.3,0.1,0.6,0.3,0.8
			C113.6,404.7,113.9,404.8,114.2,404.8z"/>
		<path class="st2" d="M119.8,405.5h-0.9v-8.6h0.9V405.5z"/>
		<path class="st2" d="M124.3,405.6c-0.9,0-1.6-0.3-2.1-0.8s-0.8-1.3-0.8-2.3c0-1,0.2-1.8,0.7-2.3c0.5-0.6,1.1-0.9,1.9-0.9
			c0.8,0,1.4,0.2,1.8,0.7c0.4,0.5,0.7,1.2,0.7,2v0.6h-4.2c0,0.7,0.2,1.3,0.5,1.6s0.8,0.6,1.4,0.6c0.7,0,1.3-0.1,1.9-0.4v0.8
			c-0.3,0.1-0.6,0.2-0.9,0.3C125.1,405.5,124.7,405.6,124.3,405.6z M124,400.1c-0.5,0-0.9,0.2-1.2,0.5c-0.3,0.3-0.5,0.8-0.5,1.3h3.2
			c0-0.6-0.1-1-0.4-1.3C124.9,400.2,124.5,400.1,124,400.1z"/>
		<path class="st2" d="M132,403.8c0,0.6-0.2,1-0.6,1.3s-1,0.5-1.8,0.5c-0.8,0-1.4-0.1-1.9-0.4v-0.9c0.3,0.1,0.6,0.3,0.9,0.3
			c0.3,0.1,0.7,0.1,1,0.1c0.5,0,0.8-0.1,1.1-0.2c0.3-0.2,0.4-0.4,0.4-0.7c0-0.2-0.1-0.4-0.3-0.6c-0.2-0.2-0.6-0.4-1.2-0.6
			c-0.6-0.2-1-0.4-1.2-0.6c-0.2-0.2-0.4-0.3-0.5-0.5c-0.1-0.2-0.2-0.4-0.2-0.7c0-0.5,0.2-0.9,0.6-1.2c0.4-0.3,1-0.4,1.7-0.4
			c0.7,0,1.3,0.1,1.9,0.4l-0.3,0.7c-0.6-0.3-1.2-0.4-1.7-0.4c-0.4,0-0.8,0.1-1,0.2s-0.3,0.3-0.3,0.6c0,0.2,0,0.3,0.1,0.4
			s0.2,0.2,0.4,0.3c0.2,0.1,0.5,0.3,1.1,0.4c0.7,0.3,1.2,0.5,1.5,0.8S132,403.4,132,403.8z"/>
		<path class="st2" d="M136.4,397.8c0-0.2,0.1-0.4,0.2-0.5c0.1-0.1,0.2-0.1,0.4-0.1c0.1,0,0.3,0,0.4,0.1s0.2,0.3,0.2,0.5
			c0,0.2-0.1,0.4-0.2,0.5c-0.1,0.1-0.2,0.2-0.4,0.2c-0.2,0-0.3-0.1-0.4-0.2C136.4,398.1,136.4,398,136.4,397.8z M137.4,405.5h-0.9
			v-6.1h0.9V405.5z"/>
		<path class="st2" d="M143.4,405.5v-3.9c0-0.5-0.1-0.9-0.3-1.1c-0.2-0.2-0.6-0.4-1.1-0.4c-0.6,0-1.1,0.2-1.4,0.5
			c-0.3,0.3-0.4,0.9-0.4,1.7v3.2h-0.9v-6.1h0.7l0.1,0.8h0c0.2-0.3,0.5-0.5,0.8-0.7c0.3-0.2,0.7-0.2,1.1-0.2c0.7,0,1.3,0.2,1.6,0.5
			c0.4,0.4,0.6,0.9,0.6,1.7v4H143.4z"/>
		<path class="st2" d="M152.9,401.2h2.7v3.9c-0.4,0.1-0.9,0.2-1.3,0.3c-0.4,0.1-1,0.1-1.5,0.1c-1.2,0-2.2-0.4-2.9-1.1
			c-0.7-0.7-1-1.7-1-3.1c0-0.8,0.2-1.6,0.5-2.2c0.3-0.6,0.8-1.1,1.5-1.4c0.6-0.3,1.4-0.5,2.2-0.5c0.9,0,1.7,0.2,2.4,0.5l-0.4,0.8
			c-0.7-0.3-1.4-0.5-2.1-0.5c-1,0-1.8,0.3-2.3,0.9s-0.8,1.4-0.8,2.4c0,1.1,0.3,1.9,0.8,2.5c0.5,0.6,1.3,0.8,2.3,0.8
			c0.6,0,1.1-0.1,1.6-0.2v-2.5h-1.8V401.2z"/>
		<path class="st2" d="M160.2,399.3c0.3,0,0.5,0,0.7,0.1l-0.1,0.9c-0.3-0.1-0.5-0.1-0.7-0.1c-0.5,0-0.9,0.2-1.3,0.6
			c-0.3,0.4-0.5,0.9-0.5,1.5v3.3h-0.9v-6.1h0.8l0.1,1.1h0c0.2-0.4,0.5-0.7,0.8-0.9C159.5,399.4,159.8,399.3,160.2,399.3z"/>
		<path class="st2" d="M164.6,405.6c-0.9,0-1.6-0.3-2.1-0.8c-0.5-0.5-0.8-1.3-0.8-2.3c0-1,0.2-1.8,0.7-2.3c0.5-0.6,1.1-0.9,1.9-0.9
			c0.8,0,1.4,0.2,1.8,0.7c0.4,0.5,0.7,1.2,0.7,2v0.6h-4.2c0,0.7,0.2,1.3,0.5,1.6s0.8,0.6,1.4,0.6c0.7,0,1.3-0.1,1.9-0.4v0.8
			c-0.3,0.1-0.6,0.2-0.9,0.3C165.4,405.5,165,405.6,164.6,405.6z M164.4,400.1c-0.5,0-0.9,0.2-1.2,0.5c-0.3,0.3-0.5,0.8-0.5,1.3h3.2
			c0-0.6-0.1-1-0.4-1.3C165.2,400.2,164.9,400.1,164.4,400.1z"/>
		<path class="st2" d="M172.1,405.5l-0.2-0.9h0c-0.3,0.4-0.6,0.6-0.9,0.8c-0.3,0.1-0.7,0.2-1.1,0.2c-0.6,0-1.1-0.2-1.4-0.5
			s-0.5-0.8-0.5-1.3c0-1.2,1-1.9,2.9-1.9l1,0v-0.4c0-0.5-0.1-0.8-0.3-1.1c-0.2-0.2-0.5-0.3-1-0.3c-0.5,0-1.1,0.2-1.7,0.5l-0.3-0.7
			c0.3-0.2,0.6-0.3,1-0.4c0.4-0.1,0.7-0.1,1.1-0.1c0.7,0,1.3,0.2,1.6,0.5c0.3,0.3,0.5,0.8,0.5,1.5v4.1H172.1z M170.1,404.8
			c0.6,0,1-0.2,1.3-0.5c0.3-0.3,0.5-0.8,0.5-1.3v-0.5l-0.9,0c-0.7,0-1.3,0.1-1.6,0.3c-0.3,0.2-0.5,0.5-0.5,0.9
			c0,0.3,0.1,0.6,0.3,0.8S169.7,404.8,170.1,404.8z"/>
		<path class="st2" d="M176.7,404.8c0.2,0,0.3,0,0.5,0c0.2,0,0.3,0,0.4-0.1v0.7c-0.1,0-0.2,0.1-0.4,0.1c-0.2,0-0.4,0-0.5,0
			c-1.2,0-1.8-0.6-1.8-1.9v-3.6h-0.9v-0.4l0.9-0.4l0.4-1.3h0.5v1.4h1.8v0.7h-1.8v3.6c0,0.4,0.1,0.6,0.3,0.8S176.4,404.8,176.7,404.8
			z"/>
		<path class="st2" d="M181.8,397.4h2.3c1.1,0,1.8,0.2,2.3,0.5s0.7,0.8,0.7,1.5c0,0.5-0.1,0.9-0.4,1.2c-0.3,0.3-0.7,0.5-1.2,0.6v0.1
			c1.2,0.2,1.8,0.9,1.8,1.9c0,0.7-0.2,1.3-0.7,1.7s-1.2,0.6-2,0.6h-2.8V397.4z M182.7,400.8h1.5c0.7,0,1.1-0.1,1.4-0.3
			c0.3-0.2,0.4-0.6,0.4-1.1c0-0.5-0.2-0.8-0.5-1c-0.3-0.2-0.8-0.3-1.5-0.3h-1.4V400.8z M182.7,401.6v3h1.7c0.7,0,1.1-0.1,1.5-0.4
			c0.3-0.3,0.5-0.6,0.5-1.2c0-0.5-0.2-0.9-0.5-1.1s-0.9-0.4-1.5-0.4H182.7z"/>
		<path class="st2" d="M191.8,399.3c0.3,0,0.5,0,0.7,0.1l-0.1,0.9c-0.3-0.1-0.5-0.1-0.7-0.1c-0.5,0-0.9,0.2-1.3,0.6
			c-0.3,0.4-0.5,0.9-0.5,1.5v3.3H189v-6.1h0.8l0.1,1.1h0c0.2-0.4,0.5-0.7,0.8-0.9C191,399.4,191.4,399.3,191.8,399.3z"/>
		<path class="st2" d="M193.5,397.8c0-0.2,0.1-0.4,0.2-0.5c0.1-0.1,0.2-0.1,0.4-0.1c0.1,0,0.3,0,0.4,0.1s0.2,0.3,0.2,0.5
			c0,0.2-0.1,0.4-0.2,0.5c-0.1,0.1-0.2,0.2-0.4,0.2c-0.2,0-0.3-0.1-0.4-0.2C193.6,398.1,193.5,398,193.5,397.8z M194.5,405.5h-0.9
			v-6.1h0.9V405.5z"/>
		<path class="st2" d="M198.4,404.8c0.2,0,0.3,0,0.5,0c0.2,0,0.3,0,0.4-0.1v0.7c-0.1,0-0.2,0.1-0.4,0.1c-0.2,0-0.4,0-0.5,0
			c-1.2,0-1.8-0.6-1.8-1.9v-3.6h-0.9v-0.4l0.9-0.4l0.4-1.3h0.5v1.4h1.8v0.7h-1.8v3.6c0,0.4,0.1,0.6,0.3,0.8S198.1,404.8,198.4,404.8
			z"/>
		<path class="st2" d="M204.2,405.5l-0.2-0.9h0c-0.3,0.4-0.6,0.6-0.9,0.8c-0.3,0.1-0.7,0.2-1.1,0.2c-0.6,0-1.1-0.2-1.4-0.5
			s-0.5-0.8-0.5-1.3c0-1.2,1-1.9,2.9-1.9l1,0v-0.4c0-0.5-0.1-0.8-0.3-1.1c-0.2-0.2-0.5-0.3-1-0.3c-0.5,0-1.1,0.2-1.7,0.5l-0.3-0.7
			c0.3-0.2,0.6-0.3,1-0.4c0.4-0.1,0.7-0.1,1.1-0.1c0.7,0,1.3,0.2,1.6,0.5c0.3,0.3,0.5,0.8,0.5,1.5v4.1H204.2z M202.1,404.8
			c0.6,0,1-0.2,1.3-0.5c0.3-0.3,0.5-0.8,0.5-1.3v-0.5l-0.9,0c-0.7,0-1.3,0.1-1.6,0.3c-0.3,0.2-0.5,0.5-0.5,0.9
			c0,0.3,0.1,0.6,0.3,0.8C201.5,404.7,201.8,404.8,202.1,404.8z"/>
		<path class="st2" d="M206.7,397.8c0-0.2,0.1-0.4,0.2-0.5c0.1-0.1,0.2-0.1,0.4-0.1c0.1,0,0.3,0,0.4,0.1s0.2,0.3,0.2,0.5
			c0,0.2-0.1,0.4-0.2,0.5c-0.1,0.1-0.2,0.2-0.4,0.2c-0.2,0-0.3-0.1-0.4-0.2C206.8,398.1,206.7,398,206.7,397.8z M207.7,405.5h-0.9
			v-6.1h0.9V405.5z"/>
		<path class="st2" d="M213.8,405.5v-3.9c0-0.5-0.1-0.9-0.3-1.1c-0.2-0.2-0.6-0.4-1.1-0.4c-0.6,0-1.1,0.2-1.4,0.5
			c-0.3,0.3-0.4,0.9-0.4,1.7v3.2h-0.9v-6.1h0.7l0.1,0.8h0c0.2-0.3,0.5-0.5,0.8-0.7c0.3-0.2,0.7-0.2,1.1-0.2c0.7,0,1.3,0.2,1.6,0.5
			c0.4,0.4,0.6,0.9,0.6,1.7v4H213.8z"/>
		<path class="st2" d="M217.6,404.1l0.1,0.1c-0.1,0.4-0.2,0.8-0.4,1.3c-0.2,0.5-0.4,0.9-0.6,1.4H216c0.1-0.4,0.2-0.9,0.3-1.4
			c0.1-0.6,0.2-1,0.3-1.4H217.6z"/>
		<path class="st2" d="M221.3,407.6c-0.3,0-0.6,0-0.8-0.1v-0.8c0.3,0.1,0.5,0.1,0.8,0.1c0.4,0,0.6-0.1,0.8-0.3
			c0.2-0.2,0.3-0.5,0.3-1v-8.1h0.9v8c0,0.7-0.2,1.2-0.5,1.6C222.4,407.4,221.9,407.6,221.3,407.6z"/>
		<path class="st2" d="M226.2,399.4v3.9c0,0.5,0.1,0.9,0.3,1.1c0.2,0.2,0.6,0.4,1.1,0.4c0.6,0,1.1-0.2,1.4-0.5
			c0.3-0.3,0.4-0.9,0.4-1.7v-3.2h0.9v6.1h-0.8l-0.1-0.8h0c-0.2,0.3-0.4,0.5-0.8,0.7c-0.3,0.2-0.7,0.2-1.1,0.2
			c-0.7,0-1.3-0.2-1.7-0.5c-0.4-0.4-0.6-0.9-0.6-1.7v-4H226.2z"/>
		<path class="st2" d="M236.4,405.5v-3.9c0-0.5-0.1-0.9-0.3-1.1c-0.2-0.2-0.6-0.4-1.1-0.4c-0.6,0-1.1,0.2-1.4,0.5
			c-0.3,0.3-0.4,0.9-0.4,1.7v3.2h-0.9v-6.1h0.7l0.1,0.8h0c0.2-0.3,0.5-0.5,0.8-0.7c0.3-0.2,0.7-0.2,1.1-0.2c0.7,0,1.3,0.2,1.6,0.5
			c0.4,0.4,0.6,0.9,0.6,1.7v4H236.4z"/>
		<path class="st2" d="M241.8,405.6c-0.9,0-1.6-0.3-2.1-0.8s-0.8-1.3-0.8-2.3c0-1,0.2-1.8,0.7-2.3c0.5-0.6,1.1-0.9,1.9-0.9
			c0.8,0,1.4,0.2,1.8,0.7c0.4,0.5,0.7,1.2,0.7,2v0.6h-4.2c0,0.7,0.2,1.3,0.5,1.6s0.8,0.6,1.4,0.6c0.7,0,1.3-0.1,1.9-0.4v0.8
			c-0.3,0.1-0.6,0.2-0.9,0.3C242.6,405.5,242.2,405.6,241.8,405.6z M241.6,400.1c-0.5,0-0.9,0.2-1.2,0.5c-0.3,0.3-0.5,0.8-0.5,1.3
			h3.2c0-0.6-0.1-1-0.4-1.3C242.4,400.2,242,400.1,241.6,400.1z"/>
		<path class="st2" d="M253.4,405.5h-5.3v-0.8l2.1-2.1c0.6-0.7,1.1-1.1,1.3-1.4c0.2-0.3,0.4-0.6,0.5-0.8c0.1-0.3,0.2-0.6,0.2-0.9
			c0-0.4-0.1-0.8-0.4-1c-0.3-0.3-0.6-0.4-1.1-0.4c-0.3,0-0.7,0.1-1,0.2c-0.3,0.1-0.6,0.3-1,0.6l-0.5-0.6c0.7-0.6,1.6-0.9,2.4-0.9
			c0.8,0,1.4,0.2,1.8,0.6c0.4,0.4,0.6,0.9,0.6,1.6c0,0.5-0.1,1-0.4,1.5c-0.3,0.5-0.8,1.1-1.6,1.9l-1.8,1.7v0h4.2V405.5z"/>
		<path class="st2" d="M260,401.4c0,1.4-0.2,2.4-0.7,3.1c-0.4,0.7-1.1,1-2,1c-0.9,0-1.5-0.4-2-1.1c-0.5-0.7-0.7-1.7-0.7-3.1
			c0-1.4,0.2-2.5,0.7-3.1c0.4-0.7,1.1-1,2-1c0.9,0,1.5,0.4,2,1.1C259.7,399,260,400.1,260,401.4z M255.5,401.4c0,1.2,0.1,2,0.4,2.6
			c0.3,0.5,0.7,0.8,1.3,0.8c0.6,0,1.1-0.3,1.3-0.8c0.3-0.5,0.4-1.4,0.4-2.6c0-1.2-0.1-2-0.4-2.6c-0.3-0.5-0.7-0.8-1.3-0.8
			c-0.6,0-1,0.3-1.3,0.8C255.7,399.4,255.5,400.2,255.5,401.4z"/>
		<path class="st2" d="M264.5,405.5h-0.9v-5.8c0-0.5,0-0.9,0-1.4c-0.1,0.1-0.2,0.2-0.3,0.2c-0.1,0.1-0.5,0.4-1.3,1.1l-0.5-0.6
			l2.1-1.7h0.8V405.5z"/>
		<path class="st2" d="M268.6,405.5l3.4-7.2h-4.4v-0.8h5.4v0.7l-3.3,7.3H268.6z"/>
	</g>
</g>
<rect y="393.2" class="st3" width="644.4" height="31.5"/>
<text transform="matrix(1 0 0 1 712.9199 146.0864)" class="st4 st5 st6">h1</text>
<text transform="matrix(1 0 0 1 712.9199 167.6864)" class="st4 st7 st6">Open Sans bold 52px</text>
<text transform="matrix(1 0 0 1 712.9199 233.9961)" class="st4 st5 st6">h4</text>
<text transform="matrix(1 0 0 1 712.9199 255.5962)" class="st4 st7 st6">Open Sans semibold 26px</text>
<polygon class="st8" points="644.4,64 644.3,64 644.3,63.9 612.8,63.9 612.8,64 31.5,64 31.5,63.9 0.1,63.9 0.1,64 0,64 0,95.4 
	0.1,95.4 0.1,424.6 31.5,424.6 31.5,95.4 612.8,95.4 612.8,424.6 644.3,424.6 644.3,95.4 644.4,95.4 "/>
<line class="st9" x1="704" y1="151.4" x2="251.2" y2="151.4"/>
<circle class="st10" cx="251.9" cy="151.4" r="3.7"/>
<line class="st9" x1="704" y1="239.3" x2="267.6" y2="239.3"/>
<circle class="st10" cx="267.6" cy="239.3" r="3.7"/>
<text transform="matrix(1 0 0 1 712.7939 459.418)" class="st4 st5 st6">Source text</text>
<text transform="matrix(1 0 0 1 712.7939 481.018)" class="st4 st7 st6">Open Sans Regular 18px</text>
<polyline class="st9" points="705,464.5 164.5,464.5 164.5,412.9 "/>
<circle class="st10" cx="164.3" cy="412.4" r="3.7"/>
<polyline class="st9" points="332.8,121 332.8,20.7 704,20.7 "/>
<circle class="st10" cx="332.6" cy="121" r="3.7"/>
<text transform="matrix(1 0 0 1 712.9199 397.4629)" class="st4 st5 st6">ONS logo</text>
<text transform="matrix(1 0 0 1 712.9199 419.0629)" class="st4 st7 st6">300px wide</text>
<line class="st9" x1="705" y1="402.9" x2="621.1" y2="402.9"/>
<circle class="st10" cx="620.6" cy="402.9" r="3.7"/>
<text transform="matrix(1 0 0 1 712.9199 78.5864)" class="st4 st5 st6">Margin</text>
<text transform="matrix(1 0 0 1 712.9199 100.1864)" class="st4 st7 st6">50px</text>
<text transform="matrix(1 0 0 1 712.9199 16.6666)" class="st4 st5 st6">Image size</text>
<text transform="matrix(1 0 0 1 712.9199 38.2666)" class="st4 st7 st6">1024px x 573px</text>
<line class="st9" x1="705" y1="80.9" x2="476.2" y2="80.9"/>
<circle class="st10" cx="475.7" cy="80.9" r="3.7"/>
</svg>
