<?xml version="1.0" encoding="utf-8"?>
<!-- Generator: Adobe Illustrator 21.0.2, SVG Export Plug-In . SVG Version: 6.00 Build 0)  -->
<svg version="1.1" id="Layer_1" xmlns="http://www.w3.org/2000/svg" xmlns:xlink="http://www.w3.org/1999/xlink" x="0px" y="0px"
	 viewBox="0 0 944 360.7" style="enable-background:new 0 0 944 360.7;" xml:space="preserve">
<style type="text/css">
	.st0{fill:#414042;}
	.st1{font-family:'OpenSans';}
	.st2{font-size:18px;}
	.st3{font-family:'OpenSans-Semibold';}
	.st4{fill:#5F7682;}
	.st5{fill:#A8BD3A;}
	.st6{fill:#003C57;}
	.st7{fill:#00A7A3;}
	.st8{fill:#FFFFFF;}
	.st9{fill:#36ADD9;}
	.st10{fill:none;}
	.st11{clip-path:url(#SVGID_2_);}
	.st12{opacity:0.3;fill:#FFFFFF;enable-background:new    ;}
	.st13{opacity:0.25;fill:#FFFFFF;enable-background:new    ;}
	.st14{fill:#FFFFFF;stroke:#414042;stroke-miterlimit:10;}
</style>
<text transform="matrix(1 0 0 1 712.9199 45.8001)" class="st0 st1 st2">Big number</text>
<text transform="matrix(1 0 0 1 712.9199 67.4001)" class="st0 st3 st2">Open Sans bold 88px</text>
<g>
	<rect class="st4" width="644.2" height="360.5"/>
</g>
<circle class="st5" cx="484.3" cy="83.7" r="42.8"/>
<g>
	<circle class="st6" cx="383.5" cy="83.7" r="42.8"/>
</g>
<circle class="st7" cx="433.5" cy="168.7" r="42.8"/>
<g>
	<circle class="st6" cx="534.5" cy="168.7" r="42.8"/>
</g>
<g>
	<circle class="st5" cx="501.1" cy="92.6" r="9.2"/>
	<circle class="st5" cx="461.5" cy="95.7" r="6.7"/>
	<g>
		<path class="st8" d="M488.8,92.6c0-6.8,5.5-12.3,12.3-12.3s12.3,5.5,12.3,12.3s-5.5,12.3-12.3,12.3S488.8,99.4,488.8,92.6z
			 M493.9,92.6c0,4,3.3,7.3,7.3,7.3s7.3-3.3,7.3-7.3s-3.3-7.3-7.3-7.3C497.1,85.3,493.9,88.6,493.9,92.6z"/>
		<path class="st8" d="M452.9,96.2c0-4.9,4-8.9,8.9-8.9s8.9,4,8.9,8.9s-4,8.9-8.9,8.9S452.9,101.1,452.9,96.2z M456.6,96.2
			c0,2.9,2.3,5.2,5.2,5.2c2.9,0,5.2-2.3,5.2-5.2c0-2.9-2.3-5.2-5.2-5.2S456.6,93.3,456.6,96.2z"/>
		<path class="st8" d="M456.2,86.2c1.7-0.9,3.6-1.5,5.6-1.5c6.3,0,11.5,4.4,11.5,10.7c0,0.2,0,0.4,0,0.6h13.2
			c-0.4-1.4-0.6-2.8-0.6-4.3c0-8.2,6.7-14.9,14.9-14.9c3.8,0,7.3,1.4,9.9,3.8c0.8,0.8,1.6,1.8,2.4,3c0.3,0.4,0.8,0.7,1.3,0.7
			c0.3,0,0.6-0.1,0.8-0.2c0.7-0.5,1.2-1.7,0.8-2.4c-2.2-3.3-4.7-5.4-6.4-6.4l-0.8-4.5l-1.3-6.6h1.3c1.1,0,2-0.9,2-2s-0.9-2-2-2
			h-24.4c-1.1,0-2,0.9-2,2s0.9,2,2,2h1.1l-1.6,9.2l-6.1,1.1l0.1-8.3c0-0.1,0-1.6-1.1-2.7c-0.9-0.9-2-1.3-3.6-1.3
			c-0.8,0-1.5,0.7-1.5,1.5c0,0.8,0.7,1.5,1.5,1.5c1.4,0,1.7,0.6,1.7,1.1l-0.1,8.9l-16.9,4.3C457.6,79.4,456,79.6,456.2,86.2z
			 M487.3,78.8c0.5-5.4,1.2-12.1,1.6-14h14.7l1.8,8.9c-2-0.5-2.8-0.5-4.7-0.5c-3.8,0-7.8,1.3-10.9,3.6
			C488.7,77.5,487.9,78.2,487.3,78.8z"/>
	</g>
</g>
<circle class="st9" cx="585.9" cy="83.7" r="42.8"/>
<g>
	<circle class="st6" cx="484.3" cy="253.6" r="42.8"/>
</g>
<circle class="st7" cx="585.9" cy="253.6" r="42.8"/>
<g>
	<g>
		<g>
			<path class="st8" d="M402.2,88.3h-0.3c0.4-0.2,0.7-0.4,1-0.7l27.8-27.8v21.4c0.4,0,0.7-0.1,1.1-0.1s0.8,0,1.2,0.1v-25l0,0
				c0-0.9-0.2-1.7-0.9-2.3l-4.5-4.5c-1.2-1.2-3.3-1.2-4.6,0.1l-29.2,29.2c-0.7,0.7-1.1,1.7-1,2.7h-24.6v6.9H366
				c-4.7,0-8.5,3.8-8.5,8.5v2.5c0,4.7,3.8,8.5,8.5,8.5h36c4.7,0,8.5-3.8,8.5-8.5v-2.5C410.6,92.1,406.8,88.3,402.2,88.3z M429,54.1
				l1.5,1.5c0.3,0.3,0.3,0.9-0.1,1.3l-1.4,1.4V54.1z M401.2,86c-0.4,0.4-0.9,0.4-1.2,0.2v-2.5h3.6L401.2,86z M424.7,51.2
				c0.4-0.4,1-0.5,1.3-0.1l0.7,0.7v8.7l-5.6-5.6L424.7,51.2z M419.4,56.5l5.7,5.7l-0.1,0.1h-11.3L419.4,56.5z M411.4,64.5h11.3
				l-5.7,5.7L411.4,64.5L411.4,64.5z M409.8,66.2l5.6,5.6l-5.6,5.6V66.2z M407.5,68.4v11.3l-5.7-5.7L407.5,68.4z M395.5,80.4
				l4.7-4.7l5.7,5.7h-10.6C395.2,81,395.3,80.7,395.5,80.4z M406,99.4c0,2.1-1.7,3.9-3.9,3.9h-36c-2.1,0-3.9-1.7-3.9-3.9v-2.5
				c0-2.1,1.7-3.9,3.9-3.9h2.2H400h2.2c2.1,0,3.9,1.7,3.9,3.9v2.5H406z"/>
			<circle class="st8" cx="370.6" cy="98.1" r="3"/>
			<circle class="st8" cx="379.6" cy="98.1" r="3"/>
			<circle class="st8" cx="388.7" cy="98.1" r="3"/>
			<circle class="st8" cx="397.7" cy="98.1" r="3"/>
			<circle class="st8" cx="431.8" cy="89.9" r="6.4"/>
		</g>
		<path class="st8" d="M368.3,79.1L368.3,79.1h17.9l-2.8-19.6c-0.2-1.2-1.2-2-2.3-2h-16.3c-1.3,0-2.4,1.1-2.4,2.4v24.7h3.7v-5.4h2.2
			L368.3,79.1L368.3,79.1z M366.4,62.1c0-0.3,0.3-0.6,0.6-0.6h12.2c0.3,0,0.6,0.2,0.6,0.5l1.6,12.8c0,0.4-0.2,0.7-0.6,0.7H367
			c-0.3,0-0.6-0.3-0.6-0.6V62.1z"/>
	</g>
</g>
<g>
	<circle class="st8" cx="418.3" cy="144.6" r="5.2"/>
	<path class="st8" d="M430.1,159.2c0.2-3.2-2.1-8.3-7.4-8.3h-8.6c-5.3,0-7.6,5.1-7.4,8.3l-0.1,15c0.1,1,0.9,1.7,1.9,1.7
		c1-0.1,1.6-0.9,1.7-1.9l0.8-12.3c0-0.2,0.2-0.4,0.4-0.4c0.2,0,0.4,0.2,0.4,0.4l0,0v34.9c0,0.8,0.6,1.4,1.4,1.4h2.4
		c0.8,0,1.3-0.5,1.4-1.4l0.9-19.4c0.1-0.5,0-0.9,0.5-0.9l0,0c0.5,0,0.5,0.3,0.5,0.9l0.9,19.4c0,0.9,0.6,1.4,1.4,1.4h2.4
		c0.8,0,1.4-0.6,1.4-1.4v-34.9l0,0c0-0.2,0.2-0.4,0.4-0.4c0.2,0,0.4,0.2,0.4,0.4l0.8,12.3c0,1,0.7,1.8,1.7,1.9
		c1,0.1,1.8-0.7,1.9-1.7L430.1,159.2z"/>
</g>
<g>
	<circle class="st8" cx="449.3" cy="144.6" r="5.2"/>
	<path class="st8" d="M463.4,172.4l-2.9-14.7c-0.5-3.1-3.3-6.7-7.8-6.7h-6.9c-4.4,0-7.3,3.6-7.8,6.7l-2.9,14.7
		c-0.2,1,0.5,1.9,1.5,2.1c1,0.2,1.8-0.5,2.1-1.5l3.8-12.4c0.1-0.2,0.3-0.3,0.5-0.3c0.2,0.1,0.3,0.3,0.3,0.5l-4.8,20.6
		c-0.2,0.8,0.3,1.4,1.1,1.4h1.4c0.8,0,1.5,0.6,1.6,1.4l2,12.5c0.1,0.8,0.8,1.4,1.6,1.4h5.9c0.8,0,1.5-0.6,1.6-1.4l1.7-12.5
		c0.1-0.8,0.8-1.4,1.6-1.4h1.4c0.8,0,1.3-0.6,1.1-1.4l-4.3-20.6c-0.1-0.2,0.1-0.4,0.3-0.5c0.2-0.1,0.4,0.1,0.5,0.3l3.8,12.4
		c0.3,1,1.1,1.6,2.1,1.5C462.9,174.3,463.6,173.4,463.4,172.4z"/>
</g>
<g>
	<path class="st8" d="M514.4,236.2l-9.7,10.1c-0.3,0.3-0.7,0.3-1,0l0,0c-0.3-0.3-0.3-0.7,0-1l9.5-10.4l0.2-0.6l-0.6,0.2l-10,9.8
		c-0.3,0.3-0.7,0.3-1,0l0,0l0,0c-0.3-0.3-0.3-0.7,0-1l9.8-10l0.2-0.6l-0.6,0.2l-10.4,9.5c-0.3,0.3-0.7,0.2-1,0l0,0l0,0
		c-0.3-0.3-0.3-0.7,0-1l10.1-9.7l0.3-0.6l-0.7,0.2l-10.4,9c-2.3,1.9-3.5,4.8-3.4,7.7l-5.2,5.3l-0.4-0.4l-4.4,4.1l3.7,3.4l3.9-4.2
		l-0.4-0.4l5.3-5.2c2.9,0.1,5.8-1.2,7.7-3.4l9-10.4l0.2-0.7L514.4,236.2z"/>
	<path class="st8" d="M465.3,275.8c-1.5,1.3-1.5,3.6-0.1,5l0,0c1.4,1.4,3.7,1.4,5-0.1l12.1-13l-3.8-4.2L465.3,275.8z"/>
	<path class="st8" d="M500.9,274.2l-18.5-16.8l-0.5,0.5l-2.1-2.1l-0.4-0.4l-22-22c-2.2-2.2-2.6,0.6-2.7,1.8
		c-0.5,4.1,2.4,10.2,7.7,15.5c5.3,5.3,11.4,8.1,15.5,7.7l0,0l1.6,1.6l-0.5,0.5l16.8,18.5c1.3,1.5,3.6,1.5,5,0.1l0,0
		C502.5,277.8,502.4,275.5,500.9,274.2z"/>
</g>
<g>
	<path class="st8" d="M574.5,68.9v-0.2c0-0.5-0.4-0.9-0.9-0.9h-0.1h-11.2h-0.1c-0.5,0-0.9,0.4-0.9,0.9v0.1l-1.8,37.7
		c0,0.8,0.6,1.4,1.4,1.4h6.1c0-4.3,0-21.4,0-21.4c0-0.7,0.4-1.4,1-1.7l7.1-3.6L574.5,68.9z"/>
	<path class="st8" d="M599.6,87.3v-7.5l-15,7.5v-7.5l-15,7.5c0,0,0,13.4,0,19.2c0,0.6,0,1.1,0,1.5h6.1h37.6h0.1
		c0.8,0,1.4-0.6,1.4-1.4V79.8L599.6,87.3z M580.7,99.6h-4.1l-0.2-4.7h4.4v4.7H580.7z M594.4,99.6h-4.7v-4.7h4.7V99.6z M608,99.6
		h-4.7v-4.7h4.7V99.6z"/>
	<path class="st8" d="M599.6,62.7c0-4.7-3.8-8.5-8.5-8.5c-1.2,0-2.4,0.3-3.5,0.7c1.6,2.2,2.5,4.8,2.5,7.7L599.6,62.7L599.6,62.7z"/>
	<path class="st8" d="M587.4,65.3c0.1-0.6,0.2-1.2,0.2-1.9c0-0.3,0-0.6,0-0.8c0-0.1,0-0.1,0-0.2c0-0.3-0.1-0.5-0.1-0.8v-0.1
		c0-0.3-0.1-0.5-0.2-0.8c0,0,0,0,0-0.1c-0.1-0.3-0.1-0.5-0.2-0.8v-0.1c-0.1-0.3-0.2-0.5-0.3-0.7c0,0,0,0,0-0.1
		c-0.1-0.2-0.2-0.5-0.3-0.7v-0.1c-0.1-0.2-0.3-0.5-0.4-0.7c0,0,0-0.1-0.1-0.1c-2-3.1-5.5-5.2-9.5-5.2c-6.2,0-11.3,5.1-11.3,11.3
		c0,0.6,0.1,1.3,0.2,1.9C565.4,65.3,587.4,65.3,587.4,65.3z"/>
</g>
<path class="st8" d="M550.8,186.9l-3-6.5c-0.2-0.3-0.5-0.5-0.9-0.3c-2.2,1-4,1.5-5.3,1.5c-0.5,0-1.7-0.1-4.4-0.8
	c-1.7-0.4-2.1-0.5-2.3-0.5c-0.5-0.1-1.2-0.1-1.8-0.1c-0.7,0-1.3,0-1.9,0.1c1-1.3,1.7-2.3,2.1-3.3c0.6-1.3,0.9-2.7,0.9-4.3
	c0-0.2,0-0.4,0-0.5h6.6c0.4,0,0.7-0.3,0.7-0.7v-6.1c0-0.4-0.3-0.7-0.7-0.7h-8.1c-0.3-0.9-0.6-1.9-0.8-2.9c-0.3-1.2-0.4-2.2-0.4-2.9
	c0-1.3,0.4-2.4,1.3-3.2c0.8-0.9,1.9-1.3,3.2-1.3c1.2,0,2.2,0.4,3,1.1c0.8,0.8,1.4,2,1.7,3.9c0.1,0.4,0.4,0.6,0.8,0.5l7.4-1.1
	c0.4-0.1,0.6-0.4,0.6-0.8c-0.5-3.5-1.9-6.3-4.1-8.2c-2.3-1.9-5.3-2.9-9-2.9c-2.4,0-4.7,0.5-6.8,1.5s-3.8,2.5-4.9,4.4
	c-1.1,1.9-1.7,3.9-1.7,6c0,2,0.3,3.9,0.9,5.9h-3.4c-0.4,0-0.7,0.3-0.7,0.7v6.1c0,0.4,0.3,0.7,0.7,0.7h5.1c0,0.3,0,0.6,0,0.9
	c0,1.4-0.4,2.9-1.3,4.5c-0.9,1.6-2.3,3.1-4.3,4.5c-0.3,0.2-0.4,0.5-0.2,0.8l2.9,6.6c0.1,0.2,0.2,0.3,0.4,0.4c0.1,0,0.1,0,0.2,0
	c0.1,0,0.3,0,0.4-0.1c2.2-1.5,4.4-2.3,6.4-2.3c1.2,0,3.2,0.4,5.9,1.1c2.8,0.8,5.1,1.2,6.8,1.2c1.3,0,2.7-0.2,4.1-0.6
	c1.4-0.4,2.7-0.9,3.8-1.4C550.8,187.6,550.9,187.2,550.8,186.9z"/>
<circle class="st9" cx="383.5" cy="253.7" r="42.8"/>
<g>
	<path class="st8" d="M373.4,236h-2.2v-3.3h-2.5v3.3h-2.2v-8h2.2v3h2.5v-3h2.2V236z"/>
	<path class="st8" d="M382.6,232c0,1.3-0.3,2.4-1,3.1c-0.7,0.7-1.6,1-2.9,1s-2.2-0.4-2.9-1.1s-1-1.7-1-3.1c0-1.3,0.3-2.3,1-3
		s1.6-1.1,2.9-1.1s2.2,0.3,2.9,1S382.6,230.7,382.6,232z M377.1,232c0,1.5,0.5,2.3,1.6,2.3c0.5,0,1-0.2,1.2-0.6
		c0.3-0.4,0.4-1,0.4-1.8s-0.1-1.4-0.4-1.8c-0.3-0.4-0.7-0.6-1.2-0.6C377.7,229.7,377.1,230.4,377.1,232z"/>
	<path class="st8" d="M387.6,236h-2.2v-6.2h-2V228h6.1v1.8h-1.9V236z"/>
	<path class="st8" d="M395.4,236h-4.7v-8h4.7v1.7h-2.6v1.3h2.4v1.7h-2.4v1.5h2.6V236z"/>
	<path class="st8" d="M396.8,236v-8h2.2v6.2h3.1v1.7h-5.3L396.8,236L396.8,236z"/>
</g>
<g>
	<polygon class="st10" points="393.6,289.7 393.6,295.3 393.6,296.7 400.5,296.7 400.5,293 400.5,289.7 	"/>
	<rect x="393.6" y="244.5" class="st10" width="7" height="7"/>
	<rect x="393.6" y="259.3" class="st10" width="7" height="7"/>
	<rect x="393.6" y="274.5" class="st10" width="7" height="7"/>
	<rect x="380.5" y="274.5" class="st10" width="7" height="7"/>
	<polygon class="st10" points="367.1,289.7 367.1,293.2 367.1,296.7 374.1,296.7 374.1,295.4 374.1,289.7 	"/>
	<polygon class="st10" points="380.5,289.7 380.5,296.4 380.5,296.7 387.4,296.7 387.4,296.3 387.4,289.7 	"/>
	<rect x="367.1" y="259.3" class="st10" width="7" height="7"/>
	<rect x="367.1" y="274.5" class="st10" width="7" height="7"/>
	<rect x="380.3" y="259.3" class="st10" width="7" height="7"/>
	<rect x="380.5" y="244.5" class="st10" width="7" height="7"/>
	<rect x="367.1" y="244.5" class="st10" width="7" height="7"/>
	<path class="st8" d="M367.1,289.7h7v5.7c2.1,0.5,4.2,0.8,6.4,0.9v-6.7h7v6.6c2.1-0.2,4.1-0.5,6.1-1v-5.6h7v3.2
		c2.9-1.3,5.6-2.8,8.2-4.7v-49.9V238c0-1.1-0.9-2-2-2H361c-1.1,0-2,0.9-2,2v0.4v15.4v4.2v30.8c2.5,1.8,5.3,3.3,8.2,4.5v-3.6
		L367.1,289.7L367.1,289.7z M393.6,244.5h7v7h-7V244.5z M393.6,259.3h7v7h-7V259.3z M393.6,274.5h7v7h-7V274.5z M387.4,281.4h-7v-7
		h7V281.4z M380.5,244.5h7v7h-7V244.5z M380.3,259.3h7v7h-7V259.3z M367.1,244.5h7v7h-7V244.5z M367.1,259.3h7v7h-7V259.3z
		 M367.1,274.5h7v7h-7V274.5z"/>
</g>
<g>
	<path class="st8" d="M571.1,254.6c5-0.3,9.7,1.9,12.6,5.5l12.5-4.3c0.5-0.2,0.9-0.5,1.2-1l4.9-8.5c0.2-0.3,0-0.7-0.4-0.7l-43.8,0.1
		c-0.3,0-0.5,0.4-0.3,0.6l8.2,9.5C567.7,255.2,569.4,254.7,571.1,254.6z"/>
	<path class="st8" d="M619,246.3h-10c-1,0-1.8,0.6-2.3,1.4l-4.2,8.5l-17.2,6.2l-3.8,1.4c-0.5-0.8-1.1-1.5-1.8-2.2
		c-2.2-2-5.1-3.2-8.3-3c-0.9,0.1-1.7,0.2-2.5,0.5c-4.8,1.5-8.1,6.1-7.7,11.3c0.4,6.1,5.7,10.7,11.7,10.2c5.8-0.4,10.2-5.2,10.3-10.8
		l3.6,2.9l5.1,4.1c1,0.8,2.2,1.2,3.5,1.2c0.8,0,1.6-0.2,2.4-0.5c1.9-0.9,3.1-2.9,3.1-5v-10.3l4.3-1.5c0.6-0.2,1.1-0.7,1.4-1.3l3.9-8
		h8.5c1.4,0,2.5-1.1,2.5-2.5C621.5,247.4,620.4,246.3,619,246.3z M572.5,274.8c-2.9,0.2-5.4-2-5.6-4.9c-0.2-2.9,2-5.4,4.9-5.6
		c1.5-0.1,2.9,0.5,4,1.4l-2.6,0.9c-1.3,0.5-2,1.9-1.5,3.2c0.4,1,1.3,1.7,2.4,1.7c0.3,0,0.6,0,0.8-0.1l2.4-0.9
		C576.8,272.9,574.9,274.6,572.5,274.8z M596.7,272.5c0,0.5-0.3,1-0.8,1.2s-1,0.2-1.4-0.2l-7.6-6.1l-0.2-0.2l0.2-0.1l9.8-3.5V272.5z
		"/>
	<path class="st8" d="M586.1,234l-1.8,0.5c-0.4,0.1-0.8,0-1.1-0.3l-4.7-5.2c-0.5-0.5-1.3-0.5-1.7,0.1l-10.6,13.4l29.3-0.1l-7.2-7.8
		C587.8,234.1,586.9,233.8,586.1,234z"/>
</g>
<g>
	<path class="st8" d="M40.2,204l-1.2-3.2h-4.5l-1.1,3.2h-2l4.4-11.7h2.1l4.4,11.7H40.2z M38.5,199.2l-1.1-3.2
		c-0.1-0.2-0.2-0.5-0.3-1s-0.2-0.8-0.3-1c-0.1,0.7-0.4,1.4-0.6,2.1l-1.1,3L38.5,199.2L38.5,199.2z"/>
	<path class="st8" d="M48,204.2c-1.1,0-2-0.4-2.6-1.2h-0.1c0.1,0.7,0.1,1.2,0.1,1.4v3.6h-1.9v-12.7H45c0,0.2,0.1,0.6,0.3,1.2h0.1
		c0.6-0.9,1.5-1.3,2.6-1.3s2,0.4,2.6,1.2s0.9,1.9,0.9,3.4s-0.3,2.6-0.9,3.4C50,203.8,49.1,204.2,48,204.2z M47.6,196.6
		c-0.7,0-1.3,0.2-1.6,0.7c-0.3,0.4-0.5,1.1-0.5,2.1v0.3c0,1.1,0.2,1.9,0.5,2.3c0.3,0.5,0.9,0.7,1.7,0.7c0.6,0,1.1-0.3,1.5-0.8
		s0.5-1.3,0.5-2.3s-0.2-1.7-0.5-2.2C48.8,196.8,48.2,196.6,47.6,196.6z"/>
	<path class="st8" d="M58.2,195.1c0.4,0,0.7,0,0.9,0.1l-0.2,1.7c-0.3-0.1-0.5-0.1-0.8-0.1c-0.8,0-1.4,0.2-1.8,0.7s-0.7,1.1-0.7,1.9
		v4.6h-1.9v-8.8h1.5l0.2,1.6h0.1c0.3-0.5,0.7-0.9,1.1-1.3C57.2,195.2,57.7,195.1,58.2,195.1z"/>
	<path class="st8" d="M60.7,192.9c0-0.3,0.1-0.6,0.3-0.8s0.4-0.3,0.8-0.3c0.3,0,0.6,0.1,0.8,0.3s0.3,0.4,0.3,0.8
		c0,0.3-0.1,0.6-0.3,0.8s-0.4,0.3-0.8,0.3c-0.3,0-0.6-0.1-0.8-0.3S60.7,193.2,60.7,192.9z M62.6,204h-1.9v-8.8h1.9V204z"/>
	<path class="st8" d="M67.2,204h-1.9v-12.4h1.9V204z"/>
	<path class="st8" d="M77.4,202.7c0.5,0,0.9-0.1,1.4-0.2v1.4c-0.2,0.1-0.5,0.2-0.8,0.2c-0.3,0.1-0.7,0.1-1,0.1
		c-1.8,0-2.7-0.9-2.7-2.8v-4.8h-1.2v-0.8l1.3-0.7l0.6-1.9h1.2v2h2.5v1.4h-2.5v4.7c0,0.5,0.1,0.8,0.3,1
		C76.7,202.6,77,202.7,77.4,202.7z"/>
	<path class="st8" d="M88.4,199.6c0,1.4-0.4,2.6-1.1,3.4c-0.7,0.8-1.8,1.2-3.1,1.2c-0.8,0-1.6-0.2-2.2-0.6c-0.6-0.4-1.1-0.9-1.5-1.6
		c-0.3-0.7-0.5-1.5-0.5-2.4c0-1.4,0.4-2.5,1.1-3.4c0.7-0.8,1.8-1.2,3.1-1.2c1.3,0,2.3,0.4,3,1.2C88,197.1,88.4,198.2,88.4,199.6z
		 M82,199.6c0,2,0.8,3.1,2.3,3.1s2.2-1,2.2-3.1c0-2-0.8-3-2.2-3c-0.8,0-1.4,0.3-1.7,0.8C82.1,197.9,82,198.6,82,199.6z"/>
	<path class="st8" d="M93.5,207.3c-0.5,0-1-0.1-1.3-0.2v-1.6c0.4,0.1,0.8,0.2,1.2,0.2c1,0,1.6-0.7,1.6-2v-11.3h1.9v11.2
		c0,1.2-0.3,2.1-0.8,2.7S94.6,207.3,93.5,207.3z"/>
	<path class="st8" d="M105.9,204l-0.3-1.2h-0.1c-0.3,0.4-0.6,0.7-1.1,1c-0.5,0.2-1,0.4-1.6,0.4c-1.1,0-1.9-0.3-2.4-0.8
		s-0.8-1.3-0.8-2.4v-5.8h1.9v5.4c0,0.7,0.1,1.2,0.4,1.5s0.7,0.5,1.3,0.5c0.8,0,1.4-0.2,1.7-0.7c0.4-0.5,0.6-1.3,0.6-2.4v-4.4h1.9
		v8.8L105.9,204L105.9,204z"/>
	<path class="st8" d="M117.8,204h-1.9v-5.4c0-0.7-0.1-1.2-0.4-1.5s-0.7-0.5-1.3-0.5c-0.8,0-1.4,0.2-1.7,0.7
		c-0.4,0.5-0.6,1.3-0.6,2.4v4.4H110v-8.8h1.5l0.3,1.2h0.1c0.3-0.4,0.6-0.7,1.1-1c0.5-0.2,1-0.3,1.6-0.3c2.1,0,3.2,1.1,3.2,3.2
		C117.8,198.4,117.8,204,117.8,204z"/>
	<path class="st8" d="M124.2,204.2c-1.4,0-2.4-0.4-3.2-1.2c-0.8-0.8-1.2-1.9-1.2-3.3c0-1.4,0.4-2.6,1.1-3.4c0.7-0.8,1.7-1.2,3-1.2
		c1.2,0,2.1,0.4,2.8,1.1c0.7,0.7,1,1.7,1,2.9v1h-5.9c0,0.9,0.3,1.5,0.7,2c0.4,0.5,1.1,0.7,1.8,0.7c0.5,0,1,0,1.5-0.1
		c0.4-0.1,0.9-0.3,1.4-0.5v1.5c-0.5,0.2-0.9,0.4-1.4,0.5C125.4,204.2,124.8,204.2,124.2,204.2z M123.9,196.5c-0.6,0-1.1,0.2-1.4,0.6
		c-0.4,0.4-0.6,0.9-0.6,1.7h4c0-0.7-0.2-1.3-0.5-1.7C125,196.7,124.5,196.5,123.9,196.5z"/>
	<path class="st8" d="M141.3,204h-7.9v-1.4l3-3c0.9-0.9,1.5-1.6,1.8-1.9c0.3-0.4,0.5-0.7,0.6-1.1s0.2-0.7,0.2-1.1
		c0-0.5-0.2-0.9-0.5-1.2s-0.8-0.5-1.3-0.5c-0.4,0-0.9,0.1-1.3,0.2c-0.4,0.2-0.9,0.5-1.4,0.9l-1-1.2c0.6-0.5,1.3-0.9,1.9-1.2
		c0.6-0.2,1.3-0.3,2-0.3c1.1,0,2,0.3,2.6,0.8c0.7,0.6,1,1.3,1,2.3c0,0.5-0.1,1-0.3,1.5s-0.5,1-0.9,1.5s-1,1.2-2,2l-2,2v0.1h5.5
		L141.3,204L141.3,204z"/>
	<path class="st8" d="M150.6,198.2c0,2-0.3,3.5-1,4.5s-1.6,1.5-3,1.5c-1.3,0-2.3-0.5-3-1.5s-1-2.5-1-4.5c0-2.1,0.3-3.6,1-4.6
		s1.6-1.5,3-1.5c1.3,0,2.3,0.5,3,1.5S150.6,196.2,150.6,198.2z M144.6,198.2c0,1.6,0.2,2.7,0.5,3.4s0.8,1,1.6,1s1.2-0.3,1.6-1
		c0.3-0.7,0.5-1.8,0.5-3.4c0-1.6-0.2-2.7-0.5-3.4s-0.9-1-1.6-1s-1.2,0.3-1.6,1C144.8,195.5,144.6,196.6,144.6,198.2z"/>
	<path class="st8" d="M157.6,204h-1.9v-7.5c0-0.9,0-1.6,0.1-2.1c-0.1,0.1-0.3,0.3-0.5,0.4s-0.8,0.6-1.8,1.5l-0.9-1.2l3.4-2.7h1.6
		L157.6,204L157.6,204z"/>
	<path class="st8" d="M162.7,204l4.6-10h-6.1v-1.7h8.1v1.3l-4.6,10.3L162.7,204L162.7,204z"/>
</g>
<g>
	<path class="st8" d="M61,53.7c0,6.9-1.1,12-3.4,15.3c-2.3,3.3-5.7,5-10.4,5c-4.6,0-8-1.7-10.3-5.1s-3.5-8.5-3.5-15.1
		c0-7,1.1-12.1,3.4-15.4c2.2-3.3,5.7-5,10.4-5c4.6,0,8,1.7,10.3,5.2C59.8,42,61,47,61,53.7z M41.7,53.7c0,4.8,0.4,8.3,1.3,10.4
		c0.8,2.1,2.2,3.1,4.2,3.1c1.9,0,3.3-1.1,4.2-3.2c0.9-2.1,1.3-5.6,1.3-10.4s-0.4-8.3-1.3-10.4S49.1,40,47.2,40c-2,0-3.4,1.1-4.2,3.2
		C42.1,45.4,41.7,48.9,41.7,53.7z"/>
	<path class="st8" d="M66.1,69.6c0-1.5,0.4-2.7,1.2-3.4c0.8-0.8,2-1.2,3.5-1.2s2.6,0.4,3.5,1.2c0.8,0.8,1.2,1.9,1.2,3.4
		c0,1.4-0.4,2.5-1.2,3.4c-0.8,0.8-2,1.2-3.5,1.2s-2.7-0.4-3.5-1.2C66.5,72.2,66.1,71,66.1,69.6z"/>
	<path class="st8" d="M107,42.8c0,2.5-0.7,4.6-2.2,6.3s-3.6,2.9-6.3,3.6v0.2c3.2,0.4,5.6,1.4,7.2,2.9s2.5,3.6,2.5,6.2
		c0,3.8-1.4,6.8-4.1,8.9c-2.8,2.1-6.7,3.2-11.8,3.2c-4.3,0-8.1-0.7-11.4-2.1v-7.1c1.5,0.8,3.2,1.4,5,1.9s3.7,0.7,5.5,0.7
		c2.8,0,4.8-0.5,6.1-1.4c1.3-0.9,2-2.4,2-4.5c0-1.9-0.8-3.2-2.3-3.9c-1.5-0.8-3.9-1.2-7.2-1.2h-3v-6.4h3c3.1,0,5.3-0.4,6.7-1.2
		c1.4-0.8,2.1-2.2,2.1-4.1c0-3-1.9-4.5-5.6-4.5c-1.3,0-2.6,0.2-4,0.6c-1.3,0.4-2.8,1.2-4.5,2.2l-3.9-5.8c3.6-2.6,7.9-3.9,12.9-3.9
		c4.1,0,7.3,0.8,9.7,2.5C105.8,37.5,107,39.8,107,42.8z"/>
	<path class="st8" d="M130.8,45.7c0,4.1-0.8,7.2-2.4,9.3c-1.6,2.1-4,3.1-7,3.1s-5.3-1.1-6.9-3.2c-1.6-2.1-2.4-5.2-2.4-9.2
		c0-8.2,3.1-12.3,9.3-12.3c3,0,5.4,1.1,7,3.2C129.9,38.7,130.8,41.8,130.8,45.7z M118.8,45.8c0,2.3,0.2,4,0.6,5.1s1.1,1.7,2,1.7
		c1.7,0,2.6-2.3,2.6-6.8s-0.9-6.7-2.6-6.7c-0.9,0-1.6,0.6-2,1.7C119,41.8,118.8,43.5,118.8,45.8z M149.3,34l-21.9,39.5H121L142.9,34
		H149.3z M158.4,61.5c0,4.1-0.8,7.2-2.4,9.3c-1.6,2.1-4,3.1-7,3.1s-5.3-1.1-6.9-3.2c-1.6-2.1-2.4-5.2-2.4-9.2
		c0-8.2,3.1-12.3,9.3-12.3c3,0,5.4,1.1,7,3.2C157.6,54.5,158.4,57.5,158.4,61.5z M146.4,61.6c0,2.3,0.2,4,0.6,5.1
		c0.4,1.1,1.1,1.7,2,1.7c1.7,0,2.6-2.3,2.6-6.8s-0.9-6.7-2.6-6.7c-0.9,0-1.6,0.6-2,1.7C146.6,57.6,146.4,59.3,146.4,61.6z"/>
	<path class="st8" d="M49.5,94.8v2.5L46.7,98c0.5,0.8,0.8,1.7,0.8,2.7c0,1.9-0.7,3.4-2,4.5s-3.2,1.6-5.6,1.6H39l-0.7-0.1
		c-0.5,0.4-0.8,0.8-0.8,1.3c0,0.7,0.9,1.1,2.7,1.1h3c2,0,3.4,0.4,4.5,1.3c1,0.8,1.5,2.1,1.5,3.7c0,2.1-0.9,3.7-2.6,4.8
		c-1.7,1.1-4.2,1.7-7.5,1.7c-2.5,0-4.4-0.4-5.7-1.3s-2-2.1-2-3.6c0-1.1,0.3-2,1-2.7s1.7-1.2,3-1.5c-0.5-0.2-0.9-0.6-1.3-1
		s-0.6-1-0.6-1.5c0-0.7,0.2-1.2,0.6-1.7c0.4-0.5,1-0.9,1.7-1.3c-0.9-0.4-1.7-1.1-2.2-1.9c-0.5-0.9-0.8-1.9-0.8-3.2
		c0-1.9,0.6-3.5,1.9-4.5s3.1-1.6,5.4-1.6c0.5,0,1.1,0,1.8,0.1s1.1,0.2,1.3,0.2h6.3C49.5,95.1,49.5,94.8,49.5,94.8z M35.7,115.2
		c0,0.7,0.3,1.2,1,1.6s1.5,0.6,2.7,0.6c1.7,0,3.1-0.2,4.1-0.7s1.5-1.1,1.5-2c0-0.7-0.3-1.1-0.9-1.4c-0.6-0.3-1.5-0.4-2.7-0.4h-2.5
		c-0.9,0-1.6,0.2-2.2,0.6C36,113.9,35.7,114.5,35.7,115.2z M37.5,100.6c0,1,0.2,1.7,0.7,2.3c0.4,0.6,1.1,0.8,2,0.8s1.6-0.3,2-0.8
		c0.4-0.6,0.6-1.3,0.6-2.3c0-2.1-0.9-3.2-2.6-3.2C38.4,97.4,37.5,98.5,37.5,100.6z"/>
	<path class="st8" d="M62.4,94.5c0.7,0,1.2,0,1.6,0.1l-0.4,4.6c-0.4-0.1-0.9-0.2-1.4-0.2c-1.6,0-2.8,0.4-3.6,1.2
		c-0.9,0.8-1.3,1.9-1.3,3.4v9.1h-4.9V94.8h3.7l0.7,3H57c0.6-1,1.3-1.8,2.2-2.4C60.2,94.8,61.3,94.5,62.4,94.5z"/>
	<path class="st8" d="M83.5,103.7c0,2.9-0.8,5.2-2.3,6.8c-1.5,1.6-3.7,2.5-6.4,2.5c-1.7,0-3.2-0.4-4.5-1.1s-2.3-1.8-3-3.2
		c-0.7-1.4-1.1-3-1.1-4.9c0-2.9,0.8-5.2,2.3-6.8c1.5-1.6,3.7-2.4,6.4-2.4c1.7,0,3.2,0.4,4.5,1.1s2.3,1.8,3,3.2
		C83.1,100.2,83.5,101.8,83.5,103.7z M71.1,103.7c0,1.8,0.3,3.1,0.9,4s1.5,1.4,2.8,1.4s2.2-0.4,2.8-1.3c0.6-0.9,0.9-2.2,0.9-4
		s-0.3-3.1-0.9-4s-1.5-1.3-2.8-1.3s-2.2,0.4-2.8,1.3S71.1,101.9,71.1,103.7z"/>
	<path class="st8" d="M102.1,112.6l-1.4-6.2l-1.9-7.9h-0.1l-3.3,14.1h-5.2l-5.1-17.8h4.8l2.1,7.9c0.3,1.4,0.7,3.4,1,5.9h0.1
		c0-0.8,0.2-2.1,0.6-3.8l0.3-1.4l2.2-8.6h5.4l2.1,8.6c0,0.2,0.1,0.6,0.2,1c0.1,0.5,0.2,0.9,0.3,1.5c0.1,0.5,0.2,1,0.2,1.5
		c0.1,0.5,0.1,0.9,0.1,1.2h0.1c0.1-0.8,0.3-1.8,0.5-3.2c0.2-1.3,0.4-2.2,0.5-2.7l2.1-7.9h4.8l-5.1,17.8
		C107.4,112.6,102.1,112.6,102.1,112.6z"/>
	<path class="st8" d="M123,109.1c0.9,0,1.9-0.2,3.1-0.6v3.6c-1.2,0.5-2.7,0.8-4.5,0.8c-1.9,0-3.4-0.5-4.3-1.5s-1.3-2.5-1.3-4.4v-8.6
		h-2.3v-2.1l2.7-1.6l1.4-3.8h3.1v3.8h5v3.7h-5v8.6c0,0.7,0.2,1.2,0.6,1.5S122.3,109.1,123,109.1z"/>
	<path class="st8" d="M146.1,112.6h-4.9v-10.4c0-2.6-1-3.9-2.9-3.9c-1.4,0-2.3,0.5-3,1.4c-0.6,0.9-0.9,2.4-0.9,4.5v8.4h-4.9V87.8
		h4.9v5.1c0,0.4,0,1.3-0.1,2.8l-0.1,1.4h0.3c1.1-1.7,2.8-2.6,5.2-2.6c2.1,0,3.7,0.6,4.8,1.7s1.6,2.7,1.6,4.8L146.1,112.6
		L146.1,112.6z"/>
	<path class="st8" d="M159.4,90.2c0-1.6,0.9-2.4,2.6-2.4c1.8,0,2.6,0.8,2.6,2.4c0,0.8-0.2,1.3-0.7,1.8c-0.4,0.4-1.1,0.6-2,0.6
		C160.3,92.6,159.4,91.8,159.4,90.2z M164.5,112.6h-4.9V94.8h4.9V112.6z"/>
	<path class="st8" d="M186,112.6h-4.9v-10.4c0-1.3-0.2-2.3-0.7-2.9s-1.2-1-2.2-1c-1.4,0-2.3,0.5-3,1.4c-0.6,0.9-0.9,2.4-0.9,4.5v8.4
		h-4.9V94.8h3.7l0.7,2.3h0.3c0.5-0.9,1.3-1.5,2.2-2s2-0.7,3.2-0.7c2.1,0,3.6,0.6,4.7,1.7c1.1,1.1,1.6,2.7,1.6,4.9v11.6
		C185.8,112.6,186,112.6,186,112.6z"/>
	<path class="st8" d="M208.8,99.5h9.3v12.1c-1.5,0.5-2.9,0.8-4.2,1s-2.7,0.3-4.1,0.3c-3.5,0-6.2-1-8.1-3.1c-1.9-2.1-2.8-5-2.8-8.9
		c0-3.8,1.1-6.7,3.2-8.8c2.2-2.1,5.1-3.2,9-3.2c2.4,0,4.7,0.5,6.9,1.4l-1.6,4c-1.7-0.9-3.5-1.3-5.3-1.3c-2.1,0-3.8,0.7-5.1,2.2
		c-1.3,1.4-1.9,3.4-1.9,5.8c0,2.5,0.5,4.5,1.6,5.8c1,1.3,2.5,2,4.5,2c1,0,2.1-0.1,3.1-0.3v-4.9h-4.4L208.8,99.5L208.8,99.5z"/>
	<path class="st8" d="M242.9,100.8c0,3.8-1.1,6.8-3.3,8.8s-5.3,3.1-9.5,3.1h-6.6V89.3h7.3c3.8,0,6.8,1,8.9,3
		C241.9,94.3,242.9,97.1,242.9,100.8z M237.8,100.9c0-5-2.2-7.5-6.6-7.5h-2.6v15.2h2.1C235.4,108.6,237.8,106,237.8,100.9z"/>
	<path class="st8" d="M263.9,96.6c0,2.5-0.8,4.4-2.4,5.8s-3.8,2-6.7,2h-2.1v8.3h-4.9V89.3h7.4c2.8,0,5,0.6,6.5,1.8
		S263.9,94.2,263.9,96.6z M252.7,100.3h1.6c1.5,0,2.7-0.3,3.4-0.9c0.8-0.6,1.1-1.5,1.1-2.6c0-1.2-0.3-2-0.9-2.6s-1.6-0.8-3-0.8h-2.2
		L252.7,100.3L252.7,100.3z"/>
	<path class="st8" d="M33.8,129.4c0-1.6,0.9-2.4,2.6-2.4c1.8,0,2.6,0.8,2.6,2.4c0,0.8-0.2,1.3-0.7,1.8c-0.4,0.4-1.1,0.6-2,0.6
		C34.6,131.8,33.8,131,33.8,129.4z M38.8,151.8H34V134h4.9v17.8H38.8z"/>
	<path class="st8" d="M60.4,151.8h-4.9v-10.4c0-1.3-0.2-2.3-0.7-2.9c-0.5-0.6-1.2-1-2.2-1c-1.4,0-2.3,0.5-3,1.4
		c-0.6,0.9-0.9,2.4-0.9,4.5v8.4h-4.9V134h3.7l0.7,2.3h0.3c0.5-0.9,1.3-1.5,2.2-2s2-0.7,3.2-0.7c2.1,0,3.6,0.6,4.7,1.7
		c1.1,1.1,1.6,2.7,1.6,4.9v11.6H60.4z"/>
	<path class="st8" d="M79.5,152.2c-2.1,0-3.8-0.8-4.9-2.4c-1.2-1.6-1.8-3.9-1.8-6.8c0-2.9,0.6-5.2,1.8-6.8s2.9-2.5,5-2.5
		c1.1,0,2.1,0.2,3,0.6c0.8,0.4,1.6,1.1,2.2,2h0.1l0.4-2.3h4.1v25.7h-4.9v-7.5c0-0.6,0.1-1.5,0.2-2.7h-0.2c-0.5,0.9-1.2,1.5-2.1,2
		S80.7,152.2,79.5,152.2z M81.3,148.3c1.2,0,2.1-0.4,2.7-1.1c0.6-0.7,0.9-1.9,0.9-3.7V143c0-1.9-0.3-3.3-0.9-4.1s-1.5-1.2-2.8-1.2
		c-2.3,0-3.4,1.8-3.4,5.4c0,1.8,0.3,3.1,0.9,4S80.1,148.3,81.3,148.3z"/>
	<path class="st8" d="M107.2,151.8l-0.7-2.3h-0.3c-0.5,0.8-1.3,1.5-2.2,1.9c-1,0.5-2,0.7-3.3,0.7c-2.1,0-3.7-0.6-4.7-1.7
		s-1.6-2.7-1.6-4.8V134h4.9v10.4c0,1.3,0.2,2.3,0.7,2.9c0.5,0.6,1.2,1,2.2,1c1.4,0,2.3-0.5,3-1.4c0.6-0.9,0.9-2.4,0.9-4.5V134h4.9
		v17.8H107.2z"/>
	<path class="st8" d="M127.4,151.8l-0.9-2.4h-0.1c-0.8,1-1.7,1.7-2.5,2.1c-0.9,0.4-2,0.6-3.4,0.6c-1.7,0-3.1-0.5-4-1.5
		c-1-1-1.5-2.4-1.5-4.2c0-1.9,0.7-3.3,2-4.2s3.3-1.4,6-1.5l3.1-0.1V140c0-1.8-0.9-2.7-2.8-2.7c-1.4,0-3.1,0.4-5,1.3l-1.6-3.3
		c2.1-1.1,4.3-1.6,6.8-1.6c2.4,0,4.2,0.5,5.5,1.6c1.3,1,1.9,2.6,1.9,4.8V152h-3.5C127.4,152,127.4,151.8,127.4,151.8z M125.9,143.6
		l-1.9,0.1c-1.4,0-2.5,0.3-3.2,0.8s-1,1.2-1,2.1c0,1.4,0.8,2.1,2.4,2.1c1.1,0,2-0.3,2.7-1c0.7-0.6,1-1.5,1-2.6V143.6z"/>
	<path class="st8" d="M145.7,133.7c0.7,0,1.2,0,1.6,0.1l-0.4,4.6c-0.4-0.1-0.9-0.2-1.4-0.2c-1.6,0-2.8,0.4-3.6,1.2
		c-0.9,0.8-1.3,1.9-1.3,3.4v9.1h-4.9V134h3.7l0.7,3h0.2c0.6-1,1.3-1.8,2.2-2.4C143.6,134,144.6,133.7,145.7,133.7z"/>
	<path class="st8" d="M158.1,148.3c0.9,0,1.9-0.2,3.1-0.6v3.6c-1.2,0.5-2.7,0.8-4.5,0.8c-1.9,0-3.4-0.5-4.3-1.5
		c-0.9-1-1.3-2.5-1.3-4.4v-8.6h-2.3v-2.1l2.7-1.6l1.4-3.8h3.1v3.8h5v3.7h-5v8.6c0,0.7,0.2,1.2,0.6,1.5S157.5,148.3,158.1,148.3z"/>
	<path class="st8" d="M172.9,152.2c-2.9,0-5.1-0.8-6.7-2.4c-1.6-1.6-2.4-3.8-2.4-6.7c0-3,0.7-5.3,2.2-6.9c1.5-1.6,3.6-2.4,6.2-2.4
		c2.5,0,4.5,0.7,5.9,2.2s2.1,3.4,2.1,6v2.4h-11.5c0.1,1.4,0.5,2.5,1.2,3.2c0.8,0.8,1.8,1.2,3.2,1.2c1.1,0,2.1-0.1,3-0.3
		c1-0.2,2-0.6,3-1.1v3.8c-0.9,0.4-1.8,0.7-2.7,0.9C175.4,152.1,174.3,152.2,172.9,152.2z M172.2,137.1c-1,0-1.8,0.3-2.4,1
		c-0.6,0.7-0.9,1.6-1,2.8h6.8c0-1.2-0.3-2.1-0.9-2.8C174,137.5,173.2,137.1,172.2,137.1z"/>
	<path class="st8" d="M194,133.7c0.7,0,1.2,0,1.6,0.1l-0.4,4.6c-0.4-0.1-0.9-0.2-1.4-0.2c-1.6,0-2.8,0.4-3.6,1.2
		c-0.9,0.8-1.3,1.9-1.3,3.4v9.1H184V134h3.7l0.7,3h0.2c0.6-1,1.3-1.8,2.2-2.4C191.9,134,192.9,133.7,194,133.7z"/>
	<path class="st8" d="M222.5,151.8h-16.3v-3.4l5.9-5.9c1.7-1.8,2.9-3,3.4-3.7s0.9-1.3,1.1-1.9s0.4-1.2,0.4-1.8
		c0-0.9-0.3-1.6-0.8-2.1s-1.2-0.7-2.1-0.7c-0.9,0-1.8,0.2-2.6,0.6c-0.9,0.4-1.7,1-2.7,1.8l-2.7-3.2c1.1-1,2.1-1.7,2.9-2.1
		c0.8-0.4,1.6-0.7,2.5-0.9s1.9-0.3,3-0.3c1.5,0,2.7,0.3,3.9,0.8s2,1.3,2.6,2.2c0.6,1,0.9,2.1,0.9,3.3c0,1.1-0.2,2.1-0.6,3
		c-0.4,0.9-1,1.9-1.8,2.9s-2.2,2.4-4.2,4.2l-3,2.8v0.2h10.2L222.5,151.8L222.5,151.8z"/>
</g>
<g>
	<g>
		<g>
			<defs>
				<rect id="SVGID_1_" width="643.4" height="360"/>
			</defs>
			<clipPath id="SVGID_2_">
				<use xlink:href="#SVGID_1_"  style="overflow:visible;"/>
			</clipPath>
			<g class="st11">
				<circle class="st5" cx="637.7" cy="168.7" r="42.8"/>
				<path class="st8" d="M621,151.9c-3.9-3.4-7.3-2.5-10.2-2.7c0.6,2.7,0.1,6.3,4,9.7s6.8,2.3,10.2,2.7
					C624,158.7,624.9,155.3,621,151.9z M640.5,183.5c-5.2,0.8-6.7,4-8.6,6.1c2.5,1.3,4.9,4,10.1,3.2c5.2-0.8,6.1-3.7,8.6-6.1
					C647.6,185.6,645.6,182.7,640.5,183.5z M638.3,156.9c0.1-5.2-2.9-7.3-4.5-9.6c-1.8,2.2-4.8,4.1-4.9,9.4c-0.1,5.2,3,6.8,4.5,9.6
					C635.4,163.5,638.2,162.1,638.3,156.9z M630.6,174.9c-5.2,0.8-6.7,4-8.6,6.1c2.5,1.3,4.9,4,10.1,3.2c5.2-0.8,6.1-3.7,8.6-6.1
					C637.7,176.9,635.7,174.1,630.6,174.9z M638.8,165.4c-0.1,5.2,3,6.8,4.5,9.6c2-2.8,4.8-4.1,4.9-9.4c0.1-5.2-2.9-7.3-4.5-9.6
					C641.9,158.3,638.9,160.2,638.8,165.4z M620.6,166.2c-5.2,0.8-6.7,4-8.6,6.1c2.5,1.3,4.9,4,10.1,3.2c5.2-0.8,6.1-3.7,8.6-6.1
					C627.8,168.3,625.8,165.4,620.6,166.2z M648.7,174.1c-0.1,5.2,3,6.8,4.5,9.6c2-2.8,4.8-4.1,4.9-9.4c0.1-5.2-2.9-7.3-4.5-9.6
					C651.8,166.9,648.8,168.8,648.7,174.1z M662,195.7l1.8-2.1l-37.5-32.8l-1.8,2.1L662,195.7z"/>
			</g>
		</g>
	</g>
</g>
<rect y="329.2" class="st12" width="644.4" height="31.5"/>
<polygon class="st13" points="644.4,0 644.3,0 644.3,-0.1 612.8,-0.1 612.8,0 31.5,0 31.5,-0.1 0.1,-0.1 0.1,0 0,0 0,31.4 0.1,31.4 
	0.1,360.6 31.5,360.6 31.5,31.4 612.8,31.4 612.8,360.6 644.3,360.6 644.3,31.4 644.4,31.4 "/>
<g>
	<g>
		<path class="st8" d="M449.8,343c-2.8,0-4-2.3-4-5.1c0-2.8,1.2-5.1,4-5.1s4,2.3,4,5.1S452.6,343,449.8,343z M449.8,333.5
			c-2.1,0-2.8,2.2-2.8,4.3c0,2,0.7,4.3,2.8,4.3c2.1,0,2.8-2.2,2.8-4.3C452.6,335.8,451.8,333.5,449.8,333.5z"/>
		<path class="st8" d="M457.3,335.8v7.1h-1.1v-7.1H455v-0.7h1.2V334c0-1.4,0.8-2.4,2.5-2.4c0.1,0,0.3,0,0.3,0v0.7h-0.1
			c-0.8,0-1.5,0.5-1.5,1.6v1.3h1.6v0.7h-1.7V335.8z"/>
		<path class="st8" d="M461.9,335.8v7.1h-1.1v-7.1h-1.2v-0.7h1.2V334c0-1.4,0.8-2.4,2.5-2.4c0.1,0,0.3,0,0.3,0v0.7h-0.1
			c-0.8,0-1.5,0.5-1.5,1.6v1.3h1.6v0.7h-1.7L461.9,335.8L461.9,335.8z"/>
		<path class="st8" d="M465.4,333.6c-0.4,0-0.7-0.3-0.7-0.7s0.3-0.7,0.7-0.7c0.4,0,0.7,0.3,0.7,0.7S465.8,333.6,465.4,333.6z
			 M464.8,342.8V335h1.1v7.8H464.8z"/>
		<path class="st8" d="M470.8,343c-1.8,0-3.3-1.6-3.3-4.1s1.4-4.1,3.3-4.1c0.9,0,1.6,0.3,1.9,0.5l-0.3,0.7c-0.3-0.2-0.7-0.4-1.3-0.4
			c-1.6,0-2.4,1.4-2.4,3.2c0,1.9,0.9,3.3,2.3,3.3c0.6,0,1.1-0.2,1.4-0.4l0.3,0.7C472.4,342.8,471.7,343,470.8,343z"/>
		<path class="st8" d="M474.6,339.4c0.1,1.8,1.2,2.7,2.7,2.7c1,0,1.7-0.2,2.1-0.5l0.3,0.8c-0.5,0.3-1.4,0.5-2.5,0.5
			c-2.2,0-3.7-1.3-3.7-4.1c0-2.7,1.4-4,3.4-4s3.2,1.2,3.2,3.8L474.6,339.4z M476.8,335.6c-1.3,0-2.3,1-2.3,3.2l4.4-0.6
			C478.9,336.4,478,335.6,476.8,335.6z"/>
		<path class="st8" d="M485.5,335.8v7.1h-1.1v-7.1h-1.2v-0.7h1.2V334c0-1.4,0.8-2.4,2.5-2.4c0.1,0,0.3,0,0.3,0v0.7H487
			c-0.8,0-1.5,0.5-1.5,1.6v1.3h1.6v0.7h-1.6V335.8z"/>
		<path class="st8" d="M491.2,343c-2.3,0-3.3-1.8-3.3-4.1c0-2.3,1-4.1,3.3-4.1s3.3,1.8,3.3,4.1S493.5,343,491.2,343z M491.2,335.6
			c-1.7,0-2.2,1.7-2.2,3.3c0,1.6,0.5,3.2,2.2,3.2s2.2-1.6,2.2-3.2C493.4,337.4,492.9,335.6,491.2,335.6z"/>
		<path class="st8" d="M499.4,335.8c-0.7-0.2-1.8-0.2-2.3,0.1v6.9H496v-7.4c0.8-0.3,1.6-0.5,3.1-0.5c0.2,0,0.5,0,0.6,0L499.4,335.8z
			"/>
		<path class="st8" d="M509.6,342.9l-4.4-6.8c-0.3-0.5-0.6-1-0.6-1l0,0c0,0,0,0.6,0,1.2v6.6h-1.4V333h1.6l4.2,6.4
			c0.4,0.6,0.6,1,0.6,1l0,0c0,0-0.1-0.6-0.1-1.2V333h1.5v9.9H509.6z"/>
		<path class="st8" d="M515.8,343.1c-2.3,0-3.3-0.9-3.3-2.4c0-2.1,2.2-2.6,4.8-2.9v-0.4c0-1.1-0.7-1.4-1.8-1.4
			c-0.8,0-1.6,0.2-2.1,0.4l-0.4-1c0.5-0.2,1.6-0.6,2.8-0.6c1.7,0,3,0.7,3,2.7v4.9C518.1,342.9,517.1,343.1,515.8,343.1z
			 M517.2,338.6c-1.9,0.2-3.2,0.6-3.2,2.1c0,1,0.7,1.5,1.9,1.5c0.5,0,1-0.1,1.3-0.3V338.6z"/>
		<path class="st8" d="M523.3,343.1c-1.6,0-2.2-1.1-2.2-2.1v-4.8H520v-1h1.1v-1.7l1.7-0.5v2.2h1.5v1h-1.5v4.7c0,0.6,0.4,1.1,1.1,1.1
			c0.2,0,0.3,0,0.4-0.1v1C524,343,523.7,343.1,523.3,343.1z"/>
		<path class="st8" d="M526.3,333.8c-0.5,0-1-0.4-1-0.9s0.4-0.9,1-0.9c0.5,0,1,0.4,1,0.9S526.9,333.8,526.3,333.8z M525.5,342.9
			v-7.8h1.7v7.8H525.5z"/>
		<path class="st8" d="M532.1,343.1c-2.4,0-3.5-1.8-3.5-4.1s1.2-4.1,3.5-4.1c2.4,0,3.5,1.8,3.5,4.1S534.5,343.1,532.1,343.1z
			 M532.1,336c-1.4,0-1.9,1.5-1.9,3s0.4,2.9,1.9,2.9c1.4,0,1.9-1.4,1.9-2.9S533.6,336,532.1,336z"/>
		<path class="st8" d="M541.8,342.9v-5.5c0-1-0.8-1.4-1.8-1.4c-0.5,0-1,0.1-1.3,0.2v6.7H537v-7.4c0.7-0.3,1.9-0.6,3.1-0.6
			c2,0,3.4,0.7,3.4,2.4v5.6L541.8,342.9L541.8,342.9z"/>
		<path class="st8" d="M548.2,343.1c-2.3,0-3.3-0.9-3.3-2.4c0-2.1,2.2-2.6,4.8-2.9v-0.4c0-1.1-0.7-1.4-1.8-1.4
			c-0.8,0-1.6,0.2-2.1,0.4l-0.4-1c0.5-0.2,1.6-0.6,2.8-0.6c1.7,0,3,0.7,3,2.7v4.9C550.5,342.9,549.4,343.1,548.2,343.1z
			 M549.6,338.6c-1.9,0.2-3.2,0.6-3.2,2.1c0,1,0.7,1.5,1.9,1.5c0.5,0,1-0.1,1.3-0.3V338.6z"/>
		<path class="st8" d="M552.9,342.9v-3.7v-7.6h1.7v3.8v7.5L552.9,342.9L552.9,342.9z"/>
		<path class="st8" d="M561.1,343.1c-1.2,0-2.2-0.3-2.7-0.6l0.5-1.2c0.4,0.2,1.1,0.5,1.9,0.5c1.2,0,2-0.7,2-1.7
			c0-2.2-4.1-1.3-4.1-4.4c0-1.6,1.3-2.9,3.3-2.9c1.1,0,1.9,0.3,2.4,0.6l-0.4,1.1c-0.4-0.2-1-0.5-1.7-0.5c-1.1,0-1.8,0.6-1.8,1.6
			c0,2.1,4.2,1.2,4.2,4.5C564.6,341.8,563.1,343.1,561.1,343.1z"/>
		<path class="st8" d="M568.8,343.1c-1.6,0-2.3-1.1-2.3-2.1v-4.8h-1.1v-1h1.1v-1.7l1.7-0.5v2.2h1.5v1h-1.5v4.7
			c0,0.6,0.4,1.1,1.1,1.1c0.2,0,0.3,0,0.4-0.1v1C569.5,343,569.2,343.1,568.8,343.1z"/>
		<path class="st8" d="M573.9,343.1c-2.3,0-3.3-0.9-3.3-2.4c0-2.1,2.2-2.6,4.8-2.9v-0.4c0-1.1-0.7-1.4-1.8-1.4
			c-0.8,0-1.6,0.2-2.1,0.4l-0.4-1c0.5-0.2,1.6-0.6,2.8-0.6c1.7,0,3,0.7,3,2.7v4.9C576.2,342.9,575.2,343.1,573.9,343.1z
			 M575.3,338.6c-1.9,0.2-3.2,0.6-3.2,2.1c0,1,0.7,1.5,1.9,1.5c0.5,0,1-0.1,1.3-0.3V338.6z"/>
		<path class="st8" d="M581.4,343.1c-1.6,0-2.3-1.1-2.3-2.1v-4.8H578v-1h1.1v-1.7l1.7-0.5v2.2h1.5v1h-1.5v4.7c0,0.6,0.4,1.1,1.1,1.1
			c0.2,0,0.3,0,0.4-0.1v1C582.2,343,581.8,343.1,581.4,343.1z"/>
		<path class="st8" d="M584.5,333.8c-0.5,0-1-0.4-1-0.9s0.4-0.9,1-0.9c0.5,0,1,0.4,1,0.9C585.4,333.4,585,333.8,584.5,333.8z
			 M583.6,342.9v-7.8h1.7v7.8H583.6z"/>
		<path class="st8" d="M588.9,343.1c-1,0-1.9-0.3-2.3-0.6l0.4-1.1c0.3,0.2,1,0.5,1.7,0.5c0.8,0,1.5-0.5,1.5-1.2c0-1.8-3.4-1-3.4-3.5
			c0-1.2,1-2.3,2.7-2.3c1,0,1.7,0.2,2.2,0.6l-0.4,1c-0.3-0.2-0.8-0.4-1.4-0.4c-0.9,0-1.4,0.5-1.4,1.1c0,1.7,3.5,1,3.5,3.6
			C591.9,341.9,590.8,343.1,588.9,343.1z"/>
		<path class="st8" d="M596.1,343.1c-1.6,0-2.3-1.1-2.3-2.1v-4.8h-1.1v-1h1.1v-1.7l1.7-0.5v2.2h1.5v1h-1.5v4.7
			c0,0.6,0.4,1.1,1.1,1.1c0.2,0,0.3,0,0.4-0.1v1C596.9,343,596.6,343.1,596.1,343.1z"/>
		<path class="st8" d="M599.2,333.8c-0.5,0-1-0.4-1-0.9s0.4-0.9,1-0.9s1,0.4,1,0.9S599.7,333.8,599.2,333.8z M598.4,342.9v-7.8h1.7
			v7.8H598.4z"/>
		<path class="st8" d="M604.8,343.1c-1.9,0-3.4-1.6-3.4-4.1c0-2.6,1.5-4.1,3.4-4.1c1,0,1.6,0.3,2,0.6l-0.4,0.9
			c-0.2-0.2-0.7-0.4-1.2-0.4c-1.3,0-2.1,1.2-2.1,2.9c0,1.8,0.8,2.9,2,2.9c0.5,0,0.9-0.2,1.2-0.4l0.4,1
			C606.5,342.8,605.8,343.1,604.8,343.1z"/>
		<path class="st8" d="M609.9,343.1c-1,0-1.9-0.3-2.3-0.6l0.4-1.1c0.3,0.2,1,0.5,1.7,0.5c0.8,0,1.5-0.5,1.5-1.2c0-1.8-3.4-1-3.4-3.5
			c0-1.2,1-2.3,2.7-2.3c1,0,1.7,0.2,2.2,0.6l-0.4,1c-0.3-0.2-0.8-0.4-1.4-0.4c-0.9,0-1.4,0.5-1.4,1.1c0,1.7,3.5,1,3.5,3.6
			C612.9,341.9,611.8,343.1,609.9,343.1z"/>
	</g>
	<g>
		<path class="st8" d="M424.5,338.6c0.2-0.5,0.4-0.9,0.7-1.4c-0.3-0.8-0.5-1.2-0.7-2C424.5,336.6,424.5,337.5,424.5,338.6z M426,329
			c0,0-1.5,0-1.5,1.9c0,0.1,0-0.2,0,0.3c0.1,1.7,0.7,3.5,1.3,5.1c0.9-1.4,1.7-2.2,2.9-3.3c2.5-2.1,5.4-3.4,10-4H426z"/>
		<path class="st8" d="M440.9,330c-5.2,0.5-8.8,2-11.3,4.2c-1.4,1.2-2.2,2.1-3.1,3.7c2,3.9,6.1,7.1,12.4,7.6h0.1c0,0,2,0.1,2-2.1
			L440.9,330L440.9,330z M427.5,341.1c-0.6-0.7-1.1-1.5-1.6-2.3c-0.6,1.1-1,2.2-1.4,3.4c0,1.9,0,3.2,0,3.2h9.6
			C431,344.5,429.2,343.1,427.5,341.1z"/>
	</g>
</g>
<g>
	<path class="st8" d="M37.1,335.8c0,0.7-0.3,1.3-0.8,1.7c-0.5,0.4-1.2,0.6-2.1,0.6c-1,0-1.7-0.1-2.2-0.4v-0.9
		c0.3,0.1,0.7,0.3,1.1,0.3c0.4,0.1,0.8,0.1,1.2,0.1c0.6,0,1.1-0.1,1.4-0.4c0.3-0.2,0.5-0.6,0.5-1c0-0.3-0.1-0.5-0.2-0.7
		s-0.3-0.3-0.6-0.5s-0.7-0.3-1.2-0.5c-0.8-0.3-1.3-0.6-1.6-1s-0.5-0.8-0.5-1.4s0.2-1.1,0.7-1.5s1.1-0.6,1.9-0.6
		c0.8,0,1.5,0.1,2.2,0.4l-0.3,0.8c-0.7-0.3-1.3-0.4-1.9-0.4c-0.5,0-0.9,0.1-1.2,0.3s-0.4,0.5-0.4,0.9c0,0.3,0.1,0.5,0.2,0.7
		c0.1,0.2,0.3,0.3,0.5,0.5s0.6,0.3,1.1,0.5c0.8,0.3,1.4,0.6,1.7,1C36.9,334.8,37.1,335.2,37.1,335.8z"/>
	<path class="st8" d="M43.8,334.9c0,1-0.2,1.8-0.7,2.3c-0.5,0.6-1.2,0.8-2.1,0.8c-0.5,0-1-0.1-1.4-0.4s-0.7-0.6-1-1.1
		c-0.2-0.5-0.3-1-0.3-1.7c0-1,0.2-1.8,0.7-2.3s1.2-0.8,2.1-0.8c0.8,0,1.5,0.3,2,0.8C43.6,333.2,43.8,334,43.8,334.9z M39.2,334.9
		c0,0.8,0.2,1.4,0.5,1.8s0.8,0.6,1.4,0.6s1.1-0.2,1.4-0.6c0.3-0.4,0.5-1,0.5-1.8s-0.2-1.4-0.5-1.8s-0.8-0.6-1.4-0.6
		c-0.6,0-1.1,0.2-1.4,0.6S39.2,334.1,39.2,334.9z"/>
	<path class="st8" d="M46.3,331.9v3.9c0,0.5,0.1,0.9,0.3,1.1s0.6,0.4,1.1,0.4c0.6,0,1.1-0.2,1.4-0.5c0.3-0.3,0.4-0.9,0.4-1.7v-3.2
		h0.9v6.1h-0.8l-0.1-0.8l0,0c-0.2,0.3-0.4,0.5-0.8,0.7s-0.7,0.2-1.1,0.2c-0.7,0-1.3-0.2-1.7-0.5s-0.5-0.9-0.5-1.7v-4H46.3z"/>
	<path class="st8" d="M55.1,331.8c0.3,0,0.5,0,0.7,0.1l-0.1,0.9c-0.3-0.1-0.5-0.1-0.7-0.1c-0.5,0-0.9,0.2-1.3,0.6
		c-0.3,0.4-0.5,0.9-0.5,1.5v3.2h-0.9v-6.1h0.8l0.1,1.1l0,0c0.2-0.4,0.5-0.7,0.8-0.9C54.4,331.9,54.7,331.8,55.1,331.8z"/>
	<path class="st8" d="M59.4,338.1c-0.9,0-1.6-0.3-2-0.8c-0.5-0.5-0.7-1.3-0.7-2.3s0.2-1.8,0.7-2.3c0.5-0.6,1.2-0.8,2.1-0.8
		c0.3,0,0.6,0,0.9,0.1c0.3,0.1,0.5,0.1,0.7,0.2l-0.3,0.8c-0.2-0.1-0.4-0.1-0.7-0.2c-0.2-0.1-0.5-0.1-0.6-0.1c-1.2,0-1.8,0.8-1.8,2.4
		c0,0.7,0.1,1.3,0.4,1.7c0.3,0.4,0.7,0.6,1.3,0.6c0.5,0,1-0.1,1.6-0.3v0.8C60.5,338,60,338.1,59.4,338.1z"/>
	<path class="st8" d="M64.9,338.1c-0.9,0-1.6-0.3-2.1-0.8S62,336,62,335s0.2-1.8,0.7-2.3c0.5-0.6,1.1-0.9,1.9-0.9
		c0.8,0,1.4,0.2,1.8,0.7s0.7,1.2,0.7,2v0.6H63c0,0.7,0.2,1.2,0.5,1.6s0.8,0.6,1.4,0.6c0.7,0,1.3-0.1,1.9-0.4v0.8
		c-0.3,0.1-0.6,0.2-0.9,0.3C65.7,338,65.3,338.1,64.9,338.1z M64.7,332.6c-0.5,0-0.9,0.2-1.2,0.5s-0.5,0.8-0.5,1.3h3.2
		c0-0.6-0.1-1-0.4-1.3C65.5,332.7,65.1,332.6,64.7,332.6z"/>
	<path class="st8" d="M68.6,332.5c0-0.5,0.2-0.7,0.7-0.7s0.7,0.2,0.7,0.7c0,0.2-0.1,0.4-0.2,0.6c-0.1,0.1-0.3,0.2-0.5,0.2
		s-0.3-0.1-0.5-0.2C68.6,332.9,68.6,332.8,68.6,332.5z M68.6,337.4c0-0.2,0.1-0.4,0.2-0.6c0.1-0.1,0.3-0.2,0.5-0.2s0.4,0.1,0.5,0.2
		s0.2,0.3,0.2,0.6c0,0.2-0.1,0.4-0.2,0.6s-0.3,0.2-0.5,0.2s-0.3-0.1-0.5-0.2C68.6,337.8,68.6,337.6,68.6,337.4z"/>
	<path class="st8" d="M78.3,333.7H81v3.9c-0.4,0.1-0.9,0.2-1.3,0.3c-0.4,0.1-1,0.1-1.5,0.1c-1.2,0-2.2-0.4-2.9-1.1
		c-0.7-0.7-1-1.7-1-3.1c0-0.8,0.2-1.6,0.5-2.2s0.8-1.1,1.5-1.4c0.6-0.3,1.4-0.5,2.2-0.5c0.9,0,1.7,0.2,2.4,0.5l-0.4,0.8
		c-0.7-0.3-1.4-0.5-2.1-0.5c-1,0-1.8,0.3-2.3,0.9c-0.6,0.6-0.8,1.4-0.8,2.4c0,1.1,0.3,1.9,0.8,2.5s1.3,0.8,2.3,0.8
		c0.6,0,1.1-0.1,1.6-0.2v-2.5h-1.8v-0.7L78.3,333.7L78.3,333.7z"/>
	<path class="st8" d="M89.5,333.8c0,1.3-0.4,2.4-1.1,3.1s-1.8,1.1-3.1,1.1H83v-8.1h2.5c1.3,0,2.2,0.3,2.9,1S89.5,332.6,89.5,333.8z
		 M88.5,333.9c0-1.1-0.3-1.8-0.8-2.4s-1.3-0.8-2.4-0.8H84v6.4h1.1c1.1,0,2-0.3,2.5-0.8C88.2,335.8,88.5,334.9,88.5,333.9z"/>
	<path class="st8" d="M96.4,332.2c0,0.8-0.3,1.4-0.8,1.9s-1.4,0.7-2.4,0.7h-0.9v3.2h-0.9v-8.1h2.1C95.4,329.9,96.4,330.7,96.4,332.2
		z M92.2,334H93c0.8,0,1.4-0.1,1.8-0.4s0.6-0.7,0.6-1.3c0-0.5-0.2-0.9-0.5-1.2c-0.4-0.3-0.9-0.4-1.6-0.4h-1v3.3H92.2z"/>
	<path class="st8" d="M98.9,336.6l0.1,0.1c-0.1,0.4-0.2,0.8-0.4,1.3c-0.2,0.5-0.4,0.9-0.6,1.4h-0.7c0.1-0.4,0.2-0.9,0.3-1.4
		c0.1-0.6,0.2-1,0.3-1.4H98.9z"/>
	<path class="st8" d="M106.5,338.1c-0.4,0-0.8-0.1-1.1-0.2c-0.3-0.1-0.6-0.4-0.8-0.7h-0.1c0,0.4,0.1,0.7,0.1,1v2.5h-0.9v-8.8h0.7
		l0.1,0.8l0,0c0.2-0.3,0.5-0.6,0.8-0.7s0.7-0.2,1.1-0.2c0.8,0,1.4,0.3,1.9,0.8c0.4,0.5,0.7,1.3,0.7,2.3s-0.2,1.8-0.7,2.3
		C107.9,337.8,107.3,338.1,106.5,338.1z M106.3,332.6c-0.6,0-1.1,0.2-1.3,0.5c-0.3,0.3-0.4,0.9-0.4,1.6v0.2c0,0.9,0.1,1.5,0.4,1.8
		c0.3,0.4,0.7,0.5,1.4,0.5c0.5,0,0.9-0.2,1.2-0.6s0.4-1,0.4-1.8s-0.1-1.3-0.4-1.7C107.3,332.8,106.9,332.6,106.3,332.6z"/>
	<path class="st8" d="M113.3,331.8c0.3,0,0.5,0,0.7,0.1l-0.1,0.9c-0.3-0.1-0.5-0.1-0.7-0.1c-0.5,0-0.9,0.2-1.3,0.6
		c-0.3,0.4-0.5,0.9-0.5,1.5v3.2h-0.9v-6.1h0.8l0.1,1.1l0,0c0.2-0.4,0.5-0.7,0.8-0.9C112.6,331.9,113,331.8,113.3,331.8z"/>
	<path class="st8" d="M117.8,338.1c-0.9,0-1.6-0.3-2.1-0.8s-0.8-1.3-0.8-2.3s0.2-1.8,0.7-2.3c0.5-0.6,1.1-0.9,1.9-0.9
		s1.4,0.2,1.8,0.7s0.7,1.2,0.7,2v0.6h-4.2c0,0.7,0.2,1.2,0.5,1.6s0.8,0.6,1.4,0.6c0.7,0,1.3-0.1,1.9-0.4v0.8
		c-0.3,0.1-0.6,0.2-0.9,0.3C118.5,338,118.2,338.1,117.8,338.1z M117.5,332.6c-0.5,0-0.9,0.2-1.2,0.5c-0.3,0.3-0.5,0.8-0.5,1.3h3.2
		c0-0.6-0.1-1-0.4-1.3C118.4,332.7,118,332.6,117.5,332.6z"/>
	<path class="st8" d="M122.5,338h-0.9v-8.6h0.9V338z"/>
	<path class="st8" d="M124.3,330.3c0-0.2,0.1-0.4,0.2-0.5s0.2-0.1,0.4-0.1c0.1,0,0.3,0,0.4,0.1s0.2,0.3,0.2,0.5s-0.1,0.4-0.2,0.5
		s-0.2,0.2-0.4,0.2c-0.2,0-0.3-0.1-0.4-0.2S124.3,330.5,124.3,330.3z M125.3,338h-0.9v-6.1h0.9V338z"/>
	<path class="st8" d="M135,338v-4c0-0.5-0.1-0.8-0.3-1.1c-0.2-0.2-0.5-0.4-1-0.4c-0.6,0-1,0.2-1.3,0.5s-0.4,0.8-0.4,1.5v3.4h-0.9
		V334c0-0.5-0.1-0.8-0.3-1.1c-0.2-0.2-0.5-0.4-1-0.4c-0.6,0-1,0.2-1.3,0.5s-0.4,0.9-0.4,1.7v3.2h-0.9v-6.1h0.7l0.1,0.8l0,0
		c0.2-0.3,0.4-0.5,0.7-0.7s0.7-0.2,1.1-0.2c0.9,0,1.6,0.3,1.9,1l0,0c0.2-0.3,0.4-0.6,0.8-0.8s0.7-0.3,1.2-0.3c0.7,0,1.2,0.2,1.5,0.5
		s0.5,0.9,0.5,1.7v3.9H135V338z"/>
	<path class="st8" d="M137.7,330.3c0-0.2,0.1-0.4,0.2-0.5c0.1-0.1,0.2-0.1,0.4-0.1c0.1,0,0.3,0,0.4,0.1c0.1,0.1,0.2,0.3,0.2,0.5
		s-0.1,0.4-0.2,0.5c-0.1,0.1-0.2,0.2-0.4,0.2s-0.3-0.1-0.4-0.2S137.7,330.5,137.7,330.3z M138.7,338h-0.9v-6.1h0.9V338z"/>
	<path class="st8" d="M144.8,338v-4c0-0.5-0.1-0.9-0.3-1.1s-0.6-0.4-1.1-0.4c-0.6,0-1.1,0.2-1.4,0.5c-0.3,0.3-0.4,0.9-0.4,1.7v3.2
		h-0.9v-6.1h0.7l0.1,0.8l0,0c0.2-0.3,0.5-0.5,0.8-0.7s0.7-0.2,1.1-0.2c0.7,0,1.3,0.2,1.6,0.5s0.6,0.9,0.6,1.7v3.9h-0.8L144.8,338
		L144.8,338z"/>
	<path class="st8" d="M151.3,338l-0.2-0.9l0,0c-0.3,0.4-0.6,0.6-0.9,0.8c-0.3,0.1-0.7,0.2-1.1,0.2c-0.6,0-1.1-0.2-1.4-0.5
		c-0.3-0.3-0.5-0.7-0.5-1.3c0-1.2,1-1.9,2.9-1.9h1V334c0-0.5-0.1-0.8-0.3-1.1c-0.2-0.2-0.5-0.3-1-0.3s-1.1,0.2-1.7,0.5l-0.3-0.7
		c0.3-0.2,0.6-0.3,1-0.4s0.7-0.1,1.1-0.1c0.7,0,1.3,0.2,1.6,0.5s0.5,0.8,0.5,1.5v4.1H151.3L151.3,338z M149.2,337.3
		c0.6,0,1-0.2,1.3-0.5s0.5-0.8,0.5-1.3V335h-0.9c-0.7,0-1.3,0.1-1.6,0.3c-0.3,0.2-0.5,0.5-0.5,0.9c0,0.3,0.1,0.6,0.3,0.8
		C148.6,337.2,148.9,337.3,149.2,337.3z"/>
	<path class="st8" d="M156.6,331.8c0.3,0,0.5,0,0.7,0.1l-0.1,0.9c-0.3-0.1-0.5-0.1-0.7-0.1c-0.5,0-0.9,0.2-1.3,0.6
		c-0.3,0.4-0.5,0.9-0.5,1.5v3.2h-0.9v-6.1h0.8l0.1,1.1l0,0c0.2-0.4,0.5-0.7,0.8-0.9C155.9,331.9,156.3,331.8,156.6,331.8z"/>
	<path class="st8" d="M157.5,331.9h1l1.3,3.5c0.3,0.8,0.5,1.4,0.5,1.7l0,0c0-0.2,0.1-0.5,0.3-1s0.7-1.9,1.5-4.2h1l-2.6,6.9
		c-0.3,0.7-0.6,1.2-0.9,1.4c-0.3,0.3-0.8,0.4-1.3,0.4c-0.3,0-0.6,0-0.8-0.1v-0.7c0.2,0,0.4,0.1,0.7,0.1c0.6,0,1.1-0.4,1.3-1.1
		l0.3-0.9L157.5,331.9z"/>
	<path class="st8" d="M169.7,338.1c-0.9,0-1.6-0.3-2.1-0.8s-0.8-1.3-0.8-2.3s0.2-1.8,0.7-2.3c0.5-0.6,1.1-0.9,1.9-0.9
		c0.8,0,1.4,0.2,1.8,0.7c0.4,0.5,0.7,1.2,0.7,2v0.6h-4.2c0,0.7,0.2,1.2,0.5,1.6s0.8,0.6,1.4,0.6c0.7,0,1.3-0.1,1.9-0.4v0.8
		c-0.3,0.1-0.6,0.2-0.9,0.3C170.4,338,170.1,338.1,169.7,338.1z M169.4,332.6c-0.5,0-0.9,0.2-1.2,0.5s-0.5,0.8-0.5,1.3h3.2
		c0-0.6-0.1-1-0.4-1.3C170.3,332.7,169.9,332.6,169.4,332.6z"/>
	<path class="st8" d="M177.4,336.3c0,0.6-0.2,1-0.6,1.3c-0.4,0.3-1,0.5-1.8,0.5s-1.4-0.1-1.9-0.4v-0.9c0.3,0.1,0.6,0.3,0.9,0.3
		c0.3,0.1,0.7,0.1,1,0.1c0.5,0,0.8-0.1,1.1-0.2c0.3-0.2,0.4-0.4,0.4-0.7c0-0.2-0.1-0.4-0.3-0.6s-0.6-0.4-1.2-0.6
		c-0.6-0.2-1-0.4-1.2-0.5c-0.2-0.2-0.4-0.3-0.5-0.5s-0.2-0.4-0.2-0.7c0-0.5,0.2-0.9,0.6-1.2c0.4-0.3,1-0.4,1.7-0.4s1.3,0.1,1.9,0.4
		l-0.3,0.7c-0.6-0.2-1.2-0.4-1.7-0.4c-0.4,0-0.8,0.1-1,0.2s-0.3,0.3-0.3,0.6c0,0.2,0,0.3,0.1,0.4s0.2,0.2,0.4,0.3s0.5,0.3,1.1,0.4
		c0.7,0.3,1.2,0.5,1.5,0.8S177.4,335.9,177.4,336.3z"/>
	<path class="st8" d="M180.8,337.3c0.2,0,0.3,0,0.5,0s0.3,0,0.4-0.1v0.7c-0.1,0-0.2,0.1-0.4,0.1s-0.4,0-0.5,0
		c-1.2,0-1.8-0.6-1.8-1.8v-3.6h-0.9v-0.4l0.9-0.4l0.4-1.3h0.5v1.4h1.8v0.7h-1.8v3.6c0,0.4,0.1,0.6,0.3,0.8
		C180.3,337.2,180.5,337.3,180.8,337.3z"/>
	<path class="st8" d="M182.8,330.3c0-0.2,0.1-0.4,0.2-0.5c0.1-0.1,0.2-0.1,0.4-0.1c0.1,0,0.3,0,0.4,0.1c0.1,0.1,0.2,0.3,0.2,0.5
		s-0.1,0.4-0.2,0.5c-0.1,0.1-0.2,0.2-0.4,0.2s-0.3-0.1-0.4-0.2S182.8,330.5,182.8,330.3z M183.8,338h-0.9v-6.1h0.9V338z"/>
	<path class="st8" d="M193.4,338v-4c0-0.5-0.1-0.8-0.3-1.1c-0.2-0.2-0.5-0.4-1-0.4c-0.6,0-1,0.2-1.3,0.5s-0.4,0.8-0.4,1.5v3.4h-0.9
		V334c0-0.5-0.1-0.8-0.3-1.1c-0.2-0.2-0.5-0.4-1-0.4c-0.6,0-1,0.2-1.3,0.5s-0.4,0.9-0.4,1.7v3.2h-0.9v-6.1h0.7l0.1,0.8l0,0
		c0.2-0.3,0.4-0.5,0.7-0.7s0.7-0.2,1.1-0.2c0.9,0,1.6,0.3,1.9,1l0,0c0.2-0.3,0.4-0.6,0.8-0.8s0.7-0.3,1.2-0.3c0.7,0,1.2,0.2,1.5,0.5
		s0.5,0.9,0.5,1.7v3.9h-0.7L193.4,338L193.4,338z"/>
	<path class="st8" d="M200,338l-0.2-0.9l0,0c-0.3,0.4-0.6,0.6-0.9,0.8c-0.3,0.1-0.7,0.2-1.1,0.2c-0.6,0-1.1-0.2-1.4-0.5
		c-0.3-0.3-0.5-0.7-0.5-1.3c0-1.2,1-1.9,2.9-1.9h1V334c0-0.5-0.1-0.8-0.3-1.1c-0.2-0.2-0.5-0.3-1-0.3s-1.1,0.2-1.7,0.5l-0.3-0.7
		c0.3-0.2,0.6-0.3,1-0.4s0.7-0.1,1.1-0.1c0.7,0,1.3,0.2,1.6,0.5s0.5,0.8,0.5,1.5v4.1H200L200,338z M197.9,337.3c0.6,0,1-0.2,1.3-0.5
		s0.5-0.8,0.5-1.3V335h-0.9c-0.7,0-1.3,0.1-1.6,0.3c-0.3,0.2-0.5,0.5-0.5,0.9c0,0.3,0.1,0.6,0.3,0.8
		C197.2,337.2,197.5,337.3,197.9,337.3z"/>
	<path class="st8" d="M204.5,337.3c0.2,0,0.3,0,0.5,0s0.3,0,0.4-0.1v0.7c-0.1,0-0.2,0.1-0.4,0.1s-0.4,0-0.5,0
		c-1.2,0-1.8-0.6-1.8-1.8v-3.6h-0.9v-0.4l0.9-0.4l0.4-1.3h0.5v1.4h1.8v0.7h-1.8v3.6c0,0.4,0.1,0.6,0.3,0.8
		C203.9,337.2,204.2,337.3,204.5,337.3z"/>
	<path class="st8" d="M209.1,338.1c-0.9,0-1.6-0.3-2.1-0.8s-0.8-1.3-0.8-2.3s0.2-1.8,0.7-2.3c0.5-0.6,1.1-0.9,1.9-0.9
		c0.8,0,1.4,0.2,1.8,0.7c0.4,0.5,0.7,1.2,0.7,2v0.6h-4.2c0,0.7,0.2,1.2,0.5,1.6s0.8,0.6,1.4,0.6c0.7,0,1.3-0.1,1.9-0.4v0.8
		c-0.3,0.1-0.6,0.2-0.9,0.3C209.8,338,209.5,338.1,209.1,338.1z M208.8,332.6c-0.5,0-0.9,0.2-1.2,0.5s-0.5,0.8-0.5,1.3h3.2
		c0-0.6-0.1-1-0.4-1.3C209.7,332.7,209.3,332.6,208.8,332.6z"/>
	<path class="st8" d="M213.8,336.6l0.1,0.1c-0.1,0.4-0.2,0.8-0.4,1.3s-0.4,0.9-0.6,1.4h-0.7c0.1-0.4,0.2-0.9,0.3-1.4
		c0.1-0.6,0.2-1,0.3-1.4H213.8z"/>
	<path class="st8" d="M217.5,340.1c-0.3,0-0.6,0-0.8-0.1v-0.8c0.3,0.1,0.5,0.1,0.8,0.1c0.4,0,0.6-0.1,0.8-0.3c0.2-0.2,0.3-0.5,0.3-1
		v-8.1h0.9v8c0,0.7-0.2,1.2-0.5,1.6C218.7,339.9,218.2,340.1,217.5,340.1z"/>
	<path class="st8" d="M225.3,338l-0.2-0.9l0,0c-0.3,0.4-0.6,0.6-0.9,0.8c-0.3,0.1-0.7,0.2-1.1,0.2c-0.6,0-1.1-0.2-1.4-0.5
		c-0.3-0.3-0.5-0.7-0.5-1.3c0-1.2,1-1.9,2.9-1.9h1V334c0-0.5-0.1-0.8-0.3-1.1c-0.2-0.2-0.5-0.3-1-0.3s-1.1,0.2-1.7,0.5l-0.3-0.7
		c0.3-0.2,0.6-0.3,1-0.4s0.7-0.1,1.1-0.1c0.7,0,1.3,0.2,1.6,0.5s0.5,0.8,0.5,1.5v4.1H225.3L225.3,338z M223.2,337.3
		c0.6,0,1-0.2,1.3-0.5s0.5-0.8,0.5-1.3V335h-0.9c-0.7,0-1.3,0.1-1.6,0.3c-0.3,0.2-0.5,0.5-0.5,0.9c0,0.3,0.1,0.6,0.3,0.8
		C222.6,337.2,222.9,337.3,223.2,337.3z"/>
	<path class="st8" d="M232,338v-4c0-0.5-0.1-0.9-0.3-1.1s-0.6-0.4-1.1-0.4c-0.6,0-1.1,0.2-1.4,0.5c-0.3,0.3-0.4,0.9-0.4,1.7v3.2
		h-0.9v-6.1h0.7l0.1,0.8l0,0c0.2-0.3,0.5-0.5,0.8-0.7s0.7-0.2,1.1-0.2c0.7,0,1.3,0.2,1.6,0.5s0.6,0.9,0.6,1.7v3.9H232V338z"/>
	<path class="st8" d="M239.7,337.3c0.2,0,0.3,0,0.5,0s0.3,0,0.4-0.1v0.7c-0.1,0-0.2,0.1-0.4,0.1s-0.4,0-0.5,0
		c-1.2,0-1.8-0.6-1.8-1.8v-3.6H237v-0.4l0.9-0.4l0.4-1.3h0.5v1.4h1.8v0.7h-1.8v3.6c0,0.4,0.1,0.6,0.3,0.8
		C239.2,337.2,239.4,337.3,239.7,337.3z"/>
	<path class="st8" d="M247,334.9c0,1-0.2,1.8-0.7,2.3c-0.5,0.6-1.2,0.8-2.1,0.8c-0.5,0-1-0.1-1.4-0.4s-0.7-0.6-1-1.1
		c-0.2-0.5-0.3-1-0.3-1.7c0-1,0.2-1.8,0.7-2.3s1.2-0.8,2.1-0.8c0.8,0,1.5,0.3,2,0.8C246.7,333.2,247,334,247,334.9z M242.4,334.9
		c0,0.8,0.2,1.4,0.5,1.8s0.8,0.6,1.4,0.6s1.1-0.2,1.4-0.6c0.3-0.4,0.5-1,0.5-1.8s-0.2-1.4-0.5-1.8s-0.8-0.6-1.4-0.6
		c-0.6,0-1.1,0.2-1.4,0.6S242.4,334.1,242.4,334.9z"/>
	<path class="st8" d="M255.2,338l-2.7-7.2l0,0c0.1,0.6,0.1,1.2,0.1,2v5.1h-0.9v-8.1h1.4l2.6,6.7l0,0l2.6-6.7h1.4v8.1h-0.9v-5.2
		c0-0.6,0-1.2,0.1-1.9l0,0L256,338H255.2z"/>
	<path class="st8" d="M265.5,338l-0.2-0.9l0,0c-0.3,0.4-0.6,0.6-0.9,0.8c-0.3,0.1-0.7,0.2-1.1,0.2c-0.6,0-1.1-0.2-1.4-0.5
		s-0.5-0.7-0.5-1.3c0-1.2,1-1.9,2.9-1.9h1V334c0-0.5-0.1-0.8-0.3-1.1c-0.2-0.2-0.5-0.3-1-0.3s-1.1,0.2-1.7,0.5l-0.3-0.7
		c0.3-0.2,0.6-0.3,1-0.4s0.7-0.1,1.1-0.1c0.7,0,1.3,0.2,1.6,0.5c0.3,0.3,0.5,0.8,0.5,1.5v4.1H265.5L265.5,338z M263.4,337.3
		c0.6,0,1-0.2,1.3-0.5s0.5-0.8,0.5-1.3V335h-0.9c-0.7,0-1.3,0.1-1.6,0.3c-0.3,0.2-0.5,0.5-0.5,0.9c0,0.3,0.1,0.6,0.3,0.8
		C262.7,337.2,263,337.3,263.4,337.3z"/>
	<path class="st8" d="M270.8,331.8c0.3,0,0.5,0,0.7,0.1l-0.1,0.9c-0.3-0.1-0.5-0.1-0.7-0.1c-0.5,0-0.9,0.2-1.3,0.6
		c-0.3,0.4-0.5,0.9-0.5,1.5v3.2H268v-6.1h0.8l0.1,1.1l0,0c0.2-0.4,0.5-0.7,0.8-0.9C270.1,331.9,270.4,331.8,270.8,331.8z"/>
	<path class="st8" d="M280.5,338h-5.3v-0.8l2.1-2.1c0.6-0.7,1.1-1.1,1.3-1.4c0.2-0.3,0.4-0.6,0.5-0.8s0.2-0.6,0.2-0.9
		c0-0.4-0.1-0.8-0.4-1c-0.3-0.3-0.6-0.4-1.1-0.4c-0.3,0-0.7,0.1-1,0.2s-0.6,0.3-1,0.6l-0.5-0.6c0.7-0.6,1.6-0.9,2.4-0.9
		s1.4,0.2,1.8,0.6s0.6,0.9,0.6,1.6c0,0.5-0.1,1-0.4,1.5s-0.8,1.1-1.6,1.9l-1.8,1.7l0,0h4.2L280.5,338L280.5,338z"/>
	<path class="st8" d="M287,333.9c0,1.4-0.2,2.4-0.7,3.1c-0.4,0.7-1.1,1-2,1s-1.5-0.4-2-1.1s-0.7-1.7-0.7-3.1s0.2-2.5,0.7-3.1
		c0.4-0.7,1.1-1,2-1s1.5,0.4,2,1.1C286.7,331.5,287,332.6,287,333.9z M282.6,333.9c0,1.2,0.1,2,0.4,2.6c0.3,0.5,0.7,0.8,1.3,0.8
		c0.6,0,1.1-0.3,1.3-0.8s0.4-1.4,0.4-2.6s-0.1-2-0.4-2.5s-0.7-0.8-1.3-0.8c-0.6,0-1,0.3-1.3,0.8S282.6,332.7,282.6,333.9z"/>
	<path class="st8" d="M291.5,338h-0.9v-5.8c0-0.5,0-0.9,0-1.4c-0.1,0.1-0.2,0.2-0.3,0.2c-0.1,0.1-0.5,0.4-1.3,1.1l-0.5-0.6l2.1-1.7
		h0.8L291.5,338L291.5,338z"/>
	<path class="st8" d="M295.6,338l3.3-7.2h-4.4V330h5.4v0.7l-3.3,7.3H295.6z"/>
</g>
<line class="st14" x1="704" y1="52.1" x2="175.7" y2="52.1"/>
<circle class="st14" cx="174" cy="52.1" r="3.7"/>
</svg>
