<?xml version="1.0" encoding="utf-8"?>
<!-- Generator: Adobe Illustrator 21.0.2, SVG Export Plug-In . SVG Version: 6.00 Build 0)  -->
<svg version="1.1" id="Layer_1" xmlns="http://www.w3.org/2000/svg" xmlns:xlink="http://www.w3.org/1999/xlink" x="0px" y="0px"
	 viewBox="0 0 944 460" style="enable-background:new 0 0 944 460;" xml:space="preserve">
<style type="text/css">
	.st0{fill:#414042;}
	.st1{font-family:'OpenSans';}
	.st2{font-size:18px;}
	.st3{font-family:'OpenSans-Semibold';}
	.st4{fill:#D2376D;}
	.st5{opacity:0.3;fill:#FFFFFF;enable-background:new    ;}
	.st6{fill:none;}
	.st7{enable-background:new    ;}
	.st8{fill:#FFFFFF;}
	.st9{fill:none;stroke:#414042;stroke-miterlimit:10;}
	.st10{clip-path:url(#SVGID_2_);}
	.st11{fill:#003C57;}
	.st12{opacity:0.65;fill:#EB92BB;enable-background:new    ;}
	.st13{fill:#FFFFFF;stroke:#414042;stroke-miterlimit:10;}
	.st14{opacity:0.25;fill:#FFFFFF;enable-background:new    ;}
</style>
<text transform="matrix(1 0 0 1 748.7939 333.4629)" class="st0 st1 st2">ONS logo</text>
<text transform="matrix(1 0 0 1 748.7939 355.0629)" class="st0 st3 st2">300px wide</text>
<g>
	<rect class="st4" width="644.4" height="360.6"/>
</g>
<rect y="329.2" class="st5" width="644.4" height="31.5"/>
<rect x="31.5" y="206.4" class="st6" width="298.9" height="41.5"/>
<g class="st7">
	<path class="st8" d="M38.1,218.8l-3.4-9.8h-0.1c0.1,1.4,0.1,2.8,0.1,4.1v5.7H33v-11.7h2.7l3.2,9.3l0,0l3.3-9.3H45v11.7h-1.8V213
		c0-0.6,0-1.3,0-2.3c0-0.9,0.1-1.5,0.1-1.7h-0.1l-3.5,9.7h-1.6V218.8z"/>
	<path class="st8" d="M53.4,218.8l-0.4-1.2l0,0c-0.4,0.5-0.9,0.9-1.3,1.1c-0.4,0.2-1,0.3-1.7,0.3c-0.9,0-1.5-0.2-2-0.7
		s-0.7-1.1-0.7-2s0.3-1.6,1-2.1s1.7-0.7,3.1-0.8h1.5V213c0-0.6-0.1-1-0.4-1.3s-0.7-0.4-1.2-0.4s-0.9,0.1-1.3,0.2
		c-0.4,0.1-0.8,0.3-1.2,0.5l-0.6-1.3c0.5-0.2,1-0.4,1.6-0.6c0.6-0.1,1.1-0.2,1.6-0.2c1.1,0,2,0.2,2.5,0.7c0.6,0.5,0.9,1.3,0.9,2.3v6
		L53.4,218.8L53.4,218.8z M50.6,217.5c0.7,0,1.2-0.2,1.6-0.6s0.6-0.9,0.6-1.6v-0.8h-1.1c-0.9,0-1.5,0.2-1.9,0.4
		c-0.4,0.3-0.6,0.7-0.6,1.2c0,0.4,0.1,0.7,0.4,0.9S50.2,217.5,50.6,217.5z"/>
	<path class="st8" d="M61.9,209.8c0.4,0,0.7,0,0.9,0.1l-0.2,1.7c-0.3-0.1-0.5-0.1-0.8-0.1c-0.8,0-1.4,0.2-1.8,0.7
		c-0.5,0.5-0.7,1.1-0.7,1.9v4.6h-1.9V210h1.5l0.2,1.6h0.1c0.3-0.5,0.7-0.9,1.1-1.3C60.8,210,61.3,209.8,61.9,209.8z"/>
	<path class="st8" d="M68,219c-1.3,0-2.4-0.4-3-1.2c-0.7-0.8-1-1.9-1-3.4s0.4-2.6,1.1-3.4s1.8-1.2,3.2-1.2c0.9,0,1.8,0.2,2.5,0.5
		l-0.6,1.5c-0.8-0.3-1.4-0.5-2-0.5c-1.5,0-2.3,1-2.3,3c0,1,0.2,1.7,0.6,2.2s0.9,0.7,1.7,0.7c0.8,0,1.6-0.2,2.4-0.6v1.6
		c-0.3,0.2-0.7,0.3-1.1,0.4S68.6,219,68,219z"/>
	<path class="st8" d="M80.3,218.8h-1.9v-5.4c0-0.7-0.1-1.2-0.4-1.5s-0.7-0.5-1.3-0.5c-0.8,0-1.4,0.2-1.7,0.7
		c-0.4,0.5-0.6,1.3-0.6,2.4v4.4h-1.9v-12.4h1.9v3.2c0,0.5,0,1-0.1,1.6h0.1c0.3-0.4,0.6-0.8,1.1-1s1-0.4,1.6-0.4
		c2.1,0,3.2,1.1,3.2,3.2C80.3,213.1,80.3,218.8,80.3,218.8z"/>
	<path class="st8" d="M90.5,217.5c0.5,0,0.9-0.1,1.4-0.2v1.4c-0.2,0.1-0.5,0.2-0.8,0.2c-0.3,0.1-0.7,0.1-1,0.1
		c-1.8,0-2.7-0.9-2.7-2.8v-4.8h-1.2v-0.8l1.3-0.7l0.6-1.9h1.2v2h2.5v1.4h-2.5v4.7c0,0.5,0.1,0.8,0.3,1
		C89.8,217.4,90.1,217.5,90.5,217.5z"/>
	<path class="st8" d="M101.5,214.4c0,1.4-0.4,2.6-1.1,3.4s-1.8,1.2-3.1,1.2c-0.8,0-1.6-0.2-2.2-0.6s-1.1-0.9-1.5-1.6
		c-0.3-0.7-0.5-1.5-0.5-2.4c0-1.4,0.4-2.6,1.1-3.4c0.7-0.8,1.8-1.2,3.1-1.2c1.3,0,2.3,0.4,3,1.2C101.1,211.9,101.5,213,101.5,214.4z
		 M95,214.4c0,2,0.8,3.1,2.3,3.1s2.2-1,2.2-3.1c0-2-0.8-3-2.3-3c-0.8,0-1.4,0.3-1.7,0.8C95.2,212.7,95,213.4,95,214.4z"/>
	<path class="st8" d="M113.1,218.8l-3.4-9.8h-0.1c0.1,1.4,0.1,2.8,0.1,4.1v5.7H108v-11.7h2.7l3.2,9.3l0,0l3.3-9.3h2.7v11.7h-1.8V213
		c0-0.6,0-1.3,0-2.3c0-0.9,0.1-1.5,0.1-1.7h-0.1l-3.5,9.7h-1.5V218.8z"/>
	<path class="st8" d="M128.5,218.8l-0.4-1.2H128c-0.4,0.5-0.9,0.9-1.3,1.1c-0.4,0.2-1,0.3-1.7,0.3c-0.9,0-1.5-0.2-2-0.7
		s-0.7-1.1-0.7-2s0.3-1.6,1-2.1s1.7-0.7,3.1-0.8h1.5V213c0-0.6-0.1-1-0.4-1.3s-0.7-0.4-1.2-0.4s-0.9,0.1-1.3,0.2
		c-0.4,0.1-0.8,0.3-1.2,0.5l-0.6-1.3c0.5-0.2,1-0.4,1.6-0.6c0.6-0.1,1.1-0.2,1.6-0.2c1.1,0,2,0.2,2.5,0.7c0.6,0.5,0.9,1.3,0.9,2.3v6
		L128.5,218.8L128.5,218.8z M125.7,217.5c0.7,0,1.2-0.2,1.6-0.6s0.6-0.9,0.6-1.6v-0.8h-1.1c-0.9,0-1.5,0.2-1.9,0.4
		c-0.4,0.3-0.6,0.7-0.6,1.2c0,0.4,0.1,0.7,0.4,0.9S125.2,217.5,125.7,217.5z"/>
	<path class="st8" d="M131.1,210h2l1.8,5c0.3,0.7,0.5,1.4,0.5,2h0.1c0-0.3,0.1-0.6,0.3-1.1c0.1-0.4,0.8-2.4,2-6h2l-3.8,10
		c-0.7,1.8-1.8,2.8-3.4,2.8c-0.4,0-0.8,0-1.2-0.1v-1.5c0.3,0.1,0.6,0.1,1,0.1c0.9,0,1.5-0.5,1.9-1.6l0.3-0.8L131.1,210z"/>
	<path class="st8" d="M152.8,218.8h-7.9v-1.4l3-3c0.9-0.9,1.5-1.6,1.8-1.9s0.5-0.7,0.6-1.1c0.1-0.3,0.2-0.7,0.2-1.1
		c0-0.5-0.2-0.9-0.5-1.2s-0.8-0.5-1.3-0.5c-0.4,0-0.9,0.1-1.3,0.2s-0.9,0.5-1.4,0.9l-1-1.2c0.6-0.5,1.3-0.9,1.9-1.2
		c0.6-0.2,1.3-0.3,2-0.3c1.1,0,2,0.3,2.6,0.9c0.7,0.6,1,1.3,1,2.3c0,0.5-0.1,1-0.3,1.5s-0.5,1-0.9,1.5s-1,1.2-2,2l-2,2v0.1h5.5
		L152.8,218.8L152.8,218.8z"/>
	<path class="st8" d="M162.1,213c0,2-0.3,3.5-1,4.5s-1.6,1.5-3,1.5c-1.3,0-2.3-0.5-3-1.5s-1-2.5-1-4.5c0-2.1,0.3-3.6,1-4.6
		s1.6-1.5,3-1.5c1.3,0,2.3,0.5,3,1.5S162.1,211,162.1,213z M156.1,213c0,1.6,0.2,2.7,0.5,3.4s0.9,1,1.6,1s1.2-0.3,1.6-1
		s0.5-1.8,0.5-3.4c0-1.6-0.2-2.7-0.5-3.4s-0.9-1.1-1.6-1.1s-1.2,0.3-1.6,1C156.2,210.3,156.1,211.4,156.1,213z"/>
	<path class="st8" d="M169,218.8h-1.9v-7.5c0-0.9,0-1.6,0.1-2.1c-0.1,0.1-0.3,0.3-0.5,0.4c-0.2,0.2-0.8,0.6-1.8,1.5l-0.9-1.2
		l3.4-2.7h1.6L169,218.8L169,218.8z"/>
	<path class="st8" d="M174.2,218.8l4.6-10h-6.1v-1.7h8.1v1.3l-4.6,10.4H174.2z"/>
</g>
<rect x="31.5" y="31.5" class="st6" width="331.6" height="165.5"/>
<g class="st7">
	<path class="st8" d="M43.4,56.3h-5V37.1h-6.3V33h17.6v4.1h-6.3C43.4,37.1,43.4,56.3,43.4,56.3z"/>
	<path class="st8" d="M69.5,56.3h-4.9V45.9c0-2.6-1-3.9-2.9-3.9c-1.4,0-2.3,0.5-3,1.4c-0.6,0.9-0.9,2.4-0.9,4.5v8.4H53V31.5h4.9v5.1
		c0,0.4,0,1.3-0.1,2.8l-0.1,1.4H58c1.1-1.7,2.8-2.6,5.2-2.6c2.1,0,3.7,0.6,4.8,1.7s1.6,2.7,1.6,4.9v11.5H69.5z"/>
	<path class="st8" d="M82.6,56.6c-2.9,0-5.1-0.8-6.7-2.4c-1.6-1.6-2.4-3.8-2.4-6.7c0-3,0.7-5.3,2.2-6.9c1.5-1.6,3.6-2.5,6.2-2.5
		c2.5,0,4.5,0.7,5.9,2.2c1.4,1.4,2.1,3.4,2.1,6v2.4H78.3c0.1,1.4,0.5,2.5,1.2,3.2c0.8,0.8,1.8,1.2,3.2,1.2c1.1,0,2.1-0.1,3.1-0.3
		s2-0.6,3-1.1v3.8c-0.9,0.4-1.8,0.7-2.7,1S84,56.6,82.6,56.6z M81.9,41.6c-1,0-1.8,0.3-2.4,1s-0.9,1.6-1,2.8h6.8
		c0-1.2-0.3-2.1-0.9-2.8C83.7,41.9,82.9,41.6,81.9,41.6z"/>
	<path class="st8" d="M115,56.3l-0.7-2.3H114c-0.5,0.8-1.3,1.5-2.2,1.9c-1,0.5-2.1,0.7-3.3,0.7c-2.1,0-3.7-0.6-4.7-1.7
		c-1.1-1.1-1.6-2.7-1.6-4.8V38.5h4.9v10.4c0,1.3,0.2,2.3,0.7,2.9s1.2,1,2.2,1c1.4,0,2.3-0.5,3-1.4c0.6-0.9,0.9-2.4,0.9-4.5v-8.4h4.9
		v17.9H115V56.3z"/>
	<path class="st8" d="M140.3,56.3h-4.9V45.9c0-1.3-0.2-2.3-0.7-2.9s-1.2-1-2.2-1c-1.4,0-2.3,0.5-3,1.4c-0.6,0.9-0.9,2.4-0.9,4.5v8.4
		h-4.9V38.5h3.7l0.7,2.3h0.3c0.5-0.9,1.3-1.5,2.2-2c1-0.4,2-0.7,3.3-0.7c2.1,0,3.7,0.6,4.7,1.7c1.1,1.1,1.6,2.7,1.6,4.9L140.3,56.3
		L140.3,56.3z"/>
	<path class="st8" d="M153.4,56.6c-2.9,0-5.1-0.8-6.7-2.4c-1.6-1.6-2.4-3.8-2.4-6.7c0-3,0.7-5.3,2.2-6.9c1.5-1.6,3.6-2.5,6.2-2.5
		c2.5,0,4.5,0.7,5.9,2.2c1.4,1.4,2.1,3.4,2.1,6v2.4h-11.5c0.1,1.4,0.5,2.5,1.2,3.2c0.8,0.8,1.8,1.2,3.2,1.2c1.1,0,2.1-0.1,3.1-0.3
		s2-0.6,3-1.1v3.8c-0.9,0.4-1.8,0.7-2.7,1C156,56.5,154.8,56.6,153.4,56.6z M152.7,41.6c-1,0-1.8,0.3-2.4,1c-0.6,0.7-0.9,1.6-1,2.8
		h6.8c0-1.2-0.3-2.1-0.9-2.8S153.7,41.6,152.7,41.6z"/>
	<path class="st8" d="M180.6,56.3h-4.9V45.9c0-1.3-0.2-2.3-0.6-2.9s-1.1-1-2-1c-1.2,0-2.2,0.5-2.7,1.4c-0.6,0.9-0.8,2.4-0.8,4.5v8.4
		h-4.9V38.5h3.7l0.7,2.3h0.3c0.5-0.8,1.2-1.5,2.1-1.9c0.9-0.5,1.9-0.7,3.1-0.7c2.7,0,4.5,0.9,5.4,2.6h0.4c0.5-0.8,1.2-1.5,2.1-1.9
		c0.9-0.5,2-0.7,3.2-0.7c2,0,3.6,0.5,4.6,1.6c1,1,1.6,2.7,1.6,5v11.6H187V45.9c0-1.3-0.2-2.3-0.6-2.9s-1.1-1-2-1
		c-1.2,0-2.1,0.4-2.7,1.3c-0.6,0.9-0.9,2.2-0.9,4.1v8.9H180.6z"/>
	<path class="st8" d="M206.6,56.6c-2.1,0-3.7-0.8-4.9-2.3h-0.3c0.2,1.5,0.3,2.4,0.3,2.6v7.2h-4.9V38.5h4l0.7,2.3h0.2
		c1.1-1.8,2.8-2.7,5.1-2.7c2.1,0,3.8,0.8,5,2.4c1.2,1.6,1.8,3.9,1.8,6.8c0,1.9-0.3,3.6-0.8,5s-1.4,2.5-2.4,3.2
		C209.2,56.3,208,56.6,206.6,56.6z M205.1,42c-1.2,0-2.1,0.4-2.6,1.1c-0.6,0.7-0.8,2-0.9,3.7v0.5c0,1.9,0.3,3.3,0.9,4.1
		c0.6,0.8,1.5,1.2,2.7,1.2c2.2,0,3.3-1.8,3.3-5.4c0-1.8-0.3-3.1-0.8-4C207.1,42.5,206.3,42,205.1,42z"/>
	<path class="st8" d="M222.4,56.3h-4.9V31.5h4.9V56.3z"/>
	<path class="st8" d="M243.7,47.4c0,2.9-0.8,5.2-2.3,6.8s-3.7,2.5-6.4,2.5c-1.7,0-3.2-0.4-4.5-1.1c-1.3-0.8-2.3-1.8-3-3.2
		s-1.1-3-1.1-4.9c0-2.9,0.8-5.2,2.3-6.8s3.7-2.4,6.4-2.4c1.7,0,3.2,0.4,4.5,1.1c1.3,0.7,2.3,1.8,3,3.2S243.7,45.5,243.7,47.4z
		 M231.4,47.4c0,1.8,0.3,3.1,0.9,4c0.6,0.9,1.5,1.4,2.8,1.4s2.2-0.5,2.8-1.4s0.9-2.2,0.9-4s-0.3-3.1-0.9-4s-1.5-1.3-2.8-1.3
		s-2.2,0.4-2.8,1.3S231.4,45.6,231.4,47.4z"/>
	<path class="st8" d="M245.2,38.5h5.3l3.4,10c0.3,0.9,0.5,1.9,0.6,3.1h0.1c0.1-1.1,0.3-2.1,0.7-3.1l3.3-10h5.2l-7.6,20.1
		c-0.7,1.9-1.7,3.3-3,4.2s-2.8,1.4-4.5,1.4c-0.8,0-1.7-0.1-2.5-0.3V60c0.6,0.1,1.2,0.2,1.9,0.2c0.9,0,1.6-0.3,2.3-0.8
		s1.1-1.3,1.5-2.4l0.3-0.9L245.2,38.5z"/>
	<path class="st8" d="M282.3,56.3h-4.9V45.9c0-1.3-0.2-2.3-0.6-2.9s-1.1-1-2-1c-1.2,0-2.2,0.5-2.7,1.4c-0.6,0.9-0.8,2.4-0.8,4.5v8.4
		h-4.9V38.5h3.7l0.7,2.3h0.3c0.5-0.8,1.2-1.5,2.1-1.9c0.9-0.5,1.9-0.7,3.1-0.7c2.7,0,4.5,0.9,5.4,2.6h0.4c0.5-0.8,1.2-1.5,2.1-1.9
		c0.9-0.5,2-0.7,3.2-0.7c2,0,3.6,0.5,4.6,1.6c1,1,1.6,2.7,1.6,5v11.6h-4.9V45.9c0-1.3-0.2-2.3-0.6-2.9s-1.1-1-2-1
		c-1.2,0-2.1,0.4-2.7,1.3c-0.6,0.9-0.9,2.2-0.9,4.1v8.9H282.3z"/>
	<path class="st8" d="M306.6,56.6c-2.9,0-5.1-0.8-6.7-2.4c-1.6-1.6-2.4-3.8-2.4-6.7c0-3,0.7-5.3,2.2-6.9c1.5-1.6,3.6-2.5,6.2-2.5
		c2.5,0,4.5,0.7,5.9,2.2c1.4,1.4,2.1,3.4,2.1,6v2.4h-11.5c0.1,1.4,0.5,2.5,1.2,3.2c0.8,0.8,1.8,1.2,3.2,1.2c1.1,0,2.1-0.1,3.1-0.3
		s2-0.6,3-1.1v3.8c-0.9,0.4-1.8,0.7-2.7,1C309.1,56.5,308,56.6,306.6,56.6z M305.9,41.6c-1,0-1.8,0.3-2.4,1s-0.9,1.6-1,2.8h6.8
		c0-1.2-0.3-2.1-0.9-2.8S306.9,41.6,305.9,41.6z"/>
	<path class="st8" d="M334.3,56.3h-4.9V45.9c0-1.3-0.2-2.3-0.7-2.9s-1.2-1-2.2-1c-1.4,0-2.3,0.5-3,1.4c-0.6,0.9-0.9,2.4-0.9,4.5v8.4
		h-4.9V38.5h3.7l0.7,2.3h0.3c0.5-0.9,1.3-1.5,2.2-2c1-0.4,2-0.7,3.3-0.7c2.1,0,3.7,0.6,4.7,1.7c1.1,1.1,1.6,2.7,1.6,4.9L334.3,56.3
		L334.3,56.3z"/>
	<path class="st8" d="M346.8,52.8c0.9,0,1.9-0.2,3.1-0.6v3.6c-1.2,0.5-2.7,0.8-4.5,0.8c-1.9,0-3.4-0.5-4.3-1.5s-1.3-2.5-1.3-4.4
		v-8.6h-2.3V40l2.7-1.6l1.4-3.8h3.1v3.8h5v3.7h-5v8.6c0,0.7,0.2,1.2,0.6,1.5C345.7,52.6,346.2,52.8,346.8,52.8z"/>
</g>
<g class="st7">
	<path class="st8" d="M44,77.4c0.7,0,1.2,0,1.6,0.1l-0.4,4.6C44.9,82,44.4,82,43.8,82c-1.6,0-2.8,0.4-3.6,1.2s-1.3,1.9-1.3,3.4v9.1
		H34V77.8h3.7l0.7,3h0.2c0.6-1,1.3-1.8,2.2-2.4C41.9,77.7,42.9,77.4,44,77.4z"/>
	<path class="st8" d="M60.2,95.6l-0.9-2.4h-0.1c-0.8,1-1.7,1.8-2.5,2.1c-0.9,0.4-2,0.6-3.4,0.6c-1.7,0-3.1-0.5-4-1.5
		c-1-1-1.5-2.4-1.5-4.2c0-1.9,0.7-3.3,2-4.2s3.3-1.4,6-1.5l3.1-0.1v-0.8c0-1.8-0.9-2.7-2.8-2.7c-1.4,0-3.1,0.4-5,1.3L49.4,79
		c2.1-1.1,4.3-1.6,6.8-1.6c2.4,0,4.2,0.5,5.5,1.6c1.3,1,1.9,2.6,1.9,4.8v11.9h-3.4V95.6z M58.8,87.4l-1.9,0.1
		c-1.4,0-2.5,0.3-3.2,0.8s-1,1.2-1,2.1c0,1.4,0.8,2.1,2.4,2.1c1.1,0,2-0.3,2.7-1c0.7-0.6,1-1.5,1-2.6V87.4z"/>
	<path class="st8" d="M76.2,92.1c0.9,0,1.9-0.2,3.1-0.6v3.6c-1.2,0.5-2.7,0.8-4.5,0.8c-1.9,0-3.4-0.5-4.3-1.5S69.2,92,69.2,90v-8.6
		h-2.3v-2.1l2.7-1.6l1.4-3.8h3v3.8h5v3.7h-5V90c0,0.7,0.2,1.2,0.6,1.5C75,91.9,75.5,92.1,76.2,92.1z"/>
	<path class="st8" d="M90.9,95.9c-2.9,0-5.1-0.8-6.7-2.4s-2.4-3.8-2.4-6.7c0-3,0.7-5.3,2.2-6.9s3.6-2.5,6.2-2.5
		c2.5,0,4.5,0.7,5.9,2.2c1.4,1.4,2.1,3.4,2.1,6V88H86.7c0.1,1.4,0.5,2.5,1.2,3.2c0.8,0.8,1.8,1.2,3.2,1.2c1.1,0,2.1-0.1,3.1-0.3
		s2-0.6,3-1.1v3.8c-0.9,0.4-1.8,0.7-2.7,1S92.3,95.9,90.9,95.9z M90.2,80.9c-1,0-1.8,0.3-2.4,1s-0.9,1.6-1,2.8h6.8
		c0-1.2-0.3-2.1-0.9-2.8S91.3,80.9,90.2,80.9z"/>
	<path class="st8" d="M125.4,95.6l-1.4-6.2l-1.9-7.9H122l-3.3,14.1h-5.2l-5.1-17.9h4.9l2.1,7.9c0.3,1.4,0.7,3.4,1,5.9h0.1
		c0-0.8,0.2-2.1,0.6-3.9l0.3-1.4l2.2-8.6h5.4l2.1,8.6c0,0.2,0.1,0.6,0.2,1s0.2,0.9,0.3,1.5c0.1,0.5,0.2,1,0.2,1.5
		c0.1,0.5,0.1,0.9,0.1,1.2h0.1c0.1-0.8,0.3-1.8,0.5-3.2c0.2-1.3,0.4-2.2,0.5-2.7l2.1-7.9h4.8l-5.1,17.9L125.4,95.6L125.4,95.6z"/>
	<path class="st8" d="M150,95.6l-0.9-2.4H149c-0.8,1-1.7,1.8-2.5,2.1s-2,0.6-3.4,0.6c-1.7,0-3.1-0.5-4.1-1.5s-1.5-2.4-1.5-4.2
		c0-1.9,0.7-3.3,2-4.2s3.3-1.4,6-1.5l3.1-0.1v-0.8c0-1.8-0.9-2.7-2.8-2.7c-1.4,0-3.1,0.4-5,1.3l-1.6-3.3c2.1-1.1,4.3-1.6,6.8-1.6
		c2.4,0,4.2,0.5,5.5,1.6s1.9,2.6,1.9,4.8v11.9C153.4,95.6,150,95.6,150,95.6z M148.6,87.4l-1.9,0.1c-1.4,0-2.5,0.3-3.2,0.8
		s-1,1.2-1,2.1c0,1.4,0.8,2.1,2.4,2.1c1.1,0,2-0.3,2.7-1c0.7-0.6,1-1.5,1-2.6V87.4z"/>
	<path class="st8" d="M170.9,90.3c0,1.8-0.6,3.2-1.9,4.2c-1.3,1-3.2,1.4-5.7,1.4c-1.3,0-2.4-0.1-3.3-0.3s-1.8-0.4-2.6-0.8v-4
		c0.9,0.4,1.9,0.8,3.1,1.1c1.1,0.3,2.1,0.4,3,0.4c1.8,0,2.7-0.5,2.7-1.5c0-0.4-0.1-0.7-0.4-0.9c-0.2-0.2-0.6-0.5-1.2-0.8
		s-1.3-0.7-2.3-1.1c-1.4-0.6-2.4-1.1-3-1.6s-1.1-1.1-1.4-1.7s-0.4-1.4-0.4-2.3c0-1.6,0.6-2.8,1.8-3.7s3-1.3,5.2-1.3s4.2,0.5,6.3,1.4
		l-1.5,3.5c-0.9-0.4-1.7-0.7-2.5-0.9c-0.8-0.2-1.6-0.4-2.4-0.4c-1.4,0-2.2,0.4-2.2,1.2c0,0.4,0.2,0.8,0.7,1.1c0.5,0.3,1.5,0.8,3,1.4
		c1.4,0.6,2.4,1.1,3.1,1.6c0.6,0.5,1.1,1.1,1.4,1.7C170.8,88.7,170.9,89.4,170.9,90.3z"/>
	<path class="st8" d="M198.8,90.8H196v4.8h-4.8v-4.8h-10v-3.4l10.2-15.1h4.6V87h2.8V90.8z M191.2,87v-4c0-0.7,0-1.6,0.1-2.9
		s0.1-2,0.1-2.2h-0.1c-0.4,0.9-0.9,1.7-1.4,2.6l-4.3,6.5H191.2z"/>
	<path class="st8" d="M201.2,93.3c0-0.9,0.2-1.6,0.7-2c0.5-0.5,1.2-0.7,2.1-0.7c0.9,0,1.6,0.2,2.1,0.7s0.7,1.1,0.7,2
		c0,0.8-0.2,1.5-0.7,2s-1.2,0.7-2,0.7c-0.9,0-1.6-0.2-2.1-0.7C201.4,94.9,201.2,94.2,201.2,93.3z"/>
	<path class="st8" d="M218.5,80.7c2.3,0,4.1,0.6,5.4,1.9s2,3,2,5.2c0,2.6-0.8,4.6-2.4,6c-1.6,1.4-3.9,2.1-6.9,2.1
		c-2.6,0-4.7-0.4-6.3-1.3v-4.3c0.8,0.4,1.8,0.8,2.9,1.1c1.1,0.3,2.2,0.4,3.2,0.4c3,0,4.5-1.2,4.5-3.7c0-2.4-1.6-3.5-4.7-3.5
		c-0.6,0-1.2,0.1-1.9,0.2s-1.2,0.2-1.7,0.4l-2-1.1l0.9-11.9h12.7v4.2h-8.3l-0.4,4.6l0.6-0.1C216.7,80.8,217.5,80.7,218.5,80.7z"/>
	<path class="st8" d="M239.5,79.2c0,2.5-0.5,4.3-1.4,5.5s-2.3,1.8-4.2,1.8c-1.8,0-3.1-0.6-4.1-1.9s-1.4-3.1-1.4-5.5
		c0-4.9,1.8-7.3,5.5-7.3c1.8,0,3.2,0.6,4.1,1.9C239,75.1,239.5,76.9,239.5,79.2z M232.4,79.3c0,1.4,0.1,2.4,0.4,3
		c0.2,0.7,0.6,1,1.2,1c1,0,1.5-1.3,1.5-4s-0.5-4-1.5-4c-0.5,0-0.9,0.3-1.2,1C232.5,76.9,232.4,77.9,232.4,79.3z M250.4,72.3
		l-13,23.4h-3.8l13-23.4H250.4z M255.8,88.6c0,2.4-0.5,4.3-1.4,5.5s-2.3,1.8-4.2,1.8c-1.8,0-3.1-0.6-4.1-1.9s-1.4-3.1-1.4-5.5
		c0-4.9,1.8-7.3,5.5-7.3c1.8,0,3.2,0.6,4.1,1.9C255.3,84.4,255.8,86.2,255.8,88.6z M248.7,88.6c0,1.4,0.1,2.4,0.4,3
		c0.2,0.7,0.6,1,1.2,1c1,0,1.5-1.3,1.5-4s-0.5-4-1.5-4c-0.5,0-0.9,0.3-1.2,1C248.9,86.2,248.7,87.2,248.7,88.6z"/>
	<path class="st8" d="M264.2,92.2c-0.6,2.2-1.5,4.7-2.8,7.7h-3.5c0.7-2.8,1.2-5.5,1.6-8h4.5L264.2,92.2z"/>
</g>
<g class="st7">
	<path class="st8" d="M41.5,131.3c0.9,0,1.9-0.2,3.1-0.6v3.6c-1.2,0.5-2.7,0.8-4.5,0.8c-1.9,0-3.4-0.5-4.3-1.5s-1.3-2.5-1.3-4.4
		v-8.6h-2.3v-2.1l2.7-1.6l1.4-3.8h3.1v3.8h5v3.7h-5v8.6c0,0.7,0.2,1.2,0.6,1.5C40.4,131.1,40.9,131.3,41.5,131.3z"/>
	<path class="st8" d="M64.7,134.8h-4.9v-10.4c0-2.6-1-3.9-2.9-3.9c-1.4,0-2.3,0.5-3,1.4c-0.6,0.9-0.9,2.4-0.9,4.5v8.4h-4.9V110H53
		v5.1c0,0.4,0,1.3-0.1,2.8l-0.1,1.4h0.3c1.1-1.7,2.8-2.6,5.2-2.6c2.1,0,3.7,0.6,4.8,1.7c1.1,1.1,1.6,2.7,1.6,4.9V134.8z"/>
	<path class="st8" d="M77.8,135.1c-2.9,0-5.1-0.8-6.7-2.4c-1.6-1.6-2.4-3.8-2.4-6.7c0-3,0.7-5.3,2.2-6.9s3.6-2.5,6.2-2.5
		c2.5,0,4.5,0.7,5.9,2.2c1.4,1.4,2.1,3.4,2.1,6v2.4H73.6c0.1,1.4,0.5,2.5,1.2,3.2c0.8,0.8,1.8,1.2,3.2,1.2c1.1,0,2.1-0.1,3.1-0.3
		s2-0.6,3-1.1v3.8c-0.9,0.4-1.8,0.7-2.7,1S79.2,135.1,77.8,135.1z M77.1,120.1c-1,0-1.8,0.3-2.4,1s-0.9,1.6-1,2.8h6.8
		c0-1.2-0.3-2.1-0.9-2.8C79,120.4,78.2,120.1,77.1,120.1z"/>
	<path class="st8" d="M102.4,134.8h-4.9V110h4.9V134.8z"/>
	<path class="st8" d="M123.8,125.9c0,2.9-0.8,5.2-2.3,6.8c-1.5,1.6-3.7,2.5-6.4,2.5c-1.7,0-3.2-0.4-4.5-1.1s-2.3-1.8-3-3.2
		s-1.1-3-1.1-4.9c0-2.9,0.8-5.2,2.3-6.8c1.5-1.6,3.7-2.4,6.4-2.4c1.7,0,3.2,0.4,4.5,1.1s2.3,1.8,3,3.2S123.8,124,123.8,125.9z
		 M111.4,125.9c0,1.8,0.3,3.1,0.9,4s1.5,1.4,2.8,1.4s2.2-0.5,2.8-1.4c0.6-0.9,0.9-2.2,0.9-4s-0.3-3.1-0.9-4s-1.5-1.3-2.8-1.3
		s-2.2,0.4-2.8,1.3C111.7,122.8,111.4,124.1,111.4,125.9z"/>
	<path class="st8" d="M142.5,134.8l-1.4-6.2l-1.9-7.9h-0.1l-3.3,14.1h-5.2l-5.1-17.9h4.9l2.1,7.9c0.3,1.4,0.7,3.4,1,5.9h0.1
		c0-0.8,0.2-2.1,0.6-3.9l0.3-1.4l2.2-8.6h5.4l2.1,8.6c0,0.2,0.1,0.6,0.2,1s0.2,0.9,0.3,1.5c0.1,0.6,0.2,1,0.2,1.5s0.1,0.9,0.1,1.2
		h0.1c0.1-0.8,0.3-1.8,0.5-3.2c0.2-1.3,0.4-2.2,0.5-2.7l2.1-7.9h4.8l-5.1,17.9h-5.4V134.8z"/>
	<path class="st8" d="M163.9,135.1c-2.9,0-5.1-0.8-6.7-2.4c-1.6-1.6-2.4-3.8-2.4-6.7c0-3,0.7-5.3,2.2-6.9s3.6-2.5,6.2-2.5
		c2.5,0,4.5,0.7,5.9,2.2c1.4,1.4,2.1,3.4,2.1,6v2.4h-11.5c0.1,1.4,0.5,2.5,1.2,3.2c0.8,0.8,1.8,1.2,3.2,1.2c1.1,0,2.1-0.1,3.1-0.3
		s2-0.6,3-1.1v3.8c-0.9,0.4-1.8,0.7-2.7,1C166.5,135,165.3,135.1,163.9,135.1z M163.2,120.1c-1,0-1.8,0.3-2.4,1
		c-0.6,0.7-0.9,1.6-1,2.8h6.8c0-1.2-0.3-2.1-0.9-2.8S164.2,120.1,163.2,120.1z"/>
	<path class="st8" d="M187.6,129.5c0,1.8-0.6,3.2-1.9,4.2c-1.3,1-3.2,1.4-5.7,1.4c-1.3,0-2.4-0.1-3.3-0.3s-1.8-0.4-2.6-0.8v-4
		c0.9,0.4,1.9,0.8,3.1,1.1c1.1,0.3,2.1,0.4,3,0.4c1.8,0,2.7-0.5,2.7-1.5c0-0.4-0.1-0.7-0.4-0.9c-0.2-0.2-0.6-0.5-1.2-0.8
		s-1.3-0.7-2.3-1.1c-1.4-0.6-2.4-1.1-3-1.6s-1.1-1.1-1.4-1.7s-0.4-1.4-0.4-2.3c0-1.6,0.6-2.8,1.8-3.7s3-1.3,5.2-1.3s4.2,0.5,6.3,1.4
		l-1.5,3.5c-0.9-0.4-1.7-0.7-2.5-0.9c-0.8-0.2-1.6-0.4-2.4-0.4c-1.4,0-2.2,0.4-2.2,1.2c0,0.4,0.2,0.8,0.7,1.1c0.5,0.3,1.5,0.8,3,1.4
		c1.4,0.6,2.4,1.1,3.1,1.6c0.6,0.5,1.1,1.1,1.4,1.7C187.5,127.9,187.6,128.6,187.6,129.5z"/>
	<path class="st8" d="M198.9,131.3c0.9,0,1.9-0.2,3.1-0.6v3.6c-1.2,0.5-2.7,0.8-4.5,0.8c-1.9,0-3.4-0.5-4.3-1.5
		c-0.9-1-1.3-2.5-1.3-4.4v-8.6h-2.3v-2.1l2.7-1.6l1.4-3.8h3.1v3.8h5v3.7h-5v8.6c0,0.7,0.2,1.2,0.6,1.5
		C197.8,131.1,198.3,131.3,198.9,131.3z"/>
	<path class="st8" d="M226.6,129.5c0,1.8-0.6,3.2-1.9,4.2c-1.3,1-3.2,1.4-5.7,1.4c-1.3,0-2.4-0.1-3.3-0.3s-1.8-0.4-2.6-0.8v-4
		c0.9,0.4,1.9,0.8,3.1,1.1c1.1,0.3,2.1,0.4,3,0.4c1.8,0,2.7-0.5,2.7-1.5c0-0.4-0.1-0.7-0.4-0.9c-0.2-0.2-0.6-0.5-1.2-0.8
		s-1.3-0.7-2.3-1.1c-1.4-0.6-2.4-1.1-3-1.6s-1.1-1.1-1.4-1.7s-0.4-1.4-0.4-2.3c0-1.6,0.6-2.8,1.8-3.7s3-1.3,5.2-1.3s4.2,0.5,6.3,1.4
		l-1.5,3.5c-0.9-0.4-1.7-0.7-2.5-0.9c-0.8-0.2-1.6-0.4-2.4-0.4c-1.4,0-2.2,0.4-2.2,1.2c0,0.4,0.2,0.8,0.7,1.1c0.5,0.3,1.5,0.8,3,1.4
		c1.4,0.6,2.4,1.1,3.1,1.6c0.6,0.5,1.1,1.1,1.4,1.7C226.4,127.9,226.6,128.6,226.6,129.5z"/>
	<path class="st8" d="M230.2,112.4c0-1.6,0.9-2.4,2.7-2.4s2.7,0.8,2.7,2.4c0,0.8-0.2,1.3-0.7,1.8c-0.4,0.4-1.1,0.6-2,0.6
		C231.1,114.7,230.2,113.9,230.2,112.4z M235.2,134.8h-4.9V117h4.9V134.8z"/>
	<path class="st8" d="M256.9,134.8H252v-10.4c0-1.3-0.2-2.3-0.7-2.9s-1.2-1-2.2-1c-1.4,0-2.3,0.5-3,1.4c-0.6,0.9-0.9,2.4-0.9,4.5
		v8.4h-4.9V117h3.7l0.7,2.3h0.3c0.5-0.9,1.3-1.5,2.2-2c1-0.4,2-0.7,3.3-0.7c2.1,0,3.7,0.6,4.7,1.7c1.1,1.1,1.6,2.7,1.6,4.9
		L256.9,134.8L256.9,134.8z"/>
	<path class="st8" d="M269.1,135.1c-5.6,0-8.3-3.1-8.3-9.2c0-3,0.8-5.4,2.3-7s3.7-2.4,6.5-2.4c2.1,0,3.9,0.4,5.6,1.2l-1.4,3.8
		c-0.8-0.3-1.5-0.6-2.1-0.8c-0.7-0.2-1.3-0.3-2-0.3c-2.5,0-3.8,1.8-3.8,5.4c0,3.5,1.3,5.2,3.8,5.2c0.9,0,1.8-0.1,2.6-0.4
		s1.6-0.6,2.4-1.2v4.2c-0.8,0.5-1.6,0.8-2.4,1C271.4,135.1,270.3,135.1,269.1,135.1z"/>
	<path class="st8" d="M286.8,135.1c-2.9,0-5.1-0.8-6.7-2.4c-1.6-1.6-2.4-3.8-2.4-6.7c0-3,0.7-5.3,2.2-6.9s3.6-2.5,6.2-2.5
		c2.5,0,4.5,0.7,5.9,2.2c1.4,1.4,2.1,3.4,2.1,6v2.4h-11.5c0.1,1.4,0.5,2.5,1.2,3.2c0.8,0.8,1.8,1.2,3.2,1.2c1.1,0,2.1-0.1,3.1-0.3
		s2-0.6,3-1.1v3.8c-0.9,0.4-1.8,0.7-2.7,1C289.4,135,288.2,135.1,286.8,135.1z M286.1,120.1c-1,0-1.8,0.3-2.4,1s-0.9,1.6-1,2.8h6.8
		c0-1.2-0.3-2.1-0.9-2.8S287.1,120.1,286.1,120.1z"/>
</g>
<g class="st7">
	<path class="st8" d="M45,174.1h-5v-13.5v-2.2l0.1-2.4c-0.8,0.8-1.4,1.4-1.7,1.6l-2.7,2.2l-2.4-3l7.5-6H45V174.1z"/>
	<path class="st8" d="M67.7,160.7c0,4.6-1,8-2.9,10.3s-4.9,3.4-8.8,3.4c-1.4,0-2.4-0.1-3.1-0.2v-4c0.9,0.2,1.8,0.3,2.8,0.3
		c1.7,0,3-0.2,4.1-0.7s1.9-1.2,2.4-2.3c0.6-1,0.9-2.5,1-4.3H63c-0.6,1-1.3,1.7-2.1,2.1c-0.8,0.4-1.8,0.6-3,0.6c-2,0-3.6-0.7-4.8-2
		s-1.8-3.1-1.8-5.4c0-2.5,0.7-4.5,2.1-5.9s3.4-2.2,5.8-2.2c1.7,0,3.2,0.4,4.5,1.2c1.3,0.8,2.3,2,3,3.5
		C67.3,156.8,67.7,158.6,67.7,160.7z M59.2,154.5c-1,0-1.8,0.4-2.4,1.1s-0.9,1.7-0.9,3c0,1.1,0.3,2,0.8,2.7s1.3,1,2.4,1
		c1,0,1.9-0.3,2.6-1c0.7-0.7,1.1-1.4,1.1-2.3c0-1.3-0.3-2.3-1-3.2S60.3,154.5,59.2,154.5z"/>
	<path class="st8" d="M72.4,174.1l8.8-19.2H69.7v-4.2h16.8v3.1L77.7,174L72.4,174.1L72.4,174.1z"/>
	<path class="st8" d="M97.3,159.2c2.3,0,4.1,0.6,5.4,1.9c1.3,1.3,2,3,2,5.2c0,2.6-0.8,4.6-2.4,6s-3.9,2.1-6.9,2.1
		c-2.6,0-4.7-0.4-6.3-1.3v-4.3c0.8,0.4,1.8,0.8,2.9,1.1s2.2,0.4,3.2,0.4c3,0,4.5-1.2,4.5-3.7c0-2.4-1.6-3.5-4.7-3.5
		c-0.6,0-1.2,0.1-1.9,0.2c-0.7,0.1-1.2,0.2-1.7,0.4l-2-1.1l0.9-11.9H103v4.2h-8.3l-0.4,4.6l0.6-0.1
		C95.5,159.3,96.3,159.2,97.3,159.2z"/>
</g>
<g>
	<g>
		<path class="st8" d="M449.5,343.1c-2.8,0-4-2.3-4-5.1c0-2.8,1.2-5.1,4-5.1s4,2.3,4,5.1C453.5,340.8,452.3,343.1,449.5,343.1z
			 M449.5,333.6c-2.1,0-2.8,2.2-2.8,4.3c0,2,0.7,4.3,2.8,4.3c2.1,0,2.8-2.2,2.8-4.3C452.3,335.9,451.5,333.6,449.5,333.6z"/>
		<path class="st8" d="M457,335.9v7.1h-1.1v-7.1h-1.2v-0.7h1.2V334c0-1.4,0.8-2.4,2.5-2.4c0.1,0,0.3,0,0.3,0v0.7h-0.1
			c-0.8,0-1.5,0.5-1.5,1.6v1.3h1.6v0.7L457,335.9L457,335.9z"/>
		<path class="st8" d="M461.6,335.9v7.1h-1.1v-7.1h-1.2v-0.7h1.2V334c0-1.4,0.8-2.4,2.5-2.4c0.1,0,0.3,0,0.3,0v0.7h-0.1
			c-0.8,0-1.5,0.5-1.5,1.6v1.3h1.6v0.7L461.6,335.9L461.6,335.9z"/>
		<path class="st8" d="M465.1,333.7c-0.4,0-0.7-0.3-0.7-0.7s0.3-0.7,0.7-0.7c0.4,0,0.7,0.3,0.7,0.7S465.5,333.7,465.1,333.7z
			 M464.5,342.9v-7.8h1.1v7.8H464.5z"/>
		<path class="st8" d="M470.5,343.1c-1.8,0-3.3-1.6-3.3-4.1s1.4-4.1,3.3-4.1c0.9,0,1.6,0.3,1.9,0.5l-0.3,0.7
			c-0.3-0.2-0.7-0.4-1.4-0.4c-1.6,0-2.4,1.4-2.4,3.2c0,1.9,0.9,3.3,2.3,3.3c0.6,0,1.1-0.2,1.4-0.4l0.3,0.7
			C472.1,342.9,471.5,343.1,470.5,343.1z"/>
		<path class="st8" d="M474.3,339.5c0.1,1.8,1.2,2.8,2.7,2.8c1,0,1.7-0.2,2.1-0.5l0.3,0.8c-0.5,0.3-1.4,0.5-2.5,0.5
			c-2.2,0-3.7-1.3-3.7-4.1c0-2.7,1.4-4,3.4-4s3.2,1.2,3.2,3.8L474.3,339.5z M476.5,335.7c-1.3,0-2.3,1-2.3,3.2l4.4-0.6
			C478.6,336.5,477.8,335.7,476.5,335.7z"/>
		<path class="st8" d="M485.2,335.9v7.1h-1.1v-7.1H483v-0.7h1.2V334c0-1.4,0.8-2.4,2.5-2.4c0.1,0,0.3,0,0.3,0v0.7h-0.1
			c-0.8,0-1.5,0.5-1.5,1.6v1.3h1.6v0.7L485.2,335.9L485.2,335.9z"/>
		<path class="st8" d="M491,343.1c-2.3,0-3.3-1.8-3.3-4.1c0-2.3,1-4.1,3.3-4.1s3.3,1.8,3.3,4.1C494.3,341.4,493.3,343.1,491,343.1z
			 M491,335.7c-1.7,0-2.2,1.7-2.2,3.3c0,1.6,0.5,3.2,2.2,3.2s2.2-1.6,2.2-3.2C493.2,337.5,492.7,335.7,491,335.7z"/>
		<path class="st8" d="M499.2,335.9c-0.7-0.2-1.8-0.2-2.3,0.1v6.9h-1.1v-7.4c0.8-0.3,1.6-0.5,3.1-0.5c0.2,0,0.5,0,0.6,0L499.2,335.9
			z"/>
		<path class="st8" d="M509.4,343l-4.4-6.8c-0.3-0.5-0.6-1-0.6-1l0,0c0,0,0,0.6,0,1.2v6.6H503v-9.9h1.6l4.2,6.4c0.4,0.6,0.6,1,0.6,1
			l0,0c0,0-0.1-0.6-0.1-1.2V333h1.5v9.9L509.4,343L509.4,343z"/>
		<path class="st8" d="M515.6,343.2c-2.3,0-3.4-0.9-3.4-2.4c0-2.1,2.2-2.7,4.8-2.9v-0.4c0-1.1-0.7-1.4-1.8-1.4
			c-0.8,0-1.6,0.2-2.1,0.4l-0.4-1c0.5-0.2,1.6-0.6,2.8-0.6c1.7,0,3,0.7,3,2.7v4.9C517.9,343,516.9,343.2,515.6,343.2z M517,338.7
			c-1.9,0.2-3.2,0.6-3.2,2.1c0,1.1,0.7,1.5,1.9,1.5c0.5,0,1-0.1,1.3-0.3V338.7z"/>
		<path class="st8" d="M523.1,343.2c-1.6,0-2.3-1.1-2.3-2.1v-4.8h-1.1v-1h1.1v-1.7l1.7-0.5v2.2h1.5v1h-1.5v4.7
			c0,0.6,0.4,1.1,1.1,1.1c0.2,0,0.3,0,0.5-0.1v1C523.9,343.1,523.5,343.2,523.1,343.2z"/>
		<path class="st8" d="M526.2,333.9c-0.5,0-1-0.4-1-0.9s0.4-0.9,1-0.9c0.5,0,1,0.4,1,0.9C527.1,333.5,526.7,333.9,526.2,333.9z
			 M525.3,343v-7.8h1.7v7.8H525.3z"/>
		<path class="st8" d="M532,343.2c-2.4,0-3.6-1.8-3.6-4.1c0-2.3,1.2-4.1,3.6-4.1c2.4,0,3.5,1.8,3.5,4.1
			C535.5,341.5,534.3,343.2,532,343.2z M532,336.1c-1.4,0-1.9,1.5-1.9,3s0.5,3,1.9,3s1.9-1.4,1.9-3
			C533.8,337.6,533.4,336.1,532,336.1z"/>
		<path class="st8" d="M541.7,343v-5.5c0-1-0.8-1.4-1.8-1.4c-0.5,0-1,0.1-1.3,0.2v6.7h-1.7v-7.4c0.7-0.3,1.9-0.6,3.1-0.6
			c2,0,3.4,0.7,3.4,2.4v5.6L541.7,343L541.7,343z"/>
		<path class="st8" d="M548,343.2c-2.3,0-3.4-0.9-3.4-2.4c0-2.1,2.2-2.7,4.8-2.9v-0.4c0-1.1-0.7-1.4-1.8-1.4c-0.8,0-1.6,0.2-2.1,0.4
			l-0.4-1c0.5-0.2,1.6-0.6,2.8-0.6c1.7,0,3,0.7,3,2.7v4.9C550.3,343,549.3,343.2,548,343.2z M549.4,338.7c-1.9,0.2-3.2,0.6-3.2,2.1
			c0,1.1,0.7,1.5,1.9,1.5c0.5,0,1-0.1,1.3-0.3V338.7z"/>
		<path class="st8" d="M552.7,343v-3.7v-7.6h1.7v3.8v7.5L552.7,343L552.7,343z"/>
		<path class="st8" d="M561,343.2c-1.2,0-2.2-0.3-2.7-0.6l0.5-1.2c0.4,0.2,1.1,0.5,1.9,0.5c1.2,0,2-0.7,2-1.7c0-2.2-4.1-1.3-4.1-4.4
			c0-1.6,1.3-2.9,3.3-2.9c1.1,0,1.9,0.3,2.4,0.6l-0.4,1.1c-0.4-0.2-1-0.5-1.7-0.5c-1.1,0-1.8,0.6-1.8,1.6c0,2.1,4.2,1.2,4.2,4.5
			C564.4,341.9,563,343.2,561,343.2z"/>
		<path class="st8" d="M568.6,343.2c-1.6,0-2.3-1.1-2.3-2.1v-4.8h-1.1v-1h1.1v-1.7l1.7-0.5v2.2h1.5v1H568v4.7c0,0.6,0.4,1.1,1.1,1.1
			c0.2,0,0.3,0,0.5-0.1v1C569.4,343.1,569.1,343.2,568.6,343.2z"/>
		<path class="st8" d="M573.8,343.2c-2.3,0-3.4-0.9-3.4-2.4c0-2.1,2.2-2.7,4.8-2.9v-0.4c0-1.1-0.7-1.4-1.8-1.4
			c-0.8,0-1.6,0.2-2.1,0.4l-0.4-1c0.5-0.2,1.6-0.6,2.8-0.6c1.7,0,3,0.7,3,2.7v4.9C576.1,343,575.1,343.2,573.8,343.2z M575.2,338.7
			c-1.9,0.2-3.2,0.6-3.2,2.1c0,1.1,0.7,1.5,1.9,1.5c0.5,0,1-0.1,1.3-0.3V338.7z"/>
		<path class="st8" d="M581.3,343.2c-1.6,0-2.3-1.1-2.3-2.1v-4.8h-1v-1h1.1v-1.7l1.7-0.5v2.2h1.5v1h-1.5v4.7c0,0.6,0.4,1.1,1.1,1.1
			c0.2,0,0.3,0,0.5-0.1v1C582.1,343.1,581.7,343.2,581.3,343.2z"/>
		<path class="st8" d="M584.4,333.9c-0.5,0-1-0.4-1-0.9s0.4-0.9,1-0.9c0.5,0,1,0.4,1,0.9C585.3,333.5,584.9,333.9,584.4,333.9z
			 M583.5,343v-7.8h1.7v7.8H583.5z"/>
		<path class="st8" d="M588.8,343.2c-1,0-1.9-0.3-2.3-0.6l0.4-1.1c0.3,0.2,1,0.5,1.7,0.5c0.8,0,1.5-0.5,1.5-1.2c0-1.8-3.4-1-3.4-3.5
			c0-1.2,1-2.3,2.7-2.3c1,0,1.7,0.2,2.2,0.6l-0.4,1c-0.3-0.2-0.8-0.4-1.4-0.4c-0.9,0-1.4,0.5-1.4,1.1c0,1.7,3.5,1,3.5,3.6
			C591.8,342,590.7,343.2,588.8,343.2z"/>
		<path class="st8" d="M596.1,343.2c-1.6,0-2.3-1.1-2.3-2.1v-4.8h-1.1v-1h1.1v-1.7l1.7-0.5v2.2h1.5v1h-1.5v4.7
			c0,0.6,0.4,1.1,1.1,1.1c0.2,0,0.3,0,0.5-0.1v1C596.8,343.1,596.5,343.2,596.1,343.2z"/>
		<path class="st8" d="M599.1,333.9c-0.5,0-1-0.4-1-0.9s0.4-0.9,1-0.9c0.5,0,1,0.4,1,0.9S599.6,333.9,599.1,333.9z M598.3,343v-7.8
			h1.7v7.8H598.3z"/>
		<path class="st8" d="M604.7,343.2c-1.9,0-3.4-1.6-3.4-4.1c0-2.6,1.5-4.1,3.4-4.1c1,0,1.6,0.3,2,0.6l-0.4,0.9
			c-0.2-0.2-0.7-0.4-1.2-0.4c-1.4,0-2.1,1.2-2.1,2.9c0,1.8,0.8,2.9,2,2.9c0.5,0,0.9-0.2,1.2-0.4l0.4,1
			C606.4,342.9,605.7,343.2,604.7,343.2z"/>
		<path class="st8" d="M609.9,343.2c-1,0-1.9-0.3-2.3-0.6l0.4-1.1c0.3,0.2,1,0.5,1.7,0.5c0.8,0,1.5-0.5,1.5-1.2c0-1.8-3.4-1-3.4-3.5
			c0-1.2,1-2.3,2.7-2.3c1,0,1.7,0.2,2.2,0.6l-0.4,1c-0.3-0.2-0.8-0.4-1.4-0.4c-0.9,0-1.4,0.5-1.4,1.1c0,1.7,3.5,1,3.5,3.6
			C612.9,342,611.7,343.2,609.9,343.2z"/>
	</g>
	<g>
		<path class="st8" d="M424.1,338.8c0.2-0.5,0.4-0.9,0.7-1.4c-0.3-0.8-0.5-1.2-0.7-2C424.1,336.7,424.1,337.6,424.1,338.8z
			 M425.7,329.1c0,0-1.5,0-1.5,1.9c0,0.1,0-0.2,0,0.3c0.1,1.8,0.7,3.5,1.3,5.1c0.9-1.4,1.7-2.2,2.9-3.3c2.5-2.1,5.4-3.4,10-4H425.7z
			"/>
		<path class="st8" d="M440.5,330.1c-5.2,0.5-8.8,2-11.3,4.2c-1.4,1.2-2.2,2.1-3.1,3.7c2,3.9,6.1,7.2,12.4,7.6h0.1c0,0,2,0.1,2-2.1
			L440.5,330.1C440.6,330.1,440.6,330.1,440.5,330.1z M427.1,341.2c-0.6-0.7-1.1-1.5-1.6-2.3c-0.6,1.1-1,2.2-1.5,3.4
			c0,1.9,0,3.2,0,3.2h9.6C430.7,344.7,428.9,343.3,427.1,341.2z"/>
	</g>
</g>
<rect x="31.5" y="329.3" class="st6" width="247.9" height="20.8"/>
<g class="st7">
	<path class="st8" d="M37.1,335.8c0,0.7-0.3,1.3-0.8,1.7c-0.5,0.4-1.2,0.6-2.1,0.6c-1,0-1.7-0.1-2.2-0.4v-0.9
		c0.3,0.1,0.7,0.3,1.1,0.3c0.4,0.1,0.8,0.1,1.2,0.1c0.6,0,1.1-0.1,1.4-0.4c0.3-0.2,0.5-0.6,0.5-1c0-0.3-0.1-0.5-0.2-0.7
		c-0.1-0.2-0.3-0.3-0.6-0.5s-0.7-0.3-1.2-0.5c-0.8-0.3-1.3-0.6-1.6-1s-0.5-0.8-0.5-1.4s0.2-1.1,0.7-1.5s1.1-0.6,1.9-0.6
		c0.8,0,1.5,0.1,2.2,0.4l-0.3,0.8c-0.7-0.3-1.3-0.4-1.9-0.4c-0.5,0-0.9,0.1-1.2,0.3s-0.4,0.5-0.4,0.9c0,0.3,0.1,0.5,0.2,0.7
		c0.1,0.2,0.3,0.3,0.5,0.5c0.2,0.1,0.6,0.3,1.1,0.5c0.8,0.3,1.4,0.6,1.8,1S37.1,335.2,37.1,335.8z"/>
	<path class="st8" d="M43.9,334.9c0,1-0.2,1.8-0.7,2.3c-0.5,0.6-1.2,0.8-2.1,0.8c-0.5,0-1-0.1-1.4-0.4s-0.7-0.6-1-1.1
		s-0.3-1-0.3-1.7c0-1,0.2-1.8,0.7-2.3c0.5-0.6,1.2-0.8,2.1-0.8c0.8,0,1.5,0.3,2,0.8C43.6,333.1,43.9,333.9,43.9,334.9z M39.3,334.9
		c0,0.8,0.2,1.4,0.5,1.8s0.8,0.6,1.4,0.6c0.6,0,1.1-0.2,1.4-0.6s0.5-1,0.5-1.8s-0.2-1.4-0.5-1.8s-0.8-0.6-1.4-0.6
		c-0.6,0-1.1,0.2-1.4,0.6C39.4,333.5,39.3,334.1,39.3,334.9z"/>
	<path class="st8" d="M46.4,331.8v3.9c0,0.5,0.1,0.9,0.3,1.1s0.6,0.4,1.1,0.4c0.6,0,1.1-0.2,1.4-0.5c0.3-0.3,0.4-0.9,0.4-1.7v-3.2
		h0.9v6.1h-0.8l-0.1-0.8l0,0c-0.2,0.3-0.4,0.5-0.8,0.7c-0.3,0.2-0.7,0.2-1.1,0.2c-0.7,0-1.3-0.2-1.7-0.5s-0.6-0.9-0.6-1.7v-4H46.4z"
		/>
	<path class="st8" d="M55.2,331.7c0.3,0,0.5,0,0.7,0.1l-0.1,0.9c-0.3-0.1-0.5-0.1-0.7-0.1c-0.5,0-0.9,0.2-1.3,0.6
		c-0.3,0.4-0.5,0.9-0.5,1.5v3.3h-0.9v-6.1h0.8l0.1,1.1l0,0c0.2-0.4,0.5-0.7,0.8-0.9S54.8,331.7,55.2,331.7z"/>
	<path class="st8" d="M59.5,338c-0.9,0-1.6-0.3-2-0.8c-0.5-0.5-0.7-1.3-0.7-2.3s0.2-1.8,0.7-2.4s1.2-0.8,2.1-0.8
		c0.3,0,0.6,0,0.9,0.1c0.3,0.1,0.5,0.1,0.7,0.2l-0.3,0.8c-0.2-0.1-0.4-0.1-0.7-0.2c-0.2-0.1-0.5-0.1-0.6-0.1c-1.2,0-1.8,0.8-1.8,2.4
		c0,0.7,0.1,1.3,0.5,1.7c0.3,0.4,0.7,0.6,1.3,0.6c0.5,0,1-0.1,1.6-0.3v0.8C60.6,337.9,60.1,338,59.5,338z"/>
	<path class="st8" d="M65,338c-0.9,0-1.6-0.3-2.1-0.8s-0.8-1.3-0.8-2.3s0.2-1.8,0.7-2.3c0.5-0.6,1.1-0.9,1.9-0.9s1.4,0.2,1.8,0.7
		s0.7,1.2,0.7,2v0.6H63c0,0.7,0.2,1.3,0.5,1.6c0.3,0.4,0.8,0.6,1.4,0.6c0.7,0,1.3-0.1,1.9-0.4v0.8c-0.3,0.1-0.6,0.2-0.9,0.3
		S65.4,338,65,338z M64.8,332.5c-0.5,0-0.9,0.2-1.2,0.5s-0.5,0.8-0.5,1.3h3.2c0-0.6-0.1-1-0.4-1.3S65.3,332.5,64.8,332.5z"/>
	<path class="st8" d="M68.7,332.4c0-0.5,0.2-0.7,0.7-0.7s0.7,0.2,0.7,0.7c0,0.2-0.1,0.4-0.2,0.6c-0.1,0.1-0.3,0.2-0.5,0.2
		s-0.3-0.1-0.5-0.2S68.7,332.7,68.7,332.4z M68.7,337.3c0-0.2,0.1-0.4,0.2-0.6s0.3-0.2,0.5-0.2s0.4,0.1,0.5,0.2s0.2,0.3,0.2,0.6
		c0,0.2-0.1,0.4-0.2,0.6c-0.1,0.1-0.3,0.2-0.5,0.2s-0.3-0.1-0.5-0.2S68.7,337.6,68.7,337.3z"/>
	<path class="st8" d="M81,329.8v5.2c0,0.9-0.3,1.6-0.8,2.2c-0.6,0.5-1.3,0.8-2.3,0.8s-1.7-0.3-2.3-0.8c-0.5-0.5-0.8-1.3-0.8-2.2
		v-5.2h0.9v5.3c0,0.7,0.2,1.2,0.6,1.6s0.9,0.5,1.6,0.5s1.2-0.2,1.6-0.5s0.6-0.9,0.6-1.6v-5.3H81z"/>
	<path class="st8" d="M89,337.9h-1.1L85,334l-0.8,0.8v3.2h-0.9v-8.1h0.9v4l3.7-4H89l-3.3,3.5L89,337.9z"/>
	<path class="st8" d="M93.8,337.9h-0.9v-8.6h0.9V337.9z"/>
	<path class="st8" d="M99.5,337.9l-0.2-0.9l0,0c-0.3,0.4-0.6,0.6-0.9,0.8c-0.3,0.1-0.7,0.2-1.1,0.2c-0.6,0-1.1-0.2-1.4-0.5
		s-0.5-0.8-0.5-1.3c0-1.2,1-1.9,2.9-1.9h1v-0.4c0-0.5-0.1-0.8-0.3-1.1s-0.5-0.3-1-0.3s-1.1,0.2-1.7,0.5l-0.3-0.7
		c0.3-0.2,0.6-0.3,1-0.4s0.7-0.1,1.1-0.1c0.7,0,1.3,0.2,1.6,0.5c0.3,0.3,0.5,0.8,0.5,1.5v4.1L99.5,337.9L99.5,337.9z M97.4,337.3
		c0.6,0,1-0.2,1.3-0.5s0.5-0.8,0.5-1.3V335h-0.9c-0.7,0-1.3,0.1-1.6,0.3c-0.3,0.2-0.5,0.5-0.5,0.9c0,0.3,0.1,0.6,0.3,0.8
		C96.8,337.2,97.1,337.3,97.4,337.3z"/>
	<path class="st8" d="M104.9,331.7c0.8,0,1.4,0.3,1.9,0.8c0.4,0.5,0.7,1.3,0.7,2.3s-0.2,1.8-0.7,2.3c-0.4,0.6-1.1,0.8-1.9,0.8
		c-0.4,0-0.8-0.1-1.1-0.2c-0.3-0.1-0.6-0.4-0.8-0.7h-0.1l-0.2,0.8H102v-8.6h0.9v2.1c0,0.5,0,0.9,0,1.3l0,0
		C103.4,332,104.1,331.7,104.9,331.7z M104.8,332.5c-0.6,0-1.1,0.2-1.4,0.5c-0.3,0.4-0.4,1-0.4,1.8s0.1,1.5,0.4,1.8
		c0.3,0.4,0.7,0.5,1.4,0.5c0.6,0,1-0.2,1.3-0.6s0.4-1,0.4-1.8s-0.1-1.4-0.4-1.8S105.3,332.5,104.8,332.5z"/>
	<path class="st8" d="M114.2,334.9c0,1-0.2,1.8-0.7,2.3c-0.5,0.6-1.2,0.8-2.1,0.8c-0.5,0-1-0.1-1.4-0.4s-0.7-0.6-1-1.1
		s-0.3-1-0.3-1.7c0-1,0.2-1.8,0.7-2.3c0.5-0.6,1.2-0.8,2.1-0.8c0.8,0,1.5,0.3,2,0.8C114,333.1,114.2,333.9,114.2,334.9z
		 M109.6,334.9c0,0.8,0.2,1.4,0.5,1.8s0.8,0.6,1.4,0.6s1.1-0.2,1.4-0.6s0.5-1,0.5-1.8s-0.2-1.4-0.5-1.8s-0.8-0.6-1.4-0.6
		s-1.1,0.2-1.4,0.6C109.8,333.5,109.6,334.1,109.6,334.9z"/>
	<path class="st8" d="M116.7,331.8v3.9c0,0.5,0.1,0.9,0.3,1.1c0.2,0.2,0.6,0.4,1.1,0.4c0.6,0,1.1-0.2,1.4-0.5s0.4-0.9,0.4-1.7v-3.2
		h0.9v6.1H120l-0.1-0.8l0,0c-0.2,0.3-0.4,0.5-0.8,0.7c-0.3,0.2-0.7,0.2-1.1,0.2c-0.7,0-1.3-0.2-1.7-0.5c-0.4-0.3-0.6-0.9-0.6-1.7v-4
		H116.7z"/>
	<path class="st8" d="M125.6,331.7c0.3,0,0.5,0,0.7,0.1l-0.1,0.9c-0.3-0.1-0.5-0.1-0.7-0.1c-0.5,0-0.9,0.2-1.3,0.6
		c-0.3,0.4-0.5,0.9-0.5,1.5v3.3h-0.9v-6.1h0.8l0.1,1.1l0,0c0.2-0.4,0.5-0.7,0.8-0.9S125.2,331.7,125.6,331.7z"/>
	<path class="st8" d="M138.1,337.9V334c0-0.5-0.1-0.8-0.3-1.1c-0.2-0.2-0.5-0.4-1-0.4c-0.6,0-1,0.2-1.3,0.5s-0.4,0.8-0.4,1.5v3.4
		h-0.9V334c0-0.5-0.1-0.8-0.3-1.1c-0.2-0.2-0.5-0.4-1-0.4c-0.6,0-1,0.2-1.3,0.5s-0.4,0.9-0.4,1.7v3.2h-0.9v-6.1h0.7l0.1,0.8l0,0
		c0.2-0.3,0.4-0.5,0.7-0.7s0.7-0.2,1.1-0.2c0.9,0,1.6,0.3,1.9,1l0,0c0.2-0.3,0.4-0.6,0.8-0.8s0.7-0.3,1.2-0.3c0.7,0,1.2,0.2,1.5,0.5
		c0.3,0.4,0.5,0.9,0.5,1.7v4L138.1,337.9L138.1,337.9z"/>
	<path class="st8" d="M144.6,337.9l-0.2-0.9l0,0c-0.3,0.4-0.6,0.6-0.9,0.8c-0.3,0.1-0.7,0.2-1.1,0.2c-0.6,0-1.1-0.2-1.4-0.5
		c-0.3-0.3-0.5-0.8-0.5-1.3c0-1.2,1-1.9,2.9-1.9h1v-0.4c0-0.5-0.1-0.8-0.3-1.1c-0.2-0.2-0.5-0.3-1-0.3s-1.1,0.2-1.7,0.5l-0.3-0.7
		c0.3-0.2,0.6-0.3,1-0.4s0.7-0.1,1.1-0.1c0.7,0,1.3,0.2,1.6,0.5s0.5,0.8,0.5,1.5v4.1L144.6,337.9L144.6,337.9z M142.6,337.3
		c0.6,0,1-0.2,1.3-0.5s0.5-0.8,0.5-1.3V335h-0.9c-0.7,0-1.3,0.1-1.6,0.3c-0.3,0.2-0.5,0.5-0.5,0.9c0,0.3,0.1,0.6,0.3,0.8
		C141.9,337.2,142.2,337.3,142.6,337.3z"/>
	<path class="st8" d="M150,331.7c0.3,0,0.5,0,0.7,0.1l-0.1,0.9c-0.3-0.1-0.5-0.1-0.7-0.1c-0.5,0-0.9,0.2-1.3,0.6
		c-0.3,0.4-0.5,0.9-0.5,1.5v3.3h-0.9v-6.1h0.8l0.1,1.1l0,0c0.2-0.4,0.5-0.7,0.8-0.9S149.6,331.7,150,331.7z"/>
	<path class="st8" d="M152.7,334.8c0.2-0.2,0.4-0.5,0.7-0.9l2-2.1h1.1l-2.5,2.6l2.6,3.5h-1.1l-2.1-2.9l-0.7,0.6v2.3h-0.9v-8.6h0.9
		v4.6C152.7,334.1,152.7,334.4,152.7,334.8L152.7,334.8z"/>
	<path class="st8" d="M160.3,338c-0.9,0-1.6-0.3-2.1-0.8s-0.8-1.3-0.8-2.3s0.2-1.8,0.7-2.3c0.5-0.6,1.1-0.9,1.9-0.9
		c0.8,0,1.4,0.2,1.8,0.7c0.4,0.5,0.7,1.2,0.7,2v0.6h-4.2c0,0.7,0.2,1.3,0.5,1.6c0.3,0.4,0.8,0.6,1.4,0.6c0.7,0,1.3-0.1,1.9-0.4v0.8
		c-0.3,0.1-0.6,0.2-0.9,0.3S160.8,338,160.3,338z M160.1,332.5c-0.5,0-0.9,0.2-1.2,0.5s-0.5,0.8-0.5,1.3h3.2c0-0.6-0.1-1-0.4-1.3
		C160.9,332.7,160.6,332.5,160.1,332.5z"/>
	<path class="st8" d="M166.1,337.3c0.2,0,0.3,0,0.5,0s0.3,0,0.4-0.1v0.7c-0.1,0-0.2,0.1-0.4,0.1s-0.4,0-0.5,0
		c-1.2,0-1.8-0.6-1.8-1.9v-3.6h-0.9v-0.4l0.9-0.4l0.4-1.3h0.5v1.4h1.8v0.7h-1.8v3.6c0,0.4,0.1,0.6,0.3,0.8
		C165.6,337.2,165.8,337.3,166.1,337.3z"/>
	<path class="st8" d="M169.1,336.6l0.1,0.1c-0.1,0.4-0.2,0.8-0.4,1.3s-0.4,0.9-0.6,1.4h-0.7c0.1-0.4,0.2-0.9,0.3-1.4
		c0.1-0.6,0.2-1,0.3-1.4H169.1z"/>
	<path class="st8" d="M172.8,340c-0.3,0-0.6,0-0.8-0.1v-0.8c0.3,0.1,0.5,0.1,0.8,0.1c0.4,0,0.6-0.1,0.8-0.3c0.2-0.2,0.3-0.5,0.3-1
		v-8.1h0.9v8c0,0.7-0.2,1.2-0.5,1.6C174,339.8,173.5,340,172.8,340z"/>
	<path class="st8" d="M177.7,331.8v3.9c0,0.5,0.1,0.9,0.3,1.1s0.6,0.4,1.1,0.4c0.6,0,1.1-0.2,1.4-0.5c0.3-0.3,0.4-0.9,0.4-1.7v-3.2
		h0.9v6.1H181l-0.1-0.8l0,0c-0.2,0.3-0.4,0.5-0.8,0.7c-0.3,0.2-0.7,0.2-1.1,0.2c-0.7,0-1.3-0.2-1.7-0.5s-0.5-0.9-0.5-1.7v-4H177.7z"
		/>
	<path class="st8" d="M184.7,337.9h-0.9v-8.6h0.9V337.9z"/>
	<path class="st8" d="M185.7,331.8h1l1.3,3.5c0.3,0.8,0.5,1.4,0.5,1.7l0,0c0-0.2,0.1-0.5,0.3-1s0.7-1.9,1.5-4.2h1l-2.6,6.9
		c-0.3,0.7-0.6,1.2-0.9,1.5c-0.3,0.3-0.8,0.4-1.3,0.4c-0.3,0-0.6,0-0.8-0.1v-0.7c0.2,0,0.4,0.1,0.7,0.1c0.6,0,1.1-0.4,1.3-1.1
		l0.3-0.9L185.7,331.8z"/>
	<path class="st8" d="M200.2,337.9h-5.3v-0.8l2.1-2.1c0.6-0.7,1.1-1.1,1.3-1.4s0.4-0.6,0.5-0.8c0.1-0.3,0.2-0.6,0.2-0.9
		c0-0.4-0.1-0.8-0.4-1c-0.3-0.3-0.6-0.4-1.1-0.4c-0.3,0-0.7,0.1-1,0.2s-0.6,0.3-1,0.6l-0.5-0.6c0.7-0.6,1.6-0.9,2.4-0.9
		c0.8,0,1.4,0.2,1.8,0.6s0.6,0.9,0.6,1.6c0,0.5-0.1,1-0.4,1.5c-0.3,0.5-0.8,1.1-1.6,1.9l-1.8,1.7l0,0h4.2V337.9z"/>
	<path class="st8" d="M206.8,333.9c0,1.4-0.2,2.4-0.7,3.1s-1.1,1-2,1s-1.5-0.4-2-1.1s-0.7-1.7-0.7-3.1s0.2-2.5,0.7-3.1
		c0.4-0.7,1.1-1,2-1s1.5,0.4,2,1.1C206.5,331.5,206.8,332.5,206.8,333.9z M202.3,333.9c0,1.2,0.1,2,0.4,2.6c0.3,0.5,0.7,0.8,1.3,0.8
		s1.1-0.3,1.3-0.8c0.3-0.5,0.4-1.4,0.4-2.6s-0.1-2-0.4-2.6c-0.3-0.5-0.7-0.8-1.3-0.8s-1,0.3-1.3,0.8S202.3,332.7,202.3,333.9z"/>
	<path class="st8" d="M211.3,337.9h-0.9v-5.8c0-0.5,0-0.9,0-1.4c-0.1,0.1-0.2,0.2-0.3,0.2s-0.5,0.4-1.3,1.1l-0.5-0.6l2.1-1.7h0.8
		L211.3,337.9L211.3,337.9z"/>
	<path class="st8" d="M215.4,337.9l3.4-7.2h-4.4v-0.8h5.4v0.7l-3.3,7.3H215.4z"/>
</g>
<text transform="matrix(1 0 0 1 748.7939 431.418)" class="st0 st1 st2">Footer height</text>
<text transform="matrix(1 0 0 1 748.7939 453.018)" class="st0 st3 st2">50px</text>
<polyline class="st9" points="733.1,436.6 317.3,436.6 317.3,343.9 "/>
<g>
	<g>
		<g>
			<defs>
				<rect id="SVGID_1_" width="644.4" height="360.6"/>
			</defs>
			<clipPath id="SVGID_2_">
				<use xlink:href="#SVGID_1_"  style="overflow:visible;"/>
			</clipPath>
			<g class="st10">
				<g>
					<path class="st8" d="M361.8,282.6c-2.5,1.5-4.8,2.5-7,3l-5.4-9.2c2.2-0.6,4-1.4,5.6-2.3c2.4-1.4,3.7-3.2,3.9-5.3
						c0.2-2.1-0.7-4.8-2.6-8L328,212.2l11-6.4l28.4,48.7c3.5,6.1,4.8,11.5,3.9,16.3C370.4,275.5,367.2,279.5,361.8,282.6z"/>
					<path class="st8" d="M414.4,196.5c5,8.6,6.7,16.5,5.2,23.6c-1.6,7.1-6.3,13-14.3,17.6s-15.4,5.9-22.4,3.8s-13-7.5-18-16.2
						s-6.8-16.5-5.1-23.6c1.6-7.1,6.4-12.9,14.4-17.6c8-4.7,15.4-5.9,22.4-3.8C403.4,182.5,409.4,187.9,414.4,196.5z M376.5,218.6
						c3.4,5.8,7,9.5,11,11.2c3.9,1.7,8.1,1.2,12.5-1.4c8.8-5.1,9.8-13.5,3-25.2s-14.6-15-23.4-9.9c-4.4,2.6-6.8,6-7.3,10.2
						C371.7,207.8,373.1,212.8,376.5,218.6z"/>
				</g>
				<g>
					<path class="st8" d="M385.5,163.5l23.2-13.5c10.6-6.2,19.1-9.1,25.7-8.9c6.5,0.2,11.7,3.6,15.5,10.2c2.6,4.5,3.7,8.7,3.3,12.8
						c-0.4,4.1-2.2,7.4-5.3,10l0.3,0.5c5.3-1.7,9.9-1.7,13.7,0c3.8,1.7,7.1,4.9,9.9,9.7c4,6.8,4.6,13.5,1.9,20.2
						s-8.3,12.5-16.7,17.4l-28,16.2L385.5,163.5z M418.6,183.8l9.2-5.4c4.3-2.5,7-5,8.1-7.4s0.8-5.2-1-8.3c-1.7-2.9-3.9-4.3-6.7-4.3
						c-2.8,0-6.5,1.3-11,3.9l-8.3,4.8L418.6,183.8z M425.9,196.4l11.3,19.4l10.3-6c4.4-2.5,7.1-5.2,8.2-8.1c1.1-2.9,0.7-6-1.3-9.5
						c-3.6-6.2-9.8-6.7-18.7-1.5L425.9,196.4z"/>
					<path class="st8" d="M531.1,150.8c3.9,6.7,4.6,13.4,2,20.1c-2.6,6.7-8.2,12.6-16.8,17.6c-8,4.6-15.9,7.2-23.7,7.8l-8.6-14.7
						c6.3-0.7,11.5-1.6,15.5-2.7c4-1.1,7.5-2.5,10.4-4.2c3.5-2,5.7-4.2,6.8-6.6c1.1-2.4,0.9-4.9-0.7-7.5c-0.9-1.5-2-2.5-3.5-3.2
						s-3.3-1.1-5.5-1.2c-2.2-0.1-6.4,0.1-12.6,0.6c-5.8,0.5-10.4,0.5-13.8-0.2c-3.4-0.6-6.6-1.9-9.5-3.7s-5.4-4.5-7.4-8
						c-3.8-6.6-4.6-13.1-2.4-19.5c2.3-6.4,7.3-11.9,15.2-16.5c3.9-2.3,7.8-4,11.9-5.1s8.5-2,13.3-2.6l2.1,15.3
						c-4.9,0.7-8.9,1.5-11.9,2.3c-3,0.9-5.7,2-8.2,3.5c-3,1.7-4.9,3.8-5.7,6.1c-0.8,2.3-0.5,4.6,0.8,6.9c0.8,1.4,1.8,2.4,3.1,3.1
						c1.3,0.7,2.9,1.1,4.8,1.2c2,0.1,6.3-0.1,13.1-0.6c8.9-0.7,15.6-0.2,20.2,1.7C524.6,142.6,528.3,145.9,531.1,150.8z"/>
				</g>
				<g>
					<g>
						<path class="st11" d="M543.7,203c-26.7,33.7-76,39.7-110,13.5c-34-26.3-40-75.1-13.3-108.8s76-39.7,110-13.5
							S570.4,169.2,543.7,203 M574.9,195.7c7.3-16.4,10.1-34.5,7.9-52.7c-3.3-26.6-16.8-50.4-38.1-66.9s-47.9-23.8-74.8-20.5
							S419,72.4,402.2,93.5c-16.7,21.2-24.1,47.5-20.9,74.1c3.3,26.6,16.8,50.4,38.1,66.9c21.3,16.5,47.9,23.8,74.8,20.5
							c18.4-2.3,35.5-9.3,49.8-20.3l10.9,8.4l30.8-39L574.9,195.7z"/>
					</g>
					<path class="st11" d="M660.8,267.3l-70.7-48.7c-0.2-0.1-0.3-0.2-0.5-0.3l-19.8,25.1c0.1,0.1,0.3,0.2,0.4,0.4l64.9,56.1
						c9,7,22.1,5.4,29.2-3.6C671.4,287.3,669.9,274.3,660.8,267.3"/>
					<path class="st12" d="M486.4,88.8c-12.5-0.9-20.9,2.3-21.8,2.7c-3.5,1.5-5.2,5.5-3.8,9c1.5,3.5,5.5,5.2,9.1,3.7
						c0.2-0.1,25.5-10,52.7,17.2c2.7,2.7,7.1,2.7,9.8,0c0.2-0.2,0.4-0.4,0.6-0.7c2.1-2.7,2-6.6-0.5-9.1
						C515.1,94.3,497.9,89.7,486.4,88.8"/>
				</g>
			</g>
		</g>
	</g>
</g>
<circle class="st13" cx="317.3" cy="345.4" r="3.7"/>
<polygon class="st14" points="644.4,0 644.3,0 644.3,-0.1 612.8,-0.1 612.8,0 31.5,0 31.5,-0.1 0.1,-0.1 0.1,0 0,0 0,31.4 0.1,31.4 
	0.1,360.6 31.5,360.6 31.5,31.4 612.8,31.4 612.8,360.6 644.3,360.6 644.3,31.4 644.4,31.4 "/>
<line class="st9" x1="735.7" y1="338.9" x2="621.1" y2="338.9"/>
<circle class="st13" cx="620.6" cy="338.9" r="3.7"/>
<text transform="matrix(1 0 0 1 748.7939 14.5864)" class="st0 st1 st2">Margin</text>
<text transform="matrix(1 0 0 1 748.7939 36.1864)" class="st0 st3 st2">50px</text>
<line class="st9" x1="735.7" y1="16.9" x2="476.2" y2="16.9"/>
<circle class="st13" cx="475.7" cy="16.9" r="3.7"/>
</svg>
