<?xml version="1.0" encoding="utf-8"?>
<!-- Generator: Adobe Illustrator 21.1.0, SVG Export Plug-In . SVG Version: 6.00 Build 0)  -->
<svg version="1.1" id="Layer_1" xmlns="http://www.w3.org/2000/svg" xmlns:xlink="http://www.w3.org/1999/xlink" x="0px" y="0px"
	 viewBox="0 0 800 600" style="enable-background:new 0 0 800 600;" xml:space="preserve">
<style type="text/css">
	.st0{fill:#3C7A9F;stroke:#FFFFFF;stroke-miterlimit:10;}
	.st1{fill:#F9C5AF;stroke:#FFFFFF;stroke-miterlimit:10;}
	.st2{fill:#E4C6D1;stroke:#FFFFFF;stroke-miterlimit:10;}
	.st3{fill:#BCE4FA;stroke:#FFFFFF;stroke-miterlimit:10;}
	.st4{fill:none;stroke:#FFFFFF;stroke-width:1.5;}
</style>
<title>Map</title>
<g id="rand">
	<path class="st0" d="M335.1,326.2c0.3-0.6,1-2.5,0.1-2.4s-4.6,0.7-5.2,1.4c-0.5,0.6-4.8,5-5.1,5.6s-0.8,1.5-1.4,1.5
		c-0.6,0.1-2.6,0.4-2.8,0.7c-0.9,1.2-1.6,2.4-2.3,3.7c-0.1,0.9-0.3,1.8-0.7,2.6c-0.4,0.6-2.7,3.3-1.9,3.3c0.8,0,3-0.8,3.6-0.4
		c0.5,0.5,1.4,1,1.5,1.3s1,1.3,1.1,0.7s0-1.4,0.9-1.6s4.5-1.3,4.8-1.8c0.4-0.6,1.2-1.7,1.8-1.9s2.5-0.4,2.7-1.2s0.2-1.9,0.8-2.7
		s3.5-3.2,2.7-3.8c-0.7-0.4-1.1-1.1-1.4-1.8c-0.2-0.6-0.1-1.3,0.2-1.8C334.8,327.2,335,326.7,335.1,326.2z"/>
	<path class="st0" d="M370.5,405.7l1.2,0.1l3,3.6c0,0,0.2-0.5,0.5-0.3s0.5,0.4,0.3,0.5s-0.7,0.3-0.4,0.5s0.5,0.6,0.4,0.8
		c-0.1,0.1-0.8,1.1-1.2,1.1c-0.4,0-1.8-0.1-1.7,0.1c0.1,0.5,0.2,1.1,0.5,1.6c0.2,0.3,2.7,1.8,2.5,2.1c-0.2,0.3-0.7,0.4-0.5,0.7
		c0.5,0.7,0.9,1.5,1.2,2.3c0,0.3,0.1,1.3,0.1,1.5s0.3,1.7,0.7,1.9s2.7,1.8,2.9,1.8s0.7,0.3,0.7,0.6c0.1,0.4,0.1,0.8,0,1.3
		c-0.1,0.3-0.6,0.7-0.6,0.9s0.2,1.4,0,1.5s-2.3,0.8-2.6,1s-0.7-0.1-0.8-0.3c-0.5-0.9-1-1.8-1.6-2.6c-0.2-0.1-3.8-1.8-3.8-1.8
		s0.1-0.8-0.4-0.7c-0.5,0.1-1.3,0.4-1.4,0.7s-0.1,0.5-0.4,0.6c-0.4,0.1-2,0.4-2.2,0.5c-0.3,0-0.5,0.1-0.8,0.2
		c-0.3,0.4-0.7,0.8-1.1,1.1c-0.3,0.1-1.2,0.3-1.3,0.6c-0.1,0.3-0.6,3.4-0.7,4s-0.4,1.6-0.4,1.6s0.7,1.3,1.1,1.2
		c0.4,0,1.2-0.6,1.5-0.4s1.9,3.1,2.3,3.5s1.5,1.2,1,1.2c-0.5,0.1-1.4-0.1-1.5,0.2c-0.4,1.3-0.8,2.6-1.4,3.8
		c-0.2,0.1-1.9,1.1-1.7,1.2c0.2,0.1,0.7,0.4,0.2,0.7c-0.5,0.3-3.6,2.3-3.5,2.6c0.1,0.3,0.8,2,0.6,2.2c-0.3,0.5-0.5,1-0.6,1.5
		l4.5-1.7c0.6,0,1,0.4,1,1c0,0.1,0,0.2,0,0.3c-0.1,0.3-0.2,0.9-0.7,1.1c-0.6,0.2-5.3,1.6-5.5,1.7s-3.6,2-3.6,2l4.3,6.3
		c0,0,1,1.2,1.5,1.3s2.8,0.4,2.8,0.4s0.7,0.2,0.1,0.5c-0.6,0.2-1.1,0.5-1.6,0.9c-0.4,0.8-0.7,1.6-0.8,2.4c0.1,0.1,1.6,2.2,1.1,2.1
		s-1.6-1-1.9-0.6s-1.4,1.6-1.5,1.8s-4,5.7-4,5.7s1.4,1,1.2,1.4c-0.2,0.4-1.1,2.1-1.2,2.4s-0.1,0.7,0.2,1c0.3,0.3,1.1,1.3,1.1,1.7
		s0,3.7,0,3.7l3.9,4.4c0.4,0.3,0.8,0.6,1.3,0.8c0.6,0.1,2.8,0.7,3.2,1.2c0.4,0.5,2.9,4.8,2.9,4.8l1.4-0.5c0.1,0.4,0.2,0.7,0.5,1
		c0.4,0.3,0.9,0.5,1.3,0.8c0,0-1.2,1.5-1.2,1.9s0.1,2.5-0.1,2.7s-1.1,0.8-1.1,1.1s-0.1,1,0.1,1.1s0.6,0.5,0.4,0.7s-0.4,0.2-0.4,0.4
		c0,0.3,0,0.6,0,0.9c-0.1,0.1-1,0.8-0.7,1s0.9,0.2,0.6,0.4c-0.3,0.2-0.8,0.6-0.6,0.9c0.2,0.3,0.6,0.2,0.6,0.4c0,0.3,0,0.5,0.1,0.8
		l0,0c0.1,0.3,0.1,1.1,0.3,0.8s1.6-2.2,1.8-2.6c0.2-0.3,0.5-1,0.9-1.1c0.9-0.2,1.9-0.6,2.7-1c0.7-0.7,1.4-1.3,2.2-1.8
		c0.5-0.3,1.8-1,2.2-1.1s0.8-0.5,0.5-0.7s-0.6-0.3-0.6-0.7s-0.3-1.1,0.1-0.8c0.5,0.4,1,0.9,1.5,1.4c0.1,0.2,1.4,1,0.7,1.3
		c-1.5,0.6-3,1.2-4.4,2c-0.2,0.3-1.2,1.2-1.6,1.6c-0.3,0.3-3.9,3.5-4.5,4c-0.5,0.3-1,0.7-1.4,1.1c-0.3,0.4-1.6,2.6-2,3.1
		s-0.9,0.7-0.8,1.2s1,2.3,0.6,2.5c-0.4,0.1-0.8,0.5-1.1-0.1s-0.7-1.6-1.1-1.6c-0.5,0-1,0.1-1.4,0.3c-0.3,0.1-2.6,1.8-2.9,2
		c-0.6,0.5-1.1,1.1-1.6,1.7c-0.1,0.3-0.8,2.5-1.1,2.5s-4-1.3-3.8-0.7s0.6,0.9,0.1,1.3c-0.5,0.4-1.1,0.7-1.2,1.2s0,3.1-0.4,2.9
		s-0.6-0.8-0.9-0.1s-0.5,1.5-0.5,2.3c0.1,0.5,0.9,1.4,0.6,1.6s-0.8,0.4-0.5,0.8c0.3,0.4,0.8,1.2,0.4,1.4s-1.1,0.7-1,1
		c0.3,0.8,0.4,1.6,0.4,2.5c-0.2,0.3-0.7,1-1,0.8c-0.5-0.5-0.8-1.3-0.8-2c0.2-0.8,1-3,0.3-2.9c-1,0.1-2,0.2-3.1,0.1
		c-0.3,0-3.8,0.2-4.3,0.3c-0.6,0.1-2.1,1-2.6,0.5c-0.5-0.4-1.1-0.7-1.8-0.8c-0.5-0.1-4.3-0.3-4.4-1s-0.1-1.4-0.4-1.4
		s-1.4-0.3-1.4-0.7c0.1-0.5-0.2-1-0.7-1.2c-0.6-0.3-2.5-1-2.6-0.8s0.1,0.5-0.5,0.5c-1.9-0.2-3.7-0.5-5.5-1c-0.5-0.4-1.1-0.7-1.7-1
		c-0.4-0.1-3.5-0.5-3.9-0.2s-0.2,1.1-1,0.8c-0.6-0.3-1.2-0.6-1.9-0.8c-0.4,0-4-0.3-4.2-0.1s-0.4,1-1,0.9s-2.5-1.1-2.7-1.1
		c-0.3,0-3.1-0.1-3.3,0.5c-0.1,0.5-0.5,2.6-1,2.7c-0.5,0.1-1.3-0.1-1.3,0.2c-0.1,0.6-0.1,1.1,0.2,1.6c0.4,0.6,1.1,2.6,1.6,2.6
		c1.2-0.1,2.4-0.1,3.5,0.1c0.4,0.2,2,1,1.1,1s-4-0.4-4.2,0s-1,2.1-1,2.3c-0.1,0.4-0.3,0.7-0.6,1c-0.3,0.2-0.9,0.6-0.8,0
		s1-1.6,0.8-1.9c-0.7-0.7-1.8-0.6-2.5,0.1c-0.5,0.5-1.2,1.6-1.8,1.8c-0.8,0.3-1.6,0.4-2.4,0.2c-0.5-0.3-1.6-1.4-2-1.4
		c-0.5,0.1-1.1,0-1.6-0.3c-0.7-0.4-1.4-0.7-2.1-0.9c-0.3,0-1.2,0.3-1.3,0.8c-0.1,0.5-0.6,4.1-1,4.4c-0.4,0.3-1,0.3-1,1.2
		s-0.1,3.3-0.2,3.9c-0.2,1.3-0.6,2.5-1.2,3.6c-0.6,0.5-1.3,1-2,1.4c-0.5,0.2-1.8,1.1-1.9,1.4c-0.1,0.4-0.2,0.8-0.4,1.2
		c-0.2,0.2-1.4,1.5-1.8,1.5c-0.5,0-1,0.1-1.4,0.3c-0.3,0.1-2,0.8-2.2,1.2s-0.3,2.6-0.8,2.9s-1.6,2-2.1,1.2s-0.6-1.6-1.2-1.2
		c-0.5,0.4-0.7,1.1-1.2,1s-2-1-2-0.3s0.1,2.2-0.3,1.9s-0.7-0.5-1.2-0.4s-1.4,0.5-1.8,0.4s-0.6-0.3-0.9-0.2s-0.5,0-0.5,0.7
		c0.1,0.7,0.3,1.7-0.1,1.8s-0.9,0.1-0.9,0.5c-0.1,0.9-0.2,1.9-0.6,2.7c-0.3,0.5-1.8,2.7-2.2,2.5c-0.5-0.2-1.1-0.3-1.6-0.3
		c-0.5,0.1-1.5,0.1-1.3,0.5c0.2,0.5,0.6,0.9,0.3,1.2c-0.5,0.8-1,1.6-1.4,2.5c-0.1,0.3-0.2,0.8-0.8,0.8c-0.8,0-1.5,0.2-2.2,0.5
		c-0.2,0.3-1,1.7-1.4,1.8c-0.7,0.2-1.3,0.4-1.9,0.7c-0.5,0.4-1,0.7-1.6,1c-0.3,0-2.3-0.3-2.3-0.3s-1.8,1.8-1.9,2.1s-0.2,1-0.6,1
		c-0.4,0-1.4-0.2-1.6-0.6s-0.5-1.4-0.8-1.6c-0.5-0.2-1-0.3-1.5-0.1c-0.3,0.2-2.2,1.1-2.5,1.4c-0.2,0.3-0.6,1.1-1.2,1.2
		s-2.3-0.1-2.9,0.3s-2.2,1.4-2,1.8s0.6,0.6,0.6,1s0.5,0.8-0.2,1.2c-0.7,0.5-1.1,0.6-1.1,1.2s0.6,0.8,0.8,1.1s0.6,1.6,1.2,1.4
		s4.2-0.3,4.6-0.8c0.4-0.4,1.2-1.5,1-1.8s-0.6-1.2-0.2-1.6c0.4-0.3,0.7-1.1,1.2-0.9s2,0.6,2.2,1s0.4,1.4,0.9,1.4
		c0.6,0,1.1,0.2,1.6,0.4c0.2,0.2,0.4,0.8,1,0.8s0.8-0.1,1.3,0.1c0.5,0.3,1.8,1.4,2,2.1c0.2,0.9,0.3,1.9,0.3,2.8
		c-0.1,0.3-0.6,1.2-0.4,1.6c0.2,0.8,0.4,1.5,0.8,2.2c0.4,0.4,1,1.2,1.6,0.8s1.6-2.4,2-2.3s2.2,0.8,2.5,0.5s2.4-2.3,2.2-2.7
		c-0.1-0.4-0.3-1.8-0.9-2.1s-2.2-1-2.2-1.4s0.2-0.8,0.5-0.7s1.3,0.8,1.5,0.5s0.7-2,1.1-2.1c0.4-0.1,1.1,0.1,1-0.4
		c-0.1-0.4-0.1-0.8-0.1-1.2c0.1-0.3,0.4-1.2,0.2-1.6c-0.2-0.3-1-0.8-0.5-1s2.2,0,2.2,0.4s-0.9,3.8-0.4,3.8s1-0.2,1.4-0.6
		c0.1-0.3,1-1.8,1.4-1.8s1.5,0.2,1.9-0.1s2.2-2,2.9-1.8c0.8,0.3,1.7,0.6,2.5,0.8c0.3-0.1,1.4-1,1.2-1.2c-0.2-0.4-0.3-0.8-0.2-1.2
		c0.1-0.3,0.1-1,0.5-1.2c0.5-0.2,0.8-0.5,0.9-1s0.1-1.4,0.7-1.6c0.6-0.1,2.7-1.2,2.7-0.4s-0.4,2.1,0.2,2c1.1-0.3,2.3-0.4,3.5-0.5
		c0.6,0.1,2.1,0.5,2.3,0.5c0.2,0,1.6,0.8,1.8,0.5c0.2-0.3,0.6-0.5,0.5-1s-0.6-1.1-0.5-1.5s0.3-0.5,0.8-0.2c0.5,0.4,1.1,0.7,1.6,1
		c1.2,0.2,2.3,0.4,3.5,0.5c0.5,0,1.6-0.2,2.2,0.2c0.5,0.4,2.1,1.6,2.1,2s-0.3,1.4,0,1.6s1.6,0.8,1.6,0.4c0.1-0.3,0-1.4,0.3-1.4
		s1-0.1,0.9-0.4c-0.1-0.3-0.4-0.5-0.7-0.5c-0.4-0.1-0.8-0.2-1.1-0.4c-0.3-0.2-0.8-0.8-0.7-1c0.1-0.2,0.1-0.4-0.3-0.7
		s-2.5-1.1-2.5-1.1s-0.5-0.5-0.3-0.9c0.1-0.3,0.5-0.5,0.8-0.3c0.1,0.1,0.2,0.1,0.3,0.3c0.6,0.6,1.4,1,2.2,1.2
		c0.4-0.1,1.1-0.8,1.3-0.3c0.2,0.5,0.5,2.1,1,2.3c0.4,0.2,1.8,0.6,1.8,1s-0.3,0.6,0,1.2s0.1,1.3,0.5,1.4c0.5,0.1,1.2,0.1,1.2,0.5
		s0.1,1,0.5,1.1c0.5,0.1,1.1,0.2,1.6,0.3c0.5,0,0.8-0.3,1.5,0s1.4,1,2,1.1s3.2,0.3,3.1,0.8s-1.2,2.7-0.9,3c0.4,0.3,0.7,0.6,1,1
		c0.3,0.3,0.5,1.2,1,1.3c0.4,0.1,0.8,0.4,1-0.1s0.1-1.6,0.6-1s1.3,2.6,1.8,2.2c0.5-0.3,1.1-1.3,1.6-1.2s1.2,0.5,1.3,0.1
		c0.2-1.3,0.4-2.7,0.8-4c0.3-0.5,0.9-2,1.3-2c0.6,0.1,1.2,0.1,1.8,0.1c0.4-0.1,0.9-0.1,0.8-0.6s-0.4-1.8,0.1-1.2s0.5,1.2,1.2,1
		s0.9-0.1,0.9-0.6s-0.1-1.2,0.3-1.4s0.9-0.2,0.8-0.6s0-0.8-0.6-1c-0.5-0.2-1.7,0.1-1.8-0.7s-0.1-1.4,0.3-1.8c0.4-0.4,1.6-2.2,2-2.2
		s1-0.1,1-0.3c-0.1-1.1-0.3-2.2-0.5-3.3c-0.2-0.1-1.6,0-1.6-0.4s-0.1-0.7,0.5-0.7c0.5,0,2.7,0.2,3.1-0.1s1.3-1.1,1.3-1.4
		c0,0-0.4-1,0.1-1.2s1.3-0.4,1-0.8c-0.3-0.3-0.8-0.5-0.8-1.1s-0.5-4.3,0-4.2s0.8-0.2,0.9,0.4c0.1,0.6-0.5,1.4,0.2,2.1s1,0.9,1,1.2
		s-0.6,2,0.1,2.1s1.4,0.5,1.7,0.2c0.3-0.3,0.1-1.2,0.8-1.2c0.6,0,1.4,0.3,1.6,0c0.3-0.3,0.6-0.3,0.9-0.8s0.2-0.7,0.7-1
		s1.1-0.5,1.7-0.5c0.3,0,5.4,0,5.7-0.1c0.3-0.3,0.7-0.4,1.2-0.5c0.5,0,4.2,0.1,4.9,0c0.9-0.3,1.8-0.4,2.7-0.5c0.3,0.1,1.8,0.9,2.2,1
		s2.5,0.5,2.7,0.8c0.5,0.7,1.1,1.3,1.8,1.8c0.5,0.2,3.5,2.4,3.8,2.7s0.9,1.2,1.2,1.5c0.9,0.8,1.7,1.7,2.4,2.7
		c0.2,0.5,0.4,0.9,0.8,1.3c0.2,0.2,0.7,0.1,0.8,0.5s0.7,1.1,0.3,1.5s-1.2,1.5-0.6,1.6c0.5,0.1,1.8-0.3,1.8-0.8
		c0.1-0.5,0-0.9-0.2-1.4c-0.3-0.7-0.6-1.4-0.7-2.2c0-0.4,0.4-2.3,1-2.3s1.7-0.1,2,0.2c0.7,0.5,1.5,0.9,2.2,1.2
		c1.3,0.5,2.6,0.9,4,1.2c1,0.2,2.8,0.4,3.2,0.6s1.2,1.2,1.6,1.3s1.7,0.3,1.8,0.6c0.1,0.3,0.2,0.8,0.7,0.9c0.9,0.1,1.7,0.1,2.6,0
		c0.3-0.2,0.9-0.1,1-0.9c0.1-0.8-0.3-1,0.2-1.4s1-0.6,1-1s0.1-1.9-0.1-2s-2.8-0.8-3.4-1s-3-0.4-3-0.8s-0.1-0.7,0.4-0.9
		s2.5-0.3,2.4-0.6s-0.4-1.1,0.1-1.2c0.5,0,1,0.1,1.5,0.2c0.5,0.3,1,0.7,1.4,1.2c0.2,0.3,0.5,1,1,1.1s1.1,0.4,1.5,0.1
		s0.9-1.1,1.3-1.1c0.8,0,1.6,0,2.4,0.3c0.4,0.3,0.8,0.8,1.2,0.9s1.5,0.8,1.5,0.3s-0.3-1.1,0.1-1.1c0.5,0,3.3-0.4,3.9-0.1
		c0.6,0.4,1.1,0.8,1.6,1.2c0.2,0.2,1.4,1.5,1.8,1.2c0.3-0.3,1.4-1,1.5-1.4s-0.1-1.4,0.4-1.4s1.2,0.1,1.8,0.1s3.8-0.5,4.1-0.6
		c0.8-0.1,1.5-0.3,2.2-0.5c0.2-0.3,1-1.4,0.9-1.8c-0.1-0.3-1.8-2.1-2-2.4s-2.7-2.8-2.9-3.2c-0.2-0.4-0.4-1.7-0.1-1.4s2,1.8,2.4,1.4
		c0.4-0.4,0.6-1.4,0.9-1s1,3.1,1.3,3.1s1-0.2,1.3,0.2s0.7,2.3,1,2.7s3.4,3.1,3.6,3.4s0.7,1,1.2,0.8s1.3-0.7,1.6-0.4
		c0.3,0.4,0.7,0.6,1.2,0.7c0.5,0,0.9-0.2,1.2-0.7c0.2-0.4,0.1-2,0.5-2.4s1-1,1.4-1s1,0.4,1.7,0.4s1.7-0.5,1.8-0.1
		c0.1,0.4-0.3,1.8,0.3,1.9c0.6,0.1,0.3,0.8,0.6,0.1s0.5-1.2,1-1.4c0.4-0.1,1-0.1,1.1,0.1s0.1,1.7-0.1,1.9s-1.4,0.7-1.4,1.2
		c-0.1,0.6,0,1.2,0.3,1.7c0.6,0.7,1.2,1.4,1.8,2.1c0.3,0.2,0.6,0.4,0.9,0.7c0.2,0.2,0.7,0.6,0.7,0.2c-0.1-0.8,0-1.6,0.1-2.3
		c0.2-0.4,0.5-1.1,0.9-0.9s1.2,1.3,1.3,0.9c0.1-0.4,0-1,0.6-1s3,0.4,3.3,0.3s4.6-1,5.1-0.8c0.7,0.4,1.5,0.6,2.3,0.7
		c0.6-0.1,3.1,0.1,3.5-0.1c0.6-0.3,1.3-0.6,2-0.8c1.2-0.1,2.5-0.1,3.8-0.1c0.6,0.1,1.3,0.4,1.8,0.7s4.2,1.6,4.7,1.8s5.1,2.2,5.4,2.6
		c0.3,0.4,0.7,0.8,1.1,1.1c0.3,0.1,2.8,1.5,3.7,1.5s4-0.9,4.4-1.4s0.4-1.4,0.8-1.7c1.1-0.6,2.4-1,3.6-1.3c1.6,0,3.1-0.1,4.6-0.3
		c0.4-0.3,0.9-0.5,1.4-0.6c0.7,0.2,1.4,0.3,2.2,0.3c1.1-0.3,2.1-0.8,3.1-1.4c0.8-0.7,1.5-1.5,2.1-2.4c0.2-0.5,0.8-2,1.2-1.8
		s3.2,1.8,3.7,1.8s3.6,0.8,3.9,0.8s0.8,0.4,0.8-0.1s-0.2-2.6,0.1-2.9s1.1-1.4,1.1-1.4c0.3-0.6,0.5-1.3,0.4-1.9c0-0.3,2-0.8,2.7-1.2
		c0.7-0.4,0.7-0.7,0.9-1c0.3-0.3,4-0.1,4.7-0.2c0.7-0.1,0.8-0.8,1.3-1.2c0.6-0.3,2.2-0.2,3-0.4s1-0.8,1.5-1.2s2.9-2.3,3.2-2.6
		c0.4-1.1,0.6-2.2,0.6-3.3c0-0.7,0.1-3.1,0.1-3.6s-0.2-0.8-0.5-0.8c-0.6,0.1-1.2,0.1-1.8,0c-0.5-0.2-0.3-1.1-0.3-1.5s1.3-0.1,1.6,0
		c1.1-0.3,2.2-0.8,3.2-1.3c0.3-0.2,0.1-2.3,0.1-2.7s-1.2-0.8-1.6-0.8c-0.4,0-4,0.7-4.8,0.6s-0.7-0.3-1-0.8s-5.3,0.2-6.3,0.2
		s-1.5,0.8-2.4,1s-1.9,0.4-2.9,0.4c-0.3,0-1.7,0.8-2.4,0.9s-0.8-0.1-0.8-0.4s-1.4-0.7-1.9-0.7s-1.3-1.2-1.9-1.5s-0.8-0.1-1.4-0.1
		s-0.2-0.6-0.1-1.3s-0.7-1.9-0.8-2.4s-0.8-0.2-1.3-0.2s-0.8,1.2-1.2,1.7s-1.9,0.2-2.5,0.2c-0.6-0.2-1.2-0.6-1.6-1.1
		c-0.3-0.3-1.3,0-1.9,0.1s0.1-0.8,0.2-1.3s0.4-0.4,0.9-0.5s5.5-1.3,6.1-1.4s-0.1-0.6-0.5-0.7s-2.5-1.4-3-1.7s-4.1,0.2-4.7,0.3
		s-0.8,0.8-0.9,1.2s-3.5,0-3.8,0c-0.9-0.4-1.7-0.9-2.4-1.6c-0.3-0.4-0.9,0.1-1.3,0.2s-0.8-0.9-1.1-1.2s-1,0.2-1.3,0.2
		s-0.6-0.5-0.8-0.9s0.1-0.4,0.5-0.7s-0.5-0.7-0.8-1.2s-1.8-0.7-2-0.7c-0.3,0-0.6,0.2-0.8,0.4c-0.2,0.2-1.4,0.1-1.9-0.1
		s0.3-0.4,0.8-0.4c0.4,0,0.8-0.3,0.8-0.7c0-0.3,0.6-0.2,1.1,0c1.1,0.3,2.1,0.5,3.2,0.7c0.3,0.1,0.7,1.6,0.8,2.1s2.4,0.8,2.9,0.8
		s0.7,0.7,1.2,1.1c0.8,0.4,1.7,0.5,2.5,0.5c0.4,0,2.3-1.9,2.6-2.4s2.4-0.4,3-0.5s-0.1-0.8-0.2-1.2s0.6-0.2,1-0.2s0.6,1.2,0.9,1.6
		c0.3,0.3,0.7,0.5,1.1,0.5s0.1-0.6,0.1-1s-0.8-0.9-1.1-1.3s1.9,0.2,2.5,0.5c0.9,0.2,1.7,0.4,2.6,0.5c0.6,0.2,2.5,0.8,2.8,0.8
		c0.7-0.3,1.3-0.6,1.9-1.1c0.2-0.2-0.5-0.9-0.8-1.2s-1.5-0.7-1.9-1.2s3.5,0.1,4,0.1s0.2,1.3,0.1,2s2.1-1.3,2.6-1.8s0.5-0.8,0.2-1.3
		s-1.6,0.2-2.1,0.3s-0.9-1-0.9-1.4s0.3-0.4,0.8-0.4c1.1-0.1,2.1-0.3,3.1-0.7c0.3-0.2,0.8-1.1,1-1.6s-0.1-2.5-0.1-3.4
		s-0.4-1.3-0.7-1.2s-4.5,2.2-5.2,2.5c-0.9,0.3-1.8,0.3-2.6,0c-0.6-0.2-1.4-1.9-1.4-2.6s3.9-0.7,4.5-0.7c1.1-0.2,2.1-0.5,3.1-0.9
		c0.6-0.2,0-0.5-0.6-0.9s0.4-0.4,0.8-0.8c0.6-0.3,1.2-0.4,1.9-0.2c0.4,0.2,0.8,0.6,1.1,0.9c0.2,0.3,0.9-0.2,1.4-0.5
		c0.4-0.3-1.1-1.3-1.5-1.6s0.6-1.8,0.9-2.5c0.3-0.7,2,1.6,2.4,2s0.8,0.1,1.2,0.1s0,1-0.1,1.5s1.1,1.9,1.5,2c1.3-0.2,2.6-0.6,3.9-1.1
		c0.5-0.2,3.5-2.5,3.7-2.6c0.4-0.5,0.6-1,0.8-1.5s-1.3,0.2-1.9,0.5s-0.8-1.1-0.9-1.7c-0.1-0.6,1.1-0.9,1.4-1.1
		c0.4-0.4,0.8-0.9,1-1.5c0.2-0.4-0.2-0.7-0.5-1s-0.8-0.1-1.3-0.1c-0.4,0-4.2-0.2-5.1-0.2c-0.8,0-1.3-0.8-1.5-1.2
		c-0.3-0.4,1.2-0.3,1.8-0.4c0.7-0.1,1.3-0.2,2-0.2c0.6,0.1,1.2,0.4,1.8,0.8c0.9,0.3,1.8,0.4,2.7,0.4c0.4,0-0.4-1.2-0.8-1.9
		s-1.8-1.3-2.2-1.5c-0.4-0.3,0.8-0.6,0.8-0.6s2.1,1.2,2.8,1.5s0.9,3,1.1,3.6c0.2,0.6,1.8-0.7,2.1-0.9c0.4-0.7,0.7-1.5,0.8-2.4
		c0.1-0.6-1.3-3.8-1.6-4.3c-0.2-0.4-0.6-0.8-1-1c-0.5-0.2,1-1.4,1.6-1.5s0.7,0.3,0.8,0.8s1,5.1,1.1,5.6c0.1,0.6,0.9,0.3,1.2,0.3
		s0.5-0.8,0.6-1.2c0.7-0.8,1.5-1.6,2.4-2.3c0.4-0.3,0.9-0.5,1.4-0.6c0.7-0.2,1.3-0.5,1.9-0.8c0.7-0.3,1.6-4.4,1.8-4.7
		c0.3-0.9,0.6-1.8,0.8-2.7c0.2-0.8,1.7-5.1,1.9-5.6s1.2-1.1,1.6-1.6c0.4-0.5,1.7-3.9,2-4.5c0.2-0.7,0.3-1.4,0.2-2.1
		c0-0.5,0.2-0.9,0.6-1.3c0.2-0.3,0.1-0.8,0-1.4c-0.1-0.7,0.7-0.7,1.3-0.8c0.6-0.2,0-0.8-0.4-1.2c-0.4-0.3-0.2-1.4-0.2-1.8
		c-0.1-0.5-0.3-1.1-0.5-1.6c0-0.4,0-0.8,0.2-1.1c0.1-0.7,0.1-1.4,0.1-2.1c0-0.3,0.4-0.6,0.8-0.8c0.3-0.2,0.2-0.7,0.2-1.2
		c0-0.4-0.3-0.8-0.7-1s0.1-1.5,0.2-2s-0.8-1.4-1.2-1.6s-0.8-2.2-0.8-2.7c-0.5-1.1-1.2-2.2-2-3.1c-0.3-0.2-0.7,0-1.1,0
		s-0.4-0.3-0.6-0.7s-2-3.1-2.5-3.8c-1.9-1.9-3.8-3.6-5.9-5.2c-0.9-0.7-2-1.3-3-1.8c-0.3,0-2.2,0.2-2.6,0.2c-2-0.4-3.8-1.1-5.7-1.9
		c-0.2-0.3-4.2-0.2-4.8-0.2s-3.5-2-3.7-2.2c-0.5-0.2-1.1-0.3-1.6-0.2c-0.6,0-8.2,0.4-8.7,0.6c-0.9,0.4-1.7,0.9-2.5,1.5
		c-0.6,1.4-1,2.8-1.4,4.3c0,0.5-0.4,1-0.8,1.3c-0.4,0.2-2.6,2.8-3,3.1s-3.2-1-3.5-1c-0.7-0.3-1.3-0.6-1.9-1.1
		c-0.4-0.4-0.7-1-0.8-1.6c-0.1-0.5-1.9-2.1-2.2-2.4s-3-0.6-3.4-0.8c-0.7-0.1-1.5-0.1-2.2,0.2c-0.5,0.2-1.1-0.5-1.1-1s2.6-1.4,3-1.6
		s-0.2-1.7-0.5-2.5s1.3,0.4,1.8,0.7s0.9,0,1.4-0.5s1.9-2.5,2.3-2.9c0.4-0.5,0.9-1,1.4-1.4c0.3-0.2,6-3,6.6-3.2s0.4-2.4,0.4-2.7
		c0.4-1.5,0.8-2.9,1.4-4.4c0.2-0.3-0.2-1.4-0.2-1.9s-2.2-8.9-2.3-9.5s-1.9-2.8-2.4-3.5s-2-3.6-2.3-4.2c-1.3-1.6-2.7-3.1-4.2-4.5
		c-0.2-0.5-0.3-1-0.3-1.5s-2.8-1.9-3-2.1s-2.4-2.6-3-3.4s-1.2-2.3-1.9-3.4s-1.2-1-2.3-1.4s-1.4,0.3-2.2,0.4c-0.9,0-1.8-0.2-2.6-0.5
		c-0.5-0.2-2.5,0.9-3.2,1s-0.8-0.3-1.2-0.7c-0.7-0.7-1.4-1.3-2.1-1.9c-0.8,0.2-1.7,0.4-2.5,0.8c-0.6,0.2-0.3-0.4-0.3-0.8
		s0.8-0.8,1.4-0.8c0.8-0.1,1.6-0.2,2.5-0.2c1,0.3,2,0.7,2.9,1.3c0.8,0.4,4.1-0.1,4.7-0.1s3.3-0.8,3.8-0.8c0.8,0.2,1.6,0.6,2.3,1.1
		c0.3,0.2,3.9,5.6,4,6s1.9,1.1,2.5,1.4s1.5-0.3,2-0.6s3.4,1.9,3.7,2.2s0.2,1.3,0.1,1.9s0.8,0.8,0.8,0.8s0.7-0.8,1-1.2s0-0.8-0.1-1.1
		s-2-4.5-2.3-5.1s-0.6-1.1-0.9-1.6c-0.2-0.3-0.7-0.6-0.7-1c0-0.5-0.1-1.1-0.2-1.6c-0.2-0.5-5.2-9.7-5.5-10.2s0.2-1.8,0.3-2.3
		s-0.2-0.8-0.3-1s-0.2-0.8-0.4-1.5s0.1-5.7,0.1-6c1.2-1.1,2.6-2.1,4-3c0.4-0.2,0.1-0.9,0-1.4s-1-0.2-1.4-0.2s-0.4-0.7-0.8-1.2
		s-1.1-0.1-1.4,0s-1.5-1.4-1.9-1.9c-0.4-0.9-0.6-1.9-0.7-2.9c-0.1-0.6-2.5-2.6-3-3.2s-0.8-3-0.9-3.3s-1.2-2.6-1.4-3
		c-0.2-0.6-0.3-1.3-0.4-1.9s-1.3-4.2-1.4-4.6s-3.3-3.4-3.5-3.7s-1.5-0.6-2-0.8s0-0.7,0-1.1s-2.3-1.2-2.7-1.4s-0.1-0.4-0.1-0.8
		s-0.6-0.5-0.8-0.5c-1.1-0.2-2.2-0.5-3.2-0.8c-0.5-0.2-0.8-1.3-0.8-1.3c-0.4-0.3-0.8-0.1-1.3,0.2s-1.2-0.2-1.9-0.8
		c-0.6-0.6-1.1-1.2-1.4-2c-0.8-0.7-1.7-1.3-2.7-1.7c-0.3-0.1-0.7,0.8-0.8,1.3s-0.8,0.1-1.5-0.2s0.7-1.9,0.8-2.3c0.1-0.5,0.1-1,0-1.4
		c-0.1-0.7,0-0.3,0.2-0.8s0-0.5-0.3-0.8c-0.7-0.6-1.3-1.2-1.9-1.9c-0.2-0.3-1.4-2.7-1.6-3c-0.2-1.4-0.3-2.8-0.2-4.2
		c0-0.5-0.2-0.9-0.5-1.3s-0.1-2,0-2.6s-0.3-0.8-0.7-1c-0.3-0.2,0.3-0.6,0.8-0.8c0.4-0.2,0.2-2,0.2-2.4c-0.2-0.8-0.4-1.7-0.7-2.5
		c-0.3-0.6-0.5-1.2-0.6-1.8c0-0.4-0.7-1.1-1-1.4s-0.2-1.2-0.2-1.7c0-0.6-0.2-1.1-0.5-1.5c-0.4-0.7-0.6-1.4-0.6-2.2
		c0-0.6-0.7-0.8-1.2-1.3c-0.5-0.4,1.3-1.4,1.7-1.7c0.4-0.3,0.5-1.6,0.5-2.2s-0.7-0.6-1-0.7s-0.8-1.4-0.8-1.9v-3.5
		c0-0.5,1-0.8,0.9-1.2c-0.5-1.2-1-2.3-1.4-3.5c0-0.5,0.1-1,0.3-1.4c0.2-0.3,0.8-3.8,1-4.3s-0.4-2.1-0.7-2.6s0.5-1.1,0.8-1.4
		s-0.2-0.8-0.4-1c-0.3-1-0.5-2-0.5-3c0-0.3-1.4-1.2-1.6-1.5s-2.3-0.8-2.5-1.1c-0.6-0.4-1.2-0.8-1.7-1.4c-0.4-0.6-4.2-7.7-4.5-8.2
		c-0.2-0.8-0.3-1.7-0.2-2.5c-0.3-0.8-0.7-1.5-1.3-2.1v-0.1l-1.1,1.4c0,0-0.6,0.9-0.9,1.2c-0.6,0.5-1.1,1-1.8,1.5
		c-0.2,0.1-3.5,3.1-3.7,3.3c-0.2,0.3-1.2,1.9-1.2,1.9c-0.6-0.2-1.2-0.4-1.8-0.5c-0.7,0.2-1.3,0.4-2,0.6l4.2,11.1c0,0-6.9,3.8-6.9,4
		s0.1,1.5-0.3,1.5c-0.5,0-4.8-0.2-5,0.2c-0.6,0.8-1.3,1.6-2.1,2.2c-0.7,0.3-1.4,0.7-2,1.2c-0.3,0.3-4.7,5.4-4.9,5.6
		c-0.8,0.6-1.7,1.1-2.7,1.6c-0.5,0.2-4.5,2.5-4.7,2.6s-2.5,1.7-2.8,1.8s-4.6,0.8-4.6,0.8l-1.4,3.9l0,0c0.2,0,0.4,0.1,0.5,0.1
		c0.2,0.3,1,1.7,0.5,1.7c-0.6,0-1.2,0-1.8,0.1c-0.3,0.1-2,0.9-1.2,1s2.5,0.1,2.9,0.2s1.2,0.9,0.5,1c-1.2,0.1-2.4,0.1-3.6-0.1
		c-0.5-0.1-4.1-1.4-4.4-1.6s-2.1-0.8-2.2-0.5s-0.8,0.5-0.2,1c0.8,0.4,1.6,0.7,2.5,0.9c0.4,0.1,1,0.5,0.8,0.8s-1.2,0.3-1.8,0.3
		s-3.5-0.5-3.8-0.1c-0.3,0.3-2.7,1.8-2.7,2.2c-0.1,0.4-1.4,4.9-2,5.4s-4.7,4.2-4.6,4.7c0,0.5-0.2,1-0.6,1.4c-0.3,0.1-1,0.3-1,0.9
		c0.1,0.8,0.2,1.5,0.1,2.3c-0.1,0.5-0.8,3.5-1.2,3.3s-1-0.5-1.1,0s-0.1,1.4-0.6,1.4s-1.2,0.1-1.2,0.8c0,0.9,0.4,1.8,1.1,2.4
		c1.1,0.7,2,1.8,2.5,3c0.3,1.2,0.7,2.4,1.2,3.5c0.4,0.6,0.8,1.1,1.3,1.6c0.4,0.5,1.5,1.2,1.2,1.7s-1.7,2.3-1.6,3.1s0.6,4.4,1.1,5.1
		c0.3,0.5,0.7,1,1.2,1.4c0.4,0.3,0.9,0.5,1.4,0.5c0.4,0.1,1.4,0.1,1.4-0.4s-0.1-1.6,0.3-1.9s1.4-1,1.4-0.7c0.2,0.8,0.3,1.6,0.2,2.5
		c-0.2,0.6-1.6,3.1-1.7,3.4s-1,1.4-0.6,1.8c0.4,0.5,2.5,2,2.9,1.8c0.7-0.6,1.4-1.2,2-1.8c0.4-0.5,2.6-2.4,2.7-3
		c0.3-1.3,0.6-2.6,1-3.8c0.2-0.5,0.5-1.4,0.9-1.2s0.9,0.4,0.5,1c-0.4,1-0.7,2.1-0.8,3.2c-0.1,0.6-0.1,1.3,0.1,1.9
		c0.3,0.6,0.8,1.6,1.2,1.4s2.1-1.4,2.5-1.5c0.6-0.4,1.2-0.8,1.6-1.4c0.3-0.4,1.9-2.7,2.2-2.7s1,0.1,1,0.5s0.1,1.5-0.1,1.8
		c-0.9,0.6-1.8,1.2-2.7,1.8c-0.2,0.1-0.6,0.3-0.6,0.6c0.1,0.8,0.4,1.5,1,2c0.5,0.3,2,1.1,1.6,1.4s-1.1,0.7-1.1,1
		c-0.1,0.6-0.4,1.2-0.8,1.6c-0.3,0.2-3.1,0.4-3.3,0.9s-1,1.8-0.8,2.1s2,2,1.8,2.4l-1.1,2.5c0,0-0.3,0.5-0.7,0.6s-0.8-0.2-1.1,0
		s-1.8,1.3-1.8,1.6c-0.1,0.3-0.1,2.1-0.1,2.5s0.3,1.5-0.2,1.3s-1.6-0.2-1.4-0.7c0.3-0.5,0.3-0.8,0.2-1.1c-0.2-0.4-0.3-0.9-0.2-1.3
		c0.1-0.5,0.3-1.3-0.2-1.4s-1.2-0.2-1.3,0.3c-0.3,1.1-0.5,2.2-0.6,3.3c0,0.5,0.1,0.8-0.2,1.2s-0.8,0.5-0.8,0.9
		c0.1,0.8,0.1,1.6,0,2.5c-0.3,0.4-0.4,0.8-0.5,1.2c0,0.4-0.2,1.2,0.4,1.3c0.6,0.1,1,0.1,1,0.5s0.1,0.7,0.6,0.9
		c0.5,0.2,1.4,0.4,1.8,0.1c0.3-0.3,0.7-0.4,1.2-0.4c0.3,0.1,2.2,1,1.8,1.4s-1,1.4-1.3,1s-1-1.2-1.2-0.6s-1.1,2.7-1.3,2.3
		c-0.2-0.3-0.6-1-1-0.5s-1.8,2.1-2.4,2.7c-0.7,0.8-1.4,1.6-2,2.4c-0.2,0.3-1.2,4.2-1,4.5s0.7,0.8,0.7,1.2s-0.1,2.8,0.3,3.1
		c0.5,0.3,1.1,0.8,1.1,1.1s0,2.9,0.3,3.2s1.1,1.4,1.4,1.7s2.4,2.4,2.7,2.7c0.3,0.4,0.8,0.6,1.3,0.7s1.6,0.3,1.7-0.1s0.1-1.2,0.6-1.2
		c0.6,0,1.2,0,1.8,0c0.3,0.1,1.6,0.7,1,1c-0.8,0.4-1.6,0.8-2.3,1.2c-0.7,0.5-1.4,0.9-2.2,1.2c-0.5,0-2.9,0.1-3.2-0.2
		c-0.7-0.4-1.4-0.9-2-1.5c-0.4-0.5-1.5-3.2-1.7-3.5c-0.2-0.5-0.3-1-0.3-1.6c0-0.2,0.1-1.6-0.3-2.1s-0.6-1.2-1.2-1s-1.7,0.9-2.2,0.9
		s-1,0.2-1.4,0.5c-0.3,0.3-1.6,2-1.2,2.6s2.3,3.3,2.2,3.8c0,0.5-0.1,0.9-0.2,1.4c-0.2,0.5-0.4,1,0,1.2s1.3,0.6,1.2,1L370.5,405.7z"
		/>
	<path class="st0" d="M442.2,20.8c0-0.5-0.3-1.7-0.7-1.5s-2.1,1-2.4,1.2s-1,0.5-1,1s-0.3,1.9,0.3,2s2.6-0.2,2.6,0.5
		s-0.4,2.5,0.3,2.5s0.9,0.1,0.9-0.7L442.2,20.8z"/>
	<path class="st0" d="M453.1,25.4c-0.6-0.1-1.3-0.5-1.9,0.1c-0.7,0.6-1.2,1.3-1.7,2.1c-0.3,0.5-1.4,3.2-0.8,2.8s2.9-2.5,3.5-2.5
		c0.7,0,1.4-0.1,2.1-0.4c0.3-0.3,2.1-2.2,1.1-2.2L453.1,25.4z"/>
	<path class="st0" d="M436.5,29.3c-0.6-0.5-1.5-0.6-1.6-0.2s-0.7,1.7-0.3,2.1s2.7,1.8,3,1.4s1.5-1.4,0.9-1.6
		C437.8,30.5,437.1,29.9,436.5,29.3z"/>
	<path class="st0" d="M442.5,38.8c0.1-0.5,0.3-1.5-0.5-1.2s-3.1,1.9-2.9,2.3s1.8,1.7,2.2,1.3C441.7,40.4,442.1,39.6,442.5,38.8z"/>
	<path class="st0" d="M450.7,34.4c-0.4-0.4-0.6-1-1.1-0.3c-0.4,0.7-2.2,2.8-2.2,3.3c0.1,0.5,0.4,0.9,0.9,1.1
		c0.5,0.2,1.2,0.7,1.6,0.2s0.5-1.2,0.9-1.5s1.7-0.4,1.5-1.1C451.8,35.5,451.3,34.9,450.7,34.4z"/>
	<path class="st0" d="M430.3,31.6c0-0.6-0.4-1-1-1.1c-0.6,0-2.7-0.5-3,0.1c-0.9,2.7-1.6,5.5-2.1,8.3c0.1,0.7,0.3,1.5,0.4,2.1
		s-0.2,1.5,0.5,1.6c0.5,0.1,1.1,0,1.5-0.4c0.4-0.3,0.7,0,0.8,0.5c0.1,0.5,0.4,2.6,1.6,2.5s4.5-0.6,5-0.7c0.5-0.1,1.7-0.1,1.8,0.4
		c0.3,1.2,0.8,2.3,1.5,3.4c0.6,0.6,2,2.4,2.5,1.9s0.8-1.6,1.5-1.7c0.7-0.1,2.5,0.1,2.7-0.5s0.7-3.5,0.3-3s-1.5,1.5-1.9,1.4
		s-0.7-0.6-0.6-1c0-0.5,0.4-2.7-0.5-2.4s-2.7,1.8-2.9,1.4c-0.2-0.6-0.2-1.3-0.3-1.9c-0.1-0.7-0.1-0.6-0.6-0.4
		c-0.5,0.3-1.4,0.8-1.4,0.3s-0.3-0.9-0.8-1c-0.4,0-3-0.2-2.6-0.8s0.8-1.8,1.4-2s2.3-1.2,2.3-1.8s-0.6-2.3-1-2.4
		c-0.4-0.1-4.5-0.3-4.8-1.1C430.5,32.7,430.3,32.1,430.3,31.6z"/>
	<path class="st0" d="M436,53.2c0-0.5,0.7-1.3-0.5-1.4s-1.9,0-1.8,0.7s0.8,2.2,0.5,2.7s-1.2,1.8-0.9,2.2s0.8,1.2,1.4,0.7
		s1.2-0.7,1.2-1.5S436,53.2,436,53.2z"/>
	<path class="st0" d="M427.2,48.2c-0.9-1.1-1.9-2.1-3-3c-0.5-0.5-0.9-1.5-1.5-1.1c-0.5,0.4-1.8,1.5-1.9,2.4c0,1,0.4,2,0.9,2.8
		c0.5,0.7,2.3,3.5,2.6,4s0.6,0.9,1.1,0.5c0.4-0.4,1.1-1,1.2-0.5s-0.1,1,0.5,0.7s1.4-0.4,1.1-0.8c-0.2-0.6-0.3-1.3-0.3-2
		C427.9,50.2,427.6,49.1,427.2,48.2z"/>
	<path class="st0" d="M352,73.6c-0.4-0.1-1.3,0.2-0.7,0.6s1.5,0.6,1.5,0.4S352,73.6,352,73.6z"/>
	<path class="st0" d="M343.2,88.7c-0.3,0-0.8-0.3-0.6,0.3c0.2,0.5,0.6,1,1,1s1.1-0.4,0.9-0.7S343.2,88.7,343.2,88.7z"/>
	<path class="st0" d="M345.6,91c-0.3-0.1-0.7-0.1-0.6,0.4s0.1,0.6,0.4,0.6C345.7,91.9,345.6,91,345.6,91z"/>
	<path class="st0" d="M323,52.8c-0.3-0.5-0.6-1.2-0.8-0.6c-0.2,0.5-0.6,1.1-0.9,1.2c-0.4,0.1-3.6,1.3-3.9,1.5s-2.2,0.8-2.5,1.1
		s-3.7,2.5-4.4,2.9c-1,0.4-2,0.7-3,0.8c-1.5,0.4-3.1,0.8-4.5,1.4c-0.4,0.2-2.6,0.9-2.5,1.4s1.1,3.9,1.4,4.5s0.4,0.9-0.1,1.1
		c-0.6,0.1-1.2-0.2-1.4-0.8c-0.2-0.6-2-4.4-1.9-3.4s0.5,3.5,0,3.5c-0.5,0.1-1.9,0.6-2.2,0.4c-0.3-0.3-0.8-0.8-0.5-1.1
		s0.8-0.8,0.5-1.1c-0.3-0.3-2.6-2-3.1-1.5c-0.4,0.5-2.5,4.4-2.7,4.7c-0.3,0.4-1.9,1.5-1.8,2.3s0.8,4.6,1.4,4.6s3-0.2,3.3-0.1
		s1.2,0.8,0.2,1.1s-5.5,1.1-5.5,1.6s-0.4,1.8-0.1,2.4c1.1,1.1,2.3,2,3.5,2.9c0.5,0.3,3.4,1.4,3.4,1.8s0.2,1.1-0.5,1.2s-3.4-0.5-4,0
		s-3.3,2.7-3.9,2.5s-1.5-1.2-1.9-1.1s-0.8,0.1-0.5,0.6c0.9,1.8,1.6,3.6,2.3,5.5c0.2,0.6,0.6,1.9,1.2,1.6s3.4-1.9,4.2-2.4
		s2.1-2,2.5-1.9s2.6,0.9,2.6,0.4s-0.6-4.6,0.1-4.4c0.7,0.3,2.9,1.2,2.7,0.5c-0.2-2-0.4-3.9-0.4-5.9c0.1-0.4,0.6-0.9,0.7-0.3
		s0.2,4.5,0.7,4.7c1.6,0.2,3.2,0.2,4.8,0.1c1.1-0.2,2-0.6,2.8-1.4s2-1.6,2.6-2.1c0.5-0.5,1.7-1.6,1.7-2s-0.1-3.6-0.4-3.6
		s-2.1,0-2.6-0.1s-3.2-0.8-3.2-0.8s-0.5-0.7,0.1-0.8c0.6-0.1,2,0,2.6-0.1c1.4-0.1,2.7-0.4,4-0.7c0.3-0.3,0.5-0.7,0.5-1.1
		s-0.1-3.6,0.3-3.4s1.5,1,1.7,0.9c0.6-0.2,1.3-0.3,1.9-0.2c0.4,0.2,1.7,1.3,2.4,0.9c0.6-0.4,3-3.6,2.5-3.5c-0.5,0.2-2.6,0.8-3.1,1.1
		c-0.5,0.3-2.8,0.9-2.9,0.4c-0.2-0.6,0-1.3,0.5-1.6c0.7-0.5,1.2-1.1,1.7-1.7c0.3-0.4,2.6-3.3,2.8-4.2c0.2-0.9,0.5-3.7,1-4.2
		c0.4-0.5,1.7-1.2,1.8-1.8c-0.1-0.7-0.2-1.4-0.5-2.1C323.6,53.7,323.3,53.2,323,52.8z"/>
	<path class="st0" d="M287.6,84.3c-0.4,0.2-1.7,0.6-0.8,1s1.6,0.4,1.8,0.1s0.4-1.6,0.1-1.5L287.6,84.3z"/>
	<path class="st0" d="M281.1,95.3c0.4-0.7,0.1-1.6-0.6-1.1c-0.6,0.5-1.8,0.6-1.5,1.1c0.4,0.5,1.2,1.5,1.5,1S281.1,95.3,281.1,95.3z"
		/>
	<path class="st0" d="M278.6,97.2c-0.4,0.4-2.6,0.6-3.2,0.6c-0.5,0-6.1-0.7-6.5-0.4c-0.5,0.4-2.6,2.1-1.9,2.6c1,0.7,2,1.5,2.8,2.5
		c0.4,0.6,2.7,5.5,1.8,5.7s-2.7,0.8-2.5,1.6c0.3,0.7,1.1,3.1,0.4,3.3c-0.7,0.2-2.6,1-2.6,1.5s-0.3,5.7-0.5,6.6s-1.3,4.2-1.3,4.8
		s-0.5,3.2-0.5,3.7s-0.3,1.9,0.4,2.3c0.6,0.4,3.4,1.5,3.7,1.1c0.6-1.2,1-2.6,1.2-4c-0.1-0.6-1.4-3.6-0.9-4.2
		c1.4-1.9,2.7-3.9,3.9-5.9c0.3-0.8,0.6-1.3,0.3-1.7c-0.4-0.5-1.1-3.3-0.5-3.3s2.3,0.1,2.2-0.9c-0.1-1-0.8-3.9-0.1-3.7
		c0.7,0.2,2.6,0.6,2.9,0.2c0.4-0.5,2.8-4.8,3-5.3s-0.1-0.9-0.5-1.4s-1.8-1.9-1.2-2.2c0.6-0.1,1.3,0,1.7,0.5c0.4,0.3,1,0.9,1.5,0.7
		s1.5-0.9,1-1.3s-2.6-3.1-3-3.4C279.7,97,279.1,97,278.6,97.2z"/>
	<path class="st0" d="M262.6,103.7c-0.4-0.2-1.7-0.6-1.2,0.1c0.5,0.6,0.6,1.2,1.2,0.8S262.6,103.7,262.6,103.7z"/>
	<path class="st0" d="M260.6,139c0.3-0.5,1.5-2.8,0.8-2.4c-0.7,0.5-3.2,1.6-3.5,2.1c-0.3,0.4-1,0.6-0.6,1.3c0.4,0.6,1.1,1.5,1.6,1
		C259.3,140.5,260.6,139,260.6,139z"/>
	<path class="st0" d="M257,141.5c-0.5-0.3-0.9-0.8-0.7,0.1s0.3,1.8,0.8,1.6c0.5-0.3,1.1-0.5,0.8-0.8
		C257.6,142,257.3,141.8,257,141.5z"/>
	<path class="st0" d="M291.8,141c-0.4,0.2-1.4,0.5-0.6,0.7s2.4,0.5,2.5-0.1s0-0.8-0.5-0.8C292.7,140.8,292.2,140.9,291.8,141z"/>
	<path class="st0" d="M300.5,143.9c-0.2-0.5-0.6-1.2-1.2-1c-0.5,0.2-1.1,0-1.5,0.6c-0.5,0.5-1,1-1.6,1.4c-0.5,0.3-1,0.4-1.1,0.7
		s-0.4,1.5,0.3,1.6c0.6,0.1,1-0.1,1,0.6c0,0.5,0.1,1.1,0.4,1.6c0.4,0.7,0.7,1.2,1.2,1.3c0.6,0,1.2-0.2,1.8-0.5
		c0.6-0.3,1.5-0.4,1.7-1.3c0.3-0.8,0.4-1,0.1-1.3s-0.6-0.8-0.2-1.2s0.7-0.6,0.2-1.1C301.1,144.8,300.7,144.4,300.5,143.9z"/>
	<path class="st0" d="M305.1,137.7c-0.1-0.3-0.6-0.4-0.9-0.1c-0.3,0.3-0.9,1.6-0.4,1.5s0.9-0.4,1.3-0.6V137.7z"/>
	<path class="st0" d="M319.9,139.2c-0.3,0-0.4,1-0.2,1.5s-0.6,1-1.1,1.6c-0.3,0.4-0.7,0.8-1.2,1.1c-0.4,0.3-0.8,0.7-1,1.2
		c-0.3,0.6-1.1,0.5-1.6,0.8c-0.7,0.7-1.5,1.3-2.3,1.8c-0.9,0.6-1.5,0-2.5-0.2s-0.2-1.5-0.2-1.9s0.5-0.7,1-0.9
		c0.4-0.2,0.1-0.5-0.2-0.9c-0.3-0.4,0.6-0.4,0.8-0.6s0.2-0.7,0.1-1.4s0.8-0.6,1.5-0.7c0.6-0.2,0.7-0.2,0.8-0.5s0.6-0.4,0.8-0.5
		c0.3-0.1,0.6-0.4,0.6-0.8c0.1-0.5-1.5-0.6-2.1-0.6s-0.5-1.5-0.5-1.9s-0.4-0.6-0.8-0.6s-1.8,3.1-2.1,3.6c-0.3,0.5-0.9,0.8-1.5,0.9
		c-0.6,0.1-0.1-1.4,0.1-1.9c0.1-0.6,0-1.2-0.2-1.8c0-0.5-0.4-0.8-0.8-0.9c-0.4,0-0.6,0.3-1,0.6c-0.4,0.4-0.8,0-1.2-0.4
		c-0.4-0.4-2.6,0.6-3.6,0.9s-0.5-0.5-0.2-1.6s-0.3-0.9-0.8-1s-0.6-0.6-0.7-1.1s0-0.6,0.4-1.1s-0.5-0.6-0.8-0.6
		c-0.4-0.1-0.4-0.4-0.4-0.8s-0.6-1.3-0.9-1.7c-0.2-0.7-0.2-1.3-0.1-2c0-0.4,1.4-1.3,1.8-1.6c0.4-0.4,1.5,1.1,1.8,1.4
		c0.4,0.3,0.9,0.2,1-0.2s-0.4-0.9-0.9-1.2c-0.5-0.3-0.4-0.6-0.7-1.3c-0.3-0.6-1.7-0.3-2.3-0.8c-0.6-0.6,0.1-0.5,0.5-1
		s-0.1-0.7-0.2-1.3c-0.1-0.5-0.9,0-1.4,0.7s-0.6-0.5-0.6-1s-0.3-0.4-0.9-0.1s-0.6,2-0.6,2.9s-0.5,0.6-1,0.4
		c-1.4-1.1-2.8-2.4-4.1-3.6c-0.3-0.5-0.4-1-0.3-1.6c0-0.4-1.1-1.5-1.3-1.9s0.6-0.6,0.9-1.1c0.2-0.3,0.5-0.6,0.7-0.9
		c0.3-0.4,0.5,0.1,0.9,0.3s0.8-1.6,1.3-2.6s1.3,2.9,1.5,3.4s0.6,0.6,1.3,0.6c0.6,0.1,0.2-1,0.1-1.5s0.5-1.4,0.6-1.8s0.6-0.6,0.7-0.9
		c0.1-0.4,0.1-0.9,0-1.3s-0.6-0.4-1.3-0.9c-0.6-0.6,0.1-0.4,0.4-0.9c0.4-0.5,0.3-0.7,0.3-1.4c0.1-0.6,0.4-1.1,0.8-1.5
		s0.8,0.8,1.2,1.6c0.4,1.1,0.7,2.2,0.7,3.4c0,0.8,0.6,0.8,1,1.1c0.5,0.3,0.7,0.9,0.7,1.5s0.7,0.2,1-0.2s0.6,0.3,0.6,0.7
		s0.7-0.2,1-0.6c0.3-0.5,1,1.6,1.5,2.1s0.6,0,0.9-0.4s-0.3-1.1-0.7-1.5c-0.5-0.4-0.1-0.7-0.1-1.3s-0.6-1.1-0.8-1.6s0.7-0.7,1.1-1.1
		s-0.3-0.6-0.5-0.9c-0.3-0.3,0.2-0.6,0.4-1.2s-0.2-0.6-0.3-0.9c0-0.7,0.1-1.5,0.3-2.2c0.2-0.6,1.2-0.7,1.6-1.1
		c0.4-0.2,0.7-0.7,0.8-1.2c0.2-0.7,1.2,0,1.6,0s0.5,0.4,0.6,0.6c0.4,0.4,0.7,0.7,0.9,1.2c0.3,0.6,2.3,4.9,2.4,5.5
		c0.1,0.8,0.2,1.7,0.3,2.6c0,0.6-0.1,1.1-0.3,1.6c-0.1,0.4-0.8,1.6-1.1,2.1c-0.3,0.5-0.9,4.8-1.6,5c-0.6,0.2-1.5,0.5-1.1,0.8
		c0.5,0.4,0.6,0.8,0.8,1.1s1.2,0.8,0.9,1.3c-0.3,0.5-0.5,1.2-0.6,1.8c0.1,0.5,0.7,1.6,0.2,1.8c-0.6,0.3-1.3,0.6-0.7,0.9
		c0.5,0.3,1.6,0.6,1.7,1.1s-0.2,1.2,0.3,1.2c0.4,0,0.4-0.4,0.8,0c0.5,0.4,0.9,1,1.2,0.4s-0.5-1.6,0.1-2c0.5-0.3,1.1-0.4,1.6-0.1
		c0.3,0.3,1.2,1.8,0.6,2.2s-2.3,0.6-1.6,1c0.6,0.4,2.3,2.1,2.9,2.1s4.4-0.3,4.8-0.3c0.5,0,1,0.2,1.5,0.4c0.6,0.2,1.6,0.8,1.1,1.4
		s-2.6,3.3-3.3,3.4C321.2,139.5,320.5,139.4,319.9,139.2z"/>
	<path class="st0" d="M303.8,153.3c-0.1-0.4-0.4-0.6-0.8-0.3s-1,0.6-0.7,1.1s1.2,2.4,1.6,1.9c0.3-0.4,0.5-0.9,0.4-1.4
		C304.1,154.2,303.8,153.3,303.8,153.3z"/>
	<path class="st0" d="M318.7,114.6c0.5-0.3,0.8-0.6,0.8-0.9s-0.4-0.8-0.7-0.4s-1.1,0.9-1.2,1.5s-0.5,1.4,0,1.5
		c0.4,0.1,0.8,0.3,0.8-0.4C318.4,115.4,318.5,115,318.7,114.6z"/>
	<path class="st0" d="M316.5,119.7c0.3-0.6,0.6-1.6,0.2-1.6s-0.5,0.1-0.7,0.6c-0.2,0.6-0.3,1-0.6,0.9s-0.7-0.5-1,0s-0.4,1.5-0.9,1.6
		s-0.6,0.1-0.6,0.4s0.7,1.6,0.3,2.1c-0.5,0.4-0.7,0.9-0.7,1.6c0.1,0.4,0,2,0.5,2.3s0.6,0.9,0.9,0.2c0.3-0.7,0.9-3.6,1.1-4.6
		s0.2-1.6,0.6-2C315.8,120.8,316.2,120.2,316.5,119.7z"/>
	<path class="st0" d="M299.5,157.5c-0.3,0-0.8,0-0.6,0.3s0.3,0.4,0.8,0.3s1.1-0.7,0.8-0.8C300.1,157.4,299.8,157.4,299.5,157.5z"/>
	<path class="st0" d="M288.9,166.4c0.3-0.7,0.7-1.5,0.3-1.5s-1.2-0.1-1.4,0.2c-1,0.8-2.1,1.5-3.2,2.1c-0.3,0.1-1.2,0.2-1.3,0.4
		s-0.7,1.4-1.2,1.6c-0.5,0.1-1.9,0.4-2.1,0.8s-0.4,0.8-0.1,1s1.1,0,1.4-0.1s0.5-0.3,1-0.2c0.4,0.2,0.9,0.2,1.4,0.2
		c0.5-0.1,3.5-0.8,3.8-1.4C287.6,169,288.9,166.4,288.9,166.4z"/>
	<path class="st0" d="M275.9,174.4c0.4-0.3,0.8-0.8,1.2-0.6s1,0.2,1.2,0s0.4-0.7-0.2-0.8s-5.1-0.9-5.4-0.9h-2
		c-0.5-0.1-1,0.1-1.3,0.6c-0.3,0.6-1.1,3.7-0.4,3.7s1.6,0.1,1.6,0.4c-0.1,0.3-0.5,0.6-0.1,0.8c0.4,0.1,0.8,0,1-0.3
		c0.3-0.3,0.8-1.5,1.2-1.6c0.5-0.1,2-0.3,2.4-0.5C275.3,174.8,275.6,174.6,275.9,174.4z"/>
	<path class="st0" d="M286.1,188.6c-0.3-0.2-1-0.1-1,0.1s-0.1,0.3,0.4,0.4C286.1,189.3,286.1,188.6,286.1,188.6z"/>
	<path class="st0" d="M294.7,178.9c-0.3,0-0.7,0-1,0.1c-0.5,0.1-1.6,0.1-1.1,0.4c0.6,0.3,0.9,0.1,1,0.5s-0.1,0.9,0.4,0.9
		s1.2-0.4,1.2,0s0,0.8,0.6,0.8c0.5,0,1.9-0.1,1.4-0.6S294.7,178.9,294.7,178.9z"/>
	<path class="st0" d="M313.5,185c0.6,0.5,0.8,2.1,0.8,2.4c0,0.3-0.2,0.7-0.5,0.8c-0.4,0.3-0.1,0.6-0.1,1s-1.1,0.3-1.8,0.2
		s0-1.5-0.2-1.9s-0.6,0.1-0.7,0.4c0,0.4-0.2,0.7-0.5,0.9s-0.7,0.9-0.9,1.2s1.1,0.8,1.4,1c0.2,0.2,0.2,0.5,0,0.7l-0.1,0.1
		c-0.3,0.1-3.7,1.3-4.1,1.4c-0.5,0.2-1,0.2-1.4-0.1c-0.5-0.3,0.1-1.5-0.1-2.5c-0.1-1-1.9,1.3-2.3,1.5s-1.3-0.2-1.8-0.3
		s-2.2,1.3-2.7,1.2s-0.4-0.6-0.4-0.9s-1.1,0.1-1.6,0.1c-0.5,0.1-1,0.4-1.4,0.8c-0.5,0.3-0.9-0.5-1.4-0.8s-0.4,0-0.8,0.2
		s-0.3-0.2-0.6-0.5c-0.2-0.3-0.8,0.8-1.2,1.2s-1.5-0.2-1.9-0.3s0-0.4,0.1-0.7s-0.3-0.5-0.5-0.8c-0.3-0.3-0.8,0.1-1.4,0
		s-0.5-0.4-0.3-0.8c0.2-0.3,0.8-0.3,1.2-0.6s0-0.8,0.1-1.2c0.1-0.3,0.2-0.7,0.3-1c0.1-0.3,1-0.1,1.4,0s0.7,0.8,0.8,1.2
		c0.1,0.5,0.8,0.8,1,1s0.7-0.6,0.8-0.9s0.4-0.1,0.8,0.1c1.3,0.3,2.7,0.4,4,0.6c0.5-0.1,0.9-0.3,1.2-0.7c0.2-0.3,1.2-0.1,1.7-0.1
		s1-0.8,1.4-1.1c0.3-0.3,0.5-0.7,0.4-1.1c-0.1-0.3-1.3,0.3-1.6,0.6s-0.7-0.1-1.1-0.1s-1.6,0.5-2.1,0.6c-0.9-0.1-1.8-0.4-2.5-0.9
		c-0.6-0.3,1.4-1,2-1.4s4.6-3.2,4.9-3.4s0.9-0.2,1.3-0.4c0.3-0.2,0.6-0.6,0.6-1c0-0.2-1-0.5-1.4-0.5c-0.5,0.1-0.9,0.3-1.3,0.6
		c-0.5,0.3-1.8-0.5-2.4-0.9s-0.3-1.2-0.3-1.6s-0.5-0.4-1-0.6c-0.4-0.1-0.5-0.7-0.7-1.1c-0.2-0.4-1.8-0.4-3-0.6s-0.8-1.1-0.7-1.4
		s1.2-1,1.6-1.3s0.1-0.8-0.3-1s-0.3-0.5-0.3-1.1s0.8-0.3,1.2-0.1c0.5,0.2,0.6-0.1,0.9-0.3s0.5,0.6,0.7,0.9c0.1,0.2,0.4,0.4,0.6,0.3
		c0.5,0,0.8,0.1,0.8-0.4c-0.1-0.5,0-1.1,0.1-1.6c0.2-0.4,0.6-0.7,1-0.8c0.8-0.1,1.6-0.1,2.3,0c0.3,0.2,2,1.4,1.7,1.8
		s-0.7,0.6-0.6,0.9c0.1,0.3,0.3,0.8,0.7,0.8c0.3,0,0.5-0.1,0.8,0.3c0.5,0.9,0.8,1.8,1,2.8c0.1,0.6,0,2.7,0.5,3.1
		c0.5,0.4,3.9,2.7,4.4,3C310.2,182.7,313.5,185,313.5,185z"/>
	<path class="st0" d="M322.4,182.1c0.4-0.4,1.1-0.5,1.2-1s0-0.9-0.3-0.8c-0.4,0.1-0.7,0.3-1,0.6c-0.6,0.5-1.2,1-1.8,1.4
		c-0.4,0.3-1.4,1.4-1.8,1.4s-0.7-0.1-1,0.4s-1,1.2-0.5,1.4s0.4,0.6,1-0.1s0.8-0.9,1.1-0.9c0.5,0,0.9-0.2,1.2-0.6
		c0.3-0.4,0.6-0.8,1-1.2C321.9,182.6,322.4,182.1,322.4,182.1z"/>
	<path class="st0" d="M308.4,197.4c-0.3,0.1-1.4,0.7-0.9,0.8s1.1,0.1,1.2-0.2C308.8,197.8,308.4,197.4,308.4,197.4z"/>
	<path class="st0" d="M310,201.6c-0.2,0-0.6,0.4-0.8,0.6s-1.2,0.3-1.2,0.6c-0.1,0.3-0.1,0.6,0.3,0.8s0.8,0.2,1.2,0.1
		c0.5-0.1,1,0,1-0.5S310.3,201.5,310,201.6z"/>
	<path class="st0" d="M292.9,203.9c0-0.5-0.2-1-0.8-0.8c-1.1,0.6-2.2,1.4-3.1,2.2c-0.4,0.5-0.8,1-1.2,1.5c-0.2,0.5-0.3,1,0.2,1.2
		s2.4,0.9,2.4,0.4s-0.1-1.6,0.3-2c0.5-0.4,1-0.9,1.5-1.4L292.9,203.9z"/>
	<path class="st0" d="M288.6,209c-0.2-0.1-0.5,0.6-0.5,0.9c-0.1,0.3,0.2,0.4,0.4,0.1C288.7,209.6,288.8,209.1,288.6,209z"/>
	<path class="st0" d="M308.7,204.9c-0.2,0.2-0.5,0.4-0.8,0.5c-0.5,0-0.9,0.1-1.4,0.3c-0.6,0.5-1.2,1-1.8,1.4
		c-0.3,0.1-3.6,1.4-3.8,1.6c-0.2,0.2-0.7,1.2-1.2,1.2s-1,0.2-1.4,0.5c-0.3,0.4-0.6,0.8-1,1.1s-1.6,1.1-1.2,1.5s1.5,1.5,1.9,1.4
		s0.8-0.7,1.3-0.6c0.6,0.1,1.2,0.8,0.8,1s-0.8,0-1.1,0.2c-0.4,0.3-0.9,0.4-1.4,0.5c-0.3-0.1-0.8-0.5-1.2-0.3s-2.6,0.9-2.9,1.2
		s-1.6,1.1-1.6,1.4s0.2,0.8,0,1.1s-0.5,0.3-0.5,0.8s0.3,0.8,0.1,1.2c-0.2,0.3-0.3,0.6-0.3,1c0.1,0.5,0.2,1.1,0.4,1.6
		c0.1,0.3,0.5,0.6,0.9,0.8s1.4,0,1.6,0.5c0.1,0.5-0.1,1,0.3,0.9c0.5-0.1,1.7-1,1.7-1.5s-0.3-1.1,0.1-1.6c0.5-0.5,1-1.9,1.5-1.8
		s1.1-0.1,1.1-0.5s0-0.6,0.3-0.6s0.5-0.2,0.8-0.8s1.2-3.5,1.4-3.6s0.8,0.3,1-0.2s0.4-1.8,1-2c0.5-0.2,0.9-0.5,1.3-0.8
		c0.7-0.6,1.2-1.4,1.6-2.2c0-0.4,0.3-0.8,0.6-1c0.2-0.1,1-0.3,1.2-0.8c0.1-0.4,0.3-0.8,0.7-1c0.3-0.3,0.8-0.4,0.8-0.8
		S309.1,204.6,308.7,204.9z"/>
	<path class="st0" d="M289.4,215.7c-0.3-0.1-0.9-0.6-1.2-0.1c-0.3,0.4-3.1,2.9-3.4,3.3s-1.9,2.5-1.9,1.9s0.2-3.3-0.2-3.2
		s-1.3,0.6-1.8,0.5s-2.2-0.6-2.6-0.1s-1.9,2.8-1.6,3.4c0.3,0.6,0.7,1.2,0.3,1.6c-0.3,0.4-0.7,0.8-0.9,1s-0.7,1.2-1,1.6
		c-0.4,0.7-0.8,1.4-1.1,2.2c-0.1,0.4-0.3,0.6,0.4,0.8c0.6,0.1,1.3-0.1,1.8-0.5c0.4-0.3,1.4-0.6,1.8-0.8c0.6-0.5,1.1-1.1,1.5-1.8
		c0.1-0.4,0.1-1.4,0.5-1.6s1.6-1.1,1.8-1s1.9,2,1.5,2.2c-0.7,0.3-1.4,0.7-2,1.2c-0.1,0.3-1.1,1-0.7,1.1s1.4,0.3,1.4,0.7
		s-0.2,3.6-0.5,3.8c-0.3,0.1-0.8,0.3-0.8,0.6s-0.1,0.6-0.3,0.9c-0.3,0.3-1.4,1.5-1.4,1.8s0.1,0.8,0.5,0.8c0.3,0,0.6,0.1,0.9,0.3
		s0.7,0,1.1-0.1c0.5-0.2,0.9-0.4,1.2-0.8c0.3-0.4,0.3-1.5,0.9-1.5s1-0.1,1.2,0.1s0.4,0.9,1,0.8c1.1-0.3,2.1-0.8,3.1-1.4
		c0.1-0.3,0.1-1.3,0.6-0.9c0.3,0.3,0.8,0.4,1.2,0.2c0.3-0.1,1-0.6,1-0.8c-0.1-0.4-0.3-0.7-0.5-1.1c-0.1-0.4-0.3-0.6,0-1
		c0.2-0.3,0.3-0.7,0.1-1.1c-0.1-0.3-0.8-2.9-0.9-3.3c-0.1-0.8-0.2-1.7-0.1-2.5c0.1-0.5,0.2-1,0.3-1.4c0.1-0.4,0.2-0.8,0.2-1.2
		c0-0.3-0.6-2.5-0.3-2.7c0.2-0.3,0.9-1.2,0.5-1.2C290.4,215.9,289.9,215.8,289.4,215.7z"/>
	<path class="st0" d="M302.3,232.2c0.2-0.5,0.5-0.6,0.3-1s-0.7-0.6-1-0.2c-0.3,0.4-1,1-1,1.5s0.1,1.2-0.1,1.5s-0.7,0.8-0.7,1.1
		s-0.4,0.6,0.2,0.6s1.3-0.3,1.7-0.8c0.3-0.4,0.7-1,0.4-1.2c-0.3-0.2-0.5-0.7-0.3-0.9C302.1,232.6,302.2,232.4,302.3,232.2z"/>
	<path class="st0" d="M324.7,223.2c-0.3-0.2-0.7-0.3-1-0.1s-0.9,0.3-0.9,0.8c0,0.4,0.1,0.7,0.3,1.1c0.1,0.3,0.1,2,0.6,2.1
		s1,0.1,1,0.3s-0.3,2.8-0.3,3.1s-0.3,1.1,0.2,1.3s1.3-0.1,1.3,0.4s-0.3,1-0.1,1.5c0.2,0.7,0.6,1.4,1,2c0.4,0.3,0.8,0.8,1,0.5
		s0.6-0.6,0.3-0.9c-0.4-0.3-0.6-0.9-0.4-1.4c0.4-0.9,0.8-1.8,1-2.8c0-0.6,0.6-2.2-0.2-2.4s-1.6-0.2-1.6-0.7s1-1.6,0.4-2
		c-0.5-0.3-0.9-0.7-1.3-1.2C325.7,224.5,324.7,223.2,324.7,223.2z"/>
	<path class="st0" d="M331.9,233.7c-0.4-0.1-0.6-0.3-0.8-0.1c-0.3,0.3-0.6,0.8-0.5,1.2s0,0.9,0.6,0.8c0.5-0.1,1.2-0.6,1.2-1
		C332.4,234.2,332.2,233.9,331.9,233.7z"/>
	<path class="st0" d="M329.8,236.3c-0.4-0.1-0.7,1-0.1,1.1c0.5,0.1,0.9-0.1,0.9-0.5S330.1,236.3,329.8,236.3z"/>
	<path class="st0" d="M319.8,235.5c-0.5-0.3-1.8-1-2.1-0.6c-0.3,0.4-0.7,0.8-1.2,1c-0.5,0.1-2,0.5-2,1c0,0.4-0.1,0.8-0.3,1.2
		c-0.4,0.3-0.7,0.7-0.8,1.2c-0.1,0.5-0.5,2.4-0.2,3s1,1.8,0.8,2c-0.4,0.5-0.6,1.1-0.8,1.8c-0.1,0.5-0.3,1.4,0.1,1.6s0.8,0.4,0.8,0.8
		c0.1,0.7,0.2,1.3,0.4,2c0.3,0.6,0.7,1.2,1.2,1.8c0.7,0.5,1.5,0.8,2.2,1.1c0.3,0,3.4,0.7,3.7-0.2s-0.1-1.8,0.3-2.2s0.8-0.7,0.8-1.2
		s-0.3-1.8,0.1-2.2s0.7-0.7,0.5-1.3c-0.1-0.6-0.5-1.1-1-1.4c-0.4-0.1-1-0.3-0.9-1s0.5-3.9,0.5-4.5c0-0.5-0.1-1.1-0.3-1.6
		c-0.3-0.3-0.8-0.7-1.1-1.1C320,236.2,320,235.7,319.8,235.5z"/>
	<path class="st0" d="M434.6,248.8l-1.1,1.4c0,0-0.6,0.9-0.9,1.2c-0.6,0.5-1.1,1-1.8,1.5c-0.2,0.1-3.5,3.1-3.7,3.3
		c-0.2,0.3-1.2,1.9-1.2,1.9c-0.6-0.2-1.2-0.4-1.8-0.5c-0.7,0.2-1.3,0.4-2,0.6l4.5,11.3c0,0-6.9,3.8-6.9,4s0.1,1.5-0.3,1.5
		c-0.5,0-4.8-0.2-5,0.2c-0.6,0.8-1.3,1.6-2.1,2.2c-0.7,0.3-1.4,0.7-2,1.2c-0.3,0.3-4.7,5.4-4.9,5.6c-0.8,0.6-1.7,1.1-2.7,1.6
		c-0.5,0.2-4.5,2.5-4.7,2.6s-2.5,1.7-2.8,1.8s-4.6,0.8-4.6,0.8l-1.4,3.9l0,0c-0.8,0-1.6,0-2.4,0.1c-0.3,0-3.5-0.2-4.5-0.2
		s-5.9-1.3-6.6-1.4s-4-0.8-4.9-1s-1.5,5-1.7,5.5s-2.7-0.3-3-0.3c-1.2,0.3-2.4,0.8-3.5,1.3c-0.5,0.3-1.6-1.4-2-1.8s-0.8,3.3-1,3.5
		s-0.8,0.3-1.2,0.5c-0.5,0.1-0.5,0.4-0.8,0.7c-1.1,0.7-2.3,1.3-3.5,1.7c-1.2-0.3-2.3-0.8-3.4-1.3c-0.6-0.1-1.2-0.1-1.8-0.1
		c-0.6-0.1-1.2-0.3-1.7-0.6l-0.3-0.3c-0.4-0.4-0.6-0.9-0.8-1.4c-1.1-1.3-2.2-2.6-3.5-3.8c-0.5-0.4-2.6-1.6-3.3-2.2s-0.6,0.2-0.6,0.8
		s0.9,1.9,1,2.4c0.2,0.7,0.6,1.5,1,2.1c0.2,0.3-0.8,1.3-1.2,2.1s0,0-0.4,0.6s-0.3,3.1-0.4,3.6s-1.1,0.8-1.5,1s-1.7-0.8-2.1-1.1
		c-0.4-0.3-5-5.8-5.4-6.3s-3.5-3.6-3.8-4.1s-0.7-2.4-1.1-3.2s-4,0.9-4.7,1.1s-0.8,1.9-0.8,2.3s-0.4,3.1-0.4,3.8s-0.1,4.9-0.1,5.6
		s-0.9,0.5-1.4,0.3s-1-2.5-1.2-3.1c-0.1-0.8,0.1-1.7,0.5-2.4c0.3-0.5-0.9-3.3-1.2-4.1s-1.8-2.7-2.1-3.3s-2-4.9-2.2-5.7
		c-0.2-0.8,1-4.2,1.4-4.8c0.4-0.6,1.1-0.7,1.6-0.9c0.7-0.2,1.4-0.3,2.1-0.1c0.7,0.2-0.1,3.3-0.1,4c0,0.8,0.2,1.5,0.6,2.2
		c0.2,0.5,0.6-0.1,0.9-0.3c0.4-1.1,0.6-2.3,0.8-3.5c0.1-0.6-0.6-2.9-0.6-3.6s2.5-4,2.7-4.4c0.3-0.4,3.1-3.9,3.3-4.3
		c0.6-0.5,1.2-0.9,1.9-1.2c0.6-0.4,1.1-0.8,1.6-1.3c0.4-0.9,0.8-1.8,1.2-2.7c0.2-0.5,1.4-2.6,1.6-3s2.9-4.7,2.9-4.7
		c0.4-0.5,4.8-3.1,5.3-3.5c0.5-0.3-0.2-3.8-0.2-4.2s-0.5-0.8-0.8-1.1c-0.2-0.3,0.7-0.8,1-1.2s-0.1-0.7-0.3-0.9
		c-0.2-0.2-2.1-3.1-2.3-3.3c-0.7-0.4-1.4-0.7-2.1-1c-0.4-0.2-0.8-1.5-0.8-1.8c-0.3-0.8-0.7-1.7-1.2-2.5c-0.2-0.4,0.5-1,0.8-1.2
		c1.2-1.6,1.8-3.4,1.9-5.4c0-0.5-0.1-5.5-0.1-6c0.1-0.5,0.8-0.1,1.2-0.2c0.5-0.1,2-3.1,2.3-3.3s2.3,1.2,2.5,1.5
		c0.7,0.5,1.4,1,2.1,1.3c0.5,0.2,3.8,1.3,4,1.5s2.4,0.8,2.7,0.9s1.6,1.9,2.2,2c0.5,0.1,0.1-0.5,0.1-0.7c-0.1-0.2-1-2-1.2-2.4
		c-0.3-0.3-0.7-0.5-1.2-0.4c-0.6-0.1-1.2-0.3-1.6-0.7c-1-0.6-1.9-1.1-2.9-1.6c-0.3-0.1-1.6-0.9-2-1.1c-0.4-0.2-0.8-2.1-0.9-2.5
		s-1.4-1.4-1.6-1.6c-0.3-0.9-0.5-1.8-0.6-2.7c-0.1-0.4-0.3-0.6-0.8-0.5s-0.1,2.2-0.1,2.7s1,1.5,1.3,1.9s-1.4,0.7-2.1,0.6
		s-0.9-1.4-1-2c0.1-0.6,0.2-1.2,0.5-1.7c0.2-0.6-0.4-0.9-0.7-1s-0.4,0.6-0.7,1c-0.2,1-0.4,2-0.5,3.1c-0.1,0.4-0.3,0.6-1,0.8
		s0,0.9,0.1,1.4s-1,1.3-1.5,1.7s-1.6,2.9-1.9,3.1c-0.3,0.2-1.9-0.3-2.3-0.6s0.2-1.2,0.4-1.7c0.2-0.6-0.6-3.8-0.6-4.2
		s-0.4-0.4-0.8-0.3s-0.2,2.2-0.1,3.2s0,0.8-0.3,0.9s-0.5-0.5-0.7-1s-0.4-0.7-1.4-1.3s-0.8-1.2-0.8-1.8s-0.4-0.4-0.8-0.1
		c-0.4,0.3-0.3,1.4-0.5,2.1s-0.4,0.8-0.7,1.2c-0.2,1.1-0.4,2.1-0.4,3.2c-0.1,1.1-1.1,0.4-1.6,0.3c-0.5-0.1-1-0.9-1.1-1.4
		s-0.3-4.4-0.3-4.9c0-0.8,0.1-1.6,0.3-2.4c0.2-0.6,0.5-1.3,0.8-1.8c0.2-0.2,2.2-2.4,2.2-2.4s2.7-2.7,3.2-2.9
		c0.8-0.7,1.5-1.4,2.2-2.2c0.4-0.4,1.8-0.3,2.2-0.4c0.5-0.1,2.4-2.5,2.7-2.7s2.7-1.6,2.7-1.6c0.4-0.3,1.1-0.6,1.3-1
		c0.2-0.4,0.1-0.8-0.3-0.6c-0.3,0.2-2.7,1.5-3,1s-0.6-0.6-1-0.3s-3.3,2.7-3.7,2.9s-1,0.4-1.4,1s-0.8,1.5-1.2,1.6
		c-0.4,0.1-1.4,0-1.7,0.4c-0.3,0.4-1.4,1.6-1.6,1.8c-0.9,1.3-2,2.6-3.1,3.8c-0.4,0.2-1.6,1.6-2,1.2c-0.4-0.4-0.9-0.9-1.3-0.9
		s-0.9-0.7-1,0.3c-0.1,0.9-0.1,4.1-0.1,4.6s0.1,3.1,0.1,3.1c0.2,0.9,0.6,1.9,1,2.7c0.6,1,1,2.1,1.4,3.1c-0.1,1-0.5,1.9-1,2.7
		c-0.4,0.3-1.6,0.3-2.3,0.5s-1.6,2.8-1.8,3.3s-1.7,3.7-2,4.2c-0.4,1-0.7,1.9-1,2.9c-0.2,0.5-0.5,0.8-1,1c-0.4,0.2-0.6,1-0.8,1.6
		c-0.2,0.8-0.6,1.5-1,2.2c-1,1.3-2.1,2.6-3.2,3.8c-0.4,0.3,0.5,3.3,0.5,4s-2.1,2.7-2.5,3.1c-0.4,0.3-3.3,0.2-4,0.1
		c-1-0.3-2-0.8-2.9-1.5c-0.4-0.3-0.6-0.7-0.5-1.2c0.1-0.3,0.8-3.8,0.9-4.2c0.1-0.3,1.8-1,2.2-1.3c0.3-0.3,1.1-0.1,1.6-0.3
		s0.6-2.1,0.7-2.7c0.1-0.6,0.4-5.3,0.6-5.7c0.8-1.1,1.6-2.2,2.6-3.1c0.5-0.5,0.8-3.5,0.9-3.9s0.3-0.6,0.6-0.8
		c0.3-0.2,3.3-2.7,3.5-2.8s3-1.4,3.4-1.6c0.9-0.9,1.7-1.9,2.2-3.1c0.3-0.7,0.1-0.8-0.2-1s-2.2,2.2-2.7,2.5s-2.7,1.7-3.1,2
		c-0.5,0.3-0.7-0.7-0.8-1.2s0.3-0.6,0.5-1.1c0.1-0.5-1.3-1-1.7-1.2c-0.4-0.2,0.8-2.2,1-2.7s1.2-1,1.4-1.4c0.2-0.4,1.3-1.6,1.6-2.2
		c0.3-0.5,0.5-0.9,0.1-1.1s-1.3,0.9-2,1.6c-0.7,0.7-0.9,0-1.3-0.3s0.3-1,0.6-1.2s2.3-2.1,2.6-2.3c0.3-0.6,0.6-1.2,0.8-1.9
		c0.1-0.3,1-0.7,1.4-0.8s0.1-1.1,0-1.3s-1.1,0.4-1.4,0.6c-0.8,0.9-1.5,1.9-2.1,2.9c-0.3,0.5-0.8,0.8-1.3,1.1s-0.5-0.1-0.6-0.8
		s0.4-1,1-1.4c0.5-0.6,0.9-1.2,1.3-1.8c0.3-0.3,1.6-1.4,1.8-1.6c0.2-0.2,1.9-2,1.9-2c0.5-0.4,1.1-0.8,1.7-1s0.6-1.7,0.7-2.1
		c0.1-0.4,0.7-0.8,1-1.5s-0.1-0.6-0.4-0.6c-0.5,0.2-1,0.5-1.5,0.9c-0.4,0.3-0.8,1.2-1,1.5s-0.7,0.1-1.1,0.2
		c-0.4,0.1,1.1-2.2,1.2-2.5c0.9-0.9,1.9-1.8,3-2.6c0.3-0.3,0.3-1,0.1-1.4s1.5-0.9,2-1.2s0.2-0.4,0.1-0.7s-0.9-0.1-1.2,0.1
		s-1.6-0.3-1.9-0.3c-0.5,0.1-1,0.3-1.5,0.6c-0.3,0.1-1,2.4-1.2,2.9s-0.6-0.2-0.8-0.4c-0.1-0.8-0.1-1.6,0.1-2.4
		c0-0.3,1.1-1.4,1.4-1.7s0.2-1.6,0.2-2s0.9-0.7,1.2-0.8c0.3-0.1,0.6,0.6,0.9,1s1.1-1.6,1.2-1.9c0.1-0.3,0.5-0.1,1.2-0.4
		c0.7-0.3,0-1.4,0-1.7c0-0.5,0-1-0.2-1.4s1.2-0.8,1.4-1c0.3-0.2,0.3-0.2,1,0s1.6-1,2.1-1.2s0.9-0.1,1.5-0.2c0.6-0.1-0.2-1.4-0.5-1.8
		s-0.8-0.4-1.2-0.5s0.3-0.9,0.6-1c1-0.4,2-0.8,2.9-1.4c0.4-0.4-0.2-0.8-0.4-1.2c-0.2-0.4,0.6-1.2,0.8-1.4c0.2-0.2,1.4-1.6,1.8-1.9
		c0.3-0.3,1.9-1.8,2.2-2s-0.1-0.8-0.3-1.1s1.3-0.6,1.6-0.6s2.8-0.3,3.2-0.3s0.6-1.1,0.4-1.4c-0.1-0.3-0.8-0.2-1.1-0.2
		c-0.3,0-0.6-0.2-0.7-0.6c0,0,0,0,0-0.1c0-0.5,1.8-1.7,2-2s2.9-3.1,3.1-3.6c0.3-0.5-0.1-0.7-0.6-0.8s-1.2,1.2-1.5,1.5
		c-0.5,0.5-1,0.9-1.6,1.2c-0.5,0.4-0.9,0.9-1.2,1.5c-0.1,0.5-1,1-1.5,1.6s-4.9,3.3-5.3,3.7s-0.8-0.1-1-0.3s-1.2,1.2-1.5,1.6
		s-1.2,0.2-1.6,0.2c-0.5,0-0.8,1.6-1,2c-0.6,0.7-1.3,1.4-2,2c-0.8,0.4-1.7,0.7-2.5,1c-0.4,0.2-0.7,0.5-1,0.8s-0.9,0.1-1.4-0.1
		c-0.5-0.2-0.5-1.2-0.5-1.5c-0.8-0.7-1.7-1.2-2.7-1.6c-0.3-0.1-1.1-0.2-1.6-0.3c-1-0.8-1.9-1.6-2.7-2.6c-0.7-0.7-0.8-2.6-1-3.1
		s-0.3-1.2-0.5-1.8s0.6-0.5,1-0.5h4.4c0.7-0.1,1.4-0.2,2.1-0.4c0.5-0.2,1-0.5,1.4-0.8c0.3-0.3,1,0.4,1.4,0.6
		c0.6,0.3,1.2,0.6,1.8,0.9c1.1,0.3,2.3,0.5,3.5,0.5c0.6-0.1,0.3-0.7-0.1-0.8c-0.7-0.1-1.3-0.1-2-0.1c-0.6,0-1.6-1.3-1.9-1.6
		c-0.2-0.3-0.6-0.4-1-0.4c-0.3,0-1.2-0.4-1.6-0.4s-0.3,0.1-0.5,0.6c-0.2,0.4-1,0.6-1.3,0.7c-0.3,0.1-0.6,0.3-0.8,0.4
		c-0.3,0.1-0.5-0.1-0.8-0.4s-1.6,0-2.1,0.1c-0.6,0.1-1-0.5-1.4-0.8c-0.8-0.3-1.7-0.5-2.6-0.6c-0.4,0-0.7-0.7-0.8-1
		c-0.1-0.3-2,0.3-2.5,0.3c-0.7,0-1.3-0.2-1.8-0.6c-0.3-0.3-0.3-2.5-0.3-2.9s1.2-1,1.6-1.2s1.4-0.1,1.7-0.1s4.2,0.5,4.7,0.6
		c0.4,0.1,0.9-0.1,1-0.6c0,0,0,0,0-0.1c0.1-0.4,2.6,2.2,2.9,2.5s0.6,0,0.9-0.2s-0.4-1.4-0.5-1.7c0-0.6,0.1-1.1,0.4-1.6
		c0.5-0.4,1-0.7,1.6-0.9c1.1-0.2,2.2-0.4,3.3-0.8c0.6-0.2-0.2-1-0.6-1.3s1.5-1,1.8-1.2s-0.3-0.8-0.6-0.8s-4,0.2-4.4,0.2
		c-0.7-0.1-1.3-0.3-1.9-0.6c-0.7-0.4,0-0.6,0.4-0.8s1.3-0.1,1.8-0.3s0.3-0.9,0.3-1.3c0.2-0.7,0.6-1.3,1.2-1.8
		c0.4-0.8,0.7-1.7,0.9-2.7c0.1-0.3,1.8-0.1,3-0.1s2.8,2.9,3.1,3.1s2.9-0.1,3.4-0.1s0.6-0.2,0.4-0.7c-0.1-0.5-1.3-0.3-2-0.3
		c-0.7-0.1-1.3-0.4-1.7-0.9c-0.3-0.5-0.5-1-0.6-1.6c0-0.3-1.1-0.7-1.7-0.8s-0.8-0.8-1.1-1.2s-0.1-0.7,0.1-0.9s2.2-2.3,2.4-2.5
		s3.3,1,3.8,1.2c0.8,0.4,1.6,0.6,2.4,0.6c0.5-0.1-0.1-1.6-0.1-2s-0.5-0.8-1-1s-2.2-1.2-2.8-1.4c-0.6-0.3-0.2-1.4-0.1-1.6
		c0.6-0.4,1.2-0.8,1.8-1.1c0.5-0.3,0.5-1.6,0.7-1.9c0.2-0.3,3.3-0.9,3.6-1.1s2,2.4,2.2,2.8s0.6,0.2,1.2,0.1c0.6-0.1-0.3-1.4-0.6-1.8
		c-0.3-0.4-1.4-1.8-1.4-1.8c-0.6-0.8-2.2-0.6-2.6-0.6c-0.6-0.1-1.2-0.5-1.6-0.9s-2.6-0.2-3.2-0.3s0-1,0.3-1.2s2.4-1.9,2.8-2.2
		c0.8-0.2,1.7-0.3,2.5-0.2c1.1,0,0-1.6-0.1-2s0.1-1.9,0-2.5s-2.2,1.5-2.6,2.1c-0.5,0.6-2.6,1-3.5,1.1c-0.8,0.1-1.3-1.4-1.5-1.8
		s0.4-2.1,0.4-2.6s0.5-1.2,0.5-1.6s0,0-0.8-2s1.5-4.9,1.8-5.8c0.4-0.9,1.6-0.1,2.1,0.2c0.5,0.3,0.5,0.6,0.7,1.3s1.1,0.6,1.6,0.6
		c0.6,0,0.5,1.1,0.6,1.9s1.5-0.1,1.6-0.4s1.5-0.2,2.1-0.1c0.5,0.1,1,0,1.5-0.3c0.5-0.4-0.5-0.6-0.9-1c-0.8-0.3-1.7-0.5-2.6-0.5
		c-0.7-0.1-2-1.7-2.3-2.2c-0.3-0.4-0.3-1.1,0.1-1.5c0.5-0.4-0.7-1.6-0.9-2c-0.2-0.4-0.6-0.4-1-0.4s-0.5-0.6-0.5-1s2.8-2,3.2-2.3
		c0.2-0.2,0.5-0.2,0.7,0c0.1,0.1,0.1,0.1,0.1,0.2c0.2,0.4,1.1-0.3,1.5-0.6c0.4-0.4-0.4-1.4-0.5-1.7s-1.2-0.4-1.7-0.4
		s-1.2-0.8-1.6-1.6c-0.5-0.8,0.6-1.6,0.9-1.8c0.3-0.3-0.1-2.6-0.2-3.3c0-0.6,0.3-1.1,0.8-1.5c1-0.2,2-0.2,2.9,0s1.1,2.7,1.1,3.4
		c0.2,1,0.6,2,1.2,2.9c0.4,0.6,1.5-0.6,1.8-0.9c0.3-0.4,0.1-1.4,0.4-2.6c0.3-1.3-0.6-0.6-1.3-0.9s-0.6-1.5-0.6-2.1
		c0-0.4,0.2-0.8,0.6-1s0.6-0.6,0.5-1c0-0.6,1.1-0.2,1.4-0.2s0.7,0.6,1,1.3c0.3,0.7,0.4,1.4,0.3,2.1c-0.1,0.6,1.4,0.9,1.8,0.9
		s1.2-0.9,1.7-1.3c0.6-0.4,2.1,0.7,2.6,1c0.6,0.6,1.2,1.2,1.5,2c0.4,0.5,0.9,0.8,1.6,0.8c0.6,0.1,0.3-0.6,0.1-0.9
		c-0.3-0.6-0.7-1.1-1.2-1.5c-0.6-0.6-0.1-0.4-0.5-1.4s-1-0.6-1.4-1s-0.6-0.2-0.7-0.9s0.4-0.6,0.6-0.6s1.9,1,2.4,1.3
		c0.6,0.4,1.3,0.7,2,1c0.6,0.4,1.1,0.9,1.5,1.5c0.5,0.6,0.6,0.6,1.2,0.6c0.5-0.1,0.3-0.7,0-0.9c-0.5-0.5-1-1.1-1.5-1.7
		c-0.6-0.4,0-0.8,0.6-1.1c0.6-0.3-0.6-1.3-1.1-1.6c-0.6-0.4-1.1-0.7-1.7-1c-0.6-0.4-0.6-1.2-0.6-1.8s-0.4-1-0.7-1.6
		c-0.5-0.6-1.1-1.1-1.8-1.4c-0.8-0.5-0.6-2.6-0.6-2.9s0.3-0.6,0.8-0.9c0.6-0.3,1.6,1.5,2,1.8c0.6,0.4,1.2,0.7,1.9,0.9
		c0.4,0,0.6-1.2,0.9-1.8c0.2-0.4,0.2-0.9,0.1-1.4c0-0.4,0.3-0.8,0.9-1.4s-0.4-1-0.8-1.4c-0.5-0.4-0.9-2.5-1-3.1
		c0-0.6-0.2-1.3-0.5-1.8c-0.4-0.4,0.5-1,0.6-1.5s0.8,0.2,1,0.5c0.3,0.6,0.8,1.1,1.3,1.6c0.5,0.3,2.4-0.3,2.9-0.3s1.6,0.4,2.3,0.4
		c0.7,0,0.6-0.2,1-0.6s2.8,1.6,3.2,1.8c0.3,0.3,0.8,0.3,1.1,0.1c0.6-0.3,0-0.5-0.2-0.8c-1.2-1-2.4-1.9-3.6-2.7
		c-0.6-0.5-1.2-3-1.3-4.1c-0.1-1.1,1.9-3.1,2.2-3.6s0.9-0.1,1,0.3s0.9,0.5,1.2,0.1c0.2-0.7,0.4-1.4,0.6-2.2c0.3-0.8,0,0,0.5,0
		s0.6,0.3,1.3,0.6s0.4-0.6,0.4-1.1s-2.3-2-2.9-2.5s0-1.2,0.4-1.6c0.8-1,1.7-1.9,2.6-2.7c0.7-0.6,1.2-1.3,1.5-2.2
		c0.3-0.6,0.1-1.6,0.7-1.6s0.8,0.1,1.1,0.4c0.3,0.4,0.7,0.7,1.2,0.8c0.4,0.1,1.5-0.2,2,0.5c0.4,0.6,1.9,1.6,1.5,2.3
		c-0.5,0.6-0.8,1.4-0.9,2.2c0,0.5-0.1,1.6,0.5,1.5c0.5-0.1,0.9-0.2,0.9-0.6s0.4-3.5,0.9-3.9s1-1.1,1-0.4s0.1,2.1,0.5,2.3
		s1.4,0.8,1.5,1.4c0.1,0.5,0.4,1.1-0.2,1.6s-2.6,2.4-2.6,2.4s-0.6,0.5-0.6,1s0.1,1.1,0.7,0.6s1.9-1.4,2.2-1.6s3.2-3.6,3.6-3.9
		c0.3-0.3,0.7-0.4,1.1-0.5c0.4,0,2.1,0.3,2.4,0.7s1.5,0.9,1.3,1.9c-0.2,1.1-0.5,2.2-1,3.3c-0.4,0.4-1.9,1.6-1.9,2s-0.3,1.2,0.6,0.6
		s1.7-1.3,2.5-2.1c0.6-0.8,1.6-2.7,2.1-2.8s2.8-0.3,2.8,0.1c0.1,0.7,0.5,1.2,0.9,1.7c0.5,0.4,0.8-0.8,1.2-1.3s0.7-0.1,1.5-0.1
		s0.5-0.8,1-1.4c0.4-0.5,1.8,0.2,2.4,0.6s0.5,0.4,1.1,0.3c0.5-0.1,0.4-0.9,0.8-1.5s1,0.1,1.3,0.5c0.3,0.5,0.8,0.9,1.4,1.1
		c1.6,0.5,3.1,1.1,4.6,1.8c1,0.6,2-0.5,2.7-0.6c0.7-0.2,3.9-1.7,4.4-1.9c0.7-0.1,1.5-0.1,2.2,0.1c0.4,0.1,0,0.8,0.6,1.3
		c1.4,0.7,2.9,1.2,4.4,1.5c0.9,0.1,0.7-1,1.2-1.6s-0.3-0.7-0.6-1.1c-0.4-0.4-0.6-0.9-0.6-1.5c0-0.5,0.7-0.3,1.3-0.3
		c1.6,0,3.2,0.1,4.8,0.3c0.6,0.2,0.7,0.5,0.8,1.1c0.1,0.5,0.9,0.5,1.5,0.8c1,0.3,1.9,0.7,2.8,1.3c0.3,0.4,0.5,0.4,0.3,1
		c-0.4,1.3-1.1,2.6-1.8,3.7c-0.5,0.4-1,0.7-1.3,0.9c-0.3,0.2-0.8,0.5-0.8,0.9s0.2,2.9,0.6,3.1c0.5,0.2,1,0.4,1,0.9s0.4,1.6-0.2,2
		c-0.6,0.5-1.2,0.9-1.7,1.5c0,0-0.4,2.4-0.7,2.4c-0.6,0.2-1.2,0.5-1.7,0.9c-0.6,0.7-1.2,1.3-1.9,1.9c-0.6,0.4-1.2,0.6-1.9,0.8
		c-0.6,0.1-1.8-0.5-2,0.1s0,1.4-0.5,1.2c-0.6-0.3-1.3-0.4-1.9-0.3c-0.5,0.2-3.5,3.8-4.2,4.4s-4,3.2-4.6,3.2c-0.8,0-1.6,0.2-2.4,0.6
		c-0.4,0.6-0.9,1.2-1.4,1.7c-0.7,0.6-7.5,5-8.2,5.2s-4.6,0.9-4.9,0.9s-1.7,0-1.4,0.7c0.4,0.7,0.8,1.4,1.1,2.2
		c0.1,0.6-0.1,1.1-0.4,1.6c-0.5,0.5-3.2,2.6-3.6,2.2c-0.6-0.7-1.4-1.2-2.3-1.5c-0.6-0.1-3.1-0.3-3.5-1.1c-0.7-1.3-1.5-2.5-2.3-3.6
		c-0.4-0.4-1.3-0.9-0.7,0.2c0.6,1.3,1.2,2.7,2,3.9c0.5,0.5,1.1,0.8,1.8,1c1.2,0.3,2.3,0.7,3.4,1.2c0.5,0.4,3.1,2.3,3.9,2.2
		s2.8-1.2,3.1-0.6s0.7,2.2,1.5,1.6s1.6-1.6,2.1-1.6c0.4,0,1.5-0.3,0.9,0.8c-0.4,0.8-0.9,1.6-1.5,2.3c-0.3,0.4-1.9,2.4-2.2,2.7
		c-0.8,1-1.6,1.9-2.5,2.7c-0.3,0.2-0.7,0.3-1.1,0.3c-0.5,0-1.8-0.2-1.6-0.8c0.3-0.6,1.4-1.9,0.5-1.8c-1,0.1-1.9,0.4-2.7,0.8
		c-0.5,0.4-2.1,1.7-2.6,1.3c-0.6-0.5-0.7-1.2-1.2-0.8c-0.5,0.4-6.7,3.5-6.9,3.9s-2,3.3-1.2,2.9s5.8-4.2,6.5-4.5
		c0.9-0.3,1.7-0.4,2.6-0.4c0.6,0,2.5-0.5,3.4,0s2,0.6,1.6,1.2c-0.5,0.7-1.1,1.3-1.7,1.8c-0.5,0.4-2.1,1.5-2.1,1.7s0.3,1.8-0.4,1.8
		s-1.3-0.2-1.6,0s-0.4,0.9-1,0.8s-2.1-0.2-2,0.2s0.2,1.7-0.1,1.9c-0.3,0.2-0.5,0.6-1,0.4c-0.7-0.3-1.4-0.5-2.2-0.6
		c-0.4,0-2.8,0-1.3,0.6c1.5,0.6,4.9,1.9,5.7,1.6c0.8-0.3,1.4-1.1,2.3-1.6s3-1.6,3-2s-0.1-2.1,0.6-2.3c0.6-0.2,0.9-0.8,1.5-0.5
		c0.6,0.4,1.4,1,2,0.8s6.2-0.7,6.6-0.9c0.4-0.2,2.8-2,3.4-1.5s1.8,2.4,2.6,1.8c0.8-0.6,3.3-3.6,3.7-3.6c0.8,0,1.5,0,2.3,0
		c1-0.1,3.1-0.7,3.7-0.5c0.6,0.3,5.6,3.6,6.1,4c0.6,0.4,3.3,1.7,3.8,1.6s0.6-0.9,1.4-0.7c0.7,0.2,1.1,0.6,1.6,0.2s0.9-1.3,1.6-1.4
		s1.6,0,1.7,0.5s0.4,1.2,1,1c0.7-0.1,1.5-0.1,2.2,0.1c0.6,0.1,1.6,1,2.1,1c0.6-0.1,1.1-0.2,1.7-0.2c0.4,0.1,2.1,0.4,2.4,0.8
		s0.2,1.1,1.2,1.2s5.8,0.6,6.4,0.4s1.6-0.7,2.1-0.4c0.5,0.4,0.9,0.9,1.6,0.9c0.8,0.1,1.6,0.1,2.4,0c0.4-0.2,1.3-1.3,1.6-1.3
		s3.5,0.6,3.9,1.3c0.4,0.7,4.9,7.5,5,8s1.2,5,0.8,5.5s-1,0.7-1,1.2s0.3,1.4-0.2,1.8c-1.1,1.3-2.4,2.6-3.6,3.8
		c-0.5,0.3-1.7,0.1-1.9,0.7c-0.2,0.9-0.6,1.7-1,2.5c-0.4,0.4-5.1,6.1-5.2,6.6s-0.6,6-1.1,6.6c-0.7,0.9-1.4,2-1.9,3
		c-0.2,0.4-0.5,1.6-1,1.8c-0.4,0.3-1.5,0.4-1.8,1.1c-0.3,0.6-2.3,7.3-2.7,7.9c-0.7,1-1.5,2-2.5,2.8c-0.7,0.6-5.5,3.5-5.8,4
		c-0.5,1.1-1,2.3-1.3,3.6c-0.1,0.5-0.4,1-0.8,1.3c-0.6,0.3-1.7,0.3-1.7,0.9s0.1,2.8-0.3,3.2s-2,1-2.3,1.6c-0.2,0.6-0.6,1.2-1.2,1.5
		s-6.2,4.8-6.7,4.5c-0.5-0.4-1.6-1.3-2.2-1.1c-0.5,0.2-2.5,0.8-2.9,0.5c-0.4-0.4-1.1-0.9-1.5-0.6c-0.5,0.3-1.1,1-1.6,0.9
		c-1.1-0.2-2.2-0.4-3.3-0.5c-0.9,0-5,2.5-5.5,2.8l-2.8,1.9c0,0-0.7,1.6,0.4,1.1s1.7-0.6,2.6-0.9s3.8-1.6,4.5-1.8
		c1.6-0.3,3.2-0.7,4.7-1.2c0.5-0.4,0.5-0.6,0.9-0.6s3.5,0.9,3.6,1.5s1.5,6.6,2.5,7.1c0.8,0.5,1.5,1,2.2,1.6c0.4,0.4,0.8,1,0.9,1.6
		s0.2,1.2-0.3,1.6c-0.4,0.4-1.7,2.4-2.3,2.4c-1,0-1.9,0.2-2.8,0.6c-0.8,0.4-1.6,0.6-2.5,0.6c-0.6,0-2.3,0.2-2.7-0.3
		c-0.5-0.4-2.5-2-3-1.7s-1.8,1.3-2.5,1.7c-0.6,0.5-1.5,1.8-1.8,1.8c-0.7,0-1.4,0.1-2,0.4c-0.6,0.5-1,1-1.4,1.6
		c-0.1,0.4-0.2,2.2-0.6,2.3c-0.5,0.1-1.6,0.6-2.2,0.3c-0.5-0.3-1.1-1-1.4-0.7s-1.4,1.2-1.8,1.2s-2.6-0.2-2.6,0.2s0.2,1-0.5,1
		c-1.3-0.3-2.6-0.7-3.7-1.4c-0.8-0.5-5.2-3.6-6-4c-0.5-0.3-1.1-0.5-1.6-0.6c0,0-1-0.3-0.7,0.6c0.3,0.8,1.4,4.1,2.3,4.1
		c1.3,0.1,2.6,0.3,3.8,0.6c0.9,0.3,3,1.5,3.5,1.6c0.5,0.2,1,0.3,1.5,0.3c0.6,0,1.1-0.5,1.9,0c1.3,0.7,2.7,1.3,4.1,1.7
		c0.6,0,2.6-0.2,3,0.5c0.5,0.6,2.1,2.6,2.6,2.6c1,0.2,2,0.2,3-0.1c0.6-0.4,5.9-4.5,6.3-4.8c0.4-0.4,0.9-0.7,1.5-0.8
		c0.4,0,4.3,0.4,4.6,0.8c1.4,1.3,2.8,2.6,4.4,3.7c0.7,0.4,1.3,0.9,1.8,1.5c0.3,0.5,3,3.7,3.5,3.9s1.1-0.1,1.4,0.6s0.8,1.4,1.2,1.4h2
		c0.5,0,0.9-0.2,1.3,0c0.3,0.2,1.7,0.8,1.9,1.4s0,1.3,0.4,1.5c0.4,0.3,1.4,1,1.4,1.4s-0.2,1.5,0.1,1.8s0.7,0.6,0.7,0.8
		S434.3,248.6,434.6,248.8L434.6,248.8z"/>
	<path class="st1" d="M278.9,254.3c-0.2-0.1-1.1-0.7-0.9,0.1s0.8,2.7,1.2,2.5s0.6-0.2,1-0.9c0.4-0.7,1-1.6,0.4-1.6
		S278.9,254.3,278.9,254.3z"/>
	<path class="st0" d="M239,261.4c-0.2,0.5-0.8,0.9-0.2,1.1c0.7,0.2,1.4,0.4,2.2,0.5s3.6,0.4,4.2,0.4c0.6,0,1.5-0.7,2.1-1.3
		c0.7-0.7,1.3-1.6,1.7-2.5c0.4-0.6,0.9-2.3,2-2c1,0.3,2,0.5,3,0.6c0.6,0,5,0.3,5.5,0s0.5-0.7,1.3-0.7s2.4,0.1,3.1,0s3.2-1.2,3.6-1.2
		s4.5,0.6,5.1,0.7c1.3,0.6,2.5,1.3,3.5,2.2c0.4,0.4,0.8,1,1.5,0.9c0.6-0.1,3.3-1.2,3.6-0.5c0.3,0.6,2.5,5.5,2.3,6.1
		s-1.9,3.5-1.1,3.9s2.5,1.3,2.4,1.9c-0.2,1.6-0.3,3.2-0.4,4.8c0.6,2.3,1.5,4.5,2.6,6.6c0.5,0.5,0.8,0.5,0.9,1s0,1.6,0.6,1.9
		s2.6,0.5,2.6,1.2s-0.1,5.3-0.5,5.7c-0.4,0.5-3.2,1.3-3.7,1.5s-2.6,1.7-3.1,1.8c-0.5,0.1-1.1-0.1-1.5,0.3s-1.3,1.2-0.7,1.6
		s1.2,1.5,1.7,1.3c0.5-0.4,1-0.7,1.5-0.9c0.6-0.2,2.7-1.1,3.6-0.7s1.5,1.1,2.2,1.1s1.7,0.5,2.3,0.5c0.6,0,1.1,0.1,1.6,0.5
		c0.3,0.3,0.9,1,0.8,1.5s-0.4,0.7-0.4,1.3s0.4,4.8,0.6,5.5c0.4,0.9,0.5,1.9,0.6,2.8c-0.2,0.6-1,3.1-1.1,3.5c0,1-0.1,2.1-0.3,3.1
		c-0.3,0.5-1.6,2.3-1.8,2.6s-1,0.9-1.1,0.3s-0.3-3.1-0.3-3.6s-0.3-1.6,0.4-2.2c0.5-0.4,0.8-0.9,1-1.5c0-0.3-0.5-4.6-0.5-4.9
		c-0.3-0.6-0.8-1.2-1.3-1.7c-0.4-0.4-1.7-1.7-2.1-1.7c-0.5,0-0.9,0.4-1.1,0.8c-0.1,0.5-0.5,1,0,1.5s1.1,0.8,1,1.4s-1.3,2.1-0.8,2.7
		c0.4,0.6,1.4,1.4,1,2s-0.6,2.1-1.4,2.5c-0.7,0.5-2,1.5-1.3,1.7s2.7-0.4,3.2,0.1s0.9,2.5,1.1,3s0.5,1.5,0,1.7
		c-0.7,0.3-1.4,0.7-2,1.1l-3,2.4c-0.5,0.4-0.4,0.9-1.3,0.7c-1.5-0.5-3-1-4.4-1.7c-0.3-0.2-0.9-0.5-0.6-1s0-0.7-0.5-0.4
		s-2.4,2-2.4,2.5s0.4,1.8-0.1,2.5c-0.4,0.6-1.5,3.5-1.9,3.9c-0.3,0.3-0.6,0.6-0.9,0.9c-0.4,0.5-0.9,1.3-1.7,1.4
		c-0.8,0.1-1.8,0.3-1.8,0.3s-0.6,1.4-1.3,1c-0.9-0.7-1.8-1.5-2.5-2.4c-0.8-1-1.7-1.9-2.7-2.8c-0.4-0.1-1.9-0.6-1.7,0.2v-0.3
		c0,0-1.4-1.1-1.8-1.3s-0.7,0.6-1.2,1s-1-1.2-1.4-1.6s-1,1.8-1.2,2.2c-0.2,0.5-1,0.8-1.2,0.8s-1.4-1.5-1.7-1.7s-1,0.7-1.5,0.9
		c-1,0-1.9-0.1-2.8-0.4c-0.6-0.1-1.5,1.2-1.9,1.2s-0.5-0.8-0.6-1.4c-0.1-1.1-0.1-2.1-0.1-3.2c0.5-1.1,1.1-2.1,1.7-3.1
		c0.1-0.6,0.1-1.2,0-1.8c-0.3-0.6-0.7-1.2-1.2-1.7c-0.2-0.2-1.6,0.8-1.9,1c-0.3,0.2-2.2-2.9-2.5-3.3c-0.2-0.8-0.2-1.6-0.1-2.4
		c0-0.5-0.3-0.8-1-1s-0.1-1.2-0.1-1.6c0.2-0.7,0.6-1.5,1-2.1c-0.3-0.7-0.7-1.4-1.1-2c-0.3-0.3,0-0.7,0.1-1.2
		c0.1-0.6-1.2-1.5-1.6-1.8c-0.3-0.3-1.9-1.6-2.2-1.8c-0.3-0.3-0.8,0-1,0.2c-0.8,0.7-1.5,1.4-2.2,2.1c-0.7,0.6-1.5,1.1-2.2,1.6
		c-0.6,0.5-1.4-0.1-1.7-0.2s-1,1.8-1.2,2.4s1,1.8,1.2,2c0.1,0.9,0.1,1.8-0.1,2.7c-0.1,0.5-2.5,0.5-3.4,0.7s-1.4,3.1-1.6,3.4
		c-0.4,0.4-0.8,0.7-1.3,1c-0.4,0.2-0.3-1-0.4-1.9s-0.8,1.9-1.1,2.4s-0.8-0.1-1.1-0.4s-1.4-0.9-1.8-1.3c-0.4-0.4,0-0.5,0.1-0.8
		s-2.7,0.8-3.1,0.8c-1.4-0.8-2.8-1.7-4-2.8c-0.2-0.3-0.3-0.7-0.2-1.1c0.1-0.3-0.3-0.6-0.9-0.8c-0.6-0.2-2.9-1.7-3.3-1.8
		c-0.3-0.1-1.9-0.8-2.4-0.9s-1-0.8-1.5-1.1c-0.3-0.2-0.5-0.5-0.4-0.9c0-0.2,0.6-3.2,0.7-3.8c0-0.5-0.2-0.9-0.6-1.2
		c-0.3-0.3-0.8-0.3-1.5-0.5c-0.7-0.3-0.8-1.3-1-1.8c-0.6-0.9-1.2-1.8-1.9-2.6c-0.3-0.4-1.5-4.1-1.6-4.6s-1.4-2.7-1.5-3.2
		s1.9,0,2.3,0.1s0.9-0.7,1.2-0.9s1.7-0.7,2-0.8c0.3-0.1,0.8-0.8,1.1-1.2c0.4-0.3,0.8-0.5,1.3-0.5c1.6,0.6,3.2,1.1,4.9,1.6
		c0.8,0.1,2.2-1.9,2.6-2.2s3.2-0.7,3.8-0.8s0-1.6,0-1.9s-2.3-0.9-2.9-1.2c-0.6-0.2-1.2-0.3-1.8-0.3c-0.4-0.1-1.5-1.8-1.8-2.3
		s0.2-2,0.3-2.4s2.5-1.1,2.9-1.2s0.9,0.8,1.2,1.4c0.3,0.5,3.3-0.1,3.5-0.2c0.3-0.1,3.1-0.2,3.7-0.3s0.4,0.3,0.6,0.7s0.8-0.5,1-0.7
		s1.9-2.1,2.2-2.3s1.4-1,1.6-1.2c0.2-0.2,0.8-0.7,0.8-0.7c0.3-0.1,0.7-0.2,1-0.3c0.4-0.6,0.8-1.2,1-1.9c0.1-0.5,0.2-1.1,0.2-1.6
		c0-0.2,0.5-1.8,0.6-2.1c0.1-0.3,1.2-0.4,1.6-0.4s0.6-2.9,0.6-3.3s0.6-0.9,0.8-1.1c0.7-0.7,1.5-1.2,2.3-1.7c0.5-0.1,0.5,0.1,0.7,0.3
		s0.6,0.1,0.6,0.1l2.3-0.5L239,261.4z"/>
	<path class="st0" d="M370.7,405.5c-0.1,0.3-0.5,1.6-1,1.2c-0.5-0.3-1.9-2-2.4-2.2c-0.6-0.2-1.1-0.7-1.2-1.4
		c-0.1-0.6-0.3-1.3-0.5-1.8c-0.3-0.3-4.2-2.8-4.6-3.1s-0.9-0.8-1.3-0.7c-0.6,0.3-1.2,0.6-1.9,0.8c-0.5,0-1.8-0.5-2.2-0.1
		s-0.5,1.3-1.2,1.3c-0.6,0-5.3-0.3-5.7-0.3s-3.3,0.1-3.3-0.2s0.1-0.9-0.1-1.2c-0.2-0.3-0.8-1.5-1.2-1.5c-0.5,0-1.6,0.1-1.6-0.3
		c-0.1-0.4-0.4-1.2-0.8-1.2s-0.5-0.1-0.5,0.4s-0.3,1.4,0.3,2c0.6,0.6,1.4,1.1,1.4,1.6s0.3,1.2-0.1,1.4c-0.3,0.2-1.2,0.7-1.2,0.2
		s0.3-1-0.3-1.3c-0.6-0.3-1.2-0.5-1.8-0.7c-0.6,0-1.1,0-1.6,0.2c-0.4,0.1-3.3,1.3-3.8,1.5s-1.9,0.9-2.5,0.7
		c-0.6-0.2-1.2-0.8-1.7-0.7c-1.3,0.5-2.6,1.1-3.8,1.8c-0.6,0.9-1.3,1.7-2.1,2.5c-0.4,0.2-0.9,0.4-1.4,0.5c-0.3,0.1-1,0.2-1,0.7
		c0,0.6-0.1,1.2-0.3,1.7c-0.3,0.5-1.5,3.2-2,3.5s-1.8,1.2-2.3,1.4c-1,0.4-2,0.9-2.9,1.5c-0.1,0.3-0.6,1.9-1.1,1.9s-2.5-0.5-2.9-0.3
		c0,0-2.8,1.6-3.3,1.9s-3.4,1.9-3.6,2.2c-0.2,0.3,0,1.9-0.6,1.9s-0.6-0.1-1,0.2c-0.4,0.3-0.9,0.9-0.7,1.3s0.4,1.7,0.8,1.4
		c0.3-0.4,0.8-0.6,1.3-0.6s2.2,0.6,2.7,0.4s1.4-1.6,1.8-1.6s1.2,1,1.4,1.4c0.1,0.4,0.1,1.8,0.5,1.8s1.6,0.2,1.6-0.4s0.1-1.2,0.3-1.8
		c0.2-0.4,0.3-1.5,0.8-1.6s1-0.3,1.4-0.7c0.3-0.4,1.5-1.7,1.8-1.7s2.9,0.8,3.1,0.5c0.1-0.3,0.1-0.8,0.5-0.8c1.3,0.2,2.7,0.4,4,0.8
		c1.5,0.3,2.3,0.6,2.7,0.3c0.4-0.3,0.7-0.8,1.1-0.8s3.9-0.2,3.1,0.3s-3.3,1.4-3.6,1.7s-0.5,0.2-0.6,0.8s0.1,2.1-0.1,2.5
		c-0.4,0.7-0.9,1.4-1.2,2.1c0,0.6,0.2,1.2,0.6,1.6c0.7,1,1.3,2,1.7,3.1c0.1,0.5,0.2,1.3,0.6,1.1s3.3-0.7,2.9-0.2s-2.7,1.6-3,1.8
		c-0.3,0.3-2.2,2.5-2.6,2.9s-1.9,1.6-1.4,1.8c0.5,0.2,1.9,0.4,1.6,0.9c-0.3,0.4-0.5,0.8-0.6,1.3c-0.1,0.3-0.6,1.2-0.1,1.6
		c0.9,0.5,1.9,0.9,2.9,1.1c0.5,0,2.2,0.1,1.6,0.5c-0.5,0.3-3.6,1.4-3.8,1.7c-0.2,0.3-1.4,2.5-1.6,2.8s-1.2,3.5-1.4,3.9
		c-0.1,0.3-1,3.1-1.5,3.5s-2.3,1.6-2.8,2.2c-0.5,0.5-1,1.6-1.4,2s-3.5,1.3-4,1.6c-0.5,0.4-1,0.7-1.6,0.9c-0.3,0-2.2-0.5-2.5-0.2
		c-0.4,0.3-3.2,2.3-3.4,2.5c-0.2,0.2-0.6,1.1-1,1.3c-0.4,0.2-2.6,1.1-2.7,0.7s0.2-1.1-0.6-1c-0.5,0.2-1,0.2-1.4,0.1
		c-0.6-0.2-1.3-0.4-1.9-0.5c-0.4,0-1.4,0.3-1.4,0.6s0,1.1-0.3,1s-0.8-0.6-1-0.5s-1.3,0-1.5,0.3s-0.9,2.2-1.3,2.2l-2,0.5
		c0,0-1.1,0.1-1.1,0.5s0.3,1.4-0.1,1.4c-0.4,0.1-1.9,0.1-2-0.3s-0.7-1.1-0.8-0.9c-0.1,0.2-0.5,0.8-0.9,0.9s-2.8,0.6-2.5,0.1
		s0.8-0.8,0.3-1s-1-0.3-1.3-0.4s-0.8-0.8-1.2-0.6s-1.1,0.6-1.2,0.8s-0.3,2.7-0.8,2.7s-1.2,0.2-1.2,0.2s-0.8,1.2-1.1,1.1
		s-0.8-0.4-1.1-0.5c-0.3-0.1-0.7,0-1,0.1c-0.2,0.1-0.5,0.9-1.2,1c-0.8,0-1.6,0.1-2.4,0.3c-0.3,0.1-1.7,0.5-1.8,1
		c-0.1,0.5-0.6,2.5-0.1,2.4s1-0.8,1.6-0.8s2.2-0.3,2.5,0.3s0.3,0.8,0.8,1s2,0.4,2,0.8c0.1,1.3,0.2,2.5,0.1,3.8
		c-0.2,0.3-0.7,1.5-1.1,1.6s-2.9,0.3-3,0.6c-0.1,0.3-0.4,0.8-0.7,0.7c-0.3-0.1-0.3-0.3-0.8,0s-0.9,0.4-0.5,0.8s1.5,1.6,1.5,1.9
		s-0.3,1.3,0.1,1.4c0.5,0.1,1.2,0.3,1.2-0.2s0-1.2,0.6-1.4c0.6-0.2,1.2-0.1,1.5-0.5c0.3-0.5,1.1-1.6,1-0.7s-0.1,1.7,0.3,1.7
		c0.5,0,1.7-0.4,1.8-0.1c0.1,0.3,0.5,1,1.1,0.9s1.4-1.8,1.8-1.2c0.5,0.6,1.2,1.4,1,1.6s-1.2,0.1-1,0.5c0.2,0.3,0.4,0.6,0.3,1
		c0,0.5,0.1,1.2-0.4,0.9l-3-2.2c-0.2-0.2-0.5-0.3-0.8-0.1c-0.5,0.3-1,0-1.5-0.1s-0.5-0.2-0.9,0s-0.8,0.3-0.3,0.6
		c0.5,0.3,1.4,1.4,1.2,1.8c-0.2,0.6-0.4,1.3-0.3,1.9c0.1,0.3,1.2,1.5,1.6,1.5s1.4-0.1,1.8,0.1s1.4,1.6,1.8,1.2
		c0.4-0.3,1.6-2.1,2-2.3c0.4-0.2,0.5-0.4,1-0.3s1-0.2,1.3,0.2c0.3,0.4,0.4,0.9,0.8,0.9s1.8,0.5,1.8,0.1s0.3-1.1,0.8-1
		s1.2,0.5,1.5,0.1s1.9-1.9,1.6-2.2c-0.3-0.3-0.5-0.9-0.1-1.2c0.9-0.4,1.9-0.7,2.9-0.9c0,0,3.1,0.1,3.4,0.3c0.3,0.1,3.9,0.9,3.9,0.4
		s-0.5-1.5,0-1.6s2.5-0.6,2.6-0.2c0.1,0.6,0.3,1.2,0.5,1.7s1.5,2.3,1.1,2.4s-1.6,0.1-1,0.5c0.6,0.5,1,1.6,1.5,1.9s0.8,1.2,1.4,1.2
		s1.2-0.3,1.7-0.1s2.2,0.8,2.6,1s1.8,0.3,1.9,0s-0.1-1.2,0.5-1.2c0.5,0,1.4,0.3,1.2,0.5c-0.2,0.3-0.8,0.5-0.6,1.1s0.3,1.2,0,1.2
		c-0.4-0.1-0.8-0.2-1.2-0.3c-0.5,0-5.6,0.3-6.1,0.5s-2.9,0.8-2.7,1.3c0.2,0.5,0.5,1.1,0.2,1.6s-0.5,1-0.2,1.3
		c0.6,0.6,1.3,1.1,2.2,1.3c0.8,0.1,2.7,0.5,3.1,0.2c0.5-0.3,1.8-1.8,2-1.3s-0.1,1,0.5,1.1c1,0.1,2.1,0.1,3.1,0
		c0.4-0.2,0.7-0.1,0.8-0.8c0.1-0.7,0-1.2,0.5-1.3c0.7,0,1.3-0.2,1.9-0.5c0.4-0.3,0.9-1.4,1-0.8s-0.3,1.5,0.1,1.4
		c1-0.3,2-0.8,2.8-1.5c0.2-0.3,0.7-0.4,0.7,0.3s-0.5,1.8-0.1,2.2s1.3,1.3,1.1,1.5c-0.2,0.2-0.8,0.2-0.6,0.7s1.9,2.6,1.8,3
		s-0.8,1.8-0.4,1.8s0.8,0.3,1,0.6s0.3,1.3,0.8,1.3c0.3,0,0.7,0,1-0.1s1.8,0.2,1.8,0.5s0.1,2.6,0.5,3c0.5,0.4,2.2,2.3,2.7,2.5
		s2.7,1.8,3.1,1.5s1.2-1.3,1.7-0.9s0.8,1.1,1.4,1.2s3.5,1,4,0.8c0.4-0.2,0.5-0.7,1-0.7c0.4,0,3.1,0.3,3.1-0.1c0-0.9-0.1-1.8-0.3-2.7
		c-0.3-0.1-0.6-0.4-0.8-0.7c-0.1-0.3-0.1-0.8,0.3-0.8c0.5-0.1,1.9,0.1,2.2-0.4s0.4-1.2,0.8-1.2s0.8,0.8,1.4,0.5s4.3-2.2,4.9-2.2
		s5.2,0.1,5.7,0.2c0.5,0.1,0.6,0,1.1-0.3s0.7-0.5,1.2-0.5s1.9,0.3,2.5,0.1c0.8-0.7,1.6-1.4,2.2-2.1c0.4-0.3,0.8-1.1,1-0.8l0,0
		c0-0.3-0.1-0.5-0.1-0.8c0-0.2-0.4-0.1-0.6-0.4s0.4-0.7,0.6-0.9s-0.4-0.3-0.6-0.4s0.6-0.8,0.7-1c0-0.3,0-0.6,0-0.9
		c0-0.2,0.2-0.2,0.4-0.4s-0.2-0.5-0.4-0.7c-0.2-0.2-0.1-0.9-0.1-1.1s0.9-0.9,1.1-1.1s0.1-2.3,0.1-2.7s1.2-1.9,1.2-1.9
		c-0.5-0.2-0.9-0.5-1.3-0.8c-0.2-0.3-0.4-0.6-0.5-1l-1.4,0.5c0,0-2.5-4.3-2.9-4.8s-2.7-1.1-3.2-1.2c-0.5-0.2-0.9-0.5-1.3-0.8
		l-3.9-4.4c0,0,0-3.3,0-3.7s-0.9-1.4-1.1-1.7c-0.2-0.3-0.3-0.7-0.2-1c0.1-0.3,1-2,1.2-2.4s-1.2-1.4-1.2-1.4s3.9-5.5,4-5.7
		s1.2-1.4,1.5-1.8s1.5,0.5,1.9,0.6s-1-2-1.1-2.1c0.2-0.8,0.4-1.6,0.8-2.4c0.5-0.4,1.1-0.7,1.6-0.9c0.6-0.2-0.1-0.5-0.1-0.5
		s-2.3-0.3-2.8-0.4s-1.5-1.3-1.5-1.3l-4.3-6.3c0,0,3.4-2,3.6-2s5-1.5,5.5-1.7s0.6-0.9,0.7-1.1c0.1-0.5-0.2-1.1-0.7-1.2
		c-0.1,0-0.2,0-0.3,0l-4.5,1.7c0.2-0.5,0.4-1,0.6-1.5c0.2-0.2-0.5-1.9-0.6-2.2c-0.1-0.3,3-2.4,3.5-2.6c0.5-0.3,0-0.6-0.2-0.7
		s1.5-1,1.7-1.2c0.5-1.2,1-2.5,1.4-3.8c0.1-0.3,1-0.1,1.5-0.2c0.5,0-0.6-0.8-1-1.2c-0.4-0.5-2-3.3-2.3-3.5s-1.1,0.3-1.5,0.4
		c-0.4,0-1.1-1.2-1.1-1.2s0.3-1,0.5-1.6s0.6-3.6,0.7-4s1-0.5,1.3-0.6c0.4-0.4,0.8-0.7,1.1-1.1c0.2-0.1,0.5-0.2,0.8-0.2
		c0.2,0,1.8-0.3,2.2-0.5s0.4-0.4,0.5-0.6s0.9-0.6,1.4-0.7s0.4,0.7,0.4,0.7s3.5,1.7,3.8,1.8c0.6,0.8,1.1,1.7,1.5,2.6
		c0.1,0.1,0.5,0.5,0.8,0.3s2.4-1,2.6-1s0-1.2,0-1.5s0.5-0.6,0.6-0.9c0.1-0.4,0.1-0.8,0-1.3c0-0.4-0.6-0.6-0.7-0.6s-2.5-1.6-2.9-1.8
		s-0.6-1.6-0.7-1.9c0-0.2-0.1-1.3-0.1-1.5c-0.4-0.8-0.8-1.6-1.2-2.3c-0.1-0.3,0.3-0.5,0.6-0.7c0.2-0.3-2.3-1.8-2.5-2.1
		c-0.2-0.5-0.4-1-0.5-1.6c0-0.2,1.3-0.1,1.7-0.1c0.4,0,1.1-1,1.2-1.1s-0.1-0.5-0.4-0.8c-0.3-0.2,0.2-0.4,0.4-0.5
		c0.2-0.1,0-0.3-0.3-0.5s-0.5,0.3-0.5,0.3l-3-3.6l-1.2-0.1L370.7,405.5z"/>
	<path class="st0" d="M322.2,386.2c-0.5-0.4-0.6-0.7-1.2-0.5c-0.6,0.3-1.3,0.5-1.9,0.6c-0.6,0-3.1-0.1-3.4-0.1s-0.6-0.1-0.8,0.2
		s-0.7,0.7-0.2,0.9c0.5,0.2,1.1,0.3,0.8,0.5s-1.6,2.2-1.4,2.5c0.2,0.4,1.4,2.2,1.2,2.3c-0.3,0.1-1.6,0.5-1.6,0.8s-0.1,1.4,0.3,1.8
		s1.7,1.4,1.7,1.8s0.1,1.7-0.2,2s-0.8,0.8-0.6,1.2s0.8,1.2,1.2,1.2s1-0.1,1.2,0.3c0.3,0.8,0.7,1.6,1.2,2.2c0.6,0.5,1.3,0.9,2.1,1
		c0.8-0.2,1.6-0.6,2.2-1.1c0.6-0.4,2.4-1.9,2.9-2.2c0.6-0.5,1.3-0.9,2-1.2c0.4,0,0.8-0.2,1.1-0.5c0.3-0.4,0.3-0.9,0.8-0.9
		s1.4,0.1,1.8-0.3s3.1-2.5,2.5-3.1c-1-0.8-2.3-1.2-3.6-1.3c-0.5,0.4-1,0.6-1.6,0.8c-0.5,0.1-1.2,0.4-1.2-0.3c0.1-0.8,0.1-1.5,0-2.3
		c-0.1-0.6-0.3-0.5-0.8-0.9c-0.5-0.3-1.9-0.5-1.6-1s1.2-2.7,0.8-2.9c-0.5-0.1-1.6-0.3-2-0.5C323.3,386.8,322.7,386.5,322.2,386.2z"
		/>
	<path class="st2" d="M266.8,477.9c-0.3,0-0.6,0.1-0.4,0.5s0.6,0.7,0.8,0.3C267.3,478.4,266.8,477.9,266.8,477.9z"/>
	<path class="st2" d="M267.7,486.2c-0.3-0.1-0.8,0-0.9,0.3s-0.1,0.6,0.3,0.6C267.7,487.1,268.1,486.3,267.7,486.2z"/>
	<path class="st2" d="M290,497c-0.3,0.1-0.8,0.2-0.8,0.5s0.5,0.5,0.8,0.4s0.8-0.8,0.5-0.9C290.4,497,290.2,497,290,497z"/>
	<path class="st2" d="M311.1,390.8c-0.3-0.2-0.8-0.1-0.9,0.3c0,0,0,0.1-0.1,0.1c-0.2,0.5-1.2,2-0.6,2s1.4,0,1.6,0.4
		c0.2,0.6,0.5,1.2,0.8,1.7c0.3,0.3,0.7,0.5,0.7,0.1c0-0.8,0.1-1.7,0.3-2.5c0.3-0.3,0.4-0.8,0.3-1.2c-0.1-0.4-0.3-0.5-0.6-0.3
		c-0.3,0.3-0.5,1.2-0.8,0.5C311.7,391.5,311.4,391.1,311.1,390.8z"/>
	<path class="st3" d="M344.4,211.6c-0.2-0.2-0.8-0.5-0.8,0s0.3,2.6,0.4,3.1s0.6,3.3,0.7,3.6s0.1,2,0.4,1.9s0.6-0.6,0.8-0.9
		c0.2-0.3,0.5-0.5,0.8-0.6c0.4-0.2,1.1-0.8,0.8-1s-1-0.8-1-0.8s-0.4-1.1-0.8-1.2c-0.5-0.2-0.8-0.6-0.8-1.1
		C344.8,213.5,344.7,212.5,344.4,211.6z"/>
	<path class="st4" d="M238.9,261.5l-2.3,0.5c0,0-0.5,0.1-0.6-0.1s-0.2-0.4-0.7-0.3c-0.8,0.5-1.6,1.1-2.3,1.7
		c-0.2,0.2-0.8,0.7-0.8,1.1s-0.2,3.3-0.6,3.3c-0.4,0-1.6,0.1-1.6,0.4c-0.1,0.3-0.5,1.9-0.5,2.1c0,0.6-0.1,1.1-0.2,1.6
		c-0.2,0.7-0.6,1.3-1,1.9c-0.3,0.1-0.7,0.2-1,0.3c0,0-0.6,0.5-0.8,0.7c-0.2,0.1-1.2,1-1.6,1.2c-0.3,0.2-2,2.1-2.2,2.3s-0.9,1-1,0.7
		s0-0.8-0.5-0.7c-0.6,0.1-3.4,0.2-3.7,0.3s-3.2,0.8-3.6,0.2s-0.8-1.4-1.2-1.4c-0.4,0.1-2.9,0.8-2.9,1.2c-0.1,0.4-0.6,1.8-0.3,2.4
		s1.4,2.2,1.8,2.3c0.6,0,1.2,0.1,1.8,0.3c0.5,0.3,2.9,0.9,2.9,1.2s0.6,1.8,0,1.9s-3.5,0.5-3.8,0.8s-1.8,2.3-2.6,2.2
		c-1.7-0.4-3.3-0.9-4.9-1.6c-0.5,0-0.9,0.2-1.3,0.5c-0.3,0.4-0.8,1.1-1.1,1.2s-1.7,0.6-2,0.8c-0.3,0.2-0.8,1-1.2,0.9
		s-2.4-0.6-2.4-0.2c0.1,0.5,1.3,2.7,1.4,3.2s1.4,4.2,1.6,4.6c0.7,0.8,1.4,1.7,1.9,2.6c0.1,0.5,0.3,1.6,1,1.8
		c0.7,0.3,1.2,0.2,1.5,0.5c0.4,0.3,0.6,0.7,0.6,1.2c-0.1,0.5-0.7,3.5-0.7,3.8c-0.1,0.4,0.1,0.7,0.4,0.9c0.5,0.3,1,1,1.5,1.1
		s2,0.8,2.4,0.9s2.7,1.6,3.3,1.8c0.5,0.2,1,0.5,0.9,0.8c-0.1,0.4,0,0.8,0.2,1.1c1.2,1.1,2.6,2,4,2.8c0.3-0.1,3.2-1.2,3.1-0.8
		c-0.1,0.3-0.5,0.4-0.1,0.8s1.4,1,1.8,1.3s0.8,0.9,1.1,0.4s1-3.3,1.1-2.4s0,2.1,0.4,1.9c0.5-0.3,0.9-0.6,1.3-1
		c0.3-0.3,0.8-3.3,1.6-3.4s3.3-0.2,3.4-0.7c0.2-0.9,0.2-1.8,0.1-2.7c-0.2-0.3-1.4-1.4-1.2-2s0.9-2.5,1.2-2.4s1.2,0.7,1.7,0.2
		c0.8-0.5,1.5-1,2.2-1.6c0.7-0.8,1.4-1.5,2.2-2.2c0.3-0.2,0.7-0.5,1-0.2s1.9,1.5,2.2,1.8s1.6,1.3,1.6,1.8c-0.1,0.5-0.3,1-0.1,1.2
		c0.4,0.6,0.8,1.3,1.1,2c-0.4,0.7-0.8,1.4-1,2.1c0,0.5-0.6,1.4,0.1,1.6c0.7,0.3,1,0.5,1,1c-0.1,0.8,0,1.6,0.1,2.4
		c0.3,0.5,2.1,3.5,2.5,3.3s1.7-1.2,1.9-1c0.4,0.5,0.8,1.1,1.2,1.7c0.1,0.6,0.1,1.2,0,1.8c-0.6,1-1.2,2-1.7,3.1
		c-0.1,1.1,0,2.2,0.1,3.2c0.1,0.5,0.2,1.4,0.6,1.4s1.4-1.4,1.9-1.2c0.9,0.3,1.8,0.4,2.8,0.4c0.5-0.2,1.2-1.1,1.5-0.9
		s1.5,1.8,1.7,1.7c0.2-0.1,1-0.3,1.2-0.8s0.8-2.6,1.2-2.2s0.8,1.9,1.4,1.6c0.5-0.3,0.9-1.2,1.2-1c0.3,0.2,1.8,1.3,1.8,1.3"/>
	<path class="st4" d="M434.6,247.8l-1.1,1.4c0,0-0.6,0.9-0.9,1.2c-0.6,0.5-1.1,1-1.8,1.5c-0.2,0.1-3.5,3.1-3.7,3.3
		c-0.2,0.3-1.2,1.9-1.2,1.9c-0.6-0.2-1.2-0.4-1.8-0.5c-0.7,0.2-1.3,0.4-2,0.6l4.5,11.3c0,0-6.9,3.8-6.9,4s0.1,1.5-0.3,1.5
		c-0.5,0-4.8-0.2-5,0.2c-0.6,0.8-1.3,1.6-2.1,2.2c-0.7,0.3-1.4,0.7-2,1.2c-0.3,0.3-4.7,5.4-4.9,5.6c-0.8,0.6-1.7,1.1-2.7,1.6
		c-0.5,0.2-4.5,2.5-4.7,2.6s-2.5,1.7-2.8,1.8s-4.6,0.8-4.6,0.8l-1.4,3.9"/>
	<path class="st4" d="M370.5,405.7l1.2,0.1l3,3.6c0,0,0.2-0.5,0.5-0.3s0.5,0.4,0.3,0.5s-0.7,0.3-0.4,0.5s0.5,0.6,0.4,0.8
		c-0.1,0.1-0.8,1.1-1.2,1.1c-0.4,0-1.8-0.1-1.7,0.1c0.1,0.5,0.2,1.1,0.5,1.6c0.2,0.3,2.7,1.8,2.5,2.1c-0.2,0.3-0.7,0.4-0.5,0.7
		c0.5,0.7,0.9,1.5,1.2,2.3c0,0.3,0.1,1.3,0.1,1.5s0.3,1.7,0.7,1.9s2.7,1.8,2.9,1.8s0.7,0.3,0.7,0.6c0.1,0.4,0.1,0.8,0,1.3
		c-0.1,0.3-0.6,0.7-0.6,0.9s0.2,1.4,0,1.5s-2.3,0.8-2.6,1s-0.7-0.1-0.8-0.3c-0.5-0.9-1-1.8-1.6-2.6c-0.2-0.1-3.8-1.8-3.8-1.8
		s0.1-0.8-0.4-0.7c-0.5,0.1-1.3,0.4-1.4,0.7s-0.1,0.5-0.4,0.6c-0.4,0.1-2,0.4-2.2,0.5c-0.3,0-0.5,0.1-0.8,0.2
		c-0.3,0.4-0.7,0.8-1.1,1.1c-0.3,0.1-1.2,0.3-1.3,0.6c-0.1,0.3-0.6,3.4-0.7,4s-0.4,1.6-0.4,1.6s0.7,1.3,1.1,1.2
		c0.4,0,1.2-0.6,1.5-0.4s1.9,3.1,2.3,3.5s1.5,1.2,1,1.2c-0.5,0.1-1.4-0.1-1.5,0.2c-0.4,1.3-0.8,2.6-1.4,3.8
		c-0.2,0.1-1.9,1.1-1.7,1.2c0.2,0.1,0.7,0.4,0.2,0.7c-0.5,0.3-3.6,2.3-3.5,2.6c0.1,0.3,0.8,2,0.6,2.2c-0.3,0.5-0.5,1-0.6,1.5
		l4.5-1.7c0.6,0,1,0.4,1,1c0,0.1,0,0.2,0,0.3c-0.1,0.3-0.2,0.9-0.7,1.1c-0.6,0.2-5.3,1.6-5.5,1.7s-3.6,2-3.6,2l4.3,6.3
		c0,0,1,1.2,1.5,1.3s2.8,0.4,2.8,0.4s0.7,0.2,0.1,0.5c-0.6,0.2-1.1,0.5-1.6,0.9c-0.4,0.8-0.7,1.6-0.8,2.4c0.1,0.1,1.6,2.2,1.1,2.1
		s-1.6-1-1.9-0.6s-1.4,1.6-1.5,1.8s-4,5.7-4,5.7s1.4,1,1.2,1.4c-0.2,0.4-1.1,2.1-1.2,2.4s-0.1,0.7,0.2,1c0.3,0.3,1.1,1.3,1.1,1.7
		s0,3.7,0,3.7l3.9,4.4c0.4,0.3,0.8,0.6,1.3,0.8c0.6,0.1,2.8,0.7,3.2,1.2c0.4,0.5,2.9,4.8,2.9,4.8l1.4-0.5c0.1,0.4,0.2,0.7,0.5,1
		c0.4,0.3,0.9,0.5,1.3,0.8c0,0-1.2,1.5-1.2,1.9s0.1,2.5-0.1,2.7s-1.1,0.8-1.1,1.1s-0.1,1,0.1,1.1s0.6,0.5,0.4,0.7s-0.4,0.2-0.4,0.4
		c0,0.3,0,0.6,0,0.9c-0.1,0.1-1,0.8-0.7,1s0.9,0.2,0.6,0.4c-0.3,0.2-0.8,0.6-0.6,0.9c0.2,0.3,0.6,0.2,0.6,0.4c0,0.3,0,0.5,0.1,0.8"
		/>
</g>
</svg>
