<?xml version="1.0" encoding="utf-8"?>
<!-- Generator: Adobe Illustrator 21.1.0, SVG Export Plug-In . SVG Version: 6.00 Build 0)  -->
<svg version="1.1" id="Layer_1" xmlns="http://www.w3.org/2000/svg" xmlns:xlink="http://www.w3.org/1999/xlink" x="0px" y="0px"
	 viewBox="0 0 17 17" style="enable-background:new 0 0 17 17;" xml:space="preserve">
<style type="text/css">
	.st0{fill:#206095;}
</style>
<path class="st0" d="M17,8h-2.4C14.4,5,12,2.6,9,2.4V0H8v2.4C5,2.6,2.6,5,2.4,8H0v1h2.4C2.6,12,5,14.4,8,14.7V17h1v-2.4
	c3-0.2,5.4-2.6,5.7-5.7H17V8z M8.5,13.7c-2.9,0-5.2-2.3-5.2-5.2c0-2.9,2.3-5.2,5.2-5.2c2.9,0,5.2,2.3,5.2,5.2
	C13.7,11.4,11.4,13.7,8.5,13.7z M11.9,8.5c0,1.9-1.5,3.4-3.4,3.4c-1.9,0-3.4-1.5-3.4-3.4c0-1.9,1.5-3.4,3.4-3.4
	C10.4,5.1,11.9,6.7,11.9,8.5z"/>
</svg>
