<?xml version="1.0" encoding="utf-8"?>
<!-- Generator: Adobe Illustrator 21.1.0, SVG Export Plug-In . SVG Version: 6.00 Build 0)  -->
<svg version="1.1"
	 id="svg2116" inkscape:version="0.48.2 r9819" sodipodi:docname="British_Islands.svg" xmlns:cc="http://creativecommons.org/ns#" xmlns:dc="http://purl.org/dc/elements/1.1/" xmlns:inkscape="http://www.inkscape.org/namespaces/inkscape" xmlns:rdf="http://www.w3.org/1999/02/22-rdf-syntax-ns#" xmlns:sodipodi="http://sodipodi.sourceforge.net/DTD/sodipodi-0.dtd" xmlns:svg="http://www.w3.org/2000/svg"
	 xmlns="http://www.w3.org/2000/svg" xmlns:xlink="http://www.w3.org/1999/xlink" x="0px" y="0px" viewBox="0 0 624 430"
	 style="enable-background:new 0 0 624 430;" xml:space="preserve">
<style type="text/css">
	.st0{fill:#FF00FF;stroke:#000000;stroke-width:0.75;stroke-miterlimit:1;}
</style>
<g id="KuVVJ5.tif">
	
		<image style="overflow:visible;" width="936" height="438" id="Layer_0" xlink:href="617CE0286661D8F0.png"  transform="matrix(0.981 0 0 0.981 -120.2459 -0.699)">
	</image>
</g>
<path id="seat-653" class="st0" d="M-391,357.3L-391,357.3l1-1.9l2.7,1.8l3.3-0.8l1.2-1.7l1.2,0.2l0.6-0.4l-1.3-1.9l-0.4-2.5
	l1.3-0.7l3.1,0.2l-0.3-0.7l0.6-1.3l-1.5-0.6l0.4-0.7l-0.6-0.2v-1.6l1.4-0.7l-0.9-1l-2-1.2l-0.7-1l-1.2-0.1l-0.7,1l0.4,1.3l1.3,0.5
	l0.3,1.7l-2.5-1.2l-1,1.2l-1.5-0.2l-0.3,0.7l-0.9,0l-0.1,1.9l-3-0.4l-0.1,0.8l1.1,1.1l-0.3,0.9l-1.8-0.8l-1.5-1.9l-1,0.9v0.9
	l0.8,0.3l-0.3,1.4l1.8,0.6l-1.6,1.6l0.2,1.5l2.5,1.6L-391,357.3z"/>
</svg>
