<?xml version="1.0" encoding="utf-8"?>
<!-- Generator: Adobe Illustrator 21.0.2, SVG Export Plug-In . SVG Version: 6.00 Build 0)  -->
<svg version="1.1" id="Layer_1" xmlns="http://www.w3.org/2000/svg" xmlns:xlink="http://www.w3.org/1999/xlink" x="0px" y="0px"
	 viewBox="0 0 397.9 88.5" style="enable-background:new 0 0 397.9 88.5;" xml:space="preserve">
<style type="text/css">
	.st0{fill:#003C57;}
	.st1{fill:#FFFFFF;}
</style>
<rect class="st0" width="397.9" height="88.5"/>
<g>
	<path class="st1" d="M75.3,54.6c-5,0-7.2-4.2-7.2-9.3c0-5,2.2-9.3,7.2-9.3s7.2,4.2,7.2,9.3S80.3,54.6,75.3,54.6z M75.3,37.6
		c-3.7,0-5,4-5,7.7c0,3.7,1.2,7.7,5,7.7c3.8,0,4.9-4,4.9-7.7C80.3,41.6,78.9,37.6,75.3,37.6z"/>
	<path class="st1" d="M88.7,41.6v12.7h-2V41.6h-2v-1.3h2v-2c0-2.6,1.5-4.3,4.4-4.3c0.3,0,0.5,0,0.5,0v1.3h-0.3
		c-1.4,0-2.6,0.9-2.6,2.8v2.2h2.9v1.3H88.7L88.7,41.6z"/>
	<path class="st1" d="M97,41.6v12.7h-2V41.6h-2v-1.3h2v-2c0-2.6,1.5-4.3,4.4-4.3c0.3,0,0.5,0,0.5,0v1.3h-0.3c-1.4,0-2.6,0.9-2.6,2.8
		v2.2h2.9v1.3H97L97,41.6z"/>
	<path class="st1" d="M103.2,37.7c-0.7,0-1.3-0.5-1.3-1.3s0.6-1.3,1.3-1.3c0.7,0,1.3,0.6,1.3,1.3S104,37.7,103.2,37.7z M102.2,54.3
		V40.4h2v13.9H102.2z"/>
	<path class="st1" d="M113,54.6c-3.3,0-5.9-2.8-5.9-7.3c0-4.6,2.6-7.3,6-7.3c1.7,0,2.8,0.4,3.4,0.9l-0.5,1.3
		c-0.4-0.3-1.3-0.8-2.5-0.8c-2.8,0-4.3,2.5-4.3,5.8c0,3.4,1.7,5.9,4.3,5.9c1,0,1.9-0.3,2.5-0.8l0.5,1.4
		C115.9,54.2,114.7,54.6,113,54.6z"/>
	<path class="st1" d="M119.8,48.2c0.3,3.3,2,4.9,4.9,4.9c1.7,0,3.1-0.4,3.7-0.9l0.6,1.4c-0.9,0.5-2.6,0.9-4.5,0.9
		c-3.9,0-6.7-2.3-6.7-7.3c0-4.8,2.6-7.2,6-7.2c3.6,0,5.7,2.2,5.7,6.8L119.8,48.2z M123.8,41.4c-2.3,0-4.2,1.8-4.2,5.7l7.9-1.1
		C127.6,42.7,126,41.4,123.8,41.4z"/>
	<path class="st1" d="M139.4,41.6v12.7h-2V41.6h-2v-1.3h2v-2c0-2.6,1.5-4.3,4.4-4.3c0.2,0,0.5,0,0.5,0v1.3H142
		c-1.4,0-2.6,0.9-2.6,2.8v2.2h2.9v1.3H139.4L139.4,41.6z"/>
	<path class="st1" d="M149.7,54.6c-4.1,0-6-3.1-6-7.3c0-4.1,1.9-7.3,6-7.3c4.1,0,6,3.2,6,7.3C155.7,51.5,153.8,54.6,149.7,54.6z
		 M149.7,41.4c-3.1,0-3.9,3.1-3.9,6c0,2.9,0.9,5.8,3.9,5.8c3.1,0,3.9-3,3.9-5.8S152.8,41.4,149.7,41.4z"/>
	<path class="st1" d="M164.5,41.6c-1.3-0.3-3.1-0.3-4.1,0.3v12.4h-2V41c1.4-0.6,3-0.9,5.5-0.9c0.3,0,0.9,0,1,0L164.5,41.6z"/>
	<path class="st1" d="M182.8,54.5l-7.9-12.2c-0.6-0.9-1-1.8-1-1.8h-0.1c0,0,0.1,1,0.1,2.1v11.9h-2.6V36.7h2.9l7.5,11.5
		c0.7,1,1,1.9,1,1.9h0.1c0,0-0.1-1-0.1-2V36.7h2.6v17.8H182.8z"/>
	<path class="st1" d="M193.9,54.8c-4.1,0-6-1.6-6-4.3c0-3.7,3.9-4.8,8.6-5.2v-0.8c0-2-1.3-2.5-3.2-2.5c-1.4,0-2.9,0.4-3.7,0.8
		l-0.7-1.7c0.9-0.4,2.8-1,5-1c3.1,0,5.4,1.3,5.4,4.8v8.9C198.1,54.4,196.2,54.8,193.9,54.8z M196.5,46.7c-3.5,0.3-5.8,1-5.8,3.7
		c0,1.9,1.4,2.7,3.4,2.7c0.9,0,1.8-0.2,2.3-0.4L196.5,46.7L196.5,46.7z"/>
	<path class="st1" d="M207.4,54.7c-2.9,0-4.1-1.9-4.1-3.7v-8.7h-2v-1.8h2v-3.1l3-0.9v4h2.7v1.8h-2.7v8.5c0,1.1,0.7,2,1.9,2
		c0.3,0,0.5-0.1,0.9-0.2v1.9C208.7,54.6,208.1,54.7,207.4,54.7z"/>
	<path class="st1" d="M212.8,38.2c-0.9,0-1.7-0.7-1.7-1.5c0-0.9,0.8-1.5,1.7-1.5s1.7,0.7,1.7,1.5C214.6,37.4,213.7,38.2,212.8,38.2z
		 M211.4,54.5v-14h3v13.9L211.4,54.5L211.4,54.5z"/>
	<path class="st1" d="M223.3,54.8c-4.3,0-6.4-3.1-6.4-7.3s2.1-7.3,6.4-7.3s6.4,3.1,6.4,7.3S227.5,54.8,223.3,54.8z M223.3,42.1
		c-2.6,0-3.3,2.7-3.3,5.4c0,2.7,0.9,5.3,3.3,5.3c2.6,0,3.3-2.6,3.3-5.3C226.6,44.8,225.8,42.1,223.3,42.1z"/>
	<path class="st1" d="M240.7,54.5v-9.9c0-1.8-1.5-2.5-3.2-2.5c-0.9,0-1.9,0.2-2.4,0.4v12h-3V41.1c1.3-0.6,3.3-1,5.5-1
		c3.7,0,6,1.3,6,4.3v10L240.7,54.5L240.7,54.5z"/>
	<path class="st1" d="M252.1,54.8c-4.1,0-6-1.6-6-4.3c0-3.7,3.9-4.8,8.6-5.2v-0.8c0-2-1.3-2.5-3.2-2.5c-1.4,0-2.9,0.4-3.7,0.8
		l-0.7-1.7c0.9-0.4,2.8-1,5-1c3.1,0,5.4,1.3,5.4,4.8v8.9C256.2,54.4,254.4,54.8,252.1,54.8z M254.6,46.7c-3.5,0.3-5.8,1-5.8,3.7
		c0,1.9,1.4,2.7,3.4,2.7c0.9,0,1.8-0.2,2.3-0.4L254.6,46.7L254.6,46.7z"/>
	<path class="st1" d="M260.5,54.5v-6.7V34.2h3v6.9v13.4H260.5z"/>
	<path class="st1" d="M275.3,54.8c-2.1,0-3.9-0.5-4.8-1l0.9-2.2c0.7,0.4,2,0.9,3.4,0.9c2,0,3.6-1.2,3.6-3c0-3.9-7.4-2.4-7.4-7.9
		c0-2.8,2.3-5.3,5.9-5.3c2,0,3.5,0.5,4.3,1l-0.8,2c-0.7-0.4-1.9-0.9-3.1-0.9c-2,0-3.1,1.2-3.1,2.8c0,3.8,7.6,2.2,7.6,8.1
		C281.5,52.4,278.9,54.8,275.3,54.8z"/>
	<path class="st1" d="M289.1,54.7c-2.9,0-4.1-1.9-4.1-3.7v-8.7h-2v-1.8h2v-3.1l3-0.9v4h2.7v1.8H288v8.5c0,1.1,0.7,2,1.9,2
		c0.3,0,0.5-0.1,0.9-0.2v1.9C290.4,54.6,289.8,54.7,289.1,54.7z"/>
	<path class="st1" d="M298.3,54.8c-4.1,0-6-1.6-6-4.3c0-3.7,3.9-4.8,8.6-5.2v-0.8c0-2-1.3-2.5-3.2-2.5c-1.4,0-2.9,0.4-3.7,0.8
		l-0.7-1.7c0.9-0.4,2.8-1,5-1c3.1,0,5.4,1.3,5.4,4.8v8.9C302.5,54.4,300.6,54.8,298.3,54.8z M300.9,46.7c-3.5,0.3-5.8,1-5.8,3.7
		c0,1.9,1.4,2.7,3.4,2.7c0.9,0,1.8-0.2,2.3-0.4L300.9,46.7L300.9,46.7z"/>
	<path class="st1" d="M311.8,54.7c-2.9,0-4.1-1.9-4.1-3.7v-8.7h-2v-1.8h2v-3.1l3-0.9v4h2.7v1.8h-2.7v8.5c0,1.1,0.7,2,1.9,2
		c0.3,0,0.5-0.1,0.9-0.2v1.9C313.1,54.6,312.5,54.7,311.8,54.7z"/>
	<path class="st1" d="M317.3,38.2c-0.9,0-1.7-0.7-1.7-1.5c0-0.9,0.8-1.5,1.7-1.5c0.9,0,1.7,0.7,1.7,1.5
		C319,37.4,318.2,38.2,317.3,38.2z M315.7,54.5v-14h3v13.9L315.7,54.5L315.7,54.5z"/>
	<path class="st1" d="M325.3,54.8c-1.7,0-3.4-0.5-4.3-1l0.8-2c0.6,0.4,1.8,0.9,3.1,0.9c1.5,0,2.7-1,2.7-2.2c0-3.3-6.1-1.8-6.1-6.3
		c0-2,1.9-4.1,4.8-4.1c1.7,0,3,0.4,3.9,1l-0.8,1.7c-0.4-0.3-1.4-0.8-2.6-0.8c-1.5,0-2.5,0.9-2.5,2c0,3.1,6.2,1.7,6.2,6.4
		C330.7,52.7,328.6,54.8,325.3,54.8z"/>
	<path class="st1" d="M338.3,54.7c-2.9,0-4.1-1.9-4.1-3.7v-8.7h-2v-1.8h2v-3.1l3-0.9v4h2.7v1.8h-2.7v8.5c0,1.1,0.7,2,1.9,2
		c0.3,0,0.5-0.1,0.9-0.2v1.9C339.6,54.6,339,54.7,338.3,54.7z"/>
	<path class="st1" d="M343.7,38.2c-0.9,0-1.7-0.7-1.7-1.5c0-0.9,0.8-1.5,1.7-1.5c0.9,0,1.7,0.7,1.7,1.5
		C345.5,37.4,344.7,38.2,343.7,38.2z M342.3,54.5v-14h3v13.9L342.3,54.5L342.3,54.5z"/>
	<path class="st1" d="M353.8,54.8c-3.4,0-6-2.8-6-7.3c0-4.6,2.7-7.3,6-7.3c1.7,0,2.9,0.5,3.6,1l-0.7,1.7c-0.4-0.3-1.2-0.7-2.2-0.7
		c-2.5,0-3.7,2.1-3.7,5.2c0,3.1,1.4,5.3,3.7,5.3c0.9,0,1.7-0.3,2.2-0.7l0.8,1.9C356.8,54.3,355.6,54.8,353.8,54.8z"/>
	<path class="st1" d="M363,54.8c-1.7,0-3.4-0.5-4.3-1l0.8-2c0.6,0.4,1.8,0.9,3.1,0.9c1.5,0,2.7-1,2.7-2.2c0-3.3-6.1-1.8-6.1-6.3
		c0-2,1.9-4.1,4.8-4.1c1.7,0,3,0.4,3.9,1l-0.8,1.7c-0.4-0.3-1.4-0.8-2.6-0.8c-1.5,0-2.5,0.9-2.5,2c0,3.1,6.2,1.7,6.2,6.4
		C368.5,52.7,366.3,54.8,363,54.8z"/>
</g>
<g>
	<path class="st1" d="M29.8,46.8c0.4-0.9,0.8-1.6,1.3-2.6c-0.6-1.4-0.9-2.1-1.3-3.7C29.8,43.1,29.8,44.8,29.8,46.8z M32.5,29.5
		c0,0-2.8,0-2.8,3.4c0,0.3,0-0.4,0,0.5c0.3,3.2,1.3,6.5,2.4,9.3c1.5-2.5,3-4,5.3-6c4.4-3.8,9.7-6,17.9-7.2
		C55.3,29.5,32.5,29.5,32.5,29.5z"/>
	<path class="st1" d="M59.2,31.4c-9.4,0.9-15.8,3.5-20.3,7.4c-2.5,2.1-4,3.8-5.6,6.6c3.7,7,11,12.8,22.4,13.6h0.2
		c0,0,3.5,0.1,3.5-3.8V31.4C59.4,31.4,59.3,31.4,59.2,31.4z M35.1,51.2c-1.1-1.3-2-2.6-2.8-4.1c-1,1.9-1.9,3.9-2.6,6.1
		c0,3.4,0,5.8,0,5.8H47C41.5,57.5,38.3,54.9,35.1,51.2z"/>
</g>
</svg>
