<?xml version="1.0" encoding="utf-8"?>
<!-- Generator: Adobe Illustrator 21.0.2, SVG Export Plug-In . SVG Version: 6.00 Build 0)  -->
<svg version="1.1" id="Layer_1" xmlns="http://www.w3.org/2000/svg" xmlns:xlink="http://www.w3.org/1999/xlink" x="0px" y="0px"
	 viewBox="0 0 400 77.7" style="enable-background:new 0 0 400 77.7;" xml:space="preserve">
<style type="text/css">
	.st0{fill:#A7BC39;}
	.st1{fill:#003C57;}
</style>
<g>
	<g>
		<path class="st0" d="M0,47.1c1.2-2.4,2.4-4.8,3.8-7.1C2.2,36.2,1,32.4,0,28.4C0,34.9,0,41.7,0,47.1z M7.3,0C7.3,0,0,0,0,9
			c0,0.6,0,2.3,0,4.8C0.7,22,2.4,30,5.3,37.4c4.1-6.4,8.9-12.2,14.9-17.3C31.9,10,47.7,3.1,69.2,0H7.3z"/>
		<path class="st1" d="M77.3,4.9C52.8,7.3,36,14.3,24,24.5c-6.5,5.5-11.6,12-15.8,19.4c9.4,18.3,27.4,31.7,57.4,33.7l2.9,0
			c0,0,9.2,0.3,9.2-9.9V4.8C77.6,4.9,77.5,4.9,77.3,4.9z M14.2,57c-2.8-3.3-5.2-6.9-7.3-10.7c-2.6,5-4.9,10.3-6.8,16
			c0,8.8,0,15.1,0,15.1l49.1,0.1C33.8,73.9,22.3,66.6,14.2,57z"/>
	</g>
	<g>
		<path class="st1" d="M107.4,34.7c-7.5,0-10.9-6.2-10.9-13.9c0-7.6,3.4-13.9,10.9-13.9s10.8,6.3,10.8,13.9
			C118.3,28.5,115,34.7,107.4,34.7z M107.4,9.1c-5.5,0-7.5,6.1-7.5,11.6c0,5.5,1.8,11.5,7.5,11.5c5.8,0,7.5-6,7.5-11.5
			C114.9,15.1,113,9.1,107.4,9.1z"/>
		<path class="st1" d="M127.6,15.1v19.1h-3V15.1h-3.1v-1.9h3.1v-3c0-3.8,2.3-6.6,6.7-6.6c0.3,0,0.7,0,0.7,0v1.9h-0.4
			c-2.1,0-4,1.4-4,4.2v3.4h4.4v1.9H127.6z"/>
		<path class="st1" d="M140.2,15.1v19.1h-3V15.1H134v-1.9h3.1v-3c0-3.8,2.3-6.6,6.7-6.6c0.3,0,0.7,0,0.7,0v1.9h-0.4
			c-2.1,0-4,1.4-4,4.2v3.4h4.4v1.9H140.2z"/>
		<path class="st1" d="M149.6,9.2c-1.1,0-1.9-0.8-1.9-1.9c0-1.1,0.9-1.9,1.9-1.9c1.1,0,1.9,0.9,1.9,1.9
			C151.5,8.4,150.7,9.2,149.6,9.2z M148,34.2v-21h3.1v21H148z"/>
		<path class="st1" d="M164.2,34.7c-5,0-8.8-4.3-8.8-11c0-6.9,3.8-11,8.9-11c2.5,0,4.2,0.7,5.1,1.4l-0.8,1.9c-0.7-0.5-2-1.1-3.7-1.1
			c-4.3,0-6.4,3.7-6.4,8.7c0,5.1,2.5,8.8,6.3,8.8c1.6,0,2.9-0.5,3.7-1.1l0.8,2C168.6,34,166.8,34.7,164.2,34.7z"/>
		<path class="st1" d="M174.4,25c0.4,4.9,3.1,7.4,7.4,7.4c2.6,0,4.5-0.7,5.7-1.3l0.9,2.1c-1.3,0.7-3.8,1.4-6.8,1.4
			c-5.9,0-10.1-3.5-10.1-11.1c0-7.2,3.9-10.9,9.1-10.9c5.3,0,8.6,3.3,8.6,10.3L174.4,25z M180.5,14.7c-3.4,0-6.3,2.6-6.2,8.5
			l11.9-1.6C186.2,16.7,183.9,14.7,180.5,14.7z"/>
		<path class="st1" d="M208.7,15.1v19.1h-3V15.1h-3.1v-1.9h3.1v-3c0-3.8,2.3-6.6,6.7-6.6c0.3,0,0.7,0,0.7,0v1.9h-0.4
			c-2.1,0-4,1.4-4,4.2v3.4h4.4v1.9H208.7z"/>
		<path class="st1" d="M224.2,34.7c-6.2,0-9-4.8-9-11c0-6.2,2.8-11,9-11c6.2,0,9,4.8,9,11C233.2,29.9,230.4,34.7,224.2,34.7z
			 M224.2,14.8c-4.6,0-5.9,4.6-5.9,9c0,4.3,1.4,8.8,5.9,8.8c4.6,0,5.9-4.4,5.9-8.8C230.1,19.4,228.8,14.8,224.2,14.8z"/>
		<path class="st1" d="M246.4,15.1c-1.9-0.5-4.8-0.4-6.1,0.4v18.6h-3.1v-20c2.2-0.9,4.4-1.4,8.4-1.4c0.5,0,1.3,0,1.6,0L246.4,15.1z"
			/>
		<path class="st1" d="M114.3,76.6l-11.9-18.3c-0.9-1.4-1.5-2.7-1.5-2.7h-0.1c0,0,0.1,1.6,0.1,3.2v17.9h-3.9V49.9h4.4l11.3,17.2
			c1,1.5,1.6,2.8,1.6,2.8h0.1c0,0-0.1-1.5-0.1-3.1V49.9h3.9v26.8H114.3z"/>
		<path class="st1" d="M131,77.2c-6.2,0-9.1-2.5-9.1-6.5c0-5.6,5.9-7.2,12.9-7.8v-1.2c0-2.9-2-3.7-4.8-3.7c-2,0-4.4,0.6-5.7,1.2
			l-1-2.6c1.5-0.6,4.2-1.5,7.6-1.5c4.7,0,8.2,1.9,8.2,7.3v13.3C137.3,76.6,134.5,77.2,131,77.2z M134.9,65c-5.2,0.5-8.7,1.5-8.7,5.6
			c0,2.8,2,4,5.2,4c1.5,0,2.7-0.3,3.5-0.7V65z"/>
		<path class="st1" d="M151.3,77.1c-4.4,0-6.1-2.8-6.1-5.7v-13h-2.9v-2.7h2.9v-4.7l4.5-1.2v6h4.1v2.7h-4.1v12.8c0,1.6,1,2.9,2.9,2.9
			c0.4,0,0.8-0.1,1.2-0.2v2.8C153.3,76.9,152.4,77.1,151.3,77.1z"/>
		<path class="st1" d="M159.5,52c-1.4,0-2.6-1-2.6-2.3c0-1.3,1.2-2.3,2.6-2.3c1.4,0,2.6,1.1,2.6,2.3C162.1,51,160.9,52,159.5,52z
			 M157.2,76.6v-21h4.5v21H157.2z"/>
		<path class="st1" d="M175.2,77.2c-6.4,0-9.6-4.8-9.6-11s3.2-11.1,9.6-11.1c6.4,0,9.6,4.8,9.6,11.1S181.6,77.2,175.2,77.2z
			 M175.2,58c-3.9,0-5,4.1-5,8.1c0,4.1,1.2,8,5,8c3.9,0,5-3.9,5-8C180.2,62,179.1,58,175.2,58z"/>
		<path class="st1" d="M201.4,76.6v-15c0-2.7-2.3-3.7-4.9-3.7c-1.4,0-2.8,0.3-3.6,0.6v18.1h-4.5v-20c2-0.9,5-1.5,8.3-1.5
			c5.5,0,9.1,1.9,9.1,6.5v15.1H201.4z"/>
		<path class="st1" d="M218.5,77.2c-6.2,0-9.1-2.5-9.1-6.5c0-5.6,5.9-7.2,12.9-7.8v-1.2c0-2.9-2-3.7-4.8-3.7c-2,0-4.4,0.6-5.7,1.2
			l-1-2.6c1.5-0.6,4.2-1.5,7.6-1.5c4.7,0,8.2,1.9,8.2,7.3v13.3C224.8,76.6,222,77.2,218.5,77.2z M222.4,65c-5.2,0.5-8.7,1.5-8.7,5.6
			c0,2.8,2,4,5.2,4c1.5,0,2.7-0.3,3.5-0.7V65z"/>
		<path class="st1" d="M231.3,76.6V46.1h4.5v17.3v13.3H231.3z"/>
		<path class="st1" d="M257,77.2c-3.2,0-5.8-0.7-7.3-1.5l1.3-3.3c1.1,0.6,3.1,1.3,5.2,1.3c3.1,0,5.3-1.8,5.3-4.5
			c0-5.9-11.1-3.6-11.1-12c0-4.2,3.4-7.9,8.9-7.9c2.9,0,5.2,0.8,6.4,1.5l-1.1,2.9c-1-0.6-2.8-1.2-4.7-1.2c-2.9,0-4.8,1.8-4.8,4.2
			c0,5.8,11.4,3.3,11.4,12.1C266.4,73.6,262.5,77.2,257,77.2z"/>
		<path class="st1" d="M277.8,77.1c-4.4,0-6.1-2.8-6.1-5.7v-13h-2.9v-2.7h2.9v-4.7l4.5-1.2v6h4.1v2.7h-4.1v12.8c0,1.6,1,2.9,2.9,2.9
			c0.4,0,0.8-0.1,1.2-0.2v2.8C279.8,76.9,278.9,77.1,277.8,77.1z"/>
		<path class="st1" d="M291.7,77.2c-6.2,0-9.1-2.5-9.1-6.5c0-5.6,5.9-7.2,12.9-7.8v-1.2c0-2.9-2-3.7-4.8-3.7c-2,0-4.4,0.6-5.7,1.2
			l-1-2.6c1.5-0.6,4.2-1.5,7.6-1.5c4.7,0,8.2,1.9,8.2,7.3v13.3C298,76.6,295.2,77.2,291.7,77.2z M295.6,65c-5.2,0.5-8.7,1.5-8.7,5.6
			c0,2.8,2,4,5.2,4c1.5,0,2.7-0.3,3.5-0.7V65z"/>
		<path class="st1" d="M312,77.1c-4.4,0-6.1-2.8-6.1-5.7v-13H303v-2.7h2.9v-4.7l4.5-1.2v6h4.1v2.7h-4.1v12.8c0,1.6,1,2.9,2.9,2.9
			c0.4,0,0.8-0.1,1.2-0.2v2.8C314,76.9,313.1,77.1,312,77.1z"/>
		<path class="st1" d="M320.2,52c-1.4,0-2.6-1-2.6-2.3c0-1.3,1.2-2.3,2.6-2.3c1.4,0,2.6,1.1,2.6,2.3C322.8,51,321.7,52,320.2,52z
			 M318,76.6v-21h4.5v21H318z"/>
		<path class="st1" d="M332.3,77.2c-2.6,0-5.1-0.7-6.3-1.5l1.2-2.9c0.9,0.6,2.7,1.2,4.6,1.2c2.3,0,4.1-1.5,4.1-3.3
			c0-5-9.2-2.6-9.2-9.5c0-3.1,2.8-6.2,7.3-6.2c2.6,0,4.5,0.7,5.9,1.5l-1.2,2.6c-0.7-0.5-2.1-1.2-3.8-1.2c-2.3,0-3.8,1.4-3.8,3
			c0,4.7,9.4,2.6,9.4,9.6C340.5,74,337.3,77.2,332.3,77.2z"/>
		<path class="st1" d="M351.8,77.1c-4.4,0-6.1-2.8-6.1-5.7v-13h-2.9v-2.7h2.9v-4.7l4.5-1.2v6h4.1v2.7h-4.1v12.8c0,1.6,1,2.9,2.9,2.9
			c0.4,0,0.8-0.1,1.2-0.2v2.8C353.9,76.9,353,77.1,351.8,77.1z"/>
		<path class="st1" d="M360.1,52c-1.4,0-2.6-1-2.6-2.3c0-1.3,1.2-2.3,2.6-2.3c1.4,0,2.6,1.1,2.6,2.3C362.7,51,361.5,52,360.1,52z
			 M357.8,76.6v-21h4.5v21H357.8z"/>
		<path class="st1" d="M375.3,77.2c-5.2,0-9.1-4.2-9.1-11.1c0-6.9,4-11,9.1-11c2.6,0,4.4,0.7,5.4,1.5l-1,2.5c-0.6-0.5-1.8-1-3.3-1
			c-3.7,0-5.5,3.2-5.5,7.9c0,4.8,2.2,7.9,5.5,7.9c1.4,0,2.5-0.5,3.3-1.1l1.1,2.8C379.8,76.4,378,77.2,375.3,77.2z"/>
		<path class="st1" d="M389.1,77.2c-2.6,0-5.1-0.7-6.3-1.5l1.2-2.9c0.9,0.6,2.7,1.2,4.6,1.2c2.3,0,4.1-1.5,4.1-3.3
			c0-5-9.2-2.6-9.2-9.5c0-3.1,2.8-6.2,7.3-6.2c2.6,0,4.5,0.7,5.9,1.5l-1.2,2.6c-0.7-0.5-2.1-1.2-3.8-1.2c-2.3,0-3.8,1.4-3.8,3
			c0,4.7,9.4,2.6,9.4,9.6C397.3,74,394.1,77.2,389.1,77.2z"/>
	</g>
</g>
</svg>
