<?xml version="1.0" encoding="utf-8"?>
<!-- Generator: Adobe Illustrator 21.0.2, SVG Export Plug-In . SVG Version: 6.00 Build 0)  -->
<svg version="1.1" id="Layer_1" xmlns="http://www.w3.org/2000/svg" xmlns:xlink="http://www.w3.org/1999/xlink" x="0px" y="0px"
	 viewBox="0 0 400 90" style="enable-background:new 0 0 400 90;" xml:space="preserve">
<style type="text/css">
	.st0{fill:#E5E6E7;}
	.st1{fill:#003C57;}
	.st2{fill:#A7BC39;}
	.st3{fill:#FFFFFF;}
</style>
<g>
	<path class="st0" d="M399,0.5v88.9H1V0.5H399 M400,0H0v90h400V0L400,0z"/>
</g>
<g>
	<g>
		<path class="st1" d="M37.8,27.5c-2.5,0-3.6-2.1-3.6-4.6c0-2.5,1.1-4.6,3.6-4.6c2.5,0,3.6,2.1,3.6,4.6S40.3,27.5,37.8,27.5z
			 M37.8,18.9c-1.8,0-2.5,2-2.5,3.9c0,1.8,0.6,3.8,2.5,3.8c1.9,0,2.5-2,2.5-3.8C40.3,20.9,39.7,18.9,37.8,18.9z"/>
		<path class="st1" d="M44.6,20.9v6.4h-1v-6.4h-1v-0.6h1v-1c0-1.3,0.8-2.2,2.2-2.2c0.1,0,0.3,0,0.3,0v0.6h-0.1
			c-0.7,0-1.3,0.5-1.3,1.4v1.1H46v0.6L44.6,20.9L44.6,20.9z"/>
		<path class="st1" d="M48.7,20.9v6.4h-1v-6.4h-1v-0.6h1v-1c0-1.3,0.8-2.2,2.2-2.2c0.1,0,0.3,0,0.3,0v0.6h-0.1
			c-0.7,0-1.3,0.5-1.3,1.4v1.1h1.4v0.6L48.7,20.9L48.7,20.9z"/>
		<path class="st1" d="M51.8,19c-0.3,0-0.6-0.3-0.6-0.6s0.3-0.6,0.6-0.6c0.3,0,0.6,0.3,0.6,0.6C52.5,18.7,52.2,19,51.8,19z
			 M51.3,27.3v-7h1v7H51.3z"/>
		<path class="st1" d="M56.7,27.5c-1.7,0-2.9-1.4-2.9-3.7c0-2.3,1.3-3.7,3-3.7c0.9,0,1.4,0.2,1.7,0.5l-0.3,0.6
			c-0.2-0.2-0.6-0.4-1.2-0.4c-1.4,0-2.1,1.2-2.1,2.9c0,1.7,0.9,2.9,2.1,2.9c0.5,0,0.9-0.2,1.2-0.4l0.3,0.7
			C58.2,27.2,57.6,27.5,56.7,27.5z"/>
		<path class="st1" d="M60.2,24.2c0.1,1.7,1,2.5,2.5,2.5c0.9,0,1.5-0.2,1.9-0.4l0.3,0.7c-0.4,0.3-1.3,0.5-2.3,0.5
			c-2,0-3.4-1.2-3.4-3.7c0-2.4,1.3-3.6,3-3.6c1.8,0,2.9,1.1,2.9,3.4L60.2,24.2z M62.2,20.8c-1.2,0-2.1,0.9-2.1,2.9l4-0.6
			C64.1,21.5,63.3,20.8,62.2,20.8z"/>
		<path class="st1" d="M70,20.9v6.4h-1v-6.4h-1v-0.6h1v-1c0-1.3,0.8-2.2,2.2-2.2c0.1,0,0.3,0,0.3,0v0.6h-0.1c-0.7,0-1.3,0.5-1.3,1.4
			v1.1h1.4v0.6L70,20.9L70,20.9z"/>
		<path class="st1" d="M75.2,27.5c-2,0-3-1.6-3-3.7c0-2,0.9-3.7,3-3.7s3,1.6,3,3.7C78.1,25.9,77.2,27.5,75.2,27.5z M75.2,20.8
			c-1.5,0-2,1.5-2,3s0.5,2.9,2,2.9c1.5,0,2-1.5,2-2.9S76.7,20.8,75.2,20.8z"/>
		<path class="st1" d="M82.6,20.9c-0.6-0.2-1.6-0.1-2,0.1v6.2h-1v-6.7c0.7-0.3,1.5-0.5,2.8-0.5c0.2,0,0.4,0,0.5,0L82.6,20.9z"/>
		<path class="st1" d="M91.7,27.4l-4-6.1c-0.3-0.5-0.5-0.9-0.5-0.9h0c0,0,0,0.5,0,1.1v6H86v-9h1.4l3.8,5.8c0.3,0.5,0.5,0.9,0.5,0.9
			h0c0,0,0-0.5,0-1v-5.7H93v8.9H91.7z"/>
		<path class="st1" d="M97.3,27.5c-2,0-3-0.8-3-2.2c0-1.9,2-2.4,4.3-2.6v-0.4c0-1-0.6-1.2-1.6-1.2c-0.7,0-1.4,0.2-1.9,0.4l-0.3-0.9
			c0.5-0.2,1.4-0.5,2.5-0.5c1.5,0,2.7,0.6,2.7,2.4V27C99.4,27.3,98.5,27.5,97.3,27.5z M98.6,23.5c-1.7,0.2-2.9,0.5-2.9,1.9
			c0,0.9,0.7,1.4,1.7,1.4c0.5,0,0.9-0.1,1.2-0.2L98.6,23.5L98.6,23.5z"/>
		<path class="st1" d="M104.1,27.5c-1.4,0-2-0.9-2-1.9v-4.3h-1v-0.9h1v-1.6l1.5-0.4v2h1.4v0.9h-1.4v4.3c0,0.6,0.3,1,0.9,1
			c0.1,0,0.3,0,0.4-0.1v0.9C104.7,27.5,104.4,27.5,104.1,27.5z"/>
		<path class="st1" d="M106.8,19.2c-0.5,0-0.9-0.3-0.9-0.8c0-0.4,0.4-0.8,0.9-0.8c0.5,0,0.9,0.3,0.9,0.8
			C107.7,18.8,107.3,19.2,106.8,19.2z M106.1,27.4v-7h1.5v7H106.1z"/>
		<path class="st1" d="M112,27.5c-2.1,0-3.2-1.6-3.2-3.7s1.1-3.7,3.2-3.7c2.1,0,3.2,1.6,3.2,3.7S114.2,27.5,112,27.5z M112,21.1
			c-1.3,0-1.7,1.4-1.7,2.7c0,1.4,0.4,2.6,1.7,2.6c1.3,0,1.7-1.3,1.7-2.6C113.7,22.5,113.3,21.1,112,21.1z"/>
		<path class="st1" d="M120.8,27.4v-5c0-0.9-0.8-1.2-1.6-1.2c-0.5,0-0.9,0.1-1.2,0.2v6h-1.5v-6.7c0.6-0.3,1.7-0.5,2.8-0.5
			c1.8,0,3,0.6,3,2.1v5L120.8,27.4L120.8,27.4z"/>
		<path class="st1" d="M126.5,27.5c-2,0-3-0.8-3-2.2c0-1.9,2-2.4,4.3-2.6v-0.4c0-1-0.6-1.2-1.6-1.2c-0.7,0-1.4,0.2-1.9,0.4l-0.3-0.9
			c0.5-0.2,1.4-0.5,2.5-0.5c1.5,0,2.7,0.6,2.7,2.4V27C128.6,27.3,127.6,27.5,126.5,27.5z M127.8,23.5c-1.7,0.2-2.9,0.5-2.9,1.9
			c0,0.9,0.7,1.4,1.7,1.4c0.5,0,0.9-0.1,1.2-0.2L127.8,23.5L127.8,23.5z"/>
		<path class="st1" d="M130.7,27.4V24v-6.8h1.5v3.5v6.7C132.2,27.4,130.7,27.4,130.7,27.4z"/>
		<path class="st1" d="M138.1,27.5c-1.1,0-2-0.3-2.4-0.5l0.4-1.1c0.3,0.2,1,0.4,1.7,0.4c1,0,1.8-0.6,1.8-1.5c0-2-3.7-1.2-3.7-4
			c0-1.4,1.2-2.6,2.9-2.6c1,0,1.7,0.3,2.1,0.5l-0.4,1c-0.3-0.2-0.9-0.4-1.6-0.4c-1,0-1.6,0.6-1.6,1.4c0,1.9,3.8,1.1,3.8,4
			C141.2,26.3,140,27.5,138.1,27.5z"/>
		<path class="st1" d="M145,27.5c-1.4,0-2-0.9-2-1.9v-4.3h-1v-0.9h1v-1.6l1.5-0.4v2h1.4v0.9h-1.4v4.3c0,0.6,0.3,1,0.9,1
			c0.1,0,0.3,0,0.4-0.1v0.9C145.7,27.5,145.4,27.5,145,27.5z"/>
		<path class="st1" d="M149.7,27.5c-2,0-3-0.8-3-2.2c0-1.9,2-2.4,4.3-2.6v-0.4c0-1-0.6-1.2-1.6-1.2c-0.7,0-1.4,0.2-1.9,0.4l-0.3-0.9
			c0.5-0.2,1.4-0.5,2.5-0.5c1.5,0,2.7,0.6,2.7,2.4V27C151.8,27.3,150.8,27.5,149.7,27.5z M151,23.5c-1.7,0.2-2.9,0.5-2.9,1.9
			c0,0.9,0.7,1.4,1.7,1.4c0.5,0,0.9-0.1,1.2-0.2L151,23.5L151,23.5z"/>
		<path class="st1" d="M156.4,27.5c-1.4,0-2-0.9-2-1.9v-4.3h-1v-0.9h1v-1.6l1.5-0.4v2h1.4v0.9h-1.4v4.3c0,0.6,0.3,1,0.9,1
			c0.1,0,0.3,0,0.4-0.1v0.9C157.1,27.5,156.8,27.5,156.4,27.5z"/>
		<path class="st1" d="M159.2,19.2c-0.5,0-0.9-0.3-0.9-0.8c0-0.4,0.4-0.8,0.9-0.8s0.9,0.3,0.9,0.8C160,18.8,159.6,19.2,159.2,19.2z
			 M158.4,27.4v-7h1.5v7H158.4z"/>
		<path class="st1" d="M163.2,27.5c-0.9,0-1.7-0.3-2.1-0.5l0.4-1c0.3,0.2,0.9,0.4,1.5,0.4c0.8,0,1.4-0.5,1.4-1.1
			c0-1.7-3.1-0.9-3.1-3.2c0-1,0.9-2,2.4-2c0.9,0,1.5,0.2,2,0.5l-0.4,0.9c-0.2-0.2-0.7-0.4-1.3-0.4c-0.8,0-1.2,0.5-1.2,1
			c0,1.6,3.1,0.9,3.1,3.2C165.9,26.5,164.9,27.5,163.2,27.5z"/>
		<path class="st1" d="M169.7,27.5c-1.4,0-2-0.9-2-1.9v-4.3h-1v-0.9h1v-1.6l1.5-0.4v2h1.4v0.9h-1.4v4.3c0,0.6,0.3,1,0.9,1
			c0.1,0,0.3,0,0.4-0.1v0.9C170.4,27.5,170.1,27.5,169.7,27.5z"/>
		<path class="st1" d="M172.4,19.2c-0.5,0-0.9-0.3-0.9-0.8c0-0.4,0.4-0.8,0.9-0.8c0.5,0,0.9,0.3,0.9,0.8
			C173.3,18.8,172.9,19.2,172.4,19.2z M171.7,27.4v-7h1.5v7H171.7z"/>
		<path class="st1" d="M177.5,27.5c-1.7,0-3-1.4-3-3.7c0-2.3,1.4-3.7,3-3.7c0.9,0,1.4,0.3,1.8,0.5l-0.3,0.9
			c-0.2-0.2-0.6-0.3-1.1-0.3c-1.2,0-1.8,1.1-1.8,2.6c0,1.6,0.7,2.6,1.8,2.6c0.5,0,0.9-0.2,1.1-0.3l0.4,0.9
			C179,27.3,178.4,27.5,177.5,27.5z"/>
		<path class="st1" d="M182.1,27.5c-0.9,0-1.7-0.3-2.1-0.5l0.4-1c0.3,0.2,0.9,0.4,1.5,0.4c0.8,0,1.4-0.5,1.4-1.1
			c0-1.7-3.1-0.9-3.1-3.2c0-1,0.9-2,2.4-2c0.9,0,1.5,0.2,2,0.5l-0.4,0.9c-0.2-0.2-0.7-0.4-1.3-0.4c-0.8,0-1.2,0.5-1.2,1
			c0,1.6,3.1,0.9,3.1,3.2C184.8,26.5,183.8,27.5,182.1,27.5z"/>
	</g>
	<g>
		<path class="st2" d="M15,23.5c0.2-0.5,0.4-0.8,0.6-1.3c-0.3-0.7-0.5-1.1-0.6-1.8C15,21.7,15,22.5,15,23.5z M16.4,14.8
			c0,0-1.4,0-1.4,1.7c0,0.1,0-0.2,0,0.3c0.2,1.6,0.6,3.2,1.2,4.6c0.8-1.2,1.5-2,2.6-3c2.2-1.9,4.9-3,9-3.6H16.4z"/>
		<path class="st1" d="M29.8,15.8c-4.7,0.5-7.9,1.8-10.2,3.8c-1.2,1.1-2,1.9-2.8,3.3c1.8,3.5,5.5,6.4,11.2,6.8h0.1
			c0,0,1.7,0,1.7-1.9L29.8,15.8C29.8,15.8,29.8,15.8,29.8,15.8z M17.7,25.7c-0.6-0.6-1-1.3-1.4-2c-0.5,0.9-0.9,2-1.3,3.1
			c0,1.7,0,2.9,0,2.9h8.7C20.9,28.9,19.3,27.6,17.7,25.7z"/>
	</g>
</g>
<rect x="200" class="st1" width="200" height="45"/>
<rect y="45" class="st1" width="200" height="45"/>
<g>
	<g>
		<path class="st3" d="M37.8,72.7c-2.5,0-3.6-2.1-3.6-4.6c0-2.5,1.1-4.6,3.6-4.6c2.5,0,3.6,2.1,3.6,4.6
			C41.4,70.6,40.3,72.7,37.8,72.7z M37.8,64.2c-1.8,0-2.5,2-2.5,3.9c0,1.8,0.6,3.8,2.5,3.8c1.9,0,2.5-2,2.5-3.8
			C40.3,66.2,39.7,64.2,37.8,64.2z"/>
		<path class="st3" d="M44.6,66.2v6.4h-1v-6.4h-1v-0.6h1v-1c0-1.3,0.8-2.2,2.2-2.2c0.1,0,0.3,0,0.3,0V63h-0.1
			c-0.7,0-1.3,0.5-1.3,1.4v1.1H46v0.6L44.6,66.2L44.6,66.2z"/>
		<path class="st3" d="M48.7,66.2v6.4h-1v-6.4h-1v-0.6h1v-1c0-1.3,0.8-2.2,2.2-2.2c0.1,0,0.3,0,0.3,0V63h-0.1
			c-0.7,0-1.3,0.5-1.3,1.4v1.1h1.4v0.6L48.7,66.2L48.7,66.2z"/>
		<path class="st3" d="M51.8,64.2c-0.3,0-0.6-0.3-0.6-0.6s0.3-0.6,0.6-0.6c0.3,0,0.6,0.3,0.6,0.6S52.2,64.2,51.8,64.2z M51.3,72.5
			v-7h1v7H51.3z"/>
		<path class="st3" d="M56.7,72.7c-1.7,0-2.9-1.4-2.9-3.7c0-2.3,1.3-3.7,3-3.7c0.9,0,1.4,0.2,1.7,0.5l-0.3,0.6
			c-0.2-0.2-0.6-0.4-1.2-0.4c-1.4,0-2.1,1.2-2.1,2.9c0,1.7,0.9,2.9,2.1,2.9c0.5,0,0.9-0.2,1.2-0.4l0.3,0.7
			C58.2,72.5,57.6,72.7,56.7,72.7z"/>
		<path class="st3" d="M60.2,69.5c0.1,1.7,1,2.5,2.5,2.5c0.9,0,1.5-0.2,1.9-0.4l0.3,0.7c-0.4,0.3-1.3,0.5-2.3,0.5
			c-2,0-3.4-1.2-3.4-3.7c0-2.4,1.3-3.6,3-3.6c1.8,0,2.9,1.1,2.9,3.4L60.2,69.5z M62.2,66.1c-1.2,0-2.1,0.9-2.1,2.9l4-0.6
			C64.1,66.7,63.3,66.1,62.2,66.1z"/>
		<path class="st3" d="M70,66.2v6.4h-1v-6.4h-1v-0.6h1v-1c0-1.3,0.8-2.2,2.2-2.2c0.1,0,0.3,0,0.3,0V63h-0.1c-0.7,0-1.3,0.5-1.3,1.4
			v1.1h1.4v0.6L70,66.2L70,66.2z"/>
		<path class="st3" d="M75.2,72.7c-2,0-3-1.6-3-3.7c0-2,0.9-3.7,3-3.7s3,1.6,3,3.7C78.1,71.1,77.2,72.7,75.2,72.7z M75.2,66.1
			c-1.5,0-2,1.5-2,3c0,1.4,0.5,2.9,2,2.9c1.5,0,2-1.5,2-2.9S76.7,66.1,75.2,66.1z"/>
		<path class="st3" d="M82.6,66.2c-0.6-0.2-1.6-0.1-2,0.1v6.2h-1v-6.7c0.7-0.3,1.5-0.5,2.8-0.5c0.2,0,0.4,0,0.5,0L82.6,66.2z"/>
		<path class="st3" d="M91.7,72.6l-4-6.1c-0.3-0.5-0.5-0.9-0.5-0.9h0c0,0,0,0.5,0,1.1v6H86v-9h1.4l3.8,5.8c0.3,0.5,0.5,0.9,0.5,0.9
			h0c0,0,0-0.5,0-1v-5.7H93v8.9H91.7z"/>
		<path class="st3" d="M97.3,72.8c-2,0-3-0.8-3-2.2c0-1.9,2-2.4,4.3-2.6v-0.4c0-1-0.6-1.2-1.6-1.2c-0.7,0-1.4,0.2-1.9,0.4l-0.3-0.9
			c0.5-0.2,1.4-0.5,2.5-0.5c1.5,0,2.7,0.6,2.7,2.4v4.4C99.4,72.6,98.5,72.8,97.3,72.8z M98.6,68.7c-1.7,0.2-2.9,0.5-2.9,1.9
			c0,0.9,0.7,1.4,1.7,1.4c0.5,0,0.9-0.1,1.2-0.2L98.6,68.7L98.6,68.7z"/>
		<path class="st3" d="M104.1,72.7c-1.4,0-2-0.9-2-1.9v-4.3h-1v-0.9h1V64l1.5-0.4v2h1.4v0.9h-1.4v4.3c0,0.6,0.3,1,0.9,1
			c0.1,0,0.3,0,0.4-0.1v0.9C104.7,72.7,104.4,72.7,104.1,72.7z"/>
		<path class="st3" d="M106.8,64.4c-0.5,0-0.9-0.3-0.9-0.8s0.4-0.8,0.9-0.8c0.5,0,0.9,0.3,0.9,0.8C107.7,64,107.3,64.4,106.8,64.4z
			 M106.1,72.6v-7h1.5v7H106.1z"/>
		<path class="st3" d="M112,72.8c-2.1,0-3.2-1.6-3.2-3.7s1.1-3.7,3.2-3.7c2.1,0,3.2,1.6,3.2,3.7S114.2,72.8,112,72.8z M112,66.4
			c-1.3,0-1.7,1.4-1.7,2.7c0,1.4,0.4,2.6,1.7,2.6c1.3,0,1.7-1.3,1.7-2.6C113.7,67.8,113.3,66.4,112,66.4z"/>
		<path class="st3" d="M120.8,72.6v-5c0-0.9-0.8-1.2-1.6-1.2c-0.5,0-0.9,0.1-1.2,0.2v6h-1.5v-6.7c0.6-0.3,1.7-0.5,2.8-0.5
			c1.8,0,3,0.6,3,2.1v5L120.8,72.6L120.8,72.6z"/>
		<path class="st3" d="M126.5,72.8c-2,0-3-0.8-3-2.2c0-1.9,2-2.4,4.3-2.6v-0.4c0-1-0.6-1.2-1.6-1.2c-0.7,0-1.4,0.2-1.9,0.4l-0.3-0.9
			c0.5-0.2,1.4-0.5,2.5-0.5c1.5,0,2.7,0.6,2.7,2.4v4.4C128.6,72.6,127.6,72.8,126.5,72.8z M127.8,68.7c-1.7,0.2-2.9,0.5-2.9,1.9
			c0,0.9,0.7,1.4,1.7,1.4c0.5,0,0.9-0.1,1.2-0.2L127.8,68.7L127.8,68.7z"/>
		<path class="st3" d="M130.7,72.6v-3.4v-6.8h1.5v3.5v6.7C132.2,72.6,130.7,72.6,130.7,72.6z"/>
		<path class="st3" d="M138.1,72.8c-1.1,0-2-0.3-2.4-0.5l0.4-1.1c0.3,0.2,1,0.4,1.7,0.4c1,0,1.8-0.6,1.8-1.5c0-2-3.7-1.2-3.7-4
			c0-1.4,1.2-2.6,2.9-2.6c1,0,1.7,0.3,2.1,0.5l-0.4,1c-0.3-0.2-0.9-0.4-1.6-0.4c-1,0-1.6,0.6-1.6,1.4c0,1.9,3.8,1.1,3.8,4
			C141.2,71.6,140,72.8,138.1,72.8z"/>
		<path class="st3" d="M145,72.7c-1.4,0-2-0.9-2-1.9v-4.3h-1v-0.9h1V64l1.5-0.4v2h1.4v0.9h-1.4v4.3c0,0.6,0.3,1,0.9,1
			c0.1,0,0.3,0,0.4-0.1v0.9C145.7,72.7,145.4,72.7,145,72.7z"/>
		<path class="st3" d="M149.7,72.8c-2,0-3-0.8-3-2.2c0-1.9,2-2.4,4.3-2.6v-0.4c0-1-0.6-1.2-1.6-1.2c-0.7,0-1.4,0.2-1.9,0.4l-0.3-0.9
			c0.5-0.2,1.4-0.5,2.5-0.5c1.5,0,2.7,0.6,2.7,2.4v4.4C151.8,72.6,150.8,72.8,149.7,72.8z M151,68.7c-1.7,0.2-2.9,0.5-2.9,1.9
			c0,0.9,0.7,1.4,1.7,1.4c0.5,0,0.9-0.1,1.2-0.2L151,68.7L151,68.7z"/>
		<path class="st3" d="M156.4,72.7c-1.4,0-2-0.9-2-1.9v-4.3h-1v-0.9h1V64l1.5-0.4v2h1.4v0.9h-1.4v4.3c0,0.6,0.3,1,0.9,1
			c0.1,0,0.3,0,0.4-0.1v0.9C157.1,72.7,156.8,72.7,156.4,72.7z"/>
		<path class="st3" d="M159.2,64.4c-0.5,0-0.9-0.3-0.9-0.8s0.4-0.8,0.9-0.8s0.9,0.3,0.9,0.8C160,64,159.6,64.4,159.2,64.4z
			 M158.4,72.6v-7h1.5v7H158.4z"/>
		<path class="st3" d="M163.2,72.8c-0.9,0-1.7-0.3-2.1-0.5l0.4-1c0.3,0.2,0.9,0.4,1.5,0.4c0.8,0,1.4-0.5,1.4-1.1
			c0-1.7-3.1-0.9-3.1-3.2c0-1,0.9-2,2.4-2c0.9,0,1.5,0.2,2,0.5l-0.4,0.9c-0.2-0.2-0.7-0.4-1.3-0.4c-0.8,0-1.2,0.5-1.2,1
			c0,1.6,3.1,0.9,3.1,3.2C165.9,71.7,164.9,72.8,163.2,72.8z"/>
		<path class="st3" d="M169.7,72.7c-1.4,0-2-0.9-2-1.9v-4.3h-1v-0.9h1V64l1.5-0.4v2h1.4v0.9h-1.4v4.3c0,0.6,0.3,1,0.9,1
			c0.1,0,0.3,0,0.4-0.1v0.9C170.4,72.7,170.1,72.7,169.7,72.7z"/>
		<path class="st3" d="M172.4,64.4c-0.5,0-0.9-0.3-0.9-0.8s0.4-0.8,0.9-0.8c0.5,0,0.9,0.3,0.9,0.8C173.3,64,172.9,64.4,172.4,64.4z
			 M171.7,72.6v-7h1.5v7H171.7z"/>
		<path class="st3" d="M177.5,72.8c-1.7,0-3-1.4-3-3.7c0-2.3,1.4-3.7,3-3.7c0.9,0,1.4,0.3,1.8,0.5l-0.3,0.9
			c-0.2-0.2-0.6-0.3-1.1-0.3c-1.2,0-1.8,1.1-1.8,2.6c0,1.6,0.7,2.6,1.8,2.6c0.5,0,0.9-0.2,1.1-0.3l0.4,0.9
			C179,72.5,178.4,72.8,177.5,72.8z"/>
		<path class="st3" d="M182.1,72.8c-0.9,0-1.7-0.3-2.1-0.5l0.4-1c0.3,0.2,0.9,0.4,1.5,0.4c0.8,0,1.4-0.5,1.4-1.1
			c0-1.7-3.1-0.9-3.1-3.2c0-1,0.9-2,2.4-2c0.9,0,1.5,0.2,2,0.5l-0.4,0.9c-0.2-0.2-0.7-0.4-1.3-0.4c-0.8,0-1.2,0.5-1.2,1
			c0,1.6,3.1,0.9,3.1,3.2C184.8,71.7,183.8,72.8,182.1,72.8z"/>
	</g>
	<g>
		<path class="st3" d="M15,68.8c0.2-0.5,0.4-0.8,0.6-1.3c-0.3-0.7-0.5-1.1-0.6-1.8C15,66.9,15,67.8,15,68.8z M16.4,60.1
			c0,0-1.4,0-1.4,1.7c0,0.1,0-0.2,0,0.3c0.2,1.6,0.6,3.2,1.2,4.6c0.8-1.2,1.5-2,2.6-3c2.2-1.9,4.9-3,9-3.6H16.4z"/>
		<path class="st3" d="M29.8,61c-4.7,0.5-7.9,1.8-10.2,3.8c-1.2,1.1-2,1.9-2.8,3.3c1.8,3.5,5.5,6.4,11.2,6.8h0.1c0,0,1.7,0,1.7-1.9
			L29.8,61C29.8,61,29.8,61,29.8,61z M17.7,71c-0.6-0.6-1-1.3-1.4-2c-0.5,0.9-0.9,2-1.3,3.1c0,1.7,0,2.9,0,2.9h8.7
			C20.9,74.1,19.3,72.8,17.7,71z"/>
	</g>
</g>
<g>
	<g>
		<path d="M237.8,72.8c-2.5,0-3.6-2.1-3.6-4.6c0-2.5,1.1-4.6,3.6-4.6c2.5,0,3.6,2.1,3.6,4.6C241.5,70.7,240.3,72.8,237.8,72.8z
			 M237.8,64.3c-1.8,0-2.5,2-2.5,3.9c0,1.8,0.6,3.8,2.5,3.8c1.9,0,2.5-2,2.5-3.8C240.3,66.3,239.7,64.3,237.8,64.3z"/>
		<path d="M244.6,66.3v6.4h-1v-6.4h-1v-0.6h1v-1c0-1.3,0.8-2.2,2.2-2.2c0.1,0,0.3,0,0.3,0v0.6h-0.1c-0.7,0-1.3,0.5-1.3,1.4v1.1h1.4
			v0.6L244.6,66.3L244.6,66.3z"/>
		<path d="M248.7,66.3v6.4h-1v-6.4h-1v-0.6h1v-1c0-1.3,0.8-2.2,2.2-2.2c0.1,0,0.3,0,0.3,0v0.6h-0.1c-0.7,0-1.3,0.5-1.3,1.4v1.1h1.4
			v0.6L248.7,66.3L248.7,66.3z"/>
		<path d="M251.9,64.3c-0.3,0-0.6-0.3-0.6-0.6s0.3-0.6,0.6-0.6c0.3,0,0.6,0.3,0.6,0.6C252.5,64,252.2,64.3,251.9,64.3z M251.3,72.6
			v-7h1v7H251.3z"/>
		<path d="M256.8,72.8c-1.7,0-2.9-1.4-2.9-3.7c0-2.3,1.3-3.7,3-3.7c0.9,0,1.4,0.2,1.7,0.5l-0.3,0.6c-0.2-0.2-0.6-0.4-1.2-0.4
			c-1.4,0-2.1,1.2-2.1,2.9c0,1.7,0.9,2.9,2.1,2.9c0.5,0,0.9-0.2,1.2-0.4l0.3,0.7C258.2,72.6,257.6,72.8,256.8,72.8z"/>
		<path d="M260.2,69.6c0.1,1.7,1,2.5,2.5,2.5c0.9,0,1.5-0.2,1.9-0.4l0.3,0.7c-0.4,0.3-1.3,0.5-2.3,0.5c-2,0-3.4-1.2-3.4-3.7
			c0-2.4,1.3-3.6,3-3.6c1.8,0,2.9,1.1,2.9,3.4L260.2,69.6z M262.2,66.1c-1.2,0-2.1,0.9-2.1,2.9l4-0.6
			C264.1,66.8,263.3,66.1,262.2,66.1z"/>
		<path d="M270,66.3v6.4h-1v-6.4h-1v-0.6h1v-1c0-1.3,0.8-2.2,2.2-2.2c0.1,0,0.3,0,0.3,0v0.6h-0.1c-0.7,0-1.3,0.5-1.3,1.4v1.1h1.4
			v0.6L270,66.3L270,66.3z"/>
		<path d="M275.2,72.8c-2,0-3-1.6-3-3.7c0-2,0.9-3.7,3-3.7s3,1.6,3,3.7C278.2,71.2,277.2,72.8,275.2,72.8z M275.2,66.1
			c-1.5,0-2,1.5-2,3c0,1.4,0.5,2.9,2,2.9c1.5,0,2-1.5,2-2.9S276.7,66.1,275.2,66.1z"/>
		<path d="M282.6,66.3c-0.6-0.2-1.6-0.1-2,0.1v6.2h-1V66c0.7-0.3,1.5-0.5,2.8-0.5c0.2,0,0.4,0,0.5,0L282.6,66.3z"/>
		<path d="M291.8,72.7l-4-6.1c-0.3-0.5-0.5-0.9-0.5-0.9h0c0,0,0,0.5,0,1.1v6H286v-9h1.4l3.8,5.8c0.3,0.5,0.5,0.9,0.5,0.9h0
			c0,0,0-0.5,0-1v-5.7h1.3v8.9H291.8z"/>
		<path d="M297.3,72.9c-2,0-3-0.8-3-2.2c0-1.9,2-2.4,4.3-2.6v-0.4c0-1-0.6-1.2-1.6-1.2c-0.7,0-1.4,0.2-1.9,0.4l-0.3-0.9
			c0.5-0.2,1.4-0.5,2.5-0.5c1.5,0,2.7,0.6,2.7,2.4v4.4C299.4,72.7,298.5,72.9,297.3,72.9z M298.6,68.8c-1.7,0.2-2.9,0.5-2.9,1.9
			c0,0.9,0.7,1.4,1.7,1.4c0.5,0,0.9-0.1,1.2-0.2L298.6,68.8L298.6,68.8z"/>
		<path d="M304.1,72.8c-1.4,0-2-0.9-2-1.9v-4.3h-1v-0.9h1v-1.6l1.5-0.4v2h1.4v0.9h-1.4v4.3c0,0.6,0.3,1,0.9,1c0.1,0,0.3,0,0.4-0.1
			v0.9C304.8,72.8,304.5,72.8,304.1,72.8z"/>
		<path d="M306.8,64.5c-0.5,0-0.9-0.3-0.9-0.8c0-0.4,0.4-0.8,0.9-0.8c0.5,0,0.9,0.3,0.9,0.8C307.7,64.1,307.3,64.5,306.8,64.5z
			 M306.1,72.7v-7h1.5v7H306.1z"/>
		<path d="M312,72.9c-2.1,0-3.2-1.6-3.2-3.7c0-2.1,1.1-3.7,3.2-3.7c2.1,0,3.2,1.6,3.2,3.7C315.2,71.3,314.2,72.9,312,72.9z
			 M312,66.5c-1.3,0-1.7,1.4-1.7,2.7c0,1.4,0.4,2.6,1.7,2.6c1.3,0,1.7-1.3,1.7-2.6C313.7,67.9,313.3,66.5,312,66.5z"/>
		<path d="M320.8,72.7v-5c0-0.9-0.8-1.2-1.6-1.2c-0.5,0-0.9,0.1-1.2,0.2v6h-1.5V66c0.6-0.3,1.7-0.5,2.8-0.5c1.8,0,3,0.6,3,2.1v5
			L320.8,72.7L320.8,72.7z"/>
		<path d="M326.5,72.9c-2,0-3-0.8-3-2.2c0-1.9,2-2.4,4.3-2.6v-0.4c0-1-0.6-1.2-1.6-1.2c-0.7,0-1.4,0.2-1.9,0.4l-0.3-0.9
			c0.5-0.2,1.4-0.5,2.5-0.5c1.5,0,2.7,0.6,2.7,2.4v4.4C328.6,72.7,327.7,72.9,326.5,72.9z M327.8,68.8c-1.7,0.2-2.9,0.5-2.9,1.9
			c0,0.9,0.7,1.4,1.7,1.4c0.5,0,0.9-0.1,1.2-0.2L327.8,68.8L327.8,68.8z"/>
		<path d="M330.7,72.7v-3.4v-6.8h1.5V66v6.7C332.2,72.7,330.7,72.7,330.7,72.7z"/>
		<path d="M338.1,72.9c-1.1,0-2-0.3-2.4-0.5l0.4-1.1c0.3,0.2,1,0.4,1.7,0.4c1,0,1.8-0.6,1.8-1.5c0-2-3.7-1.2-3.7-4
			c0-1.4,1.2-2.6,2.9-2.6c1,0,1.7,0.3,2.1,0.5l-0.4,1c-0.3-0.2-0.9-0.4-1.6-0.4c-1,0-1.6,0.6-1.6,1.4c0,1.9,3.8,1.1,3.8,4
			C341.2,71.7,340,72.9,338.1,72.9z"/>
		<path d="M345,72.8c-1.4,0-2-0.9-2-1.9v-4.3h-1v-0.9h1v-1.6l1.5-0.4v2h1.4v0.9h-1.4v4.3c0,0.6,0.3,1,0.9,1c0.1,0,0.3,0,0.4-0.1v0.9
			C345.7,72.8,345.4,72.8,345,72.8z"/>
		<path d="M349.7,72.9c-2,0-3-0.8-3-2.2c0-1.9,2-2.4,4.3-2.6v-0.4c0-1-0.6-1.2-1.6-1.2c-0.7,0-1.4,0.2-1.9,0.4l-0.3-0.9
			c0.5-0.2,1.4-0.5,2.5-0.5c1.5,0,2.7,0.6,2.7,2.4v4.4C351.8,72.7,350.8,72.9,349.7,72.9z M351,68.8c-1.7,0.2-2.9,0.5-2.9,1.9
			c0,0.9,0.7,1.4,1.7,1.4c0.5,0,0.9-0.1,1.2-0.2L351,68.8L351,68.8z"/>
		<path d="M356.4,72.8c-1.4,0-2-0.9-2-1.9v-4.3h-1v-0.9h1v-1.6l1.5-0.4v2h1.4v0.9h-1.4v4.3c0,0.6,0.3,1,0.9,1c0.1,0,0.3,0,0.4-0.1
			v0.9C357.1,72.8,356.8,72.8,356.4,72.8z"/>
		<path d="M359.2,64.5c-0.5,0-0.9-0.3-0.9-0.8c0-0.4,0.4-0.8,0.9-0.8c0.5,0,0.9,0.3,0.9,0.8C360,64.1,359.7,64.5,359.2,64.5z
			 M358.4,72.7v-7h1.5v7H358.4z"/>
		<path d="M363.2,72.9c-0.9,0-1.7-0.3-2.1-0.5l0.4-1c0.3,0.2,0.9,0.4,1.5,0.4c0.8,0,1.4-0.5,1.4-1.1c0-1.7-3.1-0.9-3.1-3.2
			c0-1,0.9-2,2.4-2c0.9,0,1.5,0.2,2,0.5l-0.4,0.9c-0.2-0.2-0.7-0.4-1.3-0.4c-0.8,0-1.2,0.5-1.2,1c0,1.6,3.1,0.9,3.1,3.2
			C365.9,71.8,364.9,72.9,363.2,72.9z"/>
		<path d="M369.7,72.8c-1.4,0-2-0.9-2-1.9v-4.3h-1v-0.9h1v-1.6l1.5-0.4v2h1.4v0.9h-1.4v4.3c0,0.6,0.3,1,0.9,1c0.1,0,0.3,0,0.4-0.1
			v0.9C370.4,72.8,370.1,72.8,369.7,72.8z"/>
		<path d="M372.5,64.5c-0.5,0-0.9-0.3-0.9-0.8c0-0.4,0.4-0.8,0.9-0.8c0.5,0,0.9,0.3,0.9,0.8C373.3,64.1,372.9,64.5,372.5,64.5z
			 M371.7,72.7v-7h1.5v7H371.7z"/>
		<path d="M377.5,72.9c-1.7,0-3-1.4-3-3.7c0-2.3,1.4-3.7,3-3.7c0.9,0,1.4,0.3,1.8,0.5l-0.3,0.9c-0.2-0.2-0.6-0.3-1.1-0.3
			c-1.2,0-1.8,1.1-1.8,2.6c0,1.6,0.7,2.6,1.8,2.6c0.5,0,0.9-0.2,1.1-0.3l0.4,0.9C379,72.6,378.4,72.9,377.5,72.9z"/>
		<path d="M382.1,72.9c-0.9,0-1.7-0.3-2.1-0.5l0.4-1c0.3,0.2,0.9,0.4,1.5,0.4c0.8,0,1.4-0.5,1.4-1.1c0-1.7-3.1-0.9-3.1-3.2
			c0-1,0.9-2,2.4-2c0.9,0,1.5,0.2,2,0.5l-0.4,0.9c-0.2-0.2-0.7-0.4-1.3-0.4c-0.8,0-1.2,0.5-1.2,1c0,1.6,3.1,0.9,3.1,3.2
			C384.9,71.8,383.8,72.9,382.1,72.9z"/>
	</g>
	<g>
		<path d="M215,68.9c0.2-0.5,0.4-0.8,0.6-1.3c-0.3-0.7-0.5-1.1-0.6-1.8C215,67,215,67.9,215,68.9z M216.4,60.2c0,0-1.4,0-1.4,1.7
			c0,0.1,0-0.2,0,0.3c0.2,1.6,0.6,3.2,1.2,4.6c0.8-1.2,1.5-2,2.6-3c2.2-1.9,4.9-3,9-3.6H216.4z"/>
		<path d="M229.8,61.1c-4.7,0.5-7.9,1.8-10.2,3.8c-1.2,1.1-2,1.9-2.8,3.3c1.8,3.5,5.5,6.4,11.2,6.8h0.1c0,0,1.7,0,1.7-1.9
			L229.8,61.1C229.9,61.1,229.8,61.1,229.8,61.1z M217.7,71.1c-0.6-0.6-1-1.3-1.4-2c-0.5,0.9-0.9,2-1.3,3.1c0,1.7,0,2.9,0,2.9h8.7
			C220.9,74.2,219.3,72.9,217.7,71.1z"/>
	</g>
</g>
<g>
	<g>
		<path class="st3" d="M237.8,27.5c-2.5,0-3.6-2.1-3.6-4.6c0-2.5,1.1-4.6,3.6-4.6c2.5,0,3.6,2.1,3.6,4.6S240.3,27.5,237.8,27.5z
			 M237.8,18.9c-1.8,0-2.5,2-2.5,3.9c0,1.8,0.6,3.8,2.5,3.8c1.9,0,2.5-2,2.5-3.8C240.3,20.9,239.7,18.9,237.8,18.9z"/>
		<path class="st3" d="M244.6,20.9v6.4h-1v-6.4h-1v-0.6h1v-1c0-1.3,0.8-2.2,2.2-2.2c0.1,0,0.3,0,0.3,0v0.6h-0.1
			c-0.7,0-1.3,0.5-1.3,1.4v1.1h1.4v0.6L244.6,20.9L244.6,20.9z"/>
		<path class="st3" d="M248.7,20.9v6.4h-1v-6.4h-1v-0.6h1v-1c0-1.3,0.8-2.2,2.2-2.2c0.1,0,0.3,0,0.3,0v0.6h-0.1
			c-0.7,0-1.3,0.5-1.3,1.4v1.1h1.4v0.6L248.7,20.9L248.7,20.9z"/>
		<path class="st3" d="M251.8,19c-0.3,0-0.6-0.3-0.6-0.6s0.3-0.6,0.6-0.6c0.3,0,0.6,0.3,0.6,0.6C252.5,18.7,252.2,19,251.8,19z
			 M251.3,27.3v-7h1v7H251.3z"/>
		<path class="st3" d="M256.7,27.5c-1.7,0-2.9-1.4-2.9-3.7c0-2.3,1.3-3.7,3-3.7c0.9,0,1.4,0.2,1.7,0.5l-0.3,0.6
			c-0.2-0.2-0.6-0.4-1.2-0.4c-1.4,0-2.1,1.2-2.1,2.9c0,1.7,0.9,2.9,2.1,2.9c0.5,0,0.9-0.2,1.2-0.4l0.3,0.7
			C258.2,27.2,257.6,27.5,256.7,27.5z"/>
		<path class="st3" d="M260.2,24.2c0.1,1.7,1,2.5,2.5,2.5c0.9,0,1.5-0.2,1.9-0.4l0.3,0.7c-0.4,0.3-1.3,0.5-2.3,0.5
			c-2,0-3.4-1.2-3.4-3.7c0-2.4,1.3-3.6,3-3.6c1.8,0,2.9,1.1,2.9,3.4L260.2,24.2z M262.2,20.8c-1.2,0-2.1,0.9-2.1,2.9l4-0.6
			C264.1,21.5,263.3,20.8,262.2,20.8z"/>
		<path class="st3" d="M270,20.9v6.4h-1v-6.4h-1v-0.6h1v-1c0-1.3,0.8-2.2,2.2-2.2c0.1,0,0.3,0,0.3,0v0.6h-0.1
			c-0.7,0-1.3,0.5-1.3,1.4v1.1h1.4v0.6L270,20.9L270,20.9z"/>
		<path class="st3" d="M275.2,27.5c-2,0-3-1.6-3-3.7c0-2,0.9-3.7,3-3.7s3,1.6,3,3.7C278.1,25.9,277.2,27.5,275.2,27.5z M275.2,20.8
			c-1.5,0-2,1.5-2,3s0.5,2.9,2,2.9c1.5,0,2-1.5,2-2.9S276.7,20.8,275.2,20.8z"/>
		<path class="st3" d="M282.6,20.9c-0.6-0.2-1.6-0.1-2,0.1v6.2h-1v-6.7c0.7-0.3,1.5-0.5,2.8-0.5c0.2,0,0.4,0,0.5,0L282.6,20.9z"/>
		<path class="st3" d="M291.7,27.4l-4-6.1c-0.3-0.5-0.5-0.9-0.5-0.9h0c0,0,0,0.5,0,1.1v6H286v-9h1.4l3.8,5.8
			c0.3,0.5,0.5,0.9,0.5,0.9h0c0,0,0-0.5,0-1v-5.7h1.3v8.9H291.7z"/>
		<path class="st3" d="M297.3,27.5c-2,0-3-0.8-3-2.2c0-1.9,2-2.4,4.3-2.6v-0.4c0-1-0.6-1.2-1.6-1.2c-0.7,0-1.4,0.2-1.9,0.4l-0.3-0.9
			c0.5-0.2,1.4-0.5,2.5-0.5c1.5,0,2.7,0.6,2.7,2.4V27C299.4,27.3,298.5,27.5,297.3,27.5z M298.6,23.5c-1.7,0.2-2.9,0.5-2.9,1.9
			c0,0.9,0.7,1.4,1.7,1.4c0.5,0,0.9-0.1,1.2-0.2L298.6,23.5L298.6,23.5z"/>
		<path class="st3" d="M304.1,27.5c-1.4,0-2-0.9-2-1.9v-4.3h-1v-0.9h1v-1.6l1.5-0.4v2h1.4v0.9h-1.4v4.3c0,0.6,0.3,1,0.9,1
			c0.1,0,0.3,0,0.4-0.1v0.9C304.7,27.5,304.4,27.5,304.1,27.5z"/>
		<path class="st3" d="M306.8,19.2c-0.5,0-0.9-0.3-0.9-0.8c0-0.4,0.4-0.8,0.9-0.8c0.5,0,0.9,0.3,0.9,0.8
			C307.7,18.8,307.3,19.2,306.8,19.2z M306.1,27.4v-7h1.5v7H306.1z"/>
		<path class="st3" d="M312,27.5c-2.1,0-3.2-1.6-3.2-3.7s1.1-3.7,3.2-3.7c2.1,0,3.2,1.6,3.2,3.7S314.2,27.5,312,27.5z M312,21.1
			c-1.3,0-1.7,1.4-1.7,2.7c0,1.4,0.4,2.6,1.7,2.6c1.3,0,1.7-1.3,1.7-2.6C313.7,22.5,313.3,21.1,312,21.1z"/>
		<path class="st3" d="M320.8,27.4v-5c0-0.9-0.8-1.2-1.6-1.2c-0.5,0-0.9,0.1-1.2,0.2v6h-1.5v-6.7c0.6-0.3,1.7-0.5,2.8-0.5
			c1.8,0,3,0.6,3,2.1v5L320.8,27.4L320.8,27.4z"/>
		<path class="st3" d="M326.5,27.5c-2,0-3-0.8-3-2.2c0-1.9,2-2.4,4.3-2.6v-0.4c0-1-0.6-1.2-1.6-1.2c-0.7,0-1.4,0.2-1.9,0.4l-0.3-0.9
			c0.5-0.2,1.4-0.5,2.5-0.5c1.5,0,2.7,0.6,2.7,2.4V27C328.6,27.3,327.6,27.5,326.5,27.5z M327.8,23.5c-1.7,0.2-2.9,0.5-2.9,1.9
			c0,0.9,0.7,1.4,1.7,1.4c0.5,0,0.9-0.1,1.2-0.2L327.8,23.5L327.8,23.5z"/>
		<path class="st3" d="M330.7,27.4V24v-6.8h1.5v3.5v6.7C332.2,27.4,330.7,27.4,330.7,27.4z"/>
		<path class="st3" d="M338.1,27.5c-1.1,0-2-0.3-2.4-0.5l0.4-1.1c0.3,0.2,1,0.4,1.7,0.4c1,0,1.8-0.6,1.8-1.5c0-2-3.7-1.2-3.7-4
			c0-1.4,1.2-2.6,2.9-2.6c1,0,1.7,0.3,2.1,0.5l-0.4,1c-0.3-0.2-0.9-0.4-1.6-0.4c-1,0-1.6,0.6-1.6,1.4c0,1.9,3.8,1.1,3.8,4
			C341.2,26.3,340,27.5,338.1,27.5z"/>
		<path class="st3" d="M345,27.5c-1.4,0-2-0.9-2-1.9v-4.3h-1v-0.9h1v-1.6l1.5-0.4v2h1.4v0.9h-1.4v4.3c0,0.6,0.3,1,0.9,1
			c0.1,0,0.3,0,0.4-0.1v0.9C345.7,27.5,345.4,27.5,345,27.5z"/>
		<path class="st3" d="M349.7,27.5c-2,0-3-0.8-3-2.2c0-1.9,2-2.4,4.3-2.6v-0.4c0-1-0.6-1.2-1.6-1.2c-0.7,0-1.4,0.2-1.9,0.4l-0.3-0.9
			c0.5-0.2,1.4-0.5,2.5-0.5c1.5,0,2.7,0.6,2.7,2.4V27C351.8,27.3,350.8,27.5,349.7,27.5z M351,23.5c-1.7,0.2-2.9,0.5-2.9,1.9
			c0,0.9,0.7,1.4,1.7,1.4c0.5,0,0.9-0.1,1.2-0.2L351,23.5L351,23.5z"/>
		<path class="st3" d="M356.4,27.5c-1.4,0-2-0.9-2-1.9v-4.3h-1v-0.9h1v-1.6l1.5-0.4v2h1.4v0.9h-1.4v4.3c0,0.6,0.3,1,0.9,1
			c0.1,0,0.3,0,0.4-0.1v0.9C357.1,27.5,356.8,27.5,356.4,27.5z"/>
		<path class="st3" d="M359.2,19.2c-0.5,0-0.9-0.3-0.9-0.8c0-0.4,0.4-0.8,0.9-0.8c0.5,0,0.9,0.3,0.9,0.8
			C360,18.8,359.6,19.2,359.2,19.2z M358.4,27.4v-7h1.5v7H358.4z"/>
		<path class="st3" d="M363.2,27.5c-0.9,0-1.7-0.3-2.1-0.5l0.4-1c0.3,0.2,0.9,0.4,1.5,0.4c0.8,0,1.4-0.5,1.4-1.1
			c0-1.7-3.1-0.9-3.1-3.2c0-1,0.9-2,2.4-2c0.9,0,1.5,0.2,2,0.5l-0.4,0.9c-0.2-0.2-0.7-0.4-1.3-0.4c-0.8,0-1.2,0.5-1.2,1
			c0,1.6,3.1,0.9,3.1,3.2C365.9,26.5,364.9,27.5,363.2,27.5z"/>
		<path class="st3" d="M369.7,27.5c-1.4,0-2-0.9-2-1.9v-4.3h-1v-0.9h1v-1.6l1.5-0.4v2h1.4v0.9h-1.4v4.3c0,0.6,0.3,1,0.9,1
			c0.1,0,0.3,0,0.4-0.1v0.9C370.4,27.5,370.1,27.5,369.7,27.5z"/>
		<path class="st3" d="M372.4,19.2c-0.5,0-0.9-0.3-0.9-0.8c0-0.4,0.4-0.8,0.9-0.8c0.5,0,0.9,0.3,0.9,0.8
			C373.3,18.8,372.9,19.2,372.4,19.2z M371.7,27.4v-7h1.5v7H371.7z"/>
		<path class="st3" d="M377.5,27.5c-1.7,0-3-1.4-3-3.7c0-2.3,1.4-3.7,3-3.7c0.9,0,1.4,0.3,1.8,0.5l-0.3,0.9
			c-0.2-0.2-0.6-0.3-1.1-0.3c-1.2,0-1.8,1.1-1.8,2.6c0,1.6,0.7,2.6,1.8,2.6c0.5,0,0.9-0.2,1.1-0.3l0.4,0.9
			C379,27.3,378.4,27.5,377.5,27.5z"/>
		<path class="st3" d="M382.1,27.5c-0.9,0-1.7-0.3-2.1-0.5l0.4-1c0.3,0.2,0.9,0.4,1.5,0.4c0.8,0,1.4-0.5,1.4-1.1
			c0-1.7-3.1-0.9-3.1-3.2c0-1,0.9-2,2.4-2c0.9,0,1.5,0.2,2,0.5l-0.4,0.9c-0.2-0.2-0.7-0.4-1.3-0.4c-0.8,0-1.2,0.5-1.2,1
			c0,1.6,3.1,0.9,3.1,3.2C384.8,26.5,383.8,27.5,382.1,27.5z"/>
	</g>
	<g>
		<path class="st2" d="M215,23.5c0.2-0.5,0.4-0.8,0.6-1.3c-0.3-0.7-0.5-1.1-0.6-1.8C215,21.7,215,22.5,215,23.5z M216.4,14.8
			c0,0-1.4,0-1.4,1.7c0,0.1,0-0.2,0,0.3c0.2,1.6,0.6,3.2,1.2,4.6c0.8-1.2,1.5-2,2.6-3c2.2-1.9,4.9-3,9-3.6H216.4z"/>
		<path class="st3" d="M229.8,15.8c-4.7,0.5-7.9,1.8-10.2,3.8c-1.2,1.1-2,1.9-2.8,3.3c1.8,3.5,5.5,6.4,11.2,6.8h0.1
			c0,0,1.7,0,1.7-1.9L229.8,15.8C229.8,15.8,229.8,15.8,229.8,15.8z M217.7,25.7c-0.6-0.6-1-1.3-1.4-2c-0.5,0.9-0.9,2-1.3,3.1
			c0,1.7,0,2.9,0,2.9h8.7C220.9,28.9,219.3,27.6,217.7,25.7z"/>
	</g>
</g>
</svg>
