<?xml version="1.0" encoding="utf-8"?>
<!-- Generator: Adobe Illustrator 21.0.2, SVG Export Plug-In . SVG Version: 6.00 Build 0)  -->
<svg version="1.1" id="Layer_1" xmlns="http://www.w3.org/2000/svg" xmlns:xlink="http://www.w3.org/1999/xlink" x="0px" y="0px"
	 viewBox="0 0 307.8 62.3" style="enable-background:new 0 0 307.8 62.3;" xml:space="preserve">
<style type="text/css">
	.st0{fill:#A7BC39;}
	.st1{fill:#003C57;}
</style>
<g>
	<g>
		<path class="st0" d="M0,34.1c0.9-1.8,1.7-3.5,2.7-5.2c-1.1-2.7-2-5.5-2.7-8.3C0,25.3,0,30.2,0,34.1z M5.3,0C5.3,0,0,0,0,6.5
			C0,6.9,0,8.2,0,10c0.5,6,1.7,11.8,3.8,17.2c2.9-4.7,6.5-8.9,10.8-12.6C23.1,7.3,34.6,2.2,50.2,0H5.3z"/>
		<path class="st1" d="M56.1,3.6c-17.8,1.7-30,6.8-38.7,14.2C12.7,21.8,9,26.5,6,31.9c6.8,13.3,19.9,23,41.6,24.4h2.1
			c0,0,6.7,0.2,6.7-7.2V3.5C56.3,3.5,56.2,3.6,56.1,3.6z M10.3,41.4c-2-2.4-3.8-5-5.3-7.7c-1.9,3.6-3.5,7.5-5,11.6c0,6.4,0,11,0,11
			l35.6,0.1C24.5,53.6,16.2,48.3,10.3,41.4z"/>
	</g>
	<g>
		<path class="st1" d="M74.2,25.3c-2.2,0-4-0.5-5-1l0.7-1.7c0.8,0.5,2.3,0.9,3.9,0.9c2.6,0,4.5-1.6,4.5-3.9c0-4.9-8.7-2.9-8.7-9
			c0-2.9,2.3-5.5,6.1-5.5c2,0,3.6,0.5,4.4,1l-0.7,1.5c-0.7-0.5-2.1-0.9-3.5-0.9c-2.4,0-4,1.5-4,3.7c0,4.7,8.8,2.6,8.8,9.1
			C80.7,22.9,78,25.3,74.2,25.3z"/>
		<path class="st1" d="M99,24.9h-2l-3.5-11.2c-0.3-0.9-0.4-1.8-0.4-1.8H93c0,0-0.1,0.9-0.4,1.8L89,24.9h-2L82.2,9.6h2.4l3.2,11.2
			c0.3,1,0.4,2,0.4,2h0.1c0,0,0.1-0.9,0.4-2l3.5-11.2h2.1l3.4,11.2c0.3,0.9,0.4,2,0.4,2h0.1c0,0,0.2-1.1,0.4-2l3.2-11.2h2.1L99,24.9
			z"/>
		<path class="st1" d="M110.6,31h-2.5l2.7-6.1l-5.6-15.3h2.4l3.7,11.2c0.3,1,0.5,2.1,0.5,2.1h0.1c0,0,0.2-1,0.6-2.1l3.8-11.2h2.1
			L110.6,31z"/>
		<path class="st1" d="M127.1,25.3c-4.8,0-7.2-3-7.2-7.7c0-5.1,2.9-8.2,7.2-8.2c1.1,0,2.1,0.1,2.8,0.3V2.6h2.2v21.5
			C131.1,24.8,129.3,25.3,127.1,25.3z M129.9,11c-0.7-0.2-1.5-0.3-2.4-0.3c-4,0-5.4,3.3-5.4,6.6c0,3.9,1.5,6.4,5.1,6.4
			c1.1,0,2.2-0.3,2.7-0.6V11L129.9,11z"/>
		<path class="st1" d="M142.4,25.3c-4.8,0-7.2-3-7.2-7.7c0-5.1,2.9-8.2,7.2-8.2c1.1,0,2.1,0.1,2.8,0.3V2.6h2.2v21.5
			C146.3,24.8,144.6,25.3,142.4,25.3z M145.2,11c-0.7-0.2-1.5-0.3-2.4-0.3c-4,0-5.4,3.3-5.4,6.6c0,3.9,1.5,6.4,5.1,6.4
			c1.1,0,2.2-0.3,2.7-0.6L145.2,11L145.2,11z"/>
		<path class="st1" d="M154.5,11v13.9h-2.2V11H150V9.6h2.3V7.4c0-2.8,1.6-4.8,4.9-4.8c0.2,0,0.5,0,0.5,0V4h-0.3
			c-1.5,0-2.9,1-2.9,3.1v2.5h3.2V11H154.5z"/>
		<path class="st1" d="M165.1,25.3c-4.2,0-6.1-1.8-6.1-4.5c0-4.2,4.3-5.3,9.5-5.8v-0.9c0-2.5-1.7-3.2-3.9-3.2c-1.4,0-3,0.4-4,0.9
			l-0.6-1.4c1-0.5,2.8-1,4.9-1c3.1,0,5.7,1.2,5.7,5v10C169.2,24.9,167.3,25.3,165.1,25.3z M168.4,16.2c-4.4,0.5-7.3,1.3-7.3,4.6
			c0,2.3,1.7,3.2,4.2,3.2c1.3,0,2.4-0.3,3.1-0.6V16.2z"/>
		<path class="st1" d="M77.7,47.3v8.5h-3.4v-8.5l-6-11h3.6l4.1,8.3h0.1l4.3-8.3h3.3L77.7,47.3z"/>
		<path class="st1" d="M89.3,56.2c-1.9,0-3.7-0.5-4.6-1.1l0.9-2.1c0.7,0.5,2,0.9,3.3,0.9c1.7,0,3-1.1,3-2.4c0-3.6-6.7-1.9-6.7-6.9
			c0-2.3,2-4.5,5.3-4.5c1.9,0,3.3,0.5,4.3,1.1l-0.9,1.9c-0.5-0.3-1.5-0.9-2.8-0.9c-1.7,0-2.7,1-2.7,2.2c0,3.4,6.8,1.9,6.8,7
			C95.2,53.9,92.9,56.2,89.3,56.2z"/>
		<path class="st1" d="M103.5,56.2c-3.2,0-4.4-2.1-4.4-4.1v-9.5H97v-2h2.1v-3.4l3.3-0.9v4.3h3v2h-3v9.3c0,1.2,0.7,2.1,2.1,2.1
			c0.3,0,0.6-0.1,0.9-0.1v2C105,56,104.4,56.2,103.5,56.2z"/>
		<path class="st1" d="M113.7,56.2c-4.5,0-6.6-1.8-6.6-4.7c0-4.1,4.3-5.2,9.4-5.7v-0.9c0-2.1-1.4-2.7-3.5-2.7
			c-1.5,0-3.2,0.4-4.1,0.9l-0.8-1.9c1.1-0.5,3.1-1.1,5.5-1.1c3.4,0,6,1.4,6,5.3v9.7C118.3,55.8,116.2,56.2,113.7,56.2z M116.5,47.4
			c-3.8,0.4-6.3,1.1-6.3,4.1c0,2.1,1.5,2.9,3.8,2.9c1.1,0,2-0.2,2.6-0.5L116.5,47.4L116.5,47.4z"/>
		<path class="st1" d="M129.9,56.2c-4.9,0-7.6-2.9-7.6-7.8c0-5,3-8.1,7.3-8.1c1.1,0,2,0.1,2.7,0.3v-7h3.3v21.5
			C134.2,55.8,132.4,56.2,129.9,56.2z M132.2,42.3c-0.6-0.1-1.2-0.2-2-0.2c-3.4,0-4.7,2.8-4.7,6.1c0,3.7,1.3,5.9,4.4,5.9
			c0.9,0,1.8-0.2,2.2-0.5V42.3H132.2z"/>
		<path class="st1" d="M141.3,49.4c0.3,3,2,4.6,4.8,4.6c1.9,0,3.4-0.5,4.3-0.9l0.8,2.1c-1.1,0.5-2.9,1.1-5.4,1.1
			c-4.7,0-7.7-2.8-7.7-8.1c0-5,2.8-8,7-8c4.3,0,6.6,2.7,6.6,7.8L141.3,49.4z M145.1,42.1c-2.2,0-4,1.8-3.9,5.6l7.5-1
			C148.6,43.5,147.2,42.1,145.1,42.1z"/>
		<path class="st1" d="M160.3,62.3c-2.4,0-4.6-0.5-5.7-1.1l0.9-2.1c0.9,0.5,2.7,0.9,4.4,0.9c2.9,0,4.1-1.5,4.1-3.6v-1
			c-0.7,0.4-1.9,0.6-3.4,0.6c-4,0-6.6-2.9-6.6-7.5c0-4.9,2.7-8.4,7.9-8.4c2.3,0,4.3,0.5,5.3,1.1V56
			C167.2,60.1,164.4,62.3,160.3,62.3z M163.9,42.6c-0.5-0.3-1.2-0.5-2.2-0.5c-3,0-4.4,2.4-4.4,6.3c0,3.8,1.5,5.8,4.3,5.8
			c0.9,0,1.9-0.2,2.4-0.5V42.6H163.9z"/>
		<path class="st1" d="M176.3,56.2c-4.5,0-6.6-1.8-6.6-4.7c0-4.1,4.3-5.2,9.4-5.7v-0.9c0-2.1-1.4-2.7-3.5-2.7
			c-1.5,0-3.2,0.4-4.1,0.9l-0.8-1.9c1.1-0.5,3.1-1.1,5.5-1.1c3.4,0,6,1.4,6,5.3v9.7C180.9,55.8,178.9,56.2,176.3,56.2z M179.1,47.4
			c-3.8,0.4-6.3,1.1-6.3,4.1c0,2.1,1.5,2.9,3.8,2.9c1.1,0,2-0.2,2.6-0.5v-6.5H179.1z"/>
		<path class="st1" d="M191.7,56.2c-4.3,0-6.2-2-6.2-5.3V40.6h3.3v10.6c0,1.6,1,2.9,3.1,2.9c1.2,0,2.2-0.2,2.8-0.5v-13h3.3v14.6
			C196.7,55.7,194.5,56.2,191.7,56.2z"/>
		<path class="st1" d="M217.8,56.2c-5.6,0-9.4-3.6-9.4-10.2c0-6.3,4.1-10,9.6-10c2.6,0,4.2,0.5,5.3,1.1l-0.8,2.1
			c-0.7-0.4-2.2-0.7-4-0.7c-3.7,0-6.5,2.3-6.5,7.7c0,5.1,2.6,7.8,5.7,7.8c1.2,0,2.2-0.2,2.7-0.5v-6.7H217v-2h6.7v10.4
			C222.3,55.8,220.4,56.2,217.8,56.2z"/>
		<path class="st1" d="M243.7,55.8h-3l-3-10c-0.3-1-0.4-2-0.4-2h-0.1c0,0-0.1,1-0.4,2l-3.1,10h-3L226,40.5h3.4l2.7,10.2
			c0.3,1.1,0.4,2.1,0.4,2.1h0.1c0,0,0.1-1,0.4-2.1l3-10.2h2.9l2.9,10.2c0.3,1,0.4,2.1,0.4,2.1h0.1c0,0,0.1-1.1,0.4-2.1l2.8-10.2h3
			L243.7,55.8z"/>
		<path class="st1" d="M250.7,55.8V33.6h3.3v9.6v12.6C254,55.8,250.7,55.8,250.7,55.8z"/>
		<path class="st1" d="M263.3,56.2c-4.5,0-6.6-1.8-6.6-4.7c0-4.1,4.3-5.2,9.4-5.7v-0.9c0-2.1-1.4-2.7-3.5-2.7
			c-1.5,0-3.2,0.4-4.1,0.9l-0.8-1.9c1.1-0.5,3.1-1.1,5.5-1.1c3.4,0,6,1.4,6,5.3v9.7C267.9,55.8,265.8,56.2,263.3,56.2z M266.1,47.4
			c-3.8,0.4-6.3,1.1-6.3,4.1c0,2.1,1.5,2.9,3.7,2.9c1.1,0,2-0.2,2.6-0.5L266.1,47.4L266.1,47.4z"/>
		<path class="st1" d="M279.5,56.2c-4.9,0-7.6-2.9-7.6-7.8c0-5,3-8.1,7.3-8.1c1.1,0,2,0.1,2.7,0.3v-7h3.3v21.5
			C283.8,55.8,282,56.2,279.5,56.2z M281.8,42.3c-0.6-0.1-1.2-0.2-2-0.2c-3.4,0-4.7,2.8-4.7,6.1c0,3.7,1.3,5.9,4.4,5.9
			c0.9,0,1.8-0.2,2.2-0.5V42.3H281.8z"/>
		<path class="st1" d="M294.8,56.2c-4.7,0-7-3.5-7-8c0-4.6,2.3-8,7-8s7,3.5,7,8C301.7,52.8,299.4,56.2,294.8,56.2z M294.8,42.3
			c-2.8,0-3.6,2.9-3.6,5.9s0.9,5.8,3.6,5.8c2.8,0,3.6-2.8,3.6-5.8S297.6,42.3,294.8,42.3z"/>
		<path class="st1" d="M304.5,55.8V41.6v-8h3.3v22.2H304.5z"/>
	</g>
</g>
</svg>
