<?xml version="1.0" encoding="utf-8"?>
<!-- Generator: Adobe Illustrator 21.0.2, SVG Export Plug-In . SVG Version: 6.00 Build 0)  -->
<svg version="1.1" id="Layer_1" xmlns="http://www.w3.org/2000/svg" xmlns:xlink="http://www.w3.org/1999/xlink" x="0px" y="0px"
	 width="225px" height="89.8px" viewBox="0 0 225 89.8" style="enable-background:new 0 0 225 89.8;" xml:space="preserve">
<style type="text/css">
	.st0{fill:#003C57;}
	.st1{fill:#A7BC39;}
	.st2{fill:#BBBDBF;}
	.st3{fill:#414042;}
	.st4{font-family:'OpenSans';}
	.st5{font-size:16px;}
</style>
<g>
	<path class="st0" d="M30.3,16.7c-3.3,0-4.8-2.8-4.8-6.2c0-3.3,1.5-6.2,4.8-6.2s4.8,2.8,4.8,6.2S33.6,16.7,30.3,16.7z M30.3,5.4
		C27.8,5.4,27,8,27,10.5s0.8,5.1,3.3,5.1s3.3-2.7,3.3-5.1C33.6,8,32.7,5.4,30.3,5.4z"/>
	<path class="st0" d="M39.2,8v8.4h-1.3V8h-1.3V7.2h1.3V5.8c0-1.7,1-2.9,2.9-2.9c0.2,0,0.3,0,0.3,0v0.9h-0.2c-0.9,0-1.7,0.6-1.7,1.9
		v1.5h1.9V8H39.2L39.2,8z"/>
	<path class="st0" d="M44.7,8v8.4h-1.3V8h-1.3V7.2h1.3V5.8c0-1.7,1-2.9,2.9-2.9c0.2,0,0.3,0,0.3,0v0.9h-0.2c-0.9,0-1.7,0.6-1.7,1.9
		v1.5h1.9V8H44.7L44.7,8z"/>
	<path class="st0" d="M48.9,5.5c-0.5,0-0.9-0.3-0.9-0.9s0.4-0.9,0.9-0.9s0.9,0.4,0.9,0.9S49.4,5.5,48.9,5.5z M48.2,16.5V7.2h1.3v9.2
		h-1.3V16.5z"/>
	<path class="st0" d="M55.4,16.7c-2.2,0-3.9-1.9-3.9-4.9c0-3.1,1.7-4.9,4-4.9c1.1,0,1.9,0.3,2.3,0.6l-0.3,0.9
		c-0.3-0.2-0.9-0.5-1.7-0.5c-1.9,0-2.9,1.7-2.9,3.9c0,2.3,1.1,3.9,2.9,3.9c0.7,0,1.3-0.2,1.7-0.5l0.3,0.9
		C57.3,16.4,56.5,16.7,55.4,16.7z"/>
	<path class="st0" d="M59.9,12.4c0.2,2.2,1.3,3.3,3.3,3.3c1.1,0,2.1-0.3,2.5-0.6L66,16c-0.6,0.3-1.7,0.6-3,0.6
		c-2.6,0-4.5-1.5-4.5-4.9c0-3.2,1.7-4.8,4-4.8c2.4,0,3.8,1.5,3.8,4.5L59.9,12.4z M62.5,7.9c-1.5,0-2.8,1.2-2.8,3.8L65,11
		C65.1,8.8,64,7.9,62.5,7.9z"/>
	<path class="st0" d="M72.9,8v8.4h-1.3V8h-1.3V7.2h1.3V5.8c0-1.7,1-2.9,2.9-2.9c0.1,0,0.3,0,0.3,0v0.9h-0.2c-0.9,0-1.7,0.6-1.7,1.9
		v1.5h1.9V8H72.9L72.9,8z"/>
	<path class="st0" d="M79.8,16.7c-2.7,0-4-2.1-4-4.9c0-2.7,1.3-4.9,4-4.9s4,2.1,4,4.9C83.7,14.6,82.5,16.7,79.8,16.7z M79.8,7.9
		c-2.1,0-2.6,2.1-2.6,4s0.6,3.9,2.6,3.9c2.1,0,2.6-2,2.6-3.9S81.8,7.9,79.8,7.9z"/>
	<path class="st0" d="M89.6,8c-0.9-0.2-2.1-0.2-2.7,0.2v8.2h-1.3V7.6c0.9-0.4,2-0.6,3.7-0.6c0.2,0,0.6,0,0.7,0L89.6,8z"/>
	<path class="st0" d="M101.8,16.6l-5.3-8.1c-0.4-0.6-0.7-1.2-0.7-1.2h-0.1c0,0,0.1,0.7,0.1,1.4v7.9h-1.7V4.8H96l5,7.6
		c0.5,0.7,0.7,1.3,0.7,1.3h0.1c0,0-0.1-0.7-0.1-1.3V4.8h1.7v11.8H101.8z"/>
	<path class="st0" d="M109.1,16.8c-2.7,0-4-1.1-4-2.9c0-2.5,2.6-3.2,5.7-3.5V10c0-1.3-0.9-1.7-2.1-1.7c-0.9,0-1.9,0.3-2.5,0.5
		l-0.5-1.1c0.6-0.3,1.9-0.7,3.3-0.7c2.1,0,3.6,0.9,3.6,3.2v5.9C111.9,16.5,110.7,16.8,109.1,16.8z M110.9,11.4
		c-2.3,0.2-3.9,0.7-3.9,2.5c0,1.3,0.9,1.8,2.3,1.8c0.6,0,1.2-0.1,1.5-0.3L110.9,11.4L110.9,11.4z"/>
	<path class="st0" d="M118.1,16.7c-1.9,0-2.7-1.3-2.7-2.5V8.5h-1.3V7.3h1.3v-2l2-0.6v2.7h1.8v1.2h-1.8v5.6c0,0.7,0.5,1.3,1.3,1.3
		c0.2,0,0.3-0.1,0.6-0.1v1.3C119,16.7,118.6,16.7,118.1,16.7z"/>
	<path class="st0" d="M121.7,5.8c-0.6,0-1.1-0.5-1.1-1c0-0.6,0.5-1,1.1-1s1.1,0.5,1.1,1C122.9,5.3,122.3,5.8,121.7,5.8z M120.8,16.6
		V7.3h2v9.2L120.8,16.6L120.8,16.6z"/>
	<path class="st0" d="M128.7,16.8c-2.9,0-4.3-2.1-4.3-4.9s1.4-4.9,4.3-4.9c2.9,0,4.3,2.1,4.3,4.9S131.5,16.8,128.7,16.8z M128.7,8.4
		c-1.7,0-2.2,1.8-2.2,3.6s0.6,3.5,2.2,3.5c1.7,0,2.2-1.7,2.2-3.5S130.3,8.4,128.7,8.4z"/>
	<path class="st0" d="M140.2,16.6V10c0-1.2-1-1.7-2.1-1.7c-0.6,0-1.3,0.1-1.6,0.3v8h-2V7.7c0.9-0.4,2.2-0.7,3.7-0.7
		c2.5,0,4,0.9,4,2.9v6.6L140.2,16.6L140.2,16.6z"/>
	<path class="st0" d="M147.8,16.8c-2.7,0-4-1.1-4-2.9c0-2.5,2.6-3.2,5.7-3.5V10c0-1.3-0.9-1.7-2.1-1.7c-0.9,0-1.9,0.3-2.5,0.5
		l-0.5-1.1c0.6-0.3,1.9-0.7,3.3-0.7c2.1,0,3.6,0.9,3.6,3.2v5.9C150.5,16.5,149.3,16.8,147.8,16.8z M149.5,11.4
		c-2.3,0.2-3.9,0.7-3.9,2.5c0,1.3,0.9,1.8,2.3,1.8c0.6,0,1.2-0.1,1.5-0.3L149.5,11.4L149.5,11.4z"/>
	<path class="st0" d="M153.4,16.6v-4.5v-9h2v4.6v8.9H153.4z"/>
	<path class="st0" d="M163.2,16.8c-1.4,0-2.6-0.3-3.2-0.7l0.6-1.5c0.5,0.3,1.3,0.6,2.3,0.6c1.3,0,2.4-0.8,2.4-2
		c0-2.6-4.9-1.6-4.9-5.3c0-1.9,1.5-3.5,3.9-3.5c1.3,0,2.3,0.3,2.9,0.7l-0.5,1.3c-0.5-0.3-1.3-0.6-2.1-0.6c-1.3,0-2.1,0.8-2.1,1.9
		c0,2.5,5.1,1.5,5.1,5.4C167.4,15.2,165.6,16.8,163.2,16.8z"/>
	<path class="st0" d="M172.4,16.7c-1.9,0-2.7-1.3-2.7-2.5V8.5h-1.3V7.3h1.3v-2l2-0.6v2.7h1.8v1.2h-1.8v5.6c0,0.7,0.5,1.3,1.3,1.3
		c0.2,0,0.3-0.1,0.6-0.1v1.3C173.3,16.7,172.9,16.7,172.4,16.7z"/>
	<path class="st0" d="M178.5,16.8c-2.7,0-4-1.1-4-2.9c0-2.5,2.6-3.2,5.7-3.5V10c0-1.3-0.9-1.7-2.1-1.7c-0.9,0-1.9,0.3-2.5,0.5
		l-0.5-1.1c0.6-0.3,1.9-0.7,3.3-0.7c2.1,0,3.6,0.9,3.6,3.2v5.9C181.3,16.5,180.1,16.8,178.5,16.8z M180.3,11.4
		c-2.3,0.2-3.9,0.7-3.9,2.5c0,1.3,0.9,1.8,2.3,1.8c0.6,0,1.2-0.1,1.5-0.3L180.3,11.4L180.3,11.4z"/>
	<path class="st0" d="M187.5,16.7c-1.9,0-2.7-1.3-2.7-2.5V8.5h-1.3V7.3h1.3v-2l2-0.6v2.7h1.8v1.2h-1.8v5.6c0,0.7,0.5,1.3,1.3,1.3
		c0.2,0,0.3-0.1,0.6-0.1v1.3C188.4,16.7,188,16.7,187.5,16.7z"/>
	<path class="st0" d="M191.2,5.8c-0.6,0-1.1-0.5-1.1-1c0-0.6,0.5-1,1.1-1s1.1,0.5,1.1,1S191.7,5.8,191.2,5.8z M190.1,16.6V7.3h2v9.2
		L190.1,16.6L190.1,16.6z"/>
	<path class="st0" d="M196.5,16.8c-1.1,0-2.3-0.3-2.9-0.7l0.5-1.3c0.4,0.3,1.2,0.6,2.1,0.6c1,0,1.8-0.7,1.8-1.5
		c0-2.2-4.1-1.2-4.1-4.2c0-1.3,1.3-2.7,3.2-2.7c1.1,0,2,0.3,2.6,0.7l-0.5,1.1c-0.3-0.2-0.9-0.5-1.7-0.5c-1,0-1.7,0.6-1.7,1.3
		c0,2.1,4.1,1.1,4.1,4.3C200.1,15.4,198.7,16.8,196.5,16.8z"/>
	<path class="st0" d="M205.1,16.7c-1.9,0-2.7-1.3-2.7-2.5V8.5h-1.3V7.3h1.3v-2l2-0.6v2.7h1.8v1.2h-1.8v5.6c0,0.7,0.5,1.3,1.3,1.3
		c0.2,0,0.3-0.1,0.6-0.1v1.3C206,16.7,205.6,16.7,205.1,16.7z"/>
	<path class="st0" d="M208.7,5.8c-0.6,0-1.1-0.5-1.1-1c0-0.6,0.5-1,1.1-1s1.1,0.5,1.1,1C209.9,5.3,209.4,5.8,208.7,5.8z M207.8,16.6
		V7.3h2v9.2L207.8,16.6L207.8,16.6z"/>
	<path class="st0" d="M215.4,16.8c-2.3,0-4-1.9-4-4.9c0-3.1,1.8-4.9,4-4.9c1.1,0,1.9,0.3,2.4,0.7l-0.5,1.1c-0.3-0.2-0.8-0.5-1.5-0.5
		c-1.7,0-2.5,1.4-2.5,3.5s0.9,3.5,2.5,3.5c0.6,0,1.1-0.2,1.5-0.5l0.5,1.3C217.4,16.5,216.6,16.8,215.4,16.8z"/>
	<path class="st0" d="M221.5,16.8c-1.1,0-2.3-0.3-2.9-0.7l0.5-1.3c0.4,0.3,1.2,0.6,2.1,0.6c1,0,1.8-0.7,1.8-1.5
		c0-2.2-4.1-1.2-4.1-4.2c0-1.3,1.3-2.7,3.2-2.7c1.1,0,2,0.3,2.6,0.7l-0.5,1.1c-0.3-0.2-0.9-0.5-1.7-0.5c-1,0-1.7,0.6-1.7,1.3
		c0,2.1,4.1,1.1,4.1,4.3C225.2,15.4,223.7,16.8,221.5,16.8z"/>
</g>
<g>
	<path class="st1" d="M0.1,11.5c0.3-0.6,0.5-1.1,0.9-1.7c-0.5-1-0.7-1.4-0.9-2.5C0.1,9,0.1,10.2,0.1,11.5z M1.9,0C1.9,0,0,0,0,2.3
		C0,2.5,0,2,0,2.6c0.2,2.1,0.9,4.3,1.6,6.2c1-1.7,2-2.7,3.5-4C8,2.3,11.6,0.8,17,0H1.9z"/>
	<path class="st0" d="M19.6,1.3C13.4,1.9,9.1,3.6,6.1,6.2c-1.7,1.4-2.7,2.5-3.7,4.4c2.5,4.7,7.3,8.5,14.9,9h0.1c0,0,2.3,0.1,2.3-2.5
		L19.6,1.3C19.7,1.3,19.7,1.3,19.6,1.3z M3.6,14.4c-0.7-0.9-1.3-1.7-1.9-2.7C1.1,13,0.5,14.3,0,15.8c0,2.3,0,3.9,0,3.9h11.5
		C7.8,18.6,5.7,16.9,3.6,14.4z"/>
</g>
<g>
	<g>
		<rect x="139.1" y="49.7" class="st2" width="84.6" height="1"/>
		<rect x="1.3" y="49.7" class="st2" width="85.3" height="1"/>
	</g>
</g>
<text transform="matrix(1 0 0 1 89.7587 54.9368)" class="st3 st4 st5">225px</text>
<path class="st2" d="M10.7,60.7c-0.1,0-0.3,0-0.4-0.1L0,50.2l10.3-10.3c0.2-0.2,0.5-0.2,0.7,0s0.2,0.5,0,0.7l-9.6,9.6l9.6,9.6
	c0.2,0.2,0.2,0.5,0,0.7C10.9,60.6,10.8,60.7,10.7,60.7z"/>
<path class="st2" d="M214.3,60.7c0.1,0,0.3,0,0.4-0.1L225,50.2l-10.3-10.3c-0.2-0.2-0.5-0.2-0.7,0s-0.2,0.5,0,0.7l9.6,9.6l-9.6,9.6
	c-0.2,0.2-0.2,0.5,0,0.7C214.1,60.6,214.2,60.7,214.3,60.7z"/>
</svg>
