<?xml version="1.0" encoding="utf-8"?>
<!-- Generator: Adobe Illustrator 21.0.2, SVG Export Plug-In . SVG Version: 6.00 Build 0)  -->
<svg version="1.1" id="Layer_1" xmlns="http://www.w3.org/2000/svg" xmlns:xlink="http://www.w3.org/1999/xlink" x="0px" y="0px"
	 viewBox="0 0 576 242.8" style="enable-background:new 0 0 576 242.8;" xml:space="preserve">
<style type="text/css">
	.st0{opacity:0.15;}
	.st1{fill:#A7BC39;}
	.st2{fill:#003C57;}
	.st3{fill:none;stroke:#D0D2D3;stroke-miterlimit:10;}
</style>
<g class="st0">
	<path class="st1" d="M-0.1,48.8c1.2-2.6,2.4-5,3.9-7.5c-1.6-3.9-2.9-7.9-3.9-11.9C-0.1,36.1-0.1,43.3-0.1,48.8z M7.5-0.1
		c0,0-7.5,0-7.5,9.4c0,0.6,0,2.4,0,5c0.7,8.6,2.4,17,5.5,24.6c4.2-6.6,9.4-12.8,15.5-18c12.2-10.5,28.8-17.7,51.1-21
		C72.1-0.1,7.5-0.1,7.5-0.1z"/>
	<path class="st2" d="M80.4,4.9c-25.6,2.4-43,9.8-55.5,20.6C18.1,31.3,12.8,38,8.5,45.6c9.8,19,28.5,33.1,59.7,35.1h3
		c0,0,9.6,0.3,9.6-10.4V4.9C80.7,4.9,80.6,4.9,80.4,4.9z M14.7,59.3c-2.9-3.5-5.5-7.2-7.6-11.1c-2.7,5.2-5,10.8-7,16.7
		c0,9.2,0,15.8,0,15.8l51.1,0.1C35.1,76.8,23.2,69.2,14.7,59.3z"/>
</g>
<g>
	<g>
		<path class="st1" d="M81.4,129.8c1.2-2.6,2.4-5,3.9-7.5c-1.6-3.9-2.9-7.9-3.9-11.9C81.4,117.1,81.4,124.3,81.4,129.8z M89,80.9
			c0,0-7.5,0-7.5,9.4c0,0.6,0,2.4,0,5c0.7,8.6,2.4,17,5.5,24.6c4.2-6.6,9.4-12.8,15.5-18c12.2-10.5,28.8-17.7,51.1-21H89z"/>
		<path class="st2" d="M161.9,85.9c-25.6,2.4-43,9.8-55.5,20.6c-6.8,5.8-12.1,12.5-16.4,20.1c9.8,19,28.5,33.1,59.7,35.1h3
			c0,0,9.6,0.3,9.6-10.4V85.9C162.2,85.9,162.1,85.9,161.9,85.9z M96.2,140.3c-2.9-3.5-5.5-7.2-7.6-11.1c-2.7,5.2-5,10.8-7,16.7
			c0,9.2,0,15.8,0,15.8l51.1,0.1C116.6,157.8,104.7,150.2,96.2,140.3z"/>
	</g>
	<g>
		<path class="st2" d="M193.3,117c-7.8,0-11.4-6.5-11.4-14.5c0-7.9,3.5-14.5,11.4-14.5s11.2,6.6,11.2,14.5
			C204.5,110.5,201.1,117,193.3,117z M193.3,90.4c-5.8,0-7.8,6.3-7.8,12.1c0,5.8,1.9,11.9,7.8,11.9c6,0,7.8-6.3,7.8-11.9
			C201.1,96.7,199,90.4,193.3,90.4z"/>
		<path class="st2" d="M214.3,96.5v19.9h-3.2V96.5h-3.3v-2h3.3v-3.2c0-4,2.3-6.9,6.9-6.9c0.3,0,0.7,0,0.7,0v2h-0.4
			c-2.2,0-4.2,1.4-4.2,4.5v3.6h4.6v2H214.3z"/>
		<path class="st2" d="M227.4,96.5v19.9h-3.2V96.5h-3.3v-2h3.3v-3.2c0-4,2.3-6.9,6.9-6.9c0.3,0,0.7,0,0.7,0v2h-0.4
			c-2.2,0-4.2,1.4-4.2,4.5v3.6h4.6v2H227.4z"/>
		<path class="st2" d="M237.2,90.4c-1.2,0-2-0.9-2-2s0.9-2,2-2c1.2,0,2,0.9,2,2C239.2,89.6,238.3,90.4,237.2,90.4z M235.6,116.4
			V94.5h3.2v21.9H235.6z"/>
		<path class="st2" d="M252.4,117c-5.2,0-9.2-4.5-9.2-11.5c0-7.2,4-11.4,9.4-11.4c2.6,0,4.5,0.7,5.3,1.4l-0.9,2
			c-0.7-0.6-2-1.2-3.7-1.2c-4.5,0-6.8,3.9-6.8,9.1c0,5.3,2.6,9.2,6.6,9.2c1.6,0,3-0.6,3.9-1.2l0.9,2.2
			C256.9,116.3,255,117,252.4,117z"/>
		<path class="st2" d="M263.1,106.9c0.4,5.2,3.3,7.8,7.6,7.8c2.7,0,4.7-0.7,5.9-1.3l0.9,2.2c-1.4,0.7-3.9,1.4-7,1.4
			c-6.2,0-10.5-3.6-10.5-11.5c0-7.5,4-11.4,9.5-11.4c5.6,0,8.9,3.5,8.9,10.6L263.1,106.9z M269.4,96.1c-3.6,0-6.5,2.7-6.5,8.9
			l12.4-1.7C275.3,98.3,272.9,96.1,269.4,96.1z"/>
		<path class="st2" d="M298.8,96.5v19.9h-3.2V96.5h-3.3v-2h3.3v-3.2c0-4,2.3-6.9,6.9-6.9c0.3,0,0.7,0,0.7,0v2h-0.4
			c-2.2,0-4.2,1.4-4.2,4.5v3.6h4.6v2H298.8z"/>
		<path class="st2" d="M314.9,117c-6.5,0-9.4-5-9.4-11.4c0-6.5,2.9-11.5,9.4-11.5s9.4,5,9.4,11.5C324.2,111.9,321.3,117,314.9,117z
			 M314.9,96.3c-4.7,0-6.2,4.9-6.2,9.4s1.4,9.1,6.2,9.1c4.7,0,6.2-4.6,6.2-9.1C321.1,101,319.6,96.3,314.9,96.3z"/>
		<path class="st2" d="M338,96.7c-2-0.6-4.9-0.4-6.3,0.4v19.4h-3.2v-21c2.3-1,4.6-1.4,8.8-1.4c0.6,0,1.3,0,1.6,0L338,96.7z"/>
		<path class="st2" d="M200.5,160.7l-12.4-19.1c-0.9-1.4-1.6-2.9-1.6-2.9h-0.1c0,0,0.1,1.6,0.1,3.3v18.6h-4v-27.8h4.6l11.8,18
			c1,1.6,1.6,2.9,1.6,2.9h0.1c0,0-0.1-1.6-0.1-3.3v-17.6h4v27.9C204.5,160.7,200.5,160.7,200.5,160.7z"/>
		<path class="st2" d="M217.8,161.3c-6.5,0-9.5-2.6-9.5-6.8c0-5.9,6.2-7.5,13.5-8.1v-1.3c0-3-2-3.9-5-3.9c-2.2,0-4.6,0.6-5.9,1.3
			l-1.2-2.7c1.6-0.6,4.5-1.6,7.9-1.6c4.9,0,8.6,2,8.6,7.6v13.8C224.4,160.6,221.5,161.3,217.8,161.3z M221.8,148.6
			c-5.5,0.6-9.1,1.6-9.1,5.8c0,3,2.2,4.2,5.3,4.2c1.6,0,2.9-0.3,3.6-0.7v-9.2h0.2V148.6z"/>
		<path class="st2" d="M238.9,161.1c-4.6,0-6.3-3-6.3-5.9v-13.5h-3v-2.9h3v-4.9l4.6-1.3v6.2h4.3v2.9h-4.3v13.4c0,1.7,1,3,3,3
			c0.4,0,0.9-0.1,1.3-0.1v2.9C241.1,160.9,240.1,161.1,238.9,161.1z"/>
		<path class="st2" d="M247.5,135.1c-1.4,0-2.7-1.2-2.7-2.4s1.3-2.4,2.7-2.4s2.7,1.2,2.7,2.4C250.3,133.9,249,135.1,247.5,135.1z
			 M245.1,160.7v-21.9h4.7v21.9H245.1z"/>
		<path class="st2" d="M263.8,161.3c-6.6,0-9.9-4.9-9.9-11.5s3.3-11.5,9.9-11.5s9.9,5,9.9,11.5C273.7,156.2,270.6,161.3,263.8,161.3
			z M263.8,141.3c-4,0-5.2,4.2-5.2,8.5s1.3,8.3,5.2,8.3c4,0,5.2-4,5.2-8.3C269.1,145.5,267.8,141.3,263.8,141.3z"/>
		<path class="st2" d="M291.1,160.7v-15.5c0-2.7-2.4-3.9-5-3.9c-1.4,0-2.9,0.3-3.7,0.7v18.8h-4.6v-21c2-0.9,5.3-1.6,8.6-1.6
			c5.8,0,9.5,2,9.5,6.8v15.7H291.1z"/>
		<path class="st2" d="M309,161.3c-6.5,0-9.5-2.6-9.5-6.8c0-5.9,6.2-7.5,13.5-8.1v-1.3c0-3-2-3.9-5-3.9c-2.2,0-4.6,0.6-5.9,1.3
			l-1.2-2.7c1.6-0.6,4.5-1.6,7.9-1.6c4.9,0,8.6,2,8.6,7.6v13.8C315.6,160.6,312.6,161.3,309,161.3z M313,148.6
			c-5.5,0.6-9.1,1.6-9.1,5.8c0,3,2.2,4.2,5.3,4.2c1.6,0,2.9-0.3,3.6-0.7v-9.2h0.2V148.6z"/>
		<path class="st2" d="M322.2,160.7v-31.9h4.6v9.5v22.3L322.2,160.7L322.2,160.7z"/>
		<path class="st2" d="M349.1,161.3c-3.3,0-6-0.7-7.6-1.6l1.3-3.5c1.2,0.6,3.2,1.3,5.3,1.3c3.3,0,5.6-1.9,5.6-4.6
			c0-6.2-11.7-3.7-11.7-12.4c0-4.5,3.6-8.2,9.2-8.2c3,0,5.5,0.9,6.8,1.6l-1.2,3c-1-0.6-2.9-1.3-4.9-1.3c-3,0-5,1.9-5,4.5
			c0,6,11.8,3.5,11.8,12.7C358.7,157.5,354.7,161.3,349.1,161.3z"/>
		<path class="st2" d="M370.7,161.1c-4.6,0-6.3-3-6.3-5.9v-13.5h-3v-2.9h3v-4.9l4.6-1.3v6.2h4.3v2.9H369v13.4c0,1.7,1,3,3,3
			c0.4,0,0.9-0.1,1.3-0.1v2.9C372.7,160.9,371.8,161.1,370.7,161.1z"/>
		<path class="st2" d="M385.2,161.3c-6.5,0-9.5-2.6-9.5-6.8c0-5.9,6.2-7.5,13.5-8.1v-1.3c0-3-2-3.9-5-3.9c-2.2,0-4.6,0.6-5.9,1.3
			l-1.2-2.7c1.6-0.6,4.5-1.6,7.9-1.6c4.9,0,8.6,2,8.6,7.6v13.8C391.7,160.6,388.8,161.3,385.2,161.3z M389.3,148.6
			c-5.5,0.6-9.1,1.6-9.1,5.8c0,3,2.2,4.2,5.3,4.2c1.6,0,2.9-0.3,3.6-0.7L389.3,148.6L389.3,148.6z"/>
		<path class="st2" d="M406.2,161.1c-4.6,0-6.3-3-6.3-5.9v-13.5h-3v-2.9h3v-4.9l4.6-1.3v6.2h4.3v2.9h-4.3v13.4c0,1.7,1,3,3,3
			c0.4,0,0.9-0.1,1.3-0.1v2.9C408.4,160.9,407.5,161.1,406.2,161.1z"/>
		<path class="st2" d="M414.9,135.1c-1.4,0-2.7-1.2-2.7-2.4s1.3-2.4,2.7-2.4s2.7,1.2,2.7,2.4C417.6,133.9,416.3,135.1,414.9,135.1z
			 M412.6,160.7v-21.9h4.7v21.9H412.6z"/>
		<path class="st2" d="M427.4,161.3c-2.7,0-5.3-0.7-6.6-1.6l1.3-3c0.9,0.6,2.7,1.3,4.7,1.3c2.4,0,4.3-1.6,4.3-3.5
			c0-5.2-9.6-2.7-9.6-9.9c0-3.3,2.9-6.5,7.6-6.5c2.7,0,4.6,0.7,6.2,1.6l-1.3,2.7c-0.7-0.4-2.2-1.3-4-1.3c-2.4,0-3.9,1.4-3.9,3.2
			c0,4.9,9.8,2.7,9.8,10.1C435.9,157.8,432.6,161.3,427.4,161.3z"/>
		<path class="st2" d="M447.8,161.1c-4.6,0-6.3-3-6.3-5.9v-13.5h-3v-2.9h3v-4.9l4.6-1.3v6.2h4.3v2.9h-4.3v13.4c0,1.7,1,3,3,3
			c0.4,0,0.9-0.1,1.3-0.1v2.9C449.8,160.9,449,161.1,447.8,161.1z"/>
		<path class="st2" d="M456.3,135.1c-1.4,0-2.7-1.2-2.7-2.4s1.3-2.4,2.7-2.4s2.7,1.2,2.7,2.4C459,133.9,457.9,135.1,456.3,135.1z
			 M454,160.7v-21.9h4.7v21.9H454z"/>
		<path class="st2" d="M472.1,161.3c-5.3,0-9.5-4.3-9.5-11.5s4.2-11.5,9.5-11.5c2.7,0,4.6,0.7,5.6,1.6l-1,2.6c-0.7-0.4-1.9-1-3.5-1
			c-3.7,0-5.8,3.3-5.8,8.2c0,5,2.3,8.2,5.8,8.2c1.4,0,2.6-0.6,3.5-1.2l1.2,2.9C476.9,160.4,475,161.3,472.1,161.3z"/>
		<path class="st2" d="M486.5,161.3c-2.7,0-5.3-0.7-6.6-1.6l1.3-3c0.9,0.6,2.7,1.3,4.7,1.3c2.4,0,4.3-1.6,4.3-3.5
			c0-5.2-9.6-2.7-9.6-9.9c0-3.3,2.9-6.5,7.6-6.5c2.7,0,4.6,0.7,6.2,1.6l-1.3,2.7c-0.7-0.4-2.2-1.3-4-1.3c-2.4,0-3.9,1.4-3.9,3.2
			c0,4.9,9.8,2.7,9.8,10.1C495.1,157.8,491.7,161.3,486.5,161.3z"/>
	</g>
</g>
<line class="st3" x1="80.8" y1="0.3" x2="80.8" y2="242.6"/>
<line class="st3" x1="0" y1="80.3" x2="576.1" y2="80.3"/>
<line class="st3" x1="0" y1="162.4" x2="576.1" y2="162.4"/>
<line class="st3" x1="495.5" y1="0.3" x2="495.5" y2="242.6"/>
</svg>
