<?xml version="1.0" encoding="utf-8"?>
<!-- Generator: Adobe Illustrator 21.0.2, SVG Export Plug-In . SVG Version: 6.00 Build 0)  -->
<svg version="1.1" id="Layer_1" xmlns="http://www.w3.org/2000/svg" xmlns:xlink="http://www.w3.org/1999/xlink" x="0px" y="0px"
	 width="175.7px" height="88.7px" viewBox="0 0 175.7 88.7" style="enable-background:new 0 0 175.7 88.7;" xml:space="preserve">
<style type="text/css">
	.st0{fill:#A7BC39;}
	.st1{fill:#003C57;}
	.st2{fill:#BBBDBF;}
	.st3{fill:#58595B;}
	.st4{font-family:'OpenSans';}
	.st5{font-size:16px;}
</style>
<g>
	<g>
		<path class="st0" d="M0.1,20.7c0.5-1.1,1-2.1,1.6-3.2c-0.7-1.6-1.2-3.3-1.6-5.1C0.1,15.3,0.1,18.4,0.1,20.7z M3.4,0
			c0,0-3.2,0-3.2,4c0,0.2,0,1,0,2.1c0.3,3.7,1,7.2,2.3,10.4c1.8-2.8,4-5.4,6.6-7.6C14.3,4.5,21.3,1.4,30.7,0C30.8,0,3.4,0,3.4,0z"/>
		<path class="st1" d="M34.3,2.1c-10.8,1-18.2,4.1-23.5,8.7c-2.9,2.4-5.1,5.3-6.9,8.5c4.1,8,12.1,14,25.3,14.9h1.3
			c0,0,4.1,0.1,4.1-4.4V2.1C34.4,2.1,34.3,2.1,34.3,2.1z M6.5,25.1c-1.2-1.5-2.3-3-3.2-4.7c-1.2,2.2-2.1,4.6-3,7.1
			c0,3.9,0,6.7,0,6.7l21.6,0.1C15.1,32.6,10.1,29.3,6.5,25.1z"/>
	</g>
	<g>
		<path class="st1" d="M47.6,15.3c-3.3,0-4.8-2.7-4.8-6.1c0-3.3,1.5-6.1,4.8-6.1s4.7,2.8,4.7,6.1S50.8,15.3,47.6,15.3z M47.6,4
			c-2.4,0-3.3,2.7-3.3,5.1s0.8,5.1,3.3,5.1c2.6,0,3.3-2.7,3.3-5.1C50.8,6.7,50,4,47.6,4z"/>
		<path class="st1" d="M56.4,6.6V15h-1.3V6.6h-1.4V5.8h1.4V4.5c0-1.7,1-2.9,2.9-2.9c0.1,0,0.3,0,0.3,0v0.9h-0.2
			c-0.9,0-1.8,0.6-1.8,1.9v1.4h1.9v0.9h-1.8C56.4,6.7,56.4,6.6,56.4,6.6z"/>
		<path class="st1" d="M62,6.6V15h-1.3V6.6h-1.4V5.8h1.4V4.5c0-1.7,1-2.9,2.9-2.9c0.1,0,0.3,0,0.3,0v0.9h-0.2
			c-0.9,0-1.8,0.6-1.8,1.9v1.4h1.9v0.9H62V6.6z"/>
		<path class="st1" d="M66.1,4c-0.5,0-0.9-0.4-0.9-0.9s0.4-0.9,0.9-0.9S67,2.6,67,3.1C67,3.7,66.6,4,66.1,4z M65.5,15V5.8h1.3v9.3
			C66.8,15,65.5,15,65.5,15z"/>
		<path class="st1" d="M72.6,15.3c-2.2,0-3.9-1.9-3.9-4.9s1.7-4.8,4-4.8c1.1,0,1.9,0.3,2.3,0.6l-0.4,0.9c-0.3-0.2-0.9-0.5-1.6-0.5
			c-1.9,0-2.9,1.6-2.9,3.8c0,2.3,1.1,3.9,2.8,3.9c0.7,0,1.3-0.2,1.6-0.5l0.4,0.9C74.5,15,73.7,15.3,72.6,15.3z"/>
		<path class="st1" d="M77.1,11c0.2,2.2,1.4,3.3,3.2,3.3c1.2,0,2-0.3,2.5-0.5l0.4,0.9c-0.6,0.3-1.6,0.6-3,0.6
			c-2.6,0-4.4-1.5-4.4-4.9c0-3.2,1.7-4.8,4-4.8c2.4,0,3.8,1.5,3.8,4.5L77.1,11z M79.8,6.5c-1.5,0-2.7,1.2-2.7,3.8l5.2-0.7
			C82.3,7.4,81.2,6.5,79.8,6.5z"/>
		<path class="st1" d="M92.2,6.6V15h-1.3V6.6h-1.4V5.8h1.4V4.5c0-1.7,1-2.9,2.9-2.9c0.1,0,0.3,0,0.3,0v0.9h-0.2
			c-0.9,0-1.8,0.6-1.8,1.9v1.4H94v0.9h-1.8V6.6z"/>
		<path class="st1" d="M99,15.3c-2.7,0-4-2.1-4-4.8s1.2-4.9,4-4.9s4,2.1,4,4.9C102.9,13.1,101.7,15.3,99,15.3z M99,6.5
			c-2,0-2.6,2.1-2.6,4s0.6,3.8,2.6,3.8s2.6-1.9,2.6-3.8C101.6,8.5,101,6.5,99,6.5z"/>
		<path class="st1" d="M108.8,6.7c-0.9-0.2-2.1-0.2-2.7,0.2v8.2h-1.3V6.2c1-0.4,1.9-0.6,3.7-0.6c0.2,0,0.5,0,0.7,0L108.8,6.7z"/>
		<path class="st1" d="M50.6,33.8l-5.2-8.1c-0.4-0.6-0.7-1.2-0.7-1.2h-0.1c0,0,0.1,0.7,0.1,1.4v7.9H43V22h1.9l5,7.6
			c0.4,0.7,0.7,1.2,0.7,1.2h0.1c0,0-0.1-0.7-0.1-1.4V22h1.7v11.8C52.3,33.8,50.6,33.8,50.6,33.8z"/>
		<path class="st1" d="M57.9,34c-2.7,0-4-1.1-4-2.9c0-2.5,2.6-3.2,5.7-3.4v-0.5c0-1.3-0.9-1.6-2.1-1.6c-0.9,0-1.9,0.2-2.5,0.5
			l-0.5-1.2c0.7-0.2,1.9-0.7,3.3-0.7c2.1,0,3.7,0.9,3.7,3.2v5.8C60.7,33.7,59.5,34,57.9,34z M59.6,28.7c-2.3,0.2-3.8,0.7-3.8,2.4
			c0,1.3,0.9,1.8,2.3,1.8c0.7,0,1.2-0.1,1.5-0.3V28.7L59.6,28.7z"/>
		<path class="st1" d="M66.9,34c-1.9,0-2.7-1.3-2.7-2.5v-5.7h-1.3v-1.2h1.3v-2.1l1.9-0.5v2.6h1.8v1.2h-1.8v5.7
			c0,0.7,0.4,1.3,1.3,1.3c0.2,0,0.4-0.1,0.5-0.1v1.1C67.8,33.8,67.3,34,66.9,34z"/>
		<path class="st1" d="M70.5,22.9c-0.6,0-1.2-0.5-1.2-1s0.5-1,1.2-1c0.6,0,1.2,0.5,1.2,1C71.7,22.5,71.1,22.9,70.5,22.9z M69.5,33.8
			v-9.3h2v9.3H69.5z"/>
		<path class="st1" d="M77.4,34c-2.8,0-4.2-2.1-4.2-4.9s1.4-4.9,4.2-4.9s4.2,2.1,4.2,4.9S80.2,34,77.4,34z M77.4,25.6
			c-1.7,0-2.2,1.8-2.2,3.6c0,1.8,0.5,3.5,2.2,3.5s2.2-1.7,2.2-3.5C79.6,27.3,79.1,25.6,77.4,25.6z"/>
		<path class="st1" d="M88.9,33.8v-6.6c0-1.2-1-1.6-2.1-1.6c-0.6,0-1.2,0.1-1.6,0.3v8h-1.9V25c0.9-0.4,2.3-0.7,3.7-0.7
			c2.4,0,4,0.9,4,2.9v6.6H88.9z"/>
		<path class="st1" d="M96.5,34c-2.7,0-4-1.1-4-2.9c0-2.5,2.6-3.2,5.7-3.4v-0.5c0-1.3-0.9-1.6-2.1-1.6c-0.9,0-1.9,0.2-2.5,0.5
			l-0.5-1.2c0.7-0.2,1.9-0.7,3.3-0.7c2.1,0,3.7,0.9,3.7,3.2v5.8C99.3,33.7,98,34,96.5,34z M98.2,28.7c-2.3,0.2-3.8,0.7-3.8,2.4
			c0,1.3,0.9,1.8,2.3,1.8c0.7,0,1.2-0.1,1.5-0.3V28.7L98.2,28.7z"/>
		<path class="st1" d="M102.1,33.8V20.3h1.9v4v9.4L102.1,33.8L102.1,33.8z"/>
		<path class="st1" d="M113.5,34c-1.4,0-2.6-0.3-3.2-0.7l0.5-1.5c0.5,0.2,1.3,0.5,2.3,0.5c1.4,0,2.4-0.8,2.4-1.9
			c0-2.6-4.9-1.6-4.9-5.2c0-1.9,1.5-3.5,3.9-3.5c1.3,0,2.3,0.4,2.9,0.7l-0.5,1.3c-0.4-0.2-1.2-0.5-2.1-0.5c-1.3,0-2.1,0.8-2.1,1.9
			c0,2.6,5,1.5,5,5.4C117.6,32.4,115.9,34,113.5,34z"/>
		<path class="st1" d="M122.6,34c-1.9,0-2.7-1.3-2.7-2.5v-5.7h-1.3v-1.2h1.3v-2.1l1.9-0.5v2.6h1.8v1.2h-1.8v5.7
			c0,0.7,0.4,1.3,1.3,1.3c0.2,0,0.4-0.1,0.5-0.1v1.1C123.5,33.8,123.1,34,122.6,34z"/>
		<path class="st1" d="M128.8,34c-2.7,0-4-1.1-4-2.9c0-2.5,2.6-3.2,5.7-3.4v-0.5c0-1.3-0.9-1.6-2.1-1.6c-0.9,0-1.9,0.2-2.5,0.5
			l-0.5-1.2c0.7-0.2,1.9-0.7,3.3-0.7c2.1,0,3.7,0.9,3.7,3.2v5.8C131.5,33.7,130.3,34,128.8,34z M130.5,28.7
			c-2.3,0.2-3.8,0.7-3.8,2.4c0,1.3,0.9,1.8,2.3,1.8c0.7,0,1.2-0.1,1.5-0.3V28.7L130.5,28.7z"/>
		<path class="st1" d="M137.6,34c-1.9,0-2.7-1.3-2.7-2.5v-5.7h-1.3v-1.2h1.3v-2.1l1.9-0.5v2.6h1.8v1.2h-1.8v5.7
			c0,0.7,0.4,1.3,1.3,1.3c0.2,0,0.4-0.1,0.5-0.1v1.1C138.6,33.8,138.2,34,137.6,34z"/>
		<path class="st1" d="M141.3,22.9c-0.6,0-1.2-0.5-1.2-1s0.5-1,1.2-1c0.6,0,1.2,0.5,1.2,1C142.5,22.5,141.9,22.9,141.3,22.9z
			 M140.3,33.8v-9.3h2v9.3H140.3z"/>
		<path class="st1" d="M146.6,34c-1.2,0-2.3-0.3-2.8-0.7l0.5-1.3c0.4,0.2,1.2,0.5,2,0.5c1,0,1.8-0.7,1.8-1.5c0-2.2-4.1-1.2-4.1-4.2
			c0-1.4,1.2-2.7,3.2-2.7c1.2,0,1.9,0.3,2.6,0.7l-0.5,1.2c-0.3-0.2-0.9-0.5-1.7-0.5c-1,0-1.6,0.6-1.6,1.3c0,2.1,4.1,1.2,4.1,4.3
			C150.2,32.6,148.8,34,146.6,34z"/>
		<path class="st1" d="M155.2,34c-1.9,0-2.7-1.3-2.7-2.5v-5.7h-1.3v-1.2h1.3v-2.1l1.9-0.5v2.6h1.8v1.2h-1.8v5.7
			c0,0.7,0.4,1.3,1.3,1.3c0.2,0,0.4-0.1,0.5-0.1v1.1C156.1,33.8,155.7,34,155.2,34z"/>
		<path class="st1" d="M158.8,22.9c-0.6,0-1.2-0.5-1.2-1s0.5-1,1.2-1s1.2,0.5,1.2,1C160,22.5,159.5,22.9,158.8,22.9z M157.9,33.8
			v-9.3h2v9.3H157.9z"/>
		<path class="st1" d="M165.5,34c-2.3,0-4-1.8-4-4.9c0-3,1.8-4.9,4-4.9c1.2,0,1.9,0.3,2.4,0.7l-0.4,1.1c-0.3-0.2-0.8-0.4-1.5-0.4
			c-1.6,0-2.4,1.4-2.4,3.5s1,3.5,2.4,3.5c0.6,0,1.1-0.2,1.5-0.5l0.5,1.2C167.5,33.7,166.7,34,165.5,34z"/>
		<path class="st1" d="M171.6,34c-1.2,0-2.3-0.3-2.8-0.7l0.5-1.3c0.4,0.2,1.2,0.5,2,0.5c1,0,1.8-0.7,1.8-1.5c0-2.2-4.1-1.2-4.1-4.2
			c0-1.4,1.2-2.7,3.2-2.7c1.2,0,1.9,0.3,2.6,0.7l-0.5,1.2c-0.3-0.2-0.9-0.5-1.7-0.5c-1,0-1.6,0.6-1.6,1.3c0,2.1,4.1,1.2,4.1,4.3
			C175.3,32.6,173.8,34,171.6,34z"/>
	</g>
</g>
<g>
	<g>
		<rect x="114.7" y="69.2" class="st2" width="59.6" height="1"/>
		<rect x="1.8" y="69.2" class="st2" width="60" height="1"/>
	</g>
	<g>
		<path class="st2" d="M12,79.5c-0.1,0-0.2,0-0.3-0.1L0.2,69.7L11.7,60c0.2-0.2,0.5-0.2,0.7,0.1c0.2,0.2,0.2,0.5-0.1,0.7l-10.6,9
			l10.6,9c0.2,0.2,0.2,0.5,0.1,0.7C12.3,79.5,12.1,79.5,12,79.5z"/>
		<path class="st2" d="M163.8,79.5c-0.1,0-0.3-0.1-0.4-0.2c-0.2-0.2-0.2-0.5,0.1-0.7l10.6-9l-10.6-9c-0.2-0.2-0.2-0.5-0.1-0.7
			s0.5-0.2,0.7-0.1l11.5,9.7l-11.5,9.7C164.1,79.5,163.9,79.5,163.8,79.5z"/>
	</g>
</g>
<text transform="matrix(1 0 0 1 64.1907 74.406)" class="st3 st4 st5">175px</text>
</svg>
