<?xml version="1.0" encoding="utf-8"?>
<!-- Generator: Adobe Illustrator 21.0.2, SVG Export Plug-In . SVG Version: 6.00 Build 0)  -->
<svg version="1.1" id="Layer_1" xmlns="http://www.w3.org/2000/svg" xmlns:xlink="http://www.w3.org/1999/xlink" x="0px" y="0px"
	 viewBox="0 0 307.8 124.3" style="enable-background:new 0 0 307.8 124.3;" xml:space="preserve">
<style type="text/css">
	.st0{fill:#003C57;}
	.st1{fill:#A7BC39;}
</style>
<g>
	<g>
		<path class="st0" d="M77.5,25.5c-5.5,0-7.9-4.5-7.9-10.1c0-5.5,2.4-10.1,7.9-10.1c5.5,0,7.9,4.6,7.9,10.1
			C85.4,20.9,83,25.5,77.5,25.5z M77.5,6.8c-4,0-5.5,4.4-5.5,8.5c0,4,1.3,8.4,5.5,8.4c4.2,0,5.4-4.4,5.4-8.4
			C83,11.2,81.6,6.8,77.5,6.8z"/>
		<path class="st0" d="M92.2,11.2v13.9H90V11.2h-2.3V9.8H90V7.6c0-2.8,1.6-4.8,4.9-4.8c0.2,0,0.5,0,0.5,0v1.4h-0.3
			c-1.5,0-2.9,1-2.9,3.1v2.5h3.2v1.4H92.2z"/>
		<path class="st0" d="M101.4,11.2v13.9h-2.2V11.2h-2.3V9.8h2.3V7.6c0-2.8,1.6-4.8,4.9-4.8c0.2,0,0.5,0,0.5,0v1.4h-0.3
			c-1.5,0-2.9,1-2.9,3.1v2.5h3.2v1.4H101.4z"/>
		<path class="st0" d="M108.2,6.9c-0.8,0-1.4-0.6-1.4-1.4c0-0.8,0.6-1.4,1.4-1.4c0.8,0,1.4,0.6,1.4,1.4C109.6,6.3,109,6.9,108.2,6.9
			z M107.1,25.1V9.8h2.2v15.3H107.1z"/>
		<path class="st0" d="M118.8,25.5c-3.6,0-6.4-3.1-6.4-8c0-5,2.8-8,6.5-8c1.8,0,3.1,0.5,3.7,1l-0.6,1.4c-0.5-0.4-1.4-0.8-2.7-0.8
			c-3.1,0-4.7,2.7-4.7,6.3c0,3.7,1.8,6.4,4.6,6.4c1.1,0,2.1-0.4,2.7-0.8l0.6,1.5C122,24.9,120.7,25.5,118.8,25.5z"/>
		<path class="st0" d="M126.3,18.4c0.3,3.6,2.3,5.4,5.4,5.4c1.9,0,3.3-0.5,4.1-0.9l0.7,1.6c-1,0.5-2.8,1-4.9,1c-4.3,0-7.3-2.5-7.3-8
			c0-5.2,2.8-8,6.6-8c3.9,0,6.3,2.4,6.3,7.5L126.3,18.4z M130.7,10.9c-2.5,0-4.6,1.9-4.5,6.2l8.7-1.2
			C134.8,12.4,133.1,10.9,130.7,10.9z"/>
		<path class="st0" d="M151.2,11.2v13.9H149V11.2h-2.3V9.8h2.3V7.6c0-2.8,1.6-4.8,4.9-4.8c0.2,0,0.5,0,0.5,0v1.4h-0.3
			c-1.5,0-2.9,1-2.9,3.1v2.5h3.2v1.4H151.2z"/>
		<path class="st0" d="M162.5,25.5c-4.5,0-6.6-3.5-6.6-8c0-4.5,2.1-8,6.6-8c4.5,0,6.5,3.5,6.5,8C169,22,167,25.5,162.5,25.5z
			 M162.5,11c-3.3,0-4.3,3.4-4.3,6.5c0,3.1,1,6.4,4.3,6.4c3.3,0,4.3-3.2,4.3-6.4C166.8,14.3,165.8,11,162.5,11z"/>
		<path class="st0" d="M178.6,11.2c-1.4-0.4-3.5-0.3-4.4,0.3v13.6H172V10.5c1.6-0.7,3.2-1,6.1-1c0.4,0,0.9,0,1.1,0L178.6,11.2z"/>
		<path class="st0" d="M82.5,56l-8.6-13.3c-0.7-1-1.1-2-1.1-2h-0.1c0,0,0.1,1.1,0.1,2.3v13H70V36.5h3.2l8.2,12.5
			c0.7,1.1,1.1,2,1.1,2h0.1c0,0-0.1-1.1-0.1-2.3V36.5h2.9V56H82.5z"/>
		<path class="st0" d="M94.7,56.4c-4.5,0-6.6-1.8-6.6-4.7c0-4.1,4.3-5.2,9.4-5.7v-0.9c0-2.1-1.4-2.7-3.5-2.7c-1.5,0-3.2,0.4-4.1,0.9
			l-0.8-1.9c1.1-0.5,3.1-1.1,5.5-1.1c3.4,0,6,1.4,6,5.3v9.7C99.2,55.9,97.2,56.4,94.7,56.4z M97.5,47.6c-3.8,0.4-6.3,1.1-6.3,4.1
			c0,2.1,1.5,2.9,3.8,2.9c1.1,0,2-0.2,2.6-0.5V47.6z"/>
		<path class="st0" d="M109.4,56.3c-3.2,0-4.4-2.1-4.4-4.1v-9.5h-2.1v-2h2.1v-3.4l3.3-0.9v4.3h3v2h-3V52c0,1.2,0.7,2.1,2.1,2.1
			c0.3,0,0.6-0.1,0.9-0.1v2C110.9,56.2,110.2,56.3,109.4,56.3z"/>
		<path class="st0" d="M115.4,38.1c-1,0-1.9-0.8-1.9-1.7c0-0.9,0.9-1.7,1.9-1.7c1,0,1.9,0.8,1.9,1.7
			C117.3,37.3,116.4,38.1,115.4,38.1z M113.8,56V40.7h3.3V56H113.8z"/>
		<path class="st0" d="M126.8,56.4c-4.7,0-7-3.5-7-8c0-4.6,2.3-8,7-8c4.7,0,7,3.5,7,8C133.8,52.9,131.5,56.4,126.8,56.4z
			 M126.8,42.4c-2.8,0-3.6,2.9-3.6,5.9c0,3,0.9,5.8,3.6,5.8c2.8,0,3.6-2.8,3.6-5.8C130.5,45.4,129.7,42.4,126.8,42.4z"/>
		<path class="st0" d="M145.9,56V45.1c0-2-1.7-2.7-3.5-2.7c-1,0-2,0.2-2.6,0.5V56h-3.3V41.4c1.4-0.6,3.7-1.1,6.1-1.1
			c4,0,6.6,1.4,6.6,4.7v11H145.9z"/>
		<path class="st0" d="M158.4,56.4c-4.5,0-6.6-1.8-6.6-4.7c0-4.1,4.3-5.2,9.4-5.7v-0.9c0-2.1-1.4-2.7-3.5-2.7
			c-1.5,0-3.2,0.4-4.1,0.9l-0.8-1.9c1.1-0.5,3.1-1.1,5.5-1.1c3.4,0,6,1.4,6,5.3v9.7C163,55.9,160.9,56.4,158.4,56.4z M161.2,47.6
			c-3.8,0.4-6.3,1.1-6.3,4.1c0,2.1,1.5,2.9,3.8,2.9c1.1,0,2-0.2,2.6-0.5V47.6z"/>
		<path class="st0" d="M167.6,56V33.8h3.3v13.1v1.3V56H167.6z"/>
		<path class="st0" d="M186.4,56.4c-2.3,0-4.2-0.5-5.3-1.1l0.9-2.4c0.8,0.5,2.2,0.9,3.8,0.9c2.3,0,3.9-1.3,3.9-3.3
			c0-4.3-8.1-2.6-8.1-8.7c0-3.1,2.5-5.8,6.5-5.8c2.1,0,3.8,0.6,4.7,1.1l-0.8,2.1c-0.7-0.4-2.1-0.9-3.4-0.9c-2.1,0-3.5,1.3-3.5,3.1
			c0,4.2,8.3,2.4,8.3,8.8C193.2,53.8,190.4,56.4,186.4,56.4z"/>
		<path class="st0" d="M201.5,56.3c-3.2,0-4.4-2.1-4.4-4.1v-9.5h-2.1v-2h2.1v-3.4l3.3-0.9v4.3h3v2h-3V52c0,1.2,0.7,2.1,2.1,2.1
			c0.3,0,0.6-0.1,0.9-0.1v2C203,56.2,202.3,56.3,201.5,56.3z"/>
		<path class="st0" d="M211.6,56.4c-4.5,0-6.6-1.8-6.6-4.7c0-4.1,4.3-5.2,9.4-5.7v-0.9c0-2.1-1.4-2.7-3.5-2.7
			c-1.5,0-3.2,0.4-4.1,0.9l-0.8-1.9c1.1-0.5,3.1-1.1,5.5-1.1c3.4,0,6,1.4,6,5.3v9.7C216.2,55.9,214.2,56.4,211.6,56.4z M214.5,47.6
			c-3.8,0.4-6.3,1.1-6.3,4.1c0,2.1,1.5,2.9,3.7,2.9c1.1,0,2-0.2,2.6-0.5V47.6z"/>
		<path class="st0" d="M226.4,56.3c-3.2,0-4.4-2.1-4.4-4.1v-9.5h-2.1v-2h2.1v-3.4l3.3-0.9v4.3h3v2h-3V52c0,1.2,0.7,2.1,2.1,2.1
			c0.3,0,0.6-0.1,0.9-0.1v2C227.9,56.2,227.2,56.3,226.4,56.3z"/>
		<path class="st0" d="M232.4,38.1c-1,0-1.9-0.8-1.9-1.7c0-0.9,0.9-1.7,1.9-1.7c1,0,1.9,0.8,1.9,1.7
			C234.3,37.3,233.4,38.1,232.4,38.1z M230.7,56V40.7h3.3V56H230.7z"/>
		<path class="st0" d="M241.1,56.4c-1.9,0-3.7-0.5-4.6-1.1l0.9-2.1c0.7,0.5,2,0.9,3.3,0.9c1.7,0,3-1.1,3-2.4c0-3.6-6.7-1.9-6.7-6.9
			c0-2.3,2-4.5,5.3-4.5c1.9,0,3.3,0.5,4.3,1.1l-0.9,1.9c-0.5-0.3-1.5-0.9-2.8-0.9c-1.7,0-2.7,1-2.7,2.2c0,3.4,6.8,1.9,6.8,7
			C247.1,54.1,244.8,56.4,241.1,56.4z"/>
		<path class="st0" d="M255.4,56.3c-3.2,0-4.4-2.1-4.4-4.1v-9.5h-2.1v-2h2.1v-3.4l3.3-0.9v4.3h3v2h-3V52c0,1.2,0.7,2.1,2.1,2.1
			c0.3,0,0.6-0.1,0.9-0.1v2C256.9,56.2,256.2,56.3,255.4,56.3z"/>
		<path class="st0" d="M261.4,38.1c-1,0-1.9-0.8-1.9-1.7c0-0.9,0.9-1.7,1.9-1.7c1,0,1.9,0.8,1.9,1.7
			C263.3,37.3,262.4,38.1,261.4,38.1z M259.7,56V40.7h3.3V56H259.7z"/>
		<path class="st0" d="M272.5,56.4c-3.8,0-6.6-3.1-6.6-8c0-5,2.9-8,6.6-8c1.9,0,3.2,0.5,3.9,1.1l-0.7,1.8c-0.5-0.3-1.3-0.7-2.4-0.7
			c-2.7,0-4,2.3-4,5.7c0,3.5,1.6,5.8,4,5.8c1,0,1.8-0.4,2.4-0.8l0.8,2C275.7,55.8,274.4,56.4,272.5,56.4z"/>
		<path class="st0" d="M282.5,56.4c-1.9,0-3.7-0.5-4.6-1.1l0.9-2.1c0.7,0.5,2,0.9,3.3,0.9c1.7,0,3-1.1,3-2.4c0-3.6-6.7-1.9-6.7-6.9
			c0-2.3,2-4.5,5.3-4.5c1.9,0,3.3,0.5,4.3,1.1l-0.9,1.9c-0.5-0.3-1.5-0.9-2.8-0.9c-1.7,0-2.7,1-2.7,2.2c0,3.4,6.8,1.9,6.8,7
			C288.5,54.1,286.1,56.4,282.5,56.4z"/>
		<path class="st0" d="M74.2,87.3c-2.2,0-4-0.5-5-1l0.7-1.7c0.8,0.5,2.3,0.9,3.9,0.9c2.6,0,4.5-1.6,4.5-3.9c0-4.9-8.7-2.9-8.7-9
			c0-2.9,2.3-5.5,6.1-5.5c2,0,3.6,0.5,4.4,1l-0.7,1.5c-0.7-0.5-2.1-0.9-3.5-0.9c-2.4,0-4,1.5-4,3.7c0,4.7,8.8,2.6,8.8,9.1
			C80.7,84.8,78,87.3,74.2,87.3z"/>
		<path class="st0" d="M99,86.9h-2l-3.5-11.2c-0.3-0.9-0.4-1.8-0.4-1.8H93c0,0-0.1,0.9-0.4,1.8l-3.6,11.2h-2l-4.8-15.3h2.4l3.2,11.2
			c0.3,1,0.4,2,0.4,2h0.1c0,0,0.1-0.9,0.4-2l3.5-11.2h2.1l3.4,11.2c0.3,0.9,0.4,2,0.4,2H98c0,0,0.2-1.1,0.4-2l3.2-11.2h2.1L99,86.9z
			"/>
		<path class="st0" d="M110.6,93h-2.5l2.7-6.1l-5.6-15.3h2.4l3.7,11.2c0.3,1,0.5,2.1,0.5,2.1h0.1c0,0,0.2-1,0.6-2.1l3.8-11.2h2.1
			L110.6,93z"/>
		<path class="st0" d="M127.1,87.3c-4.8,0-7.2-3-7.2-7.7c0-5.1,2.9-8.2,7.2-8.2c1.1,0,2.1,0.1,2.8,0.3v-7.1h2.2v21.6
			C131.1,86.8,129.3,87.3,127.1,87.3z M129.9,73c-0.7-0.2-1.5-0.3-2.4-0.3c-4,0-5.4,3.3-5.4,6.6c0,3.9,1.5,6.4,5.1,6.4
			c1.1,0,2.2-0.3,2.7-0.6V73z"/>
		<path class="st0" d="M142.4,87.3c-4.8,0-7.2-3-7.2-7.7c0-5.1,2.9-8.2,7.2-8.2c1.1,0,2.1,0.1,2.8,0.3v-7.1h2.2v21.6
			C146.3,86.8,144.6,87.3,142.4,87.3z M145.2,73c-0.7-0.2-1.5-0.3-2.4-0.3c-4,0-5.4,3.3-5.4,6.6c0,3.9,1.5,6.4,5.1,6.4
			c1.1,0,2.2-0.3,2.7-0.6V73z"/>
		<path class="st0" d="M154.5,73v13.9h-2.2V73h-2.3v-1.4h2.3v-2.2c0-2.8,1.6-4.8,4.9-4.8c0.2,0,0.5,0,0.5,0v1.4h-0.3
			c-1.5,0-2.9,1-2.9,3.1v2.5h3.2V73H154.5z"/>
		<path class="st0" d="M165.1,87.3c-4.2,0-6.1-1.8-6.1-4.5c0-4.2,4.3-5.3,9.5-5.8V76c0-2.5-1.7-3.2-3.9-3.2c-1.4,0-3,0.4-4,0.9
			l-0.6-1.4c1-0.5,2.8-1,4.9-1c3.1,0,5.7,1.2,5.7,5v10C169.2,86.9,167.3,87.3,165.1,87.3z M168.4,78.1c-4.4,0.5-7.3,1.3-7.3,4.6
			c0,2.3,1.7,3.2,4.2,3.2c1.3,0,2.4-0.3,3.1-0.6V78.1z"/>
		<path class="st0" d="M77.7,109.3v8.5h-3.4v-8.5l-6-11H72l4.1,8.3h0.1l4.3-8.3h3.3L77.7,109.3z"/>
		<path class="st0" d="M89.3,118.2c-1.9,0-3.7-0.5-4.6-1.1l0.9-2.1c0.7,0.5,2,0.9,3.3,0.9c1.7,0,3-1.1,3-2.4c0-3.6-6.7-1.9-6.7-6.9
			c0-2.3,2-4.5,5.3-4.5c1.9,0,3.3,0.5,4.3,1.1l-0.9,1.9c-0.5-0.3-1.5-0.9-2.8-0.9c-1.7,0-2.7,1-2.7,2.2c0,3.4,6.8,1.9,6.8,7
			C95.2,115.9,92.9,118.2,89.3,118.2z"/>
		<path class="st0" d="M103.5,118.1c-3.2,0-4.4-2.1-4.4-4.1v-9.5H97v-2h2.1v-3.4l3.3-0.9v4.3h3v2h-3v9.3c0,1.2,0.7,2.1,2.1,2.1
			c0.3,0,0.6-0.1,0.9-0.1v2C105,118,104.4,118.1,103.5,118.1z"/>
		<path class="st0" d="M113.7,118.2c-4.5,0-6.6-1.8-6.6-4.7c0-4.1,4.3-5.2,9.4-5.7v-0.9c0-2.1-1.4-2.7-3.5-2.7
			c-1.5,0-3.2,0.4-4.1,0.9l-0.8-1.9c1.1-0.5,3.1-1.1,5.5-1.1c3.4,0,6,1.4,6,5.3v9.7C118.3,117.7,116.2,118.2,113.7,118.2z
			 M116.5,109.4c-3.8,0.4-6.3,1.1-6.3,4.1c0,2.1,1.5,2.9,3.8,2.9c1.1,0,2-0.2,2.6-0.5V109.4z"/>
		<path class="st0" d="M129.9,118.2c-4.9,0-7.6-2.9-7.6-7.8c0-5,3-8.1,7.3-8.1c1.1,0,2,0.1,2.7,0.3v-7h3.3v21.5
			C134.2,117.7,132.4,118.2,129.9,118.2z M132.2,104.3c-0.6-0.1-1.2-0.2-2-0.2c-3.4,0-4.7,2.8-4.7,6.1c0,3.7,1.3,5.9,4.4,5.9
			c0.9,0,1.8-0.2,2.2-0.5V104.3z"/>
		<path class="st0" d="M141.3,111.3c0.3,3,2,4.6,4.8,4.6c1.9,0,3.4-0.5,4.3-0.9l0.8,2.1c-1.1,0.5-2.9,1.1-5.4,1.1
			c-4.7,0-7.7-2.8-7.7-8.1c0-5,2.8-8,7-8c4.3,0,6.6,2.7,6.6,7.8L141.3,111.3z M145.1,104.1c-2.2,0-4,1.8-3.9,5.6l7.5-1
			C148.6,105.5,147.2,104.1,145.1,104.1z"/>
		<path class="st0" d="M160.3,124.3c-2.4,0-4.6-0.5-5.7-1.1l0.9-2.1c0.9,0.5,2.7,0.9,4.4,0.9c2.9,0,4.1-1.5,4.1-3.6v-1
			c-0.7,0.4-1.9,0.6-3.4,0.6c-4,0-6.6-2.9-6.6-7.5c0-4.9,2.7-8.4,7.9-8.4c2.3,0,4.3,0.5,5.3,1.1v14.8
			C167.2,122.1,164.4,124.3,160.3,124.3z M163.9,104.5c-0.5-0.3-1.2-0.5-2.2-0.5c-3,0-4.4,2.4-4.4,6.3c0,3.8,1.5,5.8,4.3,5.8
			c0.9,0,1.9-0.2,2.4-0.5V104.5z"/>
		<path class="st0" d="M176.3,118.2c-4.5,0-6.6-1.8-6.6-4.7c0-4.1,4.3-5.2,9.4-5.7v-0.9c0-2.1-1.4-2.7-3.5-2.7
			c-1.5,0-3.2,0.4-4.1,0.9l-0.8-1.9c1.1-0.5,3.1-1.1,5.5-1.1c3.4,0,6,1.4,6,5.3v9.7C180.9,117.7,178.9,118.2,176.3,118.2z
			 M179.1,109.4c-3.8,0.4-6.3,1.1-6.3,4.1c0,2.1,1.5,2.9,3.7,2.9c1.1,0,2-0.2,2.6-0.5V109.4z"/>
		<path class="st0" d="M191.7,118.2c-4.3,0-6.2-2-6.2-5.3v-10.4h3.3v10.6c0,1.6,1,2.9,3.1,2.9c1.2,0,2.2-0.2,2.8-0.5v-12.9h3.3v14.6
			C196.7,117.7,194.5,118.2,191.7,118.2z"/>
		<path class="st0" d="M217.8,118.2c-5.6,0-9.4-3.6-9.4-10.3c0-6.3,4.1-10,9.6-10c2.6,0,4.2,0.5,5.3,1.1l-0.8,2.1
			c-0.7-0.4-2.2-0.7-4-0.7c-3.7,0-6.5,2.3-6.5,7.7c0,5.1,2.6,7.8,5.7,7.8c1.2,0,2.2-0.2,2.7-0.5v-6.7h-3.4v-2h6.7v10.4
			C222.3,117.8,220.4,118.2,217.8,118.2z"/>
		<path class="st0" d="M243.7,117.8h-3l-3-10c-0.3-1-0.4-2-0.4-2h-0.1c0,0-0.1,1-0.4,2l-3.1,10h-3l-4.7-15.3h3.4l2.7,10.2
			c0.3,1.1,0.4,2.1,0.4,2.1h0.1c0,0,0.1-1,0.4-2.1l3-10.2h2.9l2.9,10.2c0.3,1,0.4,2.1,0.4,2.1h0.1c0,0,0.1-1.1,0.4-2.1l2.8-10.2h3
			L243.7,117.8z"/>
		<path class="st0" d="M250.7,117.8V95.6h3.3v5.2v10.7v6.4H250.7z"/>
		<path class="st0" d="M263.3,118.2c-4.5,0-6.6-1.8-6.6-4.7c0-4.1,4.3-5.2,9.4-5.7v-0.9c0-2.1-1.4-2.7-3.5-2.7
			c-1.5,0-3.2,0.4-4.1,0.9l-0.8-1.9c1.1-0.5,3.1-1.1,5.5-1.1c3.4,0,6,1.4,6,5.3v9.7C267.9,117.7,265.8,118.2,263.3,118.2z
			 M266.1,109.4c-3.8,0.4-6.3,1.1-6.3,4.1c0,2.1,1.5,2.9,3.8,2.9c1.1,0,2-0.2,2.6-0.5V109.4z"/>
		<path class="st0" d="M279.5,118.2c-4.9,0-7.6-2.9-7.6-7.8c0-5,3-8.1,7.3-8.1c1.1,0,2,0.1,2.7,0.3v-7h3.3v21.5
			C283.8,117.7,282,118.2,279.5,118.2z M281.8,104.3c-0.6-0.1-1.2-0.2-2-0.2c-3.4,0-4.7,2.8-4.7,6.1c0,3.7,1.3,5.9,4.4,5.9
			c0.9,0,1.8-0.2,2.2-0.5V104.3z"/>
		<path class="st0" d="M294.8,118.2c-4.7,0-7-3.5-7-8c0-4.6,2.3-8,7-8c4.7,0,7,3.5,7,8C301.7,114.7,299.4,118.2,294.8,118.2z
			 M294.8,104.2c-2.8,0-3.6,2.9-3.6,5.9c0,3,0.9,5.8,3.6,5.8c2.8,0,3.6-2.8,3.6-5.8C298.4,107.2,297.6,104.2,294.8,104.2z"/>
		<path class="st0" d="M304.5,117.8v-6.9V95.6h3.3v6.8v15.5H304.5z"/>
	</g>
	<g>
		<path class="st1" d="M0,34.1c0.9-1.8,1.7-3.5,2.7-5.2c-1.1-2.7-2-5.5-2.7-8.3C0,25.3,0,30.2,0,34.1z M5.3,0C5.3,0,0,0,0,6.5
			C0,6.9,0,8.2,0,10c0.5,6,1.7,11.8,3.8,17.2c2.9-4.7,6.5-8.9,10.8-12.6C23.1,7.3,34.6,2.2,50.2,0H5.3z"/>
		<path class="st0" d="M56.1,3.6c-17.8,1.7-30,6.8-38.7,14.2c-4.7,4-8.4,8.7-11.4,14.1c6.8,13.3,19.9,23,41.6,24.4l2.1,0
			c0,0,6.7,0.2,6.7-7.2V3.5C56.3,3.5,56.2,3.6,56.1,3.6z M10.3,41.4c-2-2.4-3.8-5-5.3-7.7c-1.9,3.6-3.5,7.5-5,11.6c0,6.4,0,11,0,11
			l35.6,0.1C24.5,53.6,16.2,48.3,10.3,41.4z"/>
	</g>
</g>
</svg>
