<?xml version="1.0" encoding="utf-8"?>
<!-- Generator: Adobe Illustrator 21.0.2, SVG Export Plug-In . SVG Version: 6.00 Build 0)  -->
<svg version="1.1" id="Layer_1" xmlns="http://www.w3.org/2000/svg" xmlns:xlink="http://www.w3.org/1999/xlink" x="0px" y="0px"
	 viewBox="0 0 400 168.6" style="enable-background:new 0 0 400 168.6;" xml:space="preserve">
<style type="text/css">
	.st0{fill:#003C57;}
	.st1{fill:#FFFFFF;}
</style>
<rect class="st0" width="400" height="168.6"/>
<g>
	<g>
		<path class="st1" d="M56.2,90.2c0.8-1.8,1.7-3.5,2.7-5.2c-1.1-2.7-2-5.5-2.7-8.3C56.2,81.4,56.2,86.4,56.2,90.2z M61.5,56.2
			c0,0-5.2,0-5.2,6.5c0,0.4,0,1.7,0,3.5c0.5,6,1.7,11.8,3.8,17.1c2.9-4.6,6.5-8.9,10.8-12.5c8.5-7.3,20-12.3,35.5-14.6H61.5z"/>
		<path class="st1" d="M112.2,59.7C94.4,61.4,82.3,66.5,73.6,74c-4.7,4-8.4,8.7-11.4,14c6.8,13.2,19.8,23,41.5,24.4l2.1,0
			c0,0,6.7,0.2,6.7-7.2V59.7C112.4,59.7,112.3,59.7,112.2,59.7z M66.5,97.5c-2-2.4-3.8-5-5.3-7.7c-1.9,3.6-3.5,7.5-4.9,11.6
			c0,6.4,0,11,0,11l35.5,0.1C80.7,109.7,72.4,104.4,66.5,97.5z"/>
	</g>
	<g>
		<path class="st1" d="M134,81.3c-5.4,0-7.9-4.5-7.9-10.1c0-5.5,2.4-10.1,7.9-10.1s7.8,4.6,7.8,10.1C141.8,76.8,139.4,81.3,134,81.3
			z M134,62.8c-4,0-5.4,4.4-5.4,8.4c0,4,1.3,8.3,5.4,8.3c4.2,0,5.4-4.4,5.4-8.3C139.4,67.2,138,62.8,134,62.8z"/>
		<path class="st1" d="M148.6,67.1v13.8h-2.2V67.1h-2.3v-1.4h2.3v-2.2c0-2.8,1.6-4.8,4.8-4.8c0.2,0,0.5,0,0.5,0v1.4h-0.3
			c-1.5,0-2.9,1-2.9,3.1v2.5h3.2v1.4H148.6z"/>
		<path class="st1" d="M157.7,67.1v13.8h-2.2V67.1h-2.3v-1.4h2.3v-2.2c0-2.8,1.6-4.8,4.8-4.8c0.2,0,0.5,0,0.5,0v1.4h-0.3
			c-1.5,0-2.9,1-2.9,3.1v2.5h3.2v1.4H157.7z"/>
		<path class="st1" d="M164.5,62.8c-0.8,0-1.4-0.6-1.4-1.4c0-0.8,0.6-1.4,1.4-1.4c0.8,0,1.4,0.6,1.4,1.4
			C165.9,62.3,165.3,62.8,164.5,62.8z M163.4,80.9V65.7h2.2v15.2H163.4z"/>
		<path class="st1" d="M175.1,81.3c-3.6,0-6.4-3.1-6.4-8c0-5,2.8-7.9,6.5-7.9c1.8,0,3.1,0.5,3.7,1l-0.6,1.4
			c-0.5-0.4-1.4-0.8-2.6-0.8c-3.1,0-4.7,2.7-4.7,6.3c0,3.7,1.8,6.4,4.6,6.4c1.1,0,2.1-0.4,2.7-0.8l0.6,1.5
			C178.2,80.8,176.9,81.3,175.1,81.3z"/>
		<path class="st1" d="M182.5,74.3c0.3,3.6,2.3,5.4,5.3,5.4c1.9,0,3.3-0.5,4.1-0.9l0.6,1.5c-1,0.5-2.7,1-4.9,1c-4.3,0-7.3-2.5-7.3-8
			c0-5.2,2.8-7.9,6.6-7.9c3.9,0,6.2,2.4,6.2,7.4L182.5,74.3z M186.9,66.8c-2.5,0-4.5,1.9-4.5,6.2l8.6-1.2
			C191,68.3,189.3,66.8,186.9,66.8z"/>
		<path class="st1" d="M207.3,67.1v13.8h-2.2V67.1h-2.3v-1.4h2.3v-2.2c0-2.8,1.6-4.8,4.8-4.8c0.2,0,0.5,0,0.5,0v1.4h-0.3
			c-1.5,0-2.9,1-2.9,3.1v2.5h3.2v1.4H207.3z"/>
		<path class="st1" d="M218.5,81.3c-4.5,0-6.5-3.5-6.5-7.9c0-4.5,2-8,6.5-8c4.5,0,6.5,3.5,6.5,8C225,77.8,223,81.3,218.5,81.3z
			 M218.5,66.9c-3.3,0-4.3,3.4-4.3,6.5c0,3.1,1,6.3,4.3,6.3c3.3,0,4.3-3.2,4.3-6.3C222.8,70.2,221.8,66.9,218.5,66.9z"/>
		<path class="st1" d="M234.6,67.2c-1.4-0.4-3.4-0.3-4.4,0.3v13.5h-2.2V66.4c1.6-0.7,3.2-1,6.1-1c0.4,0,0.9,0,1.1,0L234.6,67.2z"/>
		<path class="st1" d="M139,111.7l-8.6-13.3c-0.6-1-1.1-2-1.1-2h-0.1c0,0,0.1,1.1,0.1,2.3v12.9h-2.8V92.3h3.2l8.2,12.5
			c0.7,1.1,1.1,2,1.1,2h0.1c0,0-0.1-1.1-0.1-2.3V92.3h2.8v19.4H139z"/>
		<path class="st1" d="M151,112.1c-4.5,0-6.6-1.8-6.6-4.7c0-4.1,4.3-5.2,9.4-5.6v-0.9c0-2.1-1.4-2.7-3.5-2.7c-1.5,0-3.2,0.4-4.1,0.9
			l-0.8-1.9c1.1-0.4,3.1-1.1,5.5-1.1c3.4,0,6,1.4,6,5.3v9.6C155.6,111.6,153.6,112.1,151,112.1z M153.8,103.3
			c-3.8,0.4-6.3,1.1-6.3,4c0,2.1,1.5,2.9,3.7,2.9c1.1,0,2-0.2,2.5-0.5V103.3z"/>
		<path class="st1" d="M165.7,112c-3.2,0-4.4-2.1-4.4-4.1v-9.4h-2.1v-2h2.1v-3.4l3.2-0.9v4.3h3v2h-3v9.3c0,1.2,0.7,2.1,2.1,2.1
			c0.3,0,0.6-0.1,0.9-0.1v2C167.2,111.8,166.5,112,165.7,112z"/>
		<path class="st1" d="M171.7,93.9c-1,0-1.9-0.8-1.9-1.7c0-0.9,0.9-1.7,1.9-1.7c1,0,1.9,0.8,1.9,1.7
			C173.6,93.1,172.7,93.9,171.7,93.9z M170,111.7V96.5h3.3v15.2H170z"/>
		<path class="st1" d="M183,112.1c-4.6,0-6.9-3.4-6.9-8s2.3-8,6.9-8c4.6,0,6.9,3.5,6.9,8S187.7,112.1,183,112.1z M183,98.2
			c-2.8,0-3.6,2.9-3.6,5.9c0,3,0.9,5.8,3.6,5.8c2.8,0,3.6-2.8,3.6-5.8C186.7,101.1,185.8,98.2,183,98.2z"/>
		<path class="st1" d="M202,111.7v-10.8c0-1.9-1.7-2.7-3.5-2.7c-1,0-2,0.2-2.6,0.5v13.1h-3.2V97.2c1.4-0.6,3.7-1.1,6-1.1
			c4,0,6.6,1.4,6.6,4.7v10.9H202z"/>
		<path class="st1" d="M214.4,112.1c-4.5,0-6.6-1.8-6.6-4.7c0-4.1,4.3-5.2,9.4-5.6v-0.9c0-2.1-1.4-2.7-3.5-2.7
			c-1.5,0-3.2,0.4-4.1,0.9l-0.8-1.9c1.1-0.4,3.1-1.1,5.5-1.1c3.4,0,6,1.4,6,5.3v9.6C219,111.6,216.9,112.1,214.4,112.1z
			 M217.2,103.3c-3.8,0.4-6.3,1.1-6.3,4c0,2.1,1.5,2.9,3.7,2.9c1.1,0,2-0.2,2.5-0.5V103.3z"/>
		<path class="st1" d="M223.6,111.7V89.5h3.2v6.6v15.5H223.6z"/>
		<path class="st1" d="M242.3,112.1c-2.3,0-4.2-0.5-5.3-1.1l0.9-2.4c0.8,0.4,2.2,0.9,3.7,0.9c2.3,0,3.9-1.3,3.9-3.2
			c0-4.3-8.1-2.6-8.1-8.6c0-3.1,2.5-5.7,6.4-5.7c2.1,0,3.8,0.6,4.7,1.1l-0.8,2.1c-0.7-0.4-2-0.9-3.4-0.9c-2.1,0-3.5,1.3-3.5,3.1
			c0,4.2,8.2,2.4,8.2,8.8C249,109.5,246.2,112.1,242.3,112.1z"/>
		<path class="st1" d="M257.3,112c-3.2,0-4.4-2.1-4.4-4.1v-9.4h-2.1v-2h2.1v-3.4l3.2-0.9v4.3h3v2h-3v9.3c0,1.2,0.7,2.1,2.1,2.1
			c0.3,0,0.6-0.1,0.9-0.1v2C258.7,111.8,258.1,112,257.3,112z"/>
		<path class="st1" d="M267.4,112.1c-4.5,0-6.6-1.8-6.6-4.7c0-4.1,4.3-5.2,9.4-5.6v-0.9c0-2.1-1.4-2.7-3.5-2.7
			c-1.5,0-3.2,0.4-4.1,0.9l-0.8-1.9c1.1-0.4,3.1-1.1,5.5-1.1c3.4,0,6,1.4,6,5.3v9.6C271.9,111.6,269.9,112.1,267.4,112.1z
			 M270.2,103.3c-3.8,0.4-6.3,1.1-6.3,4c0,2.1,1.5,2.9,3.7,2.9c1.1,0,2-0.2,2.5-0.5V103.3z"/>
		<path class="st1" d="M282,112c-3.2,0-4.4-2.1-4.4-4.1v-9.4h-2.1v-2h2.1v-3.4l3.2-0.9v4.3h3v2h-3v9.3c0,1.2,0.7,2.1,2.1,2.1
			c0.3,0,0.6-0.1,0.9-0.1v2C283.5,111.8,282.9,112,282,112z"/>
		<path class="st1" d="M288,93.9c-1,0-1.9-0.8-1.9-1.7c0-0.9,0.9-1.7,1.9-1.7c1,0,1.9,0.8,1.9,1.7C289.9,93.1,289,93.9,288,93.9z
			 M286.4,111.7V96.5h3.3v15.2H286.4z"/>
		<path class="st1" d="M296.7,112.1c-1.9,0-3.7-0.5-4.6-1.1l0.9-2.1c0.6,0.4,1.9,0.9,3.3,0.9c1.7,0,3-1.1,3-2.4
			c0-3.6-6.7-1.9-6.7-6.9c0-2.3,2-4.5,5.3-4.5c1.9,0,3.2,0.5,4.3,1.1l-0.9,1.9c-0.5-0.3-1.5-0.9-2.8-0.9c-1.7,0-2.7,1-2.7,2.2
			c0,3.4,6.8,1.9,6.8,7C302.6,109.7,300.3,112.1,296.7,112.1z"/>
		<path class="st1" d="M310.9,112c-3.2,0-4.4-2.1-4.4-4.1v-9.4h-2.1v-2h2.1v-3.4l3.2-0.9v4.3h3v2h-3v9.3c0,1.2,0.7,2.1,2.1,2.1
			c0.3,0,0.6-0.1,0.9-0.1v2C312.3,111.8,311.7,112,310.9,112z"/>
		<path class="st1" d="M316.8,93.9c-1,0-1.9-0.8-1.9-1.7c0-0.9,0.9-1.7,1.9-1.7c1,0,1.9,0.8,1.9,1.7
			C318.7,93.1,317.9,93.9,316.8,93.9z M315.2,111.7V96.5h3.3v15.2H315.2z"/>
		<path class="st1" d="M327.8,112.1c-3.7,0-6.6-3-6.6-8c0-5,2.9-8,6.6-8c1.9,0,3.2,0.5,3.9,1.1L331,99c-0.5-0.3-1.3-0.7-2.4-0.7
			c-2.6,0-4,2.3-4,5.7c0,3.5,1.6,5.7,4,5.7c1,0,1.8-0.4,2.4-0.8l0.8,2C331.1,111.5,329.8,112.1,327.8,112.1z"/>
		<path class="st1" d="M337.8,112.1c-1.9,0-3.7-0.5-4.6-1.1l0.9-2.1c0.6,0.4,1.9,0.9,3.3,0.9c1.7,0,3-1.1,3-2.4
			c0-3.6-6.7-1.9-6.7-6.9c0-2.3,2-4.5,5.3-4.5c1.9,0,3.2,0.5,4.3,1.1l-0.9,1.9c-0.5-0.3-1.5-0.9-2.8-0.9c-1.7,0-2.7,1-2.7,2.2
			c0,3.4,6.8,1.9,6.8,7C343.8,109.7,341.4,112.1,337.8,112.1z"/>
	</g>
</g>
</svg>
