<?xml version="1.0" encoding="utf-8"?>
<!-- Generator: Adobe Illustrator 21.0.2, SVG Export Plug-In . SVG Version: 6.00 Build 0)  -->
<svg version="1.1" id="Layer_1" xmlns="http://www.w3.org/2000/svg" xmlns:xlink="http://www.w3.org/1999/xlink" x="0px" y="0px"
	 viewBox="0 0 400 89.8" style="enable-background:new 0 0 400 89.8;" xml:space="preserve">
<style type="text/css">
	.st0{fill:#003C57;}
	.st1{fill:#A7BC39;}
</style>
<g>
	<path class="st0" d="M76.4,55.8c-5,0-7.2-4.2-7.2-9.3c0-5,2.2-9.3,7.2-9.3s7.2,4.2,7.2,9.3S81.4,55.8,76.4,55.8z M76.4,38.8
		c-3.7,0-5,4-5,7.7s1.2,7.7,5,7.7s4.9-4,4.9-7.7C81.4,42.8,80,38.8,76.4,38.8z"/>
	<path class="st0" d="M89.8,42.8v12.7h-2V42.8h-2v-1.3h2v-2c0-2.6,1.5-4.3,4.4-4.3c0.3,0,0.5,0,0.5,0v1.3h-0.3
		c-1.4,0-2.6,0.9-2.6,2.8v2.2h2.9v1.3H89.8L89.8,42.8z"/>
	<path class="st0" d="M98.1,42.8v12.7h-2V42.8h-2v-1.3h2v-2c0-2.6,1.5-4.3,4.4-4.3c0.3,0,0.5,0,0.5,0v1.3h-0.3
		c-1.4,0-2.6,0.9-2.6,2.8v2.2h2.9v1.3H98.1L98.1,42.8z"/>
	<path class="st0" d="M104.3,38.9c-0.7,0-1.3-0.5-1.3-1.3s0.6-1.3,1.3-1.3s1.3,0.6,1.3,1.3S105.1,38.9,104.3,38.9z M103.3,55.5V41.6
		h2v13.9H103.3z"/>
	<path class="st0" d="M114.1,55.8c-3.3,0-5.9-2.8-5.9-7.3c0-4.6,2.6-7.3,6-7.3c1.7,0,2.8,0.4,3.4,0.9l-0.5,1.3
		c-0.4-0.3-1.3-0.8-2.5-0.8c-2.8,0-4.3,2.5-4.3,5.8c0,3.4,1.7,5.9,4.3,5.9c1,0,1.9-0.3,2.5-0.8l0.5,1.4
		C117,55.4,115.8,55.8,114.1,55.8z"/>
	<path class="st0" d="M120.9,49.4c0.3,3.3,2,4.9,4.9,4.9c1.7,0,3.1-0.4,3.7-0.9l0.6,1.4c-0.9,0.5-2.6,0.9-4.5,0.9
		c-3.9,0-6.7-2.3-6.7-7.3c0-4.8,2.6-7.2,6-7.2c3.6,0,5.7,2.2,5.7,6.8L120.9,49.4z M124.9,42.6c-2.3,0-4.2,1.8-4.2,5.7l7.9-1.1
		C128.7,43.9,127.1,42.6,124.9,42.6z"/>
	<path class="st0" d="M140.5,42.8v12.7h-2V42.8h-2v-1.3h2v-2c0-2.6,1.5-4.3,4.4-4.3c0.2,0,0.5,0,0.5,0v1.3h-0.3
		c-1.4,0-2.6,0.9-2.6,2.8v2.2h2.9v1.3H140.5L140.5,42.8z"/>
	<path class="st0" d="M150.8,55.8c-4.1,0-6-3.1-6-7.3c0-4.1,1.9-7.3,6-7.3s6,3.2,6,7.3C156.8,52.7,154.9,55.8,150.8,55.8z
		 M150.8,42.6c-3.1,0-3.9,3.1-3.9,6s0.9,5.8,3.9,5.8c3.1,0,3.9-3,3.9-5.8S153.9,42.6,150.8,42.6z"/>
	<path class="st0" d="M165.6,42.8c-1.3-0.3-3.1-0.3-4.1,0.3v12.4h-2V42.2c1.4-0.6,3-0.9,5.5-0.9c0.3,0,0.9,0,1,0L165.6,42.8z"/>
	<path class="st0" d="M183.9,55.7L176,43.5c-0.6-0.9-1-1.8-1-1.8h-0.1c0,0,0.1,1,0.1,2.1v11.9h-2.6V37.9h2.9l7.5,11.5
		c0.7,1,1,1.9,1,1.9h0.1c0,0-0.1-1-0.1-2V37.9h2.6v17.8H183.9z"/>
	<path class="st0" d="M195,56c-4.1,0-6-1.6-6-4.3c0-3.7,3.9-4.8,8.6-5.2v-0.8c0-2-1.3-2.5-3.2-2.5c-1.4,0-2.9,0.4-3.7,0.8l-0.7-1.7
		c0.9-0.4,2.8-1,5-1c3.1,0,5.4,1.3,5.4,4.8V55C199.2,55.6,197.3,56,195,56z M197.6,47.9c-3.5,0.3-5.8,1-5.8,3.7
		c0,1.9,1.4,2.7,3.4,2.7c0.9,0,1.8-0.2,2.3-0.4L197.6,47.9L197.6,47.9z"/>
	<path class="st0" d="M208.5,55.9c-2.9,0-4.1-1.9-4.1-3.7v-8.7h-2v-1.8h2v-3.1l3-0.9v4h2.7v1.8h-2.7V52c0,1.1,0.7,2,1.9,2
		c0.3,0,0.5-0.1,0.9-0.2v1.9C209.8,55.8,209.2,55.9,208.5,55.9z"/>
	<path class="st0" d="M213.9,39.4c-0.9,0-1.7-0.7-1.7-1.5c0-0.9,0.8-1.5,1.7-1.5s1.7,0.7,1.7,1.5C215.7,38.6,214.8,39.4,213.9,39.4z
		 M212.5,55.7v-14h3v13.9h-3V55.7z"/>
	<path class="st0" d="M224.4,56c-4.3,0-6.4-3.1-6.4-7.3s2.1-7.3,6.4-7.3s6.4,3.1,6.4,7.3S228.6,56,224.4,56z M224.4,43.3
		c-2.6,0-3.3,2.7-3.3,5.4s0.9,5.3,3.3,5.3c2.6,0,3.3-2.6,3.3-5.3S226.9,43.3,224.4,43.3z"/>
	<path class="st0" d="M241.8,55.7v-9.9c0-1.8-1.5-2.5-3.2-2.5c-0.9,0-1.9,0.2-2.4,0.4v12h-3V42.3c1.3-0.6,3.3-1,5.5-1
		c3.7,0,6,1.3,6,4.3v10L241.8,55.7L241.8,55.7z"/>
	<path class="st0" d="M253.2,56c-4.1,0-6-1.6-6-4.3c0-3.7,3.9-4.8,8.6-5.2v-0.8c0-2-1.3-2.5-3.2-2.5c-1.4,0-2.9,0.4-3.7,0.8
		l-0.7-1.7c0.9-0.4,2.8-1,5-1c3.1,0,5.4,1.3,5.4,4.8V55C257.3,55.6,255.5,56,253.2,56z M255.7,47.9c-3.5,0.3-5.8,1-5.8,3.7
		c0,1.9,1.4,2.7,3.4,2.7c0.9,0,1.8-0.2,2.3-0.4L255.7,47.9L255.7,47.9z"/>
	<path class="st0" d="M261.6,55.7V49V35.4h3v6.9v13.4C264.6,55.7,261.6,55.7,261.6,55.7z"/>
	<path class="st0" d="M276.4,56c-2.1,0-3.9-0.5-4.8-1l0.9-2.2c0.7,0.4,2,0.9,3.4,0.9c2,0,3.6-1.2,3.6-3c0-3.9-7.4-2.4-7.4-7.9
		c0-2.8,2.3-5.3,5.9-5.3c2,0,3.5,0.5,4.3,1l-0.8,2c-0.7-0.4-1.9-0.9-3.1-0.9c-2,0-3.1,1.2-3.1,2.8c0,3.8,7.6,2.2,7.6,8.1
		C282.6,53.6,280,56,276.4,56z"/>
	<path class="st0" d="M290.2,55.9c-2.9,0-4.1-1.9-4.1-3.7v-8.7h-2v-1.8h2v-3.1l3-0.9v4h2.7v1.8h-2.7V52c0,1.1,0.7,2,1.9,2
		c0.3,0,0.5-0.1,0.9-0.2v1.9C291.5,55.8,290.9,55.9,290.2,55.9z"/>
	<path class="st0" d="M299.4,56c-4.1,0-6-1.6-6-4.3c0-3.7,3.9-4.8,8.6-5.2v-0.8c0-2-1.3-2.5-3.2-2.5c-1.4,0-2.9,0.4-3.7,0.8
		l-0.7-1.7c0.9-0.4,2.8-1,5-1c3.1,0,5.4,1.3,5.4,4.8V55C303.6,55.6,301.7,56,299.4,56z M302,47.9c-3.5,0.3-5.8,1-5.8,3.7
		c0,1.9,1.4,2.7,3.4,2.7c0.9,0,1.8-0.2,2.3-0.4L302,47.9L302,47.9z"/>
	<path class="st0" d="M312.9,55.9c-2.9,0-4.1-1.9-4.1-3.7v-8.7h-2v-1.8h2v-3.1l3-0.9v4h2.7v1.8h-2.7V52c0,1.1,0.7,2,1.9,2
		c0.3,0,0.5-0.1,0.9-0.2v1.9C314.2,55.8,313.6,55.9,312.9,55.9z"/>
	<path class="st0" d="M318.4,39.4c-0.9,0-1.7-0.7-1.7-1.5c0-0.9,0.8-1.5,1.7-1.5c0.9,0,1.7,0.7,1.7,1.5
		C320.1,38.6,319.3,39.4,318.4,39.4z M316.8,55.7v-14h3v13.9h-3V55.7z"/>
	<path class="st0" d="M326.4,56c-1.7,0-3.4-0.5-4.3-1l0.8-2c0.6,0.4,1.8,0.9,3.1,0.9c1.5,0,2.7-1,2.7-2.2c0-3.3-6.1-1.8-6.1-6.3
		c0-2,1.9-4.1,4.8-4.1c1.7,0,3,0.4,3.9,1l-0.8,1.7c-0.4-0.3-1.4-0.8-2.6-0.8c-1.5,0-2.5,0.9-2.5,2c0,3.1,6.2,1.7,6.2,6.4
		C331.8,53.9,329.7,56,326.4,56z"/>
	<path class="st0" d="M339.4,55.9c-2.9,0-4.1-1.9-4.1-3.7v-8.7h-2v-1.8h2v-3.1l3-0.9v4h2.7v1.8h-2.7V52c0,1.1,0.7,2,1.9,2
		c0.3,0,0.5-0.1,0.9-0.2v1.9C340.7,55.8,340.1,55.9,339.4,55.9z"/>
	<path class="st0" d="M344.8,39.4c-0.9,0-1.7-0.7-1.7-1.5c0-0.9,0.8-1.5,1.7-1.5c0.9,0,1.7,0.7,1.7,1.5
		C346.6,38.6,345.8,39.4,344.8,39.4z M343.4,55.7v-14h3v13.9h-3V55.7z"/>
	<path class="st0" d="M354.9,56c-3.4,0-6-2.8-6-7.3c0-4.6,2.7-7.3,6-7.3c1.7,0,2.9,0.5,3.6,1l-0.7,1.7c-0.4-0.3-1.2-0.7-2.2-0.7
		c-2.5,0-3.7,2.1-3.7,5.2c0,3.1,1.4,5.3,3.7,5.3c0.9,0,1.7-0.3,2.2-0.7l0.8,1.9C357.9,55.5,356.7,56,354.9,56z"/>
	<path class="st0" d="M364.1,56c-1.7,0-3.4-0.5-4.3-1l0.8-2c0.6,0.4,1.8,0.9,3.1,0.9c1.5,0,2.7-1,2.7-2.2c0-3.3-6.1-1.8-6.1-6.3
		c0-2,1.9-4.1,4.8-4.1c1.7,0,3,0.4,3.9,1l-0.8,1.7c-0.4-0.3-1.4-0.8-2.6-0.8c-1.5,0-2.5,0.9-2.5,2c0,3.1,6.2,1.7,6.2,6.4
		C369.6,53.9,367.4,56,364.1,56z"/>
</g>
<g>
	<path class="st1" d="M30.9,48c0.4-0.9,0.8-1.6,1.3-2.6c-0.6-1.4-0.9-2.1-1.3-3.7C30.9,44.3,30.9,46,30.9,48z M33.6,30.7
		c0,0-2.8,0-2.8,3.4c0,0.3,0-0.4,0,0.5c0.3,3.2,1.3,6.5,2.4,9.3c1.5-2.5,3-4,5.3-6c4.4-3.8,9.7-6,17.9-7.2H33.6z"/>
	<path class="st0" d="M60.3,32.6C50.9,33.5,44.5,36.1,40,40c-2.5,2.1-4,3.8-5.6,6.6c3.7,7,11,12.8,22.4,13.6H57c0,0,3.5,0.1,3.5-3.8
		V32.6C60.5,32.6,60.4,32.6,60.3,32.6z M36.2,52.4c-1.1-1.3-2-2.6-2.8-4.1c-1,1.9-1.9,3.9-2.6,6.1c0,3.4,0,5.8,0,5.8h17.3
		C42.6,58.7,39.4,56.1,36.2,52.4z"/>
</g>
</svg>
