<?xml version="1.0" encoding="utf-8"?>
<!-- Generator: Adobe Illustrator 21.0.2, SVG Export Plug-In . SVG Version: 6.00 Build 0)  -->
<svg version="1.1" id="Layer_1" xmlns="http://www.w3.org/2000/svg" xmlns:xlink="http://www.w3.org/1999/xlink" x="0px" y="0px"
	 viewBox="0 0 1024 573" style="enable-background:new 0 0 1024 573;" xml:space="preserve">
<style type="text/css">
	.st0{clip-path:url(#SVGID_2_);}
	.st1{fill:#D2376D;}
	.st2{fill:#FFFFFF;}
	.st3{fill:#003C57;}
	.st4{opacity:0.65;fill:#EB92BB;}
</style>
<g>
	<defs>
		<rect id="SVGID_1_" width="1024" height="573"/>
	</defs>
	<clipPath id="SVGID_2_">
		<use xlink:href="#SVGID_1_"  style="overflow:visible;"/>
	</clipPath>
	<g class="st0">
		<rect class="st1" width="1024" height="573"/>
	</g>
	<g class="st0">
		<g>
			<path class="st2" d="M575,449.2c-4,2.3-7.6,3.9-11.1,4.8l-8.5-14.6c3.5-1,6.4-2.2,8.9-3.7c3.8-2.2,5.9-5,6.2-8.4
				c0.3-3.4-1.1-7.6-4.1-12.7l-45.2-77.4l17.5-10.2l45.1,77.3c5.6,9.6,7.7,18.3,6.2,25.9C588.6,437.8,583.6,444.1,575,449.2z"/>
			<path class="st2" d="M658.6,312.3c8,13.7,10.7,26.2,8.2,37.5s-10.1,20.6-22.7,28c-12.7,7.4-24.5,9.4-35.6,6s-20.6-12-28.6-25.7
				c-8-13.8-10.7-26.2-8.2-37.5c2.6-11.2,10.2-20.5,22.9-27.9c12.7-7.4,24.5-9.4,35.5-6C641.1,290,650.6,298.6,658.6,312.3z
				 M598.3,347.5c5.4,9.2,11.2,15.2,17.4,17.8c6.2,2.6,12.8,1.9,19.8-2.2c14-8.2,15.6-21.5,4.7-40.1c-10.9-18.6-23.2-23.9-37.1-15.8
				c-7,4.1-10.9,9.5-11.7,16.2C590.6,330.2,592.9,338.2,598.3,347.5z"/>
		</g>
		<g>
			<path class="st2" d="M612.7,259.8l36.9-21.5c16.8-9.8,30.4-14.5,40.8-14.2c10.4,0.4,18.6,5.7,24.7,16.2
				c4.1,7.1,5.9,13.9,5.2,20.3c-0.7,6.5-3.5,11.8-8.5,15.9l0.5,0.8c8.5-2.7,15.7-2.7,21.7-0.1c6,2.7,11.2,7.8,15.7,15.4
				c6.3,10.8,7.3,21.5,3,32.1c-4.3,10.6-13.1,19.8-26.5,27.6l-44.3,25.8L612.7,259.8z M665.2,292.1l14.6-8.5
				c6.8-4,11.1-7.9,12.9-11.8c1.8-3.9,1.3-8.3-1.5-13.1c-2.6-4.5-6.2-6.8-10.7-6.9c-4.5,0-10.3,2-17.5,6.2l-13.2,7.7L665.2,292.1z
				 M676.8,312l18,30.9l16.4-9.5c6.9-4,11.2-8.3,13-12.9c1.8-4.6,1-9.6-2.1-15c-5.7-9.8-15.6-10.7-29.7-2.5L676.8,312z"/>
			<path class="st2" d="M844.1,239.6c6.2,10.7,7.3,21.4,3.2,32c-4.1,10.7-13,20-26.7,28c-12.6,7.4-25.2,11.5-37.7,12.4l-13.6-23.3
				c10.1-1.1,18.3-2.5,24.7-4.3c6.4-1.8,11.9-4,16.5-6.7c5.5-3.2,9.1-6.7,10.8-10.6c1.7-3.8,1.4-7.8-1.1-12c-1.4-2.3-3.2-4-5.6-5.1
				c-2.4-1.1-5.3-1.7-8.8-1.9c-3.5-0.2-10.2,0.1-20,0.9c-9.2,0.8-16.6,0.7-22-0.3c-5.4-1-10.5-3-15.1-5.9s-8.5-7.1-11.7-12.7
				c-6.1-10.5-7.4-20.8-3.8-30.9c3.6-10.1,11.7-18.9,24.2-26.2c6.2-3.6,12.5-6.3,18.9-8.1c6.4-1.8,13.5-3.2,21.1-4.1l3.3,24.3
				c-7.8,1.1-14.1,2.3-18.8,3.7c-4.7,1.4-9.1,3.2-13.1,5.6c-4.8,2.8-7.8,6-9,9.7c-1.2,3.7-0.8,7.3,1.2,10.9c1.3,2.2,2.9,3.8,4.9,4.9
				c2,1.1,4.5,1.7,7.7,1.9c3.1,0.2,10.1-0.1,20.8-1c14.2-1.2,24.8-0.3,32.1,2.6C833.7,226.6,839.6,231.9,844.1,239.6z"/>
		</g>
		<g>
			<g>
				<path class="st3" d="M864.1,322.5c-42.4,53.6-120.8,63.2-174.8,21.4c-54-41.8-63.5-119.4-21.2-173
					c42.4-53.6,120.8-63.2,174.8-21.4C897,191.4,906.4,269,864.1,322.5 M913.7,311c11.7-26,16.1-54.8,12.6-83.8
					c-5.2-42.3-26.7-80.1-60.6-106.3s-76.1-37.8-118.9-32.6c-42.8,5.2-81,26.6-107.5,60.2c-26.6,33.6-38.4,75.4-33.2,117.7
					c5.2,42.3,26.7,80.1,60.6,106.3c33.9,26.2,76.1,37.8,118.9,32.6c29.3-3.6,56.4-14.8,79.2-32.2l17.2,13.3l49-62L913.7,311z"/>
			</g>
			<path class="st3" d="M1050.2,424.9l-112.4-77.5c-0.2-0.2-0.5-0.4-0.7-0.5l-31.5,39.9c0.2,0.2,0.5,0.4,0.7,0.6l103.1,89.2
				c14.4,11.1,35.2,8.6,46.5-5.7C1067.1,456.6,1064.5,436,1050.2,424.9"/>
			<path class="st4" d="M773.1,141.2c-19.9-1.5-33.2,3.7-34.6,4.3c-5.6,2.3-8.3,8.7-6,14.3c2.3,5.6,8.8,8.2,14.4,5.9
				c0.4-0.2,40.5-15.9,83.8,27.3c4.3,4.3,11.3,4.3,15.6,0.1c0.3-0.3,0.7-0.7,0.9-1c3.4-4.3,3.1-10.4-0.8-14.4
				C818.7,149.9,791.2,142.5,773.1,141.2"/>
		</g>
	</g>
	<g class="st0">
		<path class="st2" d="M55.5,340.3v7.4h-3v-18.6h5.2c2.4,0,4.2,0.4,5.3,1.3s1.7,2.3,1.7,4.1c0,2.3-1.2,4-3.6,4.9l5.2,8.2h-3.5
			l-4.4-7.4H55.5z M55.5,337.8h2.1c1.4,0,2.4-0.3,3.1-0.8s1-1.3,1-2.3c0-1-0.3-1.8-1-2.3s-1.7-0.7-3.1-0.7h-2V337.8z"/>
		<path class="st2" d="M74.9,348c-2.2,0-3.9-0.6-5.1-1.9c-1.2-1.3-1.8-3-1.8-5.3c0-2.3,0.6-4.1,1.7-5.4s2.7-2,4.7-2
			c1.9,0,3.3,0.6,4.4,1.7s1.6,2.7,1.6,4.6v1.6H71c0,1.4,0.4,2.4,1.1,3.1c0.7,0.7,1.7,1.1,2.9,1.1c0.8,0,1.6-0.1,2.3-0.2
			c0.7-0.2,1.5-0.4,2.3-0.8v2.4c-0.7,0.3-1.5,0.6-2.2,0.7S75.8,348,74.9,348z M74.3,335.7c-0.9,0-1.7,0.3-2.3,0.9s-0.9,1.5-1,2.6
			h6.4c0-1.2-0.3-2-0.8-2.6C76,336,75.3,335.7,74.3,335.7z"/>
		<path class="st2" d="M92.5,347.8l-0.6-2h-0.1c-0.7,0.9-1.4,1.4-2,1.7c-0.7,0.3-1.6,0.5-2.6,0.5c-1.4,0-2.5-0.4-3.2-1.1
			s-1.2-1.8-1.2-3.2c0-1.4,0.5-2.5,1.6-3.3s2.7-1.1,4.9-1.2l2.4-0.1v-0.7c0-0.9-0.2-1.6-0.6-2c-0.4-0.4-1.1-0.7-1.9-0.7
			c-0.7,0-1.4,0.1-2.1,0.3s-1.3,0.5-1.9,0.7l-1-2.1c0.8-0.4,1.6-0.7,2.5-0.9c0.9-0.2,1.8-0.3,2.6-0.3c1.8,0,3.1,0.4,4,1.2
			s1.4,2,1.4,3.7v9.5H92.5z M88.1,345.7c1.1,0,2-0.3,2.6-0.9c0.7-0.6,1-1.5,1-2.5v-1.2l-1.8,0.1c-1.4,0.1-2.4,0.3-3.1,0.7
			c-0.6,0.4-1,1.1-1,1.9c0,0.6,0.2,1.1,0.6,1.5C86.8,345.6,87.3,345.7,88.1,345.7z"/>
		<path class="st2" d="M103.5,348c-1.8,0-3.1-0.6-4.1-1.9s-1.5-3.1-1.5-5.3c0-2.3,0.5-4.1,1.5-5.4c1-1.3,2.4-1.9,4.1-1.9
			c1.8,0,3.2,0.7,4.2,2h0.2c-0.1-1-0.2-1.8-0.2-2.4V328h3v19.8h-2.3l-0.5-1.8h-0.1C106.8,347.3,105.4,348,103.5,348z M104.3,345.6
			c1.2,0,2.1-0.3,2.7-1c0.6-0.7,0.8-1.8,0.9-3.4v-0.4c0-1.8-0.3-3-0.9-3.8s-1.5-1.1-2.7-1.1c-1,0-1.9,0.4-2.4,1.3
			c-0.6,0.9-0.9,2.1-0.9,3.6c0,1.6,0.3,2.7,0.8,3.6C102.4,345.2,103.2,345.6,104.3,345.6z"/>
		<path class="st2" d="M134.2,340.7c0,2.3-0.6,4.1-1.8,5.4s-2.8,1.9-4.9,1.9c-1.3,0-2.5-0.3-3.5-0.9s-1.8-1.4-2.3-2.6
			s-0.8-2.4-0.8-3.9c0-2.3,0.6-4.1,1.8-5.3s2.8-1.9,4.9-1.9c2,0,3.6,0.7,4.8,2C133.6,336.7,134.2,338.5,134.2,340.7z M124,340.7
			c0,3.2,1.2,4.9,3.6,4.9c2.4,0,3.6-1.6,3.6-4.9c0-3.2-1.2-4.8-3.6-4.8c-1.3,0-2.2,0.4-2.7,1.2S124,339.2,124,340.7z"/>
		<path class="st2" d="M147.6,347.8l-0.4-1.8H147c-0.4,0.7-1,1.2-1.8,1.5s-1.6,0.6-2.6,0.6c-1.7,0-3-0.4-3.8-1.3s-1.3-2.1-1.3-3.8
			v-9.2h3v8.7c0,1.1,0.2,1.9,0.7,2.4c0.4,0.5,1.1,0.8,2.1,0.8c1.3,0,2.2-0.4,2.8-1.1c0.6-0.8,0.9-2,0.9-3.8v-7h3v14H147.6z"/>
		<path class="st2" d="M161.3,333.5c0.6,0,1.1,0,1.5,0.1l-0.3,2.8c-0.4-0.1-0.9-0.2-1.3-0.2c-1.2,0-2.2,0.4-2.9,1.2s-1.1,1.8-1.1,3
			v7.3h-3v-14h2.3l0.4,2.5h0.2c0.5-0.8,1.1-1.5,1.8-2S160.4,333.5,161.3,333.5z"/>
		<path class="st2" d="M181.5,343.8c0,1.4-0.5,2.4-1.5,3.2c-1,0.7-2.4,1.1-4.3,1.1c-1.9,0-3.4-0.3-4.5-0.9v-2.6
			c1.7,0.8,3.2,1.1,4.6,1.1c1.8,0,2.8-0.6,2.8-1.7c0-0.4-0.1-0.7-0.3-0.9s-0.5-0.5-1-0.7s-1.1-0.5-1.9-0.9c-1.6-0.6-2.7-1.3-3.3-1.9
			s-0.9-1.4-0.9-2.4c0-1.2,0.5-2.1,1.5-2.8c1-0.7,2.3-1,4-1c1.7,0,3.2,0.3,4.7,1l-1,2.2c-1.5-0.6-2.8-0.9-3.8-0.9
			c-1.6,0-2.4,0.4-2.4,1.3c0,0.4,0.2,0.8,0.6,1.1s1.3,0.7,2.7,1.3c1.2,0.4,2,0.9,2.5,1.2s0.9,0.8,1.2,1.3
			C181.4,342.5,181.5,343.1,181.5,343.8z"/>
		<path class="st2" d="M190,345.6c0.7,0,1.5-0.1,2.2-0.3v2.2c-0.3,0.1-0.8,0.3-1.3,0.4c-0.5,0.1-1.1,0.1-1.6,0.1
			c-2.8,0-4.2-1.5-4.2-4.5V336h-1.9v-1.3l2.1-1.1l1-3h1.8v3.1h4v2.3h-4v7.5c0,0.7,0.2,1.2,0.5,1.6
			C188.9,345.4,189.4,345.6,190,345.6z"/>
		<path class="st2" d="M203.8,347.8l-0.6-2h-0.1c-0.7,0.9-1.4,1.4-2,1.7c-0.7,0.3-1.6,0.5-2.6,0.5c-1.4,0-2.5-0.4-3.2-1.1
			s-1.2-1.8-1.2-3.2c0-1.4,0.5-2.5,1.6-3.3s2.7-1.1,4.9-1.2l2.4-0.1v-0.7c0-0.9-0.2-1.6-0.6-2c-0.4-0.4-1.1-0.7-1.9-0.7
			c-0.7,0-1.4,0.1-2.1,0.3s-1.3,0.5-1.9,0.7l-1-2.1c0.8-0.4,1.6-0.7,2.5-0.9c0.9-0.2,1.8-0.3,2.6-0.3c1.8,0,3.1,0.4,4,1.2
			s1.4,2,1.4,3.7v9.5H203.8z M199.3,345.7c1.1,0,2-0.3,2.6-0.9c0.7-0.6,1-1.5,1-2.5v-1.2l-1.8,0.1c-1.4,0.1-2.4,0.3-3.1,0.7
			c-0.6,0.4-1,1.1-1,1.9c0,0.6,0.2,1.1,0.6,1.5C198,345.6,198.6,345.7,199.3,345.7z"/>
		<path class="st2" d="M215.3,345.6c0.7,0,1.5-0.1,2.2-0.3v2.2c-0.3,0.1-0.8,0.3-1.3,0.4c-0.5,0.1-1.1,0.1-1.6,0.1
			c-2.8,0-4.2-1.5-4.2-4.5V336h-1.9v-1.3l2.1-1.1l1-3h1.8v3.1h4v2.3h-4v7.5c0,0.7,0.2,1.2,0.5,1.6
			C214.2,345.4,214.7,345.6,215.3,345.6z"/>
		<path class="st2" d="M220.1,330c0-0.5,0.1-0.9,0.4-1.2s0.7-0.4,1.3-0.4c0.5,0,0.9,0.1,1.2,0.4s0.4,0.7,0.4,1.2
			c0,0.5-0.1,0.9-0.4,1.2c-0.3,0.3-0.7,0.4-1.2,0.4c-0.5,0-1-0.1-1.3-0.4C220.3,330.9,220.1,330.5,220.1,330z M223.3,347.8h-3v-14h3
			V347.8z"/>
		<path class="st2" d="M237,343.8c0,1.4-0.5,2.4-1.5,3.2c-1,0.7-2.4,1.1-4.3,1.1c-1.9,0-3.4-0.3-4.5-0.9v-2.6
			c1.7,0.8,3.2,1.1,4.6,1.1c1.8,0,2.8-0.6,2.8-1.7c0-0.4-0.1-0.7-0.3-0.9s-0.5-0.5-1-0.7s-1.1-0.5-1.9-0.9c-1.6-0.6-2.7-1.3-3.3-1.9
			s-0.9-1.4-0.9-2.4c0-1.2,0.5-2.1,1.5-2.8c1-0.7,2.3-1,4-1c1.7,0,3.2,0.3,4.7,1l-1,2.2c-1.5-0.6-2.8-0.9-3.8-0.9
			c-1.6,0-2.4,0.4-2.4,1.3c0,0.4,0.2,0.8,0.6,1.1s1.3,0.7,2.7,1.3c1.2,0.4,2,0.9,2.5,1.2s0.9,0.8,1.2,1.3
			C236.8,342.5,237,343.1,237,343.8z"/>
		<path class="st2" d="M245.4,345.6c0.7,0,1.5-0.1,2.2-0.3v2.2c-0.3,0.1-0.8,0.3-1.3,0.4c-0.5,0.1-1.1,0.1-1.6,0.1
			c-2.8,0-4.2-1.5-4.2-4.5V336h-1.9v-1.3l2.1-1.1l1-3h1.8v3.1h4v2.3h-4v7.5c0,0.7,0.2,1.2,0.5,1.6
			C244.4,345.4,244.8,345.6,245.4,345.6z"/>
		<path class="st2" d="M250.2,330c0-0.5,0.1-0.9,0.4-1.2s0.7-0.4,1.3-0.4c0.5,0,0.9,0.1,1.2,0.4s0.4,0.7,0.4,1.2
			c0,0.5-0.1,0.9-0.4,1.2c-0.3,0.3-0.7,0.4-1.2,0.4c-0.5,0-1-0.1-1.3-0.4C250.4,330.9,250.2,330.5,250.2,330z M253.4,347.8h-3v-14h3
			V347.8z"/>
		<path class="st2" d="M263.3,348c-2.1,0-3.7-0.6-4.8-1.9c-1.1-1.2-1.7-3-1.7-5.3c0-2.4,0.6-4.2,1.7-5.4s2.8-1.9,5-1.9
			c1.5,0,2.8,0.3,4,0.8l-0.9,2.4c-1.3-0.5-2.3-0.7-3.1-0.7c-2.4,0-3.6,1.6-3.6,4.8c0,1.6,0.3,2.8,0.9,3.5c0.6,0.8,1.5,1.2,2.7,1.2
			c1.3,0,2.6-0.3,3.8-1v2.6c-0.5,0.3-1.1,0.5-1.7,0.7S264.2,348,263.3,348z"/>
		<path class="st2" d="M279.3,347.8l-0.6-2h-0.1c-0.7,0.9-1.4,1.4-2,1.7c-0.7,0.3-1.6,0.5-2.6,0.5c-1.4,0-2.5-0.4-3.2-1.1
			s-1.2-1.8-1.2-3.2c0-1.4,0.5-2.5,1.6-3.3s2.7-1.1,4.9-1.2l2.4-0.1v-0.7c0-0.9-0.2-1.6-0.6-2c-0.4-0.4-1.1-0.7-1.9-0.7
			c-0.7,0-1.4,0.1-2.1,0.3s-1.3,0.5-1.9,0.7l-1-2.1c0.8-0.4,1.6-0.7,2.5-0.9c0.9-0.2,1.8-0.3,2.6-0.3c1.8,0,3.1,0.4,4,1.2
			s1.4,2,1.4,3.7v9.5H279.3z M274.9,345.7c1.1,0,2-0.3,2.6-0.9c0.7-0.6,1-1.5,1-2.5v-1.2l-1.8,0.1c-1.4,0.1-2.4,0.3-3.1,0.7
			c-0.6,0.4-1,1.1-1,1.9c0,0.6,0.2,1.1,0.6,1.5C273.6,345.6,274.1,345.7,274.9,345.7z"/>
		<path class="st2" d="M288.6,347.8h-3V328h3V347.8z"/>
		<path class="st2" d="M306.8,333.5c1.8,0,3.1,0.6,4.1,1.9s1.5,3.1,1.5,5.3c0,2.3-0.5,4.1-1.5,5.4c-1,1.3-2.4,1.9-4.1,1.9
			c-1.8,0-3.2-0.6-4.1-1.9h-0.2l-0.5,1.7h-2.2V328h3v4.7c0,0.3,0,0.9-0.1,1.5s-0.1,1.1-0.1,1.3h0.1
			C303.6,334.2,305,333.5,306.8,333.5z M306,335.9c-1.2,0-2.1,0.4-2.6,1.1c-0.5,0.7-0.8,1.9-0.8,3.5v0.2c0,1.7,0.3,2.9,0.8,3.7
			c0.5,0.8,1.4,1.1,2.7,1.1c1.1,0,1.9-0.4,2.4-1.3s0.8-2,0.8-3.6C309.3,337.5,308.2,335.9,306,335.9z"/>
		<path class="st2" d="M325.7,347.8l-0.4-1.8h-0.2c-0.4,0.7-1,1.2-1.8,1.5s-1.6,0.6-2.6,0.6c-1.7,0-3-0.4-3.8-1.3s-1.3-2.1-1.3-3.8
			v-9.2h3v8.7c0,1.1,0.2,1.9,0.7,2.4c0.4,0.5,1.1,0.8,2.1,0.8c1.3,0,2.2-0.4,2.8-1.1c0.6-0.8,0.9-2,0.9-3.8v-7h3v14H325.7z"/>
		<path class="st2" d="M335.3,347.8h-3V328h3V347.8z"/>
		<path class="st2" d="M342.6,347.8h-3V328h3V347.8z"/>
		<path class="st2" d="M353,348c-2.2,0-3.9-0.6-5.1-1.9c-1.2-1.3-1.8-3-1.8-5.3c0-2.3,0.6-4.1,1.7-5.4s2.7-2,4.7-2
			c1.9,0,3.3,0.6,4.4,1.7s1.6,2.7,1.6,4.6v1.6h-9.4c0,1.4,0.4,2.4,1.1,3.1c0.7,0.7,1.7,1.1,2.9,1.1c0.8,0,1.6-0.1,2.3-0.2
			c0.7-0.2,1.5-0.4,2.3-0.8v2.4c-0.7,0.3-1.5,0.6-2.2,0.7S353.9,348,353,348z M352.4,335.7c-0.9,0-1.7,0.3-2.3,0.9s-0.9,1.5-1,2.6
			h6.4c0-1.2-0.3-2-0.8-2.6C354.1,336,353.4,335.7,352.4,335.7z"/>
		<path class="st2" d="M367,345.6c0.7,0,1.5-0.1,2.2-0.3v2.2c-0.3,0.1-0.8,0.3-1.3,0.4c-0.5,0.1-1.1,0.1-1.6,0.1
			c-2.8,0-4.2-1.5-4.2-4.5V336h-1.9v-1.3l2.1-1.1l1-3h1.8v3.1h4v2.3h-4v7.5c0,0.7,0.2,1.2,0.5,1.6C366,345.4,366.5,345.6,367,345.6z
			"/>
		<path class="st2" d="M371.9,330c0-0.5,0.1-0.9,0.4-1.2s0.7-0.4,1.3-0.4c0.5,0,0.9,0.1,1.2,0.4s0.4,0.7,0.4,1.2
			c0,0.5-0.1,0.9-0.4,1.2c-0.3,0.3-0.7,0.4-1.2,0.4c-0.5,0-1-0.1-1.3-0.4C372,330.9,371.9,330.5,371.9,330z M375,347.8h-3v-14h3
			V347.8z"/>
		<path class="st2" d="M391.6,347.8h-3v-8.6c0-1.1-0.2-1.9-0.7-2.4s-1.1-0.8-2.1-0.8c-1.3,0-2.2,0.4-2.8,1.1s-0.9,2-0.9,3.7v7h-3
			v-14h2.3l0.4,1.8h0.2c0.4-0.7,1-1.2,1.8-1.5s1.6-0.5,2.6-0.5c3.4,0,5.1,1.7,5.1,5.1V347.8z"/>
		<path class="st2" d="M407.8,345.6c0.7,0,1.5-0.1,2.2-0.3v2.2c-0.3,0.1-0.8,0.3-1.3,0.4c-0.5,0.1-1.1,0.1-1.6,0.1
			c-2.8,0-4.2-1.5-4.2-4.5V336h-1.9v-1.3l2.1-1.1l1-3h1.8v3.1h4v2.3h-4v7.5c0,0.7,0.2,1.2,0.5,1.6
			C406.7,345.4,407.2,345.6,407.8,345.6z"/>
		<path class="st2" d="M425.2,340.7c0,2.3-0.6,4.1-1.8,5.4s-2.8,1.9-4.9,1.9c-1.3,0-2.5-0.3-3.5-0.9s-1.8-1.4-2.3-2.6
			s-0.8-2.4-0.8-3.9c0-2.3,0.6-4.1,1.8-5.3s2.8-1.9,4.9-1.9c2,0,3.6,0.7,4.8,2C424.6,336.7,425.2,338.5,425.2,340.7z M415,340.7
			c0,3.2,1.2,4.9,3.6,4.9c2.4,0,3.6-1.6,3.6-4.9c0-3.2-1.2-4.8-3.6-4.8c-1.3,0-2.2,0.4-2.7,1.2S415,339.2,415,340.7z"/>
		<path class="st2" d="M59.2,367.2h-3.4V379h-3v-11.8h-2.3v-1.4l2.3-0.9V364c0-1.7,0.4-2.9,1.2-3.7c0.8-0.8,2-1.2,3.6-1.2
			c1,0,2.1,0.2,3.1,0.5l-0.8,2.3c-0.7-0.2-1.4-0.4-2.1-0.4c-0.7,0-1.2,0.2-1.5,0.6c-0.3,0.4-0.5,1-0.5,1.9v0.9h3.4V367.2z
			 M61.4,361.2c0-0.5,0.1-0.9,0.4-1.2s0.7-0.4,1.3-0.4c0.5,0,0.9,0.1,1.2,0.4s0.4,0.7,0.4,1.2c0,0.5-0.1,0.9-0.4,1.2
			c-0.3,0.3-0.7,0.4-1.2,0.4c-0.5,0-1-0.1-1.3-0.4C61.5,362.1,61.4,361.7,61.4,361.2z M64.5,379h-3v-14h3V379z"/>
		<path class="st2" d="M81.2,379h-3v-8.6c0-1.1-0.2-1.9-0.7-2.4s-1.1-0.8-2.1-0.8c-1.3,0-2.2,0.4-2.8,1.1s-0.9,2-0.9,3.7v7h-3v-14
			h2.3l0.4,1.8h0.2c0.4-0.7,1-1.2,1.8-1.5s1.6-0.5,2.6-0.5c3.4,0,5.1,1.7,5.1,5.1V379z"/>
		<path class="st2" d="M90.1,379.2c-1.8,0-3.1-0.6-4.1-1.9s-1.5-3.1-1.5-5.3c0-2.3,0.5-4.1,1.5-5.4c1-1.3,2.4-1.9,4.1-1.9
			c1.8,0,3.2,0.7,4.2,2h0.2c-0.1-1-0.2-1.8-0.2-2.4v-5.1h3V379h-2.3l-0.5-1.8h-0.1C93.3,378.5,91.9,379.2,90.1,379.2z M90.9,376.8
			c1.2,0,2.1-0.3,2.7-1c0.6-0.7,0.8-1.8,0.9-3.4V372c0-1.8-0.3-3-0.9-3.8s-1.5-1.1-2.7-1.1c-1,0-1.9,0.4-2.4,1.3
			c-0.6,0.8-0.9,2.1-0.9,3.6c0,1.6,0.3,2.7,0.8,3.6C88.9,376.4,89.8,376.8,90.9,376.8z"/>
		<path class="st2" d="M120.7,371.9c0,2.3-0.6,4.1-1.8,5.4s-2.8,1.9-4.9,1.9c-1.3,0-2.5-0.3-3.5-0.9s-1.8-1.4-2.3-2.6
			s-0.8-2.4-0.8-3.9c0-2.3,0.6-4.1,1.8-5.3s2.8-1.9,4.9-1.9c2,0,3.6,0.7,4.8,2C120.1,367.9,120.7,369.7,120.7,371.9z M110.5,371.9
			c0,3.2,1.2,4.9,3.6,4.9c2.4,0,3.6-1.6,3.6-4.9c0-3.2-1.2-4.8-3.6-4.8c-1.3,0-2.2,0.4-2.7,1.2S110.5,370.4,110.5,371.9z"/>
		<path class="st2" d="M134.1,379l-0.4-1.8h-0.2c-0.4,0.7-1,1.2-1.8,1.5s-1.6,0.6-2.6,0.6c-1.7,0-3-0.4-3.8-1.3s-1.3-2.1-1.3-3.8
			v-9.2h3v8.7c0,1.1,0.2,1.9,0.7,2.4c0.4,0.5,1.1,0.8,2.1,0.8c1.3,0,2.2-0.4,2.8-1.1c0.6-0.7,0.9-2,0.9-3.8v-7h3v14H134.1z"/>
		<path class="st2" d="M145.9,376.8c0.7,0,1.5-0.1,2.2-0.3v2.2c-0.3,0.1-0.8,0.3-1.3,0.4c-0.5,0.1-1.1,0.1-1.6,0.1
			c-2.8,0-4.2-1.5-4.2-4.5v-7.6H139v-1.3l2.1-1.1l1-3h1.8v3.1h4v2.3h-4v7.5c0,0.7,0.2,1.3,0.5,1.6
			C144.8,376.6,145.3,376.8,145.9,376.8z"/>
		<path class="st2" d="M169.5,379h-3v-8.7c0-1.1-0.2-1.9-0.6-2.4c-0.4-0.5-1-0.8-1.9-0.8c-1.2,0-2,0.4-2.5,1.1
			c-0.5,0.7-0.8,2-0.8,3.7v7h-3v-14h2.3l0.4,1.8h0.2c0.4-0.7,1-1.2,1.7-1.5s1.6-0.5,2.4-0.5c2.2,0,3.6,0.7,4.3,2.2h0.2
			c0.4-0.7,1-1.2,1.8-1.6s1.6-0.6,2.6-0.6c1.7,0,2.9,0.4,3.7,1.3s1.1,2.1,1.1,3.9v9.2h-3v-8.7c0-1.1-0.2-1.9-0.6-2.4
			c-0.4-0.5-1-0.8-1.9-0.8c-1.2,0-2,0.4-2.5,1.1c-0.5,0.7-0.8,1.8-0.8,3.3V379z"/>
		<path class="st2" d="M195,371.9c0,2.3-0.6,4.1-1.8,5.4s-2.8,1.9-4.9,1.9c-1.3,0-2.5-0.3-3.5-0.9s-1.8-1.4-2.3-2.6
			s-0.8-2.4-0.8-3.9c0-2.3,0.6-4.1,1.8-5.3s2.8-1.9,4.9-1.9c2,0,3.6,0.7,4.8,2C194.4,367.9,195,369.7,195,371.9z M184.7,371.9
			c0,3.2,1.2,4.9,3.6,4.9c2.4,0,3.6-1.6,3.6-4.9c0-3.2-1.2-4.8-3.6-4.8c-1.3,0-2.2,0.4-2.7,1.2S184.7,370.4,184.7,371.9z"/>
		<path class="st2" d="M205.5,364.7c0.6,0,1.1,0,1.5,0.1l-0.3,2.8c-0.4-0.1-0.9-0.2-1.3-0.2c-1.2,0-2.2,0.4-2.9,1.2s-1.1,1.8-1.1,3
			v7.3h-3v-14h2.3l0.4,2.5h0.2c0.5-0.8,1.1-1.5,1.8-2S204.6,364.7,205.5,364.7z"/>
		<path class="st2" d="M215.7,379.2c-2.2,0-3.9-0.6-5.1-1.9c-1.2-1.3-1.8-3-1.8-5.3c0-2.3,0.6-4.1,1.7-5.4s2.7-2,4.7-2
			c1.9,0,3.3,0.6,4.4,1.7s1.6,2.7,1.6,4.6v1.6h-9.4c0,1.4,0.4,2.4,1.1,3.1c0.7,0.7,1.7,1.1,2.9,1.1c0.8,0,1.6-0.1,2.3-0.2
			c0.7-0.2,1.5-0.4,2.3-0.8v2.4c-0.7,0.3-1.5,0.6-2.2,0.7S216.7,379.2,215.7,379.2z M215.2,366.9c-0.9,0-1.7,0.3-2.3,0.9
			s-0.9,1.5-1,2.6h6.4c0-1.2-0.3-2-0.8-2.6C216.9,367.2,216.1,366.9,215.2,366.9z"/>
	</g>
	<g class="st0">
		<path class="st2" d="M69,89.5h-7.9V58.9H51v-6.6h28v6.6H69V89.5z"/>
		<path class="st2" d="M110.4,89.5h-7.7V72.9c0-4.1-1.5-6.1-4.6-6.1c-2.2,0-3.7,0.7-4.7,2.2s-1.4,3.9-1.4,7.2v13.4h-7.7V50h7.7v8
			c0,0.6-0.1,2.1-0.2,4.4l-0.2,2.3H92c1.7-2.8,4.5-4.2,8.2-4.2c3.3,0,5.9,0.9,7.6,2.7c1.7,1.8,2.6,4.4,2.6,7.7V89.5z"/>
		<path class="st2" d="M131.2,90c-4.6,0-8.1-1.3-10.7-3.8c-2.6-2.5-3.9-6.1-3.9-10.7c0-4.8,1.2-8.4,3.6-11c2.4-2.6,5.7-3.9,9.9-3.9
			c4,0,7.1,1.1,9.4,3.4s3.4,5.4,3.4,9.5v3.8h-18.3c0.1,2.2,0.7,3.9,2,5.2c1.2,1.2,2.9,1.9,5.1,1.9c1.7,0,3.3-0.2,4.8-0.5
			s3.1-0.9,4.8-1.7v6c-1.4,0.7-2.8,1.2-4.3,1.5C135.3,89.9,133.4,90,131.2,90z M130.1,66.1c-1.6,0-2.9,0.5-3.9,1.6
			c-0.9,1-1.5,2.5-1.6,4.4h10.9c0-1.9-0.5-3.4-1.5-4.4S131.7,66.1,130.1,66.1z"/>
		<path class="st2" d="M182.7,89.5l-1-3.6h-0.4c-0.8,1.3-2,2.3-3.5,3.1s-3.3,1.1-5.2,1.1c-3.3,0-5.8-0.9-7.5-2.7
			c-1.7-1.8-2.5-4.4-2.5-7.7V61.1h7.7v16.6c0,2,0.4,3.6,1.1,4.6c0.7,1,1.9,1.5,3.5,1.5c2.2,0,3.7-0.7,4.7-2.2s1.4-3.8,1.4-7.2V61.1
			h7.7v28.4H182.7z"/>
		<path class="st2" d="M223,89.5h-7.7V72.9c0-2-0.4-3.6-1.1-4.6c-0.7-1-1.9-1.5-3.5-1.5c-2.2,0-3.7,0.7-4.7,2.2s-1.4,3.8-1.4,7.2
			v13.4h-7.7V61.1h5.9l1,3.6h0.4c0.9-1.4,2.1-2.4,3.6-3.1c1.5-0.7,3.2-1.1,5.2-1.1c3.3,0,5.8,0.9,7.5,2.7c1.7,1.8,2.6,4.4,2.6,7.7
			V89.5z"/>
		<path class="st2" d="M243.8,90c-4.6,0-8.1-1.3-10.7-3.8c-2.6-2.5-3.9-6.1-3.9-10.7c0-4.8,1.2-8.4,3.6-11c2.4-2.6,5.7-3.9,9.9-3.9
			c4,0,7.1,1.1,9.4,3.4s3.4,5.4,3.4,9.5v3.8h-18.3c0.1,2.2,0.7,3.9,2,5.2c1.2,1.2,2.9,1.9,5.1,1.9c1.7,0,3.3-0.2,4.8-0.5
			s3.1-0.9,4.8-1.7v6c-1.4,0.7-2.8,1.2-4.3,1.5C247.9,89.9,246,90,243.8,90z M242.7,66.1c-1.6,0-2.9,0.5-3.9,1.6
			c-0.9,1-1.5,2.5-1.6,4.4h10.9c0-1.9-0.5-3.4-1.5-4.4S244.3,66.1,242.7,66.1z"/>
		<path class="st2" d="M287.1,89.5h-7.7V72.9c0-2-0.3-3.6-1-4.6c-0.7-1-1.8-1.5-3.2-1.5c-2,0-3.4,0.7-4.3,2.2
			c-0.9,1.5-1.3,3.9-1.3,7.2v13.4h-7.7V61.1h5.9l1,3.6h0.4c0.8-1.3,1.9-2.3,3.3-3.1c1.4-0.7,3.1-1.1,5-1.1c4.2,0,7.1,1.4,8.6,4.2
			h0.7c0.8-1.3,1.9-2.3,3.4-3.1c1.5-0.7,3.2-1.1,5-1.1c3.2,0,5.6,0.8,7.3,2.5s2.5,4.3,2.5,7.9v18.5H297V72.9c0-2-0.3-3.6-1-4.6
			c-0.7-1-1.8-1.5-3.2-1.5c-1.9,0-3.3,0.7-4.3,2c-0.9,1.4-1.4,3.5-1.4,6.4V89.5z"/>
		<path class="st2" d="M328.3,90c-3.3,0-6-1.2-7.8-3.6h-0.4c0.3,2.4,0.4,3.7,0.4,4.1V102h-7.7V61.1h6.3l1.1,3.7h0.4
			c1.8-2.8,4.5-4.2,8-4.2c3.4,0,6,1.3,7.9,3.9c1.9,2.6,2.8,6.2,2.8,10.8c0,3-0.4,5.7-1.3,7.9s-2.2,3.9-3.8,5.1
			C332.5,89.4,330.5,90,328.3,90z M326,66.8c-1.9,0-3.3,0.6-4.2,1.8c-0.9,1.2-1.3,3.1-1.4,5.8v0.8c0,3,0.5,5.2,1.4,6.6
			c0.9,1.3,2.3,2,4.3,2c3.5,0,5.2-2.9,5.2-8.6c0-2.8-0.4-4.9-1.3-6.3C329.2,67.5,327.8,66.8,326,66.8z"/>
		<path class="st2" d="M353.4,89.5h-7.7V50h7.7V89.5z"/>
		<path class="st2" d="M387.3,75.3c0,4.6-1.2,8.2-3.7,10.8c-2.4,2.6-5.8,3.9-10.2,3.9c-2.7,0-5.1-0.6-7.2-1.8s-3.7-2.9-4.8-5.1
			s-1.7-4.8-1.7-7.8c0-4.6,1.2-8.2,3.6-10.8c2.4-2.6,5.8-3.9,10.2-3.9c2.7,0,5.1,0.6,7.2,1.8c2.1,1.2,3.7,2.9,4.8,5.1
			C386.7,69.7,387.3,72.3,387.3,75.3z M367.7,75.3c0,2.8,0.5,4.9,1.4,6.4c0.9,1.4,2.4,2.2,4.5,2.2c2.1,0,3.6-0.7,4.5-2.1
			c0.9-1.4,1.4-3.6,1.4-6.4c0-2.8-0.5-4.9-1.4-6.3c-0.9-1.4-2.4-2.1-4.5-2.1c-2.1,0-3.6,0.7-4.5,2.1S367.7,72.4,367.7,75.3z"/>
		<path class="st2" d="M389.6,61.1h8.5l5.4,16c0.5,1.4,0.8,3,0.9,4.9h0.2c0.2-1.7,0.5-3.4,1.1-4.9l5.3-16h8.3l-12,32
			c-1.1,3-2.7,5.2-4.7,6.7c-2,1.5-4.4,2.2-7.1,2.2c-1.3,0-2.6-0.1-3.9-0.4v-6.1c0.9,0.2,1.9,0.3,3,0.3c1.4,0,2.6-0.4,3.6-1.3
			c1-0.8,1.8-2.1,2.4-3.8l0.5-1.4L389.6,61.1z"/>
		<path class="st2" d="M448.7,89.5h-7.7V72.9c0-2-0.3-3.6-1-4.6c-0.7-1-1.8-1.5-3.2-1.5c-2,0-3.4,0.7-4.3,2.2
			c-0.9,1.5-1.3,3.9-1.3,7.2v13.4h-7.7V61.1h5.9l1,3.6h0.4c0.8-1.3,1.9-2.3,3.3-3.1c1.4-0.7,3.1-1.1,5-1.1c4.2,0,7.1,1.4,8.6,4.2
			h0.7c0.8-1.3,1.9-2.3,3.4-3.1c1.5-0.7,3.2-1.1,5-1.1c3.2,0,5.6,0.8,7.3,2.5s2.5,4.3,2.5,7.9v18.5h-7.8V72.9c0-2-0.3-3.6-1-4.6
			c-0.7-1-1.8-1.5-3.2-1.5c-1.9,0-3.3,0.7-4.3,2c-0.9,1.4-1.4,3.5-1.4,6.4V89.5z"/>
		<path class="st2" d="M487.2,90c-4.6,0-8.1-1.3-10.7-3.8c-2.6-2.5-3.9-6.1-3.9-10.7c0-4.8,1.2-8.4,3.6-11c2.4-2.6,5.7-3.9,9.9-3.9
			c4,0,7.1,1.1,9.4,3.4s3.4,5.4,3.4,9.5v3.8h-18.3c0.1,2.2,0.7,3.9,2,5.2c1.2,1.2,2.9,1.9,5.1,1.9c1.7,0,3.3-0.2,4.8-0.5
			s3.1-0.9,4.8-1.7v6c-1.4,0.7-2.8,1.2-4.3,1.5C491.3,89.9,489.4,90,487.2,90z M486.1,66.1c-1.6,0-2.9,0.5-3.9,1.6
			c-0.9,1-1.5,2.5-1.6,4.4h10.9c0-1.9-0.5-3.4-1.5-4.4S487.7,66.1,486.1,66.1z"/>
		<path class="st2" d="M531.3,89.5h-7.7V72.9c0-2-0.4-3.6-1.1-4.6c-0.7-1-1.9-1.5-3.5-1.5c-2.2,0-3.7,0.7-4.7,2.2s-1.4,3.8-1.4,7.2
			v13.4h-7.7V61.1h5.9l1,3.6h0.4c0.9-1.4,2.1-2.4,3.6-3.1c1.5-0.7,3.2-1.1,5.2-1.1c3.3,0,5.8,0.9,7.5,2.7c1.7,1.8,2.6,4.4,2.6,7.7
			V89.5z"/>
		<path class="st2" d="M551.2,83.9c1.4,0,3-0.3,4.9-0.9v5.8c-1.9,0.9-4.3,1.3-7.1,1.3c-3.1,0-5.4-0.8-6.8-2.3
			c-1.4-1.6-2.1-3.9-2.1-7V66.9h-3.7v-3.3l4.3-2.6l2.2-6h5v6h7.9v5.8h-7.9v13.7c0,1.1,0.3,1.9,0.9,2.4
			C549.4,83.6,550.2,83.9,551.2,83.9z"/>
		<path class="st2" d="M69.9,123c1,0,1.9,0.1,2.6,0.2l-0.6,7.3c-0.6-0.2-1.4-0.3-2.3-0.3c-2.5,0-4.4,0.6-5.8,1.9
			c-1.4,1.3-2.1,3-2.1,5.3v14.4h-7.7v-28.4h5.9l1.1,4.8h0.4c0.9-1.6,2.1-2.9,3.6-3.8C66.5,123.5,68.1,123,69.9,123z"/>
		<path class="st2" d="M95.7,151.9l-1.5-3.9H94c-1.3,1.6-2.6,2.8-4,3.4c-1.4,0.6-3.2,1-5.4,1c-2.7,0-4.9-0.8-6.4-2.3
			c-1.6-1.6-2.3-3.8-2.3-6.7c0-3,1.1-5.2,3.2-6.7c2.1-1.4,5.3-2.2,9.5-2.4l4.9-0.2V133c0-2.9-1.5-4.3-4.4-4.3c-2.3,0-4.9,0.7-8,2.1
			l-2.6-5.2c3.3-1.7,6.9-2.6,10.9-2.6c3.8,0,6.7,0.8,8.8,2.5c2,1.7,3,4.2,3,7.6v18.9H95.7z M93.4,138.8l-3,0.1
			c-2.3,0.1-3.9,0.5-5,1.2c-1.1,0.7-1.7,1.9-1.7,3.4c0,2.2,1.3,3.3,3.8,3.3c1.8,0,3.2-0.5,4.3-1.5c1.1-1,1.6-2.4,1.6-4.1V138.8z"/>
		<path class="st2" d="M121,146.3c1.4,0,3-0.3,4.9-0.9v5.8c-1.9,0.9-4.3,1.3-7.1,1.3c-3.1,0-5.4-0.8-6.8-2.3c-1.4-1.6-2.1-3.9-2.1-7
			v-13.7h-3.7v-3.3l4.3-2.6l2.2-6h5v6h7.9v5.8h-7.9V143c0,1.1,0.3,1.9,0.9,2.4C119.2,146,120,146.3,121,146.3z"/>
		<path class="st2" d="M144.5,152.4c-4.6,0-8.1-1.3-10.7-3.8c-2.6-2.5-3.9-6.1-3.9-10.7c0-4.8,1.2-8.4,3.6-11
			c2.4-2.6,5.7-3.9,9.9-3.9c4,0,7.1,1.1,9.4,3.4s3.4,5.4,3.4,9.5v3.8h-18.3c0.1,2.2,0.7,3.9,2,5.2c1.2,1.2,2.9,1.9,5.1,1.9
			c1.7,0,3.3-0.2,4.8-0.5s3.1-0.9,4.8-1.7v6c-1.4,0.7-2.8,1.2-4.3,1.5C148.6,152.3,146.7,152.4,144.5,152.4z M143.4,128.5
			c-1.6,0-2.9,0.5-3.9,1.6c-0.9,1-1.5,2.5-1.6,4.4h10.9c0-1.9-0.5-3.4-1.5-4.4S145.1,128.5,143.4,128.5z"/>
		<path class="st2" d="M199.2,151.9L197,142l-2.9-12.5h-0.2l-5.2,22.5h-8.3l-8.1-28.4h7.7l3.3,12.6c0.5,2.3,1.1,5.4,1.6,9.3h0.2
			c0.1-1.3,0.4-3.3,0.9-6.1l0.4-2.2l3.5-13.6h8.5l3.3,13.6c0.1,0.4,0.2,0.9,0.3,1.7c0.1,0.7,0.3,1.5,0.4,2.3
			c0.1,0.8,0.3,1.6,0.4,2.4c0.1,0.8,0.2,1.4,0.2,1.9h0.2c0.2-1.2,0.4-2.9,0.8-5c0.4-2.1,0.7-3.6,0.8-4.3l3.4-12.6h7.6l-8.2,28.4
			H199.2z"/>
		<path class="st2" d="M238.4,151.9l-1.5-3.9h-0.2c-1.3,1.6-2.6,2.8-4,3.4c-1.4,0.6-3.2,1-5.4,1c-2.7,0-4.9-0.8-6.4-2.3
			c-1.6-1.6-2.3-3.8-2.3-6.7c0-3,1.1-5.2,3.2-6.7c2.1-1.4,5.3-2.2,9.5-2.4l4.9-0.2V133c0-2.9-1.5-4.3-4.4-4.3c-2.3,0-4.9,0.7-8,2.1
			l-2.6-5.2c3.3-1.7,6.9-2.6,10.9-2.6c3.8,0,6.7,0.8,8.8,2.5c2,1.7,3,4.2,3,7.6v18.9H238.4z M236.1,138.8l-3,0.1
			c-2.3,0.1-3.9,0.5-5,1.2c-1.1,0.7-1.7,1.9-1.7,3.4c0,2.2,1.3,3.3,3.8,3.3c1.8,0,3.2-0.5,4.3-1.5c1.1-1,1.6-2.4,1.6-4.1V138.8z"/>
		<path class="st2" d="M271.6,143.5c0,2.9-1,5.1-3,6.7c-2,1.5-5,2.3-9.1,2.3c-2.1,0-3.8-0.1-5.3-0.4c-1.5-0.3-2.8-0.7-4.1-1.2v-6.4
			c1.4,0.7,3.1,1.2,4.9,1.7s3.4,0.7,4.8,0.7c2.8,0,4.2-0.8,4.2-2.4c0-0.6-0.2-1.1-0.6-1.5c-0.4-0.4-1-0.8-1.9-1.3s-2.1-1-3.7-1.7
			c-2.2-0.9-3.8-1.8-4.8-2.5c-1-0.8-1.8-1.7-2.2-2.7c-0.5-1-0.7-2.2-0.7-3.7c0-2.5,1-4.5,2.9-5.9c2-1.4,4.7-2.1,8.3-2.1
			c3.4,0,6.7,0.7,10,2.2l-2.3,5.6c-1.4-0.6-2.8-1.1-4-1.5c-1.2-0.4-2.5-0.6-3.8-0.6c-2.3,0-3.4,0.6-3.4,1.9c0,0.7,0.4,1.3,1.1,1.8
			s2.3,1.3,4.8,2.3c2.2,0.9,3.8,1.7,4.9,2.5c1,0.8,1.8,1.7,2.3,2.7C271.4,140.9,271.6,142.1,271.6,143.5z"/>
		<path class="st2" d="M316,144.2h-4.5v7.7h-7.7v-7.7H288v-5.5l16.3-24h7.2v23.3h4.5V144.2z M303.8,138.1v-6.3c0-1,0-2.6,0.1-4.6
			c0.1-2,0.2-3.2,0.2-3.5H304c-0.6,1.4-1.4,2.7-2.3,4.1l-6.8,10.3H303.8z"/>
		<path class="st2" d="M319.8,148.3c0-1.4,0.4-2.5,1.1-3.2c0.8-0.7,1.9-1.1,3.3-1.1c1.4,0,2.5,0.4,3.3,1.1c0.8,0.7,1.2,1.8,1.2,3.2
			c0,1.3-0.4,2.4-1.2,3.2c-0.8,0.8-1.9,1.2-3.2,1.2c-1.4,0-2.5-0.4-3.3-1.1C320.1,150.7,319.8,149.7,319.8,148.3z"/>
		<path class="st2" d="M347.2,128.2c3.6,0,6.4,1,8.6,3c2.1,2,3.2,4.8,3.2,8.3c0,4.1-1.3,7.3-3.8,9.6c-2.6,2.2-6.2,3.4-11,3.4
			c-4.1,0-7.5-0.7-10-2v-6.8c1.3,0.7,2.9,1.3,4.7,1.7c1.8,0.4,3.5,0.7,5.1,0.7c4.8,0,7.2-2,7.2-5.9c0-3.7-2.5-5.6-7.4-5.6
			c-0.9,0-1.9,0.1-3,0.3c-1.1,0.2-2,0.4-2.6,0.6l-3.1-1.7l1.4-18.9h20.1v6.7h-13.3l-0.7,7.3l0.9-0.2
			C344.4,128.3,345.7,128.2,347.2,128.2z"/>
		<path class="st2" d="M380.5,125.9c0,3.9-0.8,6.8-2.3,8.8c-1.5,2-3.7,2.9-6.6,2.9c-2.8,0-5-1-6.5-3s-2.3-4.9-2.3-8.7
			c0-7.7,2.9-11.6,8.8-11.6c2.9,0,5.1,1,6.6,3C379.8,119.3,380.5,122.1,380.5,125.9z M369.3,125.9c0,2.1,0.2,3.8,0.6,4.8
			c0.4,1.1,1,1.6,1.8,1.6c1.6,0,2.4-2.1,2.4-6.4c0-4.2-0.8-6.3-2.4-6.3c-0.8,0-1.5,0.5-1.8,1.6S369.3,123.8,369.3,125.9z M398,114.8
			l-20.6,37.1h-6.1l20.6-37.1H398z M406.5,140.7c0,3.9-0.8,6.8-2.3,8.7c-1.5,2-3.7,2.9-6.6,2.9c-2.8,0-5-1-6.5-3s-2.3-4.9-2.3-8.7
			c0-7.7,2.9-11.6,8.8-11.6c2.9,0,5.1,1,6.6,3C405.8,134.1,406.5,137,406.5,140.7z M395.3,140.7c0,2.1,0.2,3.8,0.6,4.8
			c0.4,1.1,1,1.6,1.8,1.6c1.6,0,2.4-2.1,2.4-6.4c0-4.2-0.8-6.3-2.4-6.3c-0.8,0-1.5,0.5-1.8,1.6S395.3,138.6,395.3,140.7z"/>
		<path class="st2" d="M419.8,146.5c-0.9,3.4-2.4,7.5-4.5,12.2h-5.6c1.1-4.5,2-8.8,2.6-12.7h7.1L419.8,146.5z"/>
		<path class="st2" d="M66,208.7c1.4,0,3-0.3,4.9-0.9v5.8c-1.9,0.9-4.3,1.3-7.1,1.3c-3.1,0-5.4-0.8-6.8-2.3c-1.4-1.6-2.1-3.9-2.1-7
			v-13.7h-3.7v-3.3l4.3-2.6l2.2-6h5v6h7.9v5.8h-7.9v13.7c0,1.1,0.3,1.9,0.9,2.4C64.2,208.4,65,208.7,66,208.7z"/>
		<path class="st2" d="M102.8,214.3h-7.7v-16.6c0-4.1-1.5-6.1-4.6-6.1c-2.2,0-3.7,0.7-4.7,2.2s-1.4,3.9-1.4,7.2v13.4h-7.7v-39.5h7.7
			v8c0,0.6-0.1,2.1-0.2,4.4l-0.2,2.3h0.4c1.7-2.8,4.5-4.2,8.2-4.2c3.3,0,5.9,0.9,7.6,2.7c1.7,1.8,2.6,4.4,2.6,7.7V214.3z"/>
		<path class="st2" d="M123.7,214.8c-4.6,0-8.1-1.3-10.7-3.8c-2.6-2.5-3.9-6.1-3.9-10.7c0-4.8,1.2-8.4,3.6-11
			c2.4-2.6,5.7-3.9,9.9-3.9c4,0,7.1,1.1,9.4,3.4s3.4,5.4,3.4,9.5v3.8h-18.3c0.1,2.2,0.7,3.9,2,5.2c1.2,1.2,2.9,1.9,5.1,1.9
			c1.7,0,3.3-0.2,4.8-0.5s3.1-0.9,4.8-1.7v6c-1.4,0.7-2.8,1.2-4.3,1.5C127.8,214.7,125.9,214.8,123.7,214.8z M122.6,190.9
			c-1.6,0-2.9,0.5-3.9,1.6c-0.9,1-1.5,2.5-1.6,4.4H128c0-1.9-0.5-3.4-1.5-4.4S124.2,190.9,122.6,190.9z"/>
		<path class="st2" d="M162.8,214.3H155v-39.5h7.7V214.3z"/>
		<path class="st2" d="M196.7,200.1c0,4.6-1.2,8.2-3.7,10.8c-2.4,2.6-5.8,3.9-10.2,3.9c-2.7,0-5.1-0.6-7.2-1.8s-3.7-2.9-4.8-5.1
			s-1.7-4.8-1.7-7.8c0-4.6,1.2-8.2,3.6-10.8c2.4-2.6,5.8-3.9,10.2-3.9c2.7,0,5.1,0.6,7.2,1.8c2.1,1.2,3.7,2.9,4.8,5.1
			C196.1,194.5,196.7,197.1,196.7,200.1z M177.1,200.1c0,2.8,0.5,4.9,1.4,6.4c0.9,1.4,2.4,2.2,4.5,2.2c2.1,0,3.6-0.7,4.5-2.1
			c0.9-1.4,1.4-3.6,1.4-6.4c0-2.8-0.5-4.9-1.4-6.3c-0.9-1.4-2.4-2.1-4.5-2.1c-2.1,0-3.6,0.7-4.5,2.1S177.1,197.2,177.1,200.1z"/>
		<path class="st2" d="M226.4,214.3l-2.2-9.9l-2.9-12.5h-0.2l-5.2,22.5h-8.3l-8.1-28.4h7.7l3.3,12.6c0.5,2.3,1.1,5.4,1.6,9.3h0.2
			c0.1-1.3,0.4-3.3,0.9-6.1l0.4-2.2l3.5-13.6h8.5l3.3,13.6c0.1,0.4,0.2,0.9,0.3,1.7c0.1,0.7,0.3,1.5,0.4,2.3
			c0.1,0.8,0.3,1.6,0.4,2.4c0.1,0.8,0.2,1.4,0.2,1.9h0.2c0.2-1.2,0.4-2.9,0.8-5c0.4-2.1,0.7-3.6,0.8-4.3l3.4-12.6h7.6l-8.2,28.4
			H226.4z"/>
		<path class="st2" d="M260.5,214.8c-4.6,0-8.1-1.3-10.7-3.8c-2.6-2.5-3.9-6.1-3.9-10.7c0-4.8,1.2-8.4,3.6-11
			c2.4-2.6,5.7-3.9,9.9-3.9c4,0,7.1,1.1,9.4,3.4s3.4,5.4,3.4,9.5v3.8h-18.3c0.1,2.2,0.7,3.9,2,5.2c1.2,1.2,2.9,1.9,5.1,1.9
			c1.7,0,3.3-0.2,4.8-0.5s3.1-0.9,4.8-1.7v6c-1.4,0.7-2.8,1.2-4.3,1.5C264.6,214.7,262.7,214.8,260.5,214.8z M259.4,190.9
			c-1.6,0-2.9,0.5-3.9,1.6c-0.9,1-1.5,2.5-1.6,4.4h10.9c0-1.9-0.5-3.4-1.5-4.4S261,190.9,259.4,190.9z"/>
		<path class="st2" d="M298.1,205.9c0,2.9-1,5.1-3,6.7c-2,1.5-5,2.3-9.1,2.3c-2.1,0-3.8-0.1-5.3-0.4c-1.5-0.3-2.8-0.7-4.1-1.2v-6.4
			c1.4,0.7,3.1,1.2,4.9,1.7s3.4,0.7,4.8,0.7c2.8,0,4.2-0.8,4.2-2.4c0-0.6-0.2-1.1-0.6-1.5c-0.4-0.4-1-0.8-1.9-1.3s-2.1-1-3.7-1.7
			c-2.2-0.9-3.8-1.8-4.8-2.5c-1-0.8-1.8-1.7-2.2-2.7c-0.5-1-0.7-2.2-0.7-3.7c0-2.5,1-4.5,2.9-5.9c2-1.4,4.7-2.1,8.3-2.1
			c3.4,0,6.7,0.7,10,2.2l-2.3,5.6c-1.4-0.6-2.8-1.1-4-1.5c-1.2-0.4-2.5-0.6-3.8-0.6c-2.3,0-3.4,0.6-3.4,1.9c0,0.7,0.4,1.3,1.1,1.8
			s2.3,1.3,4.8,2.3c2.2,0.9,3.8,1.7,4.9,2.5c1,0.8,1.8,1.7,2.3,2.7C297.9,203.3,298.1,204.5,298.1,205.9z"/>
		<path class="st2" d="M316.1,208.7c1.4,0,3-0.3,4.9-0.9v5.8c-1.9,0.9-4.3,1.3-7.1,1.3c-3.1,0-5.4-0.8-6.8-2.3
			c-1.4-1.6-2.1-3.9-2.1-7v-13.7h-3.7v-3.3l4.3-2.6l2.2-6h5v6h7.9v5.8h-7.9v13.7c0,1.1,0.3,1.9,0.9,2.4
			C314.3,208.4,315.1,208.7,316.1,208.7z"/>
		<path class="st2" d="M360.1,205.9c0,2.9-1,5.1-3,6.7c-2,1.5-5,2.3-9.1,2.3c-2.1,0-3.8-0.1-5.3-0.4c-1.5-0.3-2.8-0.7-4.1-1.2v-6.4
			c1.4,0.7,3.1,1.2,4.9,1.7s3.4,0.7,4.8,0.7c2.8,0,4.2-0.8,4.2-2.4c0-0.6-0.2-1.1-0.6-1.5c-0.4-0.4-1-0.8-1.9-1.3s-2.1-1-3.7-1.7
			c-2.2-0.9-3.8-1.8-4.8-2.5c-1-0.8-1.8-1.7-2.2-2.7c-0.5-1-0.7-2.2-0.7-3.7c0-2.5,1-4.5,2.9-5.9c2-1.4,4.7-2.1,8.3-2.1
			c3.4,0,6.7,0.7,10,2.2l-2.3,5.6c-1.4-0.6-2.8-1.1-4-1.5c-1.2-0.4-2.5-0.6-3.8-0.6c-2.3,0-3.4,0.6-3.4,1.9c0,0.7,0.4,1.3,1.1,1.8
			s2.3,1.3,4.8,2.3c2.2,0.9,3.8,1.7,4.9,2.5c1,0.8,1.8,1.7,2.3,2.7C359.8,203.3,360.1,204.5,360.1,205.9z"/>
		<path class="st2" d="M365.8,178.6c0-2.5,1.4-3.8,4.2-3.8c2.8,0,4.2,1.3,4.2,3.8c0,1.2-0.4,2.1-1.1,2.8c-0.7,0.7-1.8,1-3.2,1
			C367.2,182.4,365.8,181.1,365.8,178.6z M373.9,214.3h-7.7v-28.4h7.7V214.3z"/>
		<path class="st2" d="M408.2,214.3h-7.7v-16.6c0-2-0.4-3.6-1.1-4.6c-0.7-1-1.9-1.5-3.5-1.5c-2.2,0-3.7,0.7-4.7,2.2
			s-1.4,3.8-1.4,7.2v13.4H382v-28.4h5.9l1,3.6h0.4c0.9-1.4,2.1-2.4,3.6-3.1c1.5-0.7,3.2-1.1,5.2-1.1c3.3,0,5.8,0.9,7.5,2.7
			c1.7,1.8,2.6,4.4,2.6,7.7V214.3z"/>
		<path class="st2" d="M427.7,214.8c-8.8,0-13.3-4.8-13.3-14.5c0-4.8,1.2-8.5,3.6-11.1c2.4-2.5,5.8-3.8,10.3-3.8
			c3.3,0,6.2,0.6,8.8,1.9l-2.3,6c-1.2-0.5-2.4-0.9-3.4-1.2c-1-0.3-2.1-0.5-3.1-0.5c-4,0-6,2.9-6,8.6c0,5.6,2,8.3,6,8.3
			c1.5,0,2.9-0.2,4.1-0.6c1.3-0.4,2.5-1,3.8-1.9v6.6c-1.3,0.8-2.5,1.3-3.8,1.7C431.2,214.7,429.6,214.8,427.7,214.8z"/>
		<path class="st2" d="M455.7,214.8c-4.6,0-8.1-1.3-10.7-3.8c-2.6-2.5-3.9-6.1-3.9-10.7c0-4.8,1.2-8.4,3.6-11
			c2.4-2.6,5.7-3.9,9.9-3.9c4,0,7.1,1.1,9.4,3.4s3.4,5.4,3.4,9.5v3.8H449c0.1,2.2,0.7,3.9,2,5.2c1.2,1.2,2.9,1.9,5.1,1.9
			c1.7,0,3.3-0.2,4.8-0.5s3.1-0.9,4.8-1.7v6c-1.4,0.7-2.8,1.2-4.3,1.5C459.8,214.7,458,214.8,455.7,214.8z M454.7,190.9
			c-1.6,0-2.9,0.5-3.9,1.6c-0.9,1-1.5,2.5-1.6,4.4h10.9c0-1.9-0.5-3.4-1.5-4.4S456.3,190.9,454.7,190.9z"/>
		<path class="st2" d="M71.5,276.7h-7.8v-21.5l0.1-3.5l0.1-3.9c-1.3,1.3-2.2,2.2-2.7,2.6l-4.3,3.4l-3.8-4.7l12-9.5h6.4V276.7z"/>
		<path class="st2" d="M107.6,255.4c0,7.3-1.5,12.8-4.6,16.4c-3.1,3.6-7.7,5.4-14,5.4c-2.2,0-3.9-0.1-5-0.4v-6.3
			c1.4,0.4,2.9,0.5,4.5,0.5c2.6,0,4.8-0.4,6.5-1.2c1.7-0.8,3-2,3.9-3.6c0.9-1.7,1.4-3.9,1.5-6.8H100c-1,1.6-2.1,2.7-3.4,3.4
			c-1.3,0.6-2.9,1-4.8,1c-3.2,0-5.8-1-7.6-3.1c-1.9-2.1-2.8-5-2.8-8.6c0-4,1.1-7.1,3.4-9.4s5.3-3.5,9.2-3.5c2.7,0,5.1,0.6,7.2,1.9
			c2.1,1.3,3.6,3.2,4.7,5.6C107,249.1,107.6,252.1,107.6,255.4z M94.1,245.5c-1.6,0-2.9,0.6-3.8,1.7s-1.4,2.7-1.4,4.8
			c0,1.8,0.4,3.2,1.2,4.3c0.8,1,2.1,1.6,3.8,1.6c1.6,0,3-0.5,4.1-1.6c1.1-1,1.7-2.2,1.7-3.6c0-2-0.5-3.7-1.6-5.1
			C97.1,246.2,95.8,245.5,94.1,245.5z"/>
		<path class="st2" d="M115.1,276.7l13.9-30.5h-18.3v-6.6h26.6v4.9l-14,32.1H115.1z"/>
		<path class="st2" d="M154.6,253c3.6,0,6.4,1,8.6,3c2.1,2,3.2,4.8,3.2,8.3c0,4.1-1.3,7.3-3.8,9.6c-2.6,2.2-6.2,3.4-11,3.4
			c-4.1,0-7.5-0.7-10-2v-6.8c1.3,0.7,2.9,1.3,4.7,1.7s3.5,0.7,5.1,0.7c4.8,0,7.2-2,7.2-5.9c0-3.7-2.5-5.6-7.4-5.6
			c-0.9,0-1.9,0.1-3,0.3c-1.1,0.2-2,0.4-2.6,0.6l-3.1-1.7l1.4-18.9h20.1v6.7h-13.3l-0.7,7.3l0.9-0.2
			C151.8,253.1,153.1,253,154.6,253z"/>
	</g>
	<g class="st0">
		<g>
			<path class="st2" d="M714.3,545.3c-4.4,0-6.4-3.7-6.4-8.2c0-4.5,2-8.2,6.4-8.2c4.4,0,6.4,3.7,6.4,8.2
				C720.7,541.6,718.7,545.3,714.3,545.3z M714.3,530.2c-3.3,0-4.4,3.6-4.4,6.8c0,3.2,1.1,6.8,4.4,6.8c3.4,0,4.4-3.6,4.4-6.8
				C718.7,533.8,717.6,530.2,714.3,530.2z"/>
			<path class="st2" d="M726.2,533.8V545h-1.8v-11.2h-1.8v-1.1h1.8v-1.8c0-2.2,1.3-3.9,3.9-3.9c0.2,0,0.4,0,0.4,0v1.1h-0.2
				c-1.2,0-2.4,0.8-2.4,2.5v2h2.6v1.1H726.2z"/>
			<path class="st2" d="M733.6,533.8V545h-1.8v-11.2H730v-1.1h1.8v-1.8c0-2.2,1.3-3.9,3.9-3.9c0.2,0,0.4,0,0.4,0v1.1H736
				c-1.2,0-2.4,0.8-2.4,2.5v2h2.6v1.1H733.6z"/>
			<path class="st2" d="M739.1,530.3c-0.6,0-1.1-0.5-1.1-1.1s0.5-1.1,1.1-1.1c0.6,0,1.1,0.5,1.1,1.1S739.7,530.3,739.1,530.3z
				 M738.2,545v-12.3h1.8V545H738.2z"/>
			<path class="st2" d="M747.7,545.3c-2.9,0-5.2-2.5-5.2-6.5c0-4,2.3-6.5,5.2-6.5c1.5,0,2.5,0.4,3,0.8l-0.5,1.1
				c-0.4-0.3-1.2-0.7-2.1-0.7c-2.5,0-3.8,2.2-3.8,5.1c0,3,1.5,5.2,3.7,5.2c0.9,0,1.7-0.3,2.2-0.7l0.5,1.2
				C750.3,544.9,749.2,545.3,747.7,545.3z"/>
			<path class="st2" d="M753.7,539.6c0.2,2.9,1.8,4.4,4.3,4.4c1.5,0,2.7-0.4,3.3-0.8l0.5,1.3c-0.8,0.4-2.2,0.8-4,0.8
				c-3.5,0-5.9-2.1-5.9-6.5c0-4.2,2.3-6.4,5.4-6.4c3.1,0,5.1,1.9,5.1,6L753.7,539.6z M757.3,533.5c-2,0-3.7,1.6-3.7,5l7-1
				C760.7,534.7,759.3,533.5,757.3,533.5z"/>
			<path class="st2" d="M771.2,533.8V545h-1.8v-11.2h-1.8v-1.1h1.8v-1.8c0-2.2,1.3-3.9,3.9-3.9c0.2,0,0.4,0,0.4,0v1.1h-0.2
				c-1.2,0-2.4,0.8-2.4,2.5v2h2.6v1.1H771.2z"/>
			<path class="st2" d="M780.3,545.3c-3.6,0-5.3-2.8-5.3-6.5c0-3.6,1.7-6.5,5.3-6.5c3.6,0,5.3,2.8,5.3,6.5
				C785.6,542.5,783.9,545.3,780.3,545.3z M780.3,533.6c-2.7,0-3.5,2.7-3.5,5.3c0,2.5,0.8,5.2,3.5,5.2c2.7,0,3.5-2.6,3.5-5.2
				C783.8,536.3,783,533.6,780.3,533.6z"/>
			<path class="st2" d="M793.3,533.8c-1.1-0.3-2.8-0.3-3.6,0.2v11h-1.8v-11.8c1.3-0.5,2.6-0.8,4.9-0.8c0.3,0,0.7,0,0.9,0
				L793.3,533.8z"/>
			<path class="st2" d="M809.6,545.1l-7-10.8c-0.5-0.8-0.9-1.6-0.9-1.6h0c0,0,0.1,0.9,0.1,1.9v10.5h-2.3v-15.8h2.6l6.6,10.1
				c0.6,0.9,0.9,1.6,0.9,1.6h0c0,0-0.1-0.9-0.1-1.8v-9.9h2.3v15.8H809.6z"/>
			<path class="st2" d="M819.4,545.4c-3.6,0-5.3-1.4-5.3-3.8c0-3.3,3.5-4.2,7.6-4.6v-0.7c0-1.7-1.2-2.2-2.8-2.2
				c-1.2,0-2.6,0.3-3.3,0.7l-0.6-1.5c0.9-0.4,2.5-0.9,4.4-0.9c2.7,0,4.8,1.1,4.8,4.3v7.8C823.1,545.1,821.4,545.4,819.4,545.4z
				 M821.7,538.3c-3.1,0.3-5.1,0.9-5.1,3.3c0,1.7,1.2,2.4,3,2.4c0.9,0,1.6-0.2,2.1-0.4V538.3z"/>
			<path class="st2" d="M831.3,545.4c-2.6,0-3.6-1.7-3.6-3.3v-7.7H826v-1.6h1.7V530l2.6-0.7v3.5h2.4v1.6h-2.4v7.5
				c0,1,0.6,1.7,1.7,1.7c0.3,0,0.5,0,0.7-0.1v1.6C832.5,545.3,832,545.4,831.3,545.4z"/>
			<path class="st2" d="M836.2,530.6c-0.8,0-1.5-0.6-1.5-1.4c0-0.8,0.7-1.4,1.5-1.4c0.8,0,1.5,0.6,1.5,1.4
				C837.7,530,837,530.6,836.2,530.6z M834.8,545.1v-12.3h2.7v12.3H834.8z"/>
			<path class="st2" d="M845.4,545.4c-3.8,0-5.6-2.8-5.6-6.5c0-3.7,1.9-6.5,5.6-6.5c3.8,0,5.6,2.8,5.6,6.5
				C851,542.6,849.2,545.4,845.4,545.4z M845.4,534.1c-2.3,0-2.9,2.4-2.9,4.8c0,2.4,0.7,4.7,2.9,4.7c2.3,0,2.9-2.3,2.9-4.7
				C848.4,536.5,847.7,534.1,845.4,534.1z"/>
			<path class="st2" d="M860.8,545.1v-8.8c0-1.6-1.3-2.2-2.9-2.2c-0.8,0-1.6,0.2-2.1,0.4v10.6h-2.6v-11.8c1.2-0.5,3-0.9,4.9-0.9
				c3.2,0,5.4,1.1,5.4,3.8v8.9H860.8z"/>
			<path class="st2" d="M870.9,545.4c-3.6,0-5.3-1.4-5.3-3.8c0-3.3,3.5-4.2,7.6-4.6v-0.7c0-1.7-1.2-2.2-2.8-2.2
				c-1.2,0-2.6,0.3-3.3,0.7l-0.6-1.5c0.9-0.4,2.5-0.9,4.4-0.9c2.7,0,4.8,1.1,4.8,4.3v7.8C874.6,545.1,872.9,545.4,870.9,545.4z
				 M873.2,538.3c-3.1,0.3-5.1,0.9-5.1,3.3c0,1.7,1.2,2.4,3,2.4c0.9,0,1.6-0.2,2.1-0.4V538.3z"/>
			<path class="st2" d="M878.4,545.1v-6v-12h2.6v6.1v11.9H878.4z"/>
			<path class="st2" d="M891.5,545.4c-1.9,0-3.4-0.4-4.3-0.9l0.7-1.9c0.6,0.4,1.8,0.8,3,0.8c1.8,0,3.1-1.1,3.1-2.6
				c0-3.5-6.6-2.1-6.6-7c0-2.5,2-4.7,5.2-4.7c1.7,0,3.1,0.5,3.8,0.9l-0.7,1.7c-0.6-0.3-1.7-0.7-2.8-0.7c-1.7,0-2.8,1-2.8,2.5
				c0,3.4,6.7,1.9,6.7,7.1C897,543.4,894.7,545.4,891.5,545.4z"/>
			<path class="st2" d="M903.7,545.4c-2.6,0-3.6-1.7-3.6-3.3v-7.7h-1.7v-1.6h1.7V530l2.6-0.7v3.5h2.4v1.6h-2.4v7.5
				c0,1,0.6,1.7,1.7,1.7c0.3,0,0.5,0,0.7-0.1v1.6C904.9,545.3,904.4,545.4,903.7,545.4z"/>
			<path class="st2" d="M911.9,545.4c-3.6,0-5.3-1.4-5.3-3.8c0-3.3,3.5-4.2,7.6-4.6v-0.7c0-1.7-1.2-2.2-2.8-2.2
				c-1.2,0-2.6,0.3-3.3,0.7l-0.6-1.5c0.9-0.4,2.5-0.9,4.4-0.9c2.7,0,4.8,1.1,4.8,4.3v7.8C915.6,545.1,913.9,545.4,911.9,545.4z
				 M914.2,538.3c-3.1,0.3-5.1,0.9-5.1,3.3c0,1.7,1.2,2.4,3,2.4c0.9,0,1.6-0.2,2.1-0.4V538.3z"/>
			<path class="st2" d="M923.8,545.4c-2.6,0-3.6-1.7-3.6-3.3v-7.7h-1.7v-1.6h1.7V530l2.6-0.7v3.5h2.4v1.6h-2.4v7.5
				c0,1,0.6,1.7,1.7,1.7c0.3,0,0.5,0,0.7-0.1v1.6C925,545.3,924.5,545.4,923.8,545.4z"/>
			<path class="st2" d="M928.7,530.6c-0.8,0-1.5-0.6-1.5-1.4c0-0.8,0.7-1.4,1.5-1.4c0.8,0,1.5,0.6,1.5,1.4
				C930.2,530,929.5,530.6,928.7,530.6z M927.3,545.1v-12.3h2.7v12.3H927.3z"/>
			<path class="st2" d="M935.7,545.4c-1.5,0-3-0.4-3.7-0.9l0.7-1.7c0.5,0.4,1.6,0.7,2.7,0.7c1.3,0,2.4-0.9,2.4-1.9
				c0-2.9-5.4-1.6-5.4-5.6c0-1.8,1.6-3.6,4.3-3.6c1.5,0,2.6,0.4,3.5,0.9l-0.7,1.5c-0.4-0.3-1.2-0.7-2.3-0.7c-1.4,0-2.2,0.8-2.2,1.8
				c0,2.8,5.5,1.5,5.5,5.7C940.6,543.6,938.7,545.4,935.7,545.4z"/>
			<path class="st2" d="M947.3,545.4c-2.6,0-3.6-1.7-3.6-3.3v-7.7H942v-1.6h1.7V530l2.6-0.7v3.5h2.4v1.6h-2.4v7.5
				c0,1,0.6,1.7,1.7,1.7c0.3,0,0.5,0,0.7-0.1v1.6C948.5,545.3,947.9,545.4,947.3,545.4z"/>
			<path class="st2" d="M952.1,530.6c-0.8,0-1.5-0.6-1.5-1.4c0-0.8,0.7-1.4,1.5-1.4c0.8,0,1.5,0.6,1.5,1.4
				C953.7,530,953,530.6,952.1,530.6z M950.8,545.1v-12.3h2.7v12.3H950.8z"/>
			<path class="st2" d="M961.1,545.4c-3,0-5.4-2.5-5.4-6.5c0-4.1,2.4-6.5,5.4-6.5c1.5,0,2.6,0.4,3.2,0.9l-0.6,1.5
				c-0.4-0.3-1.1-0.6-1.9-0.6c-2.1,0-3.3,1.9-3.3,4.6c0,2.8,1.3,4.7,3.2,4.7c0.8,0,1.5-0.3,1.9-0.6l0.7,1.6
				C963.7,545,962.6,545.4,961.1,545.4z"/>
			<path class="st2" d="M969.2,545.4c-1.5,0-3-0.4-3.7-0.9l0.7-1.7c0.5,0.4,1.6,0.7,2.7,0.7c1.3,0,2.4-0.9,2.4-1.9
				c0-2.9-5.4-1.6-5.4-5.6c0-1.8,1.6-3.6,4.3-3.6c1.5,0,2.6,0.4,3.5,0.9l-0.7,1.5c-0.4-0.3-1.2-0.7-2.3-0.7c-1.4,0-2.2,0.8-2.2,1.8
				c0,2.8,5.5,1.5,5.5,5.7C974,543.6,972.1,545.4,969.2,545.4z"/>
		</g>
		<g>
			<path class="st2" d="M674,538.3c0.4-0.8,0.7-1.5,1.1-2.2c-0.5-1.2-0.8-1.9-1.1-3.2C674,535.1,674,536.5,674,538.3z M676.5,523
				c0,0-2.4,0-2.4,3c0,0.2,0-0.3,0,0.5c0.2,2.8,1.1,5.6,2.1,8.1c1.4-2.2,2.6-3.5,4.6-5.2c4-3.4,8.6-5.4,15.9-6.4H676.5z"/>
			<path class="st2" d="M700.1,524.7c-8.3,0.8-14,3.2-18,6.6c-2.2,1.9-3.5,3.4-4.9,5.9c3.2,6.2,9.7,11.4,19.8,12l0.2,0
				c0,0,3.1,0.1,3.1-3.4v-21.2C700.2,524.6,700.2,524.7,700.1,524.7z M678.8,542.3c-1-1.1-1.8-2.3-2.5-3.6c-0.9,1.7-1.6,3.5-2.3,5.4
				c0,3,0,5.1,0,5.1l15.3,0C684.4,547.7,681.5,545.5,678.8,542.3z"/>
		</g>
	</g>
	<g class="st0">
		<path class="st2" d="M59,539.3c0,1.1-0.4,2-1.2,2.6s-1.9,0.9-3.3,0.9c-1.5,0-2.7-0.2-3.5-0.6v-1.4c0.5,0.2,1.1,0.4,1.7,0.5
			s1.2,0.2,1.8,0.2c1,0,1.7-0.2,2.2-0.6c0.5-0.4,0.8-0.9,0.8-1.6c0-0.4-0.1-0.8-0.3-1.1c-0.2-0.3-0.5-0.5-0.9-0.8s-1.1-0.5-1.9-0.8
			c-1.2-0.4-2-0.9-2.6-1.5s-0.8-1.4-0.8-2.3c0-1,0.4-1.8,1.1-2.4s1.7-0.9,3-0.9c1.3,0,2.5,0.2,3.5,0.7l-0.5,1.3
			c-1.1-0.4-2.1-0.7-3.1-0.7c-0.8,0-1.4,0.2-1.9,0.5s-0.7,0.8-0.7,1.4c0,0.4,0.1,0.8,0.2,1.1c0.2,0.3,0.4,0.5,0.8,0.8
			c0.4,0.2,1,0.5,1.8,0.8c1.3,0.5,2.3,1,2.8,1.5S59,538.4,59,539.3z"/>
		<path class="st2" d="M69.7,537.9c0,1.6-0.4,2.8-1.2,3.7c-0.8,0.9-1.9,1.3-3.3,1.3c-0.9,0-1.6-0.2-2.3-0.6s-1.2-1-1.5-1.7
			s-0.5-1.6-0.5-2.7c0-1.6,0.4-2.8,1.2-3.7c0.8-0.9,1.9-1.3,3.3-1.3c1.3,0,2.4,0.4,3.2,1.3S69.7,536.3,69.7,537.9z M62.4,537.9
			c0,1.2,0.2,2.2,0.7,2.8s1.2,1,2.2,1s1.7-0.3,2.2-1c0.5-0.6,0.7-1.6,0.7-2.8c0-1.2-0.2-2.2-0.7-2.8c-0.5-0.6-1.2-1-2.2-1
			c-1,0-1.7,0.3-2.2,0.9S62.4,536.6,62.4,537.9z"/>
		<path class="st2" d="M73.7,533v6.2c0,0.8,0.2,1.4,0.5,1.8s0.9,0.6,1.7,0.6c1,0,1.7-0.3,2.2-0.8s0.7-1.5,0.7-2.7V533h1.5v9.6H79
			l-0.2-1.3h-0.1c-0.3,0.5-0.7,0.8-1.2,1.1s-1.1,0.4-1.8,0.4c-1.2,0-2-0.3-2.6-0.8s-0.9-1.4-0.9-2.7V533H73.7z"/>
		<path class="st2" d="M87.7,532.9c0.4,0,0.8,0,1.2,0.1l-0.2,1.4c-0.4-0.1-0.8-0.1-1.1-0.1c-0.8,0-1.4,0.3-2,0.9s-0.8,1.4-0.8,2.4
			v5.2h-1.5V533h1.2l0.2,1.8h0.1c0.4-0.6,0.8-1.1,1.3-1.5S87.1,532.9,87.7,532.9z"/>
		<path class="st2" d="M94.5,542.9c-1.4,0-2.5-0.4-3.2-1.3c-0.8-0.9-1.1-2.1-1.1-3.6c0-1.6,0.4-2.9,1.2-3.7s1.9-1.3,3.3-1.3
			c0.5,0,0.9,0,1.4,0.1s0.8,0.2,1.1,0.4l-0.4,1.2c-0.3-0.1-0.7-0.2-1.1-0.3c-0.4-0.1-0.7-0.1-1-0.1c-2,0-2.9,1.2-2.9,3.7
			c0,1.2,0.2,2.1,0.7,2.7s1.2,0.9,2.1,0.9c0.8,0,1.6-0.2,2.5-0.5v1.3C96.3,542.7,95.5,542.9,94.5,542.9z"/>
		<path class="st2" d="M103.3,542.9c-1.4,0-2.5-0.4-3.4-1.3s-1.2-2.1-1.2-3.6c0-1.6,0.4-2.8,1.1-3.7s1.8-1.4,3.1-1.4
			c1.2,0,2.2,0.4,2.9,1.2c0.7,0.8,1.1,1.8,1.1,3.1v0.9h-6.6c0,1.1,0.3,2,0.9,2.6s1.3,0.9,2.3,0.9c1,0,2.1-0.2,3.1-0.7v1.3
			c-0.5,0.2-1,0.4-1.5,0.5C104.5,542.8,104,542.9,103.3,542.9z M102.9,534.1c-0.8,0-1.4,0.3-1.9,0.8s-0.7,1.2-0.8,2.1h5
			c0-0.9-0.2-1.6-0.6-2.1C104.3,534.3,103.7,534.1,102.9,534.1z"/>
		<path class="st2" d="M109.2,534c0-0.8,0.3-1.2,1-1.2c0.7,0,1.1,0.4,1.1,1.2c0,0.4-0.1,0.7-0.3,0.9s-0.5,0.3-0.8,0.3
			c-0.3,0-0.5-0.1-0.7-0.3C109.2,534.7,109.2,534.4,109.2,534z M109.2,541.7c0-0.4,0.1-0.7,0.3-0.9c0.2-0.2,0.4-0.3,0.8-0.3
			c0.3,0,0.6,0.1,0.8,0.3c0.2,0.2,0.3,0.5,0.3,0.9c0,0.4-0.1,0.7-0.3,0.9s-0.5,0.3-0.8,0.3c-0.3,0-0.5-0.1-0.7-0.3
			C109.2,542.5,109.2,542.2,109.2,541.7z"/>
		<path class="st2" d="M128.8,529.8v8.3c0,1.5-0.4,2.6-1.3,3.5s-2.1,1.3-3.6,1.3s-2.7-0.4-3.6-1.3s-1.3-2-1.3-3.5v-8.3h1.5v8.4
			c0,1.1,0.3,1.9,0.9,2.5s1.4,0.9,2.6,0.9c1.1,0,1.9-0.3,2.5-0.9c0.6-0.6,0.9-1.4,0.9-2.5v-8.4H128.8z"/>
		<path class="st2" d="M141.4,542.7h-1.8l-4.7-6.2l-1.3,1.2v5h-1.5v-12.8h1.5v6.4l5.8-6.4h1.8l-5.2,5.6L141.4,542.7z"/>
		<path class="st2" d="M149.1,542.7h-1.5V529h1.5V542.7z"/>
		<path class="st2" d="M158.1,542.7l-0.3-1.4h-0.1c-0.5,0.6-1,1-1.4,1.2c-0.5,0.2-1.1,0.3-1.8,0.3c-1,0-1.7-0.2-2.2-0.7
			s-0.8-1.2-0.8-2.1c0-1.9,1.6-3,4.7-3.1l1.6-0.1v-0.6c0-0.8-0.2-1.3-0.5-1.7c-0.3-0.4-0.8-0.5-1.6-0.5c-0.8,0-1.7,0.2-2.7,0.7
			l-0.4-1.1c0.5-0.3,1-0.5,1.6-0.6s1.1-0.2,1.7-0.2c1.1,0,2,0.3,2.6,0.8s0.8,1.3,0.8,2.5v6.6H158.1z M154.8,541.7
			c0.9,0,1.6-0.2,2.1-0.7s0.8-1.2,0.8-2.1v-0.9l-1.5,0.1c-1.2,0-2,0.2-2.5,0.5c-0.5,0.3-0.8,0.8-0.8,1.5c0,0.5,0.2,0.9,0.5,1.2
			S154.3,541.7,154.8,541.7z"/>
		<path class="st2" d="M166.7,532.9c1.3,0,2.2,0.4,2.9,1.3c0.7,0.9,1.1,2.1,1.1,3.7s-0.4,2.8-1.1,3.7c-0.7,0.9-1.7,1.3-2.9,1.3
			c-0.6,0-1.2-0.1-1.7-0.3c-0.5-0.2-1-0.6-1.3-1.1h-0.1l-0.3,1.2h-1V529h1.5v3.3c0,0.7,0,1.4-0.1,2h0.1
			C164.4,533.4,165.4,532.9,166.7,532.9z M166.5,534.1c-1,0-1.7,0.3-2.2,0.9c-0.4,0.6-0.7,1.5-0.7,2.9s0.2,2.3,0.7,2.9
			c0.5,0.6,1.2,0.9,2.2,0.9c0.9,0,1.6-0.3,2-1c0.4-0.7,0.7-1.6,0.7-2.8c0-1.3-0.2-2.2-0.7-2.8S167.4,534.1,166.5,534.1z"/>
		<path class="st2" d="M181.6,537.9c0,1.6-0.4,2.8-1.2,3.7c-0.8,0.9-1.9,1.3-3.3,1.3c-0.9,0-1.6-0.2-2.3-0.6s-1.2-1-1.5-1.7
			s-0.5-1.6-0.5-2.7c0-1.6,0.4-2.8,1.2-3.7c0.8-0.9,1.9-1.3,3.3-1.3c1.3,0,2.4,0.4,3.2,1.3S181.6,536.3,181.6,537.9z M174.2,537.9
			c0,1.2,0.2,2.2,0.7,2.8s1.2,1,2.2,1s1.7-0.3,2.2-1c0.5-0.6,0.7-1.6,0.7-2.8c0-1.2-0.2-2.2-0.7-2.8c-0.5-0.6-1.2-1-2.2-1
			c-1,0-1.7,0.3-2.2,0.9S174.2,536.6,174.2,537.9z"/>
		<path class="st2" d="M185.5,533v6.2c0,0.8,0.2,1.4,0.5,1.8s0.9,0.6,1.7,0.6c1,0,1.7-0.3,2.2-0.8s0.7-1.5,0.7-2.7V533h1.5v9.6h-1.2
			l-0.2-1.3h-0.1c-0.3,0.5-0.7,0.8-1.2,1.1s-1.1,0.4-1.8,0.4c-1.2,0-2-0.3-2.6-0.8s-0.9-1.4-0.9-2.7V533H185.5z"/>
		<path class="st2" d="M199.6,532.9c0.4,0,0.8,0,1.2,0.1l-0.2,1.4c-0.4-0.1-0.8-0.1-1.1-0.1c-0.8,0-1.4,0.3-2,0.9s-0.8,1.4-0.8,2.4
			v5.2h-1.5V533h1.2l0.2,1.8h0.1c0.4-0.6,0.8-1.1,1.3-1.5S199,532.9,199.6,532.9z"/>
		<path class="st2" d="M219.5,542.7v-6.3c0-0.8-0.2-1.3-0.5-1.7c-0.3-0.4-0.8-0.6-1.5-0.6c-0.9,0-1.6,0.3-2,0.8s-0.7,1.3-0.7,2.4
			v5.4h-1.5v-6.3c0-0.8-0.2-1.3-0.5-1.7c-0.3-0.4-0.8-0.6-1.5-0.6c-0.9,0-1.6,0.3-2,0.8c-0.4,0.5-0.6,1.4-0.6,2.7v5.1h-1.5V533h1.2
			l0.2,1.3h0.1c0.3-0.5,0.7-0.8,1.2-1.1s1.1-0.4,1.7-0.4c1.5,0,2.5,0.5,3,1.6h0.1c0.3-0.5,0.7-0.9,1.2-1.2s1.2-0.4,1.9-0.4
			c1.1,0,1.9,0.3,2.4,0.8c0.5,0.6,0.8,1.5,0.8,2.7v6.3H219.5z"/>
		<path class="st2" d="M229.9,542.7l-0.3-1.4h-0.1c-0.5,0.6-1,1-1.4,1.2c-0.5,0.2-1.1,0.3-1.8,0.3c-1,0-1.7-0.2-2.2-0.7
			s-0.8-1.2-0.8-2.1c0-1.9,1.6-3,4.7-3.1l1.6-0.1v-0.6c0-0.8-0.2-1.3-0.5-1.7c-0.3-0.4-0.8-0.5-1.6-0.5c-0.8,0-1.7,0.2-2.7,0.7
			l-0.4-1.1c0.5-0.3,1-0.5,1.6-0.6s1.1-0.2,1.7-0.2c1.1,0,2,0.3,2.6,0.8s0.8,1.3,0.8,2.5v6.6H229.9z M226.6,541.7
			c0.9,0,1.6-0.2,2.1-0.7s0.8-1.2,0.8-2.1v-0.9L228,538c-1.2,0-2,0.2-2.5,0.5c-0.5,0.3-0.8,0.8-0.8,1.5c0,0.5,0.2,0.9,0.5,1.2
			S226,541.7,226.6,541.7z"/>
		<path class="st2" d="M238.3,532.9c0.4,0,0.8,0,1.2,0.1l-0.2,1.4c-0.4-0.1-0.8-0.1-1.1-0.1c-0.8,0-1.4,0.3-2,0.9s-0.8,1.4-0.8,2.4
			v5.2h-1.5V533h1.2l0.2,1.8h0.1c0.4-0.6,0.8-1.1,1.3-1.5S237.7,532.9,238.3,532.9z"/>
		<path class="st2" d="M242.7,537.7c0.3-0.4,0.6-0.8,1.2-1.4l3.1-3.3h1.7l-3.9,4.1l4.2,5.5h-1.8l-3.4-4.6l-1.1,0.9v3.6h-1.4V529h1.4
			v7.3C242.7,536.6,242.7,537.1,242.7,537.7L242.7,537.7z"/>
		<path class="st2" d="M254.8,542.9c-1.4,0-2.5-0.4-3.4-1.3s-1.2-2.1-1.2-3.6c0-1.6,0.4-2.8,1.1-3.7s1.8-1.4,3.1-1.4
			c1.2,0,2.2,0.4,2.9,1.2c0.7,0.8,1.1,1.8,1.1,3.1v0.9h-6.6c0,1.1,0.3,2,0.9,2.6s1.3,0.9,2.3,0.9c1,0,2.1-0.2,3.1-0.7v1.3
			c-0.5,0.2-1,0.4-1.5,0.5C256,542.8,255.5,542.9,254.8,542.9z M254.4,534.1c-0.8,0-1.4,0.3-1.9,0.8s-0.7,1.2-0.8,2.1h5
			c0-0.9-0.2-1.6-0.6-2.1C255.8,534.3,255.2,534.1,254.4,534.1z"/>
		<path class="st2" d="M264,541.7c0.3,0,0.5,0,0.7-0.1c0.2,0,0.4-0.1,0.6-0.1v1.1c-0.2,0.1-0.4,0.1-0.7,0.2c-0.3,0-0.6,0.1-0.8,0.1
			c-1.9,0-2.8-1-2.8-2.9v-5.7h-1.4v-0.7l1.4-0.6l0.6-2.1h0.8v2.2h2.8v1.1h-2.8v5.7c0,0.6,0.1,1,0.4,1.3S263.5,541.7,264,541.7z"/>
		<path class="st2" d="M268.7,540.6l0.1,0.2c-0.2,0.6-0.4,1.3-0.7,2c-0.3,0.8-0.6,1.5-0.9,2.2h-1.1c0.2-0.6,0.3-1.4,0.5-2.3
			s0.3-1.6,0.4-2.2H268.7z"/>
		<path class="st2" d="M274.6,546.1c-0.6,0-1-0.1-1.3-0.2v-1.3c0.4,0.1,0.8,0.2,1.3,0.2c0.6,0,1-0.2,1.3-0.5s0.5-0.9,0.5-1.5v-12.8
			h1.5v12.7c0,1.1-0.3,2-0.8,2.6C276.5,545.8,275.7,546.1,274.6,546.1z"/>
		<path class="st2" d="M282.5,533v6.2c0,0.8,0.2,1.4,0.5,1.8s0.9,0.6,1.7,0.6c1,0,1.7-0.3,2.2-0.8s0.7-1.5,0.7-2.7V533h1.5v9.6h-1.2
			l-0.2-1.3h-0.1c-0.3,0.5-0.7,0.8-1.2,1.1s-1.1,0.4-1.8,0.4c-1.2,0-2-0.3-2.6-0.8s-0.9-1.4-0.9-2.7V533H282.5z"/>
		<path class="st2" d="M293.6,542.7h-1.5V529h1.5V542.7z"/>
		<path class="st2" d="M295.2,533h1.6l2.1,5.5c0.5,1.3,0.8,2.2,0.9,2.7h0.1c0.1-0.3,0.2-0.8,0.5-1.5c0.2-0.7,1-2.9,2.4-6.7h1.6
			l-4.1,11c-0.4,1.1-0.9,1.9-1.4,2.3c-0.5,0.5-1.2,0.7-2,0.7c-0.4,0-0.9,0-1.3-0.1v-1.2c0.3,0.1,0.7,0.1,1.1,0.1
			c1,0,1.7-0.6,2.1-1.7l0.5-1.4L295.2,533z"/>
		<path class="st2" d="M318.2,542.7h-8.4v-1.3l3.4-3.4c1-1,1.7-1.8,2-2.2s0.6-0.9,0.7-1.3s0.2-0.9,0.2-1.4c0-0.7-0.2-1.2-0.6-1.6
			c-0.4-0.4-1-0.6-1.7-0.6c-0.5,0-1,0.1-1.5,0.3s-1,0.5-1.6,1l-0.8-1c1.2-1,2.5-1.5,3.9-1.5c1.2,0,2.2,0.3,2.8,0.9
			c0.7,0.6,1,1.4,1,2.5c0,0.8-0.2,1.6-0.7,2.4s-1.3,1.8-2.6,3l-2.8,2.8v0.1h6.6V542.7z"/>
		<path class="st2" d="M328.6,536.2c0,2.2-0.4,3.9-1.1,5s-1.8,1.6-3.2,1.6c-1.4,0-2.4-0.6-3.2-1.7c-0.7-1.1-1.1-2.8-1.1-4.9
			c0-2.2,0.3-3.9,1-5s1.8-1.6,3.2-1.6c1.4,0,2.5,0.6,3.2,1.7S328.6,534.1,328.6,536.2z M321.6,536.2c0,1.9,0.2,3.2,0.7,4.1
			c0.4,0.9,1.1,1.3,2.1,1.3c1,0,1.7-0.4,2.1-1.3c0.4-0.9,0.7-2.2,0.7-4.1s-0.2-3.2-0.7-4.1c-0.4-0.9-1.1-1.3-2.1-1.3
			c-1,0-1.7,0.4-2.1,1.3C321.8,533,321.6,534.4,321.6,536.2z"/>
		<path class="st2" d="M335.8,542.7h-1.4v-9.2c0-0.8,0-1.5,0.1-2.2c-0.1,0.1-0.3,0.3-0.4,0.4s-0.8,0.7-2.1,1.7l-0.8-1l3.4-2.6h1.2
			V542.7z"/>
		<path class="st2" d="M342.3,542.7l5.3-11.5h-7v-1.3h8.6v1.2l-5.3,11.7H342.3z"/>
	</g>
</g>
</svg>
