<?xml version="1.0" encoding="utf-8"?>
<!-- Generator: Adobe Illustrator 21.0.2, SVG Export Plug-In . SVG Version: 6.00 Build 0)  -->
<svg version="1.1" id="Layer_1" xmlns="http://www.w3.org/2000/svg" xmlns:xlink="http://www.w3.org/1999/xlink" x="0px" y="0px"
	 viewBox="0 0 1024 573" style="enable-background:new 0 0 1024 573;" xml:space="preserve">
<style type="text/css">
	.st0{fill:#008080;}
	.st1{fill:#FFFFFF;}
	.st2{fill:#E2BC22;}
</style>
<g>
	<rect class="st0" width="1024" height="573"/>
</g>
<g>
	<path class="st1" d="M84.9,52.4v24c0,2.7-0.6,5.1-1.8,7.2c-1.2,2.1-3,3.6-5.3,4.7c-2.3,1.1-5.1,1.7-8.2,1.7
		c-4.8,0-8.5-1.2-11.1-3.7c-2.6-2.4-4-5.8-4-10V52.4h7.8v22.7c0,2.9,0.6,5,1.7,6.3c1.2,1.3,3.1,2,5.7,2c2.6,0,4.4-0.7,5.6-2
		c1.2-1.3,1.7-3.5,1.7-6.3V52.4H84.9z"/>
	<path class="st1" d="M119.6,89.5h-7.7V72.9c0-2-0.4-3.6-1.1-4.6c-0.7-1-1.9-1.5-3.5-1.5c-2.2,0-3.7,0.7-4.7,2.2s-1.4,3.8-1.4,7.2
		v13.4h-7.7V61.1h5.9l1,3.6h0.4c0.9-1.4,2.1-2.4,3.6-3.1c1.5-0.7,3.2-1.1,5.2-1.1c3.3,0,5.8,0.9,7.5,2.7c1.7,1.8,2.6,4.4,2.6,7.7
		V89.5z"/>
	<path class="st1" d="M143.1,90c-3.3,0-6-1.2-7.8-3.6h-0.4c0.3,2.4,0.4,3.7,0.4,4.1V102h-7.7V61.1h6.3l1.1,3.7h0.4
		c1.8-2.8,4.5-4.2,8-4.2c3.4,0,6,1.3,7.9,3.9c1.9,2.6,2.8,6.2,2.8,10.8c0,3-0.4,5.7-1.3,7.9s-2.2,3.9-3.8,5.1
		C147.3,89.4,145.4,90,143.1,90z M140.8,66.8c-1.9,0-3.3,0.6-4.2,1.8c-0.9,1.2-1.3,3.1-1.4,5.8v0.8c0,3,0.5,5.2,1.4,6.6
		c0.9,1.3,2.3,2,4.3,2c3.5,0,5.2-2.9,5.2-8.6c0-2.8-0.4-4.9-1.3-6.3C144,67.5,142.7,66.8,140.8,66.8z"/>
	<path class="st1" d="M178.5,89.5l-1.5-3.9h-0.2c-1.3,1.6-2.6,2.8-4,3.4c-1.4,0.6-3.2,1-5.4,1c-2.7,0-4.9-0.8-6.4-2.3
		c-1.6-1.6-2.3-3.8-2.3-6.7c0-3,1.1-5.2,3.2-6.7c2.1-1.4,5.3-2.2,9.5-2.4l4.9-0.2v-1.2c0-2.9-1.5-4.3-4.4-4.3c-2.3,0-4.9,0.7-8,2.1
		l-2.6-5.2c3.3-1.7,6.9-2.6,10.9-2.6c3.8,0,6.7,0.8,8.8,2.5c2,1.7,3,4.2,3,7.6v18.9H178.5z M176.2,76.4l-3,0.1
		c-2.3,0.1-3.9,0.5-5,1.2c-1.1,0.7-1.7,1.9-1.7,3.4c0,2.2,1.3,3.3,3.8,3.3c1.8,0,3.2-0.5,4.3-1.5c1.1-1,1.6-2.4,1.6-4.1V76.4z"/>
	<path class="st1" d="M191.5,53.8c0-2.5,1.4-3.8,4.2-3.8c2.8,0,4.2,1.3,4.2,3.8c0,1.2-0.4,2.1-1.1,2.8c-0.7,0.7-1.8,1-3.2,1
		C192.9,57.6,191.5,56.3,191.5,53.8z M199.6,89.5h-7.7V61.1h7.7V89.5z"/>
	<path class="st1" d="M216.7,90c-3.3,0-6-1.3-7.9-3.9S206,80,206,75.4c0-4.7,1-8.3,2.9-10.9c1.9-2.6,4.6-3.9,8-3.9
		c3.6,0,6.3,1.4,8.2,4.2h0.3c-0.4-2.1-0.6-4-0.6-5.7V50h7.8v39.5h-5.9l-1.5-3.7h-0.3C223,88.6,220.3,90,216.7,90z M219.4,83.9
		c2,0,3.4-0.6,4.4-1.7c0.9-1.2,1.4-3.1,1.5-5.9v-0.8c0-3-0.5-5.2-1.4-6.6s-2.5-2-4.6-2c-1.7,0-3.1,0.7-4,2.2c-1,1.5-1.4,3.6-1.4,6.4
		s0.5,4.9,1.4,6.3S217.6,83.9,219.4,83.9z"/>
	<path class="st1" d="M265.7,90c-8.8,0-13.3-4.8-13.3-14.5c0-4.8,1.2-8.5,3.6-11.1c2.4-2.5,5.8-3.8,10.3-3.8c3.3,0,6.2,0.6,8.8,1.9
		l-2.3,6c-1.2-0.5-2.4-0.9-3.4-1.2c-1-0.3-2.1-0.5-3.1-0.5c-4,0-6,2.9-6,8.6c0,5.6,2,8.3,6,8.3c1.5,0,2.9-0.2,4.1-0.6
		c1.3-0.4,2.5-1,3.8-1.9v6.6c-1.3,0.8-2.5,1.3-3.8,1.7C269.2,89.9,267.6,90,265.7,90z"/>
	<path class="st1" d="M298.9,89.5l-1.5-3.9h-0.2c-1.3,1.6-2.6,2.8-4,3.4c-1.4,0.6-3.2,1-5.4,1c-2.7,0-4.9-0.8-6.4-2.3
		c-1.6-1.6-2.3-3.8-2.3-6.7c0-3,1.1-5.2,3.2-6.7c2.1-1.4,5.3-2.2,9.5-2.4l4.9-0.2v-1.2c0-2.9-1.5-4.3-4.4-4.3c-2.3,0-4.9,0.7-8,2.1
		l-2.6-5.2c3.3-1.7,6.9-2.6,10.9-2.6c3.8,0,6.7,0.8,8.8,2.5c2,1.7,3,4.2,3,7.6v18.9H298.9z M296.6,76.4l-3,0.1
		c-2.3,0.1-3.9,0.5-5,1.2c-1.1,0.7-1.7,1.9-1.7,3.4c0,2.2,1.3,3.3,3.8,3.3c1.8,0,3.2-0.5,4.3-1.5c1.1-1,1.6-2.4,1.6-4.1V76.4z"/>
	<path class="st1" d="M328.1,60.6c1,0,1.9,0.1,2.6,0.2l-0.6,7.3c-0.6-0.2-1.4-0.3-2.3-0.3c-2.5,0-4.4,0.6-5.8,1.9
		c-1.4,1.3-2.1,3-2.1,5.3v14.4h-7.7V61.1h5.9l1.1,4.8h0.4c0.9-1.6,2.1-2.9,3.6-3.8C324.7,61.1,326.4,60.6,328.1,60.6z"/>
	<path class="st1" d="M348.7,90c-4.6,0-8.1-1.3-10.7-3.8c-2.6-2.5-3.9-6.1-3.9-10.7c0-4.8,1.2-8.4,3.6-11c2.4-2.6,5.7-3.9,9.9-3.9
		c4,0,7.1,1.1,9.4,3.4s3.4,5.4,3.4,9.5v3.8H342c0.1,2.2,0.7,3.9,2,5.2c1.2,1.2,2.9,1.9,5.1,1.9c1.7,0,3.3-0.2,4.8-0.5
		s3.1-0.9,4.8-1.7v6c-1.4,0.7-2.8,1.2-4.3,1.5C352.8,89.9,351,90,348.7,90z M347.7,66.1c-1.6,0-2.9,0.5-3.9,1.6
		c-0.9,1-1.5,2.5-1.6,4.4h10.9c0-1.9-0.5-3.4-1.5-4.4S349.3,66.1,347.7,66.1z"/>
	<path class="st1" d="M382.5,60.6c1,0,1.9,0.1,2.6,0.2l-0.6,7.3c-0.6-0.2-1.4-0.3-2.3-0.3c-2.5,0-4.4,0.6-5.8,1.9
		c-1.4,1.3-2.1,3-2.1,5.3v14.4h-7.7V61.1h5.9l1.1,4.8h0.4c0.9-1.6,2.1-2.9,3.6-3.8C379.1,61.1,380.7,60.6,382.5,60.6z"/>
	<path class="st1" d="M410,81.1c0,2.9-1,5.1-3,6.7c-2,1.5-5,2.3-9.1,2.3c-2.1,0-3.8-0.1-5.3-0.4c-1.5-0.3-2.8-0.7-4.1-1.2V82
		c1.4,0.7,3.1,1.2,4.9,1.7s3.4,0.7,4.8,0.7c2.8,0,4.2-0.8,4.2-2.4c0-0.6-0.2-1.1-0.6-1.5c-0.4-0.4-1-0.8-1.9-1.3s-2.1-1-3.7-1.7
		c-2.2-0.9-3.8-1.8-4.8-2.5c-1-0.8-1.8-1.7-2.2-2.7c-0.5-1-0.7-2.2-0.7-3.7c0-2.5,1-4.5,2.9-5.9c2-1.4,4.7-2.1,8.3-2.1
		c3.4,0,6.7,0.7,10,2.2l-2.3,5.6c-1.4-0.6-2.8-1.1-4-1.5c-1.2-0.4-2.5-0.6-3.8-0.6c-2.3,0-3.4,0.6-3.4,1.9c0,0.7,0.4,1.3,1.1,1.8
		s2.3,1.3,4.8,2.3c2.2,0.9,3.8,1.7,4.9,2.5c1,0.8,1.8,1.7,2.3,2.7C409.8,78.5,410,79.7,410,81.1z"/>
	<path class="st1" d="M69.7,152.4c-3.3,0-6-1.2-7.8-3.6h-0.4c0.3,2.4,0.4,3.7,0.4,4.1v11.5h-7.7v-40.9h6.3l1.1,3.7h0.4
		c1.8-2.8,4.5-4.2,8-4.2c3.4,0,6,1.3,7.9,3.9c1.9,2.6,2.8,6.2,2.8,10.8c0,3-0.4,5.7-1.3,7.9s-2.2,3.9-3.8,5.1
		C73.8,151.8,71.9,152.4,69.7,152.4z M67.4,129.2c-1.9,0-3.3,0.6-4.2,1.8c-0.9,1.2-1.3,3.1-1.4,5.8v0.8c0,3,0.5,5.2,1.4,6.6
		c0.9,1.3,2.3,2,4.3,2c3.5,0,5.2-2.9,5.2-8.6c0-2.8-0.4-4.9-1.3-6.3C70.5,129.9,69.2,129.2,67.4,129.2z"/>
	<path class="st1" d="M102.8,123c1,0,1.9,0.1,2.6,0.2l-0.6,7.3c-0.6-0.2-1.4-0.3-2.3-0.3c-2.5,0-4.4,0.6-5.8,1.9
		c-1.4,1.3-2.1,3-2.1,5.3v14.4H87v-28.4h5.9l1.1,4.8h0.4c0.9-1.6,2.1-2.9,3.6-3.8C99.4,123.5,101.1,123,102.8,123z"/>
	<path class="st1" d="M136.4,137.7c0,4.6-1.2,8.2-3.7,10.8c-2.4,2.6-5.8,3.9-10.2,3.9c-2.7,0-5.1-0.6-7.2-1.8s-3.7-2.9-4.8-5.1
		s-1.7-4.8-1.7-7.8c0-4.6,1.2-8.2,3.6-10.8c2.4-2.6,5.8-3.9,10.2-3.9c2.7,0,5.1,0.6,7.2,1.8c2.1,1.2,3.7,2.9,4.8,5.1
		C135.8,132.1,136.4,134.7,136.4,137.7z M116.8,137.7c0,2.8,0.5,4.9,1.4,6.4c0.9,1.4,2.4,2.2,4.5,2.2c2.1,0,3.6-0.7,4.5-2.1
		c0.9-1.4,1.4-3.6,1.4-6.4c0-2.8-0.5-4.9-1.4-6.3c-0.9-1.4-2.4-2.1-4.5-2.1c-2.1,0-3.6,0.7-4.5,2.1S116.8,134.8,116.8,137.7z"/>
	<path class="st1" d="M149.5,151.9l-10.8-28.4h8.1l5.5,16.2c0.6,2,1,4,1.1,5.8h0.2c0.1-1.6,0.5-3.6,1.1-5.8l5.5-16.2h8.1l-10.8,28.4
		H149.5z"/>
	<path class="st1" d="M172,116.2c0-2.5,1.4-3.8,4.2-3.8c2.8,0,4.2,1.3,4.2,3.8c0,1.2-0.4,2.1-1.1,2.8c-0.7,0.7-1.8,1-3.2,1
		C173.4,120,172,118.7,172,116.2z M180.1,151.9h-7.7v-28.4h7.7V151.9z"/>
	<path class="st1" d="M197.2,152.4c-3.3,0-6-1.3-7.9-3.9s-2.9-6.2-2.9-10.8c0-4.7,1-8.3,2.9-10.9c1.9-2.6,4.6-3.9,8-3.9
		c3.6,0,6.3,1.4,8.2,4.2h0.3c-0.4-2.1-0.6-4-0.6-5.7v-9.1h7.8v39.5h-5.9l-1.5-3.7h-0.3C203.5,151,200.8,152.4,197.2,152.4z
		 M199.9,146.3c2,0,3.4-0.6,4.4-1.7c0.9-1.2,1.4-3.1,1.5-5.9v-0.8c0-3-0.5-5.2-1.4-6.6s-2.5-2-4.6-2c-1.7,0-3.1,0.7-4,2.2
		c-1,1.5-1.4,3.6-1.4,6.4s0.5,4.9,1.4,6.3S198.1,146.3,199.9,146.3z"/>
	<path class="st1" d="M234,152.4c-4.6,0-8.1-1.3-10.7-3.8c-2.6-2.5-3.9-6.1-3.9-10.7c0-4.8,1.2-8.4,3.6-11c2.4-2.6,5.7-3.9,9.9-3.9
		c4,0,7.1,1.1,9.4,3.4s3.4,5.4,3.4,9.5v3.8h-18.3c0.1,2.2,0.7,3.9,2,5.2c1.2,1.2,2.9,1.9,5.1,1.9c1.7,0,3.3-0.2,4.8-0.5
		s3.1-0.9,4.8-1.7v6c-1.4,0.7-2.8,1.2-4.3,1.5C238.1,152.3,236.2,152.4,234,152.4z M232.9,128.5c-1.6,0-2.9,0.5-3.9,1.6
		c-0.9,1-1.5,2.5-1.6,4.4h10.9c0-1.9-0.5-3.4-1.5-4.4S234.5,128.5,232.9,128.5z"/>
	<path class="st1" d="M285.2,143.5c0,2.9-1,5.1-3,6.7c-2,1.5-5,2.3-9.1,2.3c-2.1,0-3.8-0.1-5.3-0.4c-1.5-0.3-2.8-0.7-4.1-1.2v-6.4
		c1.4,0.7,3.1,1.2,4.9,1.7s3.4,0.7,4.8,0.7c2.8,0,4.2-0.8,4.2-2.4c0-0.6-0.2-1.1-0.6-1.5c-0.4-0.4-1-0.8-1.9-1.3s-2.1-1-3.7-1.7
		c-2.2-0.9-3.8-1.8-4.8-2.5c-1-0.8-1.8-1.7-2.2-2.7c-0.5-1-0.7-2.2-0.7-3.7c0-2.5,1-4.5,2.9-5.9c2-1.4,4.7-2.1,8.3-2.1
		c3.4,0,6.7,0.7,10,2.2l-2.3,5.6c-1.4-0.6-2.8-1.1-4-1.5c-1.2-0.4-2.5-0.6-3.8-0.6c-2.3,0-3.4,0.6-3.4,1.9c0,0.7,0.4,1.3,1.1,1.8
		s2.3,1.3,4.8,2.3c2.2,0.9,3.8,1.7,4.9,2.5c1,0.8,1.8,1.7,2.3,2.7C284.9,140.9,285.2,142.1,285.2,143.5z"/>
	<path class="st1" d="M317,137.7c0,4.6-1.2,8.2-3.7,10.8c-2.4,2.6-5.8,3.9-10.2,3.9c-2.7,0-5.1-0.6-7.2-1.8s-3.7-2.9-4.8-5.1
		s-1.7-4.8-1.7-7.8c0-4.6,1.2-8.2,3.6-10.8c2.4-2.6,5.8-3.9,10.2-3.9c2.7,0,5.1,0.6,7.2,1.8c2.1,1.2,3.7,2.9,4.8,5.1
		C316.4,132.1,317,134.7,317,137.7z M297.4,137.7c0,2.8,0.5,4.9,1.4,6.4c0.9,1.4,2.4,2.2,4.5,2.2c2.1,0,3.6-0.7,4.5-2.1
		c0.9-1.4,1.4-3.6,1.4-6.4c0-2.8-0.5-4.9-1.4-6.3c-0.9-1.4-2.4-2.1-4.5-2.1c-2.1,0-3.6,0.7-4.5,2.1S297.4,134.8,297.4,137.7z"/>
	<path class="st1" d="M334.9,152.4c-8.8,0-13.3-4.8-13.3-14.5c0-4.8,1.2-8.5,3.6-11.1c2.4-2.5,5.8-3.8,10.3-3.8
		c3.3,0,6.2,0.6,8.8,1.9l-2.3,6c-1.2-0.5-2.4-0.9-3.4-1.2c-1-0.3-2.1-0.5-3.1-0.5c-4,0-6,2.9-6,8.6c0,5.6,2,8.3,6,8.3
		c1.5,0,2.9-0.2,4.1-0.6c1.3-0.4,2.5-1,3.8-1.9v6.6c-1.3,0.8-2.5,1.3-3.8,1.7C338.5,152.3,336.9,152.4,334.9,152.4z"/>
	<path class="st1" d="M349.8,116.2c0-2.5,1.4-3.8,4.2-3.8c2.8,0,4.2,1.3,4.2,3.8c0,1.2-0.4,2.1-1.1,2.8c-0.7,0.7-1.8,1-3.2,1
		C351.2,120,349.8,118.7,349.8,116.2z M357.9,151.9h-7.7v-28.4h7.7V151.9z"/>
	<path class="st1" d="M384,151.9l-1.5-3.9h-0.2c-1.3,1.6-2.6,2.8-4,3.4c-1.4,0.6-3.2,1-5.4,1c-2.7,0-4.9-0.8-6.4-2.3
		c-1.6-1.6-2.3-3.8-2.3-6.7c0-3,1.1-5.2,3.2-6.7c2.1-1.4,5.3-2.2,9.5-2.4l4.9-0.2V133c0-2.9-1.5-4.3-4.4-4.3c-2.3,0-4.9,0.7-8,2.1
		l-2.6-5.2c3.3-1.7,6.9-2.6,10.9-2.6c3.8,0,6.7,0.8,8.8,2.5c2,1.7,3,4.2,3,7.6v18.9H384z M381.8,138.8l-3,0.1
		c-2.3,0.1-3.9,0.5-5,1.2c-1.1,0.7-1.7,1.9-1.7,3.4c0,2.2,1.3,3.3,3.8,3.3c1.8,0,3.2-0.5,4.3-1.5c1.1-1,1.6-2.4,1.6-4.1V138.8z"/>
	<path class="st1" d="M405.2,151.9h-7.7v-39.5h7.7V151.9z"/>
	<path class="st1" d="M65.6,214.8c-8.8,0-13.3-4.8-13.3-14.5c0-4.8,1.2-8.5,3.6-11.1c2.4-2.5,5.8-3.8,10.3-3.8
		c3.3,0,6.2,0.6,8.8,1.9l-2.3,6c-1.2-0.5-2.4-0.9-3.4-1.2c-1-0.3-2.1-0.5-3.1-0.5c-4,0-6,2.9-6,8.6c0,5.6,2,8.3,6,8.3
		c1.5,0,2.9-0.2,4.1-0.6c1.3-0.4,2.5-1,3.8-1.9v6.6c-1.3,0.8-2.5,1.3-3.8,1.7C69.1,214.7,67.5,214.8,65.6,214.8z"/>
	<path class="st1" d="M98.8,214.3l-1.5-3.9h-0.2c-1.3,1.6-2.6,2.8-4,3.4c-1.4,0.6-3.2,1-5.4,1c-2.7,0-4.9-0.8-6.4-2.3
		c-1.6-1.6-2.3-3.8-2.3-6.7c0-3,1.1-5.2,3.2-6.7c2.1-1.4,5.3-2.2,9.5-2.4l4.9-0.2v-1.2c0-2.9-1.5-4.3-4.4-4.3c-2.3,0-4.9,0.7-8,2.1
		l-2.6-5.2c3.3-1.7,6.9-2.6,10.9-2.6c3.8,0,6.7,0.8,8.8,2.5c2,1.7,3,4.2,3,7.6v18.9H98.8z M96.5,201.2l-3,0.1
		c-2.3,0.1-3.9,0.5-5,1.2c-1.1,0.7-1.7,1.9-1.7,3.4c0,2.2,1.3,3.3,3.8,3.3c1.8,0,3.2-0.5,4.3-1.5c1.1-1,1.6-2.4,1.6-4.1V201.2z"/>
	<path class="st1" d="M128.1,185.4c1,0,1.9,0.1,2.6,0.2l-0.6,7.3c-0.6-0.2-1.4-0.3-2.3-0.3c-2.5,0-4.4,0.6-5.8,1.9
		c-1.4,1.3-2.1,3-2.1,5.3v14.4h-7.7v-28.4h5.9l1.1,4.8h0.4c0.9-1.6,2.1-2.9,3.6-3.8C124.7,185.9,126.3,185.4,128.1,185.4z"/>
	<path class="st1" d="M148.7,214.8c-4.6,0-8.1-1.3-10.7-3.8c-2.6-2.5-3.9-6.1-3.9-10.7c0-4.8,1.2-8.4,3.6-11
		c2.4-2.6,5.7-3.9,9.9-3.9c4,0,7.1,1.1,9.4,3.4s3.4,5.4,3.4,9.5v3.8h-18.3c0.1,2.2,0.7,3.9,2,5.2c1.2,1.2,2.9,1.9,5.1,1.9
		c1.7,0,3.3-0.2,4.8-0.5s3.1-0.9,4.8-1.7v6c-1.4,0.7-2.8,1.2-4.3,1.5C152.8,214.7,150.9,214.8,148.7,214.8z M147.6,190.9
		c-1.6,0-2.9,0.5-3.9,1.6c-0.9,1-1.5,2.5-1.6,4.4H153c0-1.9-0.5-3.4-1.5-4.4S149.2,190.9,147.6,190.9z"/>
	<path class="st1" d="M203.4,214.3l-2.2-9.9l-2.9-12.5h-0.2l-5.2,22.5h-8.3l-8.1-28.4h7.7l3.3,12.6c0.5,2.3,1.1,5.4,1.6,9.3h0.2
		c0.1-1.3,0.4-3.3,0.9-6.1l0.4-2.2l3.5-13.6h8.5l3.3,13.6c0.1,0.4,0.2,0.9,0.3,1.7c0.1,0.7,0.3,1.5,0.4,2.3c0.1,0.8,0.3,1.6,0.4,2.4
		c0.1,0.8,0.2,1.4,0.2,1.9h0.2c0.2-1.2,0.4-2.9,0.8-5c0.4-2.1,0.7-3.6,0.8-4.3l3.4-12.6h7.6l-8.2,28.4H203.4z"/>
	<path class="st1" d="M250.4,200.1c0,4.6-1.2,8.2-3.7,10.8c-2.4,2.6-5.8,3.9-10.2,3.9c-2.7,0-5.1-0.6-7.2-1.8s-3.7-2.9-4.8-5.1
		s-1.7-4.8-1.7-7.8c0-4.6,1.2-8.2,3.6-10.8c2.4-2.6,5.8-3.9,10.2-3.9c2.7,0,5.1,0.6,7.2,1.8c2.1,1.2,3.7,2.9,4.8,5.1
		C249.8,194.5,250.4,197.1,250.4,200.1z M230.7,200.1c0,2.8,0.5,4.9,1.4,6.4c0.9,1.4,2.4,2.2,4.5,2.2c2.1,0,3.6-0.7,4.5-2.1
		c0.9-1.4,1.4-3.6,1.4-6.4c0-2.8-0.5-4.9-1.4-6.3c-0.9-1.4-2.4-2.1-4.5-2.1c-2.1,0-3.6,0.7-4.5,2.1S230.7,197.2,230.7,200.1z"/>
	<path class="st1" d="M272.6,185.4c1,0,1.9,0.1,2.6,0.2l-0.6,7.3c-0.6-0.2-1.4-0.3-2.3-0.3c-2.5,0-4.4,0.6-5.8,1.9
		c-1.4,1.3-2.1,3-2.1,5.3v14.4h-7.7v-28.4h5.9l1.1,4.8h0.4c0.9-1.6,2.1-2.9,3.6-3.8C269.2,185.9,270.8,185.4,272.6,185.4z"/>
	<path class="st1" d="M292.3,208.7c1.4,0,3-0.3,4.9-0.9v5.8c-1.9,0.9-4.3,1.3-7.1,1.3c-3.1,0-5.4-0.8-6.8-2.3
		c-1.4-1.6-2.1-3.9-2.1-7v-13.7h-3.7v-3.3l4.3-2.6l2.2-6h5v6h7.9v5.8H289v13.7c0,1.1,0.3,1.9,0.9,2.4
		C290.5,208.4,291.3,208.7,292.3,208.7z"/>
	<path class="st1" d="M329.1,214.3h-7.7v-16.6c0-4.1-1.5-6.1-4.6-6.1c-2.2,0-3.7,0.7-4.7,2.2s-1.4,3.9-1.4,7.2v13.4h-7.7v-39.5h7.7
		v8c0,0.6-0.1,2.1-0.2,4.4l-0.2,2.3h0.4c1.7-2.8,4.5-4.2,8.2-4.2c3.3,0,5.9,0.9,7.6,2.7c1.7,1.8,2.6,4.4,2.6,7.7V214.3z"/>
	<path class="st1" d="M80.1,241.6c5.6,0,11.2,1.2,16.8,3.5l-4,9.9c-4.5-1.8-8.4-2.8-11.7-2.8c-2.2,0-4,0.6-5.2,1.9
		c-1.2,1.3-1.8,3.1-1.8,5.5v8.3h16.1v9.4H74.2v6.1c0,4.9-2.2,8.4-6.5,10.7h30.9v11.2h-45v-10.7c3-1.3,5-2.7,6.1-4.3
		c1.1-1.6,1.7-3.9,1.7-6.7v-6.2h-7.6v-9.4h7.6v-8.4c0-5.8,1.6-10.2,4.9-13.3C69.5,243.2,74.1,241.6,80.1,241.6z"/>
	<path class="st1" d="M126.6,265.2c6.1,0,10.9,1.7,14.5,5.1c3.6,3.4,5.4,8.1,5.4,14c0,7-2.2,12.4-6.5,16.2
		c-4.3,3.8-10.5,5.7-18.6,5.7c-7,0-12.6-1.1-16.9-3.4v-11.5c2.3,1.2,4.9,2.2,7.9,2.9c3,0.8,5.9,1.1,8.6,1.1c8.1,0,12.2-3.3,12.2-10
		c0-6.3-4.2-9.5-12.6-9.5c-1.5,0-3.2,0.2-5,0.5c-1.8,0.3-3.3,0.6-4.5,1l-5.3-2.8l2.4-32h34.1v11.3h-22.4l-1.2,12.3l1.5-0.3
		C121.9,265.4,124,265.2,126.6,265.2z"/>
	<path class="st1" d="M160.2,305.3l23.6-51.6h-31v-11.2h45.1v8.3l-23.8,54.4H160.2z"/>
	<path class="st1" d="M257.2,256.4c5.7,0,10.1,2.2,13.3,6.6c3.2,4.4,4.8,10.5,4.8,18.2c0,7.9-1.7,14.1-5,18.4
		c-3.3,4.4-7.8,6.5-13.5,6.5c-5.6,0-10.1-2-13.3-6.1h-0.9l-2.2,5.3h-10v-66.9h13.1V254c0,2-0.2,5.1-0.5,9.5h0.5
		C246.6,258.8,251.1,256.4,257.2,256.4z M252.9,266.9c-3.2,0-5.6,1-7.1,3c-1.5,2-2.3,5.3-2.3,9.9v1.4c0,5.2,0.8,8.9,2.3,11.1
		c1.5,2.2,4,3.4,7.3,3.4c2.7,0,4.8-1.2,6.4-3.7c1.6-2.5,2.4-6.1,2.4-10.8s-0.8-8.3-2.4-10.6C257.9,268,255.7,266.9,252.9,266.9z"/>
	<path class="st1" d="M285.6,244.9c0-4.3,2.4-6.4,7.1-6.4c4.8,0,7.1,2.1,7.1,6.4c0,2-0.6,3.6-1.8,4.7c-1.2,1.1-3,1.7-5.3,1.7
		C287.9,251.3,285.6,249.2,285.6,244.9z M299.2,305.3h-13.1v-48h13.1V305.3z"/>
	<path class="st1" d="M326.1,305.3H313v-66.9h13.1V305.3z"/>
	<path class="st1" d="M352.9,305.3h-13.1v-66.9h13.1V305.3z"/>
	<path class="st1" d="M366.1,244.9c0-4.3,2.4-6.4,7.1-6.4c4.8,0,7.1,2.1,7.1,6.4c0,2-0.6,3.6-1.8,4.7c-1.2,1.1-3,1.7-5.3,1.7
		C368.5,251.3,366.1,249.2,366.1,244.9z M379.8,305.3h-13.1v-48h13.1V305.3z"/>
	<path class="st1" d="M437.2,281.2c0,7.8-2.1,13.9-6.2,18.3c-4.1,4.4-9.9,6.6-17.2,6.6c-4.6,0-8.7-1-12.2-3s-6.2-4.9-8.1-8.7
		s-2.8-8.2-2.8-13.2c0-7.8,2-14,6.1-18.3c4.1-4.4,9.9-6.5,17.3-6.5c4.6,0,8.7,1,12.2,3c3.5,2,6.2,4.9,8.1,8.6
		C436.2,271.8,437.2,276.2,437.2,281.2z M404,281.2c0,4.8,0.8,8.4,2.3,10.8c1.6,2.4,4.1,3.7,7.6,3.7c3.5,0,6-1.2,7.5-3.6
		c1.5-2.4,2.3-6,2.3-10.8c0-4.8-0.8-8.3-2.3-10.7c-1.5-2.4-4.1-3.6-7.6-3.6c-3.5,0-6,1.2-7.6,3.5S404,276.4,404,281.2z"/>
	<path class="st1" d="M492.4,305.3h-13.1v-28.1c0-3.5-0.6-6.1-1.8-7.8c-1.2-1.7-3.2-2.6-5.9-2.6c-3.7,0-6.3,1.2-7.9,3.7
		s-2.4,6.5-2.4,12.2v22.6H448v-48h10l1.8,6.1h0.7c1.5-2.3,3.5-4.1,6-5.3c2.6-1.2,5.5-1.8,8.7-1.8c5.6,0,9.8,1.5,12.7,4.5
		c2.9,3,4.3,7.4,4.3,13.1V305.3z"/>
	<path class="st1" d="M53.7,332c0-2.5,1.4-3.8,4.2-3.8c2.8,0,4.2,1.3,4.2,3.8c0,1.2-0.4,2.1-1.1,2.8c-0.7,0.7-1.8,1-3.2,1
		C55.1,335.8,53.7,334.5,53.7,332z M61.8,367.7h-7.7v-28.4h7.7V367.7z"/>
	<path class="st1" d="M96.1,367.7h-7.7v-16.6c0-2-0.4-3.6-1.1-4.6c-0.7-1-1.9-1.5-3.5-1.5c-2.2,0-3.7,0.7-4.7,2.2s-1.4,3.8-1.4,7.2
		v13.4h-7.7v-28.4h5.9l1,3.6h0.4c0.9-1.4,2.1-2.4,3.6-3.1c1.5-0.7,3.2-1.1,5.2-1.1c3.3,0,5.8,0.9,7.5,2.7c1.7,1.8,2.6,4.4,2.6,7.7
		V367.7z"/>
	<path class="st1" d="M129.6,362.1c1.4,0,3-0.3,4.9-0.9v5.8c-1.9,0.9-4.3,1.3-7.1,1.3c-3.1,0-5.4-0.8-6.8-2.3
		c-1.4-1.6-2.1-3.9-2.1-7v-13.7h-3.7v-3.3l4.3-2.6l2.2-6h5v6h7.9v5.8h-7.9v13.7c0,1.1,0.3,1.9,0.9,2.4
		C127.7,361.8,128.6,362.1,129.6,362.1z"/>
	<path class="st1" d="M166.4,367.7h-7.7v-16.6c0-4.1-1.5-6.1-4.6-6.1c-2.2,0-3.7,0.7-4.7,2.2s-1.4,3.9-1.4,7.2v13.4h-7.7v-39.5h7.7
		v8c0,0.6-0.1,2.1-0.2,4.4l-0.2,2.3h0.4c1.7-2.8,4.5-4.2,8.2-4.2c3.3,0,5.9,0.9,7.6,2.7s2.6,4.4,2.6,7.7V367.7z"/>
	<path class="st1" d="M187.2,368.2c-4.6,0-8.1-1.3-10.7-3.8c-2.6-2.5-3.9-6.1-3.9-10.7c0-4.8,1.2-8.4,3.6-11
		c2.4-2.6,5.7-3.9,9.9-3.9c4,0,7.1,1.1,9.4,3.4s3.4,5.4,3.4,9.5v3.8h-18.3c0.1,2.2,0.7,3.9,2,5.2s2.9,1.9,5.1,1.9
		c1.7,0,3.3-0.2,4.8-0.5s3.1-0.9,4.8-1.7v6c-1.4,0.7-2.8,1.2-4.3,1.5C191.3,368.1,189.4,368.2,187.2,368.2z M186.1,344.3
		c-1.6,0-2.9,0.5-3.9,1.6c-0.9,1-1.5,2.5-1.6,4.4h10.9c0-1.9-0.5-3.4-1.5-4.4S187.8,344.3,186.1,344.3z"/>
	<path class="st1" d="M249.4,330.6v24c0,2.7-0.6,5.1-1.8,7.2c-1.2,2.1-3,3.6-5.3,4.7c-2.3,1.1-5.1,1.7-8.2,1.7
		c-4.8,0-8.5-1.2-11.1-3.7s-4-5.8-4-10v-23.9h7.8v22.7c0,2.9,0.6,5,1.7,6.3c1.2,1.3,3.1,2,5.7,2c2.6,0,4.4-0.7,5.6-2
		c1.2-1.3,1.7-3.5,1.7-6.3v-22.7H249.4z"/>
	<path class="st1" d="M288.4,367.7h-8.9l-9.7-15.6l-3.3,2.4v13.3h-7.9v-37.1h7.9v17l3.1-4.4l10.1-12.6h8.7L275.3,347L288.4,367.7z"
		/>
</g>
<g>
	<g>
		<path class="st1" d="M714.3,545.3c-4.4,0-6.4-3.7-6.4-8.2c0-4.5,2-8.2,6.4-8.2c4.4,0,6.4,3.7,6.4,8.2
			C720.7,541.6,718.7,545.3,714.3,545.3z M714.3,530.2c-3.3,0-4.4,3.6-4.4,6.8c0,3.2,1.1,6.8,4.4,6.8c3.4,0,4.4-3.6,4.4-6.8
			C718.7,533.8,717.6,530.2,714.3,530.2z"/>
		<path class="st1" d="M726.2,533.8V545h-1.8v-11.2h-1.8v-1.1h1.8v-1.8c0-2.2,1.3-3.9,3.9-3.9c0.2,0,0.4,0,0.4,0v1.1h-0.2
			c-1.2,0-2.4,0.8-2.4,2.5v2h2.6v1.1H726.2z"/>
		<path class="st1" d="M733.6,533.8V545h-1.8v-11.2H730v-1.1h1.8v-1.8c0-2.2,1.3-3.9,3.9-3.9c0.2,0,0.4,0,0.4,0v1.1H736
			c-1.2,0-2.4,0.8-2.4,2.5v2h2.6v1.1H733.6z"/>
		<path class="st1" d="M739.1,530.3c-0.6,0-1.1-0.5-1.1-1.1s0.5-1.1,1.1-1.1c0.6,0,1.1,0.5,1.1,1.1S739.7,530.3,739.1,530.3z
			 M738.2,545v-12.3h1.8V545H738.2z"/>
		<path class="st1" d="M747.7,545.3c-2.9,0-5.2-2.5-5.2-6.5c0-4,2.3-6.5,5.2-6.5c1.5,0,2.5,0.4,3,0.8l-0.5,1.1
			c-0.4-0.3-1.2-0.7-2.1-0.7c-2.5,0-3.8,2.2-3.8,5.1c0,3,1.5,5.2,3.7,5.2c0.9,0,1.7-0.3,2.2-0.7l0.5,1.2
			C750.3,544.9,749.2,545.3,747.7,545.3z"/>
		<path class="st1" d="M753.7,539.6c0.2,2.9,1.8,4.4,4.3,4.4c1.5,0,2.7-0.4,3.3-0.8l0.5,1.3c-0.8,0.4-2.2,0.8-4,0.8
			c-3.5,0-5.9-2.1-5.9-6.5c0-4.2,2.3-6.4,5.4-6.4c3.1,0,5.1,1.9,5.1,6L753.7,539.6z M757.3,533.5c-2,0-3.7,1.6-3.7,5l7-1
			C760.7,534.7,759.3,533.5,757.3,533.5z"/>
		<path class="st1" d="M771.2,533.8V545h-1.8v-11.2h-1.8v-1.1h1.8v-1.8c0-2.2,1.3-3.9,3.9-3.9c0.2,0,0.4,0,0.4,0v1.1h-0.2
			c-1.2,0-2.4,0.8-2.4,2.5v2h2.6v1.1H771.2z"/>
		<path class="st1" d="M780.3,545.3c-3.6,0-5.3-2.8-5.3-6.5c0-3.6,1.7-6.5,5.3-6.5c3.6,0,5.3,2.8,5.3,6.5
			C785.6,542.5,783.9,545.3,780.3,545.3z M780.3,533.6c-2.7,0-3.5,2.7-3.5,5.3c0,2.5,0.8,5.2,3.5,5.2c2.7,0,3.5-2.6,3.5-5.2
			C783.8,536.3,783,533.6,780.3,533.6z"/>
		<path class="st1" d="M793.3,533.8c-1.1-0.3-2.8-0.3-3.6,0.2v11h-1.8v-11.8c1.3-0.5,2.6-0.8,4.9-0.8c0.3,0,0.7,0,0.9,0L793.3,533.8
			z"/>
		<path class="st1" d="M809.6,545.1l-7-10.8c-0.5-0.8-0.9-1.6-0.9-1.6h0c0,0,0.1,0.9,0.1,1.9v10.5h-2.3v-15.8h2.6l6.6,10.1
			c0.6,0.9,0.9,1.6,0.9,1.6h0c0,0-0.1-0.9-0.1-1.8v-9.9h2.3v15.8H809.6z"/>
		<path class="st1" d="M819.4,545.4c-3.6,0-5.3-1.4-5.3-3.8c0-3.3,3.5-4.2,7.6-4.6v-0.7c0-1.7-1.2-2.2-2.8-2.2
			c-1.2,0-2.6,0.3-3.3,0.7l-0.6-1.5c0.9-0.4,2.5-0.9,4.4-0.9c2.7,0,4.8,1.1,4.8,4.3v7.8C823.1,545.1,821.4,545.4,819.4,545.4z
			 M821.7,538.3c-3.1,0.3-5.1,0.9-5.1,3.3c0,1.7,1.2,2.4,3,2.4c0.9,0,1.6-0.2,2.1-0.4V538.3z"/>
		<path class="st1" d="M831.3,545.4c-2.6,0-3.6-1.7-3.6-3.3v-7.7H826v-1.6h1.7V530l2.6-0.7v3.5h2.4v1.6h-2.4v7.5
			c0,1,0.6,1.7,1.7,1.7c0.3,0,0.5,0,0.7-0.1v1.6C832.5,545.3,832,545.4,831.3,545.4z"/>
		<path class="st1" d="M836.2,530.6c-0.8,0-1.5-0.6-1.5-1.4c0-0.8,0.7-1.4,1.5-1.4c0.8,0,1.5,0.6,1.5,1.4
			C837.7,530,837,530.6,836.2,530.6z M834.8,545.1v-12.3h2.7v12.3H834.8z"/>
		<path class="st1" d="M845.4,545.4c-3.8,0-5.6-2.8-5.6-6.5c0-3.7,1.9-6.5,5.6-6.5c3.8,0,5.6,2.8,5.6,6.5
			C851,542.6,849.2,545.4,845.4,545.4z M845.4,534.1c-2.3,0-2.9,2.4-2.9,4.8c0,2.4,0.7,4.7,2.9,4.7c2.3,0,2.9-2.3,2.9-4.7
			C848.4,536.5,847.7,534.1,845.4,534.1z"/>
		<path class="st1" d="M860.8,545.1v-8.8c0-1.6-1.3-2.2-2.9-2.2c-0.8,0-1.6,0.2-2.1,0.4v10.6h-2.6v-11.8c1.2-0.5,3-0.9,4.9-0.9
			c3.2,0,5.4,1.1,5.4,3.8v8.9H860.8z"/>
		<path class="st1" d="M870.9,545.4c-3.6,0-5.3-1.4-5.3-3.8c0-3.3,3.5-4.2,7.6-4.6v-0.7c0-1.7-1.2-2.2-2.8-2.2
			c-1.2,0-2.6,0.3-3.3,0.7l-0.6-1.5c0.9-0.4,2.5-0.9,4.4-0.9c2.7,0,4.8,1.1,4.8,4.3v7.8C874.6,545.1,872.9,545.4,870.9,545.4z
			 M873.2,538.3c-3.1,0.3-5.1,0.9-5.1,3.3c0,1.7,1.2,2.4,3,2.4c0.9,0,1.6-0.2,2.1-0.4V538.3z"/>
		<path class="st1" d="M878.4,545.1v-6v-12h2.6v6.1v11.9H878.4z"/>
		<path class="st1" d="M891.5,545.4c-1.9,0-3.4-0.4-4.3-0.9l0.7-1.9c0.6,0.4,1.8,0.8,3,0.8c1.8,0,3.1-1.1,3.1-2.6
			c0-3.5-6.6-2.1-6.6-7c0-2.5,2-4.7,5.2-4.7c1.7,0,3.1,0.5,3.8,0.9l-0.7,1.7c-0.6-0.3-1.7-0.7-2.8-0.7c-1.7,0-2.8,1-2.8,2.5
			c0,3.4,6.7,1.9,6.7,7.1C897,543.4,894.7,545.4,891.5,545.4z"/>
		<path class="st1" d="M903.7,545.4c-2.6,0-3.6-1.7-3.6-3.3v-7.7h-1.7v-1.6h1.7V530l2.6-0.7v3.5h2.4v1.6h-2.4v7.5
			c0,1,0.6,1.7,1.7,1.7c0.3,0,0.5,0,0.7-0.1v1.6C904.9,545.3,904.4,545.4,903.7,545.4z"/>
		<path class="st1" d="M911.9,545.4c-3.6,0-5.3-1.4-5.3-3.8c0-3.3,3.5-4.2,7.6-4.6v-0.7c0-1.7-1.2-2.2-2.8-2.2
			c-1.2,0-2.6,0.3-3.3,0.7l-0.6-1.5c0.9-0.4,2.5-0.9,4.4-0.9c2.7,0,4.8,1.1,4.8,4.3v7.8C915.6,545.1,913.9,545.4,911.9,545.4z
			 M914.2,538.3c-3.1,0.3-5.1,0.9-5.1,3.3c0,1.7,1.2,2.4,3,2.4c0.9,0,1.6-0.2,2.1-0.4V538.3z"/>
		<path class="st1" d="M923.8,545.4c-2.6,0-3.6-1.7-3.6-3.3v-7.7h-1.7v-1.6h1.7V530l2.6-0.7v3.5h2.4v1.6h-2.4v7.5
			c0,1,0.6,1.7,1.7,1.7c0.3,0,0.5,0,0.7-0.1v1.6C925,545.3,924.5,545.4,923.8,545.4z"/>
		<path class="st1" d="M928.7,530.6c-0.8,0-1.5-0.6-1.5-1.4c0-0.8,0.7-1.4,1.5-1.4c0.8,0,1.5,0.6,1.5,1.4
			C930.2,530,929.5,530.6,928.7,530.6z M927.3,545.1v-12.3h2.7v12.3H927.3z"/>
		<path class="st1" d="M935.7,545.4c-1.5,0-3-0.4-3.7-0.9l0.7-1.7c0.5,0.4,1.6,0.7,2.7,0.7c1.3,0,2.4-0.9,2.4-1.9
			c0-2.9-5.4-1.6-5.4-5.6c0-1.8,1.6-3.6,4.3-3.6c1.5,0,2.6,0.4,3.5,0.9l-0.7,1.5c-0.4-0.3-1.2-0.7-2.3-0.7c-1.4,0-2.2,0.8-2.2,1.8
			c0,2.8,5.5,1.5,5.5,5.7C940.6,543.6,938.7,545.4,935.7,545.4z"/>
		<path class="st1" d="M947.3,545.4c-2.6,0-3.6-1.7-3.6-3.3v-7.7H942v-1.6h1.7V530l2.6-0.7v3.5h2.4v1.6h-2.4v7.5
			c0,1,0.6,1.7,1.7,1.7c0.3,0,0.5,0,0.7-0.1v1.6C948.5,545.3,947.9,545.4,947.3,545.4z"/>
		<path class="st1" d="M952.1,530.6c-0.8,0-1.5-0.6-1.5-1.4c0-0.8,0.7-1.4,1.5-1.4c0.8,0,1.5,0.6,1.5,1.4
			C953.7,530,953,530.6,952.1,530.6z M950.8,545.1v-12.3h2.7v12.3H950.8z"/>
		<path class="st1" d="M961.1,545.4c-3,0-5.4-2.5-5.4-6.5c0-4.1,2.4-6.5,5.4-6.5c1.5,0,2.6,0.4,3.2,0.9l-0.6,1.5
			c-0.4-0.3-1.1-0.6-1.9-0.6c-2.1,0-3.3,1.9-3.3,4.6c0,2.8,1.3,4.7,3.2,4.7c0.8,0,1.5-0.3,1.9-0.6l0.7,1.6
			C963.7,545,962.6,545.4,961.1,545.4z"/>
		<path class="st1" d="M969.2,545.4c-1.5,0-3-0.4-3.7-0.9l0.7-1.7c0.5,0.4,1.6,0.7,2.7,0.7c1.3,0,2.4-0.9,2.4-1.9
			c0-2.9-5.4-1.6-5.4-5.6c0-1.8,1.6-3.6,4.3-3.6c1.5,0,2.6,0.4,3.5,0.9l-0.7,1.5c-0.4-0.3-1.2-0.7-2.3-0.7c-1.4,0-2.2,0.8-2.2,1.8
			c0,2.8,5.5,1.5,5.5,5.7C974,543.6,972.1,545.4,969.2,545.4z"/>
	</g>
	<g>
		<path class="st1" d="M674,538.3c0.4-0.8,0.7-1.5,1.1-2.2c-0.5-1.2-0.8-1.9-1.1-3.2C674,535.1,674,536.5,674,538.3z M676.5,523
			c0,0-2.4,0-2.4,3c0,0.2,0-0.3,0,0.5c0.2,2.8,1.1,5.6,2.1,8.1c1.4-2.2,2.6-3.5,4.6-5.2c4-3.4,8.6-5.4,15.9-6.4H676.5z"/>
		<path class="st1" d="M700.1,524.7c-8.3,0.8-14,3.2-18,6.6c-2.2,1.9-3.5,3.4-4.9,5.9c3.2,6.2,9.7,11.4,19.8,12l0.2,0
			c0,0,3.1,0.1,3.1-3.4v-21.2C700.2,524.6,700.2,524.7,700.1,524.7z M678.8,542.3c-1-1.1-1.8-2.3-2.5-3.6c-0.9,1.7-1.6,3.5-2.3,5.4
			c0,3,0,5.1,0,5.1l15.3,0C684.4,547.7,681.5,545.5,678.8,542.3z"/>
	</g>
</g>
<g>
	<path class="st1" d="M59,539.3c0,1.1-0.4,2-1.2,2.6s-1.9,0.9-3.3,0.9c-1.5,0-2.7-0.2-3.5-0.6v-1.4c0.5,0.2,1.1,0.4,1.7,0.5
		s1.2,0.2,1.8,0.2c1,0,1.7-0.2,2.2-0.6c0.5-0.4,0.8-0.9,0.8-1.6c0-0.4-0.1-0.8-0.3-1.1c-0.2-0.3-0.5-0.5-0.9-0.8s-1.1-0.5-1.9-0.8
		c-1.2-0.4-2-0.9-2.6-1.5s-0.8-1.4-0.8-2.3c0-1,0.4-1.8,1.1-2.4s1.7-0.9,3-0.9c1.3,0,2.5,0.2,3.5,0.7l-0.5,1.3
		c-1.1-0.4-2.1-0.7-3.1-0.7c-0.8,0-1.4,0.2-1.9,0.5s-0.7,0.8-0.7,1.4c0,0.4,0.1,0.8,0.2,1.1c0.2,0.3,0.4,0.5,0.8,0.8
		c0.4,0.2,1,0.5,1.8,0.8c1.3,0.5,2.3,1,2.8,1.5S59,538.4,59,539.3z"/>
	<path class="st1" d="M69.7,537.9c0,1.6-0.4,2.8-1.2,3.7c-0.8,0.9-1.9,1.3-3.3,1.3c-0.9,0-1.6-0.2-2.3-0.6s-1.2-1-1.5-1.7
		s-0.5-1.6-0.5-2.7c0-1.6,0.4-2.8,1.2-3.7c0.8-0.9,1.9-1.3,3.3-1.3c1.3,0,2.4,0.4,3.2,1.3S69.7,536.3,69.7,537.9z M62.4,537.9
		c0,1.2,0.2,2.2,0.7,2.8s1.2,1,2.2,1s1.7-0.3,2.2-1c0.5-0.6,0.7-1.6,0.7-2.8c0-1.2-0.2-2.2-0.7-2.8c-0.5-0.6-1.2-1-2.2-1
		c-1,0-1.7,0.3-2.2,0.9S62.4,536.6,62.4,537.9z"/>
	<path class="st1" d="M73.7,533v6.2c0,0.8,0.2,1.4,0.5,1.8s0.9,0.6,1.7,0.6c1,0,1.7-0.3,2.2-0.8s0.7-1.5,0.7-2.7V533h1.5v9.6H79
		l-0.2-1.3h-0.1c-0.3,0.5-0.7,0.8-1.2,1.1s-1.1,0.4-1.8,0.4c-1.2,0-2-0.3-2.6-0.8s-0.9-1.4-0.9-2.7V533H73.7z"/>
	<path class="st1" d="M87.7,532.9c0.4,0,0.8,0,1.2,0.1l-0.2,1.4c-0.4-0.1-0.8-0.1-1.1-0.1c-0.8,0-1.4,0.3-2,0.9s-0.8,1.4-0.8,2.4
		v5.2h-1.5V533h1.2l0.2,1.8h0.1c0.4-0.6,0.8-1.1,1.3-1.5S87.1,532.9,87.7,532.9z"/>
	<path class="st1" d="M94.5,542.9c-1.4,0-2.5-0.4-3.2-1.3c-0.8-0.9-1.1-2.1-1.1-3.6c0-1.6,0.4-2.9,1.2-3.7s1.9-1.3,3.3-1.3
		c0.5,0,0.9,0,1.4,0.1s0.8,0.2,1.1,0.4l-0.4,1.2c-0.3-0.1-0.7-0.2-1.1-0.3c-0.4-0.1-0.7-0.1-1-0.1c-2,0-2.9,1.2-2.9,3.7
		c0,1.2,0.2,2.1,0.7,2.7s1.2,0.9,2.1,0.9c0.8,0,1.6-0.2,2.5-0.5v1.3C96.3,542.7,95.5,542.9,94.5,542.9z"/>
	<path class="st1" d="M103.3,542.9c-1.4,0-2.5-0.4-3.4-1.3s-1.2-2.1-1.2-3.6c0-1.6,0.4-2.8,1.1-3.7s1.8-1.4,3.1-1.4
		c1.2,0,2.2,0.4,2.9,1.2c0.7,0.8,1.1,1.8,1.1,3.1v0.9h-6.6c0,1.1,0.3,2,0.9,2.6s1.3,0.9,2.3,0.9c1,0,2.1-0.2,3.1-0.7v1.3
		c-0.5,0.2-1,0.4-1.5,0.5C104.5,542.8,104,542.9,103.3,542.9z M102.9,534.1c-0.8,0-1.4,0.3-1.9,0.8s-0.7,1.2-0.8,2.1h5
		c0-0.9-0.2-1.6-0.6-2.1C104.3,534.3,103.7,534.1,102.9,534.1z"/>
	<path class="st1" d="M109.2,534c0-0.8,0.3-1.2,1-1.2c0.7,0,1.1,0.4,1.1,1.2c0,0.4-0.1,0.7-0.3,0.9s-0.5,0.3-0.8,0.3
		c-0.3,0-0.5-0.1-0.7-0.3C109.2,534.7,109.2,534.4,109.2,534z M109.2,541.7c0-0.4,0.1-0.7,0.3-0.9c0.2-0.2,0.4-0.3,0.8-0.3
		c0.3,0,0.6,0.1,0.8,0.3c0.2,0.2,0.3,0.5,0.3,0.9c0,0.4-0.1,0.7-0.3,0.9s-0.5,0.3-0.8,0.3c-0.3,0-0.5-0.1-0.7-0.3
		C109.2,542.5,109.2,542.2,109.2,541.7z"/>
	<path class="st1" d="M128.8,542.7h-1.5v-6h-6.8v6H119v-12.8h1.5v5.5h6.8v-5.5h1.5V542.7z"/>
	<path class="st1" d="M140.4,537.9c0,1.6-0.4,2.8-1.2,3.7c-0.8,0.9-1.9,1.3-3.3,1.3c-0.9,0-1.6-0.2-2.3-0.6s-1.2-1-1.5-1.7
		s-0.5-1.6-0.5-2.7c0-1.6,0.4-2.8,1.2-3.7c0.8-0.9,1.9-1.3,3.3-1.3c1.3,0,2.4,0.4,3.2,1.3S140.4,536.3,140.4,537.9z M133.1,537.9
		c0,1.2,0.2,2.2,0.7,2.8s1.2,1,2.2,1s1.7-0.3,2.2-1c0.5-0.6,0.7-1.6,0.7-2.8c0-1.2-0.2-2.2-0.7-2.8c-0.5-0.6-1.2-1-2.2-1
		c-1,0-1.7,0.3-2.2,0.9S133.1,536.6,133.1,537.9z"/>
	<path class="st1" d="M144.4,533v6.2c0,0.8,0.2,1.4,0.5,1.8s0.9,0.6,1.7,0.6c1,0,1.7-0.3,2.2-0.8s0.7-1.5,0.7-2.7V533h1.5v9.6h-1.2
		l-0.2-1.3h-0.1c-0.3,0.5-0.7,0.8-1.2,1.1s-1.1,0.4-1.8,0.4c-1.2,0-2-0.3-2.6-0.8s-0.9-1.4-0.9-2.7V533H144.4z"/>
	<path class="st1" d="M160.2,540.1c0,0.9-0.3,1.6-1,2.1s-1.6,0.7-2.8,0.7c-1.3,0-2.3-0.2-3-0.6v-1.4c0.5,0.2,1,0.4,1.5,0.6
		s1,0.2,1.5,0.2c0.8,0,1.3-0.1,1.8-0.4c0.4-0.2,0.6-0.6,0.6-1.1c0-0.4-0.2-0.7-0.5-1c-0.3-0.3-1-0.6-1.9-0.9
		c-0.9-0.3-1.5-0.6-1.9-0.9c-0.4-0.2-0.7-0.5-0.8-0.8s-0.3-0.7-0.3-1.1c0-0.8,0.3-1.4,1-1.9c0.6-0.5,1.5-0.7,2.6-0.7
		c1,0,2.1,0.2,3,0.6l-0.5,1.2c-1-0.4-1.8-0.6-2.6-0.6c-0.7,0-1.2,0.1-1.6,0.3s-0.5,0.5-0.5,0.9c0,0.3,0.1,0.5,0.2,0.7
		s0.3,0.4,0.6,0.5s0.9,0.4,1.7,0.7c1.1,0.4,1.9,0.8,2.3,1.3S160.2,539.4,160.2,540.1z"/>
	<path class="st1" d="M166.7,542.9c-1.4,0-2.5-0.4-3.4-1.3s-1.2-2.1-1.2-3.6c0-1.6,0.4-2.8,1.1-3.7s1.8-1.4,3.1-1.4
		c1.2,0,2.2,0.4,2.9,1.2c0.7,0.8,1.1,1.8,1.1,3.1v0.9h-6.6c0,1.1,0.3,2,0.9,2.6s1.3,0.9,2.3,0.9c1,0,2.1-0.2,3.1-0.7v1.3
		c-0.5,0.2-1,0.4-1.5,0.5C167.9,542.8,167.3,542.9,166.7,542.9z M166.3,534.1c-0.8,0-1.4,0.3-1.9,0.8s-0.7,1.2-0.8,2.1h5
		c0-0.9-0.2-1.6-0.6-2.1C167.6,534.3,167,534.1,166.3,534.1z"/>
	<path class="st1" d="M179.3,542.7v-6.2c0-0.8-0.2-1.4-0.5-1.8s-0.9-0.6-1.7-0.6c-1,0-1.8,0.3-2.2,0.8s-0.7,1.5-0.7,2.7v5h-1.5V529
		h1.5v4.1c0,0.5,0,0.9-0.1,1.2h0.1c0.3-0.5,0.7-0.8,1.2-1.1c0.5-0.3,1.1-0.4,1.8-0.4c1.2,0,2.1,0.3,2.6,0.8c0.6,0.6,0.9,1.4,0.9,2.7
		v6.3H179.3z"/>
	<path class="st1" d="M192.1,537.9c0,1.6-0.4,2.8-1.2,3.7c-0.8,0.9-1.9,1.3-3.3,1.3c-0.9,0-1.6-0.2-2.3-0.6s-1.2-1-1.5-1.7
		s-0.5-1.6-0.5-2.7c0-1.6,0.4-2.8,1.2-3.7c0.8-0.9,1.9-1.3,3.3-1.3c1.3,0,2.4,0.4,3.2,1.3S192.1,536.3,192.1,537.9z M184.7,537.9
		c0,1.2,0.2,2.2,0.7,2.8s1.2,1,2.2,1s1.7-0.3,2.2-1c0.5-0.6,0.7-1.6,0.7-2.8c0-1.2-0.2-2.2-0.7-2.8c-0.5-0.6-1.2-1-2.2-1
		c-1,0-1.7,0.3-2.2,0.9S184.7,536.6,184.7,537.9z"/>
	<path class="st1" d="M196.1,542.7h-1.5V529h1.5V542.7z"/>
	<path class="st1" d="M205.7,541.4L205.7,541.4c-0.8,1-1.8,1.5-3.1,1.5c-1.3,0-2.2-0.4-2.9-1.3s-1.1-2.1-1.1-3.7s0.4-2.8,1.1-3.7
		s1.7-1.3,2.9-1.3c1.3,0,2.3,0.5,3,1.4h0.1l-0.1-0.7l0-0.7V529h1.5v13.7h-1.2L205.7,541.4z M202.8,541.6c1,0,1.7-0.3,2.2-0.8
		c0.4-0.5,0.7-1.4,0.7-2.6v-0.3c0-1.4-0.2-2.3-0.7-2.9c-0.5-0.6-1.2-0.9-2.2-0.9c-0.9,0-1.5,0.3-2,1c-0.5,0.7-0.7,1.6-0.7,2.8
		c0,1.2,0.2,2.2,0.7,2.8S202,541.6,202.8,541.6z"/>
	<path class="st1" d="M221.1,540.1c0,0.9-0.3,1.6-1,2.1s-1.6,0.7-2.8,0.7c-1.3,0-2.3-0.2-3-0.6v-1.4c0.5,0.2,1,0.4,1.5,0.6
		s1,0.2,1.5,0.2c0.8,0,1.3-0.1,1.8-0.4c0.4-0.2,0.6-0.6,0.6-1.1c0-0.4-0.2-0.7-0.5-1c-0.3-0.3-1-0.6-1.9-0.9
		c-0.9-0.3-1.5-0.6-1.9-0.9c-0.4-0.2-0.7-0.5-0.8-0.8s-0.3-0.7-0.3-1.1c0-0.8,0.3-1.4,1-1.9c0.6-0.5,1.5-0.7,2.6-0.7
		c1,0,2.1,0.2,3,0.6l-0.5,1.2c-1-0.4-1.8-0.6-2.6-0.6c-0.7,0-1.2,0.1-1.6,0.3s-0.5,0.5-0.5,0.9c0,0.3,0.1,0.5,0.2,0.7
		s0.3,0.4,0.6,0.5s0.9,0.4,1.7,0.7c1.1,0.4,1.9,0.8,2.3,1.3S221.1,539.4,221.1,540.1z"/>
	<path class="st1" d="M229.4,542.7l-0.3-1.4H229c-0.5,0.6-1,1-1.4,1.2c-0.5,0.2-1.1,0.3-1.8,0.3c-1,0-1.7-0.2-2.2-0.7
		s-0.8-1.2-0.8-2.1c0-1.9,1.6-3,4.7-3.1l1.6-0.1v-0.6c0-0.8-0.2-1.3-0.5-1.7c-0.3-0.4-0.8-0.5-1.6-0.5c-0.8,0-1.7,0.2-2.7,0.7
		l-0.4-1.1c0.5-0.3,1-0.5,1.6-0.6s1.1-0.2,1.7-0.2c1.1,0,2,0.3,2.6,0.8s0.8,1.3,0.8,2.5v6.6H229.4z M226.1,541.7
		c0.9,0,1.6-0.2,2.1-0.7s0.8-1.2,0.8-2.1v-0.9l-1.5,0.1c-1.2,0-2,0.2-2.5,0.5c-0.5,0.3-0.8,0.8-0.8,1.5c0,0.5,0.2,0.9,0.5,1.2
		S225.5,541.7,226.1,541.7z"/>
	<path class="st1" d="M236.6,541.7c0.3,0,0.5,0,0.7-0.1c0.2,0,0.4-0.1,0.6-0.1v1.1c-0.2,0.1-0.4,0.1-0.7,0.2c-0.3,0-0.6,0.1-0.8,0.1
		c-1.9,0-2.8-1-2.8-2.9v-5.7h-1.4v-0.7l1.4-0.6l0.6-2.1h0.8v2.2h2.8v1.1h-2.8v5.7c0,0.6,0.1,1,0.4,1.3S236.1,541.7,236.6,541.7z"/>
	<path class="st1" d="M243.9,542.9c-1.4,0-2.5-0.4-3.4-1.3s-1.2-2.1-1.2-3.6c0-1.6,0.4-2.8,1.1-3.7s1.8-1.4,3.1-1.4
		c1.2,0,2.2,0.4,2.9,1.2c0.7,0.8,1.1,1.8,1.1,3.1v0.9h-6.6c0,1.1,0.3,2,0.9,2.6s1.3,0.9,2.3,0.9c1,0,2.1-0.2,3.1-0.7v1.3
		c-0.5,0.2-1,0.4-1.5,0.5C245.1,542.8,244.6,542.9,243.9,542.9z M243.5,534.1c-0.8,0-1.4,0.3-1.9,0.8s-0.7,1.2-0.8,2.1h5
		c0-0.9-0.2-1.6-0.6-2.1C244.9,534.3,244.3,534.1,243.5,534.1z"/>
	<path class="st1" d="M251.4,542.7h-1.5V529h1.5V542.7z"/>
	<path class="st1" d="M256,542.7h-1.5V529h1.5V542.7z"/>
	<path class="st1" d="M258.9,530.4c0-0.3,0.1-0.6,0.2-0.7c0.2-0.2,0.4-0.2,0.6-0.2c0.2,0,0.4,0.1,0.6,0.2s0.3,0.4,0.3,0.7
		s-0.1,0.6-0.3,0.7c-0.2,0.2-0.4,0.2-0.6,0.2c-0.2,0-0.5-0.1-0.6-0.2C259,531,258.9,530.8,258.9,530.4z M260.5,542.7H259V533h1.5
		V542.7z"/>
	<path class="st1" d="M266.7,541.7c0.3,0,0.5,0,0.7-0.1c0.2,0,0.4-0.1,0.6-0.1v1.1c-0.2,0.1-0.4,0.1-0.7,0.2c-0.3,0-0.6,0.1-0.8,0.1
		c-1.9,0-2.8-1-2.8-2.9v-5.7h-1.4v-0.7l1.4-0.6l0.6-2.1h0.8v2.2h2.8v1.1h-2.8v5.7c0,0.6,0.1,1,0.4,1.3S266.2,541.7,266.7,541.7z"/>
	<path class="st1" d="M274,542.9c-1.4,0-2.5-0.4-3.4-1.3s-1.2-2.1-1.2-3.6c0-1.6,0.4-2.8,1.1-3.7s1.8-1.4,3.1-1.4
		c1.2,0,2.2,0.4,2.9,1.2c0.7,0.8,1.1,1.8,1.1,3.1v0.9h-6.6c0,1.1,0.3,2,0.9,2.6s1.3,0.9,2.3,0.9c1,0,2.1-0.2,3.1-0.7v1.3
		c-0.5,0.2-1,0.4-1.5,0.5C275.2,542.8,274.7,542.9,274,542.9z M273.6,534.1c-0.8,0-1.4,0.3-1.9,0.8s-0.7,1.2-0.8,2.1h5
		c0-0.9-0.2-1.6-0.6-2.1C275,534.3,274.4,534.1,273.6,534.1z"/>
	<path class="st1" d="M290.7,542.7l-0.3-1.4h-0.1c-0.5,0.6-1,1-1.4,1.2c-0.5,0.2-1.1,0.3-1.8,0.3c-1,0-1.7-0.2-2.2-0.7
		s-0.8-1.2-0.8-2.1c0-1.9,1.6-3,4.7-3.1l1.6-0.1v-0.6c0-0.8-0.2-1.3-0.5-1.7c-0.3-0.4-0.8-0.5-1.6-0.5c-0.8,0-1.7,0.2-2.7,0.7
		l-0.4-1.1c0.5-0.3,1-0.5,1.6-0.6s1.1-0.2,1.7-0.2c1.1,0,2,0.3,2.6,0.8s0.8,1.3,0.8,2.5v6.6H290.7z M287.4,541.7
		c0.9,0,1.6-0.2,2.1-0.7s0.8-1.2,0.8-2.1v-0.9l-1.5,0.1c-1.2,0-2,0.2-2.5,0.5c-0.5,0.3-0.8,0.8-0.8,1.5c0,0.5,0.2,0.9,0.5,1.2
		S286.8,541.7,287.4,541.7z"/>
	<path class="st1" d="M298.6,542.9c-1.4,0-2.5-0.4-3.2-1.3c-0.8-0.9-1.1-2.1-1.1-3.6c0-1.6,0.4-2.9,1.2-3.7s1.9-1.3,3.3-1.3
		c0.5,0,0.9,0,1.4,0.1s0.8,0.2,1.1,0.4l-0.4,1.2c-0.3-0.1-0.7-0.2-1.1-0.3c-0.4-0.1-0.7-0.1-1-0.1c-2,0-2.9,1.2-2.9,3.7
		c0,1.2,0.2,2.1,0.7,2.7s1.2,0.9,2.1,0.9c0.8,0,1.6-0.2,2.5-0.5v1.3C300.4,542.7,299.6,542.9,298.6,542.9z"/>
	<path class="st1" d="M307.2,542.9c-1.4,0-2.5-0.4-3.2-1.3c-0.8-0.9-1.1-2.1-1.1-3.6c0-1.6,0.4-2.9,1.2-3.7s1.9-1.3,3.3-1.3
		c0.5,0,0.9,0,1.4,0.1s0.8,0.2,1.1,0.4l-0.4,1.2c-0.3-0.1-0.7-0.2-1.1-0.3c-0.4-0.1-0.7-0.1-1-0.1c-2,0-2.9,1.2-2.9,3.7
		c0,1.2,0.2,2.1,0.7,2.7s1.2,0.9,2.1,0.9c0.8,0,1.6-0.2,2.5-0.5v1.3C308.9,542.7,308.1,542.9,307.2,542.9z"/>
	<path class="st1" d="M320.2,537.9c0,1.6-0.4,2.8-1.2,3.7c-0.8,0.9-1.9,1.3-3.3,1.3c-0.9,0-1.6-0.2-2.3-0.6s-1.2-1-1.5-1.7
		s-0.5-1.6-0.5-2.7c0-1.6,0.4-2.8,1.2-3.7c0.8-0.9,1.9-1.3,3.3-1.3c1.3,0,2.4,0.4,3.2,1.3S320.2,536.3,320.2,537.9z M312.9,537.9
		c0,1.2,0.2,2.2,0.7,2.8s1.2,1,2.2,1s1.7-0.3,2.2-1c0.5-0.6,0.7-1.6,0.7-2.8c0-1.2-0.2-2.2-0.7-2.8c-0.5-0.6-1.2-1-2.2-1
		c-1,0-1.7,0.3-2.2,0.9S312.9,536.6,312.9,537.9z"/>
	<path class="st1" d="M324.1,533v6.2c0,0.8,0.2,1.4,0.5,1.8s0.9,0.6,1.7,0.6c1,0,1.7-0.3,2.2-0.8s0.7-1.5,0.7-2.7V533h1.5v9.6h-1.2
		l-0.2-1.3h-0.1c-0.3,0.5-0.7,0.8-1.2,1.1s-1.1,0.4-1.8,0.4c-1.2,0-2-0.3-2.6-0.8s-0.9-1.4-0.9-2.7V533H324.1z"/>
	<path class="st1" d="M340.4,542.7v-6.2c0-0.8-0.2-1.4-0.5-1.8s-0.9-0.6-1.7-0.6c-1,0-1.7,0.3-2.2,0.8s-0.7,1.4-0.7,2.7v5.1h-1.5
		V533h1.2l0.2,1.3h0.1c0.3-0.5,0.7-0.8,1.3-1.1c0.5-0.3,1.1-0.4,1.8-0.4c1.2,0,2,0.3,2.6,0.8c0.6,0.6,0.9,1.5,0.9,2.7v6.3H340.4z"/>
	<path class="st1" d="M348,541.7c0.3,0,0.5,0,0.7-0.1c0.2,0,0.4-0.1,0.6-0.1v1.1c-0.2,0.1-0.4,0.1-0.7,0.2c-0.3,0-0.6,0.1-0.8,0.1
		c-1.9,0-2.8-1-2.8-2.9v-5.7h-1.4v-0.7l1.4-0.6l0.6-2.1h0.8v2.2h2.8v1.1h-2.8v5.7c0,0.6,0.1,1,0.4,1.3S347.5,541.7,348,541.7z"/>
	<path class="st1" d="M357.4,540.1c0,0.9-0.3,1.6-1,2.1s-1.6,0.7-2.8,0.7c-1.3,0-2.3-0.2-3-0.6v-1.4c0.5,0.2,1,0.4,1.5,0.6
		s1,0.2,1.5,0.2c0.8,0,1.3-0.1,1.8-0.4c0.4-0.2,0.6-0.6,0.6-1.1c0-0.4-0.2-0.7-0.5-1c-0.3-0.3-1-0.6-1.9-0.9
		c-0.9-0.3-1.5-0.6-1.9-0.9c-0.4-0.2-0.7-0.5-0.8-0.8s-0.3-0.7-0.3-1.1c0-0.8,0.3-1.4,1-1.9c0.6-0.5,1.5-0.7,2.6-0.7
		c1,0,2.1,0.2,3,0.6l-0.5,1.2c-1-0.4-1.8-0.6-2.6-0.6c-0.7,0-1.2,0.1-1.6,0.3s-0.5,0.5-0.5,0.9c0,0.3,0.1,0.5,0.2,0.7
		s0.3,0.4,0.6,0.5s0.9,0.4,1.7,0.7c1.1,0.4,1.9,0.8,2.3,1.3S357.4,539.4,357.4,540.1z"/>
	<path class="st1" d="M361.3,540.6l0.1,0.2c-0.2,0.6-0.4,1.3-0.7,2c-0.3,0.8-0.6,1.5-0.9,2.2h-1.1c0.2-0.6,0.3-1.4,0.5-2.3
		s0.3-1.6,0.4-2.2H361.3z"/>
	<path class="st1" d="M376.7,542.7h-8.4v-1.3l3.4-3.4c1-1,1.7-1.8,2-2.2s0.6-0.9,0.7-1.3s0.2-0.9,0.2-1.4c0-0.7-0.2-1.2-0.6-1.6
		c-0.4-0.4-1-0.6-1.7-0.6c-0.5,0-1,0.1-1.5,0.3s-1,0.5-1.6,1l-0.8-1c1.2-1,2.5-1.5,3.9-1.5c1.2,0,2.2,0.3,2.8,0.9
		c0.7,0.6,1,1.4,1,2.5c0,0.8-0.2,1.6-0.7,2.4s-1.3,1.8-2.6,3l-2.8,2.8v0.1h6.6V542.7z"/>
	<path class="st1" d="M387,536.2c0,2.2-0.4,3.9-1.1,5s-1.8,1.6-3.2,1.6c-1.4,0-2.4-0.6-3.2-1.7c-0.7-1.1-1.1-2.8-1.1-4.9
		c0-2.2,0.3-3.9,1-5s1.8-1.6,3.2-1.6c1.4,0,2.5,0.6,3.2,1.7S387,534.1,387,536.2z M380,536.2c0,1.9,0.2,3.2,0.7,4.1
		c0.4,0.9,1.1,1.3,2.1,1.3c1,0,1.7-0.4,2.1-1.3c0.4-0.9,0.7-2.2,0.7-4.1s-0.2-3.2-0.7-4.1c-0.4-0.9-1.1-1.3-2.1-1.3
		c-1,0-1.7,0.4-2.1,1.3C380.2,533,380,534.4,380,536.2z"/>
	<path class="st1" d="M397.3,536.2c0,2.2-0.4,3.9-1.1,5s-1.8,1.6-3.2,1.6c-1.4,0-2.4-0.6-3.2-1.7c-0.7-1.1-1.1-2.8-1.1-4.9
		c0-2.2,0.3-3.9,1-5s1.8-1.6,3.2-1.6c1.4,0,2.5,0.6,3.2,1.7S397.3,534.1,397.3,536.2z M390.3,536.2c0,1.9,0.2,3.2,0.7,4.1
		c0.4,0.9,1.1,1.3,2.1,1.3c1,0,1.7-0.4,2.1-1.3c0.4-0.9,0.7-2.2,0.7-4.1s-0.2-3.2-0.7-4.1c-0.4-0.9-1.1-1.3-2.1-1.3
		c-1,0-1.7,0.4-2.1,1.3C390.5,533,390.3,534.4,390.3,536.2z"/>
	<path class="st1" d="M403.1,534.8c1.4,0,2.4,0.3,3.2,1c0.8,0.7,1.2,1.6,1.2,2.8c0,1.3-0.4,2.4-1.3,3.1s-2,1.1-3.5,1.1
		c-1.4,0-2.6-0.2-3.3-0.7v-1.4c0.4,0.3,0.9,0.5,1.5,0.6c0.6,0.1,1.2,0.2,1.8,0.2c1,0,1.8-0.2,2.4-0.7s0.9-1.2,0.9-2.1
		c0-1.8-1.1-2.7-3.3-2.7c-0.6,0-1.3,0.1-2.2,0.3l-0.8-0.5l0.5-6h6.4v1.3h-5.1l-0.3,3.9C401.8,534.9,402.4,534.8,403.1,534.8z"/>
	<path class="st1" d="M417.8,541.7c0.3,0,0.5,0,0.7-0.1c0.2,0,0.4-0.1,0.6-0.1v1.1c-0.2,0.1-0.4,0.1-0.7,0.2c-0.3,0-0.6,0.1-0.8,0.1
		c-1.9,0-2.8-1-2.8-2.9v-5.7h-1.4v-0.7l1.4-0.6l0.6-2.1h0.8v2.2h2.8v1.1h-2.8v5.7c0,0.6,0.1,1,0.4,1.3S417.4,541.7,417.8,541.7z"/>
	<path class="st1" d="M429.4,537.9c0,1.6-0.4,2.8-1.2,3.7c-0.8,0.9-1.9,1.3-3.3,1.3c-0.9,0-1.6-0.2-2.3-0.6s-1.2-1-1.5-1.7
		s-0.5-1.6-0.5-2.7c0-1.6,0.4-2.8,1.2-3.7c0.8-0.9,1.9-1.3,3.3-1.3c1.3,0,2.4,0.4,3.2,1.3S429.4,536.3,429.4,537.9z M422,537.9
		c0,1.2,0.2,2.2,0.7,2.8s1.2,1,2.2,1s1.7-0.3,2.2-1c0.5-0.6,0.7-1.6,0.7-2.8c0-1.2-0.2-2.2-0.7-2.8c-0.5-0.6-1.2-1-2.2-1
		c-1,0-1.7,0.3-2.2,0.9S422,536.6,422,537.9z"/>
	<path class="st1" d="M444.4,542.7H436v-1.3l3.4-3.4c1-1,1.7-1.8,2-2.2s0.6-0.9,0.7-1.3s0.2-0.9,0.2-1.4c0-0.7-0.2-1.2-0.6-1.6
		c-0.4-0.4-1-0.6-1.7-0.6c-0.5,0-1,0.1-1.5,0.3s-1,0.5-1.6,1l-0.8-1c1.2-1,2.5-1.5,3.9-1.5c1.2,0,2.2,0.3,2.8,0.9
		c0.7,0.6,1,1.4,1,2.5c0,0.8-0.2,1.6-0.7,2.4s-1.3,1.8-2.6,3l-2.8,2.8v0.1h6.6V542.7z"/>
	<path class="st1" d="M454.8,536.2c0,2.2-0.4,3.9-1.1,5s-1.8,1.6-3.2,1.6c-1.4,0-2.4-0.6-3.2-1.7c-0.7-1.1-1.1-2.8-1.1-4.9
		c0-2.2,0.3-3.9,1-5s1.8-1.6,3.2-1.6c1.4,0,2.5,0.6,3.2,1.7S454.8,534.1,454.8,536.2z M447.7,536.2c0,1.9,0.2,3.2,0.7,4.1
		c0.4,0.9,1.1,1.3,2.1,1.3c1,0,1.7-0.4,2.1-1.3c0.4-0.9,0.7-2.2,0.7-4.1s-0.2-3.2-0.7-4.1c-0.4-0.9-1.1-1.3-2.1-1.3
		c-1,0-1.7,0.4-2.1,1.3C448,533,447.7,534.4,447.7,536.2z"/>
	<path class="st1" d="M461.9,542.7h-1.4v-9.2c0-0.8,0-1.5,0.1-2.2c-0.1,0.1-0.3,0.3-0.4,0.4s-0.8,0.7-2.1,1.7l-0.8-1l3.4-2.6h1.2
		V542.7z"/>
	<path class="st1" d="M475.9,539.7H474v3h-1.4v-3h-6.2v-1.3l6.1-8.7h1.5v8.6h1.9V539.7z M472.6,538.4v-4.3c0-0.8,0-1.8,0.1-2.8h-0.1
		c-0.3,0.6-0.5,1-0.8,1.4l-4,5.7H472.6z"/>
</g>
<g>
	<path class="st1" d="M831.8,110c-22.8,0-43.8,7.4-60.9,19.9c-2,1-3.9,2.3-5.5,3.9l-2.9,2.9c-0.3,0.3-0.7,0.7-1,1l41.2,41.2
		c7.1,7.1,11,16.5,11,26.5s-3.9,19.4-11,26.5c-7.1,7.1-16.5,11-26.5,11c-10,0-19.4-3.9-26.5-11l-28.2-28.2l0,0l-13.1-13.1l-1.9,1.9
		l0,0l-75.3,75.3c-8.1,8.1-8.1,21.4,0,29.5c8.1,8.1,21.4,8.1,29.5,0l54.2-54.2c1.2-1.1,2.8-1.8,4.6-1.8c3.7,0,6.7,3,6.7,6.7
		c0,1.8-0.7,3.4-1.8,4.6l0,0L670,307.1c-8.1,8.1-8.1,21.4,0,29.5s21.4,8.1,29.5,0l55-55c0,0,0,0,0,0l-4.9,4.9l0,0
		c1.2-1.1,2.8-1.8,4.6-1.8c3.7,0,6.7,3,6.7,6.7c0,1.8-0.7,3.4-1.8,4.6l0,0l4.9-4.9c0,0,0,0,0,0L709,346.2c-8.1,8.1-8.1,21.4,0,29.5
		c8.1,8.1,21.4,8.1,29.5,0l63.7-63.7c0,0,0.1,0,0.1,0l-3.7,3.7l0,0c1.2-1.1,2.8-1.8,4.6-1.8c3.7,0,6.7,3,6.7,6.7
		c0,1.5-0.5,2.8-1.3,3.9l-61.1,61.1c-7.9,7.9-7.9,20.7,0,28.6c7.9,7.9,20.7,7.9,28.6,0l121-121c5.5-4.5,10.5-9.6,15-15.1
		c0.4-0.5,0.8-1,1.2-1.5c13.6-17.5,21.7-39.4,21.7-63.3C935,156.2,888.8,110,831.8,110z M725.1,252l8.1-8.2c0,0,0,0,0,0L725.1,252z"
		/>
	<path class="st2" d="M698.5,181.1l0.2-0.2l-19.4-19.4l9.8-9.8l24,24c0,0,0.1,0.1,0.1,0.1l5,5l41.2,41.2v0c1.4,1.4,2.9,2.5,4.5,3.5
		c1.1,0.6,2.1,1.2,3.3,1.7c2.8,1.1,5.9,1.7,8.9,1.7l0,0c6.1,0,12.1-2.3,16.7-6.9c9.2-9.2,9.2-24.2,0-33.4l-18-18l-9-9l0,0
		l-29.2-29.2l-0.5-0.5c-13.4-13.2-31.8-21.3-52-21.3c-5.2,0-10.2,0.5-15.1,1.5l-0.7,0.2C622.4,122.9,588,164,588,213.2
		c0,23.9,8.1,45.8,21.7,63.3c0.4,0.5,0.7,1,1.2,1.5c0.2,0.2,0.3,0.4,0.5,0.6c1-7.7,4.4-14.7,9.9-20.2L698.5,181.1L698.5,181.1z"/>
</g>
</svg>
